<?xml version="1.0" encoding="UTF-8" standalone="no"?>
<svg
   xmlns:svg="http://www.w3.org/2000/svg"
   xmlns="http://www.w3.org/2000/svg"
   version="1.1"
   width="64.000008"
   height="42.321232">
  <path
     style="fill:#e0e0e0;fill-rule:evenodd;stroke:none;stroke-width:0.02325428"
     d="m 60.29006,0 c -3.30568,0.0569 -6.62057,0.42416 -9.87425,0.94362 -1.4706,0.36403 0.52285,2.31382 -1.07392,1.81302 1.90407,-0.98918 -5.47015,-1.69457 -3.1008,-0.11651 1.61449,-0.16611 2.68195,0.10622 0.38792,0.25695 -1.48613,0.31305 -1.91041,-0.96196 -2.85485,0.48054 -1.36325,-0.67183 -2.43082,0.26522 -3.52229,-0.82926 -1.21866,-0.15451 -5.32219,1.074 -2.1852,1.22876 2.20579,1.32765 4.88551,-0.29761 7.22892,0.14971 -0.217,0.39732 -4.31068,1.31069 -1.48823,2.11296 1.46681,0.49136 -3.82028,1.68442 -2.03085,-0.75417 1.92513,-1.67259 -1.9779,0.12388 -2.87409,-0.47107 -1.80876,-1.33105 -5.41369,-0.82429 -6.10588,1.07574 0.70107,0.46962 3.49373,-0.68018 1.62533,0.9713 -2.58082,-0.25124 -4.99704,-0.76615 -7.58979,-0.0866 -1.61052,0.0561 -4.53516,-0.39044 -6.86795,-0.93924 -2.56174,0.0711 -5.05111,0.85882 -7.45923,1.62247 0.97511,2.39372 -2.96236,-0.007 -3.11614,2.18063 1.1311,0.51867 2.28665,0.39802 0.41742,0.67536 -1.58321,0.40083 -3.66536,1.48918 -4.46616,2.32973 0.77528,0.12373 2.66638,-0.22586 1.11275,0.83851 1.19799,-0.004 2.60988,0.0879 0.68383,0.69787 C 4.81217,15.13526 2.29127,15.57714 0,16.56789 c 1.00318,0.3772 4.51498,-0.89426 6.22611,-1.34255 0.78706,-0.22784 3.81761,-1.63384 1.88561,-0.0922 2.64036,-0.71385 4.77286,-2.83156 7.68387,-2.5233 3.11931,-0.67228 2.76138,3.02349 1.47715,4.45708 0.63972,1.47116 1.43888,-2.34071 1.50837,0.0855 -0.13119,1.04597 -0.9286,1.99791 0.0872,3.04731 -0.82981,2.36181 -3.6398,4.0428 -3.16031,6.86351 -0.12755,1.34312 1.0065,3.77584 1.53013,3.17411 -0.16206,1.33821 1.10886,3.09851 0.22422,3.31464 1.1023,0.81769 1.22081,3.92949 2.6667,2.90502 -0.42778,-1.18666 -1.75067,-5.00972 -0.0754,-2.20783 2.02779,1.67088 1.10717,4.90037 3.38491,6.23554 1.79337,1.00559 4.54005,1.50147 5.95375,1.76322 1.16557,-0.97599 0.62272,-2.17682 2.6642,-2.01984 1.31509,-1.11885 1.00838,-3.62443 -1.2032,-2.28682 -0.70676,3.49986 -5.34084,1.29536 -3.77727,-1.54645 0.0613,-2.86195 2.80988,-4.81707 5.41892,-3.37452 0.33951,-1.82855 4.4671,-0.85297 3.43212,1.36117 0.91452,2.66486 2.31098,-0.41101 1.34182,-1.76918 0.27307,-3.11446 4.82189,-2.79574 5.08819,-6.04363 0.9837,-1.91743 3.7594,-1.20596 3.91756,-3.44196 0.80409,-0.35141 2.52311,-1.02791 2.37571,0.56676 0.29125,-1.66733 5.27986,-1.44983 3.40367,-2.853 -2.13148,0.78213 -1.23671,-0.89589 -1.74557,-1.77062 -1.80514,0.27696 1.03256,-0.67208 1.22356,0.52606 0.83488,-0.46038 -0.12138,-0.91513 1.35834,-0.7357 1.10041,-0.47641 2.43254,-0.9758 0.8718,0.34353 -1.99691,0.97188 0.51761,2.87699 1.66955,1.70835 1.32781,0.87443 1.59769,-2.03838 0.24693,-2.31539 1.12187,-1.73555 0.29295,-3.01657 -1.08087,-3.79891 0.47777,-1.5251 -0.67506,-3.79464 -2.12353,-1.60882 -1.73688,0.29171 0.19608,-1.87249 -1.48893,-2.10886 -1.1155,-0.40539 -2.82772,0.0189 -0.97648,-1.01625 1.62439,0.002 1.72355,1.58975 3.85832,1.5501 0.87941,0.15351 -0.46407,-1.1001 1.08929,-0.50225 0.34512,-0.51584 0.82698,-0.70018 0.46712,-1.62133 1.4361,0.54713 3.40669,-1.54939 1.03337,-1.88539 -0.66872,-0.0338 0.4358,-1.70395 -1.22699,-1.84315 -1.69298,-1.58801 -3.91,-1.30166 -6.14708,-1.32598 3.17046,0.498 5.70401,-1.36518 8.527,-2.34499 C 59.66154,1.35195 62.01083,1.19382 64.00001,0.41334 62.92384,-0.12269 61.49132,0.08614 60.29007,0 Z m -0.35152,0.1514 0.0323,0.0107 z m 0.0611,0.002 c 0.16141,0.004 -0.0853,0.11177 0,0 z m -1.1714,0.0222 0.008,0.0212 z m 0.36238,0.0222 c 0.43309,0.0623 -0.31393,0.18696 0,0 z m -1.15526,0.53139 c 0.32184,0.30301 -0.57638,0.0552 0,0 z m -5.66607,0.0792 c 0.81999,0.17347 0.25259,0.52865 0,0 z m 4.35956,0.0446 c 0.27829,-0.024 -0.11962,0.22122 0,0 z m 5.47188,0 c 0.10661,0.0761 -0.13762,0.004 0,0 z M 48.78928,1.22788 c -1.82266,0.4685 1.33332,0.61559 0,0 z m -5.07444,0.66288 c -1.64207,-0.5483 -2.30878,1.80821 -0.33095,0.71142 0.45626,-0.003 1.36071,-0.66474 0.33095,-0.71142 z m 1.83789,0.2299 0.003,0.002 z m 2.24717,0.17049 -0.017,0.0216 z m 5.37265,0.0969 -0.003,0.0589 z m -2.01728,0.0438 c 0.76183,0.57728 -0.97963,0.0499 0,0 z m 3.40688,0.0754 c 0.15524,0.13188 -0.24652,0.0305 0,0 z m -2.37619,0.22579 c 0.17157,0.0491 -0.17018,0.0672 0,0 z m -1.10112,0.0918 c 0.2906,-0.0226 -0.17125,0.15079 0,0 z m -3.24923,0.0224 -0.01,0.0785 z m -0.57368,0.16571 c 1.13288,0.27514 -0.70113,0.98925 0,0 z m -0.98675,0.17757 c 0.5619,-0.002 -0.29474,0.36721 0,0 z m 6.35874,0.14861 -0.0487,0.006 z m -2.28421,1.5e-4 c 1.45543,-0.25959 1.68371,0.5004 0,0 z m 0.11504,0.0318 10e-4,0.0166 z m -1.86636,0.0509 c -0.72887,0.42196 0.56206,1.40209 -0.93393,0.81987 0.57836,-0.007 0.22888,-1.145 0.93393,-0.81987 z m -6.76637,0.007 c 0.27161,0.17929 -0.36252,0.0164 0,0 z m 11.78881,0.038 -0.0813,0.0173 z M 41.73097,3.59403 c 0.26009,-0.0261 0.0758,0.23767 0,0 z m -0.42211,0.048 -0.0453,0.014 z m 3.48916,0.017 c -0.0905,0.2005 -0.33978,-0.17011 0,0 z m 1.54941,0.3767 c 0.15955,1.07761 -1.3383,0.5431 0,0 z m 0.64362,0.1728 0.0401,0.0239 z m 1.65654,0.4621 c -1.54448,0.24982 -1.82157,1.89271 -0.73495,2.433 -2.09853,1.0993 -2.34966,-2.6739 0.0592,-2.11151 L 48.3481,4.86103 Z m -5.17121,0.32305 0.0196,0.004 z m 2.06631,0.0984 c -0.12436,0.44371 -0.68096,0.57016 0,0 z m 4.02813,0.0792 -0.0428,0.0743 z m -9.03049,0.13906 c 0.35704,0.17462 -0.41416,0.18839 0,0 z m -1.72418,0.0523 0.0489,0.10993 z m 3.63168,0.74582 c -1.08646,0.66458 1.61143,0.44333 0,0 z m -21.2085,0.0839 -0.0207,0.0163 z m -4.46867,0.16835 c 0.55502,0.16594 -0.56235,0.29365 0,0 z m 0.58915,0.0642 c 0.11385,0.10633 -0.13327,0.0534 0,0 z m 12.71516,0.006 -0.0156,0.0409 z m 11.068,0.0535 c 0.35821,0.11783 -0.33205,0.24041 0,0 z m -11.97082,0.0354 c 0.38629,0.0957 -0.29067,0.2585 0,0 z m 22.76976,0.0591 0.003,0.0681 z m -22.98402,0.006 c 0.21763,0.32145 -0.49438,0.0557 0,0 z m -13.55495,0.0634 c 0.47708,0.2094 -0.508,0.26069 0,0 z m 36.55197,0.0163 0.001,0.0184 z m -1.94914,0.19781 c 0.61492,0.64252 0.38997,1.24363 1.46751,0.26048 -1.73834,2.48496 0.89464,0.54275 1.01108,1.15417 -1.83863,1.06223 -3.77291,1.11606 -4.65994,3.38192 -0.82024,0.75762 -0.36901,0.7309 -1.11744,1.8046 0.97262,1.91472 -3.98145,2.64665 -2.50566,3.64577 -1.95099,2.24935 -0.61827,-1.42696 -0.49643,-1.76585 -2.00939,0.3507 -6.11874,-2.33154 -2.68694,-3.68655 0.76826,-0.54341 4.88973,-2.05104 3.99249,-1.57707 -1.16185,0.7692 2.62836,1.72187 1.53149,0.54741 -1.40366,-0.26772 3.05097,0.11454 0.96217,-1.18546 0.22598,-1.06303 2.31421,-1.12361 2.50167,-2.57942 z m -1.74837,0.0609 0.038,0.10285 z m -4.13262,0.0619 c 0.24079,0.0881 -0.33039,0.14685 0,0 z m -13.59774,0.0374 c 0.43913,0.15615 -0.48414,0.19966 0,0 z m 13.61567,0.0257 -0.003,6.2e-4 z m 0.69596,0.0327 c 0.54917,0.10923 -0.40186,0.17841 0,0 z m 7.59776,0.0173 -0.0148,0.006 z m -5.76875,0.0324 c 0.14759,-0.0622 -0.004,0.1259 0,0 z m 5.93711,0.0109 0.0145,0.13066 z m -8.68737,0.003 -0.0881,0.0511 z m -8.26903,0.0709 c -0.0416,0.49864 -0.58319,-0.3304 0,0 z m 5.63085,0.006 c 1.56333,1.00891 -3.60332,0.0621 -0.37707,0.29086 l 0.20861,-0.0901 z m 2.56462,0.1779 c -0.15927,0.36046 -0.90392,-0.0339 0,0 z m 12.1525,0.0657 0.009,0.007 z m -12.3123,0.0541 -0.001,4.7e-4 z m -8.16716,0.0267 c 1.73335,0.0917 -1.25605,0.59481 0,0 z m 11.25281,0.14252 c -0.005,0.67394 -0.79458,0.0694 0,0 z m -3.57688,0.1881 c 0.11073,0.11421 -0.2182,0.0208 0,0 z m -4.6808,0.0846 0.01,0.005 z m 8.3681,0.23336 c 0.52245,0.0174 -0.25298,0.31534 0,0 z m -14.81652,0.0125 0.0229,0.0854 z m 15.87486,0.081 c 0.45014,0.32266 -0.36218,0.31747 0,0 z m -35.05869,0.24421 -0.01,0.0752 z m 40.43166,0.0632 c 0.20566,0.0903 -0.0436,0.28538 0,0 z m -22.33118,0.0709 c 0.98498,0.39701 -0.7174,0.36694 0,0 z M 9.13521,8.68271 c -1.10072,0.23549 0.59259,0.5603 0,0 z m 37.50564,0.10088 0.009,0.0278 z m -36.36239,0.0601 c 0.36964,0.25618 -0.55738,0.13776 0,0 z m 21.42195,0.0416 c -0.0656,0.25271 -0.40002,-0.28089 0,0 z m 23.27037,0.0392 c 0.8431,0.52258 -0.51775,0.55095 0,0 z m -42.69348,0.063 c 0.32478,-0.15014 -0.0899,0.29151 0,0 z m 19.13659,0.0333 c 0.16911,0.033 -0.14253,0.10866 0,0 z m 25.15484,0.0548 8.2e-4,0.007 z m -46.27249,0.0204 c 0.3915,0.23451 -0.54182,0.17296 0,0 z m 19.55788,0.2146 c -0.051,0.14324 -0.32862,-0.0652 0,0 z m 22.5522,0.87385 0.003,0.0115 z m -45.50923,0.0892 c -1.6934,0.60836 0.12483,1.1007 0.43177,0.146 z m -0.0192,0.17214 0.001,0.0104 z m 47.32013,0.11256 0.0105,0.0303 z m -6.52742,0.32815 c -1.74434,0.52138 0.91011,1.05855 0.006,10e-4 z m -13.78205,0.11421 -0.003,0.0331 z m -0.0838,0.0607 c 0.12295,0.0953 -0.17469,0.0464 0,0 z m -0.0752,0.0953 c 0.11588,0.0873 -0.18701,0.027 0,0 z m -2.39759,0.0193 c 1.57849,0.40444 -1.91873,1.13282 0,0 z m 1.64535,0.0553 c -0.24412,0.14525 -0.16364,0.0974 0,0 z m -0.66008,0.0821 c 0.16387,-0.0163 -0.15056,0.0807 0,0 z m 0.0415,0.11783 c 0.17301,-0.0356 -0.0792,0.16652 0,0 z m -0.19024,0.01 c 0.26408,0.0741 -0.34143,0.13461 0,0 z m -17.15981,0.29096 c 0.0977,0.0798 -0.15612,0.0449 0,0 z m -7.7383,0.14614 0.008,4.6e-4 z m 45.1141,0.14186 c -1.89942,0.77703 0.9222,0.66462 0,0 z m -45.48257,0.0135 c 0.21913,0.16836 0.12476,0.0959 0,0 z m 39.72467,0.37538 c -1.24728,0.31198 0.15728,0.94313 0,0 z m -34.41818,0.2796 c -0.58306,0.56868 -1.62718,0.53326 0,0 z m -1.12811,0.41636 c 0.12555,-0.0234 -0.0801,0.17449 0,0 z m -0.29441,0.21887 c 0.0906,0.0944 -0.19003,0.0262 0,0 z m -2.27005,0.21016 c 0.45047,0.0142 -0.22039,0.55423 0,0 z m 37.35934,0.0214 c -1.5321,0.66253 -0.45421,2.87995 -0.10047,0.64958 l 0.0923,-0.19266 z m -27.25719,0.30001 -0.005,0.0415 z M 5.66996,14.75631 c 0.14542,0.19243 -0.29648,0.10335 0,0 z m 0.17131,0.0191 c 0.13237,0.11933 -0.23106,0.0197 0,0 z m 2.45486,0.0862 c -1.06779,-0.034 -0.7867,1.18273 0,0 z m -2.60445,0.028 c 0.315,0.2477 -0.39546,0.12921 0,0 z m -1.45741,0.29902 c 0.53027,0.30928 -0.66711,0.23983 0,0 z m 16.13866,0.063 -0.0173,0.0231 z m 34.60563,0.4682 0.029,0.12935 z m -50.51241,0.0135 -0.002,0.004 z m 14.48788,0.0877 -0.29797,0.46956 z m -0.38542,0.15601 c 0.23813,-0.0258 -0.21138,0.1396 0,0 z m -16.44459,0.0629 -0.0157,0.0284 z m 42.64246,0.22003 c -0.13751,0.41334 -0.10123,0.30429 0,0 z m -9.89694,0.24422 c 0.3013,0.98458 -0.50773,0.76357 -0.23758,0.15132 l 0.0947,-0.10657 z m -14.93765,0.009 -0.009,0.022 z m 34.5946,0.12919 c 0.0831,0.13971 -0.21837,-0.0328 0,0 z m -34.59987,0.0214 c 0.38206,-0.0242 -0.21985,0.16197 0,0 z m 35.46747,1.85583 c 0.20588,0.32128 -0.49169,0.15768 0,0 z m -36.62997,0.0922 0.0188,0.007 z m 36.57731,0.66107 c 0.46554,0.16276 -0.11438,0.27965 0,0 z m -1.38451,0.0273 0.01,0.0563 z m 2.45437,0.0258 -0.008,0.0182 z m -2.3938,0.0372 c 0.17305,0.12107 -0.14633,0.08 0,0 z m -0.0481,0.0132 0.005,0.002 z m 1.33399,0.0472 0.0107,0.0328 z m -7.17483,0.27582 c 0.31955,0.0331 -0.48215,0.13019 0,0 z m -9.5046,0.0895 c 1.56491,1.28965 -0.57454,1.07696 -1.03834,0.725 -2.30983,0.47276 0.12716,-0.20297 0.76845,-0.64868 z m 13.46707,0.41833 c -1.78944,0.15812 -0.58569,1.34613 0,0 z m -33.22195,0.28833 c 0.47484,0.11432 -0.35769,0.2842 0,0 z m 31.28005,0.0252 c 0.17706,0.39267 -0.43793,0.21999 0,0 z m -30.83473,0.13971 c 0.30179,0.10259 -0.19371,0.17253 0,0 z m 32.0415,0.62684 c -0.14552,0.31307 -0.29524,0.0278 0,0 z M 40.8963,21.64327 c 0.68674,0.27136 -0.58208,0.42833 0,0 z m -2.46984,0.006 c -0.70844,0.81346 -2.537,3.64217 -1.17415,1.02337 0.31246,-0.41453 0.66842,-0.83897 1.17415,-1.02337 z m 1.14359,0.003 c 1.82381,0.027 -0.66432,2.4389 0.22016,0.3008 0.0929,-0.12525 -0.41941,-0.21083 -0.22016,-0.3008 z m 0.63802,0.16934 c 0.19874,-0.0647 -0.007,0.24471 0,0 z m 0.90908,0.13017 c 0.33739,0.36561 -0.52176,0.40199 0,0 z m 7.69996,0.16918 c -0.44964,0.68623 -0.52963,-0.0239 0,0 z m 3.42597,0.47313 c -0.99957,-0.14412 -0.93507,0.90642 0,0 z m -9.90188,0.34329 c 1.32877,0.19145 -1.84845,0.0948 0,0 z m -25.50602,0.54883 c 0.21566,0.38188 -0.43227,0.0579 0,0 z m 23.28979,0.33588 c 0.1803,0.69755 -1.94945,0.35069 0,0 z m -1.10787,0.4315 c 0.10758,0.23288 -0.44526,-0.19762 0,0 z m 3.9753,1.66575 -0.006,0.008 z m -0.0242,0.0303 -0.004,0.005 z m -1.39652,0.17774 -0.0143,0.0374 z m 0.53847,0.24257 c 0.31145,-0.0455 0.0165,0.24441 0,0 z m -25.45073,3.06672 c 0.92862,0.21263 -0.43016,0.35564 0,0 z m 30.14009,0.41586 c -2.25337,1.98068 2.49284,1.06285 0,0 z m -7.80414,0.039 0.0766,0.0484 z M 18.6372,31.15557 c 1.72471,1.15196 -0.70306,2.36609 0,0 z m 15.70963,0.46079 c 0.32962,0.1551 -0.30534,0.10667 0,0 z m -1.48868,0.003 c 0.62306,0.2656 -0.36824,0.43411 0,0 z m 0.9122,0.0123 c 0.36731,0.0759 -0.21554,0.14026 0,0 z m 0.6586,0.10203 c 0.25346,0.12605 -0.16639,0.10525 0,0 z m -1.09355,0.0665 0.0207,0.0379 z m -0.17691,0.0546 0.004,0.005 z m 1.02904,0.10747 0.0217,10e-4 z m -17.7822,0.28305 c -1.04053,0.32232 -0.27668,1.35061 0,0 z m 12.62119,0.70254 -0.005,10e-4 z m -1.72697,0.94693 -0.0527,0.0304 z m 11.44996,0.1407 c -2.11028,-0.10193 2.0152,1.66602 -0.074,1.8899 0.42952,-1.82576 -1.87889,0.96111 0.31601,0.95367 1.64409,0.7161 1.50454,0.37798 1.3586,-0.54665 -0.20985,-0.29645 -0.95042,-1.31114 -1.60056,-2.29692 z m -18.6391,0.99926 c -0.26809,0.0333 0.12457,0.14229 0,0 z m 6.76932,0.58207 0.005,0.04 z m -7.15013,0.0267 6.2e-4,0.0332 z m 19.84489,0.1705 c 0.35923,0.3419 -0.20754,0.20293 0,0 z m -19.94923,0.12934 c 0.3764,0.30501 -0.17468,0.19153 0,0 z M 36.56339,36.546 c -1.29925,-0.59605 -3.72456,1.55478 -1.39558,1.33068 1.02458,-1.95871 2.9603,2.48203 4.90418,1.0049 0.0953,-1.03028 -2.5605,-1.90201 -3.5086,-2.33558 z m -9.86353,0.13182 c 0.45558,0.16668 -0.3295,0.39091 0,0 z m 14.9778,0.11108 c -1.00701,0.30107 -1.76155,2.31215 -0.0707,1.23541 1.14022,-0.0806 0.85815,-0.84893 0.0707,-1.23541 z m -3.8991,0.55591 c 0.62914,0.0342 -0.28645,0.48712 0,0 z m -2.74598,0.15239 -0.0209,0.009 z m -13.69055,0.0339 c -0.31584,0.62404 0.7771,0.13427 0,0 z m 19.82153,0.11833 0.006,0.0288 z m -9.35914,0.15025 c 0.43704,0.0613 -0.31618,0.1901 0,0 z m 6.13344,0.69612 c 0.83707,-0.36315 -0.0983,0.64278 0,0 z M 26.65543,38.521 c 0.1191,0.15546 -0.15489,0.0355 0,0 z m 9.33757,0.10006 c -2.25329,1.98067 2.49303,1.06276 0,0 z m 4.98624,0.0252 c -0.63468,1.00785 -1.84452,1.5501 0.11406,1.81026 1.54623,-0.0415 3.57908,-0.67433 1.02001,-1.72028 -0.36079,-0.37644 -0.76402,0.064 -1.13407,-0.09 z m 4.96287,0.0118 c -3.00101,0.43205 -1.84211,2.59523 0.29382,3.24467 1.30605,1.14716 2.7913,-0.36306 1.09277,-0.96808 2.25042,-0.70358 -0.69977,-1.82503 -1.38659,-2.27659 z m -7.76694,0.79816 c -2.55856,1.20414 2.75478,1.57918 0,0 z m 2.80423,0.18991 v 0.0186 z m -13.71507,0.029 c 0.39469,0.0937 -0.28047,0.15363 0,0 z m 13.71376,0.009 c 0.30015,0.24218 -0.31327,0.18787 0,0 z m -13.0336,0.0987 c 0.32633,0.15429 -0.29748,0.14243 0,0 z m -0.51016,0.017 c 0.12646,0.0712 -0.18177,-0.0248 0,0 z m 0.61663,0.28354 c 0.6058,0.12401 -0.56318,0.3728 0,0 z m -0.84538,1.39834 c 0.2123,-0.0366 -0.10541,0.14402 0,0 z m 1.4533,0.3451 c 0.22428,0.0211 -0.096,0.19571 0,0 z"
     id="path2614" />
</svg>
