<?xml version="1.0" encoding="UTF-8" standalone="no"?>
<svg
   xmlns:svg="http://www.w3.org/2000/svg"
   xmlns="http://www.w3.org/2000/svg"
   version="1.1"
   width="63.999187"
   height="50.349415">
  <path
     style="fill:#e0e0e0;fill-rule:evenodd;stroke:none;stroke-width:0.04754853"
     d="m 46.120051,0.01414185 c -2.2793,-0.1233 -4.09714,0.58652 -5.86219,1.08498995 -2.1543,0.85126 -4.96416,1.01563 -6.14815,2.90267 0.57766,0.80779 1.97971,-0.10679 0.33984,1.09559 -1.38257,2.23179 -3.19443,3.65942 -5.72898,4.46389 -3.30622,0.7803202 -2.97409,5.3660502 -0.35959,6.7544302 1.14262,0.79577 5.63406,-2.4201 3.49914,0.0347 -3.00735,0.31883 -2.10757,4.08961 -2.17723,5.28798 -3.33408,-1.48951 -4.08347,3.84554 -6.70293,3.0257 1.38243,-1.82245 -1.11852,-2.40386 -1.1957,-3.78746 -2.17608,-0.84186 -2.22955,-2.88952 -1.73513,-4.56161 -3.34201,0.52557 2.71344,-2.95685 -0.9745,-1.98577 -1.05943,1.13908 -2.87431,1.10832 -3.0808,1.44935 -0.84487,-1.21641 -3.23214,1.33698 -1.06723,2.14363 -0.88174,0.99297 -0.46333,0.84943 0.002,1.12597 -0.85649,0.85936 -2.86364,0.0277 -2.877,1.64209 -1.30318,-0.82194 -2.2736902,1.48667 -0.82162,2.21508 -2.1862402,1.1942 -0.34535,3.16485 1.53426,1.74117 1.68003,-0.24211 3.01439,-1.09674 2.90013,-2.91646 1.03887,0.53817 0.26652,1.57708 0.90496,1.80913 -1.85227,0.37166 -0.71459,1.07851 0.0591,1.57039 -1.02624,0.2787 -2.41136,2.09689 -0.39738,1.70235 1.40552,-0.42398 -0.57494,2.04822 -0.70247,2.61418 2.31653,0.75506 4.6757,2.70633 3.40184,5.53526 -2.70013,1.05491 -6.17619,-1.54943 -8.40648,0.91196 0.11272,2.17522 0.13008,4.22979 -0.9315702,6.12006 0.9405702,0.89199 -0.36968,3.09158 1.8750302,2.43674 1.65464,-0.90744 1.639,3.83214 3.75017,1.76513 0.896,-2.25691 4.6775,-0.95502 5.36404,-3.91038 -0.673,-3.27535 3.82791,-3.17906 4.13227,-5.91206 0.9032,-1.38334 5.18501,1.27301 5.76231,-1.88271 1.56156,0.1146 1.78957,1.89721 0.0571,1.5145 -1.17652,0.75323 0.19387,3.02334 -1.10552,2.56803 -0.34763,1.56332 0.81505,4.87938 2.32248,2.29667 0.48859,-1.23112 -1.22713,-4.93902 0.87182,-3.91835 -0.75981,0.85472 1.2955,-0.11222 1.19801,1.62242 0.72463,0.92408 2.85623,-0.53034 2.1329,1.55371 2.71968,-1.70907 2.58271,4.136 -0.34122,2.1156 -2.61702,0.26833 -0.004,2.00745 0.67687,2.5279 -2.2425,2.61461 2.8583,3.30603 1.7796,0.35331 -1.10216,-2.26363 3.28322,-2.76554 1.45308,-5.16822 1.75462,1.36879 2.71779,-0.55166 0.71255,-1.31006 -2.41701,-1.25732 -4.63435,-2.96265 -5.33089,-5.57359 1.6846,0.71277 2.89282,3.18397 4.56134,3.56935 2.0702,0.1159 2.59303,1.72915 2.31945,3.44176 1.83297,1.3432 2.15148,5.55895 5.11426,5.1504 -0.93279,-1.5584 2.80799,-2.1636 0.83524,-1.00821 0.55372,2.2743 3.5704,-0.91764 3.47112,1.0265 -1.27681,3.22061 3.26753,-0.96871 0.64869,-0.35217 -0.97497,1.13392 1.07968,-1.61261 -0.86169,-1.18078 1.45928,-2.12753 -3.6105,0.55975 -2.6595,-2.33567 -1.0543,0.27289 -3.00662,-1.79764 -0.99388,-1.08214 2.58934,1.24483 2.86651,-2.80761 4.49411,-3.1885 0.14485,-1.94922 1.56069,-5.41557 3.57608,-5.28249 1.67533,0.5368 3.52563,1.25736 4.52245,-0.1692 2.48196,-0.20204 6.28069,-4.30675 2.4164,-5.25109 -2.95089,0.28485 -6.16362,-3.52582 -7.6866,-3.44117 2.01768,-1.62685 -1.87726,-2.12402 -1.95952,-3.91548 -1.99117,-0.53895 -4.26884,-2.23019 -2.93739,-4.62327 -0.81723,-0.6152 -4.83451,-0.49908 -1.7624,-0.95963 2.34915,-0.30687 5.58825,-2.97454 2.95294,-5.1086902 -0.81777,-1.90183 -1.43052,-4.18265 -1.88739,-5.6172 3.76974,-1.60147 -1.55062,-2.72656995 -2.94686,-2.73022995 z m -11.70093,4.46662995 -0.13695,0.0824 z M 16.235931,0.03062185 c -1.90449,0.2919 -1.31429,1.96445995 0.18666,0.73801 0.30666,-0.19274 0.24286,-0.80933 -0.18666,-0.73801 z m 23.61086,2.24812995 c 0.16781,0.47083 -0.29777,0.2442 0,0 z m -0.0535,0.002 -0.0111,0.032 z m 0.61108,0.12887 0.0132,0.0138 z m -3.63247,2.73167 -0.0125,0.0401 z m -28.8332502,0.27122 c -2.52486,1.65477 -5.49487,-0.81052 -7.59383004,1.05717 -1.36161996,1.67695 1.80365004,1.53971 1.00015004,2.60852 2.95095,1.3947302 6.11067,0.0555 8.9237802,-0.93511 1.54932,-0.62213 -1.3991302,-2.56096 -0.8902802,-2.53114 -0.48303,-0.0158 -0.9896,0.0195 -1.43982,-0.19944 z m 36.7388602,1.47519 c 1.42116,1.41047 -5.13605,3.8084402 -1.71233,1.16149 -0.0514,-1.25263 0.86226,-0.98579 1.71233,-1.16149 z m -42.7150302,0.78942 c 0.0998,0.27654 0.0592,0.16421 0,0 z m 29.9410102,1.38501 0.0205,0.0535 z m 9.44844,0.42735 c 0.89658,0.7629402 2.15172,5.3996102 -0.21918,3.3777702 -1.13788,1.28528 1.64813,1.03954 2.16641,1.02741 1.90016,0.29054 1.58618,0.78505 -0.15564,0.81215 -1.16081,0.42861 0.6192,0.268 -0.14311,1.02203 0.12158,1.55569 -1.20485,2.59643 -0.0589,4.4657 -1.21364,1.07253 -3.67493,-1.09173 -5.32573,0.58389 -1.55118,0.94812 -2.23685,-1.29897 -3.21151,-0.44845 0.98733,-1.29005 3.60343,0.99627 2.16149,-1.2709 2.10618,0.24365 2.74986,-1.86432 2.54719,-3.11962 2.22399,-0.87624 1.87612,-2.97775 0.006,-3.64428 0.12969,-1.41897 0.83984,-2.3120402 2.23301,-2.8057002 z m -9.91752,0.24497 c 1.19362,0.22912 -0.88653,0.6763402 0,0 z m -15.93035,0.3166402 c -3.76579,1.69272 3.35641,3.92903 0.86176,0.2387 l -0.40527,-0.19714 z m 12.56843,1.5647 c 0.96102,0.22937 -1.05089,0.21457 0,0 z m 0.0565,0.12316 -0.008,0.0202 z m -6.75885,0.67804 c -2.18661,-0.41769 -1.01392,3.10318 0.34698,0.93053 0.4969,-0.31535 0.2356,-0.97153 -0.34698,-0.93053 z m 7.89048,0.0414 c 0.19891,-0.0228 -0.0141,0.22552 0,0 z m 17.02498,1.31973 c -0.59388,0.89932 -1.42366,-0.18895 0,0 z m -5.44281,2.15626 c -2.20215,0.003 -1.00889,3.37346 0.21222,1.04002 0.17433,-0.22718 0.45745,-1.11119 -0.21222,-1.04002 z m 4.14696,0.0989 c 2.43461,1.63215 -2.14094,0.67333 0,0 z m -29.49179,0.0599 c 0.29989,0.22283 -0.1557,0.16998 0,0 z m 17.38403,0.34726 c 1.47445,0.52125 0.90897,3.1349 -0.0374,1.89066 -1.06337,-0.78246 1.36674,-1.7304 -0.30716,-1.53825 z m -0.86714,1.75146 0.21942,0.10834 z m -1.84233,0.51955 0.008,0.004 z m 2.91943,0.43273 0.0653,0.0215 z m -0.22006,0.16858 c 0.15558,0.0208 -0.22351,0.0278 0,0 z m 0.62151,0.37082 -0.10231,0.0205 z m -16.24364,0.21368 c 0.25732,0.14367 -0.247,0.23724 0,0 z m -1.27363,0.0872 0.12618,0.0983 z m 27.76892,0.13291 c 3.19214,0.24125 -1.21475,1.29036 0,0 z m -2.43252,0.80423 c 0.52486,0.126 -0.26809,0.40773 0,0 z m 0.45798,0.11945 c 0.15588,0.62394 -0.86274,0.1387 0,0 z m -7.55366,0.16758 c -0.425,0.33196 -0.96095,-0.16986 0,0 z m 2.41066,0.19584 c 0.93825,0.85366 -0.78314,-0.0833 0,0 z m -18.57757,0.0165 c 0.43169,0.83617 -0.9681,0.55761 0,0 z m 14.70552,0.0828 c -0.31741,0.75856 -1.16771,0.10122 0,0 z m -0.31496,0.0932 0.031,0.008 z m -13.81548,0.3503 -0.004,0.13848 z m 10.39601,0.0979 c 0.57475,0.32971 -0.21116,0.18854 0,0 z m -17.134,0.64304 c 0.0983,0.22802 -0.45399,-0.096 0,0 z m 2.00988,1.0078 0.0252,0.0131 z m -1.80123,0.65987 c 1.07087,0.67937 -1.17778,0.25187 0,0 z m 10.59118,1.1562 c -0.11352,3.00595 -6.6651,0.42752 -2.33923,0.5385 0.78908,-0.10507 1.63339,-0.12562 2.33923,-0.5385 z m 11.63701,2.05699 c 0.15534,0.19794 -0.19579,0.11738 0,0 z m -16.84361,1.90658 c 0.52118,0.0856 0.006,0.25204 0,0 z m 1.41731,0.8934 c 0.18267,0.15985 -0.13137,0.088 0,0 z m 35.05236,0.0646 c 0.17034,0.1405 -0.20141,0.0402 0,0 z m 4.07195,1.10337 0.0117,0.0295 z m 0.1982,0.15714 c 0.29637,0.0448 0.1961,0.0297 0,0 z m -38.75147,3.03014 c 0.73033,0.59234 -0.73827,0.47323 0,0 z m -8.38242,3.11359 c 0.46154,0.43882 -0.36864,0.17176 0,0 z m 37.64269,1.30594 c 0.74614,1.33541 -1.56794,0.57833 0,0 z m -23.68992,0.56902 c -2.14598,-0.69719 -2.13064,2.78306 -0.50025,1.13267 0.65351,-0.54866 2.11767,-0.19377 0.50025,-1.13267 z m -14.3061,0.28837 c 0.5789,0.73176 -0.7514602,0.32099 0,0 z m 13.64352,0.38394 -0.0727,0.0736 z m 25.41954,0.33515 c -1.0221,0.73858 -0.19319,3.25683 0.66176,1.11197 1.69348,1.35585 -0.002,-1.32042 -0.66176,-1.11197 z m -39.67581,0.23689 c 0.79394,0.78166 -0.4794902,0.53808 0,0 z m 12.07376,0.0697 c -2.12079,1.9393 1.93732,1.37492 0,0 z m 23.1068,0.48152 c 0.98278,0.005 -0.56509,0.54342 0,0 z m -26.14602,0.49398 c 1.01542,0.66619 -0.62512,0.57422 0,0 z m 31.26782,1.53273 c 0.78133,0.0329 -0.4158,0.2764 0,0 z m -1.80092,0.17263 c 0.56813,-0.0751 -0.35913,0.59452 0,0 z m 1.43985,0.0875 c 0.95489,0.69366 -1.18951,-0.0165 0,0 z m -16.36847,0.283 c -0.87529,1.76484 2.13556,0.38772 0,0 z m -20.2745,0.14469 c 0.1998,0.70731 -0.80606,0.0145 0,0 z m 33.79691,0.9792 c -2.30243,2.74416 5.72249,2.40846 2.12904,0.932 -0.75632,-0.104 -1.74593,-0.13562 -2.12904,-0.932 z m 11.75781,0.1383 c -1.90376,-0.18928 -3.98357,2.69352 -1.36193,3.04451 1.43262,-0.5786 4.75542,-3.16474 1.36193,-3.04451 z m -58.52122024,4.24455 c -1.17762,1.58456 2.05368004,0.25499 0,0 z"
     id="path2166" />
</svg>
