<?xml version="1.0" encoding="UTF-8" standalone="no"?>
<svg
   xmlns:svg="http://www.w3.org/2000/svg"
   xmlns="http://www.w3.org/2000/svg"
   version="1.1"
   width="63.999989"
   height="63.396488">
  <path
     style="fill:#e0e0e0;fill-rule:evenodd;stroke:none;stroke-width:0.07290012"
     d="M 25.569303,2.5684738e-4 C 21.955033,1.1018168 26.618013,2.5496968 26.883113,2.7426668 c -1.93425,-0.53036 -1.93983,1.36145 -0.49763,1.64433 0.13884,-1.54698 1.25818,0.62477 1.7851,0.45383 1.56878,0.46964 4.71961,2.10925 3.80224,3.462 0.71635,0.72374 0.0605,1.9002202 1.81094,2.0597202 1.03597,1.68655 4.24178,0.69291 2.73498,-0.35289 1.73281,-0.1954502 0.88859,-1.5680802 3.0784,-0.5569702 1.1996,1.6447602 3.30866,4.1155802 5.34638,3.0341202 -1.65777,-1.22494 -4.22347,-3.8935902 -2.93039,-5.1212002 -2.2486,-1.41097 -3.57284,-3.79138 -6.4793,-4.25305 -2.42142,-1.45826 -5.33725,-1.92548 -6.94646,0.57468 -2.05498,-0.82717 -0.11513,-3.71856995 -3.01807,-3.68697995262 z M 47.382513,4.8161368 c -1.09738,0.86334 -1.78464,2.08022 -2.91255,1.51583 -3.75628,0.78909 2.89786,1.89626 2.90899,-0.70913 0.30395,-0.19397 0.23293,-0.60801 0.004,-0.8067 z m -11.43917,8.2617102 c -2.12287,2.35876 -0.88581,6.29991 -3.23627,8.44795 -2.31795,0.11903 -7.23232,-3.61022 -3.58762,-5.55001 0.78986,-2.27116 -3.71063,-0.57036 -4.8788,-2.38387 1.70552,2.11629 -3.15008,1.00602 -3.00584,3.7422 0.23905,1.49828 -2.4104,2.05464 -2.21465,0.38147 -1.24181,-1.66015 -3.23785,0.78847 -3.84346,2.22761 -0.0802,0.45069 -1.56268,-0.16697 -1.07619,1.26491 -2.06443,-1.5939 -2.17412,4.03524 -5.21917,3.64551 -2.50702,0.42115 -5.58238,1.93614 -6.85392,3.15105 -0.77621,1.41989 -0.11885,5.24064 -0.90765,4.38082 -0.57924004,0.8472 0.8741,5.14388 0.13931,7.77989 -0.45105004,1.4877 -2.6583,2.97791 0.11514,3.5883 2.39345,-0.71114 4.71933,-1.72352 7.42041,-1.56621 2.96785,-1.90891 7.05001,-3.40848 10.44509,-2.30347 2.94671,-0.20716 0.32812,5.51402 3.3692,2.62583 1.11031,-1.13064 2.82387,-2.60972 1.36266,-0.29755 -0.99694,0.81169 -2.02502,2.74921 -0.30404,0.87186 1.184,-0.45713 -1.204,2.48111 0.81298,1.17732 -1.34583,2.95811 2.10195,5.30908 4.40813,3.22583 -0.60522,1.04979 0.82546,-0.10805 0.64471,1.16821 2.56225,-1.30975 5.54002,-1.45851 6.82182,-4.47646 1.89408,-2.43015 4.81199,-4.1011 6.14369,-7.06714 1.48976,-2.82632 1.79018,-6.17648 -0.28675,-8.70493 -0.73406,-0.35128 -1.26356,-2.21083 -1.60966,-3.46227 -3.95947,-1.08284 -0.53959,-6.56233 -3.84235,-7.57223 -0.28633,-1.46765 -0.13981,-2.94861 -0.81677,-4.29462 z m -6.76849,1.50066 0.0396,-0.0303 z m -6.80158,-0.74445 c -1.02655,0.82934 0.8015,1.00636 0,0 z m 26.41828,0.0217 c -0.74284,0.0182 0.40465,0.24171 0,0 z m -1.01283,0.0545 c -0.0624,0.5859 0.933,0.0155 0,0 z m 7.49744,0.16468 c 0.0792,0.39557 0.92127,0.3181 0,0 z m -26.19013,10e-4 -0.29422,0.21995 z m 33.62908,0.0969 c -0.23309,0.194 0.46784,0.0953 0,0 z m -36.98361,0.0186 c -0.18984,0.1587 0.14085,0.0432 0,0 z m -0.99176,0.0421 c -0.0678,0.28286 0.25555,-0.0869 0,0 z m 4.13643,0.42995 c -0.21956,0.23454 -0.11273,0.12042 0,0 z m 34.18997,2.18259 c -0.41396,0.31722 0.27409,0.42193 0,0 z m -0.022,0.56306 c -0.5711,0.0441 0.26097,0.45681 0,0 z m -1.20721,0.69183 c -0.53445,1.92717 1.28867,1.0768 0,0 z m 1.63903,0.33152 c -0.58124,1.05569 0.31458,0.40666 0,0 z m -0.19965,0.39807 c -0.5054,-0.0657 -0.17876,0.63146 0,0 z m 0.13681,0.25228 c -0.73854,0.10582 -2.65497,1.69555 -0.44965,2.02787 1.21495,-0.20349 0.37058,-1.30641 0.44965,-2.02787 z m -1.10941,0.18944 c -0.37421,0.018 0.21204,0.33233 0,0 z m 0.84354,2.39927 c -0.82922,0.15386 0.41536,0.59752 0,0 z m -24.54492,0.88561 c -0.29616,0.37106 0.32635,0.41345 0,0 z m 24.97952,0.49124 c -0.62169,0.57297 0.66673,0.57296 0,0 z m -10.13103,0.68533 c -0.11889,0.30961 -0.0783,0.20399 0,0 z m 10.21336,0.1882 c -0.49424,0.23238 0.37216,0.60654 0,0 z m -6.09892,0.97661 c 0.33521,3.28153 4.19278,3.10796 1.57731,0.53387 -0.72703,0.18159 -1.14894,0.047 -1.57731,-0.53387 z m 6.36297,0.0765 c -0.28357,0.14487 0.25772,0.0818 0,0 z m -22.8121,0.007 c -0.33798,0.37045 0.19618,0.19085 0,0 z m 19.20035,0.37764 c -0.58392,0.56164 0.0419,0.27511 0,0 z m 0.49372,0.30861 c -0.51136,0.52939 0.80467,0.9151 0,0 z m 0.66985,0.83794 c -0.65197,0.62758 0.77763,0.28554 0,0 z m -0.88777,1.51335 c -0.23391,0.1876 0.27567,0.0681 0,0 z m -0.64911,4.7908 c -3.32328,2.34017 3.28768,2.02875 0,0 z m 0.78594,10.13878 c -0.40375,2.37167 0.47497,4.22536 -2.45741,6.06024 -0.63217,0.20836 0.95564,1.72641 -0.81535,2.27978 -0.0705,1.62191 3.16686,-1.63568 4.23099,-2.33358 1.39198,-0.42501 3.28801,-2.71104 0.52448,-1.55521 -0.99174,-0.30323 0.0406,-2.71787 -1.06645,-0.94935 -0.0711,-1.33793 0.28507,-2.6195 -0.41626,-3.50188 z m -38.16638,1.56784 c -3.04931,0.51184 1.81721,0.60884 0,0 z m 39.47418,0.50548 c -0.34787,0.32289 0.0965,0.39353 0,0 z m -0.74506,0.87168 c -0.44581,-0.0969 -0.0423,0.25802 0,0 z m -34.35527,3.5873 c -0.91217,0.47311 -0.0224,1.13953 0,0 z m 3.93399,0.19192 c -0.94806,0.9053 0.8207,0.70179 0,0 z m -0.0867,0.71287 c -0.93636,0.23677 0.58594,0.31648 0,0 z m -0.12322,0.22163 c -0.21026,-0.0435 -0.096,0.384 0,0 z m 25.1829,0.009 c -2.69689,1.79328 -5.23022,3.8704 -8.379,4.83266 -1.82562,0.62213 -4.16346,2.961 -0.70601,2.66913 2.38159,-1.15176 4.58319,-2.90739 6.97873,-4.22121 1.17799,-0.66693 4.61439,-3.47038 1.73421,-2.3343 l 0.19772,-0.63747 z m -28.88904,0.19255 c -1.0271,1.4574 -1.12125,4.96429 1.21838,2.80658 0.91025,0.21774 3.4464,-3.72063 0.4885,-2.2562 -0.70774,0.24914 -1.29623,-0.0274 -1.70688,-0.55038 z m 29.89784,0.0291 c -0.4912,0.1707 -0.23668,0.47 0,0 z m 6.69015,3.80831 c -1.026,0.64088 0.6553,0.13726 0,0 z m -0.0987,0.62126 -0.11515,0.10493 z m -17.88168,1.46692 -0.0601,0.088 z m -0.53398,1.56133 c -1.31735,0.20459 -0.70171,1.70941 0,0 z m -5.47117,4.75583 c -1.28339,0.22201 -0.1222,0.64887 0,0 z"
     id="path2562" />
</svg>
