<?xml version="1.0" encoding="UTF-8" standalone="no"?>
<svg
   xmlns="http://www.w3.org/2000/svg"
   version="1.1"
   height="64"
   width="64">
  <defs
     id="defs4533">
    <clipPath
       id="Canton">
      <path
         d="M 0,0 H 600 V 300 H 0 Z"
         id="path4513" />
    </clipPath>
    <clipPath
       id="Diagonals">
      <path
         d="M 0,0 300,150 H 0 Z M 300,0 H 600 L 300,150 Z m 0,150 h 300 v 150 z m 0,0 V 300 H 0 Z"
         id="path4516" />
    </clipPath>
    <g
       id="Pentagram">
      <g
         id="Arm"
         transform="translate(0,-0.324925)">
        <path
           d="M 0,0 V 0.5 L 1,0 Z"
           id="path4519" />
        <path
           d="M 0,0 V -0.5 L 1,0 Z"
           transform="rotate(-36,1,0)"
           id="path4521" />
      </g>
      <use
         transform="scale(-1,1)"
         id="use4524"
         x="0"
         y="0"
         width="100%"
         height="100%" />
      <use
         transform="rotate(72)"
         id="use4526"
         x="0"
         y="0"
         width="100%"
         height="100%" />
      <use
         transform="rotate(-72)"
         id="use4528"
         x="0"
         y="0"
         width="100%"
         height="100%" />
      <use
         transform="matrix(-0.30901699,0.95105652,0.95105652,0.30901699,0,0)"
         id="use4530"
         x="0"
         y="0"
         width="100%"
         height="100%" />
    </g>
    <clipPath
       id="Canton-3">
      <path
         d="M 0,0 H 600 V 300 H 0 Z"
         id="path4513-9" />
    </clipPath>
    <clipPath
       id="Canton-8">
      <path
         d="M 0,0 H 600 V 300 H 0 Z"
         id="path4513-3" />
    </clipPath>
  </defs>
  <rect
     x="0"
     y="0"
     width="64"
     height="64"
     id="rect4535"
     style="fill:#00247d;stroke-width:0.07542472;fill-rule:nonzero" />
  <path
     style="stroke:#ffffff;stroke-width:60;fill-rule:nonzero"
     clip-path="url(#Canton)"
     d="M 0,0 600,300 M 0,300 600,0"
     id="Saint_Andrews_Cross"
     transform="scale(0.05333333,0.10666667)" />
  <path
     style="stroke:#cc142b;stroke-width:40;fill-rule:nonzero"
     clip-path="url(#Diagonals)"
     d="M 0,0 600,300 M 0,300 600,0"
     id="Saint_Patricks_Cross"
     transform="scale(0.05333333,0.10666667)" />
  <path
     style="fill:none;fill-rule:nonzero;stroke:#fcfcfc;stroke-width:6.4000001;stroke-linecap:butt;stroke-linejoin:miter;stroke-miterlimit:4;stroke-dasharray:none;stroke-opacity:1"
     d="M 16,0 V 32"
     id="path5789" />
  <path
     style="fill:#ffffff;fill-rule:nonzero;stroke:#ffffff;stroke-width:6.4000001;stroke-linecap:butt;stroke-linejoin:miter;stroke-miterlimit:4;stroke-dasharray:none;stroke-opacity:1"
     d="M 0,16 H 32"
     id="path5791" />
  <path
     style="fill:#ff0000;fill-rule:nonzero;stroke:#cc142b;stroke-width:3.5;stroke-linecap:butt;stroke-linejoin:miter;stroke-miterlimit:4;stroke-dasharray:none;stroke-opacity:1"
     d="M 16,0 V 32"
     id="path5783" />
  <path
     style="fill:none;fill-rule:nonzero;stroke:#cc142b;stroke-width:3.5;stroke-linecap:butt;stroke-linejoin:miter;stroke-miterlimit:4;stroke-dasharray:none;stroke-opacity:1"
     d="M 0,16 H 32"
     id="path5785" />
  <path
     style="fill:#ffffff;stroke-width:0.0266965;fill-rule:nonzero"
     d="m 14.734709,35.885691 1.853309,5.762306 5.660671,-2.143764 -3.349633,5.041714 5.205433,3.089076 -6.030233,0.524609 0.830398,5.995778 -4.169945,-4.387538 -4.169944,4.387538 0.830398,-5.995778 -6.0302325,-0.524609 5.2054325,-3.089076 -3.3496325,-5.041714 5.6606705,2.143764 z"
     id="Comwlth" />
  <path
     id="αCrucis"
     d="m 49.573643,47.660756 0.882528,2.743955 2.695558,-1.02084 -1.595064,2.400816 2.478778,1.470989 -2.87154,0.249813 0.395428,2.855133 -1.985688,-2.089304 -1.985688,2.089304 0.395428,-2.855133 -2.87154,-0.249813 2.478778,-1.470989 -1.595063,-2.400816 2.695557,1.02084 z"
     style="fill:#ffffff;stroke-width:0.01271262;fill-rule:nonzero" />
  <path
     id="βCrucis"
     d="m 39.962904,22.299079 0.882528,2.743955 2.695558,-1.02084 -1.595064,2.400816 2.478778,1.470989 -2.87154,0.249813 0.395428,2.855133 -1.985688,-2.089304 -1.985688,2.089304 0.395428,-2.855133 -2.87154,-0.249813 2.478778,-1.470989 -1.595064,-2.400816 2.695558,1.02084 z"
     style="fill:#ffffff;stroke-width:0.01271262;fill-rule:nonzero" />
  <path
     id="γCrucis"
     d="m 49.573643,4.9463517 0.882528,2.743956 2.695558,-1.02084 -1.595064,2.4008159 2.478778,1.4709884 -2.87154,0.249814 0.395428,2.855133 -1.985688,-2.089304 -1.985688,2.089304 0.395428,-2.855133 -2.87154,-0.249814 2.478778,-1.4709884 -1.595063,-2.4008159 2.695557,1.02084 z"
     style="fill:#ffffff;stroke-width:0.01271262;fill-rule:nonzero" />
  <path
     id="δCrucis"
     d="m 58.205513,18.027638 0.882527,2.743956 2.695558,-1.02084 -1.595063,2.400816 2.478777,1.470988 -2.871539,0.249814 0.395427,2.855133 -1.985687,-2.089304 -1.985688,2.089304 0.395427,-2.855133 -2.871539,-0.249814 2.478777,-1.470988 -1.595063,-2.400816 2.695558,1.02084 z"
     style="fill:#ffffff;stroke-width:0.01271262;fill-rule:nonzero" />
  <path
     id="εCrucis"
     d="m 53.57812,30.880097 0.697413,1.709743 1.841575,0.13494 -1.410549,1.19162 0.440742,1.79314 -1.569181,-0.973281 -1.569181,0.973281 0.440741,-1.79314 -1.410549,-1.19162 1.841575,-0.13494 z"
     style="fill:#ffffff;stroke-width:0.01271262;fill-rule:nonzero" />
</svg>
