<?xml version="1.0" encoding="UTF-8" standalone="no"?>
<svg
   xmlns:dc="http://purl.org/dc/elements/1.1/"
   xmlns:cc="http://creativecommons.org/ns#"
   xmlns:rdf="http://www.w3.org/1999/02/22-rdf-syntax-ns#"
   xmlns:svg="http://www.w3.org/2000/svg"
   xmlns="http://www.w3.org/2000/svg"
   xmlns:sodipodi="http://sodipodi.sourceforge.net/DTD/sodipodi-0.dtd"
   xmlns:inkscape="http://www.inkscape.org/namespaces/inkscape"
   height="64"
   width="64"
   id="svg2"
   version="1.1"
   inkscape:version="0.92.3 (2405546, 2018-03-11)"
   sodipodi:docname="network_bcn_logo.svg">
  <metadata
     id="metadata725">
    <rdf:RDF>
      <cc:Work
         rdf:about="">
        <dc:format>image/svg+xml</dc:format>
        <dc:type
           rdf:resource="http://purl.org/dc/dcmitype/StillImage" />
        <dc:title></dc:title>
      </cc:Work>
    </rdf:RDF>
  </metadata>
  <defs
     id="defs723" />
  <sodipodi:namedview
     pagecolor="#ffffff"
     bordercolor="#666666"
     borderopacity="1"
     objecttolerance="10"
     gridtolerance="10"
     guidetolerance="10"
     inkscape:pageopacity="0"
     inkscape:pageshadow="2"
     inkscape:window-width="1366"
     inkscape:window-height="705"
     id="namedview721"
     showgrid="false"
     inkscape:zoom="11.529687"
     inkscape:cx="38.835652"
     inkscape:cy="41.999862"
     inkscape:window-x="-8"
     inkscape:window-y="-8"
     inkscape:window-maximized="1"
     inkscape:current-layer="svg2" />
  <g
     id="g4843"
     transform="matrix(0.05472214,0,0,0.05472214,-0.08646098,21.279157)">
    <g
       id="#ffffffff" />
    <g
       id="#ccccccff">
      <path
         id="path4657"
         d="M 1.3,17.04 C 1.32,11.69 1.08,6.33 1.58,0.99 c 0.37,43.66 0.04,87.34 0.17,131 36.25,0.07 72.49,-0.1 108.74,0.09 5.58,0.26 11.18,0.28 16.76,0.01 12.87,-0.15 25.75,-0.15 38.62,0 5.64,0.25 11.28,0.31 16.91,-0.09 5.07,0 10.15,-0.06 15.22,0.09 5.5,0.27 11.01,0.24 16.52,0 10.07,-0.15 20.15,-0.14 30.23,-0.01 5.17,0.27 10.34,0.27 15.51,0 5.98,-0.13 11.97,-0.14 17.96,0 4.29,0.24 8.6,0.25 12.9,0 5.95,-0.14 11.92,-0.13 17.88,0.01 5.16,0.25 10.34,0.26 15.5,-0.01 14.2,-0.19 28.4,-0.02 42.61,-0.08 -0.43,4.31 -0.43,8.65 -0.37,12.99 0.01,74 0,148 0,222.01 H 0.99 C 1.51,361.33 1.17,355.64 1.25,349.96 1.24,238.98 1.28,128.01 1.3,17.04 Z"
         inkscape:connector-curvature="0"
         style="opacity:1;fill:#cccccc" />
    </g>
    <g
       id="#019587ff">
      <path
         id="path4660"
         d="m 1.58,0.99 c 121.89,0.02 243.78,0 365.66,0.01 -0.08,43.67 0.2,87.34 -0.13,131 -14.21,0.06 -28.41,-0.11 -42.61,0.08 0,-26.19 0.01,-52.38 -0.01,-78.58 -7.69,0.02 -15.38,-0.04 -23.07,0.04 -5.39,18.02 -10.92,35.99 -16.28,54.01 -5.71,-18.04 -11.48,-36.06 -17.27,-54.07 -7.71,0.05 -15.41,0 -23.12,0.03 0,26.19 0.01,52.38 0,78.57 -10.08,-0.13 -20.16,-0.14 -30.23,0.01 -0.06,-21.27 0.02,-42.54 -0.04,-63.8 7.34,-0.09 14.68,-0.02 22.01,-0.05 0.02,-4.91 0.02,-9.82 0,-14.74 -20.24,0.01 -40.49,-0.01 -60.73,0.01 -0.01,4.91 -0.02,9.82 0,14.73 7.41,0.02 14.82,0.01 22.23,0 0.02,21.28 0.01,42.56 0.01,63.85 -5.07,-0.15 -10.15,-0.09 -15.22,-0.09 -0.76,-2.8 -1.65,-5.57 -2.65,-8.29 -8.27,-23.39 -16.41,-46.83 -24.71,-70.22 -5.67,0.05 -11.34,-0.07 -17.01,0.08 -9.19,26.21 -18.63,52.34 -27.92,78.51 C 74.24,131.89 38,132.06 1.75,131.99 1.62,88.33 1.95,44.65 1.58,0.99 Z"
         inkscape:connector-curvature="0"
         style="opacity:1;fill:#019587" />
      <path
         id="path4662"
         d="m 146.7,73.69 c 3.63,9.14 6.19,18.73 9.32,28.07 -6.24,-0.03 -12.49,0.01 -18.74,-0.02 3.17,-9.34 6.16,-18.74 9.42,-28.05 z"
         inkscape:connector-curvature="0"
         style="opacity:1;fill:#019587" />
      <path
         id="path4664"
         d="m 260.26,132.08 c 0.01,-18.18 -0.08,-36.37 0.04,-54.55 6,18.17 11.9,36.38 17.92,54.55 -5.99,-0.14 -11.98,-0.13 -17.96,0 z"
         inkscape:connector-curvature="0"
         style="opacity:1;fill:#019587" />
      <path
         id="path4666"
         d="m 308.79,77.35 c 0.48,18.24 0.07,36.49 0.21,54.74 -5.96,-0.14 -11.93,-0.15 -17.88,-0.01 5.89,-18.24 11.99,-36.42 17.67,-54.73 z"
         inkscape:connector-curvature="0"
         style="opacity:1;fill:#019587" />
      <path
         id="path4668"
         d="m 133.06,114.75 c 9.08,0 18.16,-0.01 27.24,0.01 1.93,5.75 3.69,11.56 5.57,17.33 -12.87,-0.15 -25.75,-0.15 -38.62,0 1.95,-5.78 3.84,-11.57 5.81,-17.34 z"
         inkscape:connector-curvature="0"
         style="opacity:1;fill:#019587" />
    </g>
    <g
       id="#000000ff">
      <path
         id="path4671"
         d="m 413.66,32 c 3.54,0 7.09,0.01 10.65,-0.02 2.87,5.29 5.56,10.67 8.32,16.01 -2.14,0.01 -4.27,0.01 -6.4,0.01 -4.2,-5.33 -8.41,-10.65 -12.57,-16 z"
         inkscape:connector-curvature="0"
         style="opacity:1;fill:#000000" />
      <path
         id="path4673"
         d="m 421.59,53.27 c 3.37,-0.03 6.74,-0.02 10.12,-0.01 8.85,26.32 17.74,52.63 26.49,78.99 -3.41,0 -6.81,0 -10.21,0 -2.52,-7.91 -4.89,-15.86 -7.45,-23.76 -9.43,0.04 -18.87,-0.04 -28.3,0.05 -2.46,7.91 -5.05,15.79 -7.53,23.7 -3.2,0.01 -6.39,0.02 -9.58,0 8.74,-26.35 17.67,-52.64 26.46,-78.97 m -6.4,46.24 c 7.5,-0.02 15,-0.01 22.5,-0.01 -3.72,-12.08 -7.45,-24.15 -11.11,-36.24 -3.94,12 -7.6,24.17 -11.39,36.25 z"
         inkscape:connector-curvature="0"
         style="opacity:1;fill:#000000" />
      <path
         id="path4675"
         d="m 656.46,53.31 c 2.76,-0.07 5.52,-0.07 8.29,-0.06 0,26.33 0,52.67 0,79 -2.76,0 -5.51,0 -8.25,0 -0.02,-2.46 -0.02,-4.92 0.05,-7.38 -4.5,9.23 -17.2,10.76 -25.6,6.32 -8.24,-4.5 -11.77,-14.22 -12.55,-23.09 -0.79,-10.02 0.67,-21.24 7.96,-28.75 8.14,-8.43 24.07,-7.37 30.17,2.97 -0.09,-9.67 0.03,-19.34 -0.07,-29.01 m -18.89,29.48 c -6.21,1.81 -9.09,8.44 -10.06,14.31 -1.19,7.78 -0.74,16.62 4.31,23.05 4.19,5.57 13.01,6.52 18.32,2.05 4.57,-3.98 6.17,-10.25 6.57,-16.07 0.33,-6.62 -0.53,-13.83 -4.81,-19.17 -3.3,-4.22 -9.31,-5.65 -14.33,-4.17 z"
         inkscape:connector-curvature="0"
         style="opacity:1;fill:#000000" />
      <path
         id="path4677"
         d="m 755.25,53.25 c 10.94,0.13 21.9,-0.3 32.83,0.31 4.05,0.3 8.41,1.01 11.5,3.9 9.65,8.66 8.4,27.13 -3.62,33.12 5.02,0.93 9.2,4.7 11.05,9.39 2.78,7.02 2.26,15.27 -1.21,21.96 -3.2,6.13 -9.84,10.24 -16.78,10.29 -11.26,0.06 -22.52,0.04 -33.79,0 0.04,-26.32 0.01,-52.65 0.02,-78.97 m 9.25,9.25 c 0,8.25 0,16.5 0.01,24.75 5.81,-0.02 11.62,0.04 17.44,-0.01 4.09,-0.13 8.64,-0.6 11.76,-3.58 3.6,-4.1 3.67,-10.29 1.88,-15.22 -1.57,-4.24 -6.42,-5.88 -10.58,-5.92 -6.84,-0.06 -13.67,0 -20.51,-0.02 m -0.01,33.76 c 0.03,9 0,17.99 0.02,26.99 8.17,-0.17 16.39,0.34 24.55,-0.26 9.96,-1.12 13.31,-14.59 8.07,-22 -2.55,-3.39 -6.96,-4.64 -11.02,-4.72 -7.21,-0.05 -14.42,-0.02 -21.62,-0.01 z"
         inkscape:connector-curvature="0"
         style="opacity:1;fill:#000000" />
      <path
         id="path4679"
         d="m 1001.46,53.3 c 2.76,-0.06 5.52,-0.06 8.28,-0.05 0.02,26.33 0,52.67 0.01,79 -2.76,0 -5.51,0 -8.25,0 -0.03,-26.32 0.04,-52.63 -0.04,-78.95 z"
         inkscape:connector-curvature="0"
         style="opacity:1;fill:#000000" />
      <path
         id="path4681"
         d="m 470.75,86.74 c 2.82,-7.48 9.71,-14.06 18.25,-13.03 0,3.41 0,6.82 0,10.23 -5.27,-0.23 -11,1.63 -13.96,6.24 -4.19,6.44 -3.86,14.45 -3.79,21.82 0,6.75 0,13.5 0,20.25 -2.75,0 -5.5,0 -8.25,0 0,-19.08 0,-38.17 0,-57.25 2.58,0 5.16,0 7.75,0 0,3.91 0,7.83 0,11.74 z"
         inkscape:connector-curvature="0"
         style="opacity:1;fill:#000000" />
      <path
         id="path4683"
         d="m 496.92,82 c 4.54,-6.14 12.57,-9.41 20.11,-8.01 6.19,0.81 11.31,5.3 14.17,10.67 3.56,6.67 4.7,14.36 4.56,21.84 -12.28,0 -24.56,0 -36.84,0.01 0.25,4.25 0.87,8.68 3.28,12.3 4.05,6.58 14.12,8.33 20.13,3.48 2.53,-2.07 3.66,-5.23 4.48,-8.29 2.74,-0.01 5.48,-0.01 8.22,0.03 -1.11,5.4 -3.13,10.95 -7.38,14.68 -6.51,5.76 -16.57,6.17 -24.2,2.53 -6.84,-3.42 -10.57,-10.84 -12.05,-18.05 -2.27,-10.53 -1.2,-22.42 5.52,-31.19 m 7.62,3.55 c -3.47,3.15 -5,7.81 -5.48,12.36 9.32,0.21 18.65,0.04 27.98,0.09 -0.52,-5.04 -2.48,-10.25 -6.7,-13.32 -4.58,-3.51 -11.68,-3.24 -15.8,0.87 z"
         inkscape:connector-curvature="0"
         style="opacity:1;fill:#000000" />
      <path
         id="path4685"
         d="m 548.72,78.63 c 5.13,-4.74 12.64,-5.32 19.29,-4.74 4.9,0.47 10.41,2.46 12.58,7.26 2.17,3.95 1.62,8.57 1.66,12.89 0.04,8.91 -0.08,17.82 0.05,26.72 0.2,1.47 -0.07,3.51 1.61,4.22 0.84,-0.09 2.52,-0.28 3.36,-0.37 -0.04,2.54 -0.03,5.08 0.01,7.63 -3.06,1.36 -6.84,2.04 -9.86,0.24 -2.31,-1.63 -2.68,-4.69 -2.96,-7.28 -4.25,5.64 -11.33,8.91 -18.39,8.31 -6.27,0.03 -12.79,-3.97 -14.22,-10.33 -1.63,-6.66 -0.88,-15.09 5.17,-19.35 6.86,-4.66 15.56,-4.13 23.17,-6.65 6.16,-1.99 4.66,-11.83 -0.71,-13.89 -4.36,-1.64 -9.57,-1.55 -13.71,0.67 -3.27,1.78 -4.14,5.66 -4.64,9.05 C 548.39,93 545.65,93 542.91,93 c 0.3,-5.23 1.72,-10.79 5.81,-14.37 m 5.21,30.17 c -5.53,3.18 -5.59,13.22 0.82,15.44 6.43,2.22 14.78,-0.3 17.85,-6.67 2.42,-4.42 1.04,-9.62 1.41,-14.4 -6.18,3.58 -13.96,1.96 -20.08,5.63 z"
         inkscape:connector-curvature="0"
         style="opacity:1;fill:#000000" />
      <path
         id="path4687"
         d="m 688.81,75.57 c 7.36,-3.41 17.04,-2.23 22.61,3.94 6.74,7.16 8.32,17.52 8.37,26.99 -12.27,-0.01 -24.53,0.04 -36.79,-0.03 -0.05,5.22 1.2,10.78 4.94,14.64 4.74,4.61 13.06,5.4 18.31,1.22 2.54,-2.08 3.72,-5.26 4.52,-8.34 2.72,0.01 5.45,0.01 8.18,0.03 -1.1,6.84 -4.54,13.84 -10.89,17.18 -6.21,3.13 -13.88,3.11 -20.18,0.26 -5.66,-2.6 -9.43,-8.09 -11.32,-13.87 -2.85,-8.94 -3.23,-18.85 -0.01,-27.75 2.2,-5.99 6.35,-11.56 12.26,-14.27 m -0.26,9.97 c -3.56,3.12 -4.99,7.89 -5.55,12.44 9.33,0 18.65,0.09 27.98,-0.04 -0.58,-5.39 -2.81,-11.18 -7.77,-13.94 -4.51,-2.84 -10.86,-2.21 -14.66,1.54 z"
         inkscape:connector-curvature="0"
         style="opacity:1;fill:#000000" />
      <path
         id="path4689"
         d="m 823.12,79.22 c 4.84,-4.96 12.25,-5.88 18.85,-5.42 5.07,0.3 10.76,2.06 13.4,6.77 2.77,4.67 1.67,10.29 1.88,15.45 0.2,8.99 -0.43,18.03 0.37,27 0.14,2.6 3.19,2.02 4.9,1.52 -0.03,2.51 -0.03,5.03 0,7.55 -3.07,1.47 -7,2.27 -10.05,0.35 -2.37,-1.57 -2.7,-4.63 -2.96,-7.21 -6.08,8.24 -18.58,10.99 -27.34,5.57 -5.92,-3.95 -6.74,-11.92 -5.55,-18.36 0.72,-3.82 3.06,-7.33 6.48,-9.25 6.73,-4.03 14.89,-3.6 22.15,-6.02 6.11,-2.01 4.65,-11.73 -0.69,-13.85 -4.59,-1.74 -10.22,-1.64 -14.42,1.06 -2.82,1.91 -3.5,5.48 -3.88,8.62 -2.79,0 -5.57,0 -8.35,0 0.38,-4.94 1.5,-10.21 5.21,-13.78 m 4.6,30.46 c -3.96,3.67 -3.98,11.7 1.29,14.22 6.56,2.86 15.35,0.22 18.66,-6.3 2.36,-4.41 0.94,-9.59 1.35,-14.35 -6.63,3.68 -15.16,1.67 -21.3,6.43 z"
         inkscape:connector-curvature="0"
         style="opacity:1;fill:#000000" />
      <path
         id="path4691"
         d="m 885.79,75.78 c 2.83,-1.75 6.2,-2.11 9.46,-2.09 0,3.41 -0.01,6.82 0,10.23 -4.58,-0.09 -9.5,1.15 -12.58,4.76 -4.24,4.64 -4.84,11.26 -5.11,17.25 -0.15,8.77 -0.01,17.54 -0.06,26.32 -2.76,0 -5.51,0 -8.25,-0.01 0,-19.07 0,-38.15 0,-57.23 2.66,-0.01 5.33,-0.02 8,-0.01 -0.01,3.83 0.01,7.66 -0.02,11.5 2.01,-4.12 4.42,-8.42 8.56,-10.72 z"
         inkscape:connector-curvature="0"
         style="opacity:1;fill:#000000" />
      <path
         id="path4693"
         d="m 899.57,87.92 c 2.47,-6.32 7.66,-11.95 14.45,-13.5 7.56,-1.79 16.56,-0.36 21.93,5.64 3.39,3.63 4.74,8.63 5.28,13.45 -2.86,-0.01 -5.71,-0.01 -8.55,0 -0.83,-3.21 -1.95,-6.6 -4.63,-8.75 -4.34,-3.49 -10.93,-3.25 -15.41,-0.18 -5.35,4.01 -6.76,11.12 -7.12,17.41 -0.24,6.66 0.61,14.04 5.25,19.19 4.73,5.46 14.38,5.03 18.71,-0.69 2.09,-2.65 2.94,-5.98 3.55,-9.24 2.81,0 5.64,0 8.46,0 -0.88,6.13 -2.8,12.47 -7.36,16.89 -6.42,6.25 -16.88,6.89 -24.71,3.09 -6.84,-3.43 -10.59,-10.84 -11.93,-18.08 -1.41,-8.38 -1.07,-17.27 2.08,-25.23 z"
         inkscape:connector-curvature="0"
         style="opacity:1;fill:#000000" />
      <path
         id="path4695"
         d="m 954.51,81.5 c 4.13,-5.23 10.85,-8.29 17.53,-7.75 6.18,0.16 11.94,3.8 15.2,8.98 4.55,7.01 5.65,15.55 5.84,23.73 -12.31,0.11 -24.62,-0.01 -36.92,0.06 0.1,4.87 1.1,10.02 4.35,13.83 4.54,5.28 13.4,6.36 18.92,2.02 2.56,-2.06 3.68,-5.3 4.57,-8.36 2.73,-0.02 5.46,-0.02 8.21,0 -1.21,7.09 -4.84,14.4 -11.66,17.56 -7.92,3.51 -18.13,2.5 -24.51,-3.63 -5.15,-4.93 -7.3,-12.13 -8.15,-19.02 -1.26,-9.48 0.45,-19.86 6.62,-27.42 m 6.14,5.12 c -2.81,3.12 -3.92,7.31 -4.44,11.38 9.3,0 18.61,0.01 27.91,-0.01 -0.34,-5.83 -3.2,-12.01 -8.72,-14.56 -4.9,-2.49 -11.27,-0.99 -14.75,3.19 z"
         inkscape:connector-curvature="0"
         style="opacity:1;fill:#000000" />
      <path
         id="path4697"
         d="m 1036.45,74.57 c 7.51,-1.98 16.37,-0.7 22.01,4.98 6.03,5.74 8.27,14.33 8.54,22.41 0.27,8.63 -1.43,17.95 -7.38,24.56 -8.52,9.88 -26.18,9.36 -33.95,-1.19 -6.52,-8.71 -7.48,-20.45 -5.51,-30.86 1.62,-8.73 7.29,-17.52 16.29,-19.9 m 3.11,8.19 c -4.19,1.24 -7.44,4.65 -9.12,8.61 -2.93,6.77 -3.09,14.55 -1.12,21.61 1.38,4.54 4.18,9.01 8.71,10.92 4.66,2.24 10.66,1.05 14.2,-2.71 4.8,-4.66 6.07,-11.76 6.04,-18.19 -0.18,-6.1 -1.59,-12.74 -6.19,-17.09 -3.17,-3.23 -8.2,-4.51 -12.52,-3.15 z"
         inkscape:connector-curvature="0"
         style="opacity:1;fill:#000000" />
      <path
         id="path4699"
         d="m 1084.05,83.91 c 2.3,-4.79 6.54,-8.81 11.88,-9.82 5.75,-1 12.58,-0.24 16.66,4.38 3.5,4.34 4.33,10.12 4.41,15.53 0,12.75 0,25.5 0,38.25 -2.76,0 -5.51,0 -8.25,0 0,-12.09 -0.02,-24.18 0.01,-36.27 0.15,-4.41 -0.56,-9.62 -4.58,-12.24 -5.36,-3.23 -13.06,-1.12 -16.41,4.08 -3.9,5.57 -3.26,12.72 -3.27,19.17 0,8.42 0,16.84 0,25.26 -2.74,-0.01 -5.48,-0.01 -8.2,0.03 -0.12,-19.09 -0.01,-38.18 -0.06,-57.27 2.58,-0.01 5.16,-0.01 7.76,-0.01 -0.02,2.97 -0.01,5.94 0.05,8.91 z"
         inkscape:connector-curvature="0"
         style="opacity:1;fill:#000000" />
      <path
         id="path4701"
         d="m 1132.68,79.69 c 4.35,-4.79 11.17,-6.19 17.39,-5.97 5.02,0.09 10.64,1.1 14.09,5.1 2.65,3.04 3.19,7.22 3.33,11.11 0.09,11.06 -0.12,22.14 0.09,33.2 0.4,2.49 3.18,1.91 4.94,1.4 -0.04,2.52 -0.03,5.04 0.01,7.56 -3.07,1.47 -6.97,2.27 -10.02,0.38 -2.38,-1.54 -2.73,-4.56 -2.92,-7.13 -2.99,3.12 -6.31,6.19 -10.6,7.3 -6.34,1.75 -14.16,1.29 -18.96,-3.71 -3.78,-3.99 -4.22,-9.87 -3.64,-15.07 0.5,-4.31 2.82,-8.57 6.74,-10.66 6.77,-3.96 14.9,-3.69 22.2,-6.04 6.33,-2.25 4.38,-12.41 -1.41,-14.14 -4.18,-1.21 -9.01,-1.24 -12.9,0.84 -3.31,1.71 -4.52,5.59 -4.64,9.07 -2.82,0.09 -5.63,0.08 -8.43,0.07 0.36,-4.73 1.37,-9.74 4.73,-13.31 m 6.83,28.8 c -5.75,2.73 -6.4,12.64 -0.39,15.43 7.33,3.27 17.43,-0.7 19.53,-8.73 0.75,-3.93 0.16,-7.97 0.37,-11.94 -6.04,3.35 -13.44,2.04 -19.51,5.24 z"
         inkscape:connector-curvature="0"
         style="opacity:1;fill:#000000" />
      <path
         id="path4703"
         d="m 409.58,156.28 c 3.32,-0.04 6.65,-0.04 9.98,-0.01 5.2,16.51 10.64,32.95 15.81,49.47 -3.33,0.01 -6.66,0.01 -9.99,0.01 -1.03,-3.67 -2.13,-7.33 -3.17,-11 -5.2,-0.01 -10.4,0.01 -15.6,-0.01 -1.1,3.67 -2.23,7.34 -3.34,11.02 -3.27,-0.02 -6.54,-0.01 -9.81,-0.01 5.41,-16.48 10.83,-32.95 16.12,-49.47 m -0.52,30.23 c 3.55,-0.02 7.11,-0.01 10.66,-0.03 -1.73,-5.79 -3.43,-11.6 -5.15,-17.4 -2.14,5.71 -3.59,11.65 -5.51,17.43 z"
         inkscape:connector-curvature="0"
         style="opacity:1;fill:#000000" />
      <path
         id="path4705"
         d="m 553.74,156.25 c 2.92,0 5.84,0 8.76,0.01 0,2.74 0,5.49 0,8.24 -2.92,0 -5.84,0 -8.75,0 -0.01,-2.75 0,-5.5 -0.01,-8.25 z"
         inkscape:connector-curvature="0"
         style="opacity:1;fill:#000000" />
      <path
         id="path4707"
         d="m 682.71,156.32 c 2.92,-0.09 5.85,-0.09 8.79,-0.07 0.01,16.5 0,33 0,49.5 -2.76,-0.01 -5.51,0 -8.26,0 0.02,-1.1 0.07,-3.3 0.09,-4.4 -3.45,6.76 -13.62,7.1 -18.38,1.66 -4.82,-5.43 -5.57,-13.26 -4.69,-20.18 0.85,-5.64 3.88,-11.78 9.72,-13.53 4.73,-1.62 10.15,0.31 12.9,4.45 -0.29,-5.81 -0.03,-11.62 -0.17,-17.43 m -10.3,21.17 c -4.97,4.39 -4.64,12.51 -2,18.09 1.82,4.37 8.69,4.66 10.83,0.44 2.4,-4.75 2.36,-10.66 0.48,-15.58 -1.38,-3.59 -6.15,-5.24 -9.31,-2.95 z"
         inkscape:connector-curvature="0"
         style="opacity:1;fill:#000000" />
      <path
         id="path4709"
         d="m 732.01,156.24 c 2.82,0.01 5.65,0.01 8.49,0.01 0.01,16.5 0,33 0,49.5 -2.84,0 -5.67,0 -8.49,0 -0.01,-16.5 -0.02,-33 0,-49.51 z"
         inkscape:connector-curvature="0"
         style="opacity:1;fill:#000000" />
      <path
         id="path4711"
         d="m 761.01,156.25 c 11.66,0 23.32,0.01 34.98,-0.01 0.01,3.09 0.01,6.17 0.01,9.26 -4.26,0 -8.51,0 -12.75,0.01 0,13.41 0,26.82 0,40.24 -3.17,0 -6.34,0 -9.5,0 -0.02,-13.42 0.02,-26.84 -0.02,-40.26 -4.24,0.02 -8.49,0.01 -12.73,0.01 -0.01,-3.08 -0.01,-6.17 0.01,-9.25 z"
         inkscape:connector-curvature="0"
         style="opacity:1;fill:#000000" />
      <path
         id="path4713"
         d="m 475.46,159.05 c 2.84,-0.06 5.69,-0.06 8.54,-0.05 0,3.58 -0.01,7.17 0.01,10.75 2.07,0 4.15,0 6.24,0 0,2.25 -0.01,4.5 0,6.75 -2.09,0 -4.17,0 -6.25,0.01 0.15,6.56 -0.31,13.16 0.23,19.7 0.47,2.78 4.05,1.93 6.02,1.79 0,2.65 0,5.3 0,7.96 -3.71,0.3 -7.68,0.79 -11.15,-0.88 -2.32,-1.11 -3.66,-3.65 -3.59,-6.17 -0.04,-7.47 0,-14.94 -0.01,-22.41 -1.76,0 -3.5,0 -5.24,0.01 -0.01,-2.26 -0.01,-4.51 -0.01,-6.76 1.75,0 3.49,-0.01 5.25,-0.01 0,-3.56 0.01,-7.12 -0.04,-10.69 z"
         inkscape:connector-curvature="0"
         style="opacity:1;fill:#000000" />
      <path
         id="path4715"
         d="m 571,159 c 2.91,0 5.83,0 8.75,0 -0.01,3.58 -0.01,7.16 0,10.74 2.07,0 4.16,0.01 6.25,0.01 0,2.25 -0.01,4.5 0,6.75 -2.09,0 -4.17,0 -6.25,0.01 0,5.82 0,11.65 -0.02,17.48 0.03,1.38 -0.06,3.11 1.33,3.91 1.59,0.62 3.3,0.19 4.95,0.11 -0.02,2.63 -0.02,5.26 -0.01,7.9 -3.91,0.39 -8.21,0.88 -11.8,-1.08 -2.67,-1.61 -3.26,-4.95 -3.21,-7.81 0,-6.84 0.01,-13.68 0.01,-20.51 -1.68,-0.01 -3.34,-0.01 -5,-0.02 -0.01,-2.25 -0.01,-4.49 0,-6.74 1.66,0 3.32,0 4.99,0 C 571,166.17 571,162.58 571,159 Z"
         inkscape:connector-curvature="0"
         style="opacity:1;fill:#000000" />
      <path
         id="path4717"
         d="m 626,159 c 2.91,0 5.83,0 8.75,0.01 -0.01,3.58 -0.01,7.16 0,10.74 2.08,0 4.16,0 6.25,0 -0.01,2.25 -0.01,4.5 0,6.75 -2.09,0 -4.17,0 -6.25,0 0.07,6.48 -0.15,12.96 0.1,19.42 0.38,2.99 4.03,2.32 6.15,2.09 -0.01,2.63 0,5.26 0,7.89 -3.7,0.4 -7.64,0.79 -11.15,-0.72 -2.62,-1.26 -3.84,-4.26 -3.82,-7.04 -0.1,-7.21 0.01,-14.42 -0.03,-21.64 -1.68,0 -3.34,0 -5,0 -0.01,-2.25 -0.01,-4.51 0.01,-6.76 1.65,0.01 3.31,0.01 4.98,0.02 C 626,166.17 626,162.58 626,159 Z"
         inkscape:connector-curvature="0"
         style="opacity:1;fill:#000000" />
      <path
         id="path4719"
         d="m 1016.75,159 c 2.83,0 5.66,0 8.5,0 -0.01,3.58 -0.01,7.17 0,10.75 2.08,0 4.15,0 6.25,0 0,2.25 -0.01,4.5 0,6.75 -2.09,0 -4.18,0 -6.25,0 0.02,5.52 -0.05,11.04 0.02,16.56 0.12,1.56 0,3.29 0.96,4.65 1.66,0.74 3.51,0.48 5.28,0.32 -0.02,2.63 -0.02,5.26 0.02,7.9 -3.61,0.36 -7.43,0.73 -10.85,-0.7 -2.84,-1.11 -4.05,-4.39 -3.94,-7.23 0,-7.16 0.01,-14.33 0,-21.5 -1.72,0 -3.44,-0.01 -5.14,-0.01 0.01,-2.24 0.03,-4.48 0.04,-6.73 1.69,-0.01 3.4,-0.01 5.11,-0.02 -0.01,-3.58 -0.01,-7.16 0,-10.74 z"
         inkscape:connector-curvature="0"
         style="opacity:1;fill:#000000" />
      <path
         id="path4721"
         d="m 503.59,169.66 c 4.86,-1.6 10.57,-1.09 14.75,1.98 4.46,3.34 6.56,9.02 6.72,14.45 0.26,5.23 -0.58,10.84 -3.92,15.06 -5.51,7.36 -18.01,7.57 -23.77,0.41 -4.46,-5.53 -5.08,-13.27 -3.62,-20 1.12,-5.22 4.66,-10.12 9.84,-11.9 m 2.6,7.44 c -2.91,1.45 -3.92,4.95 -4.27,7.94 -0.46,3.96 -0.14,8.34 2.21,11.7 2.76,3.83 9.37,2.71 10.99,-1.66 1.82,-4.69 1.89,-10.2 -0.17,-14.83 -1.32,-3.34 -5.63,-4.75 -8.76,-3.15 z"
         inkscape:connector-curvature="0"
         style="opacity:1;fill:#000000" />
      <path
         id="path4723"
         d="m 538.42,176.19 c 1.99,-4.63 6.77,-8.45 12.06,-7.19 0.03,3.16 0.02,6.31 0.02,9.47 -2.42,-0.17 -5.1,-0.67 -7.24,0.76 -3.36,1.91 -4.07,6.19 -4.24,9.71 -0.08,5.61 0.01,11.21 -0.02,16.82 -2.92,-0.01 -5.84,-0.01 -8.75,-0.01 0,-12 0,-24 0,-36 2.75,0 5.5,0 8.26,0 0,2.15 -0.02,4.29 -0.09,6.44 z"
         inkscape:connector-curvature="0"
         style="opacity:1;fill:#000000" />
      <path
         id="path4725"
         d="m 594.4,171.16 c 4.99,-2.99 11.36,-2.94 16.81,-1.32 3.17,0.91 5.66,3.68 6.14,6.96 0.81,9.62 -0.98,19.47 1.16,28.97 -2.9,-0.07 -5.81,0.09 -8.7,-0.09 -0.17,-0.65 -0.51,-1.95 -0.69,-2.6 -4.28,3.57 -10.53,4.9 -15.69,2.5 -5.73,-3.04 -6.32,-11.28 -3.28,-16.39 3.91,-5.07 11.01,-3.87 16.46,-5.77 3.79,-1.25 2.38,-7.9 -1.59,-7.65 -3.62,-0.99 -6.91,1.61 -7.2,5.23 -2.89,0 -5.78,0 -8.67,0 0.46,-3.76 1.77,-7.83 5.25,-9.84 m 4.95,20.17 c -2.8,1.45 -3.18,6.02 -0.54,7.84 2.98,1.69 7.31,0.71 9,-2.38 1.28,-2.46 0.87,-5.34 0.97,-8.01 -3.03,1.29 -6.48,1.08 -9.43,2.55 z"
         inkscape:connector-curvature="0"
         style="opacity:1;fill:#000000" />
      <path
         id="path4727"
         d="m 702.34,172.23 c 5.4,-4.82 14.72,-4.69 19.58,0.86 4.16,4.63 5.14,11.15 5.13,17.16 -7.51,0.1 -15.03,-0.21 -22.53,0.17 0.63,2.72 0.95,6.07 3.64,7.65 3.75,2.29 9.05,0.53 10.73,-3.55 2.5,-0.04 5.02,-0.04 7.54,0.01 -1.17,4.22 -3.39,8.51 -7.42,10.62 -4.8,2.45 -10.92,2.15 -15.49,-0.7 -4.5,-2.88 -6.77,-8.22 -7.3,-13.37 -0.85,-6.71 0.83,-14.28 6.12,-18.85 m 2.04,11.53 c 4.61,0.01 9.24,-0.02 13.86,-0.03 -0.56,-3.29 -2.34,-7.35 -6.27,-7.26 -4.35,-0.5 -6.75,3.67 -7.59,7.29 z"
         inkscape:connector-curvature="0"
         style="opacity:1;fill:#000000" />
      <path
         id="path4729"
         d="m 802.4,176.22 c 1.9,-4.62 6.65,-8.35 11.86,-7.28 -0.02,3.17 -0.02,6.33 -0.01,9.49 -2.8,-0.3 -6.01,-0.5 -8.21,1.61 -2.51,2.62 -3.06,6.45 -3.05,9.93 0,5.26 0.02,10.52 0.01,15.79 -2.92,-0.01 -5.84,-0.01 -8.75,-0.01 -0.02,-11.99 0.02,-23.98 -0.02,-35.97 2.76,-0.04 5.52,-0.04 8.28,-0.03 -0.01,2.16 -0.02,4.32 -0.11,6.47 z"
         inkscape:connector-curvature="0"
         style="opacity:1;fill:#000000" />
      <path
         id="path4731"
         d="m 822.81,170.76 c 4.81,-2.48 10.64,-2.48 15.78,-1.04 3,0.79 5.57,3.14 6.33,6.2 1.27,9.89 -1.01,20.12 1.39,29.89 -2.94,-0.08 -5.88,-0.08 -8.81,-0.05 -0.15,-0.74 -0.45,-2.2 -0.6,-2.94 -4.15,4.02 -10.89,5.23 -16.05,2.56 -5.49,-3.25 -5.99,-11.42 -2.79,-16.41 4.04,-4.85 11.05,-3.67 16.45,-5.59 3.94,-1.62 1.83,-8.49 -2.46,-7.66 -3.45,-0.77 -6.17,2 -6.44,5.27 -2.89,0.01 -5.77,0.01 -8.65,0 0.3,-4.04 2.06,-8.31 5.85,-10.23 m 1.97,24.35 c -0.57,5.17 6.58,6.24 9.56,3.21 2.66,-2.41 2.1,-6.31 2.2,-9.52 -3.98,1.8 -11.08,0.5 -11.76,6.31 z"
         inkscape:connector-curvature="0"
         style="opacity:1;fill:#000000" />
      <path
         id="path4733"
         d="m 859.68,174.55 c 1.72,-2.16 3.57,-4.56 6.4,-5.25 5.4,-1.84 12.62,0.73 13.75,6.83 1.72,9.76 0.59,19.76 0.92,29.62 -2.92,0 -5.84,0 -8.74,0 -0.09,-7.29 0.14,-14.58 -0.11,-21.87 -0.13,-2.68 -0.82,-6.22 -3.9,-6.92 -3.83,-1.19 -7.42,2.22 -7.5,5.99 -0.59,7.57 -0.08,15.21 -0.25,22.8 -2.93,0 -5.84,0 -8.75,-0.01 0,-11.99 0,-23.99 0,-35.99 2.75,0 5.5,0 8.26,0 -0.03,1.59 -0.04,3.2 -0.08,4.8 z"
         inkscape:connector-curvature="0"
         style="opacity:1;fill:#000000" />
      <path
         id="path4735"
         d="m 892.04,170.12 c 5.13,-1.94 11.27,-1.99 16.13,0.74 3.41,1.97 4.7,5.94 5.18,9.63 -2.74,0.02 -5.48,0.02 -8.21,0 -0.31,-4.44 -5.29,-5.81 -8.85,-4.3 -2.2,1 -2.06,4.42 0.12,5.35 5.16,2.7 12.16,2.05 16.03,7.04 3.71,5.82 0.96,15.13 -5.96,17.13 -5.92,1.9 -13.42,1.61 -18,-3.06 -2.36,-2.25 -2.93,-5.57 -3.33,-8.64 2.73,-0.02 5.48,-0.02 8.23,0.02 0.25,4.45 5.24,7.29 9.23,5.38 2.6,-0.7 3.79,-4.73 1.41,-6.33 -5.06,-3.44 -12.54,-2.34 -16.56,-7.55 -3.18,-5.07 -1.25,-13.16 4.58,-15.41 z"
         inkscape:connector-curvature="0"
         style="opacity:1;fill:#000000" />
      <path
         id="path4737"
         d="m 926.97,173.86 c 3.56,-6.28 13.05,-6.66 17.87,-1.69 4.8,4.87 5.75,12.26 5.26,18.79 -0.54,6.18 -3.38,13.34 -9.86,15.27 -4.72,1.68 -9.96,-0.35 -12.85,-4.29 0.23,5.52 0.06,11.04 0.11,16.56 -2.93,0 -5.84,0 -8.75,0 0,-16.25 -0.01,-32.5 0,-48.75 2.75,0 5.5,0 8.25,0 0,1.03 -0.02,3.09 -0.03,4.11 m 4.24,3.39 c -1.98,1.08 -2.89,3.29 -3.49,5.33 -1.08,4.41 -0.97,9.34 1.18,13.42 2.16,4.08 8.88,4.08 10.91,-0.15 2.34,-4.79 2.31,-10.8 0.08,-15.63 -1.33,-3.28 -5.64,-4.88 -8.68,-2.97 z"
         inkscape:connector-curvature="0"
         style="opacity:1;fill:#000000" />
      <path
         id="path4739"
         d="m 966.15,169.2 c 5.13,-1.19 11.03,-0.01 14.79,3.84 3.83,3.92 5.28,9.63 5.1,14.99 0.15,5.78 -1.78,11.96 -6.44,15.67 -6.41,4.89 -16.87,4 -21.72,-2.69 -4.11,-5.73 -4.67,-13.39 -3.01,-20.07 1.31,-5.53 5.58,-10.52 11.28,-11.74 m 1.02,7.91 c -3.49,1.87 -4.29,6.34 -4.44,9.95 -0.02,3.97 0.45,8.77 4.05,11.2 3.05,1.78 7.52,0.59 9.04,-2.68 2.18,-4.77 2.17,-10.57 0.08,-15.36 -1.34,-3.32 -5.61,-4.73 -8.73,-3.11 z"
         inkscape:connector-curvature="0"
         style="opacity:1;fill:#000000" />
      <path
         id="path4741"
         d="m 999.43,176.07 c 1.95,-4.58 6.73,-8.22 11.9,-7.1 0.09,3.15 0.04,6.31 -0.09,9.46 -2.58,-0.2 -5.52,-0.57 -7.68,1.18 -2.75,2.25 -3.48,6.04 -3.55,9.41 -0.05,5.58 0.01,11.15 -0.02,16.73 -2.92,0 -5.83,0 -8.74,0 0.05,-12.02 -0.1,-24.03 0.08,-36.04 2.71,0.04 5.44,0.04 8.18,0.04 -0.01,2.11 -0.02,4.21 -0.08,6.32 z"
         inkscape:connector-curvature="0"
         style="opacity:1;fill:#000000" />
      <path
         id="path4743"
         d="m 438,169.75 c 2.83,0 5.66,0 8.5,0 0.02,6.73 -0.03,13.47 0.01,20.2 0.16,2.95 0.18,6.63 3.05,8.36 2.14,0.86 4.86,0.54 6.53,-1.12 1.92,-2.28 2.14,-5.41 2.17,-8.25 -0.01,-6.4 -0.01,-12.8 -0.01,-19.19 2.91,0 5.83,0 8.74,0 0.02,12 0.01,24 0.01,36 -2.76,0 -5.51,0 -8.26,-0.01 0,-1.63 0.03,-3.26 0.07,-4.88 -3.08,6.25 -11.95,7.78 -17.27,3.55 -2.78,-2.65 -3.53,-6.73 -3.55,-10.42 0.01,-8.08 0,-16.16 0.01,-24.24 z"
         inkscape:connector-curvature="0"
         style="opacity:1;fill:#000000" />
      <path
         id="path4745"
         d="m 553.75,169.75 c 2.91,0 5.83,0 8.75,0.01 0,11.99 0,23.99 0,35.99 -2.92,0 -5.84,0 -8.75,0 -0.01,-12 0,-24 0,-36 z"
         inkscape:connector-curvature="0"
         style="opacity:1;fill:#000000" />
      <path
         id="path4747"
         d="m 398.01,225.25 c 4.47,0.01 8.95,-0.02 13.43,0.03 3.31,11.25 6.58,22.51 9.88,33.76 3.12,-11.25 6.23,-22.5 9.32,-33.75 4.45,-0.08 8.9,-0.03 13.35,-0.04 0.02,16.58 0.01,33.16 0.01,49.75 -3,0 -6,0 -9,0 -0.18,-11.44 0.37,-22.91 -0.32,-34.34 -2.82,11.58 -6.67,22.88 -9.9,34.34 -2.5,0 -4.99,0 -7.48,-0.03 -3.17,-11.46 -7.16,-22.69 -9.92,-34.25 -0.84,11.39 -0.16,22.86 -0.38,34.28 -3,0 -6,0 -9,0 0,-16.59 -0.01,-33.17 0.01,-49.75 z"
         inkscape:connector-curvature="0"
         style="opacity:1;fill:#000000" />
      <path
         id="path4749"
         d="m 637.25,225.25 c 2.91,0 5.83,0 8.75,0 0,16.58 0,33.17 0,49.75 -2.92,0 -5.84,0 -8.75,0 0,-16.58 0,-33.17 0,-49.75 z"
         inkscape:connector-curvature="0"
         style="opacity:1;fill:#000000" />
      <path
         id="path4751"
         d="m 691.78,224.77 c 3.25,-0.03 6.51,-0.01 9.77,-0.05 1.96,3.33 3.88,6.69 5.85,10.03 -2.1,-0.01 -4.18,0 -6.26,0.02 -3.15,-3.3 -6.2,-6.7 -9.36,-10 z"
         inkscape:connector-curvature="0"
         style="opacity:1;fill:#000000" />
      <path
         id="path4753"
         d="m 652.75,225.26 c 2.83,-0.01 5.66,-0.01 8.5,-0.01 0,2.83 0,5.66 0,8.49 -2.84,0.01 -5.67,0.01 -8.5,0.01 -0.01,-2.84 -0.01,-5.67 0,-8.49 z"
         inkscape:connector-curvature="0"
         style="opacity:1;fill:#000000" />
      <path
         id="path4755"
         d="m 487.49,228.26 c 2.9,-0.01 5.81,0 8.71,-0.04 0.07,3.59 0.05,7.18 0.04,10.77 2,0.01 4,0.01 6,0.01 0.01,2.25 0.01,4.5 0.01,6.75 -2,0 -4,0 -6,0.01 0.11,6.62 -0.22,13.25 0.15,19.86 0.71,2.54 4,1.4 5.89,1.65 -0.05,2.62 -0.05,5.24 -0.04,7.86 -3.96,0.07 -8.4,0.95 -11.92,-1.38 -2.25,-1.39 -2.87,-4.26 -2.84,-6.73 0.01,-7.09 0.01,-14.18 0.01,-21.27 -1.76,-0.01 -3.5,0 -5.25,0 0,-2.25 -0.01,-4.5 0,-6.74 1.74,-0.01 3.49,-0.01 5.25,-0.01 -0.01,-3.58 -0.01,-7.17 -0.01,-10.74 z"
         inkscape:connector-curvature="0"
         style="opacity:1;fill:#000000" />
      <path
         id="path4757"
         d="m 670.01,228.25 c 2.9,0 5.82,0 8.74,0 0,3.58 0,7.16 0,10.75 1.99,0 3.99,0 6,0.01 -0.01,2.24 -0.01,4.49 0,6.74 -2.01,0 -4.01,0 -6,0 0.06,6.43 -0.12,12.87 0.07,19.3 0.11,3.12 3.89,2.04 5.95,2.19 -0.03,2.61 -0.03,5.23 -0.01,7.85 -3.69,0.16 -7.67,0.81 -11.11,-0.86 -2.72,-1.24 -3.7,-4.48 -3.65,-7.25 -0.02,-7.08 0.02,-14.16 0,-21.23 -1.68,0 -3.34,0 -4.99,0 -0.01,-2.25 -0.02,-4.5 -0.01,-6.75 1.66,0 3.32,0 5,0 0,-3.59 -0.01,-7.17 0.01,-10.75 z"
         inkscape:connector-curvature="0"
         style="opacity:1;fill:#000000" />
      <path
         id="path4759"
         d="m 454.03,243.27 c 4.61,-5.83 14.09,-7.23 19.9,-2.42 5.44,4.44 6.81,11.98 6.6,18.64 -7.46,0.03 -14.92,0 -22.38,0.02 0.51,2.79 0.93,6.09 3.6,7.73 3.7,2.44 8.93,0.46 10.69,-3.46 2.53,-0.04 5.07,-0.04 7.62,-0.03 -1.44,4.9 -4.42,9.99 -9.63,11.49 -7.16,2.44 -15.8,-0.97 -18.8,-8.04 -3.24,-7.63 -2.84,-17.25 2.4,-23.93 m 4.16,9.7 c 4.56,0.05 9.12,0.03 13.69,0.02 -0.67,-2.11 -1.04,-4.51 -2.77,-6.04 -1.62,-1.5 -4,-1.36 -6.02,-1.07 -3.04,1 -4.44,4.16 -4.9,7.09 z"
         inkscape:connector-curvature="0"
         style="opacity:1;fill:#000000" />
      <path
         id="path4761"
         d="m 514.44,244.95 c 1.9,-4.58 6.76,-7.83 11.8,-6.84 0.01,3.18 0,6.36 0.03,9.54 -4.37,-1.23 -9.66,0.69 -10.69,5.47 -1.66,7.15 -0.48,14.6 -0.83,21.87 -2.92,0.01 -5.84,0.01 -8.75,0.01 0,-12 0,-24 0,-36 2.83,0 5.67,0 8.51,0 -0.01,1.98 -0.02,3.97 -0.07,5.95 z"
         inkscape:connector-curvature="0"
         style="opacity:1;fill:#000000" />
      <path
         id="path4763"
         d="m 538.5,238.62 c 6.63,-2.03 14.69,0.49 18.03,6.8 3.83,7.25 3.76,16.62 -0.39,23.73 -4.31,7.13 -14.78,8.84 -21.57,4.36 -5.07,-3.32 -7.26,-9.61 -7.34,-15.44 -0.59,-7.87 2.98,-17.23 11.27,-19.45 m 2.58,7.37 c -3.62,1.21 -4.85,5.42 -5.06,8.85 -0.2,4.11 -0.14,8.97 3.15,11.96 2.88,2.69 8.02,1.54 9.74,-1.93 2.17,-4.45 2.07,-9.83 0.62,-14.48 -1.08,-3.47 -4.95,-5.68 -8.45,-4.4 z"
         inkscape:connector-curvature="0"
         style="opacity:1;fill:#000000" />
      <path
         id="path4765"
         d="m 572.68,243.02 c 3.82,-6.47 13.76,-6.61 18.48,-1.14 4.66,5.47 5.45,13.28 4.46,20.15 -0.84,5.61 -3.88,11.78 -9.74,13.43 -4.67,1.57 -10.03,-0.41 -12.7,-4.5 0.15,5.51 0.04,11.03 0.07,16.54 -2.92,0 -5.84,0 -8.75,0 -0.04,-16.14 0.06,-32.29 -0.04,-48.43 2.76,-0.09 5.53,-0.09 8.31,-0.07 -0.03,1.34 -0.06,2.68 -0.09,4.02 m 4.58,3.2 c -3.72,2.18 -4.32,6.99 -4.44,10.89 0.14,3.24 0.52,6.86 2.91,9.3 2.14,2.44 6.41,2.52 8.62,0.13 2.95,-2.94 3.03,-7.49 2.86,-11.38 -0.27,-3.59 -1.57,-7.91 -5.29,-9.28 -1.54,-0.18 -3.24,-0.41 -4.66,0.34 z"
         inkscape:connector-curvature="0"
         style="opacity:1;fill:#000000" />
      <path
         id="path4767"
         d="m 610.49,238.77 c 5.27,-1.63 11.6,-0.91 15.71,3.01 4.2,3.79 5.78,9.71 5.59,15.22 0.21,5.05 -1.18,10.32 -4.58,14.16 -5.78,6.56 -17.46,6.42 -23.02,-0.36 -4.33,-5.19 -5.07,-12.55 -3.91,-18.99 0.9,-5.69 4.55,-11.22 10.21,-13.04 m 2.65,7.38 c -2.94,1.41 -4.03,4.84 -4.44,7.84 -0.49,3.87 -0.24,8.12 1.86,11.52 1.74,2.78 5.77,3.57 8.55,1.9 2.28,-1.23 3.18,-3.9 3.7,-6.28 0.79,-4.18 0.56,-8.79 -1.56,-12.55 -1.6,-2.75 -5.29,-3.54 -8.11,-2.43 z"
         inkscape:connector-curvature="0"
         style="opacity:1;fill:#000000" />
      <path
         id="path4769"
         d="m 694.48,239.71 c 5.85,-2.52 13.34,-2.65 18.78,0.96 4.39,3.43 3.05,9.53 3.24,14.36 0.29,6.65 -0.79,13.47 1,19.98 -2.95,-0.02 -5.89,-0.01 -8.83,-0.01 -0.19,-1.1 -0.35,-2.2 -0.5,-3.3 -4.41,4.97 -13.23,6 -18.15,1.24 -3.62,-4.1 -3.68,-10.96 -0.37,-15.26 4.15,-4.39 10.74,-3.19 15.96,-5.1 3.79,-1.37 2.3,-7.83 -1.66,-7.71 -3.62,-0.96 -6.98,1.76 -7.22,5.39 -2.88,-0.01 -5.77,-0.01 -8.64,-0.04 0.42,-4.22 2.23,-8.73 6.39,-10.51 m 3.94,20.7 c -3.07,1.54 -3.42,6.85 -0.06,8.25 2.55,0.84 5.85,0.51 7.72,-1.62 2.04,-2.58 1.61,-6.04 1.74,-9.11 -3.04,1.21 -6.42,1.16 -9.4,2.48 z"
         inkscape:connector-curvature="0"
         style="opacity:1;fill:#000000" />
      <path
         id="path4771"
         d="m 652.75,239 c 2.83,0 5.66,0 8.5,0 0,12 0,24 0,36 -2.84,0 -5.68,0 -8.51,0 0.01,-12 0.01,-24 0.01,-36 z"
         inkscape:connector-curvature="0"
         style="opacity:1;fill:#000000" />
    </g>
  </g>
</svg>
