<svg xmlns="http://www.w3.org/2000/svg" width="707.8" height="295.3" viewBox="0 0 707.8 295.3"><title>mobiliteit-logo-mobile</title><path d="M313.36,174.52c8,0,8.57,6.17,8.57,10.46v33.79h7.95V185.39c0-17.26-8.68-18.3-14.74-18.3-5.13,0-14.34,2.72-19.78,5.23-3-4.81-8-5.23-11.82-5.23-6.59,0-17.05,4.81-17.05,4.81l-1.57-3.77h-5.86v50.64h7.85v-41s10.36-3.24,14.86-3.24c7.21,0,8.36,5,8.57,9.1v35.15h8V185.39a38.65,38.65,0,0,0-.73-7.52C299.48,177.31,309.36,174.52,313.36,174.52Zm74,27V181.31s-1.05-13.19-13.18-13.19H358.07c-17.27,0-17.16,17.26-17.16,17.26v20.2s0,13.18,13.18,13.18h16c17.27,0,17.27-17.25,17.27-17.25ZM348.44,204V182.68c0-4.4,2.31-7.54,7.53-7.54H372.3c5.54,0,7.52,3.35,7.52,7.43v21.34c0,4.08-1.26,7.53-7.63,7.53H356c-4.92,0-7.53-3.34-7.53-7.42Zm95.06-2.51V185.39c0-17.26-11.3-18.3-14.75-18.3-8.26,0-20.5,3.87-22.91,4.71V154H398v59.74s.42,5,5.11,5h23.64c10.78,0,16.74-7.2,16.74-17.24Zm-37.66-24.07s15.49-3,21.77-3c3.86,0,8.15,2,8.15,8.36v21.1c0,5.13-2.3,7.53-7.63,7.53H405.84Zm57.22-24.57H454v9.2h9.09Zm-.73,65.9V168.13h-7.74v50.64ZM484.49,154h-7.84v64.76h7.84Zm22.17,64.76V168.13h-7.74v50.64Zm.73-65.9h-9.1v9.2h9.06Zm22.08,48.74v-26.9h19.35v-6.59H529.47v-8H523.6l-2,8h-6.05v6.59h6.07v26.79c0,17.26,12.13,18.3,14.12,18.3,7.53,0,10.57-1.14,15.16-2.61v-6.39A77.1,77.1,0,0,1,538,212.18c-5.69,0-8.57-3.46-8.57-10.57Zm60.88-49.07-6-6.07-9.63,10.57,4.61,4.5Zm-24.8,51.57v-6.59H594c2.3,0,4.18-1.78,4.18-5V182.36c0-6.38-3.35-14.23-16.21-14.23h-7c-12.14,0-17.26,8.16-17.26,17.26v16.12c0,17.26,13.18,18.3,15.16,18.3,16.22,0,26.26-3.76,26.26-3.76v-6.74c-3.34,1-15.16,2.93-25,2.93A8.55,8.55,0,0,1,565.55,204.12Zm0-21.65c0-4.4,2.3-7.53,7.53-7.53h10.57c5.23,0,7.53,3.13,7.53,7.53v8.89H565.55Zm44.8,36.3h7.74V168.13h-7.74Zm-.63-56.7h9.11v-9.2h-9.11Zm31.18,39.54V174.72h19.35v-6.59H640.91v-8h-5.86l-2,8H627v6.59h6.07v26.79c0,17.26,12.13,18.3,14.12,18.3,7.54,0,10.57-1.14,15.18-2.61v-6.39a77.21,77.21,0,0,1-12.87,1.37c-5.65,0-8.57-3.46-8.57-10.57Zm59.88-11.72H678V179.31a4.1,4.1,0,0,1,4-4.2h21.73v-7h-18.1c-9.09,0-15.27,4.09-15.27,12.14v8.89c0,4.92,2.93,7.64,8.57,7.64h20.94v9.84c0,2.92-1.57,6-6.6,6a162.79,162.79,0,0,1-23.84-2.09v7.21s7.94,2.09,23.12,2.09c2,0,15.27-.1,15.27-15.27v-7.65c0-1.16-.53-7-7-7ZM292.49,250.73v-7.11H258.91v7.11h25.45l-27.71,36,2.29,7.53h36v-7.63H265.6Zm18.23,28.88V273h28.46c2.3,0,4.18-1.78,4.18-5V257.85c0-6.38-3.34-14.23-16.22-14.23h-7c-12.14,0-17.26,8.16-17.26,17.26V277c0,17.25,13.18,18.3,15.17,18.3,16.21,0,26.25-3.77,26.25-3.77v-6.69c-3.35,1.05-15.17,2.93-25,2.93a8.54,8.54,0,0,1-8.58-8.16Zm0-21.65c0-4.4,2.3-7.54,7.54-7.54h10.56c5.23,0,7.53,3.14,7.53,7.54v8.89H310.72Zm75.46-15.38c-9.72,0-23.32,4.81-23.32,4.81l-1.58-3.77h-5.85v50.63h7.84v-41S378.75,250,384.4,250c8.06,0,8.58,6.18,8.58,10.46v33.79h7.94V260.88c0-17.15-8.67-18.3-14.74-18.3Zm37.55,34.52V250.21h19.35v-6.59H423.73v-8.05h-5.86l-2,8.05H409.8v6.59h6.07V277c0,17.25,12.13,18.3,14.12,18.3,7.54,0,10.57-1.16,15.17-2.62v-6.37a78.63,78.63,0,0,1-12.81,1.35C426.66,287.66,423.73,284.21,423.73,277.1Zm35.09-33.48H453v50.63h7.85V252.62a51.81,51.81,0,0,1,10.54-1.89h2v-8.15c-2.93,0-10.36,2.93-13,4.7Zm47.61,0H483.52v7h20.61c4.82,0,6,2.4,6,5.22v7h-17.5c-14.34,0-16.22,9.73-16.22,14.23V280c0,11.82,8.37,15.27,13.18,15.27h3c7,0,13.59-3.14,18.09-4.92l1.88,3.87h5.13V254.71C517.73,248.75,514.49,243.62,506.43,243.62Zm3.66,41c-3.45,1.05-12.23,3.45-18.41,3.45a7.37,7.37,0,0,1-7.63-7.06v-6.33c0-2,2.19-5.34,6.48-5.34h19.56Zm19.2,9.62h7.84v-63.7h-7.84ZM227.1,55.91l-16.26-.09s-58.92,87.33-59.19,87.24c.26.36-68.23-85.92-68.54-86.1l-24.54-.12c-1.12,0-1,1.4-1,1.4l-.21,147.67c0,7.47,4.78,12.84,10.68,12L81.7,215s1-.18,1-1.63c0,0,.15-75.17.22-114-.11,0,63.63,73.57,63.63,73.57s4.8,6.4,9.37-1c0,0,54.54-78.47,54.42-78.58l.32-.53V207.72C190.3,214.1,65.59,245.93,65.59,245.93s-9.35,2.31-18.15-.9c-10.37-3.78-17-12.32-17-29.61V28.78L228,34.59v-18C161.78,9.46,116.79,7,116.79,7l-105-7C5.28-.27,0,6.13,0,14.32V221.91c.24,21,3.05,32.79,20.64,44.3,20.89,13.67,48.54,5.41,48.54,5.41l.37-.12,62.81-19.32c63.23-19,94.1-32.41,94.1-32.41a1.8,1.8,0,0,0,1.28-1.57v-3.3L228,57S228.12,55.91,227.1,55.91Z" fill="#e6007e"/></svg>