<?xml version="1.0" encoding="UTF-8" standalone="no"?>
<svg
   xmlns:dc="http://purl.org/dc/elements/1.1/"
   xmlns:cc="http://creativecommons.org/ns#"
   xmlns:rdf="http://www.w3.org/1999/02/22-rdf-syntax-ns#"
   xmlns:svg="http://www.w3.org/2000/svg"
   xmlns="http://www.w3.org/2000/svg"
   width="64"
   height="64"
   id="svg2822"
   version="1.0">
  <defs
     id="defs2824">
    <filter
       height="1.0000054"
       y="-2.7114902e-06"
       width="1.0000054"
       x="-2.7114902e-06"
       id="filter851"
       style="color-interpolation-filters:sRGB">
      <feGaussianBlur
         id="feGaussianBlur853"
         stdDeviation="2.5141919e-05" />
    </filter>
    <filter
       height="1.0000029"
       y="-1.4488095e-06"
       width="1.0000029"
       x="-1.4488095e-06"
       id="filter855"
       style="color-interpolation-filters:sRGB">
      <feGaussianBlur
         id="feGaussianBlur857"
         stdDeviation="2.5141919e-05" />
    </filter>
    <filter
       height="1.0000045"
       y="-2.2289993e-06"
       width="1.0000045"
       x="-2.2289994e-06"
       id="filter859"
       style="color-interpolation-filters:sRGB">
      <feGaussianBlur
         id="feGaussianBlur861"
         stdDeviation="2.5141919e-05" />
    </filter>
    <filter
       height="1.0000493"
       y="-2.4640998e-05"
       width="1.0000493"
       x="-2.4640988e-05"
       id="filter863"
       style="color-interpolation-filters:sRGB">
      <feGaussianBlur
         id="feGaussianBlur865"
         stdDeviation="2.5141919e-05" />
    </filter>
    <filter
       height="1.0000493"
       y="-2.4640988e-05"
       width="1.0000493"
       x="-2.4640988e-05"
       id="filter867"
       style="color-interpolation-filters:sRGB">
      <feGaussianBlur
         id="feGaussianBlur869"
         stdDeviation="2.5141919e-05" />
    </filter>
    <filter
       height="1.0000493"
       y="-2.4640998e-05"
       width="1.0000493"
       x="-2.4640998e-05"
       id="filter871"
       style="color-interpolation-filters:sRGB">
      <feGaussianBlur
         id="feGaussianBlur873"
         stdDeviation="2.5141919e-05" />
    </filter>
    <filter
       height="1.0000493"
       y="-2.4640988e-05"
       width="1.0000493"
       x="-2.4640988e-05"
       id="filter875"
       style="color-interpolation-filters:sRGB">
      <feGaussianBlur
         id="feGaussianBlur877"
         stdDeviation="2.5141919e-05" />
    </filter>
    <filter
       height="1.0000493"
       y="-2.4640988e-05"
       width="1.0000493"
       x="-2.4640998e-05"
       id="filter879"
       style="color-interpolation-filters:sRGB">
      <feGaussianBlur
         id="feGaussianBlur881"
         stdDeviation="2.5141919e-05" />
    </filter>
    <filter
       height="1.0000493"
       y="-2.4640988e-05"
       width="1.0000493"
       x="-2.4640988e-05"
       id="filter883"
       style="color-interpolation-filters:sRGB">
      <feGaussianBlur
         id="feGaussianBlur885"
         stdDeviation="2.5141919e-05" />
    </filter>
    <filter
       height="1.0000051"
       y="-2.5514864e-06"
       width="1.0000051"
       x="-2.5557137e-06"
       id="filter887"
       style="color-interpolation-filters:sRGB">
      <feGaussianBlur
         id="feGaussianBlur889"
         stdDeviation="2.5141919e-05" />
    </filter>
    <filter
       height="1.0000084"
       y="-4.1811465e-06"
       width="1.0000093"
       x="-4.6303819e-06"
       id="filter891"
       style="color-interpolation-filters:sRGB">
      <feGaussianBlur
         id="feGaussianBlur893"
         stdDeviation="2.5141919e-05" />
    </filter>
    <filter
       height="1.0000083"
       y="-4.1720871e-06"
       width="1.0000107"
       x="-5.3524192e-06"
       id="filter895"
       style="color-interpolation-filters:sRGB">
      <feGaussianBlur
         id="feGaussianBlur897"
         stdDeviation="2.5141919e-05" />
    </filter>
    <filter
       height="1.0000084"
       y="-4.1811503e-06"
       width="1.0000086"
       x="-4.306458e-06"
       id="filter899"
       style="color-interpolation-filters:sRGB">
      <feGaussianBlur
         id="feGaussianBlur901"
         stdDeviation="2.5141919e-05" />
    </filter>
    <filter
       height="1.0000031"
       y="-1.5304898e-06"
       width="1.0000031"
       x="-1.5257703e-06"
       id="filter903"
       style="color-interpolation-filters:sRGB">
      <feGaussianBlur
         id="feGaussianBlur905"
         stdDeviation="2.5141919e-05" />
    </filter>
  </defs>
  <metadata
     id="metadata2827">
    <rdf:RDF>
      <cc:Work
         rdf:about="">
        <dc:format>image/svg+xml</dc:format>
        <dc:type
           rdf:resource="http://purl.org/dc/dcmitype/StillImage" />
        <dc:title></dc:title>
      </cc:Work>
    </rdf:RDF>
  </metadata>
  <g
     id="layer1">
    <path
       style="fill:#fbfbfa;stroke-width:0.170544"
       d="M 0,32.000001 V 0 H 32 64 V 32.000001 64 H 32 0 Z"
       id="path11253" />
    <path
       d="M 12.200297,43.204535 H 51.74793 V 3.7788527 H 12.200297 Z"
       style="opacity:1;fill:#ffffff;fill-opacity:1;fill-rule:nonzero;stroke:none;stroke-width:0.527876;filter:url(#filter903)"
       id="path2742" />
    <path
       d="m 16.268382,61.21985 h 3.3778 l 5.317503,-14.43158 h -3.057967 l -3.778166,11.373612 h -0.04027 L 14.32983,46.78827 h -3.3778 l 5.316352,14.43158"
       style="opacity:1;fill:#1b1c20;fill-opacity:1;fill-rule:nonzero;stroke:none;stroke-width:0.527876;filter:url(#filter899)"
       id="path2744" />
    <path
       d="m 29.716303,58.822254 v -3.837988 h 2.418302 c 1.458805,0 2.458568,0.260005 2.458568,1.918997 0,1.658986 -0.999763,1.918991 -2.458568,1.918991 z m 0,-6.236732 v -3.397358 h 2.418302 c 1.298888,0 2.019087,0.538423 2.019087,1.698103 0,1.15853 -0.720199,1.699255 -2.019087,1.699255 z m 2.358478,8.634328 c 2.218118,0.161065 5.816809,-0.878966 5.816809,-3.737898 0,-2.118028 -1.359863,-3.377803 -3.178767,-3.757456 v -0.03912 c 1.439246,-0.480895 2.539102,-1.579602 2.539102,-3.158056 0,-2.818668 -2.639193,-3.898965 -5.217411,-3.739049 H 26.61807 v 14.431575 h 5.456711"
       style="opacity:1;fill:#1b1c20;fill-opacity:1;fill-rule:nonzero;stroke:none;stroke-width:0.527876;filter:url(#filter895)"
       id="path2746" />
    <path
       d="M 53.047969,61.21985 V 46.78827 h -2.898051 v 11.313788 l -0.04027,0.04028 -5.495827,-11.354055 h -4.597305 v 14.43158 h 2.898051 V 49.267547 l 0.03912,-0.04027 5.69716,11.992569 h 4.397121"
       style="opacity:1;fill:#1b1c20;fill-opacity:1;fill-rule:nonzero;stroke:none;stroke-width:0.527876;filter:url(#filter891)"
       id="path2748" />
    <path
       d="m 20.301954,30.206451 9.134784,-9.134785 5.203605,5.203606 -9.130182,9.130182 M 43.912034,16.957562 c -1.226408,-2.179003 -3.038409,-3.9841 -5.223164,-5.201305"
       style="opacity:1;fill:none;stroke:#e60005;stroke-width:0.555679;stroke-linecap:butt;stroke-linejoin:miter;stroke-miterlimit:4;stroke-dasharray:none;stroke-opacity:1;filter:url(#filter887)"
       id="path2750" />
    <path
       d="m 18.962798,32.661568 h 2.44879 v -2.44879 h -2.44879 z"
       style="opacity:1;fill:#ffffff;fill-opacity:1;fill-rule:nonzero;stroke:none;stroke-width:0.527876;filter:url(#filter883)"
       id="path2752" />
    <path
       d="m 17.83073,31.529499 h 2.448789 v -2.44879 H 17.83073 Z"
       style="opacity:1;fill:#ffffff;fill-opacity:1;fill-rule:nonzero;stroke:none;stroke-width:0.527876;filter:url(#filter879)"
       id="path2754" />
    <path
       d="m 23.034335,36.855055 h 2.44879 v -2.44879 h -2.44879 z"
       style="opacity:1;fill:#ffffff;fill-opacity:1;fill-rule:nonzero;stroke:none;stroke-width:0.527876;filter:url(#filter875)"
       id="path2756" />
    <path
       d="m 24.289505,37.896236 h 2.448789 v -2.448789 h -2.448789 z"
       style="opacity:1;fill:#ffffff;fill-opacity:1;fill-rule:nonzero;stroke:none;stroke-width:0.527876;filter:url(#filter871)"
       id="path2758" />
    <path
       d="m 37.513083,11.755107 h 2.44879 V 9.3063173 h -2.44879 z"
       style="opacity:1;fill:#ffffff;fill-opacity:1;fill-rule:nonzero;stroke:none;stroke-width:0.527876;filter:url(#filter867)"
       id="path2760" />
    <path
       d="m 43.909733,18.121844 h 2.44879 v -2.448789 h -2.44879 z"
       style="opacity:1;fill:#ffffff;fill-opacity:1;fill-rule:nonzero;stroke:none;stroke-width:0.527876;filter:url(#filter863)"
       id="path2762" />
    <path
       d="m 32.108144,10.052401 c -7.475797,0 -13.535357,6.059561 -13.535357,13.535358 0,2.404496 0.629311,4.661731 1.729167,6.618692 l 9.134784,-9.134785 5.203605,5.203606 -9.130182,9.130182 c 1.952359,1.092953 4.20154,1.717662 6.597983,1.717662 7.475797,0 13.535357,-6.059561 13.535357,-13.535357 0,-7.475797 -6.05956,-13.535358 -13.535357,-13.535358"
       style="opacity:1;fill:#e30613;fill-opacity:1;fill-rule:nonzero;stroke:none;stroke-width:0.527876;filter:url(#filter859)"
       id="path2764" />
    <path
       d="M 52.871946,2.7641323 H 11.223543 V 44.412536 H 52.871946 Z M 50.44329,41.98388 H 18.164368 V 37.124266 H 13.653349 V 5.1939389 H 45.248888 L 38.66241,11.780417 c 2.176701,1.220656 3.979498,3.025754 5.199003,5.203606 L 50.44329,10.402146 V 41.98388"
       style="opacity:1;fill:#1b1c20;fill-opacity:1;fill-rule:nonzero;stroke:none;stroke-width:0.527876;filter:url(#filter855)"
       id="path2766" />
    <path
       d="M 12.386674,38.12173 29.436738,21.071666 34.640343,26.275272 17.59028,43.325335 12.386674,38.12173"
       style="opacity:1;fill:#1b1c20;fill-opacity:1;fill-rule:nonzero;stroke:none;stroke-width:0.527876;filter:url(#filter851)"
       id="path2768" />
  </g>
</svg>
