<?xml version="1.0" encoding="UTF-8" standalone="no"?>
<!-- Created with Inkscape (http://www.inkscape.org/) -->

<svg
   xmlns:dc="http://purl.org/dc/elements/1.1/"
   xmlns:cc="http://creativecommons.org/ns#"
   xmlns:rdf="http://www.w3.org/1999/02/22-rdf-syntax-ns#"
   xmlns:svg="http://www.w3.org/2000/svg"
   xmlns="http://www.w3.org/2000/svg"
   xmlns:sodipodi="http://sodipodi.sourceforge.net/DTD/sodipodi-0.dtd"
   xmlns:inkscape="http://www.inkscape.org/namespaces/inkscape"
   width="96"
   height="96"
   viewBox="0 0 96.000001 96.000002"
   id="svg4136"
   version="1.1"
   inkscape:version="0.91 r13725"
   inkscape:export-filename="/home/master/network_mvg_logo.png"
   inkscape:export-xdpi="90"
   inkscape:export-ydpi="90"
   sodipodi:docname="network_mvg_logo.svg">
  <defs
     id="defs4138">
    <clipPath
       id="clipPath3470"
       clipPathUnits="userSpaceOnUse">
      <path
         inkscape:connector-curvature="0"
         id="path3472"
         d="m 0,0 937.559,0 0,841.89 L 0,841.89 0,0 Z" />
    </clipPath>
    <clipPath
       id="clipPath3506"
       clipPathUnits="userSpaceOnUse">
      <path
         inkscape:connector-curvature="0"
         id="path3508"
         d="m 1119.766,4.513 39.711,0 0,26.33 -39.711,0 0,-26.33 z" />
    </clipPath>
  </defs>
  <sodipodi:namedview
     id="base"
     pagecolor="#ffffff"
     bordercolor="#666666"
     borderopacity="1.0"
     inkscape:pageopacity="1"
     inkscape:pageshadow="2"
     inkscape:zoom="8.2955266"
     inkscape:cx="27.348121"
     inkscape:cy="55.469045"
     inkscape:document-units="px"
     inkscape:current-layer="layer1"
     showgrid="true"
     units="px"
     inkscape:window-width="1855"
     inkscape:window-height="1056"
     inkscape:window-x="65"
     inkscape:window-y="24"
     inkscape:window-maximized="1"
     showguides="false">
    <inkscape:grid
       type="xygrid"
       id="grid4856" />
  </sodipodi:namedview>
  <metadata
     id="metadata4141">
    <rdf:RDF>
      <cc:Work
         rdf:about="">
        <dc:format>image/svg+xml</dc:format>
        <dc:type
           rdf:resource="http://purl.org/dc/dcmitype/StillImage" />
        <dc:title></dc:title>
        <cc:license
           rdf:resource="http://creativecommons.org/publicdomain/zero/1.0/" />
      </cc:Work>
      <cc:License
         rdf:about="http://creativecommons.org/publicdomain/zero/1.0/">
        <cc:permits
           rdf:resource="http://creativecommons.org/ns#Reproduction" />
        <cc:permits
           rdf:resource="http://creativecommons.org/ns#Distribution" />
        <cc:permits
           rdf:resource="http://creativecommons.org/ns#DerivativeWorks" />
      </cc:License>
    </rdf:RDF>
  </metadata>
  <g
     inkscape:label="Ebene 1"
     inkscape:groupmode="layer"
     id="layer1"
     transform="translate(0,-956.36216)">
    <rect
       style="fill:#ffffff;fill-opacity:1;stroke:#01ffff;stroke-width:0;stroke-linecap:butt;stroke-linejoin:miter;stroke-miterlimit:0;stroke-dasharray:none;stroke-opacity:1"
       id="rect4267"
       width="95.999954"
       height="95.999969"
       x="2.3284263e-05"
       y="956.36218" />
    <path
       inkscape:connector-curvature="0"
       d="m 50.066645,1018.7523 -4.371114,0 -11.933962,-24.3895 -30.9604459,-1.72333 -0.955899,-2.11824 36.3359279,0 9.744814,20.89977 9.360655,-20.89887 36.71291,0 -0.92449,2.11734 -31.250357,1.72333 -11.758039,24.3895 z m -40.2717327,-23.58799 13.9507847,11.49779 2.58048,-10.43598 4.83336,0.34198 10.899076,22.1842 -5.36831,0 -6.971346,-14.142 -2.724096,10.3148 -13.015517,-11.0913 6.521668,14.9185 -5.668091,0 -11.0157599,-23.92636 5.9777512,0.33837 z m 74.6797087,7.29089 c 0,0 -0.43532,-3.12532 -7.3241,-3.21239 -2.67383,-0.035 -5.36651,0.68399 -8.14715,2.57609 -1.610224,1.0968 -4.810024,3.6612 -5.665401,6.9506 -0.538533,2.0644 0.445192,4.3531 1.849873,5.2445 1.799608,1.1408 5.876328,1.3787 9.459388,0.4793 1.79602,-0.4497 4.38727,-1.8158 4.38727,-1.8158 l 1.54291,-3.5992 -4.11262,0 1.4729,-3.5982 9.47105,-0.013 -3.47625,8.3553 c -0.11937,0.2881 -5.06852,3.4143 -8.66684,4.3397 -0.33928,0.085 -8.124717,2.2611 -13.402372,-0.2064 -4.293929,-2.007 -5.508327,-5.9086 -3.941185,-9.6649 1.988095,-4.7652 4.672696,-7.7055 9.57876,-10.35786 3.853227,-2.08234 8.757497,-2.76807 11.223987,-2.76807 9.56441,0 10.82548,4.48423 10.82548,4.48423 l -5.0757,2.8066"
       style="fill:#ed1c24;fill-opacity:1;fill-rule:nonzero;stroke:none"
       id="path3147" />
  </g>
</svg>
