<?xml version="1.0" encoding="UTF-8" standalone="no"?>
<svg
   xmlns:dc="http://purl.org/dc/elements/1.1/"
   xmlns:cc="http://creativecommons.org/ns#"
   xmlns:rdf="http://www.w3.org/1999/02/22-rdf-syntax-ns#"
   xmlns:svg="http://www.w3.org/2000/svg"
   xmlns="http://www.w3.org/2000/svg"
   xmlns:sodipodi="http://sodipodi.sourceforge.net/DTD/sodipodi-0.dtd"
   xmlns:inkscape="http://www.inkscape.org/namespaces/inkscape"
   version="1.1"
   id="svg2"
   viewBox="0 0 100 100"
   width="100"
   height="100"
   inkscape:version="0.91 r13725"
   sodipodi:docname="network_sncb_logo.svg"
   inkscape:export-filename="/home/wardsegers/GitHub/Transportr/art/networks/network_sncb_logo.svg.png"
   inkscape:export-xdpi="86.400002"
   inkscape:export-ydpi="86.400002">
  <metadata
     id="metadata14">
    <rdf:RDF>
      <cc:Work
         rdf:about="">
        <dc:format>image/svg+xml</dc:format>
        <dc:type
           rdf:resource="http://purl.org/dc/dcmitype/StillImage" />
        <dc:title></dc:title>
      </cc:Work>
    </rdf:RDF>
  </metadata>
  <defs
     id="defs12">
    <clipPath
       clipPathUnits="userSpaceOnUse"
       id="clipPath312">
      <path
         d="m 278.259,362.309 265.32,0 0,156.469 -265.32,0 0,-156.469 z"
         id="path314"
         inkscape:connector-curvature="0" />
    </clipPath>
  </defs>
  <sodipodi:namedview
     pagecolor="#ffffff"
     bordercolor="#666666"
     borderopacity="1"
     objecttolerance="10"
     gridtolerance="10"
     guidetolerance="10"
     inkscape:pageopacity="0"
     inkscape:pageshadow="2"
     inkscape:window-width="1920"
     inkscape:window-height="2031"
     id="namedview10"
     showgrid="false"
     inkscape:zoom="9.44"
     inkscape:cx="53.328767"
     inkscape:cy="55.081125"
     inkscape:window-x="1920"
     inkscape:window-y="55"
     inkscape:window-maximized="0"
     inkscape:current-layer="svg2" />
  <path
     d="m 0,0 0,100 100,0 0,-100 z"
     style="fill:#233366"
     id="path3" />
  <g
     style="fill:#ffffff;fill-opacity:1"
     transform="matrix(0.35932577,0,0,0.35932577,7.7628085,15.190491)"
     id="g3284">
    <path
       style="fill:#ffffff"
       d="M 59.878,76.239 C 28.446,76.239 2.965,59.617 2.965,39.08 2.965,18.542 28.446,1.903 59.878,1.903 c 31.437,0 56.904,16.64 56.904,37.177 0,20.537 -25.468,37.159 -56.904,37.159 M 106.999,39.08 c 0,-18.363 -21.079,-33.227 -47.121,-33.227 -26.014,0 -47.127,14.864 -47.127,33.227 0,18.35 21.114,33.252 47.127,33.252 26.042,0 47.121,-14.902 47.121,-33.252"
       id="path6"
       inkscape:connector-curvature="0" />
    <path
       style="fill:#ffffff"
       d="m 59.194,13.719 c 14.673,0 23.928,6.899 23.928,13.785 0,5.712 -3.852,8.64 -4.926,9.164 -2.292,1.178 -0.4,1.341 0.391,1.625 0.799,0.279 7.841,3.713 7.841,10.5 0,9.203 -10.674,16.167 -27.083,16.167 -11.634,0 -20.574,-5.55 -23.646,-7.557 -1.531,-1.006 -1.25,-1.453 -0.788,-1.917 0.466,-0.481 1.726,-1.982 2.394,-2.795 0.675,-0.808 0.929,-0.412 1.401,-0.21 0.467,0.21 1.496,0.464 1.496,-0.933 l 0,-24.804 c 0,-1.354 -0.516,-1.414 -1.109,-0.998 -0.595,0.396 -1.321,1.397 -2.258,0.396 -0.916,-1.006 -1.333,-1.405 -1.995,-2.261 -0.672,-0.886 -0.567,-1.35 0.411,-2.141 3.12,-2.459 11.28,-8.021 23.943,-8.021 m -6.082,8.632 0,11.485 c 0,1.268 0.585,1.328 1.117,1.328 l 5.771,0 c 1.218,0 7.9,-1.122 7.9,-7.785 0,-6.619 -6.48,-7.556 -7.417,-7.556 l -4.397,0 c -1.311,0 -2.974,0.628 -2.974,2.528 m 3.578,36.317 5.432,0 c 1.135,0 9.209,-1.105 9.209,-8.833 0,-7.725 -8.303,-9.031 -9.793,-9.031 l -7.153,0 c -0.653,0 -1.393,0.215 -1.393,1.672 l 0,13.708 c 0,2.226 2.048,2.484 3.698,2.484"
       id="path8"
       inkscape:connector-curvature="0" />
  </g>
  <g
     id="g3297"
     transform="matrix(0.4473008,0,0,0.4473008,52.381996,8.97708)">
    <path
       style="fill:#ffffff;fill-opacity:1"
       d="m 50.828,41.993 2.484,-13.995 -7.571,0 -1.119,6.277 -2.394,-6.281 -7.207,0 -2.486,13.999 7.207,0 1.099,-6.225 2.414,6.225 z"
       id="polygon3299" />
    <path
       style="fill:#ffffff;fill-opacity:1"
       d="m 8.393,38.552 1.866,-10.554 -7.787,0 L 0,42.001 l 12.159,0 0.61,-3.449 z"
       id="polygon3301" />
    <path
       style="fill:#ffffff;fill-opacity:1"
       d="m 12.9,37.796 7.912,0 1.743,-9.792 -7.912,0 z"
       id="polygon3303" />
    <path
       id="path3305"
       d="M 44.505,34.437"
       inkscape:connector-curvature="0"
       style="fill:#4f5556" />
    <path
       id="path3307"
       d="m 23.088,37.492 c -0.139,0.801 -0.451,1.06 -1.049,1.06 l -1.362,-0.005 -0.609,3.454 5.547,0 c 2.988,0 4.671,-1.579 5.305,-5.163 l 1.567,-8.834 -7.721,10e-4 -1.678,9.487 z"
       inkscape:connector-curvature="0"
       style="fill:#ffffff;fill-opacity:1" />
    <g
       id="g3309">
      <path
         style="fill:#ffdd00"
         d="M 26.214,19.826 83.283,19.825 86.8,0 29.726,0 Z"
         id="polygon3311" />
      <path
         style="fill:#ffdd00"
         d="m 78.953,44.33 -57.079,0 -7.019,39.67 57.071,0 z"
         id="polygon3313" />
    </g>
    <path
       style="fill:#ffffff;fill-opacity:1"
       d="m 23.564,22.166 -2.857,0 -0.621,3.491 2.863,0 0.163,-0.919 -1.143,-0.001 0.087,-0.528 0.637,0 0.121,-0.687 -0.639,0 0.097,-0.478 1.145,0 z"
       id="polygon3315" />
    <path
       id="path3317"
       d="m 17.196,24.721 -0.248,0 0.288,-1.662 0.248,0 c 0,0 0.273,-0.017 0.471,0.042 0.172,0.049 0.385,0.327 0.305,0.775 -0.1,0.566 -0.389,0.767 -0.661,0.823 -0.131,0.031 -0.403,0.022 -0.403,0.022 z m 1.473,0.888 c 0.578,-0.124 1.171,-0.521 1.387,-1.729 0.172,-0.951 -0.265,-1.454 -0.618,-1.597 -0.283,-0.114 -0.752,-0.117 -1.015,-0.117 l -2.753,-0.001 -0.614,3.492 c 0,0 2.547,0 2.759,0 0.211,0 0.569,0.01 0.854,-0.048 z"
       inkscape:connector-curvature="0"
       style="fill:#ffffff;fill-opacity:1" />
    <g
       id="g3319">
      <path
         style="fill:#000099"
         d="m 43.695,22.167 -0.618,3.496 10.639,0 0.62,-3.496 z"
         id="polygon3321" />
      <path
         style="fill:#000099"
         d="m 25.797,22.167 -0.617,3.496 17.42,0 0.617,-3.496 z"
         id="polygon3323" />
      <path
         style="fill:#000099"
         d="m 54.837,22.167 -0.62,3.496 6.31,0 0.621,-3.496 z"
         id="polygon3325" />
      <path
         style="fill:#000099"
         d="m 61.715,22.167 -0.621,3.496 3.718,0 0.622,-3.496 z"
         id="polygon3327" />
      <path
         style="fill:#000099"
         d="m 66.09,22.167 -0.613,3.496 2.285,0 0.616,-3.496 z"
         id="polygon3329" />
      <path
         style="fill:#000099"
         d="m 69.126,22.167 -0.614,3.496 1.413,0 0.621,-3.496 z"
         id="polygon3331" />
      <path
         style="fill:#000099"
         d="m 71.418,22.167 -0.618,3.496 0.809,0 0.621,-3.496 z"
         id="polygon3333" />
      <path
         style="fill:#000099"
         d="m 73.279,22.167 -0.62,3.496 0.627,0 0.622,-3.496 z"
         id="polygon3335" />
      <path
         style="fill:#000099"
         d="m 74.98,22.167 -0.613,3.496 0.385,0 0.622,-3.496 z"
         id="polygon3337" />
      <path
         style="fill:#000099"
         d="m 76.706,22.167 -0.619,3.496 0.304,0 0.619,-3.496 z"
         id="polygon3339" />
      <path
         style="fill:#000099"
         d="m 78.458,22.167 -0.617,3.496 0.274,0 0.621,-3.496 z"
         id="polygon3341" />
      <path
         style="fill:#000099"
         d="m 80.426,22.167 -0.619,3.496 0.214,0 0.62,-3.496 z"
         id="polygon3343" />
      <path
         style="fill:#000099"
         d="m 82.702,22.167 -0.614,3.496 0.167,0 0.615,-3.496 z"
         id="polygon3345" />
    </g>
  </g>
  <g
     id="g308"
     transform="matrix(0.34940244,0,0,-0.34940244,-94.402831,225.89556)">
    <g
       id="g310"
       clip-path="url(#clipPath312)">
      <g
         id="g316"
         transform="translate(363.6472,402.4658)">
        <path
           d="m 0,0 c -1.691,0 -2.648,0.958 -2.648,2.486 0,1.689 1.021,2.39 2.552,2.39 2.195,0 2.767,-0.86 2.767,-2.39 C 2.671,0.767 1.624,0 0,0"
           style="fill:#ffffff;fill-opacity:1;fill-rule:nonzero;stroke:none"
           id="path318"
           inkscape:connector-curvature="0" />
      </g>
      <g
         id="g320"
         transform="translate(381.3988,411.1341)">
        <path
           d="m 0,0 c 0,3.442 -1.434,4.625 -3.73,4.625 -2.262,0 -3.954,-1.183 -3.954,-4.849 0,-3.123 1.53,-5.002 3.76,-5.002 C -1.566,-5.226 0,-3.377 0,0 m -7.458,9.689 c 0,-1.623 -0.066,-2.137 -0.066,-2.679 0,-0.57 0.066,-0.698 0.316,-0.698 0.544,0 1.185,2.294 5.199,2.294 4.042,0 6.594,-2.902 6.594,-8.505 0,-5.134 -2.615,-8.739 -6.854,-8.739 -4.998,0 -4.967,2.997 -5.575,2.997 -0.285,0 -0.252,-0.22 -0.509,-1.529 -0.19,-0.989 -0.825,-1.243 -1.913,-1.243 -1.398,0 -1.813,0.575 -1.813,1.623 0,2.522 -0.031,8.832 -0.031,19.764 0,1.208 0.572,1.781 2.385,1.781 2.013,0 2.267,-0.669 2.267,-1.781 l 0,-3.285 z"
           style="fill:#ffffff;fill-opacity:1;fill-rule:nonzero;stroke:none"
           id="path322"
           inkscape:connector-curvature="0" />
      </g>
      <g
         id="g324"
         transform="translate(392.487,404.3443)">
        <path
           d="m 0,0 c 0,-1.141 -0.446,-1.688 -2.262,-1.688 -1.69,0 -2.293,0.51 -2.293,1.688 0,8.446 0.123,12.367 0.123,13.454 0,1.048 0.418,1.402 1.755,1.402 1.334,0 1.658,-0.354 1.85,-1.566 0.159,-1.084 0.252,-1.237 0.474,-1.237 0.546,0 1.117,2.803 4.401,2.803 1.308,0 1.876,-0.48 1.876,-1.884 0,-1.176 -0.222,-2.231 -1.844,-2.231 C 1.4,10.741 0,9.152 0,5.932 L 0,0 Z"
           style="fill:#ffffff;fill-opacity:1;fill-rule:nonzero;stroke:none"
           id="path326"
           inkscape:connector-curvature="0" />
      </g>
      <g
         id="g328"
         transform="translate(413.3329,402.7213)">
        <path
           d="m 0,0 c -1.408,0 -1.823,0.575 -2.044,1.561 -0.159,0.703 -0.159,1.306 -0.442,1.306 -0.546,0 -0.707,-3.283 -5.264,-3.283 -3.727,0 -5.544,2.331 -5.544,7.012 0,5.103 -0.031,2.742 -0.031,8.381 0,1.054 0.444,1.599 2.263,1.599 1.625,0 2.295,-0.291 2.295,-1.534 0,-0.571 -0.064,-5.734 -0.064,-7.361 0,-2.807 1.054,-4.207 2.899,-4.207 2.26,0 3.38,1.752 3.38,5.256 0,3.952 -0.069,5.322 -0.069,6.343 0,0.99 0.577,1.405 2.266,1.405 C 1.27,16.478 2,16.189 2,15.011 2,13.1 1.907,2.772 1.907,1.69 1.907,0.634 1.334,0 0,0"
           style="fill:#ffffff;fill-opacity:1;fill-rule:nonzero;stroke:none"
           id="path330"
           inkscape:connector-curvature="0" />
      </g>
      <g
         id="g332"
         transform="translate(425.026,405.5876)">
        <path
           d="m 0,0 c 2.23,0 2.834,0.799 2.834,1.595 0,1.115 -1.012,1.373 -4.684,1.976 -4.584,0.765 -5.543,2.775 -5.543,5.004 0,3.696 3.504,5.382 7.106,5.382 4.906,0 6.979,-2.132 6.979,-4.427 0,-1.083 -0.762,-1.656 -2.073,-1.656 -0.889,0 -1.404,0.573 -1.65,1.019 -0.739,1.247 -1.758,1.726 -3.289,1.726 -1.816,0 -2.836,-0.576 -2.836,-1.726 0,-1.212 0.541,-1.783 4.144,-2.42 5.287,-0.927 6.246,-2.423 6.246,-4.691 0,-2.734 -2.36,-5.064 -7.683,-5.064 -5.255,0 -7.134,2.742 -7.134,4.334 0,1.148 0.475,1.692 1.593,1.692 C -3.953,2.744 -4.27,0 0,0"
           style="fill:#ffffff;fill-opacity:1;fill-rule:nonzero;stroke:none"
           id="path334"
           inkscape:connector-curvature="0" />
      </g>
      <g
         id="g336"
         transform="translate(441.499,405.5876)">
        <path
           d="m 0,0 c 2.233,0 2.843,0.799 2.843,1.595 0,1.115 -1.024,1.373 -4.69,1.976 -4.589,0.765 -5.54,2.775 -5.54,5.004 0,3.696 3.504,5.382 7.105,5.382 4.904,0 6.978,-2.132 6.978,-4.427 0,-1.083 -0.764,-1.656 -2.074,-1.656 -0.891,0 -1.399,0.573 -1.654,1.019 -0.735,1.247 -1.754,1.726 -3.285,1.726 -1.815,0 -2.833,-0.576 -2.833,-1.726 0,-1.212 0.539,-1.783 4.139,-2.42 5.289,-0.927 6.247,-2.423 6.247,-4.691 0,-2.734 -2.359,-5.064 -7.679,-5.064 -5.262,0 -7.139,2.742 -7.139,4.334 0,1.148 0.478,1.692 1.596,1.692 C -3.949,2.744 -4.268,0 0,0"
           style="fill:#ffffff;fill-opacity:1;fill-rule:nonzero;stroke:none"
           id="path338"
           inkscape:connector-curvature="0" />
      </g>
      <g
         id="g340"
         transform="translate(461.7982,412.7607)">
        <path
           d="m 0,0 c 0.61,0 0.799,0.226 0.799,0.736 0,1.18 -1.113,2.767 -3.823,2.767 -2.807,0 -3.918,-1.721 -3.918,-2.833 C -6.942,0.194 -6.816,0 -6.241,0 L 0,0 Z m -3.182,-10.424 c -5.068,0 -8.228,3.445 -8.228,8.894 0,4.876 2.966,8.346 8.26,8.346 4.967,0 7.805,-2.447 7.805,-6.816 0,-1.913 -0.603,-2.293 -1.845,-2.293 -0.895,0 -8.384,0.032 -9.116,0.032 -0.702,0 -0.769,-0.32 -0.769,-0.83 0,-2.167 1.658,-3.792 4.08,-3.792 3.981,0 3.251,2.58 5.58,2.58 0.83,0 1.593,-0.576 1.593,-1.654 0,-1.597 -1.975,-4.467 -7.36,-4.467"
           style="fill:#ffffff;fill-opacity:1;fill-rule:nonzero;stroke:none"
           id="path342"
           inkscape:connector-curvature="0" />
      </g>
      <g
         id="g344"
         transform="translate(468.6841,424.1724)">
        <path
           d="m 0,0 c 0,1.114 0.607,1.717 2.269,1.717 1.523,0 2.163,-0.38 2.163,-1.785 0,-1.88 -0.129,-15.963 -0.129,-17.526 0,-0.606 0.129,-0.832 0.541,-0.832 0.228,0 0.381,0.066 0.731,0.066 0.831,0 1.248,-0.508 1.248,-1.468 0,-1.335 -0.926,-2.04 -2.864,-2.04 -2.68,0 -3.959,1.63 -3.959,4.05 L 0,0 Z"
           style="fill:#ffffff;fill-opacity:1;fill-rule:nonzero;stroke:none"
           id="path346"
           inkscape:connector-curvature="0" />
      </g>
      <g
         id="g348"
         transform="translate(483.7638,405.5876)">
        <path
           d="m 0,0 c 2.228,0 2.836,0.799 2.836,1.595 0,1.115 -1.024,1.373 -4.685,1.976 -4.589,0.765 -5.548,2.775 -5.548,5.004 0,3.696 3.504,5.382 7.109,5.382 4.906,0 6.977,-2.132 6.977,-4.427 0,-1.083 -0.768,-1.656 -2.071,-1.656 -0.892,0 -1.404,0.573 -1.66,1.019 -0.73,1.247 -1.751,1.726 -3.282,1.726 -1.813,0 -2.833,-0.576 -2.833,-1.726 0,-1.212 0.541,-1.783 4.143,-2.42 5.286,-0.927 6.242,-2.423 6.242,-4.691 0,-2.734 -2.354,-5.064 -7.676,-5.064 -5.264,0 -7.138,2.742 -7.138,4.334 0,1.148 0.475,1.692 1.596,1.692 C -3.959,2.744 -4.273,0 0,0"
           style="fill:#ffffff;fill-opacity:1;fill-rule:nonzero;stroke:none"
           id="path350"
           inkscape:connector-curvature="0" />
      </g>
      <g
         id="g352"
         transform="translate(501.7498,414.9087)">
        <path
           d="m 0,0 c -2.983,0 -5.944,-2.242 -5.944,-6.005 0,-3.639 3.372,-5.905 6.308,-5.905 3.224,0 4.776,1.012 7.497,0.458 2.125,-0.429 3.276,-1.466 3.841,-2.008 0.276,-0.264 0.62,-0.294 0.856,-0.137 0.239,0.158 0.396,0.453 0.239,1.152 -0.372,1.644 -1.245,3.473 -2.26,5.046 C 8.543,-4.324 4.5,0 0,0"
           style="fill:#ffffff;fill-opacity:1;fill-rule:nonzero;stroke:none"
           id="path354"
           inkscape:connector-curvature="0" />
      </g>
      <g
         id="g356"
         transform="translate(529.3264,414.9087)">
        <path
           d="m 0,0 c 2.981,0 5.939,-2.242 5.939,-6.005 0,-3.639 -3.372,-5.905 -6.3,-5.905 -3.225,0 -4.783,1.012 -7.503,0.458 -2.12,-0.429 -3.268,-1.466 -3.843,-2.008 -0.271,-0.264 -0.617,-0.294 -0.851,-0.137 -0.241,0.158 -0.398,0.453 -0.241,1.152 0.373,1.644 1.249,3.473 2.259,5.046 C -8.548,-4.324 -4.502,0 0,0"
           style="fill:#ffffff;fill-opacity:1;fill-rule:nonzero;stroke:none"
           id="path358"
           inkscape:connector-curvature="0" />
      </g>
      <g
         id="g360"
         transform="translate(522.5412,416.7416)">
        <path
           d="m 0,0 c -2.093,-2.858 -4.936,-3.775 -7.001,-8.258 -2.073,4.483 -4.913,5.4 -7.005,8.258 -0.534,0.733 -0.827,1.531 -0.827,2.396 0,2.3 1.857,4.199 4.158,4.199 1.994,0 3.236,-1.507 3.674,-2.576 0.429,1.069 1.677,2.576 3.676,2.576 2.299,0 4.154,-1.899 4.154,-4.199 C 0.829,1.531 0.536,0.733 0,0 m -3.19,8.311 c -1.664,0 -3.044,-0.695 -3.811,-1.716 -0.775,1.021 -2.151,1.716 -3.813,1.716 -3.014,0 -5.782,-2.395 -5.782,-5.876 0,-1.528 0.614,-2.691 1.17,-3.496 0.635,-0.924 1.464,-1.719 2.774,-2.859 1.899,-1.649 3.46,-3.256 4.953,-6.405 0.117,-0.251 0.368,-0.536 0.698,-0.536 0.322,0 0.576,0.285 0.691,0.536 1.493,3.149 3.057,4.756 4.955,6.405 1.308,1.14 2.142,1.935 2.778,2.859 0.551,0.805 1.167,1.968 1.167,3.496 0,3.481 -2.765,5.876 -5.78,5.876"
           style="fill:#ffffff;fill-opacity:1;fill-rule:nonzero;stroke:none"
           id="path362"
           inkscape:connector-curvature="0" />
      </g>
      <g
         id="g364"
         transform="translate(292.4898,402.1868)">
        <path
           d="M 0,0 55.624,-11.999 75.278,79.002 19.661,91.01 0,0 Z"
           style="fill:#ffffff;fill-opacity:1;fill-rule:nonzero;stroke:none"
           id="path366"
           inkscape:connector-curvature="0" />
      </g>
      <g
         id="g368"
         transform="translate(332.5023,472.5169)">
        <path
           d="m 0,0 c -1.438,0 -2.942,0.406 -4.199,1.132 l 0.79,1.624 c 1.176,-0.681 2.211,-1.028 3.463,-1.028 1.589,0 2.527,0.731 2.527,1.996 0,0.969 -0.608,1.526 -1.903,1.904 L -0.706,6.042 C -1.86,6.338 -2.684,6.875 -3.12,7.55 c -0.343,0.525 -0.59,1.112 -0.59,1.871 0,2.229 1.777,3.786 4.359,3.786 1.429,0 2.865,-0.468 4.039,-1.23 L 3.725,10.476 C 2.532,11.177 1.73,11.45 0.724,11.45 c -1.248,0 -2.081,-0.681 -2.081,-1.702 0,-0.824 0.441,-1.205 1.653,-1.588 L 1.822,7.711 C 3.694,7.194 4.958,6.016 4.958,4.078 4.958,1.957 3.26,0 0,0 m -12.824,-9.725 -12.788,0 0,2.142 12.788,0 0,-2.142 z m 0,-5.053 -7.946,-0.594 c -0.764,-0.086 -1.73,-0.086 -2.148,-0.086 0.434,-0.088 1.175,-0.258 1.96,-0.496 l 8.134,-2.356 0,-1.789 -7.744,-2.109 c -0.86,-0.243 -1.932,-0.466 -2.35,-0.56 0.418,0 1.559,-0.088 2.396,-0.147 l 7.698,-0.492 0,-2.118 -12.789,1.163 0,2.83 7.228,1.953 c 1.086,0.272 1.766,0.395 2.117,0.463 -0.351,0.078 -1.178,0.227 -2.099,0.494 l -7.246,1.956 0,2.853 12.789,1.089 0,-2.054 z M 29.182,9.451 C 29.058,8.306 28.27,7.426 27.054,7.075 c 2.087,-0.511 2.682,-1.94 2.682,-3.242 0,-2.517 -1.781,-3.604 -5.011,-3.604 l -3.672,0 0,10.984 -2.931,0.648 0,-11.632 -2.202,0 0,12.107 -1.5,0.312 -0.237,-1.435 -3.222,0 0,-10.984 -2.094,0 0,10.984 -3.226,0 0,1.763 7.283,0 -32.879,7.086 -1.221,-5.852 c 0.696,-0.324 1.221,-0.966 1.497,-1.918 0.535,2.128 1.963,2.742 3.22,2.742 2.522,0 3.635,-1.76 3.635,-5.002 l 0,-3.694 -10.094,0 -0.489,-2.41 10.62,-3.638 0,-1.964 -12.772,-4.295 -13.833,-63.966 57.157,0 16.886,78.208 -5.469,1.178 z m -44.974,-10.16 0,0.06 c 0,0 -0.778,0.149 -2.684,0.761 l -5.405,1.766 -1.149,-5.346 6.645,2.117 c 1.64,0.501 2.593,0.642 2.593,0.642 m 40.782,6.751 -1.854,0 0,-4.058 1.949,0 c 1.609,0 2.315,0.94 2.315,2.064 0,0.909 -0.519,1.656 -1.2,1.849 -0.329,0.119 -0.594,0.145 -1.21,0.145 m -41.678,6.64 c -0.887,0 -1.652,-0.526 -1.842,-1.205 -0.095,-0.3 -0.095,-0.588 -0.095,-1.167 l 0,-1.858 4.028,0 0,1.9 c 0,1.625 -0.909,2.33 -2.091,2.33 M 26.456,8.248 c 0.425,0.414 0.526,0.949 0.526,1.302 0,0.135 -0.029,0.258 -0.052,0.405 l -3.83,0.814 0,-2.983 1.795,0 c 0.797,0 1.185,0.054 1.561,0.462 m -46.851,1.969 c 0,0.733 -0.039,1.147 -0.487,1.554 -0.236,0.23 -0.506,0.385 -0.778,0.443 l -0.788,-3.783 2.053,0 0,1.786 z"
           style="fill:#1575c5;fill-opacity:1;fill-rule:nonzero;stroke:none"
           id="path370"
           inkscape:connector-curvature="0" />
      </g>
      <g
         id="g372"
         transform="translate(293.1103,402.5817)">
        <path
           d="M 0,0 54.604,-11.78 57.156,0 0,0 Z"
           style="fill:#ef2b3e;fill-opacity:1;fill-rule:nonzero;stroke:none"
           id="path374"
           inkscape:connector-curvature="0" />
      </g>
    </g>
  </g>
  <g
     id="g3464"
     transform="matrix(1.3783678,0,0,1.3783678,-23.703012,-21.355649)">
    <path
       inkscape:connector-curvature="0"
       id="path30"
       style="fill:#ef3e42;fill-opacity:1;fill-rule:nonzero;stroke:none"
       d="m 57.17018,67.883296 2.645641,-14.131177 7.817899,0 -0.586581,2.355363 -5.247087,0 -1.70902,9.430996 5.303837,0 -0.587586,2.355364 -7.637103,-0.01055" />
    <path
       inkscape:connector-curvature="0"
       id="path34"
       style="fill:#ffd51f;fill-opacity:1;fill-rule:nonzero;stroke:none"
       d="m 43.514596,59.763067 41.958115,0 -0.749297,3.005725 -41.958115,0 0.749297,-3.005725" />
    <path
       inkscape:connector-curvature="0"
       id="path38"
       style="fill:#ef3e42;fill-opacity:1;fill-rule:nonzero;stroke:none"
       d="m 62.742197,58.676787 2.662214,0 -0.585074,3.212133 -2.707915,0 0.630775,-3.212133" />
    <path
       inkscape:connector-curvature="0"
       id="path42"
       style="fill:#ef3e42;fill-opacity:1;fill-rule:nonzero;stroke:none"
       d="m 49.562205,53.752119 8.99307,0 -0.587586,2.355363 -3.298513,0 -2.121334,11.775814 -2.508035,0 2.120831,-11.775814 -3.186018,0 0.587585,-2.355363" />
    <path
       inkscape:connector-curvature="0"
       id="path46"
       style="fill:#ef3e42;fill-opacity:1;fill-rule:nonzero;stroke:none"
       d="m 77.277653,64.103665 2.026416,1.142025 c -1.615609,1.745681 -3.857473,2.873142 -6.425773,2.873142 -4.37274,0 -7.191643,-4.112595 -6.187224,-8.140819 1.00442,-4.028727 4.516372,-6.447871 8.890116,-6.447871 2.234834,0 3.813279,0.852752 4.911109,2.224287 l -1.909401,1.498594 c -0.728706,-0.938128 -2.096223,-1.145541 -3.607875,-1.145541 -2.915327,0 -5.257131,1.612596 -5.927079,4.298413 -0.669445,2.685316 1.209823,5.426878 4.125151,5.426878 1.620128,0 3.044395,-0.671956 4.10456,-1.729108" />
  </g>
</svg>
