<?xml version="1.0" encoding="UTF-8" standalone="no"?>
<svg
   xmlns:dc="http://purl.org/dc/elements/1.1/"
   xmlns:cc="http://creativecommons.org/ns#"
   xmlns:rdf="http://www.w3.org/1999/02/22-rdf-syntax-ns#"
   xmlns:svg="http://www.w3.org/2000/svg"
   xmlns="http://www.w3.org/2000/svg"
   id="svg911"
   version="1.1"
   viewBox="0 0 16.933333 16.933333"
   height="64"
   width="64">
  <defs
     id="defs905" />
  <metadata
     id="metadata908">
    <rdf:RDF>
      <cc:Work
         rdf:about="">
        <dc:format>image/svg+xml</dc:format>
        <dc:type
           rdf:resource="http://purl.org/dc/dcmitype/StillImage" />
        <dc:title></dc:title>
      </cc:Work>
    </rdf:RDF>
  </metadata>
  <g
     id="layer1">
    <path
       style="fill:#0069aa;stroke-width:0.0451231;fill-opacity:1"
       d="M 0,8.4666665 V 0 H 8.4666665 16.933333 V 8.4666665 16.933333 H 8.4666665 0 Z"
       id="path11253" />
    <path
       style="fill:#ffffff;fill-opacity:1;stroke-width:0.0350517"
       d="M 5.6108246,9.8440075 C 6.1102221,8.8991938 6.054643,8.9251506 6.1724155,9.5817297 l 0.07702,0.4293843 h 0.2755472 c 0.1515508,0 0.2760236,-0.01183 0.2766059,-0.02629 C 6.806667,9.8590629 6.3189089,7.592646 6.2867674,7.5926008 6.2644581,7.5925688 6.067799,7.9225897 5.8497489,8.3259806 5.6316994,8.7293713 5.4431015,9.0531179 5.4306432,9.0454182 5.4181842,9.0377188 5.2215801,8.7076714 4.993745,8.3119806 4.7659085,7.91629 4.5626554,7.5925535 4.5420693,7.5925667 c -0.029141,1.88e-5 -0.2785691,1.1574391 -0.500439,2.3221552 -0.018365,0.09639 -0.018365,0.09639 0.246127,0.09639 0.2991184,0 0.2486592,0.08763 0.3994155,-0.6936463 L 4.7500038,8.9918637 4.957158,9.352518 C 5.4594467,10.227 5.4229101,10.199529 5.6108264,9.8440081 Z m 9.5598904,0.1372194 c 1.146269,-0.5962078 0.744953,-2.3711585 -0.536117,-2.3711585 -1.348867,0 -1.674499,1.9514313 -0.404752,2.4255696 0.200143,0.07474 0.754171,0.0427 0.940869,-0.054411 z M 14.508885,9.5219405 C 13.961376,9.3560177 13.882151,8.5269571 14.384531,8.2206201 c 0.312557,-0.190587 0.709696,0.02119 0.817245,0.435801 0.12975,0.5001993 -0.266221,0.9948222 -0.692891,0.8655194 z M 1.5506431,9.5629487 C 1.0745001,9.5501071 1.0870934,9.5436655 1.0870934,9.8001478 V 10.012005 L 1.5045755,9.7924846 1.9220575,9.5729639 Z m 1.4148101,0.04048 c -0.01417,-0.036925 -0.1136758,-0.047832 -0.4313755,-0.04729 l -0.4129576,6.956e-4 0.4206208,0.2250094 0.4206208,0.2250093 0.010755,-0.1777181 c 0.00591,-0.097746 0.00243,-0.1993158 -0.00767,-0.225712 z M 8.7634281,9.748225 V 9.4853365 H 8.3077552 7.8520823 V 9.2750263 9.0647158 H 8.2376517 8.6232211 V 8.8193535 8.5739912 H 8.2376517 c -0.3855694,0 -0.3855694,0 -0.3855694,-0.1917376 0,-0.1917374 0,-0.1917374 0.4469106,-0.2015473 L 8.745902,8.1708963 8.756204,7.9167713 8.766499,7.6626458 H 8.028877 7.291254 v 1.174234 1.1742342 H 8.027341 8.7634278 Z M 10.375809,9.0997676 V 8.1884215 h 0.368043 0.368043 V 7.9255337 7.6626451 H 10.077868 9.043842 v 0.2628886 0.2628878 h 0.3680441 0.3680433 v 0.9113461 0.9113454 h 0.2979386 0.297941 z m 1.655177,0.44691 0.0098,-0.4644359 0.315466,0.4631142 0.315465,0.4631151 0.343823,0.0013 c 0.266091,10e-4 0.337828,-0.0086 0.317306,-0.0425 C 13.318232,9.9431919 13.174981,9.7384846 13.014478,9.5123824 12.664633,9.0195518 12.661244,9.0120433 12.763914,8.9570961 13.149779,8.7505869 13.180201,8.0910164 12.815252,7.8440822 12.610062,7.7052463 12.398074,7.6626389 11.912509,7.6626389 h -0.450101 v 1.1742339 1.1742342 h 0.279396 0.279398 z m -0.0077,-1.114577 c 0,-0.3233111 0,-0.3233111 0.164218,-0.3008025 0.486412,0.06667 0.474861,0.5212606 -0.01525,0.6001382 -0.14897,0.023975 -0.14897,0.023975 -0.14897,-0.2993357 z M 2.8747336,9.1172934 V 8.7843018 H 2.0334913 1.1922489 v 0.3329916 0.3329917 h 0.8412424 0.8412423 z m -1.4371222,0 c 0,-0.1479962 0.012216,-0.1927846 0.052577,-0.1927846 0.040361,0 0.052577,0.044788 0.052577,0.1927846 0,0.1479962 -0.012215,0.1927847 -0.052577,0.1927847 -0.040361,0 -0.052577,-0.044788 -0.052577,-0.1927847 z m 0.2804139,0 c 0,-0.1479962 0.012215,-0.1927846 0.052577,-0.1927846 0.040361,0 0.052577,0.044788 0.052577,0.1927846 0,0.1479962 -0.012215,0.1927847 -0.052577,0.1927847 -0.040361,0 -0.052577,-0.044788 -0.052577,-0.1927847 z m 0.2804139,0 c 0,-0.1060315 0.01577,-0.1927846 0.035054,-0.1927846 0.019276,0 0.035053,0.086753 0.035053,0.1927846 0,0.1060316 -0.01577,0.1927847 -0.035053,0.1927847 -0.019276,0 -0.035054,-0.086753 -0.035054,-0.1927847 z m 0.2453625,0 c 0,-0.1479962 0.012215,-0.1927846 0.052577,-0.1927846 0.040361,0 0.052577,0.044788 0.052577,0.1927846 0,0.1479962 -0.012216,0.1927847 -0.052577,0.1927847 -0.040361,0 -0.052577,-0.044788 -0.052577,-0.1927847 z m 0.2804139,0 c 0,-0.1060315 0.01577,-0.1927846 0.035053,-0.1927846 0.019276,0 0.035054,0.086753 0.035054,0.1927846 0,0.1060316 -0.01577,0.1927847 -0.035054,0.1927847 -0.019276,0 -0.035053,-0.086753 -0.035053,-0.1927847 z M 2.8046301,8.5038873 V 8.3286289 H 2.0334913 1.2623524 v 0.1752584 0.1752592 h 0.7711389 0.7711388 z m -1.3589861,0.02848 c 0.021662,-0.064994 0.097123,-0.075773 0.097123,-0.013875 0,0.030523 -0.024974,0.055498 -0.055498,0.055498 -0.030525,0 -0.049259,-0.018731 -0.04162,-0.041624 z m 0.2723813,-0.013875 c 0,-0.061899 0.075458,-0.051119 0.097123,0.013875 0.00763,0.022893 -0.011103,0.041624 -0.041627,0.041624 -0.030525,0 -0.055499,-0.024975 -0.055499,-0.055498 z m 0.2804139,0.00292 c 0,-0.028918 0.01577,-0.052577 0.035054,-0.052577 0.019276,0 0.035053,0.02366 0.035053,0.052577 0,0.028918 -0.01577,0.052577 -0.035053,0.052577 -0.019276,0 -0.035054,-0.02366 -0.035054,-0.052577 z m 0.252081,0.014897 c 0.00689,-0.020725 0.027548,-0.037681 0.045857,-0.037681 0.018316,0 0.038949,0.016956 0.045857,0.037681 0.00689,0.020725 -0.013725,0.037681 -0.045857,0.037681 -0.032132,0 -0.052764,-0.016956 -0.045857,-0.037681 z m 0.2736954,-0.014894 c 0,-0.028918 0.01577,-0.052577 0.035053,-0.052577 0.019276,0 0.035054,0.02366 0.035054,0.052577 0,0.028918 -0.01577,0.052577 -0.035054,0.052577 -0.019276,0 -0.035053,-0.02366 -0.035053,-0.052577 z M 2.73411,8.1621349 C 2.73181,7.8183315 2.4686824,7.3873637 2.2235745,7.3258459 c -0.052424,-0.013155 -0.084928,-0.046692 -0.084928,-0.087619 0,-0.091756 -0.2095987,-0.096669 -0.2117469,-0.00494 -9.043e-4,0.038114 -0.063943,0.090608 -0.166496,0.1386258 -0.1959001,0.091725 -0.3439588,0.2969152 -0.377989,0.5238438 -0.012647,0.08434 -0.036946,0.1619689 -0.054003,0.1725088 -0.017057,0.01054 -0.031005,0.049779 -0.031005,0.087199 0,0.065133 0.03065,0.068035 0.7185607,0.068035 0.6611347,0 0.7185281,-0.0049 0.7181448,-0.06134 z M 2.1245072,7.0804792 c -0.00982,-0.025586 -0.00278,-0.055839 0.015673,-0.067234 0.050539,-0.031234 0.040222,-0.086684 -0.016139,-0.086684 -0.027311,0 -0.058858,-0.019715 -0.070103,-0.043812 -0.016354,-0.035054 -0.024535,-0.035054 -0.040897,0 -0.011249,0.024097 -0.053126,0.043812 -0.093062,0.043812 -0.066149,0 -0.067853,0.0055 -0.019179,0.061342 0.029391,0.033739 0.047651,0.077114 0.040577,0.096393 -0.00707,0.019276 0.035248,0.036772 0.094059,0.038879 0.075452,0.00271 0.1016683,-0.00986 0.089072,-0.042692 z"
       id="path1488" />
  </g>
</svg>
