<?xml version="1.0" encoding="UTF-8" standalone="no"?>
<!-- Created with Inkscape (http://www.inkscape.org/) -->

<svg
   xmlns:dc="http://purl.org/dc/elements/1.1/"
   xmlns:cc="http://creativecommons.org/ns#"
   xmlns:rdf="http://www.w3.org/1999/02/22-rdf-syntax-ns#"
   xmlns:svg="http://www.w3.org/2000/svg"
   xmlns="http://www.w3.org/2000/svg"
   xmlns:sodipodi="http://sodipodi.sourceforge.net/DTD/sodipodi-0.dtd"
   xmlns:inkscape="http://www.inkscape.org/namespaces/inkscape"
   version="1.1"
   width="64"
   height="64"
   id="svg49417"
   xml:space="preserve"
   inkscape:version="0.91 r13725"
   sodipodi:docname="network_vvm_logo.svg"
   inkscape:export-filename="/tmp/Transportr/res/drawable-xhdpi/network_vvm_logo.png"
   inkscape:export-xdpi="21.6"
   inkscape:export-ydpi="21.6"><title
     id="title4745">Logo of Münchner Verkehrs- und Tarifverbund (MVV)</title><metadata
     id="metadata55"><rdf:RDF><cc:Work
         rdf:about=""><dc:format>image/svg+xml</dc:format><dc:type
           rdf:resource="http://purl.org/dc/dcmitype/StillImage" /><dc:title>Logo of Münchner Verkehrs- und Tarifverbund (MVV)</dc:title><dc:source>https://de.wikipedia.org/wiki/Datei:VVM_Logo.svg</dc:source><dc:rights><cc:Agent><dc:title>Image contains a Trademark</dc:title></cc:Agent></dc:rights><dc:description /><dc:subject><rdf:Bag /></dc:subject><cc:license
           rdf:resource="" /></cc:Work></rdf:RDF></metadata><sodipodi:namedview
     pagecolor="#ffffff"
     bordercolor="#666666"
     borderopacity="1"
     objecttolerance="10"
     gridtolerance="10"
     guidetolerance="10"
     inkscape:pageopacity="1"
     inkscape:pageshadow="2"
     inkscape:window-width="1920"
     inkscape:window-height="1012"
     id="namedview53"
     showgrid="false"
     inkscape:zoom="4.3065084"
     inkscape:cx="21.392664"
     inkscape:cy="-16.99473"
     inkscape:window-x="1440"
     inkscape:window-y="0"
     inkscape:window-maximized="1"
     inkscape:current-layer="g97772" /><defs
     id="defs49421" /><g
     transform="matrix(1.25,0,0,-1.25,0,64)"
     id="g49427"><g
       transform="matrix(1.8658537,0,0,1.8658537,-382.08804,-1756.4869)"
       id="g97772"><rect
         style="opacity:1;fill:#ffffff;fill-opacity:1;fill-rule:nonzero;stroke:none;stroke-width:1;stroke-linecap:butt;stroke-linejoin:round;stroke-miterlimit:4;stroke-dasharray:none;stroke-dashoffset:0;stroke-opacity:1"
         id="rect4150"
         width="27.440523"
         height="27.440523"
         x="204.77921"
         y="-968.82562"
         transform="scale(1,-1)" /><g
         id="g4749"
         transform="matrix(0.15781672,0,0,0.15781672,172.6552,792.23121)"><path
           inkscape:connector-curvature="0"
           style="fill:#ec0583;fill-opacity:1;fill-rule:nonzero;stroke:none"
           id="path94553"
           d="m 253.42889,992.48681 -30.254,0 27.418,79.11899 30.253,0 -27.417,-79.11899 z" /><path
           inkscape:connector-curvature="0"
           style="fill:#ec0583;fill-opacity:1;fill-rule:nonzero;stroke:none"
           id="path94557"
           d="m 305.30269,992.48681 -30.254,0 27.418,79.11899 30.249,0 -27.413,-79.11899 z" /><path
           inkscape:connector-curvature="0"
           style="fill:#231f20;fill-opacity:1;fill-rule:nonzero;stroke:none"
           id="path94561"
           d="m 335.10589,1048.2925 -18.952,0.696 0,-45.077 20.215,0 0,22.656 7.783,-8.714 7.552,8.597 0,-22.657 20.1,0 0,45.082 -20.1,0 -8.58,-9.528 -8.018,8.945 z" /><path
           inkscape:connector-curvature="0"
           style="fill:none;stroke:#231f20;stroke-width:0.382;stroke-linecap:butt;stroke-linejoin:miter;stroke-miterlimit:4;stroke-dasharray:none;stroke-opacity:1"
           id="path94565"
           d="m 335.10589,1048.2925 -18.952,0.696 0,-45.077 20.215,0 0,22.656 7.783,-8.714 7.552,8.597 0,-22.657 20.1,0 0,45.082 -20.1,0 -8.58,-9.528 -8.018,8.945 z" /><path
           inkscape:connector-curvature="0"
           style="fill:#231f20;fill-opacity:1;fill-rule:nonzero;stroke:none"
           id="path94569"
           d="m 235.18509,1048.7361 -20.446,0 16.15,-44.964 19.4,0 15.775,45.065 -20.336,0 -5.194,-15.44 -5.349,15.339 z" /><path
           inkscape:connector-curvature="0"
           style="fill:none;stroke:#231f20;stroke-width:0.382;stroke-linecap:butt;stroke-linejoin:miter;stroke-miterlimit:4;stroke-dasharray:none;stroke-opacity:1"
           id="path94573"
           d="m 235.18509,1048.7361 -20.446,0 16.15,-44.964 19.4,0 15.775,45.065 -20.336,0 -5.194,-15.44 -5.349,15.339 z" /><path
           inkscape:connector-curvature="0"
           style="fill:#231f20;fill-opacity:1;fill-rule:nonzero;stroke:none"
           id="path94577"
           d="m 283.76898,1048.6402 -20.453,0 16.149,-44.962 19.404,0 15.775,45.065 -20.331,0 -5.203,-15.438 -5.341,15.335 z" /><path
           inkscape:connector-curvature="0"
           style="fill:none;stroke:#231f20;stroke-width:0.382;stroke-linecap:butt;stroke-linejoin:miter;stroke-miterlimit:4;stroke-dasharray:none;stroke-opacity:1"
           id="path94581"
           d="m 283.76898,1048.6402 -20.453,0 16.149,-44.962 19.404,0 15.775,45.065 -20.331,0 -5.203,-15.438 -5.341,15.335 z" /><path
           inkscape:connector-curvature="0"
           style="fill:#ffffff;fill-opacity:1;fill-rule:nonzero;stroke:none"
           id="path94585"
           d="m 330.55319,1053.9993 -20.1,0 0,-45.078 20.213,0 0,22.655 7.784,-8.713 7.552,8.597 0,-22.657 20.1,0 0,45.169 -20.1,0 -7.435,-8.92 -8.014,8.947 z" /><path
           inkscape:connector-curvature="0"
           style="fill:none;stroke:#231f20;stroke-width:0.382;stroke-linecap:butt;stroke-linejoin:miter;stroke-miterlimit:4;stroke-dasharray:none;stroke-opacity:1"
           id="path94589"
           d="m 330.55319,1053.9993 -20.1,0 0,-45.078 20.213,0 0,22.655 7.784,-8.713 7.552,8.597 0,-22.657 20.1,0 0,45.169 -20.1,0 -7.435,-8.92 -8.014,8.947 z" /><path
           inkscape:connector-curvature="0"
           style="fill:#ffffff;fill-opacity:1;fill-rule:nonzero;stroke:none"
           id="path94593"
           d="m 278.38649,1053.985 -20.449,0 16.152,-44.964 19.401,0 15.77,45.065 -20.33,0 -5.199,-15.435 -5.345,15.334 z" /><path
           inkscape:connector-curvature="0"
           style="fill:none;stroke:#231f20;stroke-width:0.382;stroke-linecap:butt;stroke-linejoin:miter;stroke-miterlimit:4;stroke-dasharray:none;stroke-opacity:1"
           id="path94597"
           d="m 278.38649,1053.985 -20.449,0 16.152,-44.964 19.401,0 15.77,45.065 -20.33,0 -5.199,-15.435 -5.345,15.334 z" /><path
           inkscape:connector-curvature="0"
           style="fill:#ffffff;fill-opacity:1;fill-rule:nonzero;stroke:none"
           id="path94601"
           d="m 229.70579,1053.8839 -20.448,0 16.148,-44.963 19.404,0 15.77,45.064 -20.33,0 -5.199,-15.438 -5.345,15.337 z" /><path
           inkscape:connector-curvature="0"
           style="fill:none;stroke:#231f20;stroke-width:0.382;stroke-linecap:butt;stroke-linejoin:miter;stroke-miterlimit:4;stroke-dasharray:none;stroke-opacity:1"
           id="path94605"
           d="m 229.70579,1053.8839 -20.448,0 16.148,-44.963 19.404,0 15.77,45.064 -20.33,0 -5.199,-15.438 -5.345,15.337 z" /></g></g></g></svg>