<?xml version="1.0" encoding="UTF-8" standalone="no"?>
<svg
   xmlns="http://www.w3.org/2000/svg"
   width="64"
   height="64"
   version="1.1">
  <path
     id="path76"
     d="M 0,64 H 64 V 0 H 0 Z"
     style="fill:#002a86;fill-opacity:1;stroke:none;stroke-width:0.11016499" />
  <path
     style="fill:#ffea0f;fill-opacity:1;stroke:none;stroke-width:0.10216053"
     d="m 27.459092,21.229502 c -0.582086,-0.355258 -1.933036,0.970524 -0.633258,0.319217 0.415776,-0.175054 1.281228,-0.05149 0.364603,0.05149 -0.294241,1.00708 1.770564,0.252285 1.827493,1.388596 0.884643,-0.05149 1.490396,-0.06693 2.460752,-0.175055 1.056709,0.687862 -0.685071,-0.09783 -1.160334,0.375853 -1.157775,0.573047 -1.773762,-0.802677 -2.788894,-1.026644 -1.027925,-0.365556 -2.234953,-0.113271 -3.007016,0.665722 -0.701701,0.442786 -2.467788,1.450895 -1.992524,2.062042 0.900634,-0.27288 1.866512,-2.081607 2.48122,-1.841164 -0.460551,0.344961 -1.168649,0.854679 -0.255862,0.574077 -0.49893,0.38615 -1.746897,0.755824 -1.640714,1.340198 0.377396,-0.06178 1.591461,-0.974128 0.70362,-0.344961 -0.878885,1.079676 0.575689,0.05149 0.886561,-0.30892 1.450737,-0.863946 -1.015771,0.610632 -0.172706,0.747072 0.53731,0 1.24093,-0.732656 1.241569,-0.803707 -0.396586,0.916463 1.033682,-0.185352 1.135387,-0.298623 -0.33262,0.549363 1.036241,0.241987 1.33368,0.840263 0.582086,0.69507 1.941352,0.262582 1.007456,-0.590553 -0.692746,-1.23465 -2.133888,-0.821212 -3.156695,-1.278929 -0.918544,-0.815549 0.669718,0.05149 0.858416,0.09783 1.209587,-0.61681 1.612569,0.918523 2.50041,1.174411 0.676754,-0.09268 1.31385,-0.509718 1.471845,0.401597 0.479741,0.997811 0.575689,-0.787232 1.169289,-1.000901 0,-0.85159 1.448817,-1.539452 1.808943,-1.356674 -0.294241,0.11327 -1.798709,0.620929 -1.226218,0.910284 1.209587,-0.623504 2.57397,-1.380358 3.98121,-0.965375 -0.607672,-1.090488 -2.083995,-0.92882 -3.029404,-0.417042 -1.272273,0.651306 -2.742839,0.671901 -4.086753,0.272879 -0.701701,-0.241987 -1.350951,-0.629682 -2.080797,-0.79238 z m 1.538369,0.972583 c 0.454155,0 0.198293,0.494272 0,0 z"
     id="path82" />
  <path
     style="fill:#ffea0f;fill-opacity:1;stroke:none;stroke-width:0.10216053"
     d="m 34.891878,24.983396 c -1.522378,1.109537 -3.692726,2.014673 -5.469046,0.941176 -0.825155,-0.524134 -2.757551,-1.190887 -3.107442,-0.406745 1.016411,-0.05149 1.942631,0.355258 2.985268,0.548333 1.743058,0.872185 3.86991,0.723388 5.614248,-0.07208 -0.479741,0.453083 -1.708517,-0.205947 -0.530913,-0.319217 0.594878,-0.08238 0.663321,-0.365556 0.422172,-0.537006 z m -2.055849,1.387051 c 0.473344,0.128716 -0.53731,0.05149 0,0 z m -0.620465,0.0036 c 0.179103,0.298622 -0.358207,-0.139014 0,0 z"
     id="path84" />
  <path
     style="fill:#ffea0f;fill-opacity:1;stroke:none;stroke-width:0.10216053"
     d="m 31.197873,20.567383 c -1.70404,-0.07208 0.134328,2.818381 0.479741,0.808856 0.855858,-0.995753 -0.06396,-0.375853 -0.479741,-0.808856 z m 0,0.221393 c 0.582086,0.07208 -0.345413,0.46338 0,0 z"
     id="path86" />
  <path
     style="fill:#ffea0f;fill-opacity:1;stroke:none;stroke-width:0.10216053"
     d="m 36.269055,22.235552 c 1.356707,0.46338 2.556059,1.286652 3.651148,2.196421 -1.210226,-0.934483 -3.00062,-0.96692 -3.935155,-2.28086 0.09595,-0.102973 0.198293,0.07723 0.281448,0.08753"
     id="path90" />
  <path
     style="fill:#ffea0f;fill-opacity:1;stroke:none;stroke-width:0.10216053"
     d="m 34.767785,22.306088 c 0.07036,0.975158 -2.030903,2.741666 -2.139005,1.174926 0.466948,-0.730081 1.400844,-0.856738 2.139005,-1.174926 z"
     id="path94" />
  <path
     style="fill:#ffea0f;fill-opacity:1;stroke:none;stroke-width:0.10216053"
     d="m 36.459672,22.916205 c -0.441362,-0.07723 -1.949028,0.355258 -0.647331,0.175055 0.275052,0 1.285066,0.820183 0.857777,0.09268 1.098927,0.298623 2.788254,0.672931 3.150939,1.753121 -0.39019,-0.05149 -1.622164,-1.007079 -0.607672,-0.30892 0.711935,0.835629 -0.524517,0.631742 -0.743919,0.0031 -0.294241,-0.303771 -1.127071,-0.734715 -0.364603,-0.149311 0.836669,0.211095 0.731765,1.513708 -0.07036,0.615781 -0.236672,-0.344961 -0.790613,-0.437637 -0.383792,0.06693 -0.607672,-0.05149 -1.24157,-1.315484 -0.747117,-0.159608 -0.249465,0.05149 -1.024727,-1.156906 -0.812361,-0.339812 -0.841146,-1.430815 -2.145402,0.770755 -3.110001,0.278028 0.1855,-1.039002 1.498711,-1.491569 2.105103,-2.318446 0.447759,-0.494272 1.07526,-0.1905 1.382294,0.293475"
     id="path96" />
  <path
     style="fill:#ffea0f;fill-opacity:1;stroke:none;stroke-width:0.10216053"
     d="m 30.847342,24.288325 c 0.646052,0.940147 -1.283147,2.449222 -1.192316,0.79341 0.06397,-0.524134 0.670358,-1.697001 1.192316,-0.791865"
     id="path98" />
  <path
     style="fill:#ffea0f;fill-opacity:1;stroke:none;stroke-width:0.10216053"
     d="m 31.889979,24.052001 c -1.363104,0.517442 0.66716,3.051101 0.85202,1.248552 -0.06396,-0.49942 -0.236672,-1.222808 -0.85202,-1.248552 z m 0.562896,1.608959 c 0.511724,0.236839 -0.287844,0.458232 0,0 z"
     id="path100" />
  <path
     style="fill:#ffea0f;fill-opacity:1;stroke:none;stroke-width:0.10216053"
     d="m 31.466528,25.169262 c 0.891679,1.330416 -1.74114,1.187283 -0.358206,-0.08238 0.121534,-0.06178 0.275051,0 0.358206,0.08238 z"
     id="path102" />
  <path
     style="fill:#ffea0f;fill-opacity:1;stroke:none;stroke-width:0.10216053"
     d="m 30.549263,26.37817 c -0.243068,-0.641009 0.588483,0.05149 0,0 z"
     id="path106" />
  <path
     style="fill:none;stroke:#ffea0f;stroke-width:0.35490566;stroke-opacity:1"
     d="m 24.865293,26.592869 c -0.642853,-1.317544 -2.650729,-0.750676 -3.123434,0.432488 -1.249885,2.777706 -0.537309,5.991505 0.860975,8.568413 1.77952,3.375467 4.906791,6.218561 8.717853,6.991891 1.886981,-0.07208 3.410638,-1.365427 4.881844,-2.404943 2.967357,-2.385378 5.328322,-5.943107 5.312971,-9.857639 -0.06397,-1.513708 -0.518121,-3.177243 -1.737302,-4.158579 -1.420673,-0.610117 -2.720451,0.820698 -4.179503,0.516411 -3.577588,0 -7.155177,-0.06178 -10.733404,-0.08753 z"
     id="path114" />
  <path
     style="fill:#ffea0f;fill-opacity:1;stroke:none;stroke-width:0.10216053"
     d="m 29.078058,27.510877 c 0,0.722358 0.441362,2.618097 -0.06397,2.561462 -0.31343,-0.720299 -1.050952,1.268117 -1.289543,0.133865 0.486137,-0.437637 -0.08955,-1.288711 -0.377396,-1.607414 0.06397,0.473677 0.287844,2.232977 -0.492534,1.782469 0.223879,-0.596216 -1.137946,-1.725319 -0.789974,-0.693526 0.172707,1.212512 1.288264,2.188184 2.486337,1.448835 1.498711,-0.169906 3.012134,-0.15446 4.514683,-0.05149 1.511503,-0.458231 2.909788,0.987515 4.439202,0.370704 1.670778,0.241988 0.511724,1.958039 0.844984,2.900245 0.51812,1.035912 1.788474,0.447934 1.531973,-0.649247 -0.102345,-0.565839 0.33262,-2.119707 0.454155,-0.757884 -0.09595,0.574591 -0.0064,2.094478 0.287844,0.713091 0.166314,-1.509075 0.454159,-3.067061 0.172711,-4.570472 -0.562896,-1.453469 -2.735163,-1.567255 -3.410638,-0.154461 -0.550103,0.608573 -0.230276,2.048141 -1.232615,1.6831 -1.149459,-0.09783 -2.274611,-0.868065 -3.312131,0.08753 -1.072061,0.544215 -1.7776,-0.34496 -2.708937,-0.15446 -1.310013,-0.468528 -0.588483,-1.973999 -0.994663,-2.933711 l -0.06397,-0.11327 z m 10.730206,1.023555 c 0.556499,0.645128 0.968437,2.750933 0.255861,2.84052 -0.460551,-0.896898 0.262259,-1.961643 -0.255861,-2.84052 z m -0.268655,0.09268 c 0.179103,0.504569 0.140724,1.914274 0,1.787617 0.140724,-0.758399 -1.83325,-0.437637 -0.505328,-0.894323 0.236673,-0.252285 0.326224,-0.597761 0.492535,-0.893294 z m -0.903832,1.520916 c 0.31343,0.42734 0.960121,1.396834 -0.07676,1.345347 -0.473343,-0.133865 -0.959481,-1.334535 -0.319826,-0.473677 1.317688,0.211095 -0.447758,-0.619385 0.396586,-0.873729 z M 39.584384,31.342 c 0.511724,0.897928 -0.913426,0.324366 0,0 z m -0.614068,0.566869 c 0.582086,0.689921 -0.767585,0.504569 0,0 z m 0.454155,0.509718 c 0.701061,0.602394 -0.524517,0.820182 0,0 z m -0.5565,0.293474 c 0.511724,0.473677 -0.626861,0.489123 0,0 z m 0.07676,0.627107 c 0.339017,0.396448 -0.492534,0.175055 0,0 z m 0.339017,0.236839 c 0.660123,0.596731 -0.415776,0.844382 0,0 z m -0.460552,0.334664 c 0.775262,0.221392 -0.588482,0.483974 0,0 z"
     id="path116" />
  <path
     style="fill:#ffea0f;fill-opacity:1;stroke:none;stroke-width:0.10216053"
     d="m 29.576349,31.173124 c -1.290184,1.093577 0.556499,2.351396 0.654366,3.532501 -0.415775,0.784142 0.409379,1.929206 0.688908,2.165015 -0.756711,0.200798 -2.306594,-0.442786 -1.150099,-1.141975 0.524517,-1.573948 -1.290822,-2.624791 -2.662242,-2.290127 -1.100845,0.483974 -2.941132,-0.494272 -3.493793,0.780538 -0.140724,1.524005 2.193375,0.786201 1.709157,2.267988 0.115138,1.249067 1.903612,0.164757 2.750514,0.458231 3.064586,-0.07723 6.133648,0.05149 9.18672,0.303772 -0.332621,-0.458232 -1.219822,-0.128717 -0.543707,-0.657485 0.102345,-0.940147 2.0744,-1.095637 1.40788,-2.106835 -0.987627,0.971039 -1.040718,-0.473677 -0.466948,-1.076586 1.192956,-1.078131 -0.358206,-2.134123 -1.456493,-1.498778 -2.012993,-0.08238 -4.006797,-0.432488 -6.022348,-0.468528 -0.217483,-0.05149 -0.402983,-0.169906 -0.601276,-0.267731 z m -5.417875,3.145321 c 0.159914,0.391299 -0.454154,-0.0041 0,0 z m 0.736883,0.195649 c 0.249465,0.236839 -0.339017,0.07208 0,0 z m 11.984568,0.175055 c -0.947968,0.532887 -2.043057,0.169906 -3.054351,0.108122 -0.633258,-0.05149 -1.746257,0.375853 -0.620465,0.748616 0.700422,0.169906 1.496152,1.088944 0.345414,1.301584 -1.01897,-0.257434 -0.147121,-2.157807 -1.591461,-1.960613 0.892318,-0.211095 2.070562,-0.06178 3.065225,-0.149311 0.620465,0 1.238371,-0.05149 1.856917,-0.05149 z m -3.217463,0.23169 c 0.415776,0.314069 -0.428568,0.38615 0,0 z m 2.383993,0.09783 c 0.300638,0.314069 -0.281448,0.401596 0,0 z m -10.40846,0 c 0.345414,0.417042 -0.179103,1.609473 -0.249465,0.538551 -0.127931,-0.190501 -0.07036,-0.649247 0.249465,-0.538551 z m 5.164572,0 c 0.723449,-0.324366 0.134327,0.634831 0,0 z m 3.734943,0 c 0.454155,0.19565 -0.35181,0.391299 0,0 z m 1.290183,0 c 0.524517,0.648218 -0.697223,0.23169 0,0 z m -0.434965,0.09783 c 0.653727,0.396448 -0.562896,0.437637 0,0 z m -3.612769,0 c 0.651808,0.200798 -0.460551,0.458232 0,0 z m 4.587603,0 c 0.300637,0.334664 -0.454155,0.226542 0,0 z m -4.13089,0.05149 c 0.550103,0.339812 -0.511723,0.494272 0,0 z m -3.873748,0.09782 c 1.18592,0.149311 -0.498931,2.111469 -0.191896,0.643069 0.06397,-0.216245 0.127931,-0.42734 0.191896,-0.643069 z m 2.226638,0.06178 c 0.479741,-0.169906 0.281448,0.494272 0,0 z m 2.918104,0 c 0.49893,-0.360407 0.35181,0.527224 0,0 z m -1.985488,0.118419 c 0.562896,0.283177 -0.505327,0.370704 0,0 z m 3.674816,0 c 0.791252,0.108122 -0.409379,0.663664 0,0 z m -9.118277,0.05663 c 1.044556,-0.05149 -0.268654,1.697002 -0.06397,0.355259 0,-0.11842 0,-0.236839 0.06397,-0.355259 z m 10.565815,0 c -0.09595,0.576651 -0.543706,-0.283176 0,0 z m -4.169908,0 c 0.511723,0.267731 -0.473345,0.288326 0,0 z m -2.007876,0.05149 c 0.390189,-0.257433 0.300638,0.422191 0,0 z m 5.502309,0.07723 c 0.447758,0.200798 -0.396586,0.319218 0,0 z m -8.062846,0 c 0.428568,1.139401 -1.854999,0.396448 -0.498931,-0.05149 0.16631,0 0.33262,0.05663 0.498931,0.05149 z m 4.043896,0.133866 c 0.281448,0.06178 -0.211086,0.149311 0,0 z m -1.026006,0.06178 c -0.09595,0.573046 -0.562896,-0.216245 0,0 z m 5.443461,0 c 0.319827,-0.200799 0.08316,0.303771 0,0 z m -4.986748,0 c 0.688269,-0.293475 -0.07676,0.749131 0,0 z m 3.236653,0.05149 c 0.307034,0.05664 -0.22388,0.221393 0,0 z m 0.855857,0 c 0.06397,0.6199 -0.607671,-0.180204 0,0 z m -3.117676,0.05149 c 0.656286,-0.200799 0,0.570473 0,0 z m 3.832171,0.09783 c 0.601275,0.539065 -0.633258,0.442785 0,0 z m -5.163932,0 c 0.345414,0.406745 -0.543706,0.123568 0,0 z m 1.112999,0.09782 c 0.422172,0.113271 -0.249465,0.375853 0,0 z m -0.275051,0 c 0.620465,0.262583 -0.498931,0.386151 0,0 z m 3.713194,0.11842 c 0.198293,0.370704 -0.441361,0.123568 0,0 z m 0.217483,0.07723 c 0.422172,0.190501 -0.371,0.314069 0,0 z"
     id="path138" />
  <path
     style="fill:none;stroke:#002a86;stroke-width:0.11830191;stroke-linecap:round;stroke-opacity:1"
     d="m 29.910248,32.948899 c -1.005537,-0.7723 0.787415,-1.530699 0.396586,-0.139014 m 0.300638,-0.938602 c 0.204689,0.568413 0.51812,1.109023 0.575689,1.7212 m 0.415776,-0.09783 c -0.06397,-0.375853 -0.07676,-0.75531 -0.121535,-1.132707 m 1.38997,1.426181 c 0,-0.339812 0.06396,-0.677565 0.06396,-1.016347 m 1.211506,0.567383 c 0,-0.205947 0.06397,-0.417042 0.06397,-0.626078 m 1.013213,0.880422 c 0.06397,-0.334663 0.07676,-0.665208 0.121535,-0.997297 m 1.052871,1.172867 c 0.108741,-0.303772 0.211086,-0.612692 0.319827,-0.919037 m -5.322566,0.919037 c 0.287845,0 0.838588,0.180203 0.675476,0.585918 m 0,-0.293474 c 0.1855,-0.46338 1.045835,-0.108122 0.794451,0.35011 m 0.255862,0 c -0.20469,-0.625563 1.024087,-0.543185 0.874407,0 m 0.774622,0 c -0.0013,-0.175055 0.07676,-0.42734 0.300638,-0.411894 m 0.992744,-0.118419 c -0.249466,-0.05149 -0.492534,0.314068 -0.294241,0.509718 m 0.575689,-0.05149 c 0,-0.27288 0.300637,-0.453083 0.556499,-0.447934 m -6.415096,0.05149 0.179104,-0.07723 0.179103,-0.07723"
     id="path176" />
  <path
     style="fill:none;stroke:#ffea0f;stroke-width:0.11830191;stroke-linecap:round;stroke-opacity:1"
     d="m 37.456893,35.861501 c 0.07036,0 0.147121,0 0.217483,0 m 0.236672,0 c 0.377396,-0.07723 0.754792,-0.15446 1.132189,-0.236839 m -1.529414,0.607028 c 0.09595,0 0.198292,0 0.300637,0 m -0.674835,0.293474 c 0.204689,-0.05149 0.409379,-0.07723 0.614068,-0.118419 m 0,0.252284 c 0.217483,0.05149 0.434965,0.11842 0.655006,0.07723"
     id="path178" />
  <path
     style="fill:none;stroke:#002a86;stroke-width:0.11830191;stroke-linecap:round;stroke-opacity:1"
     d="m 30.565255,34.14339 0.179103,-0.07723 0.179103,-0.07723 m -0.300637,0.329515 0.179103,-0.07723 0.179103,-0.07723 m -0.236672,0.334664 0.179103,-0.07723 0.179104,-0.07723 m -0.300638,0.329514 0.179103,-0.07723 0.179104,-0.07723"
     id="path180" />
  <path
     style="fill:none;stroke:#002a86;stroke-width:0.11830191;stroke-linecap:round;stroke-opacity:1"
     d="m 24.646531,33.984297 c 0.963959,-0.211096 1.960541,-0.205947 2.938573,-0.11842 m 1.232614,0.05149 H 28.561857 M 25.9994,34.133608 c -0.16631,0.211095 -0.383792,0.756854 0.06397,0.839233 m 0.14072,-0.314069 c -0.127931,-0.200798 0.16631,-0.437637 0.358206,-0.334663 m 0.300638,0.468528 c 0.07676,0.221393 0.159914,0.442786 0.236672,0.665208"
     id="path222" />
  <path
     style="fill:#ffea0f;fill-opacity:1;stroke:none;stroke-width:0.10216053"
     d="m 22.996862,27.590166 c -0.524517,1.034882 -2.122374,2.979534 -0.09595,3.410992 0.770783,0.314069 3.101685,0.257434 2.53623,-0.907195 -0.726646,0.685288 -0.211084,-0.87064 -0.543704,-0.805252 0.115137,0.583859 -0.791893,1.58682 -0.543707,0.483975 0.409379,-0.563779 -0.230276,-2.655683 -0.588482,-1.112112 -1.022168,1.212511 -0.153517,-0.69507 -0.773982,-1.068349 z m -0.179104,1.916849 c 0.428569,1.035397 -0.640294,0.788776 0,0 z m -0.396585,0.216244 c 0.339016,0.699704 -0.562896,0.699704 0,0 z m 1.251804,0 c 1.146261,0.319217 -1.226858,1.296949 -0.06397,0.494272 0.108741,-0.139014 0.134328,-0.334663 0.06397,-0.494272 z m -1.70532,0.190501 c 0.179104,0.344961 -0.377396,-0.05149 0,0 z"
     id="path224" />
  <path
     style="fill:none;stroke:#ffea0f;stroke-width:0.23660381;stroke-opacity:1"
     d="m 35.649229,30.425022 c 0.402983,-0.164757 0.807884,-0.324366 1.211506,-0.489123 m -1.350311,0.334663 c 1.726428,-0.922126 3.491875,-1.765993 5.242609,-2.639207 M 40.59312,27.142232 c -1.707878,0.98391 -3.415756,1.967821 -5.124273,2.951731 m 4.448797,-3.597889 c -1.529414,1.133737 -3.058188,2.267988 -4.587602,3.40224 m 2.621944,-3.635989 c -0.914066,1.224868 -1.827493,2.449736 -2.74092,3.675119 1.330482,-1.277385 2.660963,-2.554769 3.991445,-3.832154 m -2.224079,0.684258 c -0.675476,1.023555 -1.350951,2.047625 -2.025786,3.07118 m 0.933256,-3.090745 c -0.383793,0.971554 -0.768226,1.942593 -1.152018,2.913631 m 0.556499,-2.952246 c -0.223879,0.983911 -0.447758,1.968336 -0.674835,2.952246 m 0,-2.933711 c -0.08955,0.952504 -0.172707,1.904493 -0.255862,2.856481 M 33.98229,26.749903 c 0.06397,0.952504 0.06397,1.904493 0.09595,2.856481 m -0.933898,-2.836401 c 0.230276,0.925731 0.460551,1.851461 0.695305,2.776677 m -2.025786,-2.796757 c 0.505327,0.565324 1.057349,2.073369 1.483998,2.059468 -0.281448,-0.679625 -0.562896,-1.359249 -0.848182,-2.039388 m -1.489755,0 c 0.800847,1.00399 1.602334,2.007981 2.403182,3.011456 m -3.157975,-3.029991 c 0.986348,1.081735 1.973335,2.16347 2.959682,3.245205 M 29.37102,26.751448 c 1.211505,1.107993 2.423011,2.215987 3.634517,3.32398 m -4.865852,-3.32398 c 1.608731,1.075557 3.217462,2.151113 4.826193,3.22667 m -6.057529,-3.24572 c 1.992525,1.127558 3.985049,2.254602 5.977573,3.381645 M 23.035241,26.04711 c 3.250725,1.394774 6.501449,2.790063 9.752174,4.184837 M 22.280449,26.497104 c 3.416395,1.356159 6.83215,2.711803 10.248545,4.067962 M 21.784716,27.181362 c 3.561597,1.186253 7.123194,2.373021 10.684151,3.559274 M 21.526296,27.708585 c 3.303816,0.926246 6.606992,1.851976 9.910808,2.777707 M 21.367022,28.471618 c 0.35181,0.08238 0.701701,0.169906 1.052232,0.252285 m 4.131529,0.901017 c 0.701701,0.205946 1.403402,0.417042 2.105103,0.624533 M 21.1489,30.895611 c 0.428568,0 0.860335,0.05149 1.290183,0.05149 m 2.801047,0 c 0.402983,0.05149 0.807884,0.05149 1.211506,0.07723"
     id="path234" />
  <path
     style="fill:#ffea0f;fill-opacity:1;stroke:#ffea0f;stroke-width:0.10216053;stroke-opacity:1"
     d="m 22.263178,31.285365 c -0.51812,-0.594671 -0.706818,0.530828 0,0 z"
     id="path236" />
  <path
     style="fill:#ffea0f;fill-opacity:1;stroke:#ffea0f;stroke-width:0.10216053;stroke-opacity:1"
     d="m 22.275971,31.694169 c -0.51812,-0.595701 -0.708737,0.528768 0,0 z"
     id="path238" />
  <path
     style="fill:#ffea0f;fill-opacity:1;stroke:#ffea0f;stroke-width:0.10216053;stroke-opacity:1"
     d="m 22.859336,31.696229 c -0.51812,-0.595701 -0.708098,0.529283 0,0 z"
     id="path240" />
  <path
     style="fill:#ffea0f;fill-opacity:1;stroke:#ffea0f;stroke-width:0.10216053;stroke-opacity:1"
     d="m 22.422452,32.047883 c -0.51812,-0.595701 -0.708098,0.530312 0,0 z"
     id="path242" />
  <path
     style="fill:#ffea0f;fill-opacity:1;stroke:#ffea0f;stroke-width:0.10216053;stroke-opacity:1"
     d="m 22.861895,31.501609 c -0.518121,-0.597246 -0.709377,0.527738 0,0"
     id="path244" />
  <path
     style="fill:#ffea0f;fill-opacity:1;stroke:#ffea0f;stroke-width:0.10216053;stroke-opacity:1"
     d="m 23.55464,31.442399 c -0.51812,-0.597245 -0.708097,0.530828 0,0 z"
     id="path246" />
  <path
     style="fill:#ffea0f;fill-opacity:1;stroke:#ffea0f;stroke-width:0.10216053;stroke-opacity:1"
     d="m 23.55464,31.775003 c -0.51812,-0.598275 -0.708737,0.530313 0,0 z"
     id="path248" />
  <path
     style="fill:#ffea0f;fill-opacity:1;stroke:#ffea0f;stroke-width:0.10216053;stroke-opacity:1"
     d="m 24.269135,31.430557 c -0.518121,-0.595186 -0.709377,0.527224 0,0 z"
     id="path250" />
  <path
     style="fill:#ffea0f;fill-opacity:1;stroke:#ffea0f;stroke-width:0.10216053;stroke-opacity:1"
     d="m 23.479801,32.013386 c -0.51812,-0.594156 -0.707458,0.528769 0,0 z"
     id="path252" />
  <path
     style="fill:#ffea0f;fill-opacity:1;stroke:#ffea0f;stroke-width:0.10216053;stroke-opacity:1"
     d="m 24.276811,32.091646 c -0.518121,-0.594156 -0.707458,0.530313 0,0 z"
     id="path254" />
  <path
     style="fill:#ffea0f;fill-opacity:1;stroke:#ffea0f;stroke-width:0.10216053;stroke-opacity:1"
     d="m 24.011354,32.440211 c -0.51812,-0.595186 -0.710017,0.526194 0,0 z"
     id="path256" />
  <path
     style="fill:#ffea0f;fill-opacity:1;stroke:#ffea0f;stroke-width:0.10216053;stroke-opacity:1"
     d="m 24.589602,31.639078 c -0.518121,-0.592096 -0.706179,0.529283 0,0 z"
     id="path258" />
  <path
     style="fill:#ffea0f;fill-opacity:1;stroke:#ffea0f;stroke-width:0.10216053;stroke-opacity:1"
     d="m 25.043756,31.775003 c -0.51812,-0.598275 -0.708737,0.530313 0,0 z"
     id="path260" />
  <path
     style="fill:#ffea0f;fill-opacity:1;stroke:#ffea0f;stroke-width:0.10216053;stroke-opacity:1"
     d="m 25.381494,31.559789 c -0.51812,-0.594156 -0.708098,0.527223 0,0 z"
     id="path262" />
  <path
     style="fill:#ffea0f;fill-opacity:1;stroke:#ffea0f;stroke-width:0.10216053;stroke-opacity:1"
     d="m 26.255262,31.363625 c -0.51812,-0.595701 -0.707458,0.530827 0,0 z"
     id="path264" />
  <path
     style="fill:#ffea0f;fill-opacity:1;stroke:#ffea0f;stroke-width:0.10216053;stroke-opacity:1"
     d="m 26.156116,31.696229 c -0.518121,-0.595701 -0.708738,0.529283 0,0 z"
     id="path266" />
  <path
     style="fill:#ffea0f;fill-opacity:1;stroke:#ffea0f;stroke-width:0.10216053;stroke-opacity:1"
     d="m 26.87125,31.715279 c -0.518121,-0.594672 -0.707458,0.530312 0,0 z"
     id="path268" />
  <path
     style="fill:#ffea0f;fill-opacity:1;stroke:#ffea0f;stroke-width:0.10216053;stroke-opacity:1"
     d="m 25.679573,32.185867 c -0.51812,-0.594671 -0.709377,0.525679 0,0"
     id="path270" />
  <path
     style="fill:#ffea0f;fill-opacity:1;stroke:#ffea0f;stroke-width:0.10216053;stroke-opacity:1"
     d="m 26.294921,32.380486 c -0.51812,-0.59673 -0.708098,0.531343 0,0 z"
     id="path272" />
  <path
     style="fill:#ffea0f;fill-opacity:1;stroke:#ffea0f;stroke-width:0.10216053;stroke-opacity:1"
     d="m 27.27807,32.315613 c -0.51812,-0.595186 -0.709377,0.525679 0,0 z"
     id="path274" />
  <path
     style="fill:#ffea0f;fill-opacity:1;stroke:#ffea0f;stroke-width:0.23660381;stroke-opacity:1"
     d="m 22.74036,35.607157 c 0.83283,0.09783 1.668219,0 2.501689,-0.05149"
     id="path276" />
  <path
     style="fill:#ffea0f;fill-opacity:1;stroke:#ffea0f;stroke-width:0.10216053;stroke-opacity:1"
     d="m 24.862734,36.0762 c -0.51812,-0.595701 -0.707458,0.530313 0,0 z"
     id="path278" />
  <path
     style="fill:#ffea0f;fill-opacity:1;stroke:#ffea0f;stroke-width:0.10216053;stroke-opacity:1"
     d="m 24.984908,36.350624 c -0.51812,-0.594156 -0.708737,0.527224 0,0 z"
     id="path280" />
  <path
     style="fill:#ffea0f;fill-opacity:1;stroke:#ffea0f;stroke-width:0.10216053;stroke-opacity:1"
     d="m 24.269135,36.663148 c -0.518121,-0.597245 -0.708098,0.531343 0,0 z"
     id="path282" />
  <path
     style="fill:#ffea0f;fill-opacity:1;stroke:#ffea0f;stroke-width:0.10216053;stroke-opacity:1"
     d="m 25.183201,37.504441 c -0.51812,-0.596216 -0.708737,0.528768 0,0 z"
     id="path284" />
  <path
     style="fill:none;stroke:#ffea0f;stroke-width:0.23660381;stroke-linecap:round;stroke-opacity:1"
     d="m 26.399184,38.18355 c 1.031124,-1.153816 1.365023,1.827262 0.268655,0.46338 -0.07676,-0.958167 -2.084634,-1.265028 -1.214704,-0.118419 0.268655,0.149311 0.607672,0.144162 0.885282,0.05149"
     id="path286" />
  <path
     style="fill:none;stroke:#ffea0f;stroke-width:0.23660381;stroke-opacity:1"
     d="m 37.343035,38.30094 c -0.377396,-1.642425 -2.61171,0.790835 -0.716413,0.432488 0.217482,-0.169906 0.377396,-0.561205 0.716413,-0.432488 z m -10.12957,-0.861372 c 0.655646,1.476123 2.458192,0.504569 3.656905,0.734714 1.371419,0.05664 2.744758,0 4.117457,0 0.505327,-1.573432 -1.813421,-1.221778 -2.746677,-1.15948 -1.619606,0 -3.244968,-0.102973 -4.860096,0.06693 -0.115138,0.07208 -0.191896,0.211095 -0.16631,0.344961 z"
     id="path288" />
  <path
     style="fill:none;stroke:#ffea0f;stroke-width:0.23660381;stroke-linecap:round;stroke-opacity:1"
     d="m 34.79593,38.246879 c -0.06396,0.61578 0.795091,0.895868 1.230696,0.567383 m -0.377397,-0.821728 -0.16631,0.05149 -0.16631,0.05149"
     id="path290" />
  <path
     style="fill:#ffea0f;fill-opacity:1;stroke:none;stroke-width:0.10216053"
     d="m 30.335619,38.294246 c -0.262259,0.612177 -0.626862,1.183164 0.14712,1.461192 -0.09595,1.098211 -1.586343,-0.504569 -1.347752,-0.05663 -0.06397,0.784657 -1.657985,0.278028 -0.770144,1.161025 0.313431,-0.11842 0.236672,-0.953019 0.789334,-0.334664 0.249465,0.401596 -0.524517,0.123568 0.06396,0.534432 0.959482,0.994208 2.819598,1.464281 3.849442,0.329515 0.537309,-0.690952 0.678673,-1.862788 1.662462,-2.083666 -0.383793,0.08753 -1.112999,-0.175055 -0.332621,-0.370704 -0.75927,-0.727507 -1.500629,1.587849 -1.781438,0.563779 0.702341,-1.498263 -1.537729,-1.003476 -2.266296,-1.208907 z m -0.07676,2.132064 c 0,1.224868 -1.047754,-0.458232 0,0 z"
     id="path292" />
  <path
     style="fill:none;stroke:#002a86;stroke-width:0.23660381;stroke-linecap:round;stroke-opacity:1"
     d="m 30.492974,41.148668 -0.108741,0.15446 -0.108742,0.15446 m 0.83411,0.216244 0.121534,-0.216244 m 0.454155,0.293474 c 0,-0.07208 0.06396,-0.144163 0.06396,-0.216244 m -0.854578,-1.389626 c 0.300638,0 0.594879,0 0.894237,0 m 0.53731,0.355259 c -0.371,0.211095 -0.498931,1.066803 0.179103,0.703308"
     id="path296" />
  <path
     style="fill:#ffea0f;fill-opacity:1;stroke:#ffea0f;stroke-width:0.10216053;stroke-opacity:1"
     d="m 28.284886,37.42824 c 0.738162,-0.494272 0,1.211482 0,0.06693 z"
     id="path298" />
  <path
     style="fill:#ffea0f;fill-opacity:1;stroke:none;stroke-width:0.10216053"
     d="m 28.811322,37.972969 c -0.428569,-0.88866 1.297859,-0.216244 0.230276,-0.07208 -0.06397,0.07723 -0.153518,0.144163 -0.230276,0.07208 z"
     id="path300" />
  <path
     style="fill:#ffea0f;fill-opacity:1;stroke:none;stroke-width:0.10216053"
     d="m 29.63008,37.972969 c -0.511724,-0.531857 0.922382,-0.711545 0.275051,-0.133865 0.701062,-0.05149 -0.07036,0.257434 -0.275051,0.128717"
     id="path302" />
  <path
     style="fill:#ffea0f;fill-opacity:1;stroke:none;stroke-width:0.10216053"
     d="m 31.404482,37.296435 c 0.543706,0.896383 -1.338797,0 -0.377397,0.458231 0.166311,-0.113271 0.1855,-0.370704 0.377397,-0.458231"
     id="path304" />
  <path
     style="fill:#ffea0f;fill-opacity:1;stroke:none;stroke-width:0.10216053"
     d="m 31.547764,37.296435 c 0.428569,0.241987 0.633258,0.180203 0.782937,0.144162 0.140724,0.739349 -0.879525,0.159609 -0.575689,0.221393 -0.0019,0.683743 -0.390189,-0.185352 -0.204689,-0.365555"
     id="path306" />
  <path
     style="fill:#ffea0f;fill-opacity:1;stroke:none;stroke-width:0.10216053"
     d="m 32.418334,37.97194 c 0.816839,-0.473678 -0.454155,-0.922642 0,0 z"
     id="path308" />
  <path
     style="fill:#ffea0f;fill-opacity:1;stroke:none;stroke-width:0.10216053"
     d="m 32.747117,37.635217 c 0.761828,-1.116231 0.434965,1.146608 0,0 z m 0.390189,-0.221393 c -0.800848,0.473678 0.789973,0.437637 0,0 z"
     id="path310" />
  <path
     style="fill:#ffea0f;fill-opacity:1;stroke:none;stroke-width:0.10216053"
     d="m 33.643273,37.296435 c 0.428568,0.241987 0.633258,0.180203 0.783577,0.144162 0.140724,0.739349 -0.880165,0.159609 -0.57569,0.221393 -0.0026,0.683228 -0.390189,-0.185352 -0.211086,-0.365555"
     id="path312" />
  <path
     style="fill:#ffea0f;fill-opacity:1;stroke:none;stroke-width:0.10216053"
     d="m 20.025026,30.463637 c 1.22238,0.211096 -0.773342,1.348951 -0.16631,0.252285 l 0.07676,-0.118419 z"
     id="path314" />
  <path
     style="fill:#ffea0f;fill-opacity:1;stroke:none;stroke-width:0.10216053"
     d="m 20.01927,29.096151 c 1.22174,0.211096 -0.772703,1.349466 -0.166311,0.257434 l 0.07676,-0.11842 z"
     id="path316" />
  <path
     style="fill:#ffea0f;fill-opacity:1;stroke:none;stroke-width:0.10216053"
     d="m 20.437604,27.571116 c 1.18464,0.360407 -0.932617,1.244433 -0.198293,0.23169 l 0.08955,-0.108122 0.108742,-0.123568"
     id="path318" />
  <path
     style="fill:#ffea0f;fill-opacity:1;stroke:none;stroke-width:0.10216053"
     d="m 20.937174,26.163985 c 1.18592,0.360407 -0.934535,1.245978 -0.198293,0.23169 l 0.08955,-0.108122 0.108741,-0.123568"
     id="path320" />
  <path
     style="fill:#ffea0f;fill-opacity:1;stroke:none;stroke-width:0.10216053"
     d="m 20.121614,31.776033 c 1.224299,0.195649 -0.751594,1.361823 -0.159913,0.257433 l 0.07036,-0.123568 z"
     id="path322" />
  <path
     style="fill:#ffea0f;fill-opacity:1;stroke:none;stroke-width:0.10216053"
     d="m 20.292402,33.184708 c 1.223659,0.19565 -0.750954,1.362338 -0.159914,0.257434 l 0.07036,-0.123568 z"
     id="path324" />
  <path
     style="fill:#ffea0f;fill-opacity:1;stroke:none;stroke-width:0.10216053"
     d="m 20.765107,34.477024 c 1.232614,0.133865 -0.684431,1.396834 -0.153517,0.267731 l 0.06397,-0.123568 z"
     id="path326" />
  <path
     style="fill:#ffea0f;fill-opacity:1;stroke:none;stroke-width:0.10216053"
     d="m 21.228856,35.657099 c 1.233254,0.139014 -0.686989,1.395804 -0.153517,0.26773 l 0.06397,-0.123568 0.08315,-0.139014"
     id="path328" />
  <path
     style="fill:#ffea0f;fill-opacity:1;stroke:none;stroke-width:0.10216053"
     d="m 21.943351,36.88866 c 1.232614,0.133865 -0.68507,1.395804 -0.153518,0.267731 l 0.06397,-0.123568 z"
     id="path330" />
  <path
     style="fill:#ffea0f;fill-opacity:1;stroke:none;stroke-width:0.10216053"
     d="m 22.717972,38.062556 c 1.232615,0.133866 -0.68443,1.395289 -0.153517,0.267731 l 0.06397,-0.123568 z"
     id="path332" />
  <path
     style="fill:#ffea0f;fill-opacity:1;stroke:none;stroke-width:0.10216053"
     d="m 23.59238,39.118548 c 1.232615,0.133865 -0.686989,1.395289 -0.153517,0.262582 l 0.06397,-0.123568 z"
     id="path334" />
  <path
     style="fill:#ffea0f;fill-opacity:1;stroke:none;stroke-width:0.10216053"
     d="m 24.68427,40.11533 c 1.232615,0.139014 -0.685709,1.395289 -0.153517,0.267731 l 0.06397,-0.123568 z"
     id="path336" />
  <path
     style="fill:#ffea0f;fill-opacity:1;stroke:none;stroke-width:0.10216053"
     d="m 25.916885,40.875788 c 1.216623,0.236839 -0.802127,1.332476 -0.172707,0.252285 l 0.07676,-0.118419 0.09595,-0.133866"
     id="path338" />
  <path
     style="fill:#ffea0f;fill-opacity:1;stroke:none;stroke-width:0.10216053"
     d="m 27.01837,41.665594 c 1.216623,0.241987 -0.802766,1.332475 -0.172707,0.252285 l 0.07676,-0.11842 z"
     id="path340" />
  <path
     style="fill:#ffea0f;fill-opacity:1;stroke:none;stroke-width:0.10216053"
     d="m 28.268895,42.369932 c 1.216623,0.236838 -0.800208,1.332475 -0.172707,0.252285 l 0.07676,-0.11842 0.09595,-0.133865"
     id="path342" />
  <path
     style="fill:#ffea0f;fill-opacity:1;stroke:none;stroke-width:0.10216053"
     d="m 29.75865,42.799846 c 1.215984,0.236838 -0.800847,1.33299 -0.172706,0.252284 l 0.07676,-0.118419 0.09595,-0.133865"
     id="path344" />
  <path
     style="fill:#ffea0f;fill-opacity:1;stroke:none;stroke-width:0.10216053"
     d="m 31.288064,43.07324 c 1.215344,0.236839 -0.799568,1.333505 -0.172706,0.252285 l 0.07676,-0.11842 0.09595,-0.133865"
     id="path346" />
  <path
     id="path348"
     d="m 23.490675,50.739091 h 1.29722 v -4.50148 h -1.29722 z"
     style="fill:#ffea0f;fill-opacity:1;stroke:none;stroke-width:0.10216053" />
  <path
     id="path350"
     d="m 27.44374,48.489638 c -0.556499,-0.07723 -0.750954,-0.427339 -0.750954,-1.013258 0,-0.915948 0.744558,-1.173381 1.498071,-1.173381 0.818758,0 1.441142,0.252285 1.441142,1.173381 0,0.555027 -0.147121,0.949415 -0.641574,1.019437 v 0.05149 c 0.642213,0.06178 0.998501,0.597246 0.998501,1.293861 0,1.058051 -1.057989,1.137855 -1.922802,1.137855 -0.792532,0 -1.691246,-0.324366 -1.691246,-1.256275 0,-0.702793 0.415775,-1.111597 1.068862,-1.19552 z m 1.448178,1.019437 c 0,-0.42734 -0.31343,-0.613207 -0.701061,-0.613207 -0.390189,0 -0.701061,0.185352 -0.701061,0.613207 0,0.427339 0.31343,0.613206 0.701061,0.613206 0.383793,0 0.701061,-0.185352 0.701061,-0.613206 z m -1.310652,-1.942078 c 0,0.350109 0.249465,0.555026 0.607672,0.555026 0.358207,0 0.607672,-0.205946 0.607672,-0.555026 0,-0.350109 -0.249465,-0.554511 -0.607672,-0.554511 -0.358207,0 -0.607672,0.205946 -0.607672,0.554511"
     style="fill:#ffea0f;fill-opacity:1;stroke:none;stroke-width:0.10216053" />
  <path
     id="path352"
     d="m 31.696804,49.549749 c 0.121534,0.07723 0.505327,0.314069 0.834749,0.314069 0.454155,0 0.594879,-0.128717 0.594879,-0.509718 0,-0.411894 -0.198293,-0.704338 -0.396586,-0.687862 -0.230276,0 -0.801487,0.102973 -0.834749,0.334663 l -0.715134,-0.272879 0.447758,-2.30197 h 2.532393 v 0.838203 l -1.591461,-0.05149 -0.159914,0.704337 c 0.06397,-0.118419 0.07676,-0.05149 0.5565,-0.05149 0.884642,0 1.430267,0.537006 1.430267,1.368516 0,1.039516 -0.633258,1.60381 -1.668858,1.60381 -0.956924,0 -1.231335,-0.314069 -1.430268,-0.391299 l 0.396586,-0.938602"
     style="fill:#ffea0f;fill-opacity:1;stroke:none;stroke-width:0.10216053" />
  <path
     id="path354"
     d="m 36.423851,49.901403 c 0,0.149311 0.473345,0.06178 0.588482,0.123568 0.115138,0.06178 0.230276,-0.06693 0.371,-0.08753 0.275051,-0.05149 0.649249,-0.247136 0.674836,-0.820698 -0.255862,0.314069 -0.620465,0.288325 -1.032403,0.23169 -0.594879,-0.07723 -1.152018,-0.615266 -1.152018,-1.485905 0,-1.078131 0.614069,-1.544601 1.607452,-1.569314 1.331121,-0.05149 1.854359,1.153301 1.808943,2.507401 0,0.619899 -0.294241,1.31394 -0.556499,1.56571 -0.466948,0.442785 -0.953725,0.546788 -1.37078,0.584374 -0.803406,0.07208 -1.291463,-0.154461 -1.291463,-0.154461 z m 1.031763,-2.76432 c -0.441362,0 -0.707458,0.262582 -0.707458,0.670872 0,0.46338 0.300638,0.670356 0.707458,0.670356 0.473344,0 0.707458,-0.360407 0.707458,-0.670356 0,-0.432488 -0.281448,-0.670872 -0.707458,-0.670872"
     style="fill:#ffea0f;fill-opacity:1;stroke:none;stroke-width:0.10216053" />
  <path
     id="path356"
     d="m 7.586303,16.082379 -0.655646,0.527223 c 0,0 -0.390189,-0.381001 -0.744557,-0.350109 -0.358207,0.05149 -0.742639,0.458231 0.06396,0.968464 0.83411,0.527224 0.976753,1.195006 0.953085,1.730982 0,0.673446 -0.594878,1.153302 -1.191676,1.171837 C 5.088447,20.182263 4.164786,19.57369 4.164786,19.57369 l 0.53731,-0.850045 0.983149,0.411894 c 0,0 0.473344,0 0.390189,-0.499421 -0.08955,-0.499421 -0.995942,-1.41125 -1.2211,-1.81851 -0.358207,-0.645128 0.447758,-1.64191 1.042637,-1.583215 0.889759,0.08753 1.191676,0.205947 1.340716,0.381002 0.14712,0.175054 0.358206,0.468528 0.358206,0.468528"
     style="fill:#ffea0f;fill-opacity:1;stroke:none;stroke-width:0.10216053" />
  <path
     id="path358"
     d="m 8.211886,15.495431 v 1.085854 l 1.0727,-0.08753 v 3.430557 l 1.102125,-0.118419 v -3.402755 l 0.953086,-0.175055 -0.06397,-0.96692 -3.068423,0.236839"
     style="fill:#ffea0f;fill-opacity:1;stroke:none;stroke-width:0.10216053" />
  <path
     style="fill:#ffea0f;fill-opacity:1;stroke:none;stroke-width:0.10216053"
     d="m 14.467068,14.909512 -1.428349,0.11842 -1.013213,4.694555 1.103404,-0.05149 0.268655,-0.732141 1.219822,-0.118419 0.243068,0.499421 0.98123,-0.205947 z m -0.626862,1.349466 0.594879,1.70112 -0.984428,0.144162 z"
     id="path360" />
  <path
     id="path364"
     d="m 15.986887,14.585661 v 0.997812 l 1.22238,-0.144163 0.06396,3.577294 1.310653,-0.205946 v -3.520144 l 0.863533,-0.262582 v -1.026645 l -3.42599,0.585919"
     style="fill:#ffea0f;fill-opacity:1;stroke:none;stroke-width:0.10216053" />
  <path
     id="path366"
     d="m 20.396666,13.824173 0.121534,4.516411 2.859896,-0.411893 -0.06397,-0.938602 -1.668219,0.175054 v -0.761487 l 0.744558,-0.149312 v -0.850045 l -0.655006,0.05149 -0.06397,-0.9108 1.757771,-0.319217 -0.08955,-0.940147 -2.948808,0.558631"
     style="fill:#ffea0f;fill-opacity:1;stroke:none;stroke-width:0.10216053" />
  <path
     style="fill:#ffea0f;fill-opacity:1;stroke:none;stroke-width:0.10216053"
     d="m 28.202371,13.031278 c -0.983789,0.05149 -1.998281,0.615781 -1.878666,2.113013 0.172707,2.167075 1.043277,2.755567 2.05585,2.755567 1.013213,0 1.819178,-1.347406 1.75969,-2.521302 -0.06397,-1.172867 -0.505327,-2.405973 -1.936874,-2.347278 z m 0.06397,0.880422 c 0,-10e-4 0.06397,-5.15e-4 0.06397,0 0.834109,0.05149 0.83347,0.939632 0.83347,1.466856 0,0.528253 -0.121535,1.436478 -0.952446,1.406616 -0.834749,-0.05149 -0.804686,-0.90874 -0.894237,-1.524006 -0.08955,-0.594671 0.434965,-1.316514 0.955644,-1.349466 z"
     id="path368" />
  <path
     id="path372"
     d="m 33.265876,13.149698 -2.412777,-0.06178 v 4.635345 h 1.161613 v -1.964732 h 0.53731 v -0.879907 l -0.53731,-0.05149 v -0.908739 l 1.341356,0.05149 v -0.820182"
     style="fill:#ffea0f;fill-opacity:1;stroke:none;stroke-width:0.10216053" />
  <path
     style="fill:#ffea0f;fill-opacity:1;stroke:none;stroke-width:0.10216053"
     d="m 37.935355,13.44935 c -0.970356,0 -1.973334,0.564294 -1.914486,2.039902 0.08316,2.171708 0.934535,2.793667 1.946469,2.832282 1.012573,0.05149 1.866512,-1.277384 1.853719,-2.451795 0,-1.175441 -0.409379,-2.423993 -1.840287,-2.420389 0,0 0,-5.15e-4 -0.06397,0 z m 0.06396,0.880422 c 0,-5.15e-4 0.06397,0.0021 0.06397,0.0036 0.83219,0.06178 0.79637,0.971039 0.775261,1.498263 0,0.527223 -0.179103,1.430299 -1.010014,1.368515 -0.832191,-0.06178 -0.765027,-0.939631 -0.830272,-1.558501 -0.06397,-0.595701 0.486137,-1.292831 1.00042,-1.311881 z"
     id="path374" />
  <path
     style="fill:#ffea0f;fill-opacity:1;stroke:none;stroke-width:0.10216053"
     d="m 40.786295,13.785043 c -0.102344,10e-4 -0.159913,0 -0.159913,0 l -0.121535,4.925731 0.952446,0.175054 0.06397,-1.114686 1.637515,1.495173 0.179104,-1.026645 -0.832831,-0.849015 c 0,0 1.162253,-0.61784 1.132189,-1.320633 0,-0.703308 -0.211086,-1.554898 -1.251164,-1.964217 -0.749676,-0.293474 -1.329203,-0.334663 -1.595939,-0.334663 z m 1.035601,1.260909 c 0.153517,-0.0041 0.35181,0 0.530913,0.09783 0.39019,0.175054 0.268655,0.878877 0.147121,1.232076 -0.121534,0.350109 -1.042637,0.406744 -1.042637,0.406744 l 0.06397,-1.701119 c 0,0 0.12793,-0.05149 0.300637,-0.05149 z"
     id="path378" />
  <path
     id="path382"
     d="m 44.736162,14.732913 -0.300637,4.546273 2.472904,0.528769 0.06397,-0.997812 -1.310652,-0.411894 v -0.7342 h 0.68507 V 16.69713 l -0.626862,-0.11842 v -0.790835 l 1.191677,0.144163 0.06396,-0.880423 -2.293801,-0.324366"
     style="fill:#ffea0f;fill-opacity:1;stroke:none;stroke-width:0.10216053" />
  <path
     id="path384"
     d="m 51.052112,16.609602 -0.715774,0.528768 c 0,0 -0.415775,-0.762002 -1.160973,-0.350109 -0.745197,0.411893 -0.745197,1.173896 -0.626861,1.70112 0.121534,0.528253 0.275051,1.046724 0.774622,1.115201 0.864173,0.11842 0.655645,-0.411893 0.655645,-0.411893 l -0.537309,-0.05663 v -0.96795 l 1.609371,0.08753 c 0,0 0.06397,1.711417 -0.358207,2.023941 -0.505327,0.381002 -1.683571,0.688892 -2.412777,-0.05149 -0.626862,-0.61681 -0.859056,-1.475608 -0.744558,-2.404428 0.07036,-0.585918 0.358207,-1.555412 0.923022,-1.848371 0.569292,-0.293475 1.251164,-0.381002 1.608731,-0.231691 0.358206,0.144163 1.013213,0.850561 1.013213,0.850561"
     style="fill:#ffea0f;fill-opacity:1;stroke:none;stroke-width:0.10216053" />
  <path
     style="fill:#ffea0f;fill-opacity:1;stroke:none;stroke-width:0.10216053"
     d="m 53.620325,16.198739 c -0.983789,0.05149 -1.995083,0.617325 -1.875467,2.113013 0.172707,2.168619 1.042637,2.756082 2.05585,2.756082 1.012573,0 1.815979,-1.347922 1.756491,-2.521303 -0.06396,-1.173896 -0.505327,-2.406487 -1.936874,-2.347792 z m 0.06397,0.880937 c 0,-0.001 0.06397,-5.15e-4 0.06397,0 0.83411,0.05149 0.83347,0.938087 0.83347,1.466855 0,0.527224 -0.121535,1.435963 -0.952446,1.406101 -0.834109,-0.05149 -0.804685,-0.907195 -0.894237,-1.523491 -0.08955,-0.59776 0.441362,-1.322177 0.962041,-1.349465 z"
     id="path386" />
  <path
     id="path390"
     d="m 56.295361,16.376368 0.06396,4.545758 1.013213,-0.05149 V 18.93577 l 1.310012,1.758785 h 1.132189 l -0.147121,-4.633801 -1.042636,0.08753 0.121534,2.404428 -1.727707,-2.228344 -0.744558,0.05149"
     style="fill:#ffea0f;fill-opacity:1;stroke:none;stroke-width:0.10216053" />
  <path
     style="fill:#ffea0f;fill-opacity:1;stroke:none;stroke-width:0.10216053"
     d="m 42.48074,30.579997 c -1.22174,0.211096 0.771424,1.351011 0.166311,0.257434 l -0.07036,-0.11842 -0.09595,-0.133865"
     id="path392" />
  <path
     style="fill:#ffea0f;fill-opacity:1;stroke:none;stroke-width:0.10216053"
     d="m 42.486497,29.212511 c -1.2211,0.211096 0.770144,1.351526 0.16631,0.257434 l -0.07036,-0.11842 -0.09595,-0.133865"
     id="path394" />
  <path
     style="fill:#ffea0f;fill-opacity:1;stroke:none;stroke-width:0.10216053"
     d="m 42.068163,27.686961 c -1.18464,0.360407 0.931977,1.247007 0.198293,0.23169 l -0.08955,-0.108122 -0.108741,-0.123568"
     id="path396" />
  <path
     style="fill:#ffea0f;fill-opacity:1;stroke:none;stroke-width:0.10216053"
     d="m 41.568593,26.28189 c -1.18592,0.360406 0.934535,1.244433 0.198293,0.23169 l -0.08955,-0.108122 -0.108741,-0.123568"
     id="path398" />
  <path
     style="fill:#ffea0f;fill-opacity:1;stroke:none;stroke-width:0.10216053"
     d="m 42.384153,31.893423 c -1.22366,0.195649 0.750314,1.361822 0.159913,0.257433 l -0.07036,-0.123568 z"
     id="path400" />
  <path
     style="fill:#ffea0f;fill-opacity:1;stroke:none;stroke-width:0.10216053"
     d="m 42.214004,33.302613 c -1.224298,0.195649 0.750955,1.361308 0.166311,0.257433 l -0.07036,-0.123568 -0.08955,-0.139014"
     id="path402" />
  <path
     style="fill:#ffea0f;fill-opacity:1;stroke:none;stroke-width:0.10216053"
     d="m 41.74066,34.594929 c -1.233254,0.139014 0.686349,1.395803 0.153517,0.262582 l -0.06396,-0.123568 z"
     id="path404" />
  <path
     style="fill:#ffea0f;fill-opacity:1;stroke:none;stroke-width:0.10216053"
     d="m 41.27691,35.774488 c -1.232614,0.139014 0.686989,1.395289 0.153518,0.267731 l -0.06397,-0.123568 z"
     id="path406" />
  <path
     style="fill:#ffea0f;fill-opacity:1;stroke:none;stroke-width:0.10216053"
     d="m 40.562416,37.00605 c -1.231335,0.133865 0.683791,1.395804 0.153517,0.262582 l -0.06397,-0.123568 z"
     id="path408" />
  <path
     style="fill:#ffea0f;fill-opacity:1;stroke:none;stroke-width:0.10216053"
     d="m 39.787795,38.179946 c -1.231975,0.133865 0.68379,1.395289 0.153517,0.267731 l -0.06397,-0.123568 z"
     id="path410" />
  <path
     style="fill:#ffea0f;fill-opacity:1;stroke:none;stroke-width:0.10216053"
     d="m 38.913387,39.236453 c -1.209587,0.52156 0.972914,1.02407 0,0 z"
     id="path412" />
  <path
     style="fill:#ffea0f;fill-opacity:1;stroke:none;stroke-width:0.10216053"
     d="m 37.821496,40.23272 c -1.231335,0.133865 0.684431,1.395289 0.153517,0.267731 l -0.06396,-0.123569 z"
     id="path414" />
  <path
     style="fill:#ffea0f;fill-opacity:1;stroke:none;stroke-width:0.10216053"
     d="m 36.588882,40.993178 c -1.215983,0.236839 0.802127,1.33299 0.172707,0.252285 l -0.07676,-0.11842 z"
     id="path416" />
  <path
     style="fill:#ffea0f;fill-opacity:1;stroke:none;stroke-width:0.10216053"
     d="m 35.487397,41.781954 c -1.216623,0.236839 0.801487,1.335049 0.172707,0.252285 l -0.07676,-0.11842 -0.09595,-0.133865"
     id="path418" />
  <path
     style="fill:#ffea0f;fill-opacity:1;stroke:none;stroke-width:0.10216053"
     d="m 34.236872,42.486292 c -1.215983,0.236838 0.799568,1.333505 0.172707,0.252284 l -0.07676,-0.118419 -0.09595,-0.133865"
     id="path420" />
  <path
     style="fill:#ffea0f;fill-opacity:1;stroke:none;stroke-width:0.10216053"
     d="m 32.746477,42.916205 c -1.215983,0.241988 0.802766,1.332991 0.172707,0.252285 l -0.07676,-0.118419 z"
     id="path422" />
</svg>
