<?xml version="1.0" encoding="UTF-8" standalone="no"?>
<!-- Generator: Adobe Illustrator 26.2.1, SVG Export Plug-In . SVG Version: 6.00 Build 0)  -->

<svg
   version="1.1"
   id="Layer_1"
   x="0px"
   y="0px"
   viewBox="0 0 582.66999 582.66998"
   xml:space="preserve"
   width="582.66998"
   height="582.66998"
   xmlns="http://www.w3.org/2000/svg"
   xmlns:svg="http://www.w3.org/2000/svg"><defs
   id="defs29" />
<style
   type="text/css"
   id="style1">
	.st0{fill:#FFFFFF;}
</style>
<g
   id="layer3"
   transform="translate(-8.5449219e-6,183.54999)"><rect
     style="opacity:1;fill:#ffffff;fill-opacity:1"
     id="rect6"
     width="582.66998"
     height="582.66998"
     x="8.5449219e-06"
     y="-183.54999" /></g><g
   id="g1"
   transform="translate(-2.5634766e-5,183.54999)">
	<path
   class="st0"
   d="m 474.3,93.78 -45.46,80.33 c -10.64,18.42 2.66,41.45 23.93,41.45 h 19.4 15.64 25.81 l 23.93,-41.45 h -26.03 l 45.95,-80.33 z m -169.83,80.33 c -10.64,18.42 2.66,41.45 23.93,41.45 h 35.04 0.74 40.71 l 23.93,-41.45 h -41.18 l 45.47,-80.33 h -82.27 z m -140.95,0 c -10.64,18.42 2.66,41.45 23.93,41.45 h 43.33 0.83 36.82 l 23.36,-41.45 H 255.13 L 300.7,93.78 h -91.63 l -40.87,72.04 h 0.09 z M 0,215.57 H 89.84 L 159.37,93.79 H 100.2 c -18.79,0 -36.3,10.11 -45.7,26.39 z M 199.03,88.77 221.56,49.74 H 180.1 126.28 c -19.75,0 -37.99,10.54 -47.87,27.64 L 64.85,100.9 c 9.98,-7.72 22.39,-12.12 35.36,-12.12 h 98.82 z M 362.51,49.75 H 325.27 L 353.48,0 h -91.2 l -50.36,88.77 h 128.05 z m 73.44,39.02 22.09,-39.03 h -49.86 c -19.75,0 -37.99,10.54 -47.87,27.64 l -6.58,11.39 z M 582.67,49.75 h -50.12 -74.5 l -22.03,39.03 h 124.33 z"
   id="path1"
   style="fill:#3d3936;fill-opacity:1" />
<path
   style="fill:#3d3936;fill-opacity:1;stroke-width:0.705034"
   d="m 66.978192,98.264472 c 0,-0.53081 12.823731,-22.410996 14.768547,-25.198482 2.65099,-3.799641 10.062775,-10.928636 14.358191,-13.81037 4.18654,-2.808691 10.81097,-5.848872 16.37335,-7.514308 3.83702,-1.14884 8.75934,-1.280156 56.27843,-1.501375 l 52.07365,-0.242422 -2.49142,4.436395 c -1.37029,2.440018 -6.25713,10.940331 -10.85964,18.889585 l -8.36822,14.453189 -53.5521,0.393091 c -61.134672,0.448751 -58.315937,0.177536 -71.70671,6.899509 -3.780743,1.897877 -6.874078,3.335712 -6.874078,3.195188 z"
   id="path29" /><path
   style="fill:#3d3936;fill-opacity:1;stroke-width:0.705034"
   d="m 29.067102,165.51188 28.270607,-49.53385 6.406568,-6.37631 c 5.405743,-5.38021 7.452886,-6.88534 13.104386,-9.634739 11.65264,-5.668906 11.515286,-5.651984 48.823577,-6.015189 18.12818,-0.176482 32.96032,-0.16964 32.96032,0.01521 0,0.184845 -15.47842,27.421498 -34.39649,60.525908 l -34.3965,60.18982 -44.521536,0.1815 -44.52153794,0.1815 z"
   id="path30" /><path
   style="fill:#3d3936;fill-opacity:1;stroke-width:0.705034"
   d="m 178.53011,213.64537 c -8.7722,-3.15664 -15.0538,-10.11086 -17.53139,-19.40861 -1.2875,-4.83167 -1.19047,-8.63926 0.34596,-13.57583 0.76412,-2.45513 10.99022,-21.2685 24.75211,-45.53748 l 23.45006,-41.353981 h 45.36303 45.36302 l -2.73072,4.758977 c -1.50189,2.617434 -11.76639,20.696344 -22.80999,40.175344 l -20.07927,35.41636 18.23022,0.18783 18.23022,0.18784 -11.42403,20.26636 -11.42404,20.26636 -43.00705,-0.0221 c -40.43827,-0.0208 -43.22931,-0.10206 -46.72813,-1.36109 z"
   id="path31" /><path
   style="fill:#3d3936;fill-opacity:1;stroke-width:0.705034"
   d="m 215.5081,83.314265 c 1.48489,-2.652343 12.69365,-22.474552 24.90836,-44.049348 L 262.62502,0.0380164 307.64634,0.0190082 c 37.76844,-0.01594603 44.9618,0.13611633 44.65182,0.94390717 -0.20323,0.52960343 -6.42385,11.63013163 -13.82359,24.66784063 -7.39974,13.03771 -13.45408,23.862042 -13.45408,24.054072 0,0.192031 8.24004,0.43373 18.31119,0.537111 l 18.31119,0.187964 -10.79552,18.68339 -10.79551,18.683391 -63.62177,0.180016 -63.62178,0.180016 z"
   id="path32" /></g>













</svg>
