<?xml version="1.0" encoding="UTF-8" standalone="no"?>
<!-- Created with Inkscape (http://www.inkscape.org/) -->

<svg
   xmlns:dc="http://purl.org/dc/elements/1.1/"
   xmlns:cc="http://creativecommons.org/ns#"
   xmlns:rdf="http://www.w3.org/1999/02/22-rdf-syntax-ns#"
   xmlns:svg="http://www.w3.org/2000/svg"
   xmlns="http://www.w3.org/2000/svg"
   xmlns:sodipodi="http://sodipodi.sourceforge.net/DTD/sodipodi-0.dtd"
   xmlns:inkscape="http://www.inkscape.org/namespaces/inkscape"
   width="64"
   height="64"
   viewBox="0 0 64.000001 64.000001"
   id="svg4136"
   version="1.1"
   inkscape:version="0.91 r13725"
   inkscape:export-filename="/home/master/network_mvg_logo.png"
   inkscape:export-xdpi="90"
   inkscape:export-ydpi="90"
   sodipodi:docname="network_gvh_logo.svg">
  <defs
     id="defs4138">
    <clipPath
       id="clipPath3470"
       clipPathUnits="userSpaceOnUse">
      <path
         inkscape:connector-curvature="0"
         id="path3472"
         d="m 0,0 937.559,0 0,841.89 L 0,841.89 0,0 Z" />
    </clipPath>
    <clipPath
       id="clipPath3506"
       clipPathUnits="userSpaceOnUse">
      <path
         inkscape:connector-curvature="0"
         id="path3508"
         d="m 1119.766,4.513 39.711,0 0,26.33 -39.711,0 0,-26.33 z" />
    </clipPath>
  </defs>
  <sodipodi:namedview
     id="base"
     pagecolor="#000000"
     bordercolor="#666666"
     borderopacity="1.0"
     inkscape:pageopacity="1"
     inkscape:pageshadow="2"
     inkscape:zoom="4.8097919"
     inkscape:cx="54.35155"
     inkscape:cy="48.917546"
     inkscape:document-units="px"
     inkscape:current-layer="layer1"
     showgrid="true"
     units="px"
     inkscape:window-width="1920"
     inkscape:window-height="1012"
     inkscape:window-x="1440"
     inkscape:window-y="0"
     inkscape:window-maximized="1"
     showguides="false">
    <inkscape:grid
       type="xygrid"
       id="grid4856"
       enabled="false" />
  </sodipodi:namedview>
  <metadata
     id="metadata4141">
    <rdf:RDF>
      <cc:Work
         rdf:about="">
        <dc:format>image/svg+xml</dc:format>
        <dc:type
           rdf:resource="http://purl.org/dc/dcmitype/StillImage" />
        <dc:title></dc:title>
        <cc:license
           rdf:resource="http://creativecommons.org/publicdomain/zero/1.0/" />
      </cc:Work>
      <cc:License
         rdf:about="http://creativecommons.org/publicdomain/zero/1.0/">
        <cc:permits
           rdf:resource="http://creativecommons.org/ns#Reproduction" />
        <cc:permits
           rdf:resource="http://creativecommons.org/ns#Distribution" />
        <cc:permits
           rdf:resource="http://creativecommons.org/ns#DerivativeWorks" />
      </cc:License>
    </rdf:RDF>
  </metadata>
  <g
     inkscape:label="Ebene 1"
     inkscape:groupmode="layer"
     id="layer1"
     transform="translate(0,-988.36216)">
    <polygon
       id="polygon5"
       points="310.393,153.07 310.393,0 0,0 0,0 0,153.07 "
       style="fill:#1b325f"
       transform="matrix(0.20619022,0,0,0.41810936,0,988.36216)" />
    <polygon
       id="polygon7"
       points="110.571,34.016 148.11,119.055 158.031,119.055 195.59,34.016 175.748,34.016 175.748,34.016 153.071,87.874 130.393,34.016 "
       style="fill:#ffffff"
       transform="matrix(0.20619022,0,0,0.20619022,-5e-7,1004.5814)" />
    <polygon
       id="polygon9"
       points="276.378,34.017 257.952,34.017 257.952,68.033 218.267,68.031 218.267,34.015 199.842,34.015 199.842,119.054 218.267,119.054 218.267,85.039 257.952,85.04 257.952,119.056 276.378,119.056 276.378,119.056 "
       style="fill:#ffffff"
       transform="matrix(0.20619022,0,0,0.20619022,-5e-7,1004.5814)" />
    <path
       id="path11"
       d="m 24.372508,1018.6089 -8.59174,0 0,3.5079 5.145683,0 c -0.83136,2.7178 -3.344612,4.0933 -5.588993,4.0933 -3.248114,0 -5.8906476,-2.6427 -5.8906476,-5.8909 0,-3.2481 2.6425336,-5.8908 5.8906476,-5.8908 1.160851,0 2.372012,0.3301 3.48544,1.141 l 2.340877,-2.332 c -1.724162,-1.4087 -3.78792,-2.0809 -5.826317,-2.0809 -5.077434,0 -9.2084544,4.1311 -9.2084544,9.2089 0,5.0776 4.1310204,9.2084 9.2084544,9.2084 4.887327,0 8.925563,-3.8188 9.193609,-8.6944 8.36e-4,-0.015 0.0019,-0.029 0.0031,-0.041 0.008,-0.1545 0.01217,-0.3153 0.01217,-0.4726 0,-0.4803 -0.05979,-1.2159 -0.173818,-1.7565 l 0,0 z"
       inkscape:connector-curvature="0"
       style="fill:#ffffff" />
  </g>
</svg>
