<?xml version="1.0" encoding="UTF-8" standalone="no"?>
<!-- Created with Inkscape (http://www.inkscape.org/) -->

<svg
   xmlns:dc="http://purl.org/dc/elements/1.1/"
   xmlns:cc="http://creativecommons.org/ns#"
   xmlns:rdf="http://www.w3.org/1999/02/22-rdf-syntax-ns#"
   xmlns:svg="http://www.w3.org/2000/svg"
   xmlns="http://www.w3.org/2000/svg"
   xmlns:sodipodi="http://sodipodi.sourceforge.net/DTD/sodipodi-0.dtd"
   xmlns:inkscape="http://www.inkscape.org/namespaces/inkscape"
   id="svg4344"
   version="1.1"
   inkscape:version="0.91 r13725"
   xml:space="preserve"
   width="64"
   height="64"
   viewBox="0 0 64.000001 64.000001"
   sodipodi:docname="network_mvv_logo.svg"
   inkscape:export-filename="/tmp/Transportr/res/drawable-xhdpi/network_mvv_logo.png"
   inkscape:export-xdpi="3.5758088"
   inkscape:export-ydpi="3.5758088"><title
     id="title4747">Logo of M端nchner Verkehrs- und Tarifverbund (MVV)</title><metadata
     id="metadata4350"><rdf:RDF><cc:Work
         rdf:about=""><dc:format>image/svg+xml</dc:format><dc:type
           rdf:resource="http://purl.org/dc/dcmitype/StillImage" /><dc:title>Logo of M端nchner Verkehrs- und Tarifverbund (MVV)</dc:title><dc:source>https://de.wikipedia.org/wiki/Datei:M%C3%BCnchner_Verkehrs-_und_Tarifverbund.svg</dc:source><dc:subject><rdf:Bag><rdf:li>MVV</rdf:li><rdf:li>M端nchner Verkehrs- und Tarifverbund</rdf:li><rdf:li>M端nchen</rdf:li></rdf:Bag></dc:subject><dc:rights><cc:Agent><dc:title>Image contains a Trademark</dc:title></cc:Agent></dc:rights></cc:Work></rdf:RDF></metadata><defs
     id="defs4348" /><sodipodi:namedview
     pagecolor="#ffffff"
     bordercolor="#666666"
     borderopacity="1"
     objecttolerance="10"
     gridtolerance="10"
     guidetolerance="10"
     inkscape:pageopacity="1"
     inkscape:pageshadow="2"
     inkscape:window-width="1920"
     inkscape:window-height="1012"
     id="namedview4346"
     showgrid="false"
     inkscape:zoom="7.9225664"
     inkscape:cx="42.989376"
     inkscape:cy="21.275862"
     inkscape:window-x="1440"
     inkscape:window-y="0"
     inkscape:window-maximized="1"
     inkscape:current-layer="g4352"
     fit-margin-top="0"
     fit-margin-left="0"
     fit-margin-right="0"
     fit-margin-bottom="0" /><g
     id="g4352"
     inkscape:groupmode="layer"
     inkscape:label="mvv"
     transform="matrix(1.25,0,0,-1.25,31.976778,64.000028)"><rect
       style="opacity:1;fill:#ffffff;fill-opacity:1;fill-rule:nonzero;stroke:none;stroke-width:2.03600001;stroke-linecap:round;stroke-linejoin:round;stroke-miterlimit:4;stroke-dasharray:none;stroke-dashoffset:0;stroke-opacity:1"
       id="rect4179"
       width="51.200001"
       height="51.200001"
       x="-25.581423"
       y="-51.200024"
       transform="scale(1,-1)" /><path
       inkscape:connector-curvature="0"
       id="path4356"
       style="fill:#1f1a17;fill-opacity:1;fill-rule:nonzero;stroke:none"
       d="m -0.97860018,28.873659 3.09653548,0 -6.3037261,-17.584795 -2.875378,0 0,17.584795 2.875378,0 0,-8.832579 3.20719062,8.832579 z" /><path
       style="fill:#1f1a17;fill-opacity:1;fill-rule:nonzero;stroke:none"
       d="m 5.9093885,37.112511 c -2.5654038,-0.112401 -5.06148272,-0.961531 -7.23797,-2.30473 -1.5500166,-1.054718 -2.9757193,-2.347601 -4.032592,-3.887507 0.2880347,-0.776573 2.2281695,-0.389611 3.0125687,0.04979 1.0841842,1.019025 2.19625877,2.039559 3.5901948,2.664649 2.850568,1.322999 6.2387575,1.550249 9.199014,0.470604 1.102807,-0.428962 2.281419,-1.404366 2.847594,0.09249 1.426518,1.285537 -1.385036,1.730728 -2.266496,2.167131 -1.6647979,0.526849 -3.3673906,0.774196 -5.1123135,0.747581 z M 16.561924,32.79462 C 14.96704,32.272694 15.262764,30.335026 16.419342,29.555597 17.348823,28.131184 18.09733,26.562706 18.348705,24.870369 18.808522,23.0295 18.555322,21.069008 18.120086,19.249785 17.100809,15.861055 14.609393,12.95387 11.351994,11.53782 9.8381392,10.907208 8.1971701,10.444906 6.5445414,10.538364 4.614805,10.384796 2.7600039,11.110208 1.0003256,11.793293 -0.02250882,12.065414 -1.2368426,14.139107 -1.7183961,12.327454 -2.8301147,10.637491 -0.40194827,9.9705714 0.73798705,9.4225356 2.7974578,8.582392 5.007028,7.984297 7.251115,8.2639556 c 3.272239,0.1488578 6.501846,1.504872 8.934644,3.6945144 2.855308,2.665852 4.691649,6.482768 4.68159,10.413927 0.05592,1.44 -0.182114,2.899854 -0.540121,4.289231 -0.735045,2.265088 -1.846472,4.518436 -3.66544,6.105468 l -0.07535,0.02077 -0.02447,0.0067 c 0,0 -4.4e-5,4e-6 -4.4e-5,4e-6 z"
       id="path4358"
       inkscape:connector-curvature="0" /><path
       inkscape:connector-curvature="0"
       id="path4362"
       style="fill:#006cae;fill-opacity:1;fill-rule:nonzero;stroke:none"
       d="m -1.199834,29.114468 3.2070888,0 -6.4141776,-17.584667 -2.9859568,0 0,17.584667 2.9859568,0 0,-8.832452 3.2070888,8.832452 z" /><path
       style="fill:#009b87;fill-opacity:1;fill-rule:nonzero;stroke:none"
       d="M 6.8726027,37.298058 C 4.5283483,37.141031 4.8135429,37.243912 2.1199784,36.642234 0.37059443,36.061993 -1.3539065,35.323001 -2.7516975,34.093952 -3.9051544,33.208315 -4.804952,31.894996 -5.5346551,30.615027 c 1.1639389,-0.127521 2.4285981,-0.222547 3.2702431,0.841244 1.64895248,1.692599 3.8472813,2.799707 6.1323509,3.291535 1.7731874,0.134981 2.8232649,0.592197 4.8453694,-0.07996 1.0842877,-0.145095 2.1345047,-0.620784 3.0705827,-1.139801 0.831579,-0.43265 1.641765,1.437355 1.710234,1.82316 -1.379229,0.737744 -2.835998,1.344298 -4.3843396,1.600547 -0.7280832,0.26744 -1.4998439,0.200351 -2.2371827,0.346306 z m 9.4095893,-4.286152 c -1.721157,-0.630923 -1.078536,-2.589489 0.0099,-3.466389 1.275506,-2.010679 2.031545,-4.378583 2.022541,-6.764305 -0.0316,-2.480429 -0.786208,-4.983279 -2.299161,-6.973304 -1.346695,-2.114323 -3.568618,-3.55829 -5.890733,-4.416633 C 8.2782203,10.728475 6.2785478,10.590839 4.3410699,10.800282 2.5463966,11.195784 0.73839459,11.762675 -0.73175513,12.90193 -1.7452648,14.338461 -2.6685262,11.40698 -1.5135224,10.652338 -0.00988415,9.5590592 1.8304582,9.087977 3.5904626,8.591058 8.9637922,7.736546 14.865234,9.9528326 17.943709,14.530845 c 2.267847,3.100035 3.09184,7.115138 2.448889,10.883747 -0.475136,2.723854 -1.80429,5.292115 -3.670006,7.319304 l -0.208387,0.152921 z"
       id="path4364"
       inkscape:connector-curvature="0"
       sodipodi:nodetypes="ccccccccccccccccccccccccc" /><path
       inkscape:connector-curvature="0"
       id="path4372"
       style="fill:#1f1a17;fill-opacity:1;fill-rule:nonzero;stroke:none"
       d="m -20.884911,20.121417 0,-8.832553 -2.875378,0 0,17.504432 2.875378,0 4.423608,-12.204925 4.534161,12.204925 2.8753777,0 0,-17.424094 -2.9859567,0 0,8.752215 -3.207089,-8.832553 -2.322433,0 -3.317668,8.832553 z" /><path
       inkscape:connector-curvature="0"
       id="path4374"
       style="fill:#006cae;fill-opacity:1;fill-rule:nonzero;stroke:none"
       d="m -21.106145,20.362252 0,-8.832451 -2.875276,0 0,17.584667 2.875276,0 4.423684,-12.285161 4.534161,12.285161 2.8753783,0 0,-17.504431 -2.9859313,0 0,8.752215 -3.207114,-8.832451 -2.322408,0 -3.31777,8.832451 z" /><path
       style="fill:#1f1a17;fill-opacity:1;fill-rule:nonzero;stroke:none"
       d="m 23.461871,42.845043 c -1.103387,-0.316096 -1.782454,-1.31208 -2.759264,-1.785004 -0.697687,-0.754564 -1.615417,-1.38846 -2.23052,-2.276137 -1.055359,-0.586139 -1.885665,-1.764399 -2.72326,-2.71856 C 14.843426,35.029455 13.39128,34.044498 13.21832,32.624755 13.145844,33.757784 12.205386,31.42689 11.70873,31.208896 10.835726,30.177524 10.151721,29.082241 9.4741886,27.952093 8.7154274,26.743316 8.1546078,25.427289 7.5968319,24.117551 7.2616982,23.391023 6.9556217,21.621719 6.1965796,21.761263 6.1534367,22.918015 6.3388732,24.124466 6.0423952,25.274917 5.7546287,26.389141 6.3431532,27.691298 5.6500861,28.675652 4.6047997,29.734876 2.6395446,28.560553 3.0460542,27.113958 3.2161881,23.672846 3.1832957,20.219192 3.1693567,16.779755 3.1220947,15.270448 3.1233388,13.75922 3.0141549,12.254916 c 0.094672,-1.276118 2.324853,-0.819079 3.2647408,-0.371796 0.7962659,0.665519 0.3008004,2.148345 0.9021394,3.089142 0.3827152,1.206834 0.9437034,2.284352 1.2105904,3.542362 0.3831147,1.424062 1.0745193,2.756049 1.5398705,4.100735 0.5704,1.339571 1.01984,2.63812 1.820017,3.807628 0.563667,1.174682 1.549601,2.33325 1.855562,3.474702 0.651506,1.017888 1.365233,1.835992 1.95164,2.861744 1.04305,0.971287 1.500589,2.320083 2.686179,3.184186 1.078243,1.452923 2.347086,2.824077 3.808695,3.912972 0.259828,0.433031 -0.426759,1.430146 0.31187,0.995717 -0.436021,0.926818 1.943984,1.375215 1.421679,1.973944 -0.109175,-0.0051 -0.217115,0.0086 -0.325267,0.01879 z M 20.58382,40.190899 c -0.504907,-0.03361 0.510889,0.480669 0,0 z m 0.300095,-0.04941 c -0.597334,-0.197867 0.207523,0.306429 0,0 z m 0.231875,-1.059688 0.05388,0.06803 -0.05388,-0.06803 z m 1.132083,2.257981 c -0.834933,-0.618477 0.103076,0.839068 0,0 z m 0.272857,0.376257 c -0.423387,-0.610714 -0.07412,0.615427 0,0 z m 0.340951,0.356581 c -0.215599,-0.202429 -0.141503,0.289126 0,0 z"
       id="path4376"
       inkscape:connector-curvature="0" /><path
       inkscape:connector-curvature="0"
       id="path4378"
       style="fill:#1f1a17;fill-opacity:1;fill-rule:nonzero;stroke:none"
       d="m 14.504026,31.041654 0.02724,0.02963 c -0.01362,0 -0.02724,0 -0.04086,0.0099 l 0.01362,-0.03956 z" /><path
       inkscape:connector-curvature="0"
       id="path4380"
       style="fill:#1f1a17;fill-opacity:1;fill-rule:nonzero;stroke:none"
       d="m 13.176954,33.209547 0,-0.0099 c 0,0.0099 0,0.0099 0.01362,0.01978 l -0.01362,-0.0099 z" /><path
       style="fill:#006cae;fill-opacity:1;fill-rule:nonzero;stroke:none"
       d="M 23.240638,43.005642 C 22.112456,42.683604 21.428011,41.703857 20.454568,41.186089 19.775614,40.468636 18.875216,39.816003 18.250406,38.941064 17.206912,38.374872 16.409154,37.198072 15.575351,36.269411 14.651692,35.240492 13.318259,34.275595 12.997188,32.894553 12.75508,33.729925 11.92101,31.417379 11.302285,31.150597 10.524038,30.152581 9.8445414,29.094324 9.1831274,28.037955 8.5237731,26.868787 7.9594644,25.643313 7.420714,24.414825 7.102342,23.635713 6.7005766,21.826051 5.9899524,21.932937 c -0.039997,1.356299 0.1027511,2.721459 -0.2393674,4.051709 0.2218509,1.375475 0.035536,3.939678 -1.995241,3.101997 -1.4785795,-0.628479 -0.761382,-2.450694 -0.8582996,-3.660107 0.07026,-1.910632 0.073137,-3.821117 0.050901,-5.733357 -0.00179,-1.33417 0.1194098,-2.68561 -0.071041,-3.997883 0.2523766,-1.280997 -0.2926017,-2.625538 -0.00384,-3.884899 1.1575582,-0.331313 3.6061931,-0.433996 3.6132935,1.204049 0.1801903,1.470697 0.6556966,2.884477 1.3038727,4.197205 0.3347378,1.584217 0.9192716,3.115396 1.5499293,4.603647 0.5926521,1.246695 1.0184909,2.769624 1.6956109,3.965084 0.852004,1.174117 1.37067,2.595415 2.246524,3.723518 0.294844,0.986235 0.990141,1.938675 1.693436,2.749023 0.65136,1.133444 1.588758,2.087032 2.289971,3.167292 1.193218,1.018642 1.999092,2.407375 3.199772,3.445098 0.774266,0.711015 1.845548,1.208557 1.324241,2.262869 0.591618,-0.516436 0.09216,0.651595 0.839481,0.792296 0.234568,0.31564 2.022512,1.153793 0.611444,1.085164 z M 20.362663,40.3516 c -0.486763,-0.01986 0.475763,0.411294 0,0 z m 0.300095,-0.04951 c -0.307444,-0.02779 0.151834,0.258826 0,0 z m 0.2319,-1.069641 0.05386,0.06804 -0.05386,-0.06804 z m 1.132057,2.25798 c -0.681346,-0.598884 -0.117155,0.667854 0,0.02049 l 0,-0.02049 z m 0.272858,0.386211 c -0.384097,-0.663446 -0.120212,0.654257 0,0 z m 0.340976,0.346628 c -0.402027,-0.22145 -0.05325,0.340362 0,0 z"
       id="path4382"
       inkscape:connector-curvature="0" /><path
       inkscape:connector-curvature="0"
       id="path4384"
       style="fill:#006cae;fill-opacity:1;fill-rule:nonzero;stroke:none"
       d="m 14.282869,31.282463 0.04088,0.02973 c -0.02724,0 -0.04088,0 -0.0546,0.01981 l 0.01372,-0.04954 z" /><path
       inkscape:connector-curvature="0"
       id="path4386"
       style="fill:#006cae;fill-opacity:1;fill-rule:nonzero;stroke:none"
       d="m 12.955721,33.370121 0,-0.0099 c 0,0.0099 0,0.0198 0.01372,0.0198 l -0.01372,-0.01 z" /></g></svg>