<?xml version="1.0" encoding="UTF-8" standalone="no"?>
<svg
   xmlns="http://www.w3.org/2000/svg"
   height="64"
   width="64"
   version="1.0">
  <rect
     y="0"
     x="0"
     height="64"
     width="64"
     style="opacity:1;fill:#ffffff;fill-opacity:1" />
  <path
     id="path2879"
     d="M 0,28.167578 V 49.501562 H 64 V 28.167578 Z m 39.111328,3.55664 h 4.128906 l -5.566406,5.476563 h 6.917969 v -5.476563 h 3.259765 v 5.476563 h 6.917969 l -5.568359,-5.476563 h 4.130859 l 7.111328,7.109375 -7.111328,7.111328 h -4.130859 l 5.568359,-5.478515 h -6.917969 v 5.478515 h -3.259765 v -5.478515 h -6.917969 l 5.566406,5.478515 H 39.111328 L 32,38.833593 Z"
     style="font-size:medium;font-family:fnt0;letter-spacing:0.51599997;word-spacing:0;fill:#ec1b24;fill-rule:nonzero;stroke:none;stroke-width:1.88124633" />
  <path
     d="m 4.7833237,18.75651 c -0.017096,1.51786 1.2588134,2.190309 2.6207694,2.190309 1.672986,0 2.561054,-0.844634 2.561054,-1.97469 0,-1.39609 -1.3798,-1.680737 -1.828104,-1.792424 -1.54345,-0.39711 -1.835853,-0.457607 -1.835853,-0.931502 0,-0.517328 0.499489,-0.698045 0.930723,-0.698045 0.646851,0 1.172714,0.189248 1.215376,0.930726 h 1.310772 c 0,-1.422459 -1.181253,-1.982446 -2.46565,-1.982446 -1.112217,0 -2.3020012,0.60342 -2.3020012,1.862228 0,1.154876 0.9222002,1.508552 1.8366352,1.749765 0.90513,0.241213 1.827331,0.353676 1.827331,1.016818 0,0.629792 -0.724419,0.76785 -1.198316,0.76785 -0.72441,0 -1.361965,-0.31955 -1.361965,-1.138589"
     style="font-size:medium;font-family:fnt0;letter-spacing:0.51599997;word-spacing:0;fill:#231f20;fill-rule:nonzero;stroke:none;stroke-width:0.77560514"
     id="path2883" />
  <path
     d="m 12.153901,15.696747 h 1.267343 c 0.482428,0 0.930723,0.12022 0.930723,0.706577 0,0.517329 -0.353674,0.732947 -0.827571,0.732947 h -1.370495 z m -1.353426,5.103483 h 2.982201 c 1.112216,0 2.173239,-0.534392 2.173239,-1.784667 0,-0.767074 -0.38004,-1.3449 -1.130052,-1.560518 0.535169,-0.258277 0.836876,-0.680982 0.836876,-1.284402 0,-1.146345 -0.793439,-1.525616 -1.966154,-1.525616 h -2.89611 z m 1.353426,-2.741765 h 1.473647 c 0.577831,0 0.974168,0.250521 0.974168,0.879536 0,0.637548 -0.465366,0.810508 -0.99976,0.810508 h -1.448055"
     style="font-size:medium;font-family:fnt0;letter-spacing:0.51599997;word-spacing:0;fill:#231f20;fill-rule:evenodd;stroke:none;stroke-width:0.77560514"
     id="path2885" />
  <path
     d="m 18.212158,15.696747 h 1.267335 c 0.482427,0 0.930723,0.12022 0.930723,0.706577 0,0.517329 -0.353675,0.732947 -0.827571,0.732947 H 18.212158 Z M 16.85795,20.80023 h 2.982975 c 1.112216,0 2.172474,-0.534392 2.172474,-1.784667 0,-0.767074 -0.379276,-1.3449 -1.129287,-1.560518 0.534394,-0.258277 0.836102,-0.680982 0.836102,-1.284402 0,-1.146345 -0.792665,-1.525616 -1.96538,-1.525616 H 16.85795 Z m 1.354208,-2.741765 h 1.473648 c 0.577822,0 0.974158,0.250521 0.974158,0.879536 0,0.637548 -0.465365,0.810508 -0.999751,0.810508 h -1.448055"
     style="font-size:medium;font-family:fnt0;letter-spacing:0.51599997;word-spacing:0;fill:#231f20;fill-rule:evenodd;stroke:none;stroke-width:0.77560514"
     id="path2887" />
  <path
     d="m 30.611753,16.713566 c -0.163649,-1.42246 -1.301467,-2.215128 -2.654892,-2.215128 -1.905665,0 -3.025638,1.422459 -3.025638,3.249785 0,1.776136 1.119973,3.198596 3.025638,3.198596 1.508553,0 2.568802,-0.982691 2.706859,-2.517614 h -1.310771 c -0.103161,0.810507 -0.568518,1.379801 -1.396088,1.379801 -1.215377,0 -1.672986,-1.034657 -1.672986,-2.060783 0,-1.077315 0.457609,-2.111973 1.672986,-2.111973 0.672443,0 1.258804,0.465363 1.344894,1.077316"
     style="font-size:medium;font-family:fnt0;letter-spacing:0.51599997;word-spacing:0;fill:#231f20;fill-rule:nonzero;stroke:none;stroke-width:0.77560514"
     id="path2889" />
  <path
     d="m 31.496718,20.80023 h 1.353434 v -2.543209 h 2.578116 V 17.2053 h -2.578116 v -1.42246 h 2.974444 v -1.137813 h -4.327878"
     style="font-size:medium;font-family:fnt0;letter-spacing:0.51599997;word-spacing:0;fill:#231f20;fill-rule:nonzero;stroke:none;stroke-width:0.77560514"
     id="path2891" />
  <path
     d="m 36.64674,20.80023 h 1.349548 v -2.543209 h 2.575011 V 17.2053 h -2.575011 v -1.42246 h 2.970574 V 14.645027 H 36.64674"
     style="font-size:medium;font-family:fnt0;letter-spacing:0.51599997;word-spacing:0;fill:#231f20;fill-rule:nonzero;stroke:none;stroke-width:0.77560514"
     id="path2893" />
  <path
     d="m 43.898644,20.80023 h 1.357312 v -2.543209 h 2.575011 V 17.2053 h -2.575011 v -1.42246 h 2.970566 v -1.137813 h -4.327878"
     style="font-size:medium;font-family:fnt0;letter-spacing:0.51599997;word-spacing:0;fill:#231f20;fill-rule:nonzero;stroke:none;stroke-width:0.77560514"
     id="path2895" />
  <path
     d="m 49.211542,20.80023 h 1.349556 v -2.543209 h 2.575003 V 17.2053 h -2.575003 v -1.42246 h 2.978322 v -1.137813 h -4.327878"
     style="font-size:medium;font-family:fnt0;letter-spacing:0.51599997;word-spacing:0;fill:#231f20;fill-rule:nonzero;stroke:none;stroke-width:0.77560514"
     id="path2897" />
  <path
     d="m 54.035805,18.75651 c -0.01548,1.51786 1.256482,2.190309 2.621543,2.190309 1.675316,0 2.559498,-0.844634 2.559498,-1.97469 0,-1.39609 -1.380575,-1.680737 -1.82267,-1.792424 -1.54345,-0.39711 -1.838183,-0.457607 -1.838183,-0.931502 0,-0.517328 0.496384,-0.698045 0.930723,-0.698045 0.643755,0 1.171166,0.189248 1.217707,0.930726 h 1.303015 c 0,-1.422459 -1.178923,-1.982446 -2.458668,-1.982446 -1.116869,0 -2.303549,0.60342 -2.303549,1.862228 0,1.154876 0.922966,1.508552 1.838183,1.749765 0.899704,0.241213 1.82267,0.353676 1.82267,1.016818 0,0.629792 -0.721314,0.76785 -1.194428,0.76785 -0.729071,0 -1.36507,-0.31955 -1.36507,-1.138589"
     style="font-size:medium;font-family:fnt0;letter-spacing:0.51599997;word-spacing:0;fill:#231f20;fill-rule:nonzero;stroke:none;stroke-width:0.77560514"
     id="path2899" />
</svg>
