<?xml version="1.0" encoding="UTF-8" standalone="no"?>
<!-- Created with Inkscape (http://www.inkscape.org/) -->

<svg
   xmlns:dc="http://purl.org/dc/elements/1.1/"
   xmlns:cc="http://creativecommons.org/ns#"
   xmlns:rdf="http://www.w3.org/1999/02/22-rdf-syntax-ns#"
   xmlns:svg="http://www.w3.org/2000/svg"
   xmlns="http://www.w3.org/2000/svg"
   xmlns:sodipodi="http://sodipodi.sourceforge.net/DTD/sodipodi-0.dtd"
   xmlns:inkscape="http://www.inkscape.org/namespaces/inkscape"
   width="64"
   height="64"
   viewBox="0 0 64.000001 64.000001"
   id="svg4136"
   version="1.1"
   inkscape:version="0.91 r13725"
   inkscape:export-filename="/home/master/network_mvg_logo.png"
   inkscape:export-xdpi="90"
   inkscape:export-ydpi="90"
   sodipodi:docname="network_ivb_logo.svg">
  <defs
     id="defs4138">
    <clipPath
       id="clipPath3470"
       clipPathUnits="userSpaceOnUse">
      <path
         inkscape:connector-curvature="0"
         id="path3472"
         d="m 0,0 937.559,0 0,841.89 L 0,841.89 0,0 Z" />
    </clipPath>
    <clipPath
       id="clipPath3506"
       clipPathUnits="userSpaceOnUse">
      <path
         inkscape:connector-curvature="0"
         id="path3508"
         d="m 1119.766,4.513 39.711,0 0,26.33 -39.711,0 0,-26.33 z" />
    </clipPath>
  </defs>
  <sodipodi:namedview
     id="base"
     pagecolor="#000000"
     bordercolor="#666666"
     borderopacity="1.0"
     inkscape:pageopacity="1"
     inkscape:pageshadow="2"
     inkscape:zoom="5.8972706"
     inkscape:cx="46.947868"
     inkscape:cy="44.300302"
     inkscape:document-units="px"
     inkscape:current-layer="layer1"
     showgrid="true"
     units="px"
     inkscape:window-width="1920"
     inkscape:window-height="1012"
     inkscape:window-x="1440"
     inkscape:window-y="0"
     inkscape:window-maximized="1"
     showguides="false">
    <inkscape:grid
       type="xygrid"
       id="grid4856"
       enabled="false" />
  </sodipodi:namedview>
  <metadata
     id="metadata4141">
    <rdf:RDF>
      <cc:Work
         rdf:about="">
        <dc:format>image/svg+xml</dc:format>
        <dc:type
           rdf:resource="http://purl.org/dc/dcmitype/StillImage" />
        <dc:title></dc:title>
        <cc:license
           rdf:resource="http://creativecommons.org/publicdomain/zero/1.0/" />
      </cc:Work>
      <cc:License
         rdf:about="http://creativecommons.org/publicdomain/zero/1.0/">
        <cc:permits
           rdf:resource="http://creativecommons.org/ns#Reproduction" />
        <cc:permits
           rdf:resource="http://creativecommons.org/ns#Distribution" />
        <cc:permits
           rdf:resource="http://creativecommons.org/ns#DerivativeWorks" />
      </cc:License>
    </rdf:RDF>
  </metadata>
  <g
     inkscape:label="Ebene 1"
     inkscape:groupmode="layer"
     id="layer1"
     transform="translate(0,-988.36216)">
    <path
       id="path2550"
       style="fill:#918f90;fill-opacity:1;fill-rule:nonzero;stroke:none"
       d="m 5.3140856,989.7723 c -2.0893524,0 -3.7996968,1.71155 -3.7996968,3.80452 l 0,53.53018 c 0,2.0917 1.7103444,3.8045 3.7996968,3.8045 l 53.5301324,0 c 2.094179,0 3.804528,-1.7128 3.804528,-3.8045 l 0,-53.53018 c 0,-2.09297 -1.710349,-3.80452 -3.804528,-3.80452 l -53.5301324,0"
       inkscape:connector-curvature="0" />
    <path
       id="path2554"
       style="fill:#ffffff;fill-opacity:1;fill-rule:nonzero;stroke:none"
       d="m 5.3140856,990.75336 c -1.5546412,0 -2.822012,1.26617 -2.822012,2.82443 l 0,53.52891 c 0,1.5583 1.2673708,2.8244 2.822012,2.8244 l 53.5301324,0 c 1.555847,0 2.822012,-1.2661 2.822012,-2.8244 l 0,-53.52891 c 0,-1.55826 -1.266165,-2.82443 -2.822012,-2.82443 l -53.5301324,0"
       inkscape:connector-curvature="0" />
    <path
       id="path2558"
       style="fill:#918f90;fill-opacity:1;fill-rule:nonzero;stroke:none"
       d="m 42.05228,1009.5719 c 0,0 1.543778,0.6675 0.688003,2.2632 0,0 0.546779,-0.6687 1.720002,-2.2125 1.170807,-1.545 0.275202,-2.5577 -0.539537,-2.7315 l -20.804197,-5.5342 18.935729,8.215"
       inkscape:connector-curvature="0" />
    <path
       id="path2562"
       style="fill:#918f90;fill-opacity:1;fill-rule:nonzero;stroke:none"
       d="m 39.56847,1012.6768 c 0,0 1.494291,0.6446 0.671104,2.4177 0,0 0.545574,-0.6675 1.717586,-2.2125 1.173228,-1.5413 0.254682,-2.5238 -0.538326,-2.7315 l -17.027436,-4.2644 15.177072,6.7907"
       inkscape:connector-curvature="0" />
    <path
       id="path2566"
       style="fill:#918f90;fill-opacity:1;fill-rule:nonzero;stroke:none"
       d="m 37.125341,1015.6243 c 0,0 1.761042,0.6674 0.841291,2.4273 0,0 0.300549,-0.3718 1.473771,-1.9132 1.170813,-1.5437 0.222095,-2.5637 -0.539536,-2.7339 l -13.078063,-3.0779 11.302537,5.2977"
       inkscape:connector-curvature="0" />
    <path
       id="path2570"
       style="fill:#9d0d30;fill-opacity:1;fill-rule:nonzero;stroke:none"
       d="m 50.534368,1019.267 0.190707,0 c 0.108637,0 0.232957,0.023 0.232957,0.157 0,0.1544 -0.108632,0.1726 -0.235368,0.1726 l -0.188296,0 0,-0.3296 z m -0.213642,0.9874 0.213642,0 0,-0.4949 0.127946,0 0.299339,0.4949 0.218469,0 -0.307786,-0.5034 c 0.18467,-0.017 0.299338,-0.1122 0.299338,-0.309 0,-0.2426 -0.148461,-0.3367 -0.423664,-0.3367 l -0.427284,0 0,1.1491 z m 0.391076,0.2462 c -0.42608,0 -0.767669,-0.3416 -0.767669,-0.8172 0,-0.4755 0.341589,-0.8171 0.767669,-0.8171 0.424869,0 0.764042,0.3416 0.764042,0.8171 0,0.4756 -0.339173,0.8172 -0.764042,0.8172 m 0,0.1992 c 0.560057,0 1.013893,-0.4551 1.013893,-1.0164 0,-0.56 -0.453836,-1.015 -1.013893,-1.015 -0.561268,0 -1.012693,0.455 -1.012693,1.015 0,0.5613 0.451425,1.0164 1.012693,1.0164"
       inkscape:connector-curvature="0" />
    <path
       id="path2574"
       style="fill:#9d0d30;fill-opacity:1;fill-rule:nonzero;stroke:none"
       d="m 13.046018,1031.1218 4.46718,0 3.44363,-12.7256 -4.46477,0 -3.44604,12.7256 z"
       inkscape:connector-curvature="0" />
    <path
       id="path2578"
       style="fill:#9d0d30;fill-opacity:1;fill-rule:nonzero;stroke:none"
       d="m 37.757338,1018.3963 -4.776176,0 -6.416519,9.6272 -0.04826,0 -1.116494,-9.6272 -4.44304,0 2.162976,12.7256 5.462974,0 9.17456,-12.7256 z"
       inkscape:connector-curvature="0" />
    <path
       id="path2582"
       style="fill:#9d0d30;fill-opacity:1;fill-rule:nonzero;stroke:none"
       d="m 34.264466,1031.1218 7.555947,-0.039 c 3.800902,-0.037 6.817247,-1.3398 6.817247,-4.0375 0,-1.405 -1.3072,-2.2486 -3.209467,-2.4683 l 0,-0.036 c 2.616822,-0.2389 4.088178,-1.5148 4.088178,-3.2275 0,-2.408 -2.70976,-2.9174 -4.417694,-2.9174 l -7.365236,0 -3.468975,12.7256 z m 7.198665,-10.32 1.14305,0 c 1.660857,0 2.752005,0.1629 2.752005,1.1852 0,0.8776 -1.091148,1.44 -2.942712,1.44 l -1.666899,0 0.714556,-2.6252 z m -1.355483,4.9258 1.069423,0 c 1.997615,0 3.04169,0.1642 3.04169,1.2758 0,1.2408 -1.497912,1.714 -3.729694,1.714 l -1.190122,0 0.808703,-2.9898"
       inkscape:connector-curvature="0" />
  </g>
</svg>
