<?xml version="1.0" encoding="UTF-8" standalone="no"?>
<svg
   width="64"
   height="64"
   version="1.0"
   id="svg1"
   xmlns="http://www.w3.org/2000/svg"
   xmlns:svg="http://www.w3.org/2000/svg">
  <defs
     id="defs1" />
  <rect
     width="43.500019"
     height="12.03176"
     fill="#ffffff"
     id="rect1"
     x="12.761982"
     y="31.408243" />
  <path
     d="m3.6543 15.188c-1.3645-0.01375-2.2435 0.23085-3.0098 1.0801-0.9114 1.1598-0.76697 2.3222-0.12305 4.3965 4.7314 13.077 10.52 28.15 10.52 28.15 32.347 0 53.75-3.0878 52.938-11.648-0.58011-6.1084-13.089-13.663-35.611-18.432-0.1889 0.56755-0.04295 0.28772 0 0-6.7915-1.4311-14.61-2.6546-23.172-3.4609-0.5764-0.048876-1.0862-0.081438-1.541-0.085938zm26.451 18.645v7.6758h-1.3633v-6.791c0.01646-0.44244 0.34375-0.56055 0.34375-0.56055l-2e-3 -2e-3zm-3.4609 0.42773c0.40978 0 0.73047 0.28973 0.73047 0.6582 0 0.36155-0.32069 0.64648-0.73047 0.64648-0.40228 0-0.73047-0.29071-0.73047-0.64648 0-0.36212 0.32819-0.6582 0.73047-0.6582zm6.0938 0.53518v1.5391h1.5176v0.80469h-1.5176v2.9531c0 0.41874 0.19986 0.62891 0.59375 0.62891 0.11782 0 0.19945-0.01892 0.29883-0.04492l0.04297-0.01172c0.17212-0.04713 0.375-0.12891 0.375-0.12891l0.31445 0.74414c-0.06151 0.03726-0.61963 0.28711-1.3809 0.28711-1.1846 0-1.6074-0.73124-1.6074-1.418v-4.4727c0.0231-0.4337 0.34375-0.54688 0.34375-0.54688l-2e-3 -2e-3zm-18.811 0.1875h2.3301c0.50825 0 0.98116 0.01563 1.2168 0.04687 0.417 0.04937 0.76002 0.15441 1.0332 0.31641 0.53714 0.32199 0.80859 0.78498 0.80859 1.3926 0 0.78721-0.55055 1.5262-1.4902 1.8398l2.0684 2.9062-1.4082 2e-3c-0.31101-0.0055-0.51416-0.22931-0.58203-0.32031l-1.8223-2.9492c0.5686-0.0023 0.96889-0.10857 1.2207-0.32227 0.25269-0.21196 0.38086-0.60832 0.38086-0.98633 0-0.38929-0.14794-0.74238-0.44336-0.91016-0.20388-0.11691-0.61627-0.17578-1.1055-0.17578h-0.6875v5.6621h-1.5195zm13.398 1.1289v5.3965h-1.3633v-4.5332c0.02599-0.42478 0.34375-0.53906 0.34375-0.53906v-2e-3l-2e-3 -2e-3zm9.9453 0.11133c0.73524 0 1.3094 0.20994 1.707 0.61914 0.41266 0.4271 0.62109 1.0571 0.62109 1.877 0 0.05115-7.03e-4 0.10312-2e-3 0.15625v0.0293s-3.4275 0.44562-3.498 0.45312c0.1135 0.91341 0.61205 1.3574 1.5234 1.3574 0.67661 0 1.1491-0.15107 1.4277-0.2793l0.0332-0.01367 0.33203 0.78906-0.02734 0.01562c-0.337 0.1649-0.94006 0.36328-1.9043 0.36328-1.6836 0-2.6875-1.0076-2.6875-2.6973 0-1.6709 0.92502-2.6699 2.4746-2.6699zm-14.648 0.01367c1.3486 0 2.1738 0.62211 2.1738 1.7969v3.1875l-0.02148 0.0098c-0.47562 0.23768-1.3165 0.37305-2.1133 0.37305-1.4878 0-2.2715-0.54594-2.2715-1.6797 0-1.3988 1.5579-1.6575 3.0645-1.9512v-0.08984c0-0.55994-0.32574-0.81055-1.0566-0.81055-0.61078 0-1.1568 0.19083-1.3633 0.2832l-0.0293 0.01172-0.32031-0.83203c0.41122-0.15075 1.038-0.29688 1.9375-0.29688zm19.912 0c1.3486 0 2.1738 0.62211 2.1738 1.7969v3.1875l-0.01953 0.0098c-0.47649 0.23768-1.3168 0.37305-2.1133 0.37305-1.4881 0-2.2754-0.54594-2.2754-1.6797 0-1.3988 1.5627-1.6575 3.0684-1.9512v-0.08984c0-0.55994-0.32373-0.81055-1.0566-0.81055-0.6102 0-1.1565 0.19083-1.3633 0.2832l-0.03125 0.01172-0.32227-0.83203c0.41151-0.15075 1.0425-0.29688 1.9395-0.29688zm5.5918 2e-3c0.81031 0 1.3936 0.18229 1.7852 0.55078 0.45598-0.36444 1.0708-0.55078 1.832-0.55078 1.4757 0 2 0.86214 2 1.5977v3.6719h-1.3652v-3.6621c0-0.50075-0.34664-0.80078-0.92969-0.80078-0.3757 0-0.66169 0.10468-0.92188 0.33398v4.1289h-1.3633v-3.6914c1e-6 -0.497-0.37696-0.78125-1.0371-0.78125-0.376 0-0.58278 0.04594-0.81641 0.13281v4.3398h-1.3633v-4.8887l0.01953-0.0098c0.6151-0.2634 1.2413-0.37109 2.1602-0.37109zm-10.898 0.76367c-0.3295 0-0.59863 0.1043-0.80078 0.3125-0.26915 0.2781-0.4082 0.7237-0.4082 1.3203 0 0.02225-5.47e-4 0.04348 2e-3 0.06836 0.07075-0.0104 2.2402-0.305 2.2988-0.3125-0.0081-0.9319-0.36667-1.3887-1.0918-1.3887zm-13.773 1.7148c-1.1889 0.27549-1.8301 0.3839-1.8301 1.2598 0 0.60789 0.37863 0.91406 1.1211 0.91406 0.26221 0 0.52301-0.04886 0.70898-0.13086zm19.914 0c-1.1892 0.27549-1.8301 0.3839-1.8301 1.2598 1e-6 0.60789 0.3764 0.91406 1.1191 0.91406 0.26279 0 0.52468-0.04886 0.71094-0.13086z"
     fill="#6b8ca6"
     id="path1" />
</svg>
