<?xml version="1.0" encoding="UTF-8" standalone="no"?>
<svg
   xmlns="http://www.w3.org/2000/svg"
   width="64"
   height="64"
   version="1.0">
   <rect
     y="0"
     x="0"
     height="64"
     width="64"
     style="opacity:1;fill:#ffffff;fill-opacity:1" />
   <path
     d="m 3.6542969,15.1875 c -1.3645388,-0.01375 -2.2434907,0.230853 -3.00976565,1.080078 -0.9114,1.15975 -0.76696813,2.322184 -0.12304687,4.396484 C 5.2528594,33.741187 11.041016,48.814453 11.041016,48.814453 c 32.34685,0 53.750125,-3.087837 52.9375,-11.648437 -0.580113,-6.108413 -13.08924,-13.662929 -35.611328,-18.431641 0.08465,0.05663 0.116465,0.165297 0.06445,0.294922 -0.0765,0.187425 -0.288347,0.337891 -0.47461,0.337891 -0.186262,0 -0.275469,-0.150466 -0.199219,-0.337891 0.07216,-0.177175 0.26995,-0.315025 0.449219,-0.328125 C 21.415541,17.270109 13.75705,16.0798 5.1953125,15.273438 4.61891,15.224562 4.1091419,15.192 3.6542969,15.1875 Z m 8.2167971,1.480469 c 0.18655,0 0.277397,0.151328 0.201172,0.33789 -0.076,0.185388 -0.289797,0.335938 -0.47461,0.335938 -0.187425,0 -0.276833,-0.15055 -0.201172,-0.335938 0.0765,-0.186562 0.288635,-0.33789 0.47461,-0.33789 z m 1.013672,0 c 0.188575,0 0.275168,0.151328 0.199218,0.33789 -0.0765,0.185388 -0.288346,0.335938 -0.474609,0.335938 -0.188288,0 -0.277122,-0.15055 -0.201172,-0.335938 0.07625,-0.186562 0.290599,-0.33789 0.476563,-0.33789 z m 1.019531,0 c 0.188286,0 0.277422,0.151328 0.201172,0.33789 -0.07625,0.185388 -0.289438,0.335938 -0.476563,0.335938 -0.188,0 -0.275456,-0.15055 -0.199218,-0.335938 0.076,-0.186562 0.288345,-0.33789 0.474609,-0.33789 z m -2.4375,1.011719 c 0.185975,0 0.27458,0.150765 0.199219,0.33789 -0.07538,0.187413 -0.290299,0.337891 -0.476563,0.337891 -0.1854,0 -0.275169,-0.150478 -0.199219,-0.337891 0.07775,-0.187125 0.289713,-0.33789 0.476563,-0.33789 z m 1.011719,0 c 0.186261,0 0.27567,0.150765 0.201172,0.33789 -0.076,0.187413 -0.291738,0.337891 -0.476563,0.337891 -0.18655,0 -0.275456,-0.150478 -0.199219,-0.337891 0.07625,-0.187125 0.288346,-0.33789 0.47461,-0.33789 z m 1.013672,0 c 0.185684,0 0.274654,0.150765 0.197265,0.33789 -0.076,0.187413 -0.287772,0.337891 -0.474609,0.337891 -0.185975,0 -0.273802,-0.150478 -0.197266,-0.337891 0.07563,-0.187125 0.287771,-0.33789 0.47461,-0.33789 z m 2.021484,0 c 0.187425,0 0.275455,0.150765 0.199219,0.33789 -0.076,0.187413 -0.288935,0.337891 -0.47461,0.337891 -0.18655,0 -0.276893,-0.150478 -0.199219,-0.337891 0.07475,-0.187125 0.290085,-0.33789 0.47461,-0.33789 z m 1.013672,0 c 0.184525,0 0.274881,0.150765 0.199218,0.33789 -0.0765,0.187413 -0.288059,0.337891 -0.474609,0.337891 -0.18655,0 -0.277697,-0.150478 -0.201172,-0.337891 0.076,-0.187125 0.288275,-0.33789 0.476563,-0.33789 z m 1.009765,0 c 0.188575,0 0.277697,0.150765 0.201172,0.33789 -0.07563,0.187413 -0.288059,0.337891 -0.474609,0.337891 -0.185975,0 -0.27741,-0.150478 -0.201172,-0.337891 0.078,-0.187125 0.289209,-0.33789 0.474609,-0.33789 z m 1.011719,0 c 0.18655,0 0.275755,0.150765 0.199219,0.33789 -0.07587,0.187413 -0.289209,0.337891 -0.474609,0.337891 -0.188863,0 -0.277122,-0.150478 -0.201172,-0.337891 0.0765,-0.187125 0.290301,-0.33789 0.476562,-0.33789 z m -3.449219,1.011718 c 0.18655,0 0.277422,0.152203 0.201172,0.337891 -0.078,0.187425 -0.288862,0.337891 -0.476562,0.337891 -0.1854,0 -0.274881,-0.150466 -0.199219,-0.337891 0.0765,-0.185688 0.289498,-0.337891 0.474609,-0.337891 z m 1.013672,0 c 0.187713,0 0.274294,0.152203 0.199219,0.337891 -0.07712,0.187425 -0.288634,0.337891 -0.474609,0.337891 -0.188289,0 -0.277697,-0.150466 -0.201172,-0.337891 0.076,-0.185688 0.290012,-0.337891 0.476562,-0.337891 z m 1.011719,0 c 0.1854,0 0.275672,0.152203 0.201172,0.337891 -0.07775,0.187425 -0.288863,0.337891 -0.476563,0.337891 -0.185986,0 -0.275168,-0.150466 -0.199218,-0.337891 0.0765,-0.185688 0.287771,-0.337891 0.474609,-0.337891 z m 1.009766,0 c 0.187125,0 0.275384,0.152203 0.201172,0.337891 -0.07738,0.187425 -0.290588,0.337891 -0.476563,0.337891 -0.18685,0 -0.275169,-0.150466 -0.199219,-0.337891 0.0745,-0.185688 0.288346,-0.337891 0.47461,-0.337891 z m 1.011718,0 c 0.187125,0 0.275758,0.152203 0.199219,0.337891 -0.07562,0.187425 -0.287831,0.337891 -0.472656,0.337891 -0.1877,0 -0.276559,-0.150466 -0.201172,-0.337891 0.07587,-0.185688 0.288923,-0.337891 0.474609,-0.337891 z m 7.058594,0.0059 c 0.186264,0 0.27488,0.149387 0.199219,0.335937 -0.07562,0.186263 -0.287773,0.337891 -0.474609,0.337891 -0.186551,0 -0.274882,-0.151628 -0.199219,-0.337891 0.076,-0.18655 0.286623,-0.335937 0.474609,-0.335937 z m 1.011719,0 c 0.186261,0 0.276259,0.149387 0.201172,0.335937 -0.07625,0.186263 -0.288575,0.337891 -0.476563,0.337891 -0.18685,0 -0.275457,-0.151628 -0.199218,-0.337891 0.0765,-0.18655 0.28892,-0.335937 0.474609,-0.335937 z m -13.542969,1.005859 c 0.18655,0 0.276894,0.149603 0.199219,0.337891 -0.07563,0.1854 -0.286681,0.335937 -0.472656,0.335937 -0.187714,0 -0.277697,-0.150537 -0.201172,-0.335937 0.07563,-0.188288 0.288634,-0.337891 0.474609,-0.337891 z m 1.011719,0 c 0.187986,0 0.277122,0.149603 0.201172,0.337891 -0.07625,0.1854 -0.28885,0.335937 -0.476563,0.335937 -0.186262,0 -0.27379,-0.150537 -0.197265,-0.335937 0.07562,-0.188288 0.287831,-0.337891 0.472656,-0.337891 z m 1.013672,0 c 0.187137,0 0.274593,0.149603 0.199219,0.337891 -0.07675,0.1854 -0.28661,0.335937 -0.47461,0.335937 -0.186261,0 -0.275109,-0.150537 -0.201172,-0.335937 0.078,-0.188288 0.290888,-0.337891 0.476563,-0.337891 z m 1.013672,0 c 0.18655,0 0.274882,0.149603 0.199218,0.337891 -0.0765,0.1854 -0.288862,0.335937 -0.476562,0.335937 -0.187125,0 -0.275169,-0.150537 -0.199219,-0.335937 0.0765,-0.188288 0.290874,-0.337891 0.476563,-0.337891 z m 1.011718,0 c 0.184814,0 0.275758,0.149603 0.199219,0.337891 -0.076,0.1854 -0.289222,0.335937 -0.474609,0.335937 -0.187425,0 -0.275672,-0.150537 -0.201172,-0.335937 0.07775,-0.188288 0.288562,-0.337891 0.476562,-0.337891 z m 1.011719,0 c 0.188289,0 0.274594,0.149603 0.199219,0.337891 -0.0765,0.1854 -0.288347,0.335937 -0.474609,0.335937 -0.186563,0 -0.274019,-0.150537 -0.199219,-0.335937 0.076,-0.188288 0.290084,-0.337891 0.474609,-0.337891 z m 5.033203,0 c 0.185975,0 0.276607,0.149603 0.199219,0.337891 -0.0765,0.1854 -0.290588,0.335937 -0.476562,0.335937 -0.187413,0 -0.275444,-0.150537 -0.199219,-0.335937 0.0765,-0.188288 0.291737,-0.337891 0.476562,-0.337891 z m 1.011719,0 c 0.18655,0 0.275756,0.149603 0.199219,0.337891 -0.07562,0.1854 -0.287485,0.335937 -0.47461,0.335937 -0.18655,0 -0.277696,-0.150537 -0.201171,-0.335937 0.07737,-0.188288 0.288562,-0.337891 0.476562,-0.337891 z m 1.013672,0 c 0.186261,0 0.274653,0.149603 0.197266,0.337891 -0.0765,0.1854 -0.287196,0.335937 -0.47461,0.335937 -0.185975,0 -0.274594,-0.150537 -0.199219,-0.335937 0.076,-0.188288 0.288288,-0.337891 0.476563,-0.337891 z m 1.009766,0 c 0.188,0 0.27741,0.149603 0.201171,0.337891 -0.07563,0.1854 -0.290887,0.335937 -0.476562,0.335937 -0.186264,0 -0.274869,-0.150537 -0.199219,-0.335937 0.07562,-0.188288 0.289497,-0.337891 0.47461,-0.337891 z m 1.015624,0 c 0.185113,0 0.273505,0.149603 0.197266,0.337891 -0.07625,0.1854 -0.287772,0.335937 -0.474609,0.335937 -0.18655,0 -0.276247,-0.150537 -0.201172,-0.335937 0.07775,-0.188288 0.28994,-0.337891 0.478515,-0.337891 z m 1.009766,0 c 0.187989,0 0.275455,0.149603 0.199219,0.337891 -0.07512,0.1854 -0.287761,0.335937 -0.474609,0.335937 -0.186838,0 -0.275516,-0.150537 -0.197266,-0.335937 0.07562,-0.188288 0.288131,-0.337891 0.472656,-0.337891 z m 1.011719,0 c 0.188,0 0.278272,0.149603 0.201172,0.337891 -0.07512,0.1854 -0.288346,0.335937 -0.47461,0.335937 -0.186261,0 -0.277122,-0.150537 -0.201171,-0.335937 0.07625,-0.188288 0.288345,-0.337891 0.474609,-0.337891 z m 1.013672,0 c 0.187125,0 0.276822,0.149603 0.201172,0.337891 -0.0765,0.1854 -0.290299,0.335937 -0.476563,0.335937 -0.188,0 -0.274869,-0.150537 -0.199219,-0.335937 0.07625,-0.188288 0.288347,-0.337891 0.47461,-0.337891 z m 1.011719,0 c 0.185675,0 0.276835,0.149603 0.201171,0.337891 -0.07625,0.1854 -0.289726,0.335937 -0.476562,0.335937 -0.186264,0 -0.276605,-0.150537 -0.199219,-0.335937 0.07625,-0.188288 0.287471,-0.337891 0.47461,-0.337891 z M 12.25,20.716797 c 0.186562,0 0.273791,0.149112 0.197266,0.335937 -0.07625,0.18685 -0.288635,0.339844 -0.47461,0.339844 -0.187137,0 -0.276893,-0.152994 -0.199218,-0.339844 0.0745,-0.186825 0.288862,-0.335937 0.476562,-0.335937 z m 1.011719,0 c 0.185687,0 0.276902,0.149112 0.199219,0.335937 -0.07475,0.18685 -0.288921,0.339844 -0.47461,0.339844 -0.18655,0 -0.27458,-0.152994 -0.199219,-0.339844 0.07475,-0.186825 0.286035,-0.335937 0.47461,-0.335937 z m 1.011719,0 c 0.186261,0 0.276031,0.149112 0.199218,0.335937 -0.07563,0.18685 -0.288059,0.339844 -0.474609,0.339844 -0.186264,0 -0.275455,-0.152994 -0.199219,-0.339844 0.07625,-0.186825 0.288934,-0.335937 0.47461,-0.335937 z m 1.013671,0 c 0.1854,0 0.274883,0.149112 0.199219,0.335937 -0.07563,0.18685 -0.290012,0.339844 -0.476562,0.339844 -0.185975,0 -0.273491,-0.152994 -0.197266,-0.339844 0.0745,-0.186825 0.286898,-0.335937 0.474609,-0.335937 z m 1.011719,0 c 0.187414,0 0.275444,0.149112 0.199219,0.335937 -0.076,0.18685 -0.289438,0.339844 -0.476563,0.339844 -0.187711,0 -0.273432,-0.152994 -0.199218,-0.339844 0.07775,-0.186825 0.290001,-0.335937 0.476562,-0.335937 z m 1.011719,0 c 0.186561,0 0.27343,0.149112 0.199219,0.335937 -0.0765,0.18685 -0.288288,0.339844 -0.476563,0.339844 -0.185686,0 -0.275169,-0.152994 -0.199219,-0.339844 0.0765,-0.186825 0.290299,-0.335937 0.476563,-0.335937 z m 5.033203,0 c 0.1857,0 0.274077,0.149112 0.197266,0.335937 -0.0745,0.18685 -0.28776,0.339844 -0.47461,0.339844 -0.185975,0 -0.27379,-0.152994 -0.197265,-0.339844 0.0745,-0.186825 0.287484,-0.335937 0.474609,-0.335937 z m 1.011719,0 c 0.185687,0 0.276031,0.149112 0.199219,0.335937 -0.07362,0.18685 -0.28806,0.339844 -0.47461,0.339844 -0.18655,0 -0.275455,-0.152994 -0.199219,-0.339844 0.076,-0.186825 0.289222,-0.335937 0.47461,-0.335937 z m 1.011719,0 c 0.187712,0 0.275168,0.149112 0.199218,0.335937 -0.0765,0.18685 -0.288348,0.339844 -0.474609,0.339844 -0.18655,0 -0.276534,-0.152994 -0.201172,-0.339844 0.0765,-0.186825 0.290587,-0.335937 0.476563,-0.335937 z m 1.011718,0 c 0.188,0 0.276261,0.149112 0.201172,0.335937 -0.07625,0.18685 -0.288634,0.339844 -0.474609,0.339844 -0.186838,0 -0.277986,-0.152994 -0.201172,-0.339844 0.07712,-0.186825 0.288347,-0.335937 0.474609,-0.335937 z m 1.013672,0 c 0.186264,0 0.275155,0.149112 0.199219,0.335937 -0.07688,0.18685 -0.288347,0.339844 -0.474609,0.339844 -0.187413,0 -0.276836,-0.152994 -0.201172,-0.339844 0.0765,-0.186825 0.292026,-0.335937 0.476562,-0.335937 z m 1.011719,0 c 0.186836,0 0.276834,0.149112 0.201172,0.335937 -0.07712,0.18685 -0.288346,0.339844 -0.47461,0.339844 -0.186261,0 -0.27741,-0.152994 -0.201171,-0.339844 0.07563,-0.186825 0.288345,-0.335937 0.474609,-0.335937 z m 1.011719,0 c 0.18655,0 0.277409,0.149112 0.201172,0.335937 -0.07563,0.18685 -0.288921,0.339844 -0.47461,0.339844 -0.186261,0 -0.277409,-0.152994 -0.201172,-0.339844 0.07625,-0.186825 0.288346,-0.335937 0.47461,-0.335937 z m 1.013672,0 c 0.187986,0 0.276835,0.149112 0.201171,0.335937 -0.07625,0.18685 -0.292026,0.339844 -0.476562,0.339844 -0.186839,0 -0.27603,-0.152994 -0.199219,-0.339844 0.07512,-0.186825 0.287471,-0.335937 0.47461,-0.335937 z m 1.011718,0 c 0.186838,0 0.278572,0.149112 0.201172,0.335937 -0.07512,0.18685 -0.289784,0.339844 -0.474609,0.339844 -0.1877,0 -0.278561,-0.152994 -0.201172,-0.339844 0.07512,-0.186825 0.287184,-0.335937 0.474609,-0.335937 z m 1.013672,0 c 0.186839,0 0.274869,0.149112 0.199219,0.335937 -0.07625,0.18685 -0.290874,0.339844 -0.476563,0.339844 -0.187125,0 -0.273732,-0.152994 -0.199218,-0.339844 0.0765,-0.186825 0.290301,-0.335937 0.476562,-0.335937 z m 1.011719,0 c 0.186261,0 0.275469,0.149112 0.199219,0.335937 -0.07625,0.18685 -0.288922,0.339844 -0.47461,0.339844 -0.184537,0 -0.275756,-0.152994 -0.199218,-0.339844 0.07625,-0.186825 0.288345,-0.335937 0.474609,-0.335937 z m 1.011719,0 c 0.186836,0 0.275757,0.149112 0.199218,0.335937 -0.07563,0.18685 -0.288346,0.339844 -0.474609,0.339844 -0.186262,0 -0.276031,-0.152994 -0.199219,-0.339844 0.07625,-0.186825 0.288346,-0.335937 0.47461,-0.335937 z m 1.019531,0 c 0.184536,0 0.27373,0.149112 0.199219,0.335937 -0.07563,0.18685 -0.289497,0.339844 -0.47461,0.339844 -0.18655,0 -0.275456,-0.152994 -0.199218,-0.339844 0.076,-0.186825 0.287195,-0.335937 0.474609,-0.335937 z m 1.015625,0 c 0.183375,0 0.274366,0.149112 0.197266,0.335937 -0.07563,0.18685 -0.289496,0.339844 -0.47461,0.339844 -0.186836,0 -0.27373,-0.152994 -0.199219,-0.339844 0.07688,-0.186825 0.287988,-0.335937 0.476563,-0.335937 z m 1.007812,0 c 0.18395,0 0.275183,0.149112 0.199219,0.335937 -0.07625,0.18685 -0.288347,0.339844 -0.474609,0.339844 -0.188575,0 -0.274881,-0.152994 -0.199219,-0.339844 0.07512,-0.186825 0.286609,-0.335937 0.474609,-0.335937 z m 0.587891,1.001953 c 0.185675,0 0.275672,0.151688 0.201172,0.335938 -0.07625,0.186262 -0.288348,0.33789 -0.474609,0.33789 -0.186263,0 -0.276836,-0.151628 -0.201172,-0.33789 0.07713,-0.18425 0.288921,-0.335938 0.474609,-0.335938 z m -1.003906,0.0039 c 0.185387,0 0.274881,0.150166 0.199219,0.337891 -0.0765,0.185975 -0.291235,0.337891 -0.47461,0.337891 -0.186836,0 -0.276247,-0.151916 -0.201172,-0.337891 0.07512,-0.187725 0.289713,-0.337891 0.476563,-0.337891 z m -15.1875,0.0078 c 0.18655,0 0.275169,0.149962 0.199219,0.335937 -0.0765,0.187138 -0.28921,0.339844 -0.47461,0.339844 -0.18655,0 -0.276894,-0.152706 -0.199219,-0.339844 0.07475,-0.185975 0.287185,-0.335937 0.47461,-0.335937 z m 1.011719,0 c 0.185399,0 0.275168,0.149962 0.199218,0.335937 -0.076,0.187138 -0.290084,0.339844 -0.474609,0.339844 -0.186839,0 -0.277122,-0.152706 -0.201172,-0.339844 0.07825,-0.185975 0.28915,-0.335937 0.476563,-0.335937 z m 1.011718,0 c 0.185963,0 0.275469,0.149962 0.199219,0.335937 -0.07475,0.187138 -0.288634,0.339844 -0.474609,0.339844 -0.186264,0 -0.275458,-0.152706 -0.199219,-0.339844 0.07562,-0.185975 0.289784,-0.335937 0.474609,-0.335937 z m 1.011719,0 c 0.186837,0 0.277408,0.149962 0.201172,0.335937 -0.076,0.187138 -0.288059,0.339844 -0.474609,0.339844 -0.185988,0 -0.277422,-0.152706 -0.201172,-0.339844 0.07538,-0.185975 0.288347,-0.335937 0.474609,-0.335937 z m 1.013672,0 c 0.187711,0 0.277194,0.149962 0.199219,0.335937 -0.07475,0.187138 -0.287988,0.339844 -0.476563,0.339844 -0.18655,0 -0.275155,-0.152706 -0.199219,-0.339844 0.07775,-0.185975 0.290299,-0.335937 0.476563,-0.335937 z m 1.011719,0 c 0.186836,0 0.276607,0.149962 0.199218,0.335937 -0.07512,0.187138 -0.288334,0.339844 -0.474609,0.339844 -0.187988,0 -0.274881,-0.152706 -0.199219,-0.339844 0.07625,-0.185975 0.288921,-0.335937 0.47461,-0.335937 z m 1.013672,0 c 0.186849,0 0.274079,0.149962 0.197265,0.335937 -0.07625,0.187138 -0.28552,0.339844 -0.472656,0.339844 -0.187414,0 -0.276247,-0.152706 -0.201172,-0.339844 0.07688,-0.185975 0.290299,-0.335937 0.476563,-0.335937 z m 1.011718,0 c 0.185688,0 0.277194,0.149962 0.199219,0.335937 -0.07388,0.187138 -0.289713,0.339844 -0.476563,0.339844 -0.187124,0 -0.273718,-0.152706 -0.199218,-0.339844 0.07775,-0.185975 0.289725,-0.335937 0.476562,-0.335937 z m 1.013672,0 c 0.185675,0 0.274078,0.149962 0.197266,0.335937 -0.07562,0.187138 -0.287196,0.339844 -0.47461,0.339844 -0.186275,0 -0.276318,-0.152706 -0.199218,-0.339844 0.07563,-0.185975 0.289712,-0.335937 0.476562,-0.335937 z m 1.011719,0 c 0.1857,0 0.274365,0.149962 0.197265,0.335937 -0.07388,0.187138 -0.288345,0.339844 -0.474609,0.339844 -0.1857,0 -0.273505,-0.152706 -0.197265,-0.339844 0.07625,-0.185975 0.28662,-0.335937 0.474609,-0.335937 z m 1.009765,0 c 0.188863,0 0.276836,0.149962 0.201172,0.335937 -0.0765,0.187138 -0.289737,0.339844 -0.476562,0.339844 -0.185114,0 -0.274078,-0.152706 -0.197266,-0.339844 0.07512,-0.185975 0.288131,-0.335937 0.472656,-0.335937 z m 1.013672,0 c 0.186264,0 0.276822,0.149962 0.201172,0.335937 -0.07563,0.187138 -0.290515,0.339844 -0.478515,0.339844 -0.185114,0 -0.274078,-0.152706 -0.197266,-0.339844 0.07625,-0.185975 0.290084,-0.335937 0.474609,-0.335937 z m 1.013672,0 c 0.185675,0 0.274077,0.149962 0.197266,0.335937 -0.07512,0.187138 -0.288347,0.339844 -0.47461,0.339844 -0.18625,0 -0.274881,-0.152706 -0.199218,-0.339844 0.07888,-0.185975 0.289137,-0.335937 0.476562,-0.335937 z m 1.013672,0 c 0.185689,0 0.274666,0.149962 0.197266,0.335937 -0.0745,0.187138 -0.289496,0.339844 -0.47461,0.339844 -0.185686,0 -0.275457,-0.152706 -0.199218,-0.339844 0.0765,-0.185975 0.289726,-0.335937 0.476562,-0.335937 z m 1.013672,0 c 0.185675,0 0.274881,0.149962 0.199219,0.335937 -0.07713,0.187138 -0.288346,0.339844 -0.47461,0.339844 -0.185686,0 -0.276834,-0.152706 -0.201171,-0.339844 0.07625,-0.185975 0.290299,-0.335937 0.476562,-0.335937 z m 3,0.03711 c 0.167775,0 0.24785,0.136409 0.179688,0.302734 -0.0685,0.169526 -0.260521,0.304688 -0.427735,0.304688 -0.166336,0 -0.247778,-0.135163 -0.181641,-0.304688 0.06987,-0.166325 0.261038,-0.302734 0.429688,-0.302734 z m 1.009766,0.02539 c 0.149011,0 0.218553,0.120868 0.158203,0.269531 -0.06038,0.150175 -0.228169,0.271484 -0.378907,0.271484 -0.149011,0 -0.220506,-0.121259 -0.160156,-0.271484 0.05975,-0.148725 0.233571,-0.269531 0.38086,-0.269531 z m 0.976562,0.05078 c 0.129375,0 0.192097,0.104753 0.138672,0.236328 -0.0525,0.129375 -0.202598,0.234375 -0.333984,0.234375 -0.129375,0 -0.19296,-0.105 -0.138672,-0.234375 0.05262,-0.131687 0.202598,-0.236328 0.333984,-0.236328 z m -3.384766,0.894531 c 0.185114,0 0.275757,0.149975 0.199219,0.335938 -0.0745,0.186562 -0.288131,0.33789 -0.472656,0.33789 -0.188575,0 -0.278213,-0.151328 -0.203125,-0.33789 0.07688,-0.185963 0.290301,-0.335938 0.476562,-0.335938 z m -17.205078,0.0039 c 0.187125,0 0.275385,0.151928 0.201172,0.33789 -0.076,0.186563 -0.288862,0.335938 -0.476562,0.335938 -0.184538,0 -0.275169,-0.149375 -0.199219,-0.335938 0.07625,-0.185962 0.288909,-0.33789 0.474609,-0.33789 z m 1.011719,0 c 0.188575,0 0.276834,0.151928 0.201172,0.33789 -0.0765,0.186563 -0.287773,0.335938 -0.474609,0.335938 -0.186264,0 -0.276547,-0.149375 -0.201172,-0.335938 0.0765,-0.185962 0.288634,-0.33789 0.474609,-0.33789 z m 1.013672,0 c 0.186837,0 0.275383,0.151928 0.201172,0.33789 -0.07825,0.186563 -0.290516,0.335938 -0.478516,0.335938 -0.184825,0 -0.274881,-0.149375 -0.199219,-0.335938 0.0765,-0.185962 0.290576,-0.33789 0.476563,-0.33789 z m 1.013672,0 c 0.185686,0 0.27373,0.151928 0.199219,0.33789 -0.07737,0.186563 -0.288635,0.335938 -0.47461,0.335938 -0.186837,0 -0.277408,-0.149375 -0.201172,-0.335938 0.076,-0.185962 0.290013,-0.33789 0.476563,-0.33789 z m 1.011719,0 c 0.185975,0 0.275457,0.151928 0.199218,0.33789 -0.076,0.186563 -0.288921,0.335938 -0.474609,0.335938 -0.187713,0 -0.276894,-0.149375 -0.199219,-0.335938 0.07475,-0.185962 0.28806,-0.33789 0.47461,-0.33789 z m 1.013672,0 c 0.1854,0 0.27379,0.151928 0.197265,0.33789 -0.07562,0.186563 -0.286609,0.335938 -0.474609,0.335938 -0.185963,0 -0.275457,-0.149375 -0.199219,-0.335938 0.076,-0.185962 0.289424,-0.33789 0.476563,-0.33789 z m 1.011718,0 c 0.186838,0 0.274077,0.151928 0.197266,0.33789 -0.07562,0.186563 -0.288057,0.335938 -0.47461,0.335938 -0.184537,0 -0.276606,-0.149375 -0.199218,-0.335938 0.07475,-0.185962 0.2903,-0.33789 0.476562,-0.33789 z m 1.011719,0 c 0.186263,0 0.275744,0.151928 0.199219,0.33789 -0.07512,0.186563 -0.288335,0.335938 -0.47461,0.335938 -0.18625,0 -0.275168,-0.149375 -0.199218,-0.335938 0.07688,-0.185962 0.288346,-0.33789 0.474609,-0.33789 z m 1.011719,0 c 0.188287,0 0.277194,0.151928 0.199218,0.33789 -0.0765,0.186563 -0.288345,0.335938 -0.474609,0.335938 -0.185686,0 -0.276834,-0.149375 -0.201172,-0.335938 0.07625,-0.185962 0.2903,-0.33789 0.476563,-0.33789 z m 1.013672,0 c 0.186836,0 0.275443,0.151928 0.199218,0.33789 -0.07563,0.186563 -0.290301,0.335938 -0.476562,0.335938 -0.18685,0 -0.275228,-0.149375 -0.197266,-0.335938 0.07625,-0.185962 0.286321,-0.33789 0.47461,-0.33789 z m 1.009765,0 c 0.188575,0 0.276247,0.151928 0.201172,0.33789 -0.07625,0.186563 -0.288347,0.335938 -0.474609,0.335938 -0.186838,0 -0.277411,-0.149375 -0.201172,-0.335938 0.078,-0.185962 0.287484,-0.33789 0.474609,-0.33789 z m 1.013672,0 c 0.186264,0 0.276044,0.151928 0.199219,0.33789 -0.07562,0.186563 -0.290083,0.335938 -0.47461,0.335938 -0.186262,0 -0.276031,-0.149375 -0.199218,-0.335938 0.07563,-0.185962 0.288923,-0.33789 0.474609,-0.33789 z m 1.011719,0 c 0.186836,0 0.277397,0.151928 0.201172,0.33789 -0.07625,0.186563 -0.290313,0.335938 -0.476563,0.335938 -0.184537,0 -0.275454,-0.149375 -0.199219,-0.335938 0.0765,-0.185962 0.288921,-0.33789 0.47461,-0.33789 z m 1.011719,0 c 0.187411,0 0.277709,0.151928 0.201171,0.33789 -0.07688,0.186563 -0.287759,0.335938 -0.474609,0.335938 -0.187411,0 -0.27633,-0.149375 -0.199219,-0.335938 0.07563,-0.185962 0.287543,-0.33789 0.472657,-0.33789 z m 1.015625,0 c 0.186561,0 0.274293,0.151928 0.199218,0.33789 -0.07775,0.186563 -0.287987,0.335938 -0.476562,0.335938 -0.186264,0 -0.275444,-0.149375 -0.199219,-0.335938 0.07737,-0.185962 0.289724,-0.33789 0.476563,-0.33789 z m 1.013672,0 c 0.186261,0 0.276606,0.151928 0.199218,0.33789 -0.07688,0.186563 -0.289437,0.335938 -0.476562,0.335938 -0.184525,0 -0.275816,-0.149375 -0.197266,-0.335938 0.07563,-0.185962 0.287771,-0.33789 0.47461,-0.33789 z m 1.009765,0 c 0.186264,0 0.276834,0.151928 0.201172,0.33789 -0.0785,0.186563 -0.292037,0.335938 -0.476563,0.335938 -0.188574,0 -0.276835,-0.149375 -0.201171,-0.335938 0.0745,-0.185962 0.290876,-0.33789 0.476562,-0.33789 z m -19.242187,0.01758 c 0.185975,0 0.273503,0.148812 0.197265,0.335937 -0.07475,0.18655 -0.288334,0.337891 -0.474609,0.337891 -0.18655,0 -0.275755,-0.151341 -0.199219,-0.337891 0.0745,-0.187125 0.288863,-0.335937 0.476563,-0.335937 z m 21.230468,0.02148 c 0.168075,0 0.246974,0.138637 0.179688,0.304688 -0.06875,0.168362 -0.259874,0.304687 -0.429688,0.304687 -0.16575,0 -0.246746,-0.136325 -0.177734,-0.304687 0.06813,-0.166051 0.261409,-0.304688 0.427734,-0.304688 z m 1.009766,0.0293 c 0.149012,0 0.220519,0.119119 0.160156,0.269531 -0.06213,0.149013 -0.231859,0.271486 -0.380859,0.271484 -0.149014,0 -0.219141,-0.122384 -0.158203,-0.271484 0.06038,-0.150462 0.228743,-0.269531 0.378906,-0.269531 z m 0.974609,0.04883 c 0.13255,0 0.194914,0.104125 0.140625,0.234375 -0.05288,0.131975 -0.202584,0.236328 -0.333984,0.236328 -0.12995,0 -0.191808,-0.104378 -0.138672,-0.236328 0.052,-0.130238 0.20122,-0.234375 0.332031,-0.234375 z m 1.003907,0.03516 c 0.11,0 0.164,0.08987 0.117187,0.203125 -0.04563,0.112375 -0.173191,0.203125 -0.283203,0.203125 -0.114125,0 -0.167806,-0.09088 -0.123047,-0.203125 0.04738,-0.11325 0.176723,-0.203125 0.289063,-0.203125 z m 1.009765,0.02148 c 0.09325,0 0.137982,0.07662 0.09961,0.169922 -0.03663,0.09125 -0.144503,0.167968 -0.236329,0.167968 -0.09388,0 -0.139387,-0.07676 -0.101562,-0.167968 0.03838,-0.09325 0.144719,-0.169922 0.238281,-0.169922 z m 1,0.03516 c 0.07512,0 0.109828,0.059 0.08008,0.134766 -0.02887,0.07275 -0.11605,0.134765 -0.189453,0.134765 -0.0745,0 -0.108953,-0.062 -0.08008,-0.134765 0.02975,-0.07563 0.116688,-0.134766 0.189453,-0.134766 z m -30.667969,0.804687 c 0.186266,0 0.275686,0.148297 0.201172,0.333985 -0.07762,0.18655 -0.290012,0.339844 -0.476562,0.339844 -0.186264,0 -0.275455,-0.153294 -0.199219,-0.339844 0.07587,-0.185688 0.287186,-0.333985 0.474609,-0.333985 z m 0.994141,0 c 0.186264,0 0.276905,0.148297 0.199219,0.333985 -0.07425,0.18655 -0.286381,0.339844 -0.472656,0.339844 -0.18655,0 -0.27771,-0.153294 -0.201172,-0.339844 0.07563,-0.185688 0.288634,-0.333985 0.474609,-0.333985 z m 1.013672,0 c 0.186837,0 0.274881,0.148297 0.199219,0.333985 -0.076,0.18655 -0.288046,0.339844 -0.47461,0.339844 -0.185961,0 -0.276834,-0.153294 -0.201172,-0.339844 0.0765,-0.185688 0.290588,-0.333985 0.476563,-0.333985 z m 2.023437,0 c 0.186264,0 0.275169,0.148297 0.199219,0.333985 -0.0765,0.18655 -0.286393,0.339844 -0.472656,0.339844 -0.188575,0 -0.276833,-0.153294 -0.201172,-0.339844 0.0765,-0.185688 0.28806,-0.333985 0.474609,-0.333985 z m 1.013672,0 c 0.185975,0 0.275228,0.148297 0.197266,0.333985 -0.07425,0.18655 -0.286609,0.339844 -0.474609,0.339844 -0.186264,0 -0.272928,-0.153294 -0.197266,-0.339844 0.076,-0.185688 0.288348,-0.333985 0.474609,-0.333985 z m 1.011719,0 c 0.186839,0 0.277755,0.148297 0.199219,0.333985 -0.07562,0.18655 -0.288059,0.339844 -0.47461,0.339844 -0.186262,0 -0.275456,-0.153294 -0.199218,-0.339844 0.076,-0.185688 0.289209,-0.333985 0.474609,-0.333985 z m 1.013672,0 c 0.185113,0 0.273216,0.148297 0.197266,0.333985 -0.076,0.18655 -0.28776,0.339844 -0.47461,0.339844 -0.1854,0 -0.273504,-0.153294 -0.197265,-0.339844 0.07388,-0.185688 0.288059,-0.333985 0.474609,-0.333985 z m 1.009766,0 c 0.187411,0 0.277697,0.148297 0.201171,0.333985 -0.07563,0.18655 -0.290587,0.339844 -0.476562,0.339844 -0.185975,0 -0.273791,-0.153294 -0.197266,-0.339844 0.0745,-0.185688 0.286107,-0.333985 0.472657,-0.333985 z m 1.013671,0 c 0.188001,0 0.274594,0.148297 0.199219,0.333985 -0.0765,0.18655 -0.288348,0.339844 -0.474609,0.339844 -0.18655,0 -0.27488,-0.153294 -0.199219,-0.339844 0.07475,-0.185688 0.289797,-0.333985 0.474609,-0.333985 z m 1.013672,0 c 0.185675,0 0.275458,0.148297 0.199219,0.333985 -0.07625,0.18655 -0.290601,0.339844 -0.476562,0.339844 -0.18685,0 -0.273216,-0.153294 -0.197266,-0.339844 0.07688,-0.185688 0.286898,-0.333985 0.474609,-0.333985 z m 1.011719,0 c 0.186264,0 0.275444,0.148297 0.199219,0.333985 -0.07562,0.18655 -0.289209,0.339844 -0.47461,0.339844 -0.187412,0 -0.277121,-0.153294 -0.201171,-0.339844 0.07625,-0.185688 0.290001,-0.333985 0.476562,-0.333985 z m 1.011719,0 c 0.186261,0 0.275469,0.148297 0.199219,0.333985 -0.076,0.18655 -0.286682,0.339844 -0.472657,0.339844 -0.187125,0 -0.277697,-0.153294 -0.201172,-0.339844 0.076,-0.185688 0.288046,-0.333985 0.47461,-0.333985 z m 1.013672,0 c 0.184537,0 0.275456,0.148297 0.199218,0.333985 -0.07625,0.18655 -0.28777,0.339844 -0.474609,0.339844 -0.186261,0 -0.277409,-0.153294 -0.201172,-0.339844 0.07562,-0.185688 0.28885,-0.333985 0.476563,-0.333985 z m 1.011718,0 c 0.186838,0 0.276032,0.148297 0.199219,0.333985 -0.07563,0.18655 -0.287773,0.339844 -0.474609,0.339844 -0.187425,0 -0.276835,-0.153294 -0.201172,-0.339844 0.07562,-0.185688 0.290012,-0.333985 0.476562,-0.333985 z m 1.011719,0 c 0.186263,0 0.277986,0.148297 0.201172,0.333985 -0.07562,0.18655 -0.290301,0.339844 -0.476562,0.339844 -0.185689,0 -0.276044,-0.153294 -0.199219,-0.339844 0.07512,-0.185688 0.288922,-0.333985 0.474609,-0.333985 z m 1.013672,0 c 0.186839,0 0.274869,0.148297 0.199219,0.333985 -0.07625,0.18655 -0.288274,0.339844 -0.476563,0.339844 -0.187411,0 -0.275457,-0.153294 -0.199218,-0.339844 0.0765,-0.185688 0.290287,-0.333985 0.476562,-0.333985 z m 1.011719,0 c 0.185686,0 0.277122,0.148297 0.201172,0.333985 -0.07688,0.18655 -0.2903,0.339844 -0.476563,0.339844 -0.187425,0 -0.275755,-0.153294 -0.199219,-0.339844 0.07563,-0.185688 0.288346,-0.333985 0.47461,-0.333985 z m 1.011719,0 c 0.186261,0 0.276318,0.148297 0.199218,0.333985 -0.07512,0.18655 -0.287771,0.339844 -0.474609,0.339844 -0.185688,0 -0.274881,-0.153294 -0.199219,-0.339844 0.07625,-0.185688 0.287771,-0.333985 0.47461,-0.333985 z m 1.013671,0 c 0.184538,0 0.274307,0.148297 0.199219,0.333985 -0.07763,0.18655 -0.28915,0.339844 -0.476562,0.339844 -0.185113,0 -0.274077,-0.153294 -0.197266,-0.339844 0.07562,-0.185688 0.287773,-0.333985 0.474609,-0.333985 z m 1.009766,0 c 0.188289,0 0.27741,0.148297 0.201172,0.333985 -0.07625,0.18655 -0.288348,0.339844 -0.474609,0.339844 -0.18685,0 -0.275469,-0.153294 -0.199219,-0.339844 0.07512,-0.185688 0.28842,-0.333985 0.472656,-0.333985 z m 1.015625,0 c 0.1851,0 0.275455,0.148297 0.199219,0.333985 -0.07512,0.18655 -0.288634,0.339844 -0.47461,0.339844 -0.186261,0 -0.276606,-0.153294 -0.199218,-0.339844 0.07388,-0.185688 0.288923,-0.333985 0.474609,-0.333985 z m 1.015625,0 c 0.186839,0 0.274366,0.148297 0.197266,0.333985 -0.07563,0.18655 -0.28812,0.339844 -0.472656,0.339844 -0.188564,0 -0.275686,-0.153294 -0.201172,-0.339844 0.07563,-0.185688 0.289712,-0.333985 0.476562,-0.333985 z m 1.007813,0 c 0.184536,0 0.275168,0.148297 0.199218,0.333985 -0.07625,0.18655 -0.288346,0.339844 -0.474609,0.339844 -0.186837,0 -0.277422,-0.153294 -0.201172,-0.339844 0.0765,-0.185688 0.288574,-0.333985 0.476563,-0.333985 z m 0.982421,0.04492 c 0.167201,0 0.247838,0.1369 0.179688,0.304688 -0.06788,0.166912 -0.258798,0.302734 -0.427734,0.302734 -0.166339,0 -0.248124,-0.135822 -0.179688,-0.302734 0.06875,-0.167788 0.25966,-0.304688 0.427734,-0.304688 z m 1.009766,0.02539 c 0.150739,0 0.219931,0.120506 0.160156,0.269531 -0.0615,0.148725 -0.230696,0.271485 -0.380859,0.271485 -0.147287,0 -0.221094,-0.122872 -0.160156,-0.271485 0.06213,-0.149012 0.231848,-0.269531 0.380859,-0.269531 z m 0.97461,0.05078 c 0.131962,0 0.192096,0.106378 0.138671,0.236328 -0.05375,0.130813 -0.199828,0.236328 -0.330078,0.236328 -0.1311,0 -0.194337,-0.105503 -0.140625,-0.236328 0.0525,-0.12995 0.201782,-0.236328 0.332032,-0.236328 z m 1.001953,0.03516 c 0.112875,0 0.167262,0.09112 0.121093,0.203125 -0.04738,0.11175 -0.172817,0.201172 -0.285156,0.201172 -0.11175,0 -0.166136,-0.08937 -0.121094,-0.201172 0.045,-0.112 0.173408,-0.203125 0.285157,-0.203125 z m 1.011718,0.02148 c 0.09412,0 0.13892,0.07725 0.09961,0.169922 -0.03787,0.09238 -0.143928,0.167968 -0.236328,0.167968 -0.09437,0 -0.139425,-0.07551 -0.101563,-0.167968 0.03725,-0.09275 0.146156,-0.169922 0.238281,-0.169922 z m 1,0.03516 c 0.0745,0 0.112704,0.06038 0.08008,0.134766 -0.0295,0.07512 -0.11555,0.132812 -0.189454,0.132812 -0.0745,0 -0.110203,-0.05775 -0.08008,-0.132812 0.03088,-0.0745 0.115512,-0.134766 0.189454,-0.134766 z m -28.648437,0.796875 c 0.184825,0 0.275744,0.151341 0.199219,0.337891 -0.07563,0.187125 -0.289497,0.335937 -0.47461,0.335937 -0.1877,0 -0.276615,-0.148812 -0.199219,-0.335937 0.07587,-0.18655 0.287771,-0.337891 0.47461,-0.337891 z m 0.99414,0 c 0.186551,0 0.275744,0.151341 0.199219,0.337891 -0.076,0.187125 -0.288406,0.335937 -0.472656,0.335937 -0.188,0 -0.277408,-0.148812 -0.201172,-0.335937 0.076,-0.18655 0.288348,-0.337891 0.474609,-0.337891 z m 1.011719,0 c 0.187713,0 0.275744,0.151341 0.199219,0.337891 -0.07537,0.187125 -0.287473,0.335937 -0.474609,0.335937 -0.185675,0 -0.275744,-0.148812 -0.199219,-0.335937 0.076,-0.18655 0.289509,-0.337891 0.474609,-0.337891 z m 1.013672,0 c 0.186564,0 0.27488,0.151341 0.199219,0.337891 -0.0765,0.187125 -0.288908,0.335937 -0.47461,0.335937 -0.186261,0 -0.276318,-0.148812 -0.199218,-0.335937 0.076,-0.18655 0.288934,-0.337891 0.474609,-0.337891 z m 1.013672,0 c 0.185975,0 0.273216,0.151341 0.197266,0.337891 -0.076,0.187125 -0.287399,0.335937 -0.476563,0.335937 -0.185675,0 -0.272928,-0.148812 -0.197266,-0.335937 0.0765,-0.18655 0.2877,-0.337891 0.476563,-0.337891 z m 1.011719,0 c 0.186262,0 0.274593,0.151341 0.199218,0.337891 -0.07625,0.187125 -0.289725,0.335937 -0.476562,0.335937 -0.186262,0 -0.275744,-0.148812 -0.199219,-0.335937 0.07737,-0.18655 0.290013,-0.337891 0.476563,-0.337891 z m 1.011718,0 c 0.183676,0 0.275444,0.151341 0.199219,0.337891 -0.07625,0.187125 -0.288923,0.335937 -0.474609,0.335937 -0.187425,0 -0.276835,-0.148812 -0.201172,-0.335937 0.07562,-0.18655 0.290012,-0.337891 0.476562,-0.337891 z m 1.013672,0 c 0.185689,0 0.273804,0.151341 0.197266,0.337891 -0.07625,0.187125 -0.287773,0.335937 -0.474609,0.335937 -0.185689,0 -0.276894,-0.148812 -0.199219,-0.335937 0.0745,-0.18655 0.289437,-0.337891 0.476562,-0.337891 z m 1.011719,0 c 0.186839,0 0.275169,0.151341 0.199219,0.337891 -0.07625,0.187125 -0.290013,0.335937 -0.476563,0.335937 -0.185686,0 -0.275457,-0.148812 -0.199218,-0.335937 0.07563,-0.18655 0.288862,-0.337891 0.476562,-0.337891 z m 1.009766,0 c 0.18685,0 0.277408,0.151341 0.201172,0.337891 -0.076,0.187125 -0.288635,0.335937 -0.47461,0.335937 -0.185687,0 -0.277408,-0.148812 -0.201172,-0.335937 0.0765,-0.18655 0.288647,-0.337891 0.47461,-0.337891 z m 1.013672,0 c 0.188,0 0.276834,0.151341 0.201171,0.337891 -0.07775,0.187125 -0.290587,0.335937 -0.476562,0.335937 -0.186262,0 -0.274869,-0.148812 -0.199219,-0.335937 0.07625,-0.18655 0.288635,-0.337891 0.47461,-0.337891 z m 1.011718,0 c 0.18655,0 0.277122,0.151341 0.201172,0.337891 -0.078,0.187125 -0.288634,0.335937 -0.474609,0.335937 -0.188289,0 -0.276559,-0.148812 -0.201172,-0.335937 0.07562,-0.18655 0.288923,-0.337891 0.474609,-0.337891 z m 1.013672,0 c 0.18685,0 0.275169,0.151341 0.199219,0.337891 -0.0765,0.187125 -0.290373,0.335937 -0.474609,0.335937 -0.188575,0 -0.275169,-0.148812 -0.199219,-0.335937 0.076,-0.18655 0.287772,-0.337891 0.474609,-0.337891 z m 1.011719,0 c 0.186837,0 0.275683,0.151341 0.201172,0.337891 -0.07625,0.187125 -0.288921,0.335937 -0.47461,0.335937 -0.188574,0 -0.279135,-0.148812 -0.201171,-0.335937 0.07625,-0.18655 0.288921,-0.337891 0.474609,-0.337891 z m 1.013672,0 c 0.185686,0 0.274365,0.151341 0.197266,0.337891 -0.07563,0.187125 -0.288346,0.335937 -0.47461,0.335937 -0.186836,0 -0.274019,-0.148812 -0.199219,-0.335937 0.07737,-0.18655 0.289724,-0.337891 0.476563,-0.337891 z m 1.011719,0 c 0.18655,0 0.274882,0.151341 0.199218,0.337891 -0.0765,0.187125 -0.287987,0.335937 -0.476562,0.335937 -0.185689,0 -0.273503,-0.148812 -0.197266,-0.335937 0.07562,-0.18655 0.287771,-0.337891 0.47461,-0.337891 z m 1.015625,0 c 0.184536,0 0.270976,0.151341 0.195312,0.337891 -0.0745,0.187125 -0.288334,0.335937 -0.474609,0.335937 -0.185675,0 -0.273719,-0.148812 -0.199219,-0.335937 0.07737,-0.18655 0.288502,-0.337891 0.478516,-0.337891 z m 1.007812,0 c 0.188,0 0.276259,0.151341 0.201172,0.337891 -0.07625,0.187125 -0.290888,0.335937 -0.476562,0.335937 -0.184538,0 -0.274869,-0.148812 -0.199219,-0.335937 0.07688,-0.18655 0.289498,-0.337891 0.474609,-0.337891 z m 1.013672,0 c 0.186262,0 0.275456,0.151341 0.199219,0.337891 -0.07562,0.187125 -0.290071,0.335937 -0.47461,0.335937 -0.18625,0 -0.276607,-0.148812 -0.199218,-0.335937 0.07512,-0.18655 0.289509,-0.337891 0.474609,-0.337891 z m 1.011719,0 c 0.187425,0 0.276258,0.151341 0.201172,0.337891 -0.07687,0.187125 -0.290863,0.335937 -0.476563,0.335937 -0.18625,0 -0.277422,-0.148812 -0.201172,-0.335937 0.0765,-0.18655 0.289725,-0.337891 0.476563,-0.337891 z m 1.013672,0 c 0.185686,0 0.276834,0.151341 0.201171,0.337891 -0.076,0.187125 -0.290887,0.335937 -0.476562,0.335937 -0.18685,0 -0.275456,-0.148812 -0.199219,-0.335937 0.07625,-0.18655 0.287196,-0.337891 0.47461,-0.337891 z m 1.015625,0 c 0.185686,0 0.273157,0.151341 0.199218,0.337891 -0.07625,0.187125 -0.288921,0.335937 -0.474609,0.335937 -0.187412,0 -0.276833,-0.148812 -0.201172,-0.335937 0.07688,-0.18655 0.290874,-0.337891 0.476563,-0.337891 z m 1.007812,0 c 0.187425,0 0.27741,0.151341 0.201172,0.337891 -0.07512,0.187125 -0.291677,0.335937 -0.478516,0.335937 -0.183961,0 -0.273503,-0.148812 -0.197265,-0.335937 0.07563,-0.18655 0.288648,-0.337891 0.474609,-0.337891 z m 0.992188,0.02539 c 0.165475,0 0.248126,0.136121 0.179687,0.302734 -0.06813,0.1701 -0.259659,0.304686 -0.427734,0.304688 -0.166913,0 -0.24791,-0.134588 -0.177735,-0.304688 0.067,-0.166612 0.257718,-0.302734 0.425782,-0.302734 z m 1.009765,0.02539 c 0.149588,0 0.220518,0.121994 0.160157,0.269532 -0.06213,0.151023 -0.231846,0.269531 -0.38086,0.269531 -0.148436,0 -0.220506,-0.118507 -0.160156,-0.269531 0.06088,-0.147563 0.232422,-0.269532 0.380859,-0.269532 z m 0.97461,0.05078 c 0.130811,0 0.193835,0.105253 0.138671,0.236328 -0.05313,0.13225 -0.201864,0.236328 -0.330078,0.236328 -0.131975,0 -0.194565,-0.104003 -0.142578,-0.236328 0.05488,-0.131113 0.203446,-0.236328 0.333985,-0.236328 z m 1.001953,0.03516 c 0.110625,0 0.164243,0.09137 0.11914,0.203125 -0.04675,0.11175 -0.173981,0.203125 -0.285156,0.203125 -0.11175,0 -0.165306,-0.09137 -0.11914,-0.203125 0.04625,-0.11175 0.173968,-0.203125 0.285156,-0.203125 z m 1.011718,0.02148 c 0.091,0 0.138863,0.07462 0.101563,0.169922 -0.039,0.09388 -0.146098,0.167969 -0.240234,0.167969 -0.09275,0 -0.136857,-0.07413 -0.09961,-0.167969 0.03838,-0.09525 0.143569,-0.169922 0.238281,-0.169922 z m 1,0.03516 c 0.0745,0 0.111579,0.06024 0.08008,0.134766 -0.02887,0.07275 -0.113763,0.132812 -0.189453,0.132812 -0.0745,0 -0.109579,-0.06 -0.08008,-0.132812 0.0315,-0.0745 0.114937,-0.134766 0.189453,-0.134766 z m -27.662109,0.81836 c 0.18655,0 0.275444,0.149615 0.199219,0.33789 -0.0765,0.1854 -0.290874,0.337891 -0.476563,0.337891 -0.187125,0 -0.274882,-0.152491 -0.199218,-0.337891 0.07562,-0.188275 0.290301,-0.33789 0.476562,-0.33789 z m 1.009766,0 c 0.187425,0 0.277708,0.149615 0.201172,0.33789 -0.07538,0.1854 -0.288849,0.337891 -0.476563,0.337891 -0.184525,0 -0.273789,-0.152491 -0.197266,-0.337891 0.07388,-0.188275 0.287557,-0.33789 0.472657,-0.33789 z m 1.015625,0 c 0.185687,0 0.273779,0.149615 0.197265,0.33789 -0.07562,0.1854 -0.288059,0.337891 -0.474609,0.337891 -0.18655,0 -0.276031,-0.152491 -0.199219,-0.337891 0.07537,-0.188275 0.290013,-0.33789 0.476563,-0.33789 z m 1.009765,0 c 0.187139,0 0.277697,0.149615 0.201172,0.33789 -0.076,0.1854 -0.2903,0.337891 -0.476562,0.337891 -0.18655,0 -0.276261,-0.152491 -0.201172,-0.337891 0.0765,-0.188275 0.290887,-0.33789 0.476562,-0.33789 z m 1.011719,0 c 0.186839,0 0.276835,0.149615 0.201172,0.33789 -0.076,0.1854 -0.288348,0.337891 -0.474609,0.337891 -0.187989,0 -0.27741,-0.152491 -0.201172,-0.337891 0.076,-0.188275 0.288348,-0.33789 0.474609,-0.33789 z m 1.013672,0 c 0.18655,0 0.275456,0.149615 0.199219,0.33789 -0.078,0.1854 -0.2877,0.337891 -0.476563,0.337891 -0.18425,0 -0.273504,-0.152491 -0.197265,-0.337891 0.07625,-0.188275 0.288059,-0.33789 0.474609,-0.33789 z m 1.013672,0 c 0.187711,0 0.27488,0.149615 0.199219,0.33789 -0.07687,0.1854 -0.288274,0.337891 -0.476563,0.337891 -0.185686,0 -0.275744,-0.152491 -0.199219,-0.337891 0.07625,-0.188275 0.289438,-0.33789 0.476563,-0.33789 z m 1.011719,0 c 0.185975,0 0.275743,0.149615 0.199218,0.33789 -0.07563,0.1854 -0.289137,0.337891 -0.476562,0.337891 -0.18655,0 -0.274594,-0.152491 -0.199219,-0.337891 0.07625,-0.188275 0.290588,-0.33789 0.476563,-0.33789 z m 1.011718,0 c 0.185675,0 0.274594,0.149615 0.199219,0.33789 -0.076,0.1854 -0.288347,0.337891 -0.474609,0.337891 -0.184525,0 -0.274881,-0.152491 -0.199219,-0.337891 0.07625,-0.188275 0.287759,-0.33789 0.474609,-0.33789 z m 1.013672,0 c 0.1857,0 0.273791,0.149615 0.197266,0.33789 -0.076,0.1854 -0.288059,0.337891 -0.474609,0.337891 -0.185975,0 -0.274007,-0.152491 -0.199219,-0.337891 0.07713,-0.188275 0.2903,-0.33789 0.476562,-0.33789 z m 1.011719,0 c 0.186263,0 0.275672,0.149615 0.201172,0.33789 -0.07775,0.1854 -0.290516,0.337891 -0.478516,0.337891 -0.186262,0 -0.27264,-0.152491 -0.197265,-0.337891 0.0765,-0.188275 0.288347,-0.33789 0.474609,-0.33789 z m 1.011719,0 c 0.18625,0 0.275456,0.149615 0.199219,0.33789 -0.07563,0.1854 -0.28806,0.337891 -0.47461,0.337891 -0.186561,0 -0.277409,-0.152491 -0.201172,-0.337891 0.07562,-0.188275 0.2903,-0.33789 0.476563,-0.33789 z m 1.013672,0 c 0.18655,0 0.274078,0.149615 0.197265,0.33789 -0.076,0.1854 -0.288934,0.337891 -0.474609,0.337891 -0.18655,0 -0.273216,-0.152491 -0.197266,-0.337891 0.0745,-0.188275 0.288921,-0.33789 0.47461,-0.33789 z m 1.011718,0 c 0.186264,0 0.274883,0.149615 0.199219,0.33789 -0.07625,0.1854 -0.288347,0.337891 -0.474609,0.337891 -0.186838,0 -0.276607,-0.152491 -0.199219,-0.337891 0.07388,-0.188275 0.287773,-0.33789 0.474609,-0.33789 z m 1.011719,0 c 0.187425,0 0.275455,0.149615 0.199219,0.33789 -0.07562,0.1854 -0.288059,0.337891 -0.474609,0.337891 -0.186264,0 -0.277411,-0.152491 -0.201172,-0.337891 0.07563,-0.188275 0.290876,-0.33789 0.476562,-0.33789 z m 1.013672,0 c 0.185688,0 0.275456,0.149615 0.199219,0.33789 -0.07562,0.1854 -0.289725,0.337891 -0.476563,0.337891 -0.187712,0 -0.276607,-0.152491 -0.199218,-0.337891 0.07537,-0.188275 0.287987,-0.33789 0.476562,-0.33789 z m 1.009766,0 c 0.188,0 0.277684,0.149615 0.201172,0.33789 -0.07625,0.1854 -0.287988,0.337891 -0.476563,0.337891 -0.184525,0 -0.275527,-0.152491 -0.197266,-0.337891 0.0745,-0.188275 0.288132,-0.33789 0.472657,-0.33789 z m 1.013672,0 c 0.186262,0 0.275685,0.149615 0.201171,0.33789 -0.07763,0.1854 -0.290301,0.337891 -0.476562,0.337891 -0.186839,0 -0.27488,-0.152491 -0.199219,-0.337891 0.07625,-0.188275 0.290072,-0.33789 0.47461,-0.33789 z m 1.011718,0 c 0.188275,0 0.276261,0.149615 0.201172,0.33789 -0.07825,0.1854 -0.288922,0.337891 -0.474609,0.337891 -0.187413,0 -0.277411,-0.152491 -0.201172,-0.337891 0.07562,-0.188275 0.288909,-0.33789 0.474609,-0.33789 z m 1.017578,0 c 0.185114,0 0.272928,0.149615 0.197266,0.33789 -0.07625,0.1854 -0.289498,0.337891 -0.474609,0.337891 -0.187125,0 -0.27626,-0.152491 -0.201172,-0.337891 0.07675,-0.188275 0.290515,-0.33789 0.478515,-0.33789 z m 1.011719,0 c 0.186264,0 0.275744,0.149615 0.199219,0.33789 -0.078,0.1854 -0.288563,0.337891 -0.476563,0.337891 -0.18395,0 -0.276032,-0.152491 -0.199218,-0.337891 0.07762,-0.188275 0.289151,-0.33789 0.476562,-0.33789 z m 1.009766,0 c 0.184525,0 0.273719,0.149615 0.199219,0.33789 -0.07738,0.1854 -0.290301,0.337891 -0.476563,0.337891 -0.185112,0 -0.276606,-0.152491 -0.199219,-0.337891 0.07512,-0.188275 0.289138,-0.33789 0.476563,-0.33789 z m 0.984375,0.03711 c 0.16865,0 0.250654,0.134959 0.18164,0.302735 -0.06638,0.169512 -0.259659,0.302734 -0.427734,0.302734 -0.168063,0 -0.248125,-0.133222 -0.179688,-0.302734 0.06813,-0.167776 0.259732,-0.302735 0.425782,-0.302735 z m 1.011718,0.02539 c 0.148427,0 0.220279,0.120618 0.158204,0.269531 -0.06038,0.149887 -0.229893,0.269531 -0.378907,0.269531 -0.149586,0 -0.220517,-0.119631 -0.160156,-0.269531 0.06038,-0.149 0.23126,-0.269531 0.380859,-0.269531 z m 0.972657,0.05078 c 0.13255,0 0.193475,0.107253 0.140625,0.236328 -0.0525,0.130525 -0.201206,0.234375 -0.332032,0.234375 -0.131098,0 -0.192385,-0.103875 -0.138671,-0.234375 0.05338,-0.129087 0.201278,-0.236328 0.330078,-0.236328 z m 1.005859,0.03516 c 0.11,0 0.162544,0.0905 0.115234,0.203125 -0.0425,0.110375 -0.171453,0.203125 -0.283203,0.203125 -0.11175,0 -0.166473,-0.09287 -0.121093,-0.203125 0.04675,-0.112625 0.176437,-0.203125 0.289062,-0.203125 z m 1.011719,0.02148 c 0.0915,0 0.13545,0.07413 0.09766,0.167968 -0.039,0.09325 -0.14472,0.169922 -0.238281,0.169922 -0.09387,0 -0.139719,-0.07662 -0.09961,-0.169922 0.03787,-0.09388 0.144935,-0.167968 0.240235,-0.167968 z m 1,0.0332 c 0.07212,0 0.109125,0.06025 0.07813,0.134765 -0.03125,0.07387 -0.114925,0.134766 -0.189453,0.134766 -0.07563,0 -0.110703,-0.06087 -0.08008,-0.134766 0.02975,-0.0745 0.116275,-0.134765 0.191406,-0.134765 z M 13.787109,26.79099 c 0.186264,0 0.276835,0.150765 0.201172,0.33789 -0.0765,0.18655 -0.291965,0.335938 -0.478515,0.335938 -0.186264,0 -0.275169,-0.149388 -0.199219,-0.335938 0.078,-0.187125 0.290012,-0.33789 0.476562,-0.33789 z m 1.011719,0 c 0.185689,0 0.277122,0.150765 0.201172,0.33789 -0.07625,0.18655 -0.288648,0.335938 -0.474609,0.335938 -0.188575,0 -0.277697,-0.149388 -0.201172,-0.335938 0.07538,-0.187125 0.288348,-0.33789 0.474609,-0.33789 z m 1.011719,0 c 0.187711,0 0.277769,0.150765 0.199219,0.33789 -0.07387,0.18655 -0.288335,0.335938 -0.47461,0.335938 -0.186837,0 -0.276032,-0.149388 -0.199218,-0.335938 0.07562,-0.187125 0.288345,-0.33789 0.474609,-0.33789 z m 1.013672,0 c 0.186837,0 0.275683,0.150765 0.201172,0.33789 -0.07712,0.18655 -0.292254,0.335938 -0.478516,0.335938 -0.185675,0 -0.273791,-0.149388 -0.197266,-0.335938 0.076,-0.187125 0.288347,-0.33789 0.47461,-0.33789 z m 1.011719,0 c 0.187136,0 0.276835,0.150765 0.201171,0.33789 -0.07763,0.18655 -0.290862,0.335938 -0.476562,0.335938 -0.185389,0 -0.275744,-0.149388 -0.199219,-0.335938 0.076,-0.187125 0.288922,-0.33789 0.47461,-0.33789 z m 1.013671,0 c 0.187414,0 0.274883,0.150765 0.199219,0.33789 -0.0765,0.18655 -0.288862,0.335938 -0.476562,0.335938 -0.186564,0 -0.275169,-0.149388 -0.199219,-0.335938 0.078,-0.187125 0.288837,-0.33789 0.476562,-0.33789 z m 1.011719,0 c 0.18655,0 0.275169,0.150765 0.199219,0.33789 -0.07625,0.18655 -0.288922,0.335938 -0.474609,0.335938 -0.186838,0 -0.274882,-0.149388 -0.199219,-0.335938 0.07538,-0.187125 0.287759,-0.33789 0.474609,-0.33789 z m 1.013672,0 c 0.184238,0 0.273216,0.150765 0.197266,0.33789 -0.076,0.18655 -0.28921,0.335938 -0.47461,0.335938 -0.187412,0 -0.27494,-0.149388 -0.197265,-0.335938 0.07563,-0.187125 0.287759,-0.33789 0.474609,-0.33789 z m 1.011719,0 c 0.185687,0 0.275181,0.150765 0.199219,0.33789 -0.0765,0.18655 -0.287485,0.335938 -0.47461,0.335938 -0.186836,0 -0.277709,-0.149388 -0.201172,-0.335938 0.076,-0.187125 0.288563,-0.33789 0.476563,-0.33789 z m 1.011719,0 c 0.187712,0 0.276318,0.150765 0.199218,0.33789 -0.07538,0.18655 -0.287484,0.335938 -0.474609,0.335938 -0.185975,0 -0.277469,-0.149388 -0.199219,-0.335938 0.076,-0.187125 0.288346,-0.33789 0.47461,-0.33789 z m 1.011718,0 c 0.1877,0 0.277397,0.150765 0.201172,0.33789 -0.076,0.18655 -0.289726,0.335938 -0.476562,0.335938 -0.187714,0 -0.274883,-0.149388 -0.199219,-0.335938 0.07625,-0.187125 0.288059,-0.33789 0.474609,-0.33789 z m 1.011719,0 c 0.187713,0 0.275097,0.150765 0.201172,0.33789 -0.07625,0.18655 -0.287773,0.335938 -0.474609,0.335938 -0.187701,0 -0.277122,-0.149388 -0.201172,-0.335938 0.07563,-0.187125 0.288934,-0.33789 0.474609,-0.33789 z m 1.013672,0 c 0.186836,0 0.276605,0.150765 0.199219,0.33789 -0.07512,0.18655 -0.288347,0.335938 -0.47461,0.335938 -0.18655,0 -0.276833,-0.149388 -0.201172,-0.335938 0.076,-0.187125 0.290299,-0.33789 0.476563,-0.33789 z m 1.011719,0 c 0.185686,0 0.276907,0.150765 0.199218,0.33789 -0.0745,0.18655 -0.286967,0.335938 -0.472656,0.335938 -0.188561,0 -0.277636,-0.149388 -0.203125,-0.335938 0.078,-0.187125 0.288563,-0.33789 0.476563,-0.33789 z m 1.013672,0 c 0.187124,0 0.276835,0.150765 0.201171,0.33789 -0.07713,0.18655 -0.292612,0.335938 -0.476562,0.335938 -0.188575,0 -0.276835,-0.149388 -0.201172,-0.335938 0.07562,-0.187125 0.288562,-0.33789 0.476563,-0.33789 z m 1.011718,0 c 0.186838,0 0.275457,0.150765 0.199219,0.33789 -0.07562,0.18655 -0.28915,0.335938 -0.476563,0.335938 -0.186262,0 -0.27349,-0.149388 -0.197265,-0.335938 0.07562,-0.187125 0.288634,-0.33789 0.474609,-0.33789 z m 1.013672,0 c 0.184539,0 0.275469,0.150765 0.199219,0.33789 -0.078,0.18655 -0.289438,0.335938 -0.476563,0.335938 -0.1851,0 -0.275443,-0.149388 -0.199218,-0.335938 0.07625,-0.187125 0.289726,-0.33789 0.476562,-0.33789 z m 1.011719,0 c 0.186261,0 0.274869,0.150765 0.199219,0.33789 -0.07625,0.18655 -0.289438,0.335938 -0.476563,0.335938 -0.186261,0 -0.275469,-0.149388 -0.199219,-0.335938 0.0745,-0.187125 0.290299,-0.33789 0.476563,-0.33789 z m 1.013672,0 c 0.18395,0 0.275168,0.150765 0.199219,0.33789 -0.07625,0.18655 -0.28951,0.335938 -0.47461,0.335938 -0.188011,0 -0.277122,-0.149388 -0.201172,-0.335938 0.07625,-0.187125 0.2903,-0.33789 0.476563,-0.33789 z m 1.013672,0 c 0.185111,0 0.275457,0.150765 0.199218,0.33789 -0.07563,0.18655 -0.287184,0.335938 -0.474609,0.335938 -0.185675,0 -0.276833,-0.149388 -0.201172,-0.335938 0.07737,-0.187125 0.288863,-0.33789 0.476563,-0.33789 z m 0.988281,0.05664 c 0.167775,0 0.249587,0.136913 0.179687,0.304688 -0.06838,0.1672 -0.259731,0.304687 -0.425781,0.304687 -0.167486,0 -0.249576,-0.137487 -0.179687,-0.304687 0.06813,-0.167775 0.259442,-0.304688 0.425781,-0.304688 z m 1.009766,0.02734 c 0.150736,0 0.221884,0.120253 0.162109,0.267578 -0.06213,0.151313 -0.232063,0.271484 -0.382813,0.271484 -0.146686,0 -0.22029,-0.120121 -0.158203,-0.271484 C 34.704906,26.995291 34.87615,26.875 35.023438,26.875 Z M 36,26.923828 c 0.130525,0 0.192672,0.105878 0.138672,0.236328 -0.05313,0.130525 -0.20122,0.236328 -0.332031,0.236328 -0.130539,0 -0.193189,-0.105878 -0.140625,-0.236328 C 35.719766,27.029619 35.869188,26.923828 36,26.923828 Z m 1,0.03711 c 0.110625,0 0.166481,0.08938 0.119141,0.203124 -0.0445,0.1115 -0.173982,0.199219 -0.285157,0.199219 -0.110625,0 -0.165855,-0.08776 -0.11914,-0.199219 0.04563,-0.113749 0.17283,-0.203126 0.285156,-0.203124 z m 1.013672,0.02148 c 0.09188,0 0.135475,0.07463 0.09766,0.167969 -0.03725,0.09413 -0.14219,0.167968 -0.236328,0.167968 -0.09412,0 -0.138188,-0.07376 -0.101562,-0.167968 0.0395,-0.09325 0.144645,-0.167969 0.240234,-0.167969 z m 0.998047,0.03125 c 0.0745,0 0.113156,0.06388 0.08203,0.136719 -0.0295,0.07425 -0.114938,0.134765 -0.189453,0.134765 -0.07538,0 -0.112669,-0.06063 -0.08203,-0.134765 0.02887,-0.07275 0.114975,-0.136719 0.189453,-0.136719 z M 13.371094,27.80273 c 0.1877,0 0.277122,0.151629 0.201172,0.337891 -0.07625,0.18655 -0.287197,0.335939 -0.47461,0.335937 -0.186562,0 -0.277195,-0.149387 -0.199218,-0.335937 0.0745,-0.186262 0.288418,-0.337891 0.472656,-0.337891 z m 1.015625,0 c 0.184812,0 0.274881,0.151629 0.199219,0.337891 -0.0765,0.18655 -0.290313,0.335939 -0.476563,0.335937 -0.186562,0 -0.276894,-0.149387 -0.199219,-0.335937 0.07475,-0.186262 0.288275,-0.337891 0.476563,-0.337891 z m 1.011719,0 c 0.185957,0 0.275456,0.151629 0.199218,0.337891 -0.076,0.18655 -0.290012,0.335939 -0.476562,0.335937 -0.187425,0 -0.274941,-0.149387 -0.197266,-0.335937 0.0745,-0.186262 0.286606,-0.337891 0.47461,-0.337891 z m 1.011718,0 c 0.187425,0 0.275457,0.151629 0.199219,0.337891 -0.07562,0.18655 -0.288348,0.335939 -0.474609,0.335937 -0.185975,0 -0.277469,-0.149387 -0.199219,-0.335937 0.07388,-0.186262 0.287484,-0.337891 0.474609,-0.337891 z m 1.009766,0 c 0.187711,0 0.279361,0.151629 0.203125,0.337891 -0.07587,0.18655 -0.289724,0.335939 -0.476563,0.335937 -0.186261,0 -0.275743,-0.149387 -0.199218,-0.335937 0.07713,-0.186262 0.288406,-0.337891 0.472656,-0.337891 z m 1.013672,0 c 0.186837,0 0.276533,0.151629 0.201172,0.337891 -0.07625,0.18655 -0.287772,0.335939 -0.47461,0.335937 -0.187712,0 -0.277122,-0.149387 -0.201172,-0.335937 0.076,-0.186262 0.288635,-0.337891 0.47461,-0.337891 z m 1.013672,0 c 0.18685,0 0.277409,0.151629 0.201172,0.337891 -0.07625,0.18655 -0.289438,0.335939 -0.476563,0.335937 -0.186262,0 -0.275169,-0.149387 -0.199219,-0.335937 0.0765,-0.186262 0.290371,-0.337891 0.47461,-0.337891 z m 1.011718,0 c 0.18655,0 0.277122,0.151629 0.201172,0.337891 -0.0765,0.18655 -0.29175,0.335939 -0.476562,0.335937 -0.185975,0 -0.275169,-0.149387 -0.199219,-0.335937 0.07625,-0.186262 0.288909,-0.337891 0.474609,-0.337891 z m 1.013672,0 c 0.185975,0 0.274006,0.151629 0.199219,0.337891 -0.07625,0.18655 -0.28885,0.335939 -0.476563,0.335937 -0.185112,0 -0.274018,-0.149387 -0.199218,-0.335937 0.07713,-0.186262 0.290012,-0.337891 0.476562,-0.337891 z m 1.011719,0 c 0.186263,0 0.277983,0.151629 0.201172,0.337891 -0.076,0.18655 -0.288863,0.335939 -0.476563,0.335937 -0.18655,0 -0.274593,-0.149387 -0.199218,-0.335937 0.0765,-0.186262 0.288059,-0.337891 0.474609,-0.337891 z m 1.013672,0 c 0.18655,0 0.273505,0.151629 0.197265,0.337891 -0.0745,0.18655 -0.288118,0.335939 -0.472656,0.335937 -0.18655,0 -0.276043,-0.149387 -0.199218,-0.335937 0.07537,-0.186262 0.288345,-0.337891 0.474609,-0.337891 z m 1.011719,0 c 0.185975,0 0.275815,0.151629 0.197265,0.337891 -0.07538,0.18655 -0.287473,0.335939 -0.474609,0.335937 -0.185975,0 -0.274666,-0.149387 -0.197266,-0.335937 0.076,-0.186262 0.28806,-0.337891 0.47461,-0.337891 z m 1.009765,0 c 0.187125,0 0.279938,0.151629 0.203125,0.337891 -0.07763,0.18655 -0.290875,0.335939 -0.476562,0.335937 -0.18655,0 -0.275169,-0.149387 -0.199219,-0.335937 0.07625,-0.186262 0.288706,-0.337891 0.472656,-0.337891 z m 1.013672,0 c 0.187989,0 0.276835,0.151629 0.201172,0.337891 -0.07625,0.18655 -0.290312,0.335939 -0.476563,0.335937 -0.186274,0 -0.276043,-0.149387 -0.199218,-0.335937 0.07512,-0.186262 0.290084,-0.337891 0.474609,-0.337891 z m 1.013672,0 c 0.185112,0 0.275456,0.151629 0.199219,0.337891 -0.07512,0.18655 -0.288921,0.335939 -0.47461,0.335937 -0.1877,0 -0.275457,-0.149387 -0.199218,-0.335937 0.07563,-0.186262 0.286609,-0.337891 0.474609,-0.337891 z m 1.013672,0 c 0.18395,0 0.272928,0.151629 0.197265,0.337891 -0.07625,0.18655 -0.288345,0.335939 -0.474609,0.335937 -0.187125,0 -0.27488,-0.149387 -0.199219,-0.335937 0.07712,-0.186262 0.290288,-0.337891 0.476563,-0.337891 z m 1.009765,0 c 0.186264,0 0.277697,0.151629 0.201172,0.337891 -0.07625,0.18655 -0.288562,0.335939 -0.476562,0.335937 -0.185114,0 -0.27633,-0.149387 -0.199219,-0.335937 0.07562,-0.186262 0.288348,-0.337891 0.474609,-0.337891 z m 1.013672,0 c 0.185675,0 0.274883,0.151629 0.199219,0.337891 -0.076,0.18655 -0.288934,0.335939 -0.474609,0.335937 -0.185688,0 -0.275097,-0.149387 -0.201172,-0.335937 0.07625,-0.186262 0.289137,-0.337891 0.476562,-0.337891 z m 1.015625,0 c 0.184539,0 0.275458,0.151629 0.199219,0.337891 -0.07562,0.18655 -0.289712,0.335939 -0.476562,0.335937 -0.185689,0 -0.276033,-0.149387 -0.199219,-0.335937 0.07512,-0.186262 0.288287,-0.337891 0.476562,-0.337891 z m 1.013672,0 c 0.184525,0 0.273144,0.151629 0.199219,0.337891 -0.07625,0.18655 -0.290073,0.335939 -0.474609,0.335937 -0.186264,0 -0.27741,-0.149387 -0.201172,-0.335937 0.07563,-0.186262 0.2903,-0.337891 0.476562,-0.337891 z m 0.984375,0.06445 c 0.1698,0 0.247191,0.134959 0.181641,0.302734 -0.0705,0.167775 -0.262488,0.302734 -0.429688,0.302734 -0.166925,0 -0.247321,-0.134959 -0.177734,-0.302734 0.067,-0.167775 0.259444,-0.302734 0.425781,-0.302734 z m 1.009766,0.02539 c 0.149011,0 0.221095,0.119753 0.160156,0.267578 -0.0615,0.151325 -0.230481,0.271485 -0.378906,0.271485 -0.1496,0 -0.221885,-0.120122 -0.16211,-0.271485 0.06038,-0.14785 0.232421,-0.267578 0.38086,-0.267578 z m 0.974609,0.05078 c 0.132563,0 0.19405,0.10524 0.140625,0.236329 -0.05375,0.130524 -0.202368,0.236328 -0.332031,0.236328 -0.129963,0 -0.194338,-0.105755 -0.140625,-0.236328 0.05138,-0.1311 0.202369,-0.236329 0.332031,-0.236329 z m 1.003907,0.03516 c 0.109124,0 0.1645,0.08825 0.117187,0.201172 -0.045,0.114125 -0.171453,0.205078 -0.283203,0.205078 -0.11175,0 -0.168514,-0.091 -0.121094,-0.205078 0.045,-0.112875 0.172759,-0.201172 0.28711,-0.201172 z m 1.011718,0.01953 c 0.0915,0 0.136257,0.07663 0.09961,0.169922 -0.03925,0.09362 -0.145307,0.169922 -0.238282,0.169922 -0.09388,0 -0.13885,-0.07637 -0.101562,-0.169922 0.03963,-0.09325 0.146097,-0.169922 0.240234,-0.169922 z m 1,0.03516 c 0.07275,0 0.110453,0.06025 0.08008,0.134766 -0.0295,0.0745 -0.114925,0.134765 -0.189453,0.134765 -0.07512,0 -0.110406,-0.06025 -0.08203,-0.134765 0.0315,-0.0745 0.116337,-0.134766 0.191406,-0.134766 z m -25.638672,0.78125 c 0.188289,0 0.275744,0.151053 0.199219,0.337891 -0.07563,0.187125 -0.287184,0.33789 -0.474609,0.33789 -0.185388,0 -0.274306,-0.150765 -0.199219,-0.33789 0.07713,-0.186838 0.288934,-0.337891 0.474609,-0.337891 z m 1.011719,0 c 0.18655,0 0.277422,0.151053 0.201172,0.337891 -0.07625,0.187125 -0.288348,0.33789 -0.474609,0.33789 -0.18655,0 -0.27626,-0.150765 -0.201172,-0.33789 0.07625,-0.186838 0.288934,-0.337891 0.474609,-0.337891 z m 1.013672,0 c 0.1877,0 0.274881,0.151053 0.199219,0.337891 -0.07625,0.187125 -0.288635,0.33789 -0.47461,0.33789 -0.188575,0 -0.276834,-0.150765 -0.201172,-0.33789 0.0765,-0.186838 0.290301,-0.337891 0.476563,-0.337891 z m 1.011719,0 c 0.188287,0 0.276547,0.151053 0.201172,0.337891 -0.0765,0.187125 -0.291966,0.33789 -0.478516,0.33789 -0.18425,0 -0.273791,-0.150765 -0.197266,-0.33789 0.076,-0.186838 0.28806,-0.337891 0.47461,-0.337891 z m 1.013672,0 c 0.185686,0 0.274882,0.151053 0.199218,0.337891 -0.07625,0.187125 -0.289209,0.33789 -0.474609,0.33789 -0.186263,0 -0.277697,-0.150765 -0.201172,-0.33789 0.07562,-0.186838 0.291163,-0.337891 0.476563,-0.337891 z m 1.011718,0 c 0.185975,0 0.27741,0.151053 0.201172,0.337891 -0.076,0.187125 -0.290012,0.33789 -0.476562,0.33789 -0.1857,0 -0.275169,-0.150765 -0.199219,-0.33789 0.07587,-0.186838 0.287773,-0.337891 0.474609,-0.337891 z m 1.011719,0 c 0.18655,0 0.276894,0.151053 0.199219,0.337891 -0.07562,0.187125 -0.287556,0.33789 -0.472656,0.33789 -0.18655,0 -0.27741,-0.150765 -0.201172,-0.33789 0.07625,-0.186838 0.288348,-0.337891 0.474609,-0.337891 z m 1.013672,0 c 0.187125,0 0.275744,0.151053 0.199219,0.337891 -0.07688,0.187125 -0.288635,0.33789 -0.47461,0.33789 -0.184811,0 -0.275743,-0.150765 -0.199218,-0.33789 0.07625,-0.186838 0.289209,-0.337891 0.474609,-0.337891 z m 1.011719,0 c 0.186837,0 0.275156,0.151053 0.199218,0.337891 -0.0765,0.187125 -0.289795,0.33789 -0.474609,0.33789 -0.187425,0 -0.276619,-0.150765 -0.199219,-0.33789 0.0765,-0.186838 0.288922,-0.337891 0.47461,-0.337891 z m 1.013672,0 c 0.186261,0 0.273215,0.151053 0.197265,0.337891 -0.07688,0.187125 -0.286323,0.33789 -0.474609,0.33789 -0.186264,0 -0.27458,-0.150765 -0.199219,-0.33789 0.07625,-0.186838 0.288274,-0.337891 0.476563,-0.337891 z m 1.011718,0 c 0.184814,0 0.275744,0.151053 0.199219,0.337891 -0.07562,0.187125 -0.288934,0.33789 -0.474609,0.33789 -0.187138,0 -0.276607,-0.150765 -0.199219,-0.33789 0.076,-0.186838 0.288909,-0.337891 0.474609,-0.337891 z m 1.011719,0 c 0.186839,0 0.275744,0.151053 0.199219,0.337891 -0.076,0.187125 -0.288346,0.33789 -0.47461,0.33789 -0.18655,0 -0.274881,-0.150765 -0.199218,-0.33789 0.07625,-0.186838 0.288634,-0.337891 0.474609,-0.337891 z m 1.011719,0 c 0.186275,0 0.277409,0.151053 0.201172,0.337891 -0.07625,0.187125 -0.290013,0.33789 -0.476563,0.33789 -0.185675,0 -0.275744,-0.150765 -0.199219,-0.33789 0.07775,-0.186838 0.290085,-0.337891 0.47461,-0.337891 z m 1.011719,0 c 0.186836,0 0.278271,0.151053 0.201171,0.337891 -0.07512,0.187125 -0.28777,0.33789 -0.474609,0.33789 -0.185686,0 -0.276834,-0.150765 -0.201172,-0.33789 0.07762,-0.186838 0.288921,-0.337891 0.47461,-0.337891 z m 1.013671,0 c 0.186838,0 0.276836,0.151053 0.201172,0.337891 -0.0765,0.187125 -0.290301,0.33789 -0.476562,0.33789 -0.186264,0 -0.273516,-0.150765 -0.197266,-0.33789 0.07562,-0.186838 0.285232,-0.337891 0.472656,-0.337891 z m 1.011719,0 c 0.188288,0 0.276836,0.151053 0.201172,0.337891 -0.07712,0.187125 -0.289726,0.33789 -0.476562,0.33789 -0.185689,0 -0.275458,-0.150765 -0.199219,-0.33789 0.07512,-0.186838 0.288934,-0.337891 0.474609,-0.337891 z m 1.013672,0 c 0.185114,0 0.276044,0.151053 0.199219,0.337891 -0.0745,0.187125 -0.291235,0.33789 -0.47461,0.33789 -0.187412,0 -0.276835,-0.150765 -0.201171,-0.33789 0.07625,-0.186838 0.288851,-0.337891 0.476562,-0.337891 z m 1.011719,0 c 0.187986,0 0.275672,0.151053 0.201172,0.337891 -0.07562,0.187125 -0.288863,0.33789 -0.476563,0.33789 -0.186262,0 -0.275456,-0.150765 -0.199219,-0.33789 0.07625,-0.186838 0.288346,-0.337891 0.47461,-0.337891 z m 1.013672,0 c 0.18685,0 0.276031,0.151053 0.199218,0.337891 -0.0745,0.187125 -0.288131,0.33789 -0.472656,0.33789 -0.188862,0 -0.276833,-0.150765 -0.201172,-0.33789 0.07712,-0.186838 0.288347,-0.337891 0.47461,-0.337891 z m 0.998047,0.03125 c 0.168075,0 0.248126,0.136684 0.179687,0.302735 -0.06813,0.168075 -0.260534,0.304687 -0.427734,0.304687 -0.166338,0 -0.2487,-0.136612 -0.179688,-0.304687 0.06875,-0.166051 0.25966,-0.302735 0.427735,-0.302735 z m 1.007812,0.02539 c 0.149014,0 0.221885,0.119869 0.162109,0.269531 -0.0615,0.149012 -0.230695,0.269531 -0.380859,0.269531 -0.149011,0 -0.220878,-0.120506 -0.158203,-0.269531 0.05925,-0.149588 0.229667,-0.269531 0.376953,-0.269531 z m 0.976563,0.05078 c 0.131975,0 0.192095,0.105503 0.138672,0.236328 -0.05425,0.130813 -0.200632,0.236328 -0.332032,0.236328 -0.129375,0 -0.192383,-0.105503 -0.138672,-0.236328 0.05313,-0.130812 0.201218,-0.236328 0.332032,-0.236328 z m 1.001953,0.03516 c 0.11175,0 0.164168,0.09075 0.11914,0.203125 -0.04675,0.1115 -0.174771,0.203125 -0.287109,0.203125 -0.110625,0 -0.164537,-0.09163 -0.117188,-0.203125 0.0445,-0.112375 0.172244,-0.203125 0.285157,-0.203125 z m 1.011719,0.02148 c 0.091,0 0.137456,0.07487 0.09961,0.169922 -0.03925,0.09275 -0.143916,0.167968 -0.236328,0.167968 -0.09437,0 -0.14,-0.07526 -0.101563,-0.167968 0.03838,-0.095 0.144719,-0.169922 0.238281,-0.169922 z m 1,0.0332 c 0.0745,0 0.111374,0.06049 0.07812,0.136719 -0.02887,0.07337 -0.114173,0.132812 -0.1875,0.132812 -0.0745,0 -0.111531,-0.05937 -0.08203,-0.132812 0.0315,-0.07625 0.116863,-0.136719 0.191407,-0.136719 z m -24.632813,0.814453 c 0.185688,0 0.275744,0.152503 0.199219,0.33789 -0.07775,0.186264 -0.288275,0.337891 -0.476563,0.337891 -0.184537,0 -0.275456,-0.151627 -0.199219,-0.337891 0.07563,-0.185387 0.289726,-0.33789 0.476563,-0.33789 z m 1.011719,0 c 0.186262,0 0.273733,0.152503 0.199218,0.33789 -0.078,0.186264 -0.288274,0.337891 -0.476562,0.337891 -0.184525,0 -0.273791,-0.151627 -0.197266,-0.337891 0.07563,-0.185387 0.28806,-0.33789 0.47461,-0.33789 z m 1.011718,0 c 0.186266,0 0.275972,0.152503 0.201172,0.33789 -0.076,0.186264 -0.288046,0.337891 -0.474609,0.337891 -0.188275,0 -0.276833,-0.151627 -0.201172,-0.337891 0.07625,-0.185387 0.288922,-0.33789 0.474609,-0.33789 z m 1.013672,0 c 0.187125,0 0.273144,0.152503 0.199219,0.33789 -0.07775,0.186264 -0.288059,0.337891 -0.474609,0.337891 -0.18655,0 -0.276547,-0.151627 -0.201172,-0.337891 0.07625,-0.185387 0.290876,-0.33789 0.476562,-0.33789 z m 1.011719,0 c 0.18655,0 0.275169,0.152503 0.199219,0.33789 -0.07625,0.186264 -0.288647,0.337891 -0.47461,0.337891 -0.186849,0 -0.277193,-0.151627 -0.199218,-0.337891 0.07425,-0.185387 0.288634,-0.33789 0.474609,-0.33789 z m 1.011719,0 c 0.18625,0 0.275455,0.152503 0.199219,0.33789 -0.0765,0.186264 -0.287197,0.337891 -0.47461,0.337891 -0.18685,0 -0.275456,-0.151627 -0.199219,-0.337891 0.07625,-0.185387 0.286321,-0.33789 0.47461,-0.33789 z m 1.013672,0 c 0.185675,0 0.275744,0.152503 0.199218,0.33789 -0.076,0.186264 -0.290575,0.337891 -0.476562,0.337891 -0.186262,0 -0.275241,-0.151627 -0.197266,-0.337891 0.0745,-0.185387 0.287772,-0.33789 0.47461,-0.33789 z m 1.011718,0 c 0.184538,0 0.275744,0.152503 0.199219,0.33789 -0.076,0.186264 -0.288334,0.337891 -0.474609,0.337891 -0.186264,0 -0.275169,-0.151627 -0.199219,-0.337891 0.0765,-0.185387 0.287772,-0.33789 0.474609,-0.33789 z m 1.011719,0 c 0.187125,0 0.277122,0.152503 0.201172,0.33789 -0.076,0.186264 -0.289726,0.337891 -0.476562,0.337891 -0.186264,0 -0.275469,-0.151627 -0.199219,-0.337891 0.07688,-0.185387 0.289209,-0.33789 0.474609,-0.33789 z m 1.011719,0 c 0.187425,0 0.277983,0.152503 0.201172,0.33789 -0.07625,0.186264 -0.288849,0.337891 -0.476563,0.337891 -0.184525,0 -0.27524,-0.151627 -0.197265,-0.337891 0.07563,-0.185387 0.286106,-0.33789 0.472656,-0.33789 z m 1.013672,0 c 0.186275,0 0.275169,0.152503 0.199219,0.33789 -0.078,0.186264 -0.28806,0.337891 -0.47461,0.337891 -0.188287,0 -0.277122,-0.151627 -0.201172,-0.337891 0.07687,-0.185387 0.290588,-0.33789 0.476563,-0.33789 z m 1.011719,0 c 0.1877,0 0.275959,0.152503 0.201171,0.33789 -0.07775,0.186264 -0.290012,0.337891 -0.476562,0.337891 -0.18655,0 -0.275744,-0.151627 -0.199219,-0.337891 0.07562,-0.185387 0.287471,-0.33789 0.47461,-0.33789 z m 3.037109,0 c 0.18685,0 0.277422,0.152503 0.201172,0.33789 -0.07688,0.186264 -0.291449,0.337891 -0.476563,0.337891 -0.187986,0 -0.275457,-0.151627 -0.199218,-0.337891 0.07512,-0.185387 0.288934,-0.33789 0.474609,-0.33789 z m 1.011719,0 c 0.188575,0 0.277983,0.152503 0.201172,0.33789 -0.07687,0.186264 -0.290588,0.337891 -0.476563,0.337891 -0.18425,0 -0.27409,-0.151627 -0.197266,-0.337891 0.0765,-0.185387 0.288132,-0.33789 0.472657,-0.33789 z m 1.013672,0 c 0.187425,0 0.274882,0.152503 0.199218,0.33789 -0.07563,0.186264 -0.288347,0.337891 -0.474609,0.337891 -0.187125,0 -0.276044,-0.151627 -0.199219,-0.337891 0.07712,-0.185387 0.291246,-0.33789 0.47461,-0.33789 z m 1.013671,0 c 0.186264,0 0.27293,0.152503 0.197266,0.33789 -0.07688,0.186264 -0.287184,0.337891 -0.474609,0.337891 -0.186838,0 -0.275527,-0.151627 -0.197266,-0.337891 0.07562,-0.185387 0.288348,-0.33789 0.474609,-0.33789 z m 0.996094,0.0332 c 0.168075,0 0.247202,0.136684 0.181641,0.302734 -0.071,0.1672 -0.261972,0.302735 -0.427735,0.302735 -0.167199,0 -0.249575,-0.135535 -0.179687,-0.302735 0.06837,-0.16605 0.258581,-0.302734 0.425781,-0.302734 z m 1.00586,0.02539 c 0.150161,0 0.221092,0.122247 0.160156,0.271484 -0.06038,0.148438 -0.228745,0.269531 -0.378906,0.269531 -0.149014,0 -0.221082,-0.121131 -0.160157,-0.269531 0.06038,-0.1493 0.229893,-0.271484 0.378907,-0.271484 z m 0.982422,0.04687 c 0.13025,0 0.193546,0.107003 0.138671,0.236328 -0.0525,0.129662 -0.203231,0.236328 -0.332031,0.236328 -0.130811,0 -0.193834,-0.106741 -0.138672,-0.236328 0.052,-0.129375 0.202081,-0.236328 0.332032,-0.236328 z m 1.001953,0.03711 c 0.1095,0 0.163425,0.09137 0.117187,0.203125 -0.04537,0.112 -0.172028,0.201172 -0.283203,0.201172 -0.112375,0 -0.167275,-0.08912 -0.121094,-0.201172 0.04537,-0.11175 0.174771,-0.203125 0.28711,-0.203125 z m 1.007812,0.02344 c 0.09387,0 0.136894,0.07551 0.09961,0.169921 -0.03787,0.09037 -0.143353,0.166016 -0.236328,0.166016 -0.09325,0 -0.138836,-0.07562 -0.101562,-0.166016 0.039,-0.0945 0.144707,-0.169923 0.23828,-0.169921 z M 35.75,30.027344 c 0.0745,0 0.110328,0.06088 0.08008,0.134765 -0.03,0.07475 -0.116701,0.134766 -0.189453,0.134766 -0.07688,0 -0.110703,-0.05987 -0.08008,-0.134766 0.02913,-0.07388 0.114938,-0.134765 0.189453,-0.134765 z M 8.1953125,30.828125 c 0.1862625,0 0.2771219,0.149387 0.2011719,0.335937 -0.077125,0.186275 -0.2883469,0.337891 -0.4746094,0.337891 -0.18655,0 -0.2768344,-0.151616 -0.2011719,-0.337891 0.076875,-0.18655 0.2883469,-0.335937 0.4746094,-0.335937 z m 0.9707031,0 c 0.18655,0 0.2751563,0.149387 0.1992188,0.335937 -0.0765,0.186275 -0.2868969,0.337891 -0.4746094,0.337891 -0.18655,0 -0.2751687,-0.151616 -0.1992188,-0.337891 0.0765,-0.18655 0.2883469,-0.335937 0.4746094,-0.335937 z m 1.9531254,0.01172 c 0.186261,0 0.275757,0.15194 0.199218,0.33789 -0.0745,0.186275 -0.288634,0.337891 -0.474609,0.337891 -0.186263,0 -0.274581,-0.151616 -0.199219,-0.337891 0.07475,-0.18595 0.286896,-0.33789 0.47461,-0.33789 z m 1.011718,0 c 0.188289,0 0.276835,0.15194 0.201172,0.33789 -0.0765,0.186275 -0.2903,0.337891 -0.476562,0.337891 -0.18655,0 -0.273791,-0.151616 -0.197266,-0.337891 0.076,-0.18595 0.287831,-0.33789 0.472656,-0.33789 z m 1.011719,0 c 0.187989,0 0.277697,0.15194 0.201172,0.33789 -0.076,0.186275 -0.288359,0.337891 -0.474609,0.337891 -0.1857,0 -0.27741,-0.151616 -0.201172,-0.337891 0.07563,-0.18595 0.288634,-0.33789 0.474609,-0.33789 z m 2.025391,0 c 0.186837,0 0.277697,0.15194 0.201172,0.33789 -0.07563,0.186275 -0.290013,0.337891 -0.476563,0.337891 -0.186261,0 -0.274665,-0.151616 -0.197266,-0.337891 0.07475,-0.18595 0.286682,-0.33789 0.472657,-0.33789 z m 1.011719,0 c 0.187124,0 0.277121,0.15194 0.201171,0.33789 -0.07625,0.186275 -0.288059,0.337891 -0.474609,0.337891 -0.186562,0 -0.275672,-0.151616 -0.201172,-0.337891 0.0765,-0.18595 0.290072,-0.33789 0.47461,-0.33789 z m 1.013671,0 c 0.186264,0 0.276319,0.15194 0.199219,0.33789 -0.07512,0.186275 -0.286395,0.337891 -0.472656,0.337891 -0.188289,0 -0.277122,-0.151616 -0.201172,-0.337891 0.07625,-0.18595 0.288059,-0.33789 0.474609,-0.33789 z m 1.013672,0 c 0.186263,0 0.274652,0.15194 0.197266,0.33789 -0.07475,0.186275 -0.288059,0.337891 -0.474609,0.337891 -0.186551,0 -0.275169,-0.151616 -0.199219,-0.337891 0.0765,-0.18595 0.290012,-0.33789 0.476562,-0.33789 z m 1.013672,0 c 0.184239,0 0.274594,0.15194 0.199219,0.33789 -0.07688,0.186275 -0.292241,0.337891 -0.478516,0.337891 -0.1851,0 -0.27149,-0.151616 -0.197265,-0.337891 0.07763,-0.18595 0.289137,-0.33789 0.476562,-0.33789 z m 1.011719,0 c 0.187125,0 0.273503,0.15194 0.197266,0.33789 -0.07563,0.186275 -0.28806,0.337891 -0.47461,0.337891 -0.18655,0 -0.275455,-0.151616 -0.199219,-0.337891 0.076,-0.18595 0.289999,-0.33789 0.476563,-0.33789 z m 1.011719,0 c 0.18655,0 0.276043,0.15194 0.199218,0.33789 -0.07563,0.186275 -0.288562,0.337891 -0.476562,0.337891 -0.185964,0 -0.273791,-0.151616 -0.197266,-0.337891 0.076,-0.18595 0.288335,-0.33789 0.47461,-0.33789 z m 1.011718,0 c 0.187125,0 0.275469,0.15194 0.199219,0.33789 -0.07562,0.186275 -0.289137,0.337891 -0.476562,0.337891 -0.185389,0 -0.273733,-0.151616 -0.199219,-0.337891 0.07625,-0.18595 0.288562,-0.33789 0.476562,-0.33789 z m 1.013672,0 c 0.186838,0 0.274019,0.15194 0.199219,0.33789 -0.07737,0.186275 -0.290013,0.337891 -0.476562,0.337891 -0.186551,0 -0.274582,-0.151616 -0.199219,-0.337891 0.0765,-0.18595 0.2903,-0.33789 0.476562,-0.33789 z m 4.046875,0 c 0.187425,0 0.276319,0.15194 0.199219,0.33789 -0.07562,0.186275 -0.287773,0.337891 -0.474609,0.337891 -0.1857,0 -0.274019,-0.151616 -0.199219,-0.337891 0.07625,-0.18595 0.289509,-0.33789 0.474609,-0.33789 z m -20.1523435,0.02148 c 0.1677875,0 0.2461719,0.136397 0.1777344,0.302734 -0.067875,0.169526 -0.2596594,0.302735 -0.4277344,0.302735 -0.16605,0 -0.2481375,-0.133209 -0.1796875,-0.302735 0.0685,-0.166337 0.2622,-0.302734 0.4296875,-0.302734 z m 21.1523435,0.0098 c 0.16865,0 0.250377,0.1372 0.181641,0.304687 -0.06788,0.169525 -0.261613,0.302735 -0.429688,0.302735 -0.166036,0 -0.246676,-0.13321 -0.179687,-0.302735 0.06963,-0.167487 0.262259,-0.304687 0.427734,-0.304687 z m -22.1992185,0.01563 c 0.1490125,0 0.2202906,0.120743 0.1582031,0.269531 -0.060625,0.148425 -0.2298937,0.269531 -0.3789062,0.269531 -0.1490125,0 -0.2213813,-0.121131 -0.1601563,-0.269531 0.060375,-0.148725 0.2318469,-0.269531 0.3808594,-0.269531 z m 23.2050785,0.01367 c 0.149011,0 0.220506,0.121368 0.160156,0.269531 -0.0615,0.149575 -0.232422,0.269531 -0.38086,0.269531 -0.149,0 -0.221093,-0.120006 -0.160156,-0.269531 0.06038,-0.14815 0.231846,-0.269531 0.38086,-0.269531 z M 5.1640625,30.9375 c 0.130525,0 0.1918094,0.106256 0.1386719,0.238281 -0.05425,0.129375 -0.2034469,0.234375 -0.3339844,0.234375 -0.1308125,0 -0.1912344,-0.105 -0.1386719,-0.234375 0.054,-0.131962 0.2020094,-0.238281 0.3339844,-0.238281 z m 25.1445315,0.0059 c 0.130825,0 0.192097,0.107369 0.138672,0.238282 -0.05375,0.12995 -0.202943,0.236328 -0.332032,0.236328 -0.12995,0 -0.193533,-0.106378 -0.138672,-0.236328 0.0525,-0.130825 0.200069,-0.238282 0.332032,-0.238282 z m 1,0.03711 c 0.114125,0 0.166187,0.09025 0.121094,0.203125 -0.04675,0.110875 -0.173394,0.201172 -0.285157,0.201172 -0.112375,0 -0.167838,-0.09025 -0.121093,-0.201172 0.04563,-0.112875 0.173393,-0.203125 0.285156,-0.203125 z m 1.007812,0.02539 c 0.0935,0 0.138557,0.07562 0.09961,0.166016 -0.03787,0.09412 -0.145353,0.169922 -0.236328,0.169922 -0.09475,0 -0.136844,-0.07587 -0.09961,-0.169922 0.03663,-0.09038 0.142191,-0.166016 0.236328,-0.166016 z m 0.994141,0.03711 c 0.07337,0 0.110453,0.06 0.08008,0.134765 -0.03,0.0745 -0.115237,0.134766 -0.191406,0.134766 -0.074,0 -0.110703,-0.06024 -0.08008,-0.134766 0.0315,-0.07475 0.115712,-0.134765 0.191406,-0.134765 z m -5.449219,0.910156 c 0.131975,0 0.193189,0.108509 0.140625,0.240234 -0.05513,0.129675 -0.203447,0.234375 -0.333984,0.234375 -0.130238,0 -0.193763,-0.10475 -0.140625,-0.234375 0.05463,-0.131675 0.203459,-0.240234 0.333984,-0.240234 z m -19.2128905,0.0332 c 0.1851125,0 0.2745816,0.149388 0.1992187,0.335938 -0.0765,0.185687 -0.2908749,0.33789 -0.4765624,0.33789 -0.187125,0 -0.2754563,-0.152203 -0.1992188,-0.33789 0.07625,-0.18655 0.2888625,-0.335938 0.4765625,-0.335938 z m 0.96875,0 c 0.1862625,0 0.2737906,0.149388 0.1972656,0.335938 -0.07625,0.185687 -0.2852437,0.33789 -0.4726562,0.33789 -0.1868375,0 -0.2757438,-0.152203 -0.1992188,-0.33789 0.075375,-0.18655 0.2877594,-0.335938 0.4746094,-0.335938 z m 0.9843745,0 c 0.186838,0 0.277182,0.149388 0.199219,0.335938 -0.07425,0.185687 -0.287759,0.33789 -0.474609,0.33789 -0.185964,0 -0.274869,-0.152203 -0.199219,-0.33789 0.0765,-0.18655 0.288348,-0.335938 0.474609,-0.335938 z m 1.064454,0 c 0.187125,0 0.276318,0.149388 0.199218,0.335938 -0.0745,0.185687 -0.287484,0.33789 -0.474609,0.33789 -0.185688,0 -0.275683,-0.152203 -0.201172,-0.33789 0.07762,-0.18655 0.291163,-0.335938 0.476563,-0.335938 z m 1.013672,0 c 0.186261,0 0.275468,0.149388 0.199218,0.335938 -0.076,0.185687 -0.289437,0.33789 -0.476562,0.33789 -0.185688,0 -0.275169,-0.152203 -0.199219,-0.33789 0.07625,-0.18655 0.288849,-0.335938 0.476563,-0.335938 z m 0.996093,0 c 0.185675,0 0.276607,0.149388 0.199219,0.335938 -0.07625,0.185687 -0.288623,0.33789 -0.474609,0.33789 -0.18655,0 -0.275458,-0.152203 -0.199219,-0.33789 0.07625,-0.18655 0.288047,-0.335938 0.474609,-0.335938 z m 1.113281,0 c 0.188001,0 0.277422,0.149388 0.201172,0.335938 -0.07562,0.185687 -0.289437,0.33789 -0.476562,0.33789 -0.185975,0 -0.275169,-0.152203 -0.199219,-0.33789 0.07625,-0.18655 0.288935,-0.335938 0.474609,-0.335938 z m 1.013672,0 c 0.186264,0 0.275744,0.149388 0.199219,0.335938 -0.07563,0.185687 -0.288059,0.33789 -0.474609,0.33789 -0.185688,0 -0.277122,-0.152203 -0.201172,-0.33789 0.0765,-0.18655 0.288851,-0.335938 0.476562,-0.335938 z m 1.013672,0 c 0.186838,0 0.275169,0.149388 0.199219,0.335938 -0.0765,0.185687 -0.290012,0.33789 -0.476563,0.33789 -0.186262,0 -0.274881,-0.152203 -0.199218,-0.33789 0.0765,-0.18655 0.290587,-0.335938 0.476562,-0.335938 z m 1.011719,0 c 0.184825,0 0.275241,0.149388 0.197266,0.335938 -0.0745,0.185687 -0.286393,0.33789 -0.472657,0.33789 -0.186836,0 -0.275959,-0.152203 -0.201172,-0.33789 0.07563,-0.18655 0.290301,-0.335938 0.476563,-0.335938 z m 1.011719,0 c 0.1854,0 0.275744,0.149388 0.199218,0.335938 -0.07563,0.185687 -0.287256,0.33789 -0.472656,0.33789 -0.187425,0 -0.276822,-0.152203 -0.201172,-0.33789 0.076,-0.18655 0.290072,-0.335938 0.47461,-0.335938 z m 3.041015,0 c 0.185975,0 0.273791,0.152419 0.197266,0.339844 -0.07562,0.184225 -0.288059,0.333984 -0.474609,0.333984 -0.186264,0 -0.274019,-0.149759 -0.199219,-0.333984 0.076,-0.187425 0.288287,-0.339844 0.476562,-0.339844 z m 1.011719,0 c 0.186564,0 0.27603,0.152419 0.199219,0.339844 -0.07538,0.184225 -0.288347,0.333984 -0.474609,0.333984 -0.185975,0 -0.275686,-0.149759 -0.201172,-0.333984 0.07563,-0.187425 0.290301,-0.339844 0.476562,-0.339844 z m 5.96875,0.0039 c 0.11375,0 0.166675,0.09137 0.121094,0.203125 -0.04587,0.112 -0.174785,0.201172 -0.28711,0.201172 -0.111249,0 -0.166206,-0.08912 -0.11914,-0.201172 0.0445,-0.11175 0.17542,-0.203125 0.285156,-0.203125 z m 1.003906,0.02734 c 0.0935,0 0.138632,0.07637 0.09961,0.169922 -0.03787,0.09325 -0.144792,0.167969 -0.236328,0.167969 -0.09525,0 -0.13917,-0.07476 -0.09961,-0.167969 0.03787,-0.09363 0.144203,-0.169922 0.236328,-0.169922 z m -22.1757809,0.0039 c 0.1672,0 0.2461719,0.13611 0.1777344,0.302735 -0.0685,0.169525 -0.2599594,0.302734 -0.4277344,0.302734 -0.16605,0 -0.248125,-0.133209 -0.1796875,-0.302734 0.068125,-0.166625 0.2616125,-0.302735 0.4296875,-0.302735 z m 16.2011719,0 c 0.168363,0 0.250666,0.13611 0.181641,0.302735 -0.06762,0.169525 -0.260822,0.302734 -0.427735,0.302734 -0.167787,0 -0.248125,-0.133209 -0.179687,-0.302734 0.06788,-0.166625 0.258581,-0.302735 0.425781,-0.302735 z m 7.976563,0.02344 c 0.07388,0 0.113031,0.06 0.08203,0.134766 -0.03125,0.0745 -0.116925,0.134765 -0.191407,0.134765 -0.07337,0 -0.109578,-0.06024 -0.08008,-0.134765 0.03087,-0.07475 0.116136,-0.134766 0.189454,-0.134766 z m -25.2246099,0.0039 c 0.1492875,0 0.218625,0.119128 0.15625,0.267578 -0.060125,0.148425 -0.2279406,0.269532 -0.3769531,0.269532 -0.1493,0 -0.2207937,-0.121132 -0.1601562,-0.269532 0.060875,-0.148437 0.2318468,-0.267578 0.3808593,-0.267578 z m 24.2070309,0.01758 c 0.07387,0 0.111578,0.05913 0.08008,0.134766 -0.0295,0.07337 -0.115725,0.136719 -0.191407,0.136719 -0.07338,0 -0.110078,-0.06337 -0.08008,-0.136719 0.0315,-0.07563 0.117488,-0.134766 0.191406,-0.134766 z m -25.2656246,0.03125 c 0.1311125,0 0.1926843,0.105756 0.1386718,0.238282 -0.052875,0.128799 -0.2015062,0.234374 -0.3320312,0.234374 -0.1319875,0 -0.1929,-0.105499 -0.140625,-0.234374 0.054875,-0.132551 0.2028844,-0.238282 0.3339844,-0.238282 z m 16.8789066,0.976563 c 0.165761,0 0.246676,0.136912 0.179687,0.304687 -0.06813,0.168363 -0.259672,0.304688 -0.427734,0.304688 -0.1675,0 -0.247838,-0.136325 -0.179688,-0.304688 0.06788,-0.167775 0.25966,-0.304687 0.427735,-0.304687 z m 0.996093,0.0332 c 0.150175,0 0.223622,0.122997 0.16211,0.271484 -0.06175,0.149013 -0.231846,0.271485 -0.38086,0.271485 -0.150161,0 -0.220231,-0.122497 -0.160156,-0.271485 0.06,-0.148425 0.231631,-0.271484 0.378906,-0.271484 z m 1,0.03711 c 0.130239,0 0.191235,0.105628 0.138672,0.236328 -0.05513,0.130525 -0.201206,0.234375 -0.332031,0.234375 -0.130813,0 -0.1926,-0.103875 -0.140625,-0.234375 0.05375,-0.130825 0.203448,-0.236328 0.333984,-0.236328 z m -15.4140621,0.03711 c 0.1877,0 0.27965,0.151915 0.203125,0.33789 -0.078,0.186263 -0.2888625,0.335938 -0.4765625,0.335938 -0.1845375,0 -0.2757438,-0.149675 -0.1992188,-0.335938 0.075625,-0.185975 0.2881313,-0.33789 0.4726563,-0.33789 z m 1.0117191,0 c 0.184236,0 0.275457,0.151915 0.199218,0.33789 -0.07562,0.186263 -0.289209,0.335938 -0.474609,0.335938 -0.1877,0 -0.2768937,-0.149675 -0.1992188,-0.335938 0.07475,-0.185975 0.2874675,-0.33789 0.4746098,-0.33789 z m 1.064453,0 c 0.188275,0 0.274881,0.151915 0.199218,0.33789 -0.0765,0.186263 -0.288045,0.335938 -0.474609,0.335938 -0.1854,0 -0.275744,-0.149675 -0.199219,-0.335938 0.0745,-0.185975 0.29036,-0.33789 0.47461,-0.33789 z m 0.978515,0 c 0.186564,0 0.277122,0.151915 0.201172,0.33789 -0.07737,0.186263 -0.288348,0.335938 -0.474609,0.335938 -0.186264,0 -0.277697,-0.149675 -0.201172,-0.335938 0.076,-0.185975 0.290084,-0.33789 0.474609,-0.33789 z m 1.013672,0 c 0.187713,0 0.275457,0.151915 0.199219,0.33789 -0.07775,0.186263 -0.288348,0.335938 -0.474609,0.335938 -0.1877,0 -0.27741,-0.149675 -0.201172,-0.335938 0.07625,-0.185975 0.290012,-0.33789 0.476562,-0.33789 z M 8,33.222656 c 0.1677875,0 0.2467594,0.135522 0.1777344,0.302735 -0.06725,0.16835 -0.2577063,0.302734 -0.4257813,0.302734 -0.1674875,0 -0.2484125,-0.134384 -0.1796875,-0.302734 C 7.6407656,33.358178 7.832225,33.222656 8,33.222656 Z m -0.9882812,0.02539 c 0.1484374,0 0.2210937,0.122497 0.1601562,0.271484 -0.062125,0.146988 -0.2298938,0.267578 -0.3789062,0.267578 -0.1493,0 -0.2210813,-0.120628 -0.1601563,-0.267578 0.060875,-0.149012 0.2298938,-0.271484 0.3789063,-0.271484 z m -1.0078126,0.05078 c 0.1314,0 0.1928875,0.105878 0.140625,0.236328 -0.053375,0.128788 -0.2034593,0.234375 -0.3339843,0.234375 -0.1316875,0 -0.1917969,-0.105625 -0.1386719,-0.234375 0.052625,-0.130525 0.1994812,-0.236328 0.3320312,-0.236328 z m 24.1015628,0.533203 v 7.675781 h -1.363281 v -6.791015 c 0.01646,-0.442438 0.343748,-0.560547 0.34375,-0.560547 l -0.002,-0.002 z m -7.070313,0.322266 c 0.12995,0 0.191019,0.104115 0.136719,0.236328 -0.0525,0.129925 -0.198678,0.236328 -0.330078,0.236328 -0.131114,0 -0.193475,-0.106378 -0.140625,-0.236328 0.05425,-0.132275 0.202584,-0.236328 0.333984,-0.236328 z m 1,0.0332 c 0.10975,0 0.163713,0.09125 0.117188,0.203125 -0.045,0.112 -0.173395,0.203125 -0.285156,0.203125 -0.111751,0 -0.165644,-0.09112 -0.119141,-0.203125 0.0445,-0.11175 0.175072,-0.203125 0.287109,-0.203125 z m 0.958985,0.01953 c 0.0935,0 0.136905,0.07775 0.09961,0.171875 -0.0375,0.09387 -0.144419,0.167969 -0.238281,0.167969 -0.09275,0 -0.138918,-0.07412 -0.09961,-0.167969 0.03875,-0.09412 0.145294,-0.171875 0.238282,-0.171875 z m 1.65039,0.05273 c 0.409775,0 0.730469,0.289728 0.730469,0.658203 0,0.36155 -0.320694,0.646484 -0.730469,0.646484 -0.402275,0 -0.730467,-0.290709 -0.730469,-0.646484 0,-0.362125 0.328194,-0.658203 0.730469,-0.658203 z M 9.5234375,34.429688 c 0.185975,0 0.2774094,0.152203 0.2011719,0.33789 -0.076,0.1877 -0.2900125,0.337891 -0.4765625,0.337891 -0.185975,0 -0.2758155,-0.150191 -0.1972657,-0.337891 0.073875,-0.185687 0.2863938,-0.33789 0.4726563,-0.33789 z m 1.0742185,0 c 0.186263,0 0.278272,0.152203 0.201172,0.33789 -0.0765,0.1877 -0.288862,0.337891 -0.476562,0.337891 -0.18425,0 -0.275528,-0.150191 -0.197266,-0.337891 0.07362,-0.185687 0.286106,-0.33789 0.472656,-0.33789 z m -2.1152341,0.04102 c 0.167775,0 0.2481375,0.13526 0.1796875,0.302735 -0.068375,0.167199 -0.2590969,0.302734 -0.4277344,0.302734 -0.165775,0 -0.248425,-0.135535 -0.1796875,-0.302734 0.069625,-0.167475 0.2599469,-0.302735 0.4277344,-0.302735 z m -0.9882813,0.04102 c 0.14785,0 0.2182654,0.120378 0.1582032,0.267578 -0.060375,0.148725 -0.2296063,0.269531 -0.3789063,0.269531 -0.1490125,0 -0.2222438,-0.120744 -0.1601563,-0.269531 0.060375,-0.147275 0.2303969,-0.267578 0.3808594,-0.267578 z m -1.0332031,0.04883 c 0.1296625,0 0.1937625,0.106119 0.140625,0.238281 -0.053125,0.128213 -0.2014938,0.234375 -0.3320313,0.234375 -0.131975,0 -0.1934748,-0.106125 -0.140625,-0.234375 0.053125,-0.132262 0.2015063,-0.238281 0.3320313,-0.238281 z m 26.2773435,0.234375 v 1.539062 h 1.517578 v 0.804688 h -1.517578 v 2.953125 c 0,0.418737 0.199863,0.628906 0.59375,0.628906 0.117825,0 0.199453,-0.01892 0.298828,-0.04492 l 0.04297,-0.01172 c 0.172125,-0.04713 0.375,-0.128906 0.375,-0.128906 l 0.314453,0.744141 c -0.06151,0.03726 -0.619634,0.287109 -1.380859,0.287109 -1.184575,0 -1.607422,-0.731243 -1.607422,-1.417968 v -4.472657 c 0.0231,-0.4337 0.34375,-0.546875 0.34375,-0.546875 l -0.002,-0.002 z m -18.810547,0.1875 h 2.330078 c 0.508251,0 0.98116,0.01563 1.216797,0.04687 0.417,0.04937 0.760016,0.154406 1.033203,0.316406 0.537138,0.321988 0.808594,0.784978 0.808594,1.392578 0,0.787213 -0.550547,1.526232 -1.490234,1.839844 l 2.068359,2.90625 -1.408203,0.002 c -0.311012,-0.0055 -0.514156,-0.229312 -0.582031,-0.320312 L 16.082031,38.21685 c 0.5686,-0.0023 0.968891,-0.108566 1.220703,-0.322266 0.252688,-0.211962 0.38086,-0.608315 0.38086,-0.986328 0,-0.389287 -0.147935,-0.742381 -0.44336,-0.910156 -0.203875,-0.116913 -0.616268,-0.175781 -1.105468,-0.175781 h -0.6875 v 5.662109 H 13.927734 Z M 7.9980469,35.8125 c 0.1493,0 0.2205187,0.121381 0.1601562,0.269531 -0.060875,0.149013 -0.2298345,0.269531 -0.3808593,0.269531 -0.147275,0 -0.2205782,-0.120506 -0.1582032,-0.269531 0.058875,-0.14815 0.2296063,-0.269531 0.3789063,-0.269531 z m 1,0 c 0.1493,0 0.2199312,0.121381 0.1601562,0.269531 -0.060375,0.149013 -0.2301218,0.269531 -0.3808593,0.269531 -0.1487257,0 -0.2205063,-0.120506 -0.1601563,-0.269531 0.061,-0.14815 0.2318469,-0.269531 0.3808594,-0.269531 z m -2.0273438,0.01953 c 0.1302375,0 0.1934625,0.106128 0.140625,0.236328 -0.054,0.12995 -0.2020812,0.236329 -0.3320312,0.236329 -0.1322625,0 -0.1954282,-0.106379 -0.1425781,-0.236329 0.054875,-0.130237 0.2037468,-0.236328 0.3339843,-0.236328 z m 20.3554689,0.279297 v 5.396484 h -1.363281 v -4.533203 c 0.02599,-0.424775 0.34375,-0.539062 0.34375,-0.539062 v -0.002 l -0.002,-0.002 z m 9.945312,0.111328 c 0.735238,0 1.309382,0.209941 1.707032,0.619141 0.412662,0.4271 0.621093,1.057103 0.621093,1.876953 0,0.05115 -7.03e-4,0.103125 -0.002,0.15625 v 0.0293 c 0,0 -3.427547,0.445625 -3.498047,0.453125 0.1135,0.913412 0.61205,1.357422 1.523438,1.357422 0.676612,0 1.149059,-0.151072 1.427734,-0.279297 l 0.0332,-0.01367 0.332032,0.789063 -0.02734,0.01562 c -0.337,0.1649 -0.94006,0.363282 -1.904297,0.363282 -1.683588,0 -2.6875,-1.007603 -2.6875,-2.697266 0,-1.670875 0.925022,-2.669922 2.474609,-2.669922 z m -14.648437,0.01367 c 1.348612,0 2.173828,0.622113 2.173828,1.796875 v 3.1875 l -0.02148,0.0098 c -0.475625,0.237675 -1.316532,0.373047 -2.113282,0.373047 -1.487787,0 -2.271484,-0.545938 -2.271484,-1.679688 0,-1.39885 1.557891,-1.657484 3.064453,-1.951172 v -0.08984 c 0,-0.559936 -0.32574,-0.810546 -1.05664,-0.810546 -0.610776,0 -1.156807,0.190828 -1.363282,0.283203 l -0.0293,0.01172 -0.320312,-0.832032 c 0.411225,-0.15075 1.037962,-0.296875 1.9375,-0.296875 z m 19.912109,0 c 1.348613,0 2.173828,0.622113 2.173828,1.796875 v 3.1875 l -0.01953,0.0098 c -0.476487,0.237675 -1.316819,0.373047 -2.113281,0.373047 -1.488088,0 -2.275391,-0.545938 -2.275391,-1.679688 0,-1.39885 1.56266,-1.657484 3.06836,-1.951172 v -0.08984 c 0,-0.559936 -0.323728,-0.810546 -1.056641,-0.810546 -0.6102,0 -1.156519,0.190828 -1.363281,0.283203 l -0.03125,0.01172 -0.322266,-0.832032 c 0.411513,-0.15075 1.042503,-0.296875 1.939453,-0.296875 z m 5.591797,0.002 c 0.810313,0 1.393569,0.182294 1.785156,0.550781 0.455975,-0.364437 1.070807,-0.550781 1.832032,-0.550781 1.475662,0 2,0.862144 2,1.597657 v 3.671874 h -1.365235 v -3.662109 c 0,-0.50075 -0.346637,-0.800781 -0.929687,-0.800781 -0.3757,0 -0.661688,0.104684 -0.921875,0.333984 v 4.128906 H 49.164062 V 37.81645 c 10e-7,-0.497 -0.376959,-0.78125 -1.037109,-0.78125 -0.376,0 -0.582781,0.04594 -0.816406,0.132813 v 4.339843 h -1.363281 v -4.888671 l 0.01953,-0.0098 c 0.6151,-0.2634 1.241256,-0.371094 2.160156,-0.371094 z m -10.898437,0.763672 c -0.3295,0 -0.598632,0.1043 -0.800782,0.3125 -0.26915,0.2781 -0.408203,0.7237 -0.408203,1.320313 0,0.02225 -5.47e-4,0.04348 0.002,0.06836 0.07075,-0.0104 2.240204,-0.305 2.298828,-0.3125 -0.0081,-0.9319 -0.366671,-1.388672 -1.091796,-1.388672 z m -28.7226566,0.0039 c 0.1487125,0 0.2205062,0.121369 0.1601562,0.269532 -0.060875,0.148437 -0.2298218,0.269531 -0.3808594,0.269531 -0.1490124,0 -0.2213812,-0.121131 -0.1601562,-0.269531 0.06,-0.148138 0.2312719,-0.269532 0.3808594,-0.269532 z m -1.0878906,0.05078 c 0.130525,0 0.1918093,0.104628 0.1386718,0.236328 -0.05225,0.129075 -0.1998281,0.236328 -0.3300781,0.236328 -0.1299375,0 -0.193475,-0.107253 -0.140625,-0.236328 0.0525,-0.131688 0.2015063,-0.236328 0.3320313,-0.236328 z m 0.4921874,1.314453 c 0.1299376,0 0.1934752,0.104625 0.140625,0.234375 -0.052874,0.130525 -0.2037468,0.236328 -0.3339843,0.236328 -0.130525,0 -0.1915219,-0.105753 -0.1386719,-0.236328 0.054,-0.129663 0.2012062,-0.234375 0.3320312,-0.234375 z M 23.455078,38.716797 C 22.266166,38.992284 21.625,39.100701 21.625,39.976562 c 0,0.607888 0.378631,0.914063 1.121094,0.914063 0.262212,0 0.523009,-0.04886 0.708984,-0.130859 z m 19.914063,0 c -1.189188,0.275487 -1.830079,0.383904 -1.830079,1.259765 10e-7,0.607888 0.376404,0.914063 1.119141,0.914063 0.262788,0 0.524675,-0.04886 0.710938,-0.130859 z"
     style="fill:#6b8ca6;fill-opacity:1;fill-rule:nonzero;stroke:none" />
</svg>
