<?xml version="1.0" encoding="UTF-8" standalone="no"?>
<!-- Created with Inkscape (http://www.inkscape.org/) -->

<svg
   xmlns:dc="http://purl.org/dc/elements/1.1/"
   xmlns:cc="http://creativecommons.org/ns#"
   xmlns:rdf="http://www.w3.org/1999/02/22-rdf-syntax-ns#"
   xmlns:svg="http://www.w3.org/2000/svg"
   xmlns="http://www.w3.org/2000/svg"
   xmlns:sodipodi="http://sodipodi.sourceforge.net/DTD/sodipodi-0.dtd"
   xmlns:inkscape="http://www.inkscape.org/namespaces/inkscape"
   width="96"
   height="96"
   viewBox="0 0 96.000001 96.000002"
   id="svg4136"
   version="1.1"
   inkscape:version="0.91 r13725"
   inkscape:export-filename="/home/master/network_mvg_logo.png"
   inkscape:export-xdpi="90"
   inkscape:export-ydpi="90"
   sodipodi:docname="network_sh_logo.svg">
  <defs
     id="defs4138">
    <clipPath
       id="clipPath3470"
       clipPathUnits="userSpaceOnUse">
      <path
         inkscape:connector-curvature="0"
         id="path3472"
         d="m 0,0 937.559,0 0,841.89 L 0,841.89 0,0 Z" />
    </clipPath>
    <clipPath
       id="clipPath3506"
       clipPathUnits="userSpaceOnUse">
      <path
         inkscape:connector-curvature="0"
         id="path3508"
         d="m 1119.766,4.513 39.711,0 0,26.33 -39.711,0 0,-26.33 z" />
    </clipPath>
  </defs>
  <sodipodi:namedview
     id="base"
     pagecolor="#ffffff"
     bordercolor="#666666"
     borderopacity="1.0"
     inkscape:pageopacity="1"
     inkscape:pageshadow="2"
     inkscape:zoom="8.01"
     inkscape:cx="27.348121"
     inkscape:cy="55.469045"
     inkscape:document-units="px"
     inkscape:current-layer="layer1"
     showgrid="true"
     units="px"
     inkscape:window-width="1855"
     inkscape:window-height="1056"
     inkscape:window-x="65"
     inkscape:window-y="24"
     inkscape:window-maximized="1"
     showguides="false">
    <inkscape:grid
       type="xygrid"
       id="grid4856" />
  </sodipodi:namedview>
  <metadata
     id="metadata4141">
    <rdf:RDF>
      <cc:Work
         rdf:about="">
        <dc:format>image/svg+xml</dc:format>
        <dc:type
           rdf:resource="http://purl.org/dc/dcmitype/StillImage" />
        <dc:title></dc:title>
        <cc:license
           rdf:resource="http://creativecommons.org/publicdomain/zero/1.0/" />
      </cc:Work>
      <cc:License
         rdf:about="http://creativecommons.org/publicdomain/zero/1.0/">
        <cc:permits
           rdf:resource="http://creativecommons.org/ns#Reproduction" />
        <cc:permits
           rdf:resource="http://creativecommons.org/ns#Distribution" />
        <cc:permits
           rdf:resource="http://creativecommons.org/ns#DerivativeWorks" />
      </cc:License>
    </rdf:RDF>
  </metadata>
  <g
     inkscape:label="Ebene 1"
     inkscape:groupmode="layer"
     id="layer1"
     transform="translate(0,-956.36216)">
    <rect
       style="fill:#ffffff;fill-opacity:1;stroke:#01ffff;stroke-width:0;stroke-linecap:butt;stroke-linejoin:miter;stroke-miterlimit:0;stroke-dasharray:none;stroke-opacity:1"
       id="rect4267"
       width="95.999954"
       height="95.999969"
       x="2.3284263e-05"
       y="956.36218" />
    <path
       style="fill:#003064;fill-opacity:1;fill-rule:nonzero;stroke:none"
       d="m 2.868838,993.06349 c -0.5142455,0 -0.9288696,0.40712 -0.9288696,0.9229 0,0.51806 0.4146241,0.92529 0.9288696,0.92529 0.5119533,0 0.9276777,-0.40723 0.9276777,-0.92529 0,-0.51578 -0.4157244,-0.9229 -0.9276777,-0.9229 z m 0,2.32097 c -0.5142455,0 -0.9288696,0.41864 -0.9288696,0.93365 0,0.50814 0.4146241,0.9241 0.9288696,0.9241 0.5119533,0 0.9276777,-0.41596 0.9276777,-0.9241 0,-0.51501 -0.4157244,-0.93365 -0.9276777,-0.93365 z m 2.3305333,0 c -0.5165377,0 -0.9360337,0.41864 -0.9360337,0.93365 0.00611,0.50814 0.419496,0.9241 0.9360337,0.9241 0.5066055,0 0.9264862,-0.41596 0.9264862,-0.9241 0,-0.51501 -0.4198807,-0.93365 -0.9264862,-0.93365 z m 2.3233696,0 c -0.5073685,0 -0.9228968,0.41864 -0.9228968,0.93365 0,0.50814 0.4155283,0.9241 0.9228968,0.9241 0.5150096,0 0.9278671,-0.41596 0.9324515,-0.9241 0,-0.51501 -0.4174419,-0.93365 -0.9324515,-0.93365 z m 2.3281499,0 c -0.5104253,0 -0.924384,0.41864 -0.9312606,0.93365 0.00691,0.50814 0.4208353,0.9241 0.9312606,0.9241 0.5157722,0 0.9266682,-0.41596 0.9312532,-0.9241 0,-0.51501 -0.415481,-0.93365 -0.9312532,-0.93365 z m 2.3269512,0 c -0.505076,0 -0.921902,0.41864 -0.926486,0.93365 0.0043,0.50814 0.42141,0.9241 0.926486,0.9241 0.512718,0 0.934835,-0.41596 0.934835,-0.9241 0,-0.51501 -0.422117,-0.93365 -0.934835,-0.93365 z m 2.335308,0 c -0.516539,0 -0.936035,0.41864 -0.936035,0.93365 0,0.50814 0.419496,0.9241 0.936035,0.9241 0.507368,0 0.924095,-0.41596 0.924095,-0.9241 0,-0.51501 -0.416727,-0.93365 -0.924095,-0.93365 z m -11.644312,2.32576 c -0.5142455,0 -0.9288696,0.41897 -0.9288696,0.93246 0,0.51424 0.4146241,0.93365 0.9288696,0.93365 0.5119533,0 0.9276777,-0.41941 0.9276777,-0.93365 0,-0.51349 -0.4157244,-0.93246 -0.9276777,-0.93246 z m 4.6539029,0 c -0.5073685,0 -0.9228968,0.41897 -0.9228968,0.93246 0,0.51424 0.4155283,0.93365 0.9228968,0.93365 0.5150096,0 0.9324515,-0.41941 0.9324515,-0.93365 0,-0.51349 -0.4174419,-0.93246 -0.9324515,-0.93246 z m 2.3281499,0 c -0.5104253,0 -0.9312606,0.41897 -0.9312606,0.93246 0.00691,0.51424 0.4208353,0.93365 0.9312606,0.93365 0.5157722,0 0.9312532,-0.41941 0.9312532,-0.93365 0,-0.51349 -0.415481,-0.93246 -0.9312532,-0.93246 z m 2.3269512,0 c -0.505076,0 -0.926486,0.41897 -0.926486,0.93246 0,0.51424 0.42141,0.93365 0.926486,0.93365 0.512718,0 0.934835,-0.41941 0.934835,-0.93365 0,-0.51349 -0.422117,-0.93246 -0.934835,-0.93246 z m 2.335308,0 c -0.516539,0 -0.936035,0.41897 -0.936035,0.93246 0,0.51424 0.419496,0.93365 0.936035,0.93365 0.507368,0 0.924095,-0.41941 0.924095,-0.93365 0,-0.51349 -0.416727,-0.93246 -0.924095,-0.93246 z m 2.323368,0 c -0.510425,0 -0.926479,0.41897 -0.926479,0.93246 0,0.51424 0.416054,0.93365 0.926479,0.93365 0.514247,0 0.930062,-0.41941 0.930062,-0.93365 0,-0.51349 -0.415815,-0.93246 -0.930062,-0.93246 z m 63.422268,0.58502 c -1.936253,-0.042 -3.515667,1.09311 -3.514903,2.96216 0,2.2885 1.987595,2.9121 3.222396,3.4026 1.425828,0.5662 2.963308,1.1187 2.963308,2.789 0.0024,1.3517 -1.26006,2.3775 -2.971664,2.3294 -1.222575,-0.034 -2.17523,-0.4465 -3.051664,-1.3802 l -0.545623,0.4979 c 0.88866,0.9536 2.070975,1.5793 3.683245,1.613 1.732236,0.037 3.671211,-1.0077 3.668918,-3.0601 0,-2.1456 -1.691304,-2.7835 -3.341781,-3.417 -1.05447,-0.4042 -2.856289,-0.9652 -2.857053,-2.7746 -5.99e-4,-1.36473 1.212452,-2.28095 2.765122,-2.2458 0.891715,0.0214 1.781426,0.45244 2.643342,1.1677 l 0.472787,-0.54328 c -1.047594,-0.92075 -2.127042,-1.31938 -3.13643,-1.34078 z m 5.992292,0.28177 0,11.64669 0.761719,0 0,-5.6651 6.096162,0 0,5.6651 0.754556,0 0,-11.64669 -0.754556,0 0,5.26399 -6.096162,0 0,-5.26399 -0.761719,0 z m -51.566635,0.0454 0,11.65863 2.076226,0 0,-8.9413 0.03582,0 5.759478,8.9413 2.634985,0 0,-11.65863 -2.075034,0 0,8.66193 -0.03105,0 -5.649629,-8.66193 -2.750794,0 z m 16.876071,0 -5.071778,11.65863 2.322177,0 1.05304,-2.6672 5.056252,0 1.086471,2.6672 2.369932,0 -5.020436,-11.65863 -1.795658,0 z m 8.11508,0 0,11.65863 2.076225,0 0,-5.1374 5.450252,0 0,5.1374 2.073841,0 0,-11.65863 -2.073841,0 0,4.64433 -5.450252,0 0,-4.64433 -2.076225,0 z m -52.1528531,1.42073 c -0.5073685,0 -0.9228968,0.417 -0.9228968,0.9313 0,0.5119 0.4155283,0.9217 0.9228968,0.9217 0.5150096,0 0.9324515,-0.4098 0.9324515,-0.9217 0,-0.5143 -0.4174419,-0.9313 -0.9324515,-0.9313 z m 2.3281499,0 c -0.5104253,0 -0.9312606,0.417 -0.9312606,0.9313 0,0.5119 0.4208353,0.9217 0.9312606,0.9217 0.5157722,0 0.9312532,-0.4098 0.9312532,-0.9217 0,-0.5143 -0.415481,-0.9313 -0.9312532,-0.9313 z m 2.3269512,0 c -0.505076,0 -0.926486,0.417 -0.926486,0.9313 0,0.5119 0.42141,0.9217 0.926486,0.9217 0.512718,0 0.934835,-0.4098 0.934835,-0.9217 0,-0.5143 -0.422117,-0.9313 -0.934835,-0.9313 z m 2.335308,0 c -0.516539,0 -0.936035,0.417 -0.936035,0.9313 0,0.5119 0.419496,0.9217 0.936035,0.9217 0.507368,0 0.924095,-0.4098 0.924095,-0.9217 0,-0.5143 -0.416727,-0.9313 -0.924095,-0.9313 z m 11.637147,0 c -0.514247,0 -0.925288,0.417 -0.925288,0.9313 0,0.5119 0.411041,0.9217 0.925288,0.9217 0.518829,0 0.931259,-0.4098 0.931259,-0.9217 0,-0.5143 -0.41243,-0.9313 -0.931259,-0.9313 z m 26.250737,1.0495 1.795658,4.7422 -3.624746,0 1.829088,-4.7422 z m -47.2016627,1.2763 c -0.5165377,0.01 -0.9360337,0.4268 -0.9360337,0.9372 0,0.512 0.419496,0.9277 0.9360337,0.9277 0.5111898,0 0.9264862,-0.4157 0.9264862,-0.9277 0,-0.5104 -0.4152964,-0.9303 -0.9264862,-0.9372 z m 2.3233696,0 c -0.5073685,0.01 -0.9228968,0.4268 -0.9228968,0.9372 0,0.512 0.4155283,0.9277 0.9228968,0.9277 0.5150096,0 0.9276771,-0.4157 0.9276771,-0.9277 0,-0.5104 -0.4126675,-0.9303 -0.9276771,-0.9372 z m 2.3281499,0 c -0.5104253,0.01 -0.924384,0.4268 -0.9312606,0.9372 0.00691,0.512 0.4208353,0.9277 0.9312606,0.9277 0.5157722,0 0.9266682,-0.4157 0.9312532,-0.9277 0,-0.5104 -0.415481,-0.9303 -0.9312532,-0.9372 z m 2.3269512,0 c -0.505076,0.01 -0.926486,0.4268 -0.926486,0.9372 0,0.512 0.42141,0.9277 0.926486,0.9277 0.512718,0 0.934835,-0.4157 0.934835,-0.9277 0,-0.5104 -0.422117,-0.9303 -0.934835,-0.9372 z m 2.335308,0 c -0.516539,0.01 -0.936035,0.4268 -0.936035,0.9372 0,0.512 0.419496,0.9277 0.936035,0.9277 0.507368,0 0.924095,-0.4157 0.924095,-0.9277 0,-0.5104 -0.416727,-0.9303 -0.924095,-0.9372 z m 2.323368,0 c -0.510425,0.01 -0.924187,0.4268 -0.926479,0.9372 0.0024,0.512 0.416054,0.9277 0.926479,0.9277 0.514247,0 0.930062,-0.4157 0.930062,-0.9277 0,-0.5104 -0.415815,-0.9303 -0.930062,-0.9372 z m 2.328144,0 c -0.509661,0.01 -0.92648,0.4268 -0.92648,0.9372 0,0.512 0.416819,0.9277 0.92648,0.9277 0.516537,0 0.927108,-0.4157 0.932451,-0.9277 -0.0055,-0.5104 -0.415914,-0.9303 -0.932451,-0.9372 z m 2.329341,0 c -0.515773,0.01 -0.931259,0.4268 -0.931259,0.9372 0,0.512 0.415486,0.9277 0.931259,0.9277 0.515774,0 0.927867,-0.4157 0.932453,-0.9277 -0.0049,-0.5104 -0.416679,-0.9303 -0.932453,-0.9372 z m 2.329342,0 c -0.516539,0.01 -0.927538,0.4268 -0.93365,0.9372 0.0061,0.512 0.417111,0.9277 0.93365,0.9277 0.513481,0 0.931259,-0.4157 0.931259,-0.9277 0,-0.5104 -0.417778,-0.9303 -0.931259,-0.9372 z m -16.3006041,2.3377 c -0.5073685,0 -0.9228968,0.4059 -0.9228968,0.9217 0,0.5135 0.4155283,0.9336 0.9228968,0.9336 0.5150096,0 0.9324515,-0.4186 0.9324515,-0.9336 0,-0.5158 -0.4174419,-0.9217 -0.9324515,-0.9217 z m 2.3293408,0 c -0.5111883,0 -0.9264846,0.4059 -0.9264846,0.9217 0,0.5135 0.4152963,0.9336 0.9264846,0.9336 0.5157743,0 0.9300623,-0.4186 0.9300623,-0.9336 -0.0037,-0.5158 -0.414288,-0.9217 -0.9300623,-0.9217 z m 2.3257603,0 c -0.505076,0 -0.926486,0.4059 -0.926486,0.9217 0,0.5135 0.42141,0.9336 0.926486,0.9336 0.512718,0 0.934835,-0.4201 0.934835,-0.9336 0,-0.5158 -0.422117,-0.9217 -0.934835,-0.9217 z m 2.335308,0 c -0.516539,0 -0.936035,0.4059 -0.936035,0.9217 0,0.5135 0.419496,0.9336 0.936035,0.9336 0.507368,0 0.924095,-0.4201 0.924095,-0.9336 0,-0.5158 -0.416727,-0.9217 -0.924095,-0.9217 z m 2.323368,0 c -0.510425,0 -0.926479,0.4059 -0.926479,0.9217 0,0.5135 0.416054,0.9336 0.926479,0.9336 0.514247,0 0.931261,-0.4201 0.931261,-0.9336 0,-0.5158 -0.417014,-0.9217 -0.931261,-0.9217 z m 2.328144,0 c -0.514245,0 -0.92648,0.4059 -0.92648,0.9217 0,0.515 0.412235,0.9336 0.92648,0.9336 0.516537,0 0.927108,-0.4201 0.932451,-0.9336 -0.0055,-0.5158 -0.415914,-0.9217 -0.932451,-0.9217 z m 2.329341,0 c -0.515773,0 -0.931259,0.4059 -0.931259,0.9217 0,0.5135 0.415486,0.9336 0.931259,0.9336 0.515774,0 0.932453,-0.4201 0.932453,-0.9336 0,-0.5158 -0.416679,-0.9217 -0.932453,-0.9217 z m 2.329342,0 c -0.513482,0 -0.93365,0.4059 -0.93365,0.9217 0,0.5135 0.420168,0.9336 0.93365,0.9336 0.513481,0 0.931259,-0.4201 0.931259,-0.9336 0,-0.5158 -0.417778,-0.9217 -0.931259,-0.9217 z m -16.3006041,2.3257 c -0.5073685,0 -0.9228968,0.413 -0.9228968,0.9265 0,0.5143 0.4155283,0.9337 0.9228968,0.9337 0.5150096,0 0.9324515,-0.4194 0.9324515,-0.9337 0,-0.5135 -0.4174419,-0.9265 -0.9324515,-0.9265 z m 2.3293408,0 c -0.5111883,0 -0.9264846,0.413 -0.9264846,0.9265 0,0.5143 0.4152963,0.9337 0.9264846,0.9337 0.5157743,0 0.9300623,-0.4194 0.9300623,-0.9337 0,-0.5135 -0.414288,-0.9265 -0.9300623,-0.9265 z m 2.3257603,0 c -0.505076,0 -0.926486,0.413 -0.926486,0.9265 0,0.5143 0.42141,0.9337 0.926486,0.9337 0.512718,0 0.934835,-0.4194 0.934835,-0.9337 0,-0.5135 -0.422117,-0.9265 -0.934835,-0.9265 z m 2.335308,0 c -0.516539,0 -0.936035,0.413 -0.936035,0.9265 0,0.5143 0.419496,0.9337 0.936035,0.9337 0.507368,0 0.924095,-0.4194 0.924095,-0.9337 0,-0.5135 -0.416727,-0.9265 -0.924095,-0.9265 z m 2.323368,0 c -0.510425,0 -0.926479,0.413 -0.926479,0.9265 0,0.5143 0.416054,0.9337 0.926479,0.9337 0.514247,0 0.930062,-0.4194 0.930062,-0.9337 0,-0.5135 -0.415815,-0.9265 -0.930062,-0.9265 z m 2.328144,0 c -0.509661,0 -0.92648,0.413 -0.92648,0.9265 0,0.5143 0.416819,0.9337 0.92648,0.9337 0.516537,0 0.927108,-0.4194 0.932451,-0.9337 -0.0055,-0.5135 -0.415914,-0.9265 -0.932451,-0.9265 z m 2.329341,0 c -0.515773,0 -0.931259,0.413 -0.931259,0.9265 0,0.5143 0.415486,0.9337 0.931259,0.9337 0.515774,0 0.932453,-0.4194 0.932453,-0.9337 0,-0.5135 -0.416679,-0.9265 -0.932453,-0.9265 z m 51.517683,0.8119 c -0.725904,0 -1.318082,0.5763 -1.318082,1.2847 0,0.7068 0.626569,1.2512 1.318082,1.2512 0.723617,0 1.315704,-0.5763 1.315704,-1.2847 0,-0.7083 -0.609667,-1.2512 -1.315704,-1.2512 z m -60.833844,1.5163 c -0.505076,0 -0.926486,0.419 -0.926486,0.9241 0,0.5165 0.42141,0.9324 0.926486,0.9324 0.512718,0 0.934835,-0.4159 0.934835,-0.9324 0,-0.5051 -0.422117,-0.9241 -0.934835,-0.9241 z m 2.335308,0 c -0.516539,0 -0.936035,0.419 -0.936035,0.9241 0,0.5165 0.419496,0.9324 0.936035,0.9324 0.507368,0 0.924095,-0.4159 0.924095,-0.9324 0,-0.5051 -0.416727,-0.9241 -0.924095,-0.9241 z m 2.323368,0 c -0.510425,0 -0.924187,0.419 -0.926479,0.9241 0,0.5165 0.416054,0.9324 0.926479,0.9324 0.514247,0 0.931261,-0.4159 0.931261,-0.9324 -0.0012,-0.5051 -0.417014,-0.9241 -0.931261,-0.9241 z m 2.328144,0 c -0.514245,0 -0.922659,0.419 -0.92648,0.9241 0,0.5165 0.412235,0.9324 0.92648,0.9324 0.516537,0 0.932457,-0.4159 0.932451,-0.9324 -0.0055,-0.5051 -0.415914,-0.9241 -0.932451,-0.9241 z m 2.329341,0 c -0.515773,0 -0.931259,0.419 -0.931259,0.9241 0,0.5165 0.415486,0.9324 0.931259,0.9324 0.515774,0 0.932453,-0.4159 0.932453,-0.9324 0,-0.5051 -0.416679,-0.9241 -0.932453,-0.9241 z m -6.980853,2.3317 c -0.516539,0 -0.936035,0.4061 -0.936035,0.9265 0,0.5135 0.419496,0.9217 0.936035,0.9217 0.507368,0 0.924095,-0.4082 0.924095,-0.9217 0,-0.5204 -0.416727,-0.9265 -0.924095,-0.9265 z m 4.651512,0 c -0.514245,0 -0.92648,0.4061 -0.92648,0.9265 0,0.5135 0.412235,0.9217 0.92648,0.9217 0.516537,0 0.932457,-0.4082 0.932451,-0.9217 0,-0.5204 -0.415914,-0.9265 -0.932451,-0.9265 z m 2.329341,0 c -0.515773,0 -0.931259,0.4061 -0.931259,0.9265 0,0.5135 0.415486,0.9217 0.931259,0.9217 0.515774,0 0.932453,-0.4082 0.932453,-0.9217 0,-0.5204 -0.416679,-0.9265 -0.932453,-0.9265 z m 2.329342,0 c -0.516539,0 -0.927679,0.4061 -0.927679,0.9265 0,0.5135 0.41114,0.9217 0.927679,0.9217 0.513481,0 0.931259,-0.4082 0.931259,-0.9217 0,-0.5204 -0.417778,-0.9265 -0.931259,-0.9265 z m -4.658683,2.3198 c -0.514245,0 -0.92648,0.4193 -0.92648,0.9313 0,0.5096 0.412235,0.9301 0.92648,0.9301 0.516537,0 0.927108,-0.4205 0.932451,-0.9301 -0.0055,-0.512 -0.415914,-0.9313 -0.932451,-0.9313 z m 2.329341,0 c -0.515773,0 -0.931259,0.4193 -0.931259,0.9313 0.0024,0.5096 0.415486,0.9301 0.931259,0.9301 0.515774,0 0.932453,-0.4205 0.932453,-0.9301 0,-0.512 -0.416679,-0.9313 -0.932453,-0.9313 z"
       id="path26"
       inkscape:connector-curvature="0" />
  </g>
</svg>
