<?xml version="1.0" encoding="UTF-8" standalone="no"?>
<svg
   xmlns:dc="http://purl.org/dc/elements/1.1/"
   xmlns:cc="http://creativecommons.org/ns#"
   xmlns:rdf="http://www.w3.org/1999/02/22-rdf-syntax-ns#"
   xmlns:svg="http://www.w3.org/2000/svg"
   xmlns="http://www.w3.org/2000/svg"
   xmlns:sodipodi="http://sodipodi.sourceforge.net/DTD/sodipodi-0.dtd"
   xmlns:inkscape="http://www.inkscape.org/namespaces/inkscape"
   width="64"
   height="64"
   id="svg4199"
   version="1.1"
   inkscape:version="0.91 r13725"
   sodipodi:docname="network_ontario_logo.svg"
   inkscape:export-filename="../../res/drawable-xhdpi/network_ontario_logo.png"
   inkscape:export-xdpi="17.280001"
   inkscape:export-ydpi="17.280001">
  <metadata
     id="metadata4211">
    <rdf:RDF>
      <cc:Work
         rdf:about="">
        <dc:format>image/svg+xml</dc:format>
        <dc:type
           rdf:resource="http://purl.org/dc/dcmitype/StillImage" />
        <dc:title></dc:title>
      </cc:Work>
    </rdf:RDF>
  </metadata>
  <defs
     id="defs4209" />
  <sodipodi:namedview
     pagecolor="#000000"
     bordercolor="#666666"
     borderopacity="1"
     objecttolerance="10"
     gridtolerance="10"
     guidetolerance="10"
     inkscape:pageopacity="0"
     inkscape:pageshadow="2"
     inkscape:window-width="1920"
     inkscape:window-height="1012"
     id="namedview4207"
     showgrid="false"
     fit-margin-top="0"
     fit-margin-left="0"
     fit-margin-right="0"
     fit-margin-bottom="0"
     inkscape:zoom="4.2143564"
     inkscape:cx="43.78022"
     inkscape:cy="30.098511"
     inkscape:window-x="1440"
     inkscape:window-y="0"
     inkscape:window-maximized="1"
     inkscape:current-layer="svg4199" />
  <circle
     style="opacity:1;fill:#ffffff;fill-opacity:1;fill-rule:nonzero;stroke:none;stroke-width:1.778;stroke-linecap:square;stroke-linejoin:round;stroke-miterlimit:10;stroke-dasharray:none;stroke-dashoffset:0;stroke-opacity:1"
     id="path4143"
     cx="32"
     cy="32"
     r="32" />
  <path
     d="m 31.999085,7 -4.043037,7.540775 c -0.458768,0.819556 -1.280742,0.743542 -2.102718,0.285794 l -2.927051,-1.515684 2.181577,11.582472 c 0.458768,2.116052 -1.013167,2.116052 -1.739573,1.201108 l -5.108274,-5.718635 -0.829318,2.904059 c -0.09563,0.381365 -0.516126,0.781918 -1.146961,0.686531 l -6.4594691,-1.358118 1.6966211,6.168267 c 0.363201,1.372509 0.646507,1.940774 -0.366667,2.302766 l -2.302363,1.082104 11.119558,9.032105 c 0.440119,0.341512 0.662484,0.956088 0.505799,1.512544 l -0.973198,3.193727 c 3.828628,-0.441329 7.259138,-1.105296 11.089705,-1.514215 0.338161,-0.0361 0.904282,0.521965 0.901961,0.913846 L 30.988389,57 32.849887,57 32.556865,45.324539 c -0.0023,-0.391882 0.511256,-0.975039 0.849417,-0.938939 3.830566,0.408919 7.261082,1.072886 11.089709,1.514215 l -0.973196,-3.193727 c -0.156686,-0.556456 0.06568,-1.171032 0.505798,-1.512544 l 11.119555,-9.032105 -2.302361,-1.082104 c -1.013176,-0.361992 -0.72987,-0.930257 -0.366668,-2.302766 l 1.696624,-6.168267 -6.459472,1.358118 c -0.630836,0.09539 -1.051326,-0.305166 -1.146963,-0.686531 L 45.739989,20.37583 40.63172,26.094465 c -0.726411,0.914944 -2.198346,0.914944 -1.739577,-1.201108 l 2.181572,-11.582472 -2.927044,1.515684 c -0.821997,0.457748 -1.64395,0.533762 -2.102721,-0.285794"
     id="path4205"
     inkscape:connector-curvature="0"
     style="fill:#ff0000" />
  <g
     style="font-style:normal;font-variant:normal;font-weight:normal;font-stretch:normal;font-size:9.2159996px;line-height:125%;font-family:FreeSans;-inkscape-font-specification:FreeSans;letter-spacing:0px;word-spacing:0px;fill:#000000;fill-opacity:1;stroke:none;stroke-width:1px;stroke-linecap:butt;stroke-linejoin:miter;stroke-opacity:1"
     id="text4213"
     transform="matrix(0.8683749,0,0,0.8683749,3.8862319,4.1351721)">
    <path
       d="m 44.233189,55.670278 q 0,1.6125 -0.57,2.8275 -0.57,1.215 -1.635,1.875 -1.0575,0.66 -2.43,0.66 -1.3575,0 -2.4225,-0.6525 -1.065,-0.6525 -1.65,-1.86 -0.585,-1.215 -0.5925,-2.79 l 0,-0.54 q 0,-1.6125 0.5775,-2.835 0.585,-1.23 1.6425,-1.8825 1.065,-0.66 2.43,-0.66 1.365,0 2.4225,0.66 1.065,0.6525 1.6425,1.8825 0.585,1.2225 0.585,2.8275 l 0,0.4875 z m -2.28,-0.495 q 0,-1.7175 -0.615,-2.61 -0.615,-0.8925 -1.755,-0.8925 -1.1325,0 -1.7475,0.885 -0.615,0.8775 -0.6225,2.58 l 0,0.5325 q 0,1.6725 0.615,2.595 0.615,0.9225 1.77,0.9225 1.1325,0 1.74,-0.885 0.6075,-0.8925 0.615,-2.595 l 0,-0.5325 z"
       style="font-style:normal;font-variant:normal;font-weight:bold;font-stretch:normal;font-size:15.35999966px;font-family:Roboto;-inkscape-font-specification:'Roboto Bold'"
       id="path4139"
       inkscape:connector-curvature="0" />
    <path
       d="m 54.763189,60.882778 -2.25,0 -4.38,-7.185 0,7.185 -2.25,0 0,-10.92 2.25,0 4.3875,7.2 0,-7.2 2.2425,0 0,10.92 z"
       style="font-style:normal;font-variant:normal;font-weight:bold;font-stretch:normal;font-size:15.35999966px;font-family:Roboto;-inkscape-font-specification:'Roboto Bold'"
       id="path4141"
       inkscape:connector-curvature="0" />
  </g>
</svg>
