<?xml version="1.0" encoding="UTF-8" standalone="no"?>
<svg
   xmlns="http://www.w3.org/2000/svg"
   version="1.1"
   height="64"
   width="64">
   <path
     d="M 0,31.99999 V 0 H 32.000011 64.000024 V 31.99999 64 H 32.000011 0 Z"
     style="fill:#bbbcbd;stroke-width:0.66666698" />
   <path
     d="M 0,31.99999 V 0 H 32.000011 64.000024 V 31.99999 64 H 32.000011 0 Z M 42.289393,57.88594 C 63.199594,49.64392 65.927294,21.12073 46.968482,8.95737 28.013335,-3.20367 3.496474,11.41157 4.809286,34.08969 5.867999,52.3783 25.170567,64.63357 42.289393,57.88594 Z M 10.666669,47.18318 c 4.52239,-14.03429 5.810917,-17.19103 10.458375,-31.03737 h 3.60415 3.60415 l 1.650489,4.22033 c 0.907767,2.42435 1.839032,4.52436 2.069473,4.66681 0.230476,0.14249 1.239232,-1.83174 2.241759,-4.38701 l 1.822775,-4.50013 h 3.607752 c 1.984263,0 3.607755,-0.14022 3.607755,0 3.762508,11.54597 7.388254,21.41333 10.573599,31.03737 h -5.180803 -5.18081 c -1.437645,-2.70682 -4.103765,-8.84693 -4.103765,-8.84693 -1.390209,3.02612 -2.114997,5.50772 -3.221212,8.84693 h -4.025473 -4.025465 c -1.175153,-2.53039 -3.572677,-8.69201 -3.572677,-8.69201 -1.595014,2.94305 -2.428528,5.42072 -3.674672,8.69201 h -5.1277 c -2.822268,0 -5.1277,0.22866 -5.1277,0 z"
     style="fill:#fdf003;stroke-width:0.66666698" />
   <path
     style="fill:#000000;stroke-width:1.33320248" />
   <path
     style="fill:#000000;stroke-width:1.33320248" />
</svg>
