<?xml version="1.0" encoding="UTF-8" standalone="no"?>
<!-- Created with Inkscape (http://www.inkscape.org/) -->

<svg
   xmlns:dc="http://purl.org/dc/elements/1.1/"
   xmlns:cc="http://creativecommons.org/ns#"
   xmlns:rdf="http://www.w3.org/1999/02/22-rdf-syntax-ns#"
   xmlns:svg="http://www.w3.org/2000/svg"
   xmlns="http://www.w3.org/2000/svg"
   xmlns:sodipodi="http://sodipodi.sourceforge.net/DTD/sodipodi-0.dtd"
   xmlns:inkscape="http://www.inkscape.org/namespaces/inkscape"
   version="1.1"
   width="64"
   height="64"
   id="svg2"
   xml:space="preserve"
   inkscape:version="0.91 r13725"
   sodipodi:docname="network_invg_logo.svg"
   inkscape:export-filename="/tmp/Transportr/res/drawable-xhdpi/network_invg_logo.png"
   inkscape:export-xdpi="28.173811"
   inkscape:export-ydpi="28.173811"><title
     id="title4710">Logo of Ingolstädter Verkehrsgesellschaft (INVG), Germany</title><sodipodi:namedview
     pagecolor="#ffffff"
     bordercolor="#666666"
     borderopacity="1"
     objecttolerance="10"
     gridtolerance="10"
     guidetolerance="10"
     inkscape:pageopacity="1"
     inkscape:pageshadow="2"
     inkscape:window-width="1920"
     inkscape:window-height="1012"
     id="namedview63"
     showgrid="false"
     fit-margin-left="25"
     fit-margin-right="25"
     fit-margin-bottom="25.5"
     fit-margin-top="25.5"
     inkscape:zoom="6.0465487"
     inkscape:cx="-14.564786"
     inkscape:cy="45.645411"
     inkscape:window-x="1440"
     inkscape:window-y="0"
     inkscape:window-maximized="1"
     inkscape:current-layer="g26951" /><metadata
     id="metadata8"><rdf:RDF><cc:Work
         rdf:about=""><dc:format>image/svg+xml</dc:format><dc:type
           rdf:resource="http://purl.org/dc/dcmitype/StillImage" /><dc:title>Logo of Ingolstädter Verkehrsgesellschaft (INVG), Germany</dc:title><dc:rights><cc:Agent><dc:title>Image contains a Trademark</dc:title></cc:Agent></dc:rights><dc:subject><rdf:Bag /></dc:subject><dc:source>https://de.wikipedia.org/wiki/Datei:Ingolst%C3%A4dter_Verkehrsgesellschaft_Logo.svg</dc:source></cc:Work></rdf:RDF></metadata><defs
     id="defs6"><clipPath
       id="clipPath16"><path
         d="m -9,-9 1209,0 0,1702 -1209,0 0,-1702 z"
         id="path18"
         inkscape:connector-curvature="0" /></clipPath></defs><g
     transform="matrix(1.25,0,0,-1.25,56.250001,7.7921444)"
     id="g10"><g
       transform="matrix(3.1345968,0,0,3.1345968,-185.82958,-616.98722)"
       id="g26951"><g
         id="g26939"
         transform="matrix(0.20869618,0,0,0.20869489,35.77285,143.04414)"><path
           d="m 86.3887,267.2606 -7.0767,0 -28.0041,-34.5798 0,-8.739 35.0808,43.3188 z"
           id="path11788"
           style="fill:#00a650;fill-opacity:1;fill-rule:nonzero;stroke:none"
           inkscape:connector-curvature="0" /><path
           d="m 93.4634,267.2606 -7.0742,0 -35.0807,-43.3188 0,-8.7344 42.1549,52.0532 z"
           id="path11790"
           style="fill:#fcd205;fill-opacity:1;fill-rule:nonzero;stroke:none"
           inkscape:connector-curvature="0" /><path
           d="m 51.3085,215.2077 0,-8.7398 49.2293,60.793 -7.0744,0 -42.1549,-52.0532 z"
           id="path11792"
           style="fill:#e19914;fill-opacity:1;fill-rule:nonzero;stroke:none"
           inkscape:connector-curvature="0" /><path
           d="m 51.3085,206.4671 0,-8.7364 56.3046,69.5293 -7.0753,0 -49.2293,-60.7929 z"
           id="path11794"
           style="fill:#66cef5;fill-opacity:1;fill-rule:nonzero;stroke:none"
           inkscape:connector-curvature="0" /><path
           d="m 107.6131,267.2606 -56.3049,-69.5299 0,-8.7364 63.3816,78.2663 -7.0767,0 z"
           id="path11796"
           style="fill:#ed192e;fill-opacity:1;fill-rule:nonzero;stroke:none"
           inkscape:connector-curvature="0" /><path
           d="m 114.6898,258.5242 0,8.7367 -63.3813,-78.2666 7.0767,0 56.3046,69.5299 z"
           id="path11798"
           style="fill:#80cc28;fill-opacity:1;fill-rule:nonzero;stroke:none"
           inkscape:connector-curvature="0" /><path
           d="m 114.6898,249.7878 0,8.7364 -56.3046,-69.5293 7.0764,0 49.2282,60.7929 z"
           id="path11800"
           style="fill:#b30f8e;fill-opacity:1;fill-rule:nonzero;stroke:none"
           inkscape:connector-curvature="0" /><path
           d="m 72.5369,188.9943 42.1523,52.0555 0,8.7378 -49.2267,-60.7933 7.0744,0 z"
           id="path11802"
           style="fill:#0e88d3;fill-opacity:1;fill-rule:nonzero;stroke:none"
           inkscape:connector-curvature="0" /><path
           d="m 72.5369,188.9943 7.0744,0 35.0779,43.3188 0,8.7367 -42.1523,-52.0555 z"
           id="path11804"
           style="fill:#f89c0e;fill-opacity:1;fill-rule:nonzero;stroke:none"
           inkscape:connector-curvature="0" /><path
           d="m 79.6116,188.9943 7.0744,0 28.004,34.5799 0,8.7389 -35.0784,-43.3188 z"
           id="path11806"
           style="fill:#cce310;fill-opacity:1;fill-rule:nonzero;stroke:none"
           inkscape:connector-curvature="0" /></g></g></g></svg>