<?xml version="1.0" encoding="UTF-8" standalone="no"?>
<svg
   xmlns="http://www.w3.org/2000/svg"
   version="1.1"
   height="64"
   width="64">
   <rect
     y="0"
     x="0"
     height="64"
     width="64"
     style="opacity:1;fill:#ffffff;fill-opacity:1;stroke:#ffffff;" />
   <polygon
     transform="matrix(0.02715201,0,0,0.02715201,0,16.023217)"
     points="0,586.719 410.373,0 596.91,0 193.33,586.719 390.025,885.158 1885.68,881.794 1678.8,1176.84 406.976,1176.84 "
     id="polygon7770"
     style="fill:#1a3d70;fill-rule:nonzero" />
   <polygon
     transform="matrix(0.02715201,0,0,0.02715201,0,16.023217)"
     points="2357.1,586.719 1946.73,1176.84 1763.59,1176.84 2167.17,586.719 1967.08,288.281 471.421,295.042 678.306,0 1950.12,0 "
     id="polygon7772"
     style="fill:#1a3d70;fill-rule:nonzero" />
   <path
     d="m 18.50965,31.401333 c -1.012892,0 -1.565344,0 -1.565344,0 v -3.683119 c 0,0 0.828288,0 1.657549,0 1.319983,0 2.02559,0.828317 2.02559,1.841131 0,0.921408 -0.705607,1.841998 -2.117795,1.841998 z m 0.460246,-5.525107 h -7.367152 l 0.0925,1.841988 h 1.319885 c 0.522074,0 0.522074,0.275817 0.522074,0.736112 v 7.091288 c 0,0.643868 -0.276713,0.828307 -0.736959,0.828307 h -1.105 v 1.47308 h 6.999014 v -1.47308 h -1.197205 c -0.552549,0 -0.552549,-0.368022 -0.552549,-0.736969 0,-0.368051 0,-2.393621 0,-2.393621 0,0 0.920591,0.0922 2.578139,0.0922 1.657451,0 5.003024,-0.829203 5.003024,-4.052056 0,-3.1306 -4.266066,-3.407283 -5.555572,-3.407283 z"
     id="path7774"
     style="fill:#1a3d70;fill-rule:nonzero;stroke-width:0.02715201" />
   <path
     d="m 48.529645,31.401333 c -1.105097,0 -1.657548,0 -1.657548,0 v -3.683119 c 0,0 0.920589,0 1.657548,0 1.380836,0 2.02559,0.828317 2.02559,1.841131 0,0.921408 -0.644754,1.841998 -2.02559,1.841998 z m 0.368041,-5.525107 h -7.274851 v 1.841988 h 1.381712 c 0.460246,0 0.552451,0.275817 0.552451,0.736112 v 7.091288 c 0,0.643868 -0.368917,0.828307 -0.736959,0.828307 h -1.197204 v 1.47308 h 7.090344 v -1.47308 h -1.288631 c -0.461123,0 -0.552451,-0.368022 -0.552451,-0.736969 0,-0.368051 0,-2.393621 0,-2.393621 0,0 1.012794,0.0922 2.578138,0.0922 1.657451,0 5.003024,-0.829203 5.003024,-4.052056 0,-3.1306 -4.174737,-3.407283 -5.555573,-3.407283 z"
     id="path7776"
     style="fill:#1a3d70;fill-rule:nonzero;stroke-width:0.02715201" />
   <path
     d="m 24.863035,25.968431 h 6.999113 v 1.749783 h -0.829164 c -0.644753,0 -0.92059,0.183583 -0.92059,0.736112 v 3.499517 c 0,0 3.867549,-3.222834 4.327893,-3.499517 0.18441,-0.183612 0.736958,-0.736112 0.18441,-0.736112 h -1.012795 v -1.841988 h 6.168975 v 1.841988 h -0.64378 c -0.46122,0 -1.197303,0.460266 -1.474015,0.736112 -0.275837,0.276673 -3.13059,2.394488 -3.13059,2.394488 0,0 3.499507,4.052056 3.805819,4.420097 0.429771,0.644764 0.890114,1.012824 1.351237,1.10502 0.368041,0 0.552549,0 1.104999,0 v 1.47308 h -7.182645 v -1.565276 c 0,0 0.275835,0.0922 0.643877,0.0922 0.368918,0 0.829164,-0.0922 0.461123,-0.460265 -0.461123,-0.736969 -2.671123,-3.407303 -2.671123,-3.407303 l -1.933386,1.47308 v 1.65752 c 0,0.368937 0.18441,0.644763 0.644754,0.644763 h 1.105 v 1.565276 H 24.863035 V 36.37394 h 1.013671 c 0.460344,0 0.828385,-0.184439 0.828385,-0.920551 v -7.182665 c 0,-0.460256 -0.184507,-0.55249 -0.644754,-0.55249 -0.644753,0 -1.197302,0 -1.197302,0 v -1.749783 z"
     id="path7778"
     style="fill:#1a3d70;fill-rule:nonzero;stroke-width:0.02715201" />
</svg>
