<?xml version="1.0" encoding="UTF-8" standalone="no"?>
<svg
   xmlns="http://www.w3.org/2000/svg"
   xmlns:xlink="http://www.w3.org/1999/xlink"
   version="1.1"
   height="64"
   width="64">
  <defs
     id="defs4533">
    <clipPath
       id="Canton">
      <path
         d="M 0,0 H 600 V 300 H 0 Z"
         id="path4513" />
    </clipPath>
    <clipPath
       id="Diagonals">
      <path
         d="M 0,0 300,150 H 0 Z M 300,0 H 600 L 300,150 Z m 0,150 h 300 v 150 z m 0,0 V 300 H 0 Z"
         id="path4516" />
    </clipPath>
    <g
       id="Pentagram">
      <g
         id="Arm"
         transform="translate(0,-0.324925)">
        <path
           d="M 0,0 V 0.5 L 1,0 Z"
           id="path4519" />
        <path
           d="M 0,0 V -0.5 L 1,0 Z"
           transform="rotate(-36,1,0)"
           id="path4521" />
      </g>
      <use
         xlink:href="#Arm"
         transform="scale(-1,1)"
         id="use4524"
         x="0"
         y="0"
         width="100%"
         height="100%" />
      <use
         xlink:href="#Arm"
         transform="rotate(72)"
         id="use4526"
         x="0"
         y="0"
         width="100%"
         height="100%" />
      <use
         xlink:href="#Arm"
         transform="rotate(-72)"
         id="use4528"
         x="0"
         y="0"
         width="100%"
         height="100%" />
      <use
         xlink:href="#Arm"
         transform="matrix(-0.30901699,0.95105652,0.95105652,0.30901699,0,0)"
         id="use4530"
         x="0"
         y="0"
         width="100%"
         height="100%" />
    </g>
    <clipPath
       id="Canton-3">
      <path
         d="M 0,0 H 600 V 300 H 0 Z"
         id="path4513-9" />
    </clipPath>
    <clipPath
       id="Canton-8">
      <path
         d="M 0,0 H 600 V 300 H 0 Z"
         id="path4513-3" />
    </clipPath>
  </defs>
  <rect
     x="0"
     y="0"
     width="64"
     height="64"
     id="rect4535"
     style="fill:#00247d;stroke-width:0.07542472;fill-rule:nonzero" />
  <path
     style="stroke:#ffffff;stroke-width:60;fill-rule:nonzero"
     clip-path="url(#Canton)"
     d="M 0,0 600,300 M 0,300 600,0"
     id="Saint_Andrews_Cross"
     transform="scale(0.05333333,0.10666667)" />
  <path
     style="stroke:#cc142b;stroke-width:40;fill-rule:nonzero"
     clip-path="url(#Diagonals)"
     d="M 0,0 600,300 M 0,300 600,0"
     id="Saint_Patricks_Cross"
     transform="scale(0.05333333,0.10666667)" />
  <use
     xlink:href="#Pentagram"
     transform="matrix(4.8426668,0,0,4.8426668,49.876743,13.95791)"
     id="use4545"
     style="fill:#ffffff;fill-rule:nonzero"
     x="0"
     y="0"
     width="100%"
     height="100%" />
  <use
     xlink:href="#Pentagram"
     transform="matrix(3.2000001,0,0,3.2000001,49.876743,13.95791)"
     id="use4547"
     style="fill:#cc142b;fill-rule:nonzero"
     x="0"
     y="0"
     width="100%"
     height="100%" />
  <use
     height="100%"
     width="100%"
     y="0"
     x="0"
     style="fill:#ffffff;fill-rule:nonzero"
     id="use4550"
     transform="matrix(4.3093332,1.0184547e-8,-1.0184547e-8,4.3093332,58.306516,24.976487)"
     xlink:href="#Pentagram" />
  <use
     height="100%"
     width="100%"
     y="0"
     x="0"
     style="fill:#cc142b;fill-rule:nonzero"
     id="use4552"
     transform="matrix(2.6666666,0,0,2.6666666,58.306516,24.976487)"
     xlink:href="#Pentagram" />
  <use
     height="100%"
     width="100%"
     y="0"
     x="0"
     style="fill:#ffffff;fill-rule:nonzero"
     id="use4555"
     transform="matrix(4.8426664,1.5804992e-8,-1.5804992e-8,4.8426664,40.299313,28.83622)"
     xlink:href="#Pentagram" />
  <use
     height="100%"
     width="100%"
     y="0"
     x="0"
     style="fill:#cc142b;fill-rule:nonzero"
     id="use4557"
     transform="matrix(3.1999999,0,0,3.1999999,40.299313,28.83622)"
     xlink:href="#Pentagram" />
  <use
     xlink:href="#Pentagram"
     transform="matrix(5.3760002,0,0,5.3760002,49.876743,52.357912)"
     id="use4562"
     style="fill:#ffffff;fill-rule:nonzero"
     x="0"
     y="0"
     width="100%"
     height="100%" />
  <use
     xlink:href="#Pentagram"
     transform="matrix(3.7333335,0,0,3.7333335,49.876743,52.357912)"
     id="use4564"
     style="fill:#cc142b;fill-rule:nonzero"
     x="0"
     y="0"
     width="100%"
     height="100%" />
  <path
     style="fill:none;fill-rule:nonzero;stroke:#fcfcfc;stroke-width:6.4000001;stroke-linecap:butt;stroke-linejoin:miter;stroke-miterlimit:4;stroke-dasharray:none;stroke-opacity:1"
     d="M 16,0 V 32"
     id="path5789" />
  <path
     style="fill:#ffffff;fill-rule:nonzero;stroke:#ffffff;stroke-width:6.4000001;stroke-linecap:butt;stroke-linejoin:miter;stroke-miterlimit:4;stroke-dasharray:none;stroke-opacity:1"
     d="M 0,16 H 32"
     id="path5791" />
  <path
     style="fill:#ff0000;fill-rule:nonzero;stroke:#cc142b;stroke-width:3.5;stroke-linecap:butt;stroke-linejoin:miter;stroke-miterlimit:4;stroke-dasharray:none;stroke-opacity:1"
     d="M 16,0 V 32"
     id="path5783" />
  <path
     style="fill:none;fill-rule:nonzero;stroke:#cc142b;stroke-width:3.5;stroke-linecap:butt;stroke-linejoin:miter;stroke-miterlimit:4;stroke-dasharray:none;stroke-opacity:1"
     d="M 0,16 H 32"
     id="path5785" />
</svg>
