<?xml version="1.0" encoding="UTF-8" standalone="no"?>
<svg
   xmlns:dc="http://purl.org/dc/elements/1.1/"
   xmlns:cc="http://creativecommons.org/ns#"
   xmlns:rdf="http://www.w3.org/1999/02/22-rdf-syntax-ns#"
   xmlns:svg="http://www.w3.org/2000/svg"
   xmlns="http://www.w3.org/2000/svg"
   id="svg4416"
   height="64"
   width="64"
   version="1.0">
  <metadata
     id="metadata88">
    <rdf:RDF>
      <cc:Work
         rdf:about="">
        <dc:format>image/svg+xml</dc:format>
        <dc:type
           rdf:resource="http://purl.org/dc/dcmitype/StillImage" />
        <dc:title></dc:title>
      </cc:Work>
    </rdf:RDF>
  </metadata>
  <defs
     id="defs4418">
    <clipPath
       id="clipPath2546">
      <path
         id="path2548"
         d="M 404.571,44.129 H 513.156 V 73.494 H 404.571 Z" />
    </clipPath>
  </defs>
  <path
     style="fill:#004e9f;fill-opacity:1;fill-rule:nonzero;stroke:none;stroke-width:1.97758"
     id="path2698"
     d="m 6.747052,53.828168 c 0,0 4.878698,-1.228079 2.875406,-4.580083 C 9.3515291,48.909919 9.0904881,48.565819 8.8353799,48.215787 l -0.043507,-0.04944 C 8.683106,48.04967 8.5980699,47.925082 8.5367648,47.794562 5.4062506,43.299515 3.5730309,37.861161 3.5730309,31.999605 c 0,-15.444925 12.7277251,-27.966982 28.4277581,-27.966982 1.589977,0 3.051411,0.1305205 4.570195,0.3777184 L 36.464195,4.6456738 C 33.003424,5.138092 27.958609,6.4907589 24.319856,9.1763169 17.576298,14.157849 16.777354,20.798573 27.820178,26.379313 c 11.040847,5.58074 10.056011,11.70927 2.810146,17.123893 -6.662478,4.977577 -12.442953,7.678956 -17.782428,9.68818 -2.642051,0.994725 -4.8391459,1.716542 -6.4963606,2.116014 z" />
  <path
     style="fill:#00a139;fill-opacity:1;fill-rule:nonzero;stroke:none;stroke-width:1.97758"
     id="path2702"
     d="m 43.927989,6.6062494 0.01582,0.00791 c 0.300593,-0.061305 0.587343,-0.1166771 0.864205,-0.1700718 1.044163,-0.1858928 1.686878,-0.2788393 1.686878,-0.2788393 l -0.07119,-0.019776 c 2.280153,-0.403427 3.448905,-0.5201044 4.014494,-0.5557009 L 50.13167,6.6537112 c 0,0 -4.277512,0.4330907 -1.230056,2.8556301 6.992734,5.0962317 11.525355,13.2715607 11.525355,22.4910537 0,15.444925 -12.725748,27.966982 -28.425781,27.966982 -0.735661,0 -1.463412,-0.02769 -2.183252,-0.08306 l 0.07515,-0.435068 C 37.049955,57.354989 52.223951,45.752509 49.779658,33.70705 47.726926,23.585779 30.597101,20.714328 28.376275,15.422315 26.325521,10.531752 38.459971,7.6444806 43.927989,6.6062494" />
</svg>
