<?xml version="1.0" encoding="UTF-8" standalone="no"?>
<!-- Created with Inkscape (http://www.inkscape.org/) -->

<svg
   xmlns:dc="http://purl.org/dc/elements/1.1/"
   xmlns:cc="http://creativecommons.org/ns#"
   xmlns:rdf="http://www.w3.org/1999/02/22-rdf-syntax-ns#"
   xmlns:svg="http://www.w3.org/2000/svg"
   xmlns="http://www.w3.org/2000/svg"
   xmlns:xlink="http://www.w3.org/1999/xlink"
   xmlns:sodipodi="http://sodipodi.sourceforge.net/DTD/sodipodi-0.dtd"
   xmlns:inkscape="http://www.inkscape.org/namespaces/inkscape"
   width="64"
   height="64"
   viewBox="0 0 64.000001 64.000001"
   id="svg4136"
   version="1.1"
   inkscape:version="0.92pre3 r"
   inkscape:export-filename="/home/master/network_mvg_logo.png"
   inkscape:export-xdpi="90"
   inkscape:export-ydpi="90"
   sodipodi:docname="network_sydney_logo.svg">
  <defs
     id="defs4138">
    <clipPath
       id="clipPath3470"
       clipPathUnits="userSpaceOnUse">
      <path
         inkscape:connector-curvature="0"
         id="path3472"
         d="m 0,0 937.559,0 0,841.89 L 0,841.89 0,0 Z" />
    </clipPath>
    <clipPath
       id="clipPath3506"
       clipPathUnits="userSpaceOnUse">
      <path
         inkscape:connector-curvature="0"
         id="path3508"
         d="m 1119.766,4.513 39.711,0 0,26.33 -39.711,0 0,-26.33 z" />
    </clipPath>
    <clipPath
       id="clipPath65104">
      <path
         inkscape:connector-curvature="0"
         d="m 439.7123,265.43179 -93.957,-6.569 -4.029,57.612 93.957,6.57 4.029,-57.613 z"
         id="path65106" />
    </clipPath>
    <linearGradient
       id="SVGID_8_"
       gradientUnits="userSpaceOnUse"
       x1="6.2982998"
       y1="12.1118"
       x2="35.306599"
       y2="12.1118">
      <stop
         offset="0"
         style="stop-color:#23A6DE"
         id="stop61" />
      <stop
         offset="0.1713"
         style="stop-color:#1A93D2"
         id="stop63" />
      <stop
         offset="0.3984"
         style="stop-color:#1380C4"
         id="stop65" />
      <stop
         offset="0.6173"
         style="stop-color:#0C74BB"
         id="stop67" />
      <stop
         offset="0.8225"
         style="stop-color:#086DB6"
         id="stop69" />
      <stop
         offset="1"
         style="stop-color:#066AB5"
         id="stop71" />
    </linearGradient>
    <linearGradient
       id="SVGID_5_"
       gradientUnits="userSpaceOnUse"
       x1="0.5"
       y1="18.8848"
       x2="6.7460999"
       y2="18.8848">
      <stop
         offset="0"
         style="stop-color:#95C13D"
         id="stop40" />
      <stop
         offset="0.1841"
         style="stop-color:#8BBD40"
         id="stop42" />
      <stop
         offset="0.501"
         style="stop-color:#6EB245"
         id="stop44" />
      <stop
         offset="0.91"
         style="stop-color:#2EA24B"
         id="stop46" />
      <stop
         offset="1"
         style="stop-color:#089E4C"
         id="stop48" />
    </linearGradient>
    <linearGradient
       id="SVGID_2_"
       gradientUnits="userSpaceOnUse"
       x1="0.5"
       y1="18.128901"
       x2="34.6768"
       y2="18.128901">
      <stop
         offset="0"
         style="stop-color:#E31E30"
         id="stop13" />
      <stop
         offset="0.1068"
         style="stop-color:#E63E2D"
         id="stop15" />
      <stop
         offset="0.2547"
         style="stop-color:#E95628"
         id="stop17" />
      <stop
         offset="0.3899"
         style="stop-color:#EA6325"
         id="stop19" />
      <stop
         offset="0.5"
         style="stop-color:#EB6824"
         id="stop21" />
      <stop
         offset="0.5827"
         style="stop-color:#ED7723"
         id="stop23" />
      <stop
         offset="0.8668"
         style="stop-color:#F5A61D"
         id="stop25" />
      <stop
         offset="1"
         style="stop-color:#F9BA16"
         id="stop27" />
    </linearGradient>
    <defs
       id="defs57">
      <path
         d="M 19.518,0.454 C 17.041,1.065 15.127,3.207 13.569,5.283 9.372,10.878 6.895,21.409 6.307,23.72 6.27,23.866 6.36,23.968 6.473,23.995 6.576,24.018 6.702,23.981 6.735,23.855 7.056,22.619 7.947,19.608 8.376,18.42 9.768,14.41 13.93,7.059 18.447,7.102 c 5.961,0.057 8.821,11.099 9.631,14.176 0.39,1.555 1.848,2.726 3.536,2.734 2.028,0.008 3.683,-1.628 3.692,-3.659 0,-0.17 -0.018,-0.724 -0.146,-1.273 -0.2,-0.85 -4.232,-18.869 -13.706,-18.869 -0.621,0 -1.266,0.077 -1.936,0.243"
         id="SVGID_7_"
         inkscape:connector-curvature="0" />
    </defs>
    <linearGradient
       y2="12.1118"
       x2="35.306599"
       y1="12.1118"
       x1="6.2982998"
       gradientUnits="userSpaceOnUse"
       id="linearGradient4335">
      <stop
         id="stop4337"
         style="stop-color:#23A6DE"
         offset="0" />
      <stop
         id="stop4339"
         style="stop-color:#1A93D2"
         offset="0.1713" />
      <stop
         id="stop4341"
         style="stop-color:#1380C4"
         offset="0.3984" />
      <stop
         id="stop4343"
         style="stop-color:#0C74BB"
         offset="0.6173" />
      <stop
         id="stop4345"
         style="stop-color:#086DB6"
         offset="0.8225" />
      <stop
         id="stop4347"
         style="stop-color:#066AB5"
         offset="1" />
    </linearGradient>
    <clipPath
       id="SVGID_9_">
      <use
         id="use76"
         overflow="visible"
         xlink:href="#SVGID_7_"
         style="overflow:visible"
         x="0"
         y="0"
         width="100%"
         height="100%" />
    </clipPath>
    <defs
       id="defs9">
      <path
         d="M 15.981,12.356 C 8.602,13.364 3.463,17.91 0.567,21.31 0.526,21.35 0.5,21.406 0.5,21.469 l 0,0.002 0,0 c 0,0.124 0.101,0.224 0.223,0.224 0.041,0 0.078,-0.01 0.111,-0.03 l 0.019,-0.016 c 3.09,-2.779 8.158,-6.655 14.793,-6.322 2.575,0.129 4.91,0.941 7.039,2.158 2.191,1.254 6.309,5.414 6.309,5.414 0.667,0.68 1.602,1.109 2.621,1.114 0,0 0.589,-0.011 1.096,-0.174 0.146,-0.048 0.213,-0.075 0.213,-0.075 0.287,-0.12 1.979,-0.944 1.729,-3.08 -0.102,-0.868 -0.531,-1.746 -1.345,-2.529 -0.166,-0.16 -5.255,-5.908 -14.96,-5.909 -0.762,-0.001 -1.55,0.035 -2.367,0.11"
         id="SVGID_1_"
         inkscape:connector-curvature="0" />
    </defs>
    <linearGradient
       y2="18.128901"
       x2="34.6768"
       y1="18.128901"
       x1="0.5"
       gradientUnits="userSpaceOnUse"
       id="linearGradient4293">
      <stop
         id="stop4295"
         style="stop-color:#E31E30"
         offset="0" />
      <stop
         id="stop4297"
         style="stop-color:#E63E2D"
         offset="0.1068" />
      <stop
         id="stop4299"
         style="stop-color:#E95628"
         offset="0.2547" />
      <stop
         id="stop4301"
         style="stop-color:#EA6325"
         offset="0.3899" />
      <stop
         id="stop4303"
         style="stop-color:#EB6824"
         offset="0.5" />
      <stop
         id="stop4305"
         style="stop-color:#ED7723"
         offset="0.5827" />
      <stop
         id="stop4307"
         style="stop-color:#F5A61D"
         offset="0.8668" />
      <stop
         id="stop4309"
         style="stop-color:#F9BA16"
         offset="1" />
    </linearGradient>
    <clipPath
       id="SVGID_3_">
      <use
         id="use32"
         overflow="visible"
         xlink:href="#SVGID_1_"
         style="overflow:visible"
         x="0"
         y="0"
         width="100%"
         height="100%" />
    </clipPath>
    <defs
       id="defs36">
      <path
         d="M 0.502,21.443 C 0.501,21.453 0.5,21.471 0.5,21.471 c 0,0.124 0.101,0.224 0.223,0.224 0.108,0 0.198,-0.075 0.219,-0.178 0,0 0.005,-0.022 0.007,-0.032 0.838,-3.836 1.368,-5.167 2.099,-5.219 1.702,-0.086 3.251,7.556 3.251,7.556 0.02,0.091 0.089,0.151 0.173,0.173 0.103,0.023 0.229,-0.014 0.262,-0.14 0,0 0.015,-0.05 0.011,-0.101 C 6.744,23.727 6.739,23.69 6.739,23.69 5.545,16.182 4.383,13.769 3.392,13.77 c -1.641,0 -2.813,6.615 -2.89,7.673"
         id="SVGID_4_"
         inkscape:connector-curvature="0" />
    </defs>
    <linearGradient
       y2="18.8848"
       x2="6.7460999"
       y1="18.8848"
       x1="0.5"
       gradientUnits="userSpaceOnUse"
       id="linearGradient4317">
      <stop
         id="stop4319"
         style="stop-color:#95C13D"
         offset="0" />
      <stop
         id="stop4321"
         style="stop-color:#8BBD40"
         offset="0.1841" />
      <stop
         id="stop4323"
         style="stop-color:#6EB245"
         offset="0.501" />
      <stop
         id="stop4325"
         style="stop-color:#2EA24B"
         offset="0.91" />
      <stop
         id="stop4327"
         style="stop-color:#089E4C"
         offset="1" />
    </linearGradient>
    <clipPath
       id="SVGID_6_">
      <use
         id="use53"
         overflow="visible"
         xlink:href="#SVGID_4_"
         style="overflow:visible"
         x="0"
         y="0"
         width="100%"
         height="100%" />
    </clipPath>
  </defs>
  <sodipodi:namedview
     id="base"
     pagecolor="#ffffff"
     bordercolor="#666666"
     borderopacity="1.0"
     inkscape:pageopacity="1"
     inkscape:pageshadow="2"
     inkscape:zoom="22.485808"
     inkscape:cx="20.510276"
     inkscape:cy="24.000807"
     inkscape:document-units="px"
     inkscape:current-layer="layer1"
     showgrid="true"
     units="px"
     inkscape:window-width="1920"
     inkscape:window-height="1021"
     inkscape:window-x="1443"
     inkscape:window-y="23"
     inkscape:window-maximized="0"
     showguides="true"
     inkscape:guide-bbox="true">
    <inkscape:grid
       type="xygrid"
       id="grid4856" />
    <sodipodi:guide
       position="61.000001,64.000001"
       orientation="0,1"
       id="guide4139"
       inkscape:locked="false" />
    <sodipodi:guide
       position="0,90.000001"
       orientation="1,0"
       id="guide4141"
       inkscape:locked="false" />
  </sodipodi:namedview>
  <metadata
     id="metadata4141">
    <rdf:RDF>
      <cc:Work
         rdf:about="">
        <dc:format>image/svg+xml</dc:format>
        <dc:type
           rdf:resource="http://purl.org/dc/dcmitype/StillImage" />
        <dc:title />
        <cc:license
           rdf:resource="http://creativecommons.org/publicdomain/zero/1.0/" />
      </cc:Work>
      <cc:License
         rdf:about="http://creativecommons.org/publicdomain/zero/1.0/">
        <cc:permits
           rdf:resource="http://creativecommons.org/ns#Reproduction" />
        <cc:permits
           rdf:resource="http://creativecommons.org/ns#Distribution" />
        <cc:permits
           rdf:resource="http://creativecommons.org/ns#DerivativeWorks" />
      </cc:License>
    </rdf:RDF>
  </metadata>
  <g
     inkscape:label="Ebene 1"
     inkscape:groupmode="layer"
     id="layer1"
     transform="translate(0,-988.36216)"
     style="display:inline">
    <rect
       style="fill:#ffffff;fill-opacity:1;stroke:#01ffff;stroke-width:0;stroke-linecap:butt;stroke-linejoin:miter;stroke-miterlimit:0;stroke-dasharray:none;stroke-opacity:1"
       id="rect4267"
       width="63.999992"
       height="63.999992"
       x="2.144923e-05"
       y="988.36218" />
    <path
       id="path5"
       d="m 29.189868,1019.7406 v 0.5027 c 0,0.2048 -0.167358,0.3728 -0.37156,0.3728 h -1.649225 v 5.1219 c 0,0.2048 -0.167982,0.3728 -0.371559,0.3728 h -0.739373 c -0.204202,0 -0.371559,-0.168 -0.371559,-0.3728 v -5.1219 h -1.649226 c -0.204201,0 -0.372184,-0.168 -0.372184,-0.3728 v -0.5027 c 0,-0.2048 0.167983,-0.3716 0.372184,-0.3716 h 4.780318 c 0.204826,-6e-4 0.372184,0.1668 0.372184,0.3716 m 29.295757,4.1696 c 0,-0.2205 0.02248,-0.4253 0.06557,-0.6133 0.04434,-0.1892 0.118025,-0.3534 0.222312,-0.4958 0.103037,-0.1411 0.239796,-0.2541 0.410276,-0.3353 h 0.0012 c 0.169232,-0.081 0.37718,-0.1224 0.623221,-0.1224 0.0087,0 0.01811,0 0.02748,0 h 0.08056 c 0.204201,0 0.372184,-0.168 0.372184,-0.3722 v -0.5034 c 0,-0.044 -0.0094,-0.088 -0.02373,-0.1267 -0.04933,-0.1355 -0.174227,-0.2336 -0.323475,-0.2442 h -0.01686 c -0.10054,0 -0.197957,0.017 -0.294126,0.039 -0.06682,0.018 -0.125518,0.036 -0.125518,0.036 -0.157991,0.051 -0.304741,0.1218 -0.443374,0.2123 -0.138632,0.092 -0.261653,0.2017 -0.369061,0.331 -0.106785,0.1287 -0.191713,0.2692 -0.25416,0.4197 v 0 h -0.01873 v -0.532 c 0,-0.2049 -0.167358,-0.3728 -0.371559,-0.3728 h -0.531424 c -0.204202,0 -0.372184,0.1679 -0.372184,0.3728 v 4.1352 c 0,0.2048 0.167982,0.3728 0.372184,0.3728 h 0.596369 c 0.20545,0 0.372184,-0.168 0.372184,-0.3728 v -1.8278 z m -28.766207,0 c 0,-0.2205 0.02248,-0.4253 0.06557,-0.6133 0.04496,-0.1879 0.118649,-0.3534 0.222935,-0.4952 0.103662,-0.1417 0.241046,-0.2547 0.410277,-0.3353 h 6.25e-4 c 0.169855,-0.082 0.377804,-0.123 0.623221,-0.123 0.01,0 0.01936,0 0.02748,0 h 0.08118 c 0.205451,0 0.37156,-0.168 0.37156,-0.3722 v -0.5034 c 0,-0.044 -0.0081,-0.088 -0.02248,-0.1267 -0.04871,-0.1349 -0.175476,-0.2329 -0.3241,-0.2436 h -0.01624 c -0.09991,0 -0.198582,0.016 -0.29475,0.039 -0.06682,0.018 -0.125518,0.036 -0.125518,0.036 -0.157367,0.051 -0.304742,0.1218 -0.44275,0.2124 -0.139256,0.092 -0.261028,0.2017 -0.369061,0.3309 -0.106785,0.1287 -0.191088,0.2692 -0.254784,0.4197 h -6.24e-4 -0.01749 v -0.5326 c 0,-0.2049 -0.166733,-0.3728 -0.370935,-0.3728 h -0.532048 c -0.203577,0 -0.370935,0.1679 -0.370935,0.3728 v 4.1352 c 0,0.2048 0.167358,0.3728 0.370935,0.3728 h 0.597618 c 0.204201,0 0.370935,-0.168 0.370935,-0.3728 v -1.8278 z m 11.431547,-1.628 c -0.05371,-0.2486 -0.146751,-0.4596 -0.278514,-0.6332 -0.131763,-0.1724 -0.313484,-0.3079 -0.543289,-0.4059 -0.22918,-0.098 -0.523306,-0.1455 -0.882376,-0.1455 -0.282885,0 -0.560149,0.064 -0.82992,0.1935 -0.271645,0.1293 -0.492083,0.3354 -0.662563,0.6176 h -0.02748 v -0.3397 c 0,-0.1867 -0.168606,-0.3397 -0.372808,-0.3397 h -0.5308 c -0.204201,0 -0.372184,0.168 -0.372184,0.3716 v 4.1377 c 0,0.2048 0.167983,0.3728 0.372184,0.3728 h 0.596994 c 0.204201,0 0.372184,-0.168 0.372184,-0.3728 v -2.1875 c 0,-0.4602 0.07119,-0.7993 0.211071,-1.0204 0.01186,-0.018 0.02248,-0.036 0.03434,-0.051 0.164236,-0.2185 0.428387,-0.3259 0.793702,-0.3259 0.320353,0 0.544537,0.099 0.670056,0.2985 0.125518,0.1967 0.189214,0.4989 0.189214,0.9004 v 2.3849 c 0,0.2048 0.166734,0.3728 0.37156,0.3728 h 0.597618 c 0.204201,0 0.372184,-0.168 0.372184,-0.3728 v -2.2581 c -6.25e-4,-0.8842 -0.06932,-1.1396 -0.08118,-1.1977 m 4.774072,1.7123 c -0.09055,-0.1549 -0.206075,-0.2854 -0.352201,-0.3903 -0.144877,-0.1043 -0.31161,-0.1892 -0.498951,-0.2523 -0.187341,-0.062 -0.379054,-0.1174 -0.575762,-0.1624 -0.190463,-0.043 -0.377179,-0.084 -0.560149,-0.1217 -0.184219,-0.038 -0.34783,-0.082 -0.489585,-0.1293 -0.143003,-0.047 -0.25853,-0.1087 -0.347205,-0.1855 -0.08868,-0.075 -0.133636,-0.1729 -0.133636,-0.2941 0,-0.1012 0.0256,-0.183 0.07681,-0.2429 0.04996,-0.06 0.112405,-0.1062 0.185468,-0.138 0.07181,-0.032 0.152995,-0.053 0.242294,-0.062 0.08868,-0.01 0.171105,-0.014 0.24729,-0.014 0.240421,0 0.448994,0.046 0.626968,0.138 0.113029,0.059 0.194835,0.1517 0.243543,0.2779 0.0019,0 0.0031,0.01 0.0044,0.013 0.05558,0.1374 0.189839,0.2348 0.345956,0.2348 h 6.25e-4 0.609482 c 0.205451,0 0.344083,-0.1636 0.30599,-0.3666 0,0 -0.03434,-0.1885 -0.164235,-0.3871 -0.130514,-0.2005 -0.294125,-0.3597 -0.490833,-0.4815 -0.19546,-0.1199 -0.41902,-0.2054 -0.668808,-0.2567 -0.251037,-0.051 -0.508943,-0.076 -0.774967,-0.076 -0.266649,0 -0.526428,0.024 -0.779338,0.071 -0.253535,0.047 -0.482091,0.1305 -0.685668,0.2485 -0.202329,0.1174 -0.36594,0.2766 -0.489585,0.479 -0.123645,0.2029 -0.184843,0.4627 -0.184843,0.7805 0,0.2155 0.04371,0.3972 0.132388,0.5458 0.08992,0.1487 0.206699,0.2729 0.351576,0.371 0.145502,0.099 0.312235,0.1779 0.500201,0.2379 0.187341,0.061 0.377804,0.1124 0.575137,0.1574 0.481466,0.1017 0.856772,0.2023 1.127168,0.3035 0.269146,0.1024 0.403407,0.2535 0.403407,0.4558 0,0.1205 -0.02935,0.2211 -0.0868,0.2998 -0.0562,0.079 -0.128016,0.143 -0.213569,0.1898 -0.08493,0.047 -0.180472,0.083 -0.285383,0.1049 -0.103662,0.023 -0.203577,0.034 -0.299121,0.034 -0.133636,0 -0.261652,-0.016 -0.384673,-0.049 -0.123645,-0.031 -0.237299,-0.074 -0.328471,-0.1461 -0.139257,-0.1087 -0.168607,-0.1567 -0.232928,-0.256 -0.07369,-0.1162 -0.07681,-0.3454 -0.404656,-0.3766 v 0 h -0.594495 c -0.205451,0 -0.349704,0.1674 -0.320978,0.3709 0,0 0.03435,0.2323 0.169856,0.4522 0.136759,0.2185 0.310361,0.394 0.522681,0.5283 0.212944,0.1323 0.455239,0.2273 0.728132,0.2841 0.271645,0.057 0.551407,0.085 0.836165,0.085 0.279138,0 0.552656,-0.026 0.822427,-0.081 0.269147,-0.054 0.508943,-0.1474 0.717516,-0.2798 0.207949,-0.1336 0.379053,-0.3091 0.508319,-0.5276 0.129889,-0.2192 0.19421,-0.4903 0.19421,-0.8137 6.24e-4,-0.2273 -0.04309,-0.4184 -0.131139,-0.5739 m 5.796954,-0.3185 c 0,0.3903 0.05995,0.7437 0.177974,1.0572 0.119899,0.316 0.290379,0.5852 0.510192,0.8075 0.220438,0.2235 0.484589,0.3959 0.793702,0.5145 0.307863,0.1206 0.654444,0.1799 1.038493,0.1799 0.384049,0 0.731879,-0.059 1.044114,-0.1799 0.312235,-0.1186 0.577634,-0.291 0.797448,-0.5145 0.219813,-0.2223 0.389669,-0.4915 0.508943,-0.8075 0.119274,-0.3135 0.179847,-0.6669 0.179847,-1.0572 0,-0.389 -0.06057,-0.7437 -0.179847,-1.0616 -0.119274,-0.3179 -0.289754,-0.5883 -0.508943,-0.8118 -0.220438,-0.2223 -0.485213,-0.3965 -0.797448,-0.5196 -0.312235,-0.123 -0.660065,-0.1842 -1.044114,-0.1842 -0.384049,0 -0.73063,0.061 -1.038493,0.1842 -0.308489,0.1231 -0.573264,0.2973 -0.793702,0.5196 -0.220438,0.2229 -0.390293,0.4939 -0.510192,0.8118 -0.118649,0.3179 -0.177974,0.6726 -0.177974,1.0616 m 1.340113,0 c 0,-0.1948 0.01936,-0.3865 0.05683,-0.5745 0.03809,-0.1899 0.102413,-0.3566 0.193585,-0.5015 0.09055,-0.1448 0.212945,-0.2622 0.362817,-0.3534 0.151122,-0.091 0.340336,-0.138 0.567019,-0.138 0.226683,0 0.416521,0.046 0.57139,0.138 0.154244,0.091 0.27664,0.2086 0.367813,0.3534 0.09117,0.1443 0.156117,0.3116 0.19421,0.5015 0.03809,0.188 0.05558,0.379 0.05558,0.5745 0,0.1961 -0.01749,0.3853 -0.05558,0.572 -0.03809,0.1855 -0.103038,0.3522 -0.19421,0.5015 -0.09117,0.1461 -0.213569,0.266 -0.367813,0.3534 -0.154869,0.087 -0.344707,0.1318 -0.57139,0.1318 -0.226683,0 -0.415897,-0.044 -0.567019,-0.1318 -0.149872,-0.088 -0.272893,-0.2073 -0.362817,-0.3534 -0.09117,-0.1487 -0.155493,-0.316 -0.193585,-0.5015 -0.03747,-0.1861 -0.05683,-0.3753 -0.05683,-0.572 m -1.692314,0.048 c 0,0.3272 -0.04371,0.6413 -0.133012,0.9454 -0.08743,0.301 -0.221062,0.5683 -0.400909,0.8012 -0.179848,0.233 -0.403408,0.419 -0.670057,0.5583 -0.267897,0.1386 -0.580757,0.2073 -0.939202,0.2073 -0.302244,0 -0.580757,-0.062 -0.836166,-0.1842 -0.06182,-0.029 -0.119898,-0.063 -0.1761,-0.099 -0.0062,-0.01 -0.01062,-0.01 -0.01748,-0.012 -0.04184,-0.029 -0.08181,-0.06 -0.121147,-0.092 -0.04371,-0.037 -0.06619,-0.062 -0.06619,-0.062 -0.08868,-0.1005 -0.167983,-0.1879 -0.213569,-0.236 -0.01187,-0.015 -0.02248,-0.028 -0.0331,-0.043 h -0.0094 -0.0094 v 0.3728 1.5693 c 0,0.2048 -0.167982,0.3722 -0.372184,0.3722 h -0.597618 c -0.202952,0 -0.37031,-0.1674 -0.37031,-0.3722 v -5.8481 c 0,-0.2049 0.167358,-0.3722 0.37031,-0.3722 h 0.532049 c 0.204826,0 0.372808,0.1405 0.372808,0.3122 v 0.311 h 0.01686 c 0.16486,-0.2635 0.372808,-0.4559 0.62447,-0.5758 0.251037,-0.1192 0.528926,-0.1792 0.830545,-0.1792 0.383424,0 0.715018,0.072 0.992282,0.2173 0.275392,0.1449 0.505821,0.3372 0.689415,0.5758 0.181721,0.2404 0.317855,0.5183 0.404657,0.8355 0.08867,0.3185 0.132387,0.6507 0.132387,0.9967 m -1.340112,-0.038 c 0,-0.1948 -0.02061,-0.3866 -0.06245,-0.5751 -0.03997,-0.1899 -0.108658,-0.3579 -0.202328,-0.5065 -0.09492,-0.1467 -0.216067,-0.2666 -0.364066,-0.3578 -0.146751,-0.091 -0.328471,-0.138 -0.542665,-0.138 -0.220438,0 -0.404656,0.046 -0.552656,0.138 -0.147999,0.091 -0.267897,0.2086 -0.357821,0.3534 -0.09117,0.1443 -0.156117,0.3116 -0.19421,0.5002 -0.03872,0.1893 -0.05808,0.3841 -0.05808,0.5858 0,0.1948 0.02123,0.3865 0.06307,0.5764 0.04059,0.1886 0.106784,0.3541 0.197957,0.4958 0.09117,0.1418 0.212944,0.2573 0.363441,0.3441 0.151122,0.089 0.333467,0.133 0.54766,0.133 0.219814,0 0.403408,-0.044 0.552656,-0.133 0.148,-0.087 0.267898,-0.2023 0.358446,-0.3441 0.09055,-0.1417 0.155493,-0.3072 0.19421,-0.4958 0.03747,-0.1899 0.05683,-0.381 0.05683,-0.5764 m 10.558537,1.272 c 0,0.2467 0.03997,0.444 0.122396,0.5952 0.08181,0.1511 0.193586,0.2679 0.334092,0.3503 0.143003,0.082 0.30599,0.1367 0.491458,0.1648 0.09305,0.014 0.18859,0.025 0.288505,0.032 h -0.0069 0.05308 c 0.08368,0.01 0.168606,0.01 0.255408,0.01 0.126767,0 0.430884,-0.011 0.440876,-0.012 0.191712,-0.015 0.343458,-0.1749 0.343458,-0.3691 v -0.2979 c 0,-0.2029 -0.164236,-0.3684 -0.36469,-0.3734 h -0.0069 -0.108657 c -0.189839,-0.01 -0.321602,-0.043 -0.389045,-0.1105 -0.07494,-0.075 -0.114278,-0.2261 -0.114278,-0.4534 v -2.4173 h 0.733752 c 0.136759,0 0.249164,-0.1112 0.249164,-0.2486 v -0.4002 c 0,-0.1362 -0.11303,-0.248 -0.249164,-0.248 h -0.733752 v -1.0909 c 0,-0.2048 -0.167358,-0.3728 -0.37156,-0.3728 h -0.596993 c -0.204202,0 -0.37156,0.168 -0.37156,0.3728 v 4.8677 z m -28.833025,-2.6552 c -0.109282,0.3253 0.143004,0.4302 0.34221,0.4302 h 0.553905 c 0.517061,0 0.319104,-0.3347 0.637583,-0.5663 0.152371,-0.1118 0.359071,-0.1711 0.622597,-0.1711 0.119274,0 0.230429,0.01 0.334716,0.024 0.103037,0.016 0.195459,0.048 0.274142,0.094 0.07868,0.048 0.14113,0.1136 0.189214,0.1986 0.04684,0.086 0.06994,0.1998 0.06994,0.344 0.0069,0.1393 -0.03497,0.2455 -0.122396,0.3173 -0.08743,0.072 -0.207324,0.128 -0.35907,0.1655 -0.150498,0.038 -0.3241,0.066 -0.51831,0.085 -0.195459,0.018 -0.394041,0.044 -0.594496,0.076 -0.202328,0.031 -0.402783,0.073 -0.60074,0.1281 -0.197332,0.054 -0.374682,0.133 -0.528301,0.2404 -0.154244,0.1074 -0.280387,0.2491 -0.377805,0.4296 -0.09804,0.1792 -0.14675,0.4078 -0.14675,0.6851 0,0.2516 0.04371,0.4677 0.128016,0.6519 0.08555,0.1817 0.202953,0.3328 0.35345,0.4527 0.151746,0.1193 0.327223,0.2086 0.529551,0.2642 0.201704,0.057 0.418395,0.086 0.651322,0.086 0.301619,0 0.597618,-0.044 0.887372,-0.1324 0.289754,-0.089 0.54204,-0.2417 0.754984,-0.4634 0.0069,0.083 0.01311,0.1649 0.03372,0.2417 0.06182,0.2304 0.345956,0.2304 0.345956,0.2304 h 0.705027 c 0.339087,0 0.264775,-0.2498 0.239172,-0.4527 -0.0256,-0.2011 -0.03872,-0.4122 -0.03872,-0.6332 v -2.1676 c 0,-0.2048 -0.02061,-0.5377 -0.04559,-0.7412 0,0 -0.02061,-0.1643 -0.151747,-0.3441 -0.132387,-0.1786 -0.302868,-0.3191 -0.510816,-0.4203 -0.207324,-0.1 -0.436504,-0.1686 -0.68879,-0.2036 -0.251662,-0.034 -0.500201,-0.051 -0.746242,-0.051 -0.27102,7e-4 -0.539542,0.027 -0.806815,0.081 -0.267898,0.054 -0.507694,0.143 -0.722512,0.2698 -0.214193,0.1255 -0.390293,0.2922 -0.528926,0.4995 -0.07119,0.1043 -0.121147,0.223 -0.16486,0.3535 m 3.024308,1.4213 v 0.1286 c 0,0.2049 -0.0031,0.4515 -0.0087,0.5483 l -0.01436,0.1262 c -0.01624,0.1261 -0.0587,0.2504 -0.127392,0.3728 -0.06932,0.1224 -0.176101,0.2279 -0.321602,0.3159 -0.144253,0.089 -0.349703,0.1324 -0.61323,0.1324 -0.107409,0 -0.211071,-0.01 -0.31161,-0.027 -0.101164,-0.019 -0.189215,-0.053 -0.264775,-0.099 -0.07556,-0.048 -0.13551,-0.1118 -0.179223,-0.1949 -0.04371,-0.08 -0.06557,-0.1817 -0.06557,-0.301 0,-0.1255 0.02186,-0.2304 0.06557,-0.311 0.04371,-0.083 0.102413,-0.1498 0.174851,-0.2035 0.07244,-0.054 0.157367,-0.096 0.254784,-0.128 0.09742,-0.031 0.196084,-0.056 0.297248,-0.074 0.107409,-0.019 0.213568,-0.035 0.320977,-0.048 0.108034,-0.013 0.209822,-0.028 0.307239,-0.046 0.09804,-0.019 0.189215,-0.044 0.274143,-0.072 0.0843,-0.031 0.155493,-0.068 0.211695,-0.1193"
       inkscape:connector-curvature="0"
       style="fill:#9c9c9b" />
    <use
       id="use29"
       overflow="visible"
       xlink:href="#SVGID_1_"
       style="overflow:visible;fill:#eb6824;fill-opacity:1"
       x="0"
       y="0"
       width="100%"
       height="100%"
       transform="matrix(0.62446992,0,0,0.62446992,0.77586194,1011.7174)" />
    <use
       id="use50"
       overflow="visible"
       xlink:href="#SVGID_4_"
       style="overflow:visible;fill:#2ea24b;fill-opacity:1"
       x="0"
       y="0"
       width="100%"
       height="100%"
       transform="matrix(0.62446992,0,0,0.62446992,0.77586194,1011.7174)" />
    <use
       id="use73"
       overflow="visible"
       xlink:href="#SVGID_7_"
       style="overflow:visible;fill:#0c74bb;fill-opacity:1"
       x="0"
       y="0"
       width="100%"
       height="100%"
       transform="matrix(0.62446992,0,0,0.62446992,0.77586194,1011.7174)" />
    <path
       id="path80"
       d="m 22.21329,1024.4079 c -0.005,0.9448 -0.772469,1.7048 -1.717292,1.7017 -0.944199,-0.01 -1.704803,-0.7738 -1.699808,-1.7173 0.0044,-0.9442 0.77247,-1.7061 1.716668,-1.7005 0.944823,0 1.705428,0.7731 1.700432,1.7161"
       inkscape:connector-curvature="0"
       style="fill:#20a7df;stroke-width:0.62446994" />
  </g>
</svg>
