<?xml version="1.0" encoding="UTF-8" standalone="no"?>
<!-- Created with Inkscape (http://www.inkscape.org/) -->

<svg
   xmlns:dc="http://purl.org/dc/elements/1.1/"
   xmlns:cc="http://creativecommons.org/ns#"
   xmlns:rdf="http://www.w3.org/1999/02/22-rdf-syntax-ns#"
   xmlns:svg="http://www.w3.org/2000/svg"
   xmlns="http://www.w3.org/2000/svg"
   xmlns:xlink="http://www.w3.org/1999/xlink"
   xmlns:sodipodi="http://sodipodi.sourceforge.net/DTD/sodipodi-0.dtd"
   xmlns:inkscape="http://www.inkscape.org/namespaces/inkscape"
   width="64"
   height="64"
   viewBox="0 0 64.000001 64.000001"
   id="svg4136"
   version="1.1"
   inkscape:version="0.91 r13725"
   inkscape:export-filename="/home/master/network_mvg_logo.png"
   inkscape:export-xdpi="90"
   inkscape:export-ydpi="90"
   sodipodi:docname="network_ding_logo.svg">
  <defs
     id="defs4138">
    <clipPath
       id="clipPath3470"
       clipPathUnits="userSpaceOnUse">
      <path
         inkscape:connector-curvature="0"
         id="path3472"
         d="m 0,0 937.559,0 0,841.89 L 0,841.89 0,0 Z" />
    </clipPath>
    <clipPath
       id="clipPath3506"
       clipPathUnits="userSpaceOnUse">
      <path
         inkscape:connector-curvature="0"
         id="path3508"
         d="m 1119.766,4.513 39.711,0 0,26.33 -39.711,0 0,-26.33 z" />
    </clipPath>
    <clipPath
       id="clipPath18260-7">
      <path
         inkscape:connector-curvature="0"
         d="m -0.53421,-0.848053 0.744736,0 0,0.487808 -0.744736,0 0,-0.487808 z"
         id="path18262-8" />
    </clipPath>
    <radialGradient
       cx="0"
       cy="0"
       r="1"
       fx="0"
       fy="0"
       id="radialGradient65363"
       xlink:href="#radialGradient18264-4"
       gradientUnits="userSpaceOnUse"
       gradientTransform="matrix(131.56992,0,0,-131.56992,544.56445,-15.257813)" />
    <radialGradient
       cx="0"
       cy="0"
       r="1"
       fx="0"
       fy="0"
       id="radialGradient18264-4"
       gradientUnits="userSpaceOnUse"
       gradientTransform="matrix(131.56992,0,0,-131.56992,544.56445,-15.257813)">
      <stop
         id="stop18266-9"
         style="stop-color:white;stop-opacity:1"
         offset="0" />
      <stop
         id="stop18268-1"
         style="stop-color:#e5e5e5;stop-opacity:1"
         offset="1" />
    </radialGradient>
  </defs>
  <sodipodi:namedview
     id="base"
     pagecolor="#000000"
     bordercolor="#bfbfbf"
     borderopacity="1"
     inkscape:pageopacity="1"
     inkscape:pageshadow="2"
     inkscape:zoom="24.039265"
     inkscape:cx="29.656344"
     inkscape:cy="21.07711"
     inkscape:document-units="px"
     inkscape:current-layer="layer1"
     showgrid="true"
     units="px"
     inkscape:window-width="1920"
     inkscape:window-height="1012"
     inkscape:window-x="1440"
     inkscape:window-y="0"
     inkscape:window-maximized="1"
     showguides="false"
     borderlayer="true">
    <inkscape:grid
       type="xygrid"
       id="grid4856"
       enabled="false" />
  </sodipodi:namedview>
  <metadata
     id="metadata4141">
    <rdf:RDF>
      <cc:Work
         rdf:about="">
        <dc:format>image/svg+xml</dc:format>
        <dc:type
           rdf:resource="http://purl.org/dc/dcmitype/StillImage" />
        <dc:title></dc:title>
        <cc:license
           rdf:resource="http://creativecommons.org/publicdomain/zero/1.0/" />
      </cc:Work>
      <cc:License
         rdf:about="http://creativecommons.org/publicdomain/zero/1.0/">
        <cc:permits
           rdf:resource="http://creativecommons.org/ns#Reproduction" />
        <cc:permits
           rdf:resource="http://creativecommons.org/ns#Distribution" />
        <cc:permits
           rdf:resource="http://creativecommons.org/ns#DerivativeWorks" />
      </cc:License>
    </rdf:RDF>
  </metadata>
  <g
     inkscape:label="Ebene 1"
     inkscape:groupmode="layer"
     id="layer1"
     transform="translate(0,-988.36216)">
    <g
       transform="matrix(0.86080589,0,0,-0.86080589,-404.8557,1057.7274)"
       id="g18256">
      <g
         clip-path="url(#clipPath18260-7)"
         id="g18258">
        <path
           d="m 474.278,96.321 97.986,0 0,-64.182 -97.986,0 0,64.182 z"
           id="path18270"
           style="fill:url(#radialGradient65363);stroke:none"
           inkscape:connector-curvature="0" />
      </g>
    </g>
    <path
       style="fill:#e5e5e5;fill-opacity:1;fill-rule:nonzero;stroke:none"
       clip-path="none"
       d="M 60.511719 11.494141 L 0.99023438 15.65625 L 3.5429688 52.154297 L 63.064453 47.992188 L 60.511719 11.494141 z "
       transform="translate(0,988.36216)"
       id="path18236" />
    <path
       d="m 13.913244,1030.246 -1.725652,0.1204 -0.388334,3.2878 1.725652,-0.1203 0.06398,-0.5405 -1.110524,0.077 0.101989,-0.8913 1.057311,-0.074 0.06525,-0.5176 -1.062378,0.075 0.09819,-0.8083 1.114959,-0.078 0.05956,-0.5308 z"
       id="path18272"
       style="fill:#231f20;fill-opacity:1;fill-rule:nonzero;stroke:none"
       inkscape:connector-curvature="0" />
    <path
       d="m 15.002231,1031.0296 -0.601192,0.042 -0.289509,2.4213 0.60119,-0.042 0.289511,-2.4213 z m 0.162174,-0.7215 c -0.0083,-0.1825 -0.173578,-0.3358 -0.380099,-0.3213 -0.211589,0.014 -0.392136,0.1965 -0.381367,0.4182 0.0083,0.1881 0.169146,0.3453 0.380734,0.3307 0.211589,-0.014 0.392136,-0.1965 0.380732,-0.4276"
       id="path18274"
       style="fill:#231f20;fill-opacity:1;fill-rule:nonzero;stroke:none"
       inkscape:connector-curvature="0" />
    <path
       d="m 17.605912,1031.5915 c 0.05385,-0.4719 -0.108326,-0.7893 -0.570149,-0.757 -0.456753,0.032 -0.762101,0.4257 -0.948982,0.8679 l -0.0095,-0.011 c 0.103259,-0.3839 0.145705,-0.6081 0.164709,-0.7551 l -0.591688,0.042 c -0.02977,0.3351 -0.07728,0.7627 -0.127333,1.1535 l -0.15204,1.2664 0.599923,-0.042 0.07349,-0.6138 c 0.06651,-0.5651 0.447251,-1.3455 0.769068,-1.3677 0.15394,-0.011 0.210322,0.1059 0.172946,0.4036 l -0.183716,1.519 0.605625,-0.042 0.197653,-1.6705 z"
       id="path18276"
       style="fill:#231f20;fill-opacity:1;fill-rule:nonzero;stroke:none"
       inkscape:connector-curvature="0" />
    <path
       d="m 19.926419,1029.5598 c -0.126699,-0.02 -0.2572,-0.021 -0.392136,-0.011 -0.672775,0.047 -0.980655,0.4119 -1.050975,1.0586 l -0.01648,0.18 -0.408607,0.03 -0.06271,0.4822 0.408606,-0.028 -0.240096,2.0209 c -0.05829,0.4827 -0.203354,0.6183 -0.47259,0.6373 -0.08172,0.011 -0.193217,0 -0.281908,-0.019 l -0.108327,0.5151 c 0.1362,0.019 0.281272,0.023 0.420643,0.013 0.591688,-0.041 0.957851,-0.4048 1.047808,-1.184 l 0.235027,-2.0259 0.548613,-0.039 0.05765,-0.4816 -0.542909,0.039 0.0171,-0.161 c 0.04181,-0.3705 0.171679,-0.5143 0.451053,-0.5339 0.08616,-0.011 0.197651,4e-4 0.285707,0.019 l 0.104529,-0.5099 z"
       id="path18278"
       style="fill:#231f20;fill-opacity:1;fill-rule:nonzero;stroke:none"
       inkscape:connector-curvature="0" />
    <path
       d="m 21.195953,1031.0695 -0.01838,0.1559 c -0.06081,0.5118 -0.433313,1.3253 -0.774769,1.3493 -0.120365,0.011 -0.189417,-0.084 -0.206521,-0.3187 -0.03421,-0.5004 0.174846,-1.1624 0.72789,-1.201 0.105799,-0.011 0.193851,5e-4 0.271773,0.014 m 0.651237,-0.4897 c -0.272405,-0.034 -0.562547,-0.033 -0.850791,-0.012 -1.047174,0.073 -1.474786,0.9438 -1.412069,1.8473 0.03611,0.5093 0.249599,0.731 0.615129,0.705 0.475758,-0.032 0.775402,-0.5176 0.943279,-0.8812 l 0.0088,0 c -0.08679,0.3395 -0.142539,0.5847 -0.172312,0.7754 l 0.596122,-0.041 c 0.05638,-0.6373 0.138103,-1.2664 0.271772,-2.3915"
       id="path18280"
       style="fill:#231f20;fill-opacity:1;fill-rule:nonzero;stroke:none"
       inkscape:connector-curvature="0" />
    <path
       d="m 23.963078,1030.4177 c -0.152041,-0.029 -0.307248,-0.041 -0.480826,-0.03 -0.869795,0.061 -1.35569,0.8438 -1.291705,1.7567 0.03484,0.4992 0.302178,0.8096 0.942013,0.7653 0.20652,-0.014 0.406072,-0.067 0.565082,-0.1363 l 0.01584,-0.5371 c -0.126066,0.066 -0.286974,0.1115 -0.440915,0.1222 -0.326886,0.023 -0.436481,-0.1673 -0.452318,-0.3933 -0.03104,-0.4473 0.160907,-1.0213 0.660107,-1.0561 0.144436,-0.011 0.26607,0.011 0.375031,0.045 l 0.107697,-0.5378 z"
       id="path18282"
       style="fill:#231f20;fill-opacity:1;fill-rule:nonzero;stroke:none"
       inkscape:connector-curvature="0" />
    <path
       d="m 26.392546,1030.977 c 0.05385,-0.4725 -0.108326,-0.7893 -0.569515,-0.757 -0.456754,0.032 -0.762734,0.4251 -0.948981,0.8672 l -0.01016,0 c 0.11593,-0.4091 0.171679,-0.6544 0.200185,-0.8691 l 0.116564,-1.0224 -0.600557,0.042 -0.423178,3.5565 0.601192,-0.043 0.07285,-0.6139 c 0.06715,-0.5651 0.447248,-1.3449 0.769067,-1.3677 0.15394,-0.011 0.210322,0.106 0.17358,0.4036 l -0.183717,1.5197 0.605626,-0.043 0.197017,-1.6705 z"
       id="path18284"
       style="fill:#231f20;fill-opacity:1;fill-rule:nonzero;stroke:none"
       inkscape:connector-curvature="0" />
    <path
       d="m 29.549907,1030.8232 c 0.03484,0.5004 -0.174845,1.1617 -0.727892,1.2017 -0.105158,0.011 -0.188781,0 -0.271136,-0.015 l 0.02154,-0.166 c 0.06208,-0.5017 0.430146,-1.3145 0.771603,-1.3386 0.115298,-0.011 0.189417,0.084 0.205888,0.318 m 0.611959,-0.1591 c -0.03548,-0.5086 -0.249598,-0.7303 -0.614492,-0.705 -0.423179,0.03 -0.736128,0.3902 -0.943282,0.8824 l -0.0095,6e-4 c 0.119731,-0.4282 0.176113,-0.6595 0.198918,-0.878 l 0.126067,-1.0333 -0.600557,0.042 -0.421277,3.5128 c 0.263535,0.039 0.53974,0.049 0.852056,0.026 1.047808,-0.073 1.47542,-0.9433 1.412069,-1.848"
       id="path18286"
       style="fill:#231f20;fill-opacity:1;fill-rule:nonzero;stroke:none"
       inkscape:connector-curvature="0" />
    <path
       d="m 31.936297,1030.4639 c 0.01773,0.254 -0.262268,0.3903 -0.814045,0.4479 0.06461,-0.318 0.241997,-0.6208 0.554311,-0.643 0.153308,-0.011 0.250234,0.061 0.259734,0.1951 m 0.590423,-0.1236 c -0.02028,-0.2888 -0.222992,-0.5688 -0.814679,-0.5277 -0.744996,0.052 -1.303109,0.7723 -1.233425,1.7726 0.03675,0.5283 0.297111,0.7906 0.902737,0.7481 0.31675,-0.022 0.625898,-0.097 0.883098,-0.2166 l -0.03294,-0.4707 c -0.214756,0.106 -0.456119,0.1767 -0.686713,0.1932 -0.331954,0.023 -0.443449,-0.052 -0.462455,-0.3256 -0.0039,-0.053 0,-0.135 0.0012,-0.1888 0.935044,-0.094 1.483022,-0.4123 1.443111,-0.9845"
       id="path18288"
       style="fill:#231f20;fill-opacity:1;fill-rule:nonzero;stroke:none"
       inkscape:connector-curvature="0" />
    <path
       d="m 34.276444,1029.6669 c -0.122265,-0.015 -0.252132,-0.016 -0.406072,-0.011 -0.68798,0.049 -1.005364,0.4091 -0.974322,0.8462 0.03865,0.5626 0.659473,0.5917 0.682278,0.9136 0.01203,0.1736 -0.135568,0.28 -0.380733,0.2971 -0.120365,0.011 -0.256567,-0.011 -0.369963,-0.042 l -0.07412,0.5272 c 0.121634,0.011 0.261636,0.015 0.420646,0.011 0.744995,-0.052 1.062377,-0.4897 1.033871,-0.8888 -0.03675,-0.529 -0.666443,-0.6245 -0.686714,-0.9185 -0.0114,-0.1534 0.10199,-0.2623 0.352226,-0.28 0.105798,-0.011 0.21729,-6e-4 0.324984,0.025 l 0.07792,-0.4789 z"
       id="path18290"
       style="fill:#231f20;fill-opacity:1;fill-rule:nonzero;stroke:none"
       inkscape:connector-curvature="0" />
    <path
       d="m 36.089518,1029.5402 c -0.122265,-0.015 -0.252132,-0.015 -0.406071,-0.011 -0.687981,0.047 -1.005364,0.4085 -0.974323,0.8455 0.03928,0.5626 0.659473,0.5917 0.68228,0.9136 0.01203,0.1729 -0.135569,0.28 -0.380735,0.2971 -0.120364,0.011 -0.256566,-0.011 -0.369963,-0.042 l -0.07412,0.5272 c 0.120998,0.011 0.261636,0.015 0.420643,0.011 0.744996,-0.052 1.061745,-0.4897 1.034505,-0.8894 -0.03738,-0.5278 -0.667076,-0.6241 -0.687981,-0.9174 -0.01082,-0.1538 0.10263,-0.2628 0.352859,-0.2806 0.105798,-0.011 0.217291,-5e-4 0.324986,0.025 l 0.07792,-0.4789 z"
       id="path18292"
       style="fill:#231f20;fill-opacity:1;fill-rule:nonzero;stroke:none"
       inkscape:connector-curvature="0" />
    <path
       d="m 37.893725,1030.0471 c 0.01773,0.2546 -0.262901,0.3902 -0.814045,0.4479 0.06461,-0.3181 0.241362,-0.6202 0.554312,-0.6424 0.153306,-0.011 0.250231,0.061 0.259733,0.1945 m 0.590421,-0.1236 c -0.02027,-0.2888 -0.223625,-0.5689 -0.815313,-0.5277 -0.744996,0.052 -1.303107,0.773 -1.23279,1.7725 0.03675,0.529 0.296478,0.79 0.902104,0.7482 0.317382,-0.022 0.625897,-0.097 0.883731,-0.2166 l -0.03294,-0.4707 c -0.214756,0.107 -0.456119,0.1767 -0.687345,0.1932 -0.331322,0.023 -0.442818,-0.052 -0.462456,-0.3256 -0.0032,-0.052 5.45e-4,-0.135 0.0019,-0.1882 0.935046,-0.095 1.483023,-0.4131 1.443112,-0.9851"
       id="path18294"
       style="fill:#231f20;fill-opacity:1;fill-rule:nonzero;stroke:none"
       inkscape:connector-curvature="0" />
    <path
       d="m 40.375141,1029.207 c -0.418109,-0.039 -0.654405,0.3118 -0.873593,0.8337 l -0.0095,6e-4 c 0.0925,-0.3345 0.135569,-0.5506 0.156474,-0.7349 l -0.582185,0.04 c -0.02662,0.3118 -0.08299,0.8128 -0.1267,1.1543 l -0.152674,1.2664 0.600557,-0.042 0.06461,-0.5263 c 0.10199,-0.8185 0.476391,-1.4774 0.834951,-1.3912 l 0.08806,-0.6006 z"
       id="path18296"
       style="fill:#231f20;fill-opacity:1;fill-rule:nonzero;stroke:none"
       inkscape:connector-curvature="0" />
    <path
       d="m 43.389966,1027.9191 c -0.1267,-0.021 -0.257201,-0.021 -0.392137,-0.011 -0.67341,0.047 -0.981925,0.4117 -1.051609,1.0585 l -0.01648,0.1799 -0.408606,0.03 -0.06271,0.4829 0.408607,-0.03 -0.240097,2.0215 c -0.05827,0.4827 -0.203353,0.6183 -0.47259,0.6372 -0.08172,0.011 -0.193216,0 -0.281273,-0.019 l -0.108966,0.5144 c 0.136836,0.019 0.281908,0.024 0.421278,0.014 0.591054,-0.041 0.957218,-0.4048 1.047806,-1.184 l 0.234396,-2.0259 0.548609,-0.039 0.05765,-0.482 -0.542908,0.039 0.01773,-0.1602 c 0.0418,-0.3705 0.17168,-0.515 0.450419,-0.534 0.08616,-0.011 0.198286,6e-4 0.286342,0.019 l 0.104529,-0.5094 z"
       id="path18298"
       style="fill:#231f20;fill-opacity:1;fill-rule:nonzero;stroke:none"
       inkscape:connector-curvature="0" />
    <path
       d="m 44.658864,1029.4294 -0.01837,0.1552 c -0.06081,0.5119 -0.433314,1.3253 -0.77477,1.3494 -0.120367,0.011 -0.189417,-0.084 -0.205889,-0.3193 -0.03484,-0.4998 0.174846,-1.1618 0.727259,-1.2006 0.106428,-0.011 0.193216,7e-4 0.27177,0.015 m 0.65187,-0.4904 c -0.272403,-0.034 -0.56318,-0.033 -0.850789,-0.012 -1.048441,0.073 -1.475419,0.9433 -1.412068,1.8473 0.03548,0.51 0.248965,0.7311 0.614492,0.7057 0.475758,-0.034 0.775403,-0.5182 0.942648,-0.8825 l 0.0095,-5e-4 c -0.08679,0.3395 -0.141903,0.5847 -0.172312,0.7754 l 0.596125,-0.042 c 0.05702,-0.6366 0.138734,-1.2657 0.272403,-2.3907"
       id="path18300"
       style="fill:#231f20;fill-opacity:1;fill-rule:nonzero;stroke:none"
       inkscape:connector-curvature="0" />
    <path
       d="m 47.914416,1029.4719 c 0.05385,-0.472 -0.108326,-0.7894 -0.570149,-0.7571 -0.456752,0.032 -0.762099,0.4251 -0.948348,0.8673 l -0.01016,0 c 0.115932,-0.4093 0.171679,-0.6545 0.199554,-0.8692 l 0.117196,-1.0224 -0.600557,0.042 -0.423177,3.5558 0.601191,-0.042 0.07285,-0.6139 c 0.06652,-0.5651 0.447252,-1.3449 0.769068,-1.3677 0.153942,-0.011 0.210322,0.1059 0.172945,0.4035 l -0.183713,1.5198 0.605625,-0.043 0.197651,-1.6704 z"
       id="path18302"
       style="fill:#231f20;fill-opacity:1;fill-rule:nonzero;stroke:none"
       inkscape:connector-curvature="0" />
    <path
       d="m 49.954284,1028.5367 c -0.418109,-0.039 -0.654404,0.3118 -0.873596,0.8338 l -0.0095,6e-4 c 0.09248,-0.3345 0.134934,-0.55 0.155841,-0.7349 l -0.581553,0.041 c -0.0266,0.311 -0.08299,0.8121 -0.126699,1.1536 l -0.153306,1.267 0.60119,-0.043 0.06461,-0.5258 c 0.102,-0.8191 0.476391,-1.4779 0.834953,-1.3917 l 0.08806,-0.6006 z"
       id="path18304"
       style="fill:#231f20;fill-opacity:1;fill-rule:nonzero;stroke:none"
       inkscape:connector-curvature="0" />
    <path
       d="m 51.475949,1029.0974 c 0.01773,0.2547 -0.262901,0.3902 -0.814045,0.4479 0.06461,-0.3186 0.241362,-0.6209 0.553678,-0.6423 0.153939,-0.011 0.250865,0.06 0.260367,0.1944 m 0.589787,-0.1235 c -0.01964,-0.2888 -0.222992,-0.5689 -0.814679,-0.5277 -0.744996,0.052 -1.303109,0.7723 -1.233422,1.7726 0.03738,0.5283 0.29711,0.7906 0.902736,0.7481 0.317382,-0.022 0.62653,-0.097 0.88373,-0.2166 l -0.03357,-0.4707 c -0.214122,0.106 -0.455485,0.1767 -0.686712,0.1925 -0.331953,0.023 -0.443451,-0.051 -0.462455,-0.325 -0.0039,-0.052 0,-0.1349 0.0012,-0.1881 0.935679,-0.094 1.483655,-0.4131 1.443111,-0.9851"
       id="path18306"
       style="fill:#231f20;fill-opacity:1;fill-rule:nonzero;stroke:none"
       inkscape:connector-curvature="0" />
    <path
       d="m 54.60417,1029.0044 c 0.05385,-0.4727 -0.108327,-0.79 -0.57015,-0.7578 -0.456754,0.032 -0.762734,0.4257 -0.948982,0.8686 l -0.0095,-0.011 c 0.103889,-0.3838 0.145703,-0.6088 0.164709,-0.7551 l -0.591688,0.041 c -0.02977,0.3357 -0.07665,0.7634 -0.126699,1.1543 l -0.153308,1.2662 0.601824,-0.043 0.07222,-0.6131 c 0.06651,-0.5651 0.446616,-1.3457 0.769068,-1.3678 0.153306,-0.011 0.210322,0.106 0.172946,0.403 l -0.183716,1.5197 0.606259,-0.042 0.197019,-1.6706 z"
       id="path18308"
       style="fill:#231f20;fill-opacity:1;fill-rule:nonzero;stroke:none"
       inkscape:connector-curvature="0" />
    <path
       d="m 51.545001,1009.1936 0.228693,3.2675 c -1.235956,0.2743 -5.062292,1.6699 -4.886813,4.1729 0.100091,1.4374 2.20141,1.9588 2.724046,1.9411 l 0.638568,-0.025 -0.179914,-2.5764 3.486147,-0.2433 0.165976,2.7342 0.183715,2.261 c -0.518835,0.1792 -1.621758,0.408 -2.679701,0.5327 -0.966087,0.1141 -1.533069,0.166 -2.492821,0.1146 -1.383561,-0.072 -2.578341,-0.3496 -3.450036,-0.8456 -1.052877,-0.5994 -2.013262,-1.9367 -2.111453,-2.9629 -0.03104,-0.3332 -0.05956,-0.4073 -0.06461,-0.4834 -0.124798,-1.7877 1.238492,-3.7491 2.974279,-5.1605 1.979687,-1.6103 4.601105,-2.6461 5.463931,-2.7272 m -17.611912,10.2532 0.337655,4.8266 3.125686,-0.2186 -2.912829,3.4597 -3.548229,-3.0073 3.191568,-0.2237 -0.337655,-4.8159 0.143804,-0.021 z m -3.9448,-8.5757 8.24626,5.3284 -0.402272,-5.7483 c 0.247064,-0.053 0.989526,-0.056 1.621759,-0.086 0.643635,-0.03 1.649632,-0.066 1.649632,-0.066 l 0.148872,11.6552 c 5.45e-4,0.028 -0.105158,0.074 -0.181182,0.078 -0.255933,0.019 -8.206981,-5.358 -8.206981,-5.358 l -0.01964,0.057 0.212223,2.9711 0.229961,2.6607 -3.293563,0.1178 c 0,0 -0.07728,-3.6698 -0.117196,-6.0169 -0.03611,-2.1184 -0.08109,-5.4336 -0.08109,-5.4336 -0.0056,-0.079 0.193216,-0.1596 0.193216,-0.1596 m -2.810203,-4.9813 3.424064,2.9858 -2.896358,0.202 0.477025,6.819 -0.143171,0.011 -0.477025,-6.8191 -3.481711,0.2433 3.097176,-3.4412 z m -4.161455,5.6635 3.707238,-0.2584 c 0,0 0.180547,3.3556 0.338921,5.4981 0.169779,2.2888 0.497299,5.8263 0.512502,5.8631 l -3.753484,0.2623 -0.380732,-5.8352 -0.424445,-5.5299 z m -12.282917,0.8718 3.773122,-0.2635 1.158036,-0.02 c 2.008192,5e-4 6.239967,0.52 6.46676,3.7705 0.0056,0.075 0.03991,0.4036 -0.0032,0.8262 -0.554311,5.0387 -6.262773,6.5027 -9.653261,6.9975 -0.03801,-0.031 -0.05702,-0.025 -0.93061,0.062 l -0.548611,-7.8066 -1.6781397,0.1173 0.2090549,2.9856 -3.4766435,-2.9419 3.0255926,-3.6104 0.2394622,3.4196 1.6572335,-0.1146 -0.238828,-3.4222 z m 3.773122,2.2995 0.06081,0.8711 1.047173,-0.074 0.01082,0.1458 -1.031981,0.072 0.338289,4.8341 c 1.92268,-0.3667 3.510229,-2.0594 3.384796,-3.8465 -0.108955,-1.5578 -1.71995,-2.0893 -3.145968,-2.0507 -0.456118,0.013 -0.521369,0.011 -0.663906,0.049 m 39.875622,-5.7667 3.460173,3.1422 -2.986315,3.4385 -0.202088,-2.89 c -0.07095,0 -0.665807,0.035 -1.016133,0.061 -0.490962,0.033 -1.267631,0.2395 -1.983484,0.4814 -1.075683,0.3655 -2.288834,1.1264 -2.288834,1.1264 l -0.06146,-0.114 c 0.679744,-0.4118 1.758593,-0.9383 2.100682,-1.0586 0.923644,-0.3257 1.318947,-0.434 2.193176,-0.5505 0.400372,-0.053 1.033237,-0.083 1.033237,-0.083 l -0.248964,-3.5526 z"
       id="path18310"
       style="fill:#00a3af;fill-opacity:1;fill-rule:nonzero;stroke:none"
       inkscape:connector-curvature="0" />
  </g>
</svg>
