<?xml version="1.0" encoding="UTF-8" standalone="no"?>
<svg
   xmlns:dc="http://purl.org/dc/elements/1.1/"
   xmlns:cc="http://creativecommons.org/ns#"
   xmlns:rdf="http://www.w3.org/1999/02/22-rdf-syntax-ns#"
   xmlns:svg="http://www.w3.org/2000/svg"
   xmlns="http://www.w3.org/2000/svg"
   xmlns:xlink="http://www.w3.org/1999/xlink"
   xmlns:sodipodi="http://sodipodi.sourceforge.net/DTD/sodipodi-0.dtd"
   xmlns:inkscape="http://www.inkscape.org/namespaces/inkscape"
   version="1.0"
   width="64"
   height="64"
   id="svg2"
   inkscape:version="0.91 r13725"
   sodipodi:docname="network_br_logo.svg">
  <sodipodi:namedview
     pagecolor="#ffffff"
     bordercolor="#666666"
     borderopacity="1"
     objecttolerance="10"
     gridtolerance="10"
     guidetolerance="10"
     inkscape:pageopacity="0"
     inkscape:pageshadow="2"
     inkscape:window-width="1920"
     inkscape:window-height="1012"
     id="namedview81"
     showgrid="false"
     inkscape:zoom="16"
     inkscape:cx="35.488821"
     inkscape:cy="23.175191"
     inkscape:window-x="1440"
     inkscape:window-y="0"
     inkscape:window-maximized="1"
     inkscape:current-layer="svg2" />
  <metadata
     id="metadata118">
    <rdf:RDF>
      <cc:Work
         rdf:about="">
        <dc:format>image/svg+xml</dc:format>
        <dc:type
           rdf:resource="http://purl.org/dc/dcmitype/StillImage" />
        <dc:title />
      </cc:Work>
    </rdf:RDF>
  </metadata>
  <defs
     id="defs4">
    <path
       id="D"
       d="m -31.5,0 33,0 a 30,30 0 0 0 30,-30 l 0,-10 a 30,30 0 0 0 -30,-30 l -33,0 z m 13,-13 19,0 a 19,19 0 0 0 19,-19 l 0,-6 a 19,19 0 0 0 -19,-19 l -19,0 z"
       style="fill-rule:evenodd" />
    <path
       id="E"
       d="m 0,0 63,0 0,-13 -51,0 0,-18 40,0 0,-12 -40,0 0,-14 48,0 0,-13 -60,0 z"
       transform="translate(-31.5,0)" />
    <path
       id="e"
       d="m -26.25,0 52.5,0 0,-12 -40.5,0 0,-16 33,0 0,-12 -33,0 0,-11 39.25,0 0,-12 -51.25,0 z" />
    <g
       id="G">
      <clipPath
         id="gcut">
        <path
           d="m -31.5,0 0,-70 63,0 0,70 z M 0,-47 l 0,12 31.5,0 0,-12 z"
           id="path11" />
      </clipPath>
      <use
         xlink:href="#O"
         clip-path="url(#gcut)"
         id="use13"
         x="0"
         y="0"
         width="100%"
         height="100%" />
      <rect
         x="5"
         y="-35"
         width="26.5"
         height="10"
         id="rect15" />
      <rect
         x="21.5"
         y="-35"
         width="10"
         height="35"
         id="rect17" />
    </g>
    <path
       id="M"
       d="m -31.5,0 12,0 0,-48 14,48 11,0 14,-48 0,48 12,0 0,-70 -17.5,0 -14,48 -14,-48 -17.5,0 z" />
    <path
       id="O"
       d="M 0,0 A 31.5,35 0 0 0 0,-70 31.5,35 0 0 0 0,0 m 0,-13 a 18.5,22 0 0 0 0,-44 18.5,22 0 0 0 0,44"
       style="fill-rule:evenodd" />
    <path
       id="P"
       d="m -31.5,0 13,0 0,-26 28,0 a 22,22 0 0 0 0,-44 l -40,0 z m 13,-39 27,0 a 9,9 0 0 0 0,-18 l -27,0 z"
       style="fill-rule:evenodd" />
    <g
       id="R">
      <use
         xlink:href="#P"
         id="use23"
         x="0"
         y="0"
         width="100%"
         height="100%" />
      <path
         d="m 28,0 c 0,-10 0,-32 -15,-32 l -19,0 c 22,0 22,22 22,32"
         id="path25" />
    </g>
    <path
       id="S"
       d="m -15.75,-22 c 0,7 6.75,10.5 16.75,10.5 10,0 14.74,-3.25 14.75,-7.75 C 15.75,-33.5 -31,-24.5 -30.75,-49.5 -30.5,-71 -6,-70 3,-70 c 9,0 26,4 25.75,21.25 l -15.25,0 c 0,-7.5 -7,-10.25 -15,-10.25 -7.75,0 -13.25,1.25 -13.25,8.5 -0.25,11.75 46.25,4 46.25,28.75 C 31.5,-3.5 13.5,0 0,0 -11.5,0 -31.55,-4.5 -31.5,-22 Z" />
    <g
       id="star"
       style="fill:#ffffff">
      <g
         id="c">
        <path
           id="t"
           d="M 0,-1 0,0 0.5,0"
           transform="matrix(0.95105652,0.30901699,-0.30901699,0.95105652,-0.30901699,-0.04894348)" />
        <use
           xlink:href="#t"
           transform="scale(-1,1)"
           id="use31"
           x="0"
           y="0"
           width="100%"
           height="100%" />
      </g>
      <use
         xlink:href="#c"
         transform="matrix(0.30901699,0.95105652,-0.95105652,0.30901699,0,0)"
         id="use33"
         x="0"
         y="0"
         width="100%"
         height="100%" />
      <use
         xlink:href="#c"
         transform="matrix(0.30901699,-0.95105652,0.95105652,0.30901699,0,0)"
         id="use35"
         x="0"
         y="0"
         width="100%"
         height="100%" />
      <use
         xlink:href="#c"
         transform="matrix(-0.80901699,0.58778525,-0.58778525,-0.80901699,0,0)"
         id="use37"
         x="0"
         y="0"
         width="100%"
         height="100%" />
      <use
         xlink:href="#c"
         transform="matrix(-0.80901699,-0.58778525,0.58778525,-0.80901699,0,0)"
         id="use39"
         x="0"
         y="0"
         width="100%"
         height="100%" />
    </g>
    <use
       id="star1"
       xlink:href="#star"
       transform="scale(31.5,31.5)"
       x="0"
       y="0"
       width="100%"
       height="100%" />
    <use
       id="star2"
       xlink:href="#star"
       transform="scale(26.25,26.25)"
       x="0"
       y="0"
       width="100%"
       height="100%" />
    <use
       id="star3"
       xlink:href="#star"
       transform="scale(21,21)"
       x="0"
       y="0"
       width="100%"
       height="100%" />
    <use
       id="star4"
       xlink:href="#star"
       transform="scale(15,15)"
       x="0"
       y="0"
       width="100%"
       height="100%" />
    <use
       id="star5"
       xlink:href="#star"
       transform="scale(10.5,10.5)"
       x="0"
       y="0"
       width="100%"
       height="100%" />
    <clipPath
       id="clipPath4341">
      <path
         inkscape:connector-curvature="0"
         d="m -31.5,0 0,-70 63,0 0,70 z M 0,-47 l 0,12 31.5,0 0,-12 z"
         id="path4343" />
    </clipPath>
  </defs>
  <path
     inkscape:connector-curvature="0"
     style="fill:#009b3a"
     d="M 64.000004,35.374505 31.34152,56.228673 2.428564e-6,36.215277 l 0,27.784717 64.000001571436,0 0,-28.625489 z"
     id="path4269" />
  <path
     inkscape:connector-curvature="0"
     style="fill:#fedf00;fill-opacity:1"
     d="M 64.000004,28.625499 31.34152,7.7713135 2.428564e-6,27.78471 l 0,8.430567 L 31.34152,56.228673 64.000004,35.374505 l 0,-6.749006 z"
     id="path4267" />
  <path
     inkscape:connector-curvature="0"
     style="fill:#009b3a"
     d="m 2.428564e-6,-7.3e-6 0,27.7847173 L 31.34152,7.7713135 64.000004,28.625499 l 0,-28.6255063 -64.000001571436,0 z"
     id="rect46" />
  <ellipse
     id="circle50"
     cx="31.341515"
     cy="31.999989"
     style="fill:#002776"
     rx="16.000002"
     ry="16.000004" />
  <path
     inkscape:connector-curvature="0"
     id="circle50-0"
     d="m 23.334056,25.160155 c -2.22,-0.05187 -4.459903,0.09057 -6.656246,0.417978 -0.343869,0.793817 -0.627652,1.604211 -0.838869,2.443114 11.04967,-1.939731 22.414426,1.293772 30.768569,8.781498 0.256852,-0.830263 0.457342,-1.648845 0.576159,-2.509776 -6.690207,-5.632458 -15.108297,-8.862865 -23.849613,-9.132814 z"
     style="fill:#ffffff;fill-opacity:1"
     sodipodi:nodetypes="cccccc" />
  <path
     style="fill:#009b3a;fill-rule:nonzero"
     d="M 22.855469 25.523438 L 22.802734 27.046875 L 24.173828 27.09375 L 24.183594 26.810547 L 23.074219 26.773438 L 23.087891 26.380859 L 23.957031 26.412109 L 23.966797 26.150391 L 23.097656 26.119141 L 23.107422 25.814453 L 24.152344 25.851562 L 24.162109 25.568359 L 22.855469 25.523438 z M 21.560547 25.529297 L 20.841797 25.541016 L 20.867188 27.064453 L 21.585938 27.052734 C 21.946558 27.046434 22.234811 26.749293 22.228516 26.388672 L 22.224609 26.169922 C 22.218309 25.809301 21.921168 25.523002 21.560547 25.529297 z M 19.720703 25.603516 L 18.851562 25.664062 L 18.9375 27.185547 L 19.21875 27.166016 L 19.179688 26.601562 L 19.767578 26.560547 C 19.9286 26.706577 19.958427 26.965661 19.96875 27.113281 L 20.228516 27.095703 C 20.216582 26.925103 20.188808 26.601743 20.021484 26.478516 C 20.386158 26.2451 20.261751 25.56639 19.720703 25.603516 z M 24.869141 25.611328 L 24.736328 27.128906 L 24.996094 27.150391 L 25.087891 26.109375 L 25.300781 27.177734 L 25.539062 27.199219 L 25.933594 26.183594 L 25.841797 27.224609 L 26.101562 27.248047 L 26.234375 25.730469 L 25.855469 25.697266 L 25.460938 26.710938 L 25.248047 25.644531 L 24.869141 25.611328 z M 17.509766 25.810547 C 16.601385 25.921177 16.78715 27.434678 17.695312 27.322266 C 18.601872 27.210052 18.416545 25.700112 17.509766 25.810547 z M 21.542969 25.8125 C 21.771362 25.8085 21.958904 25.990357 21.962891 26.21875 L 21.966797 26.349609 C 21.970797 26.578002 21.78894 26.765544 21.560547 26.769531 L 21.146484 26.777344 L 21.128906 25.820312 L 21.542969 25.8125 z M 19.71875 25.886719 C 19.978965 25.868929 20.006253 26.258751 19.746094 26.277344 L 19.160156 26.318359 L 19.132812 25.927734 L 19.71875 25.886719 z M 17.544922 26.091797 C 18.077939 26.026269 18.193193 26.977599 17.660156 27.042969 C 17.127139 27.108497 17.011885 26.157167 17.544922 26.091797 z M 28.125 26.132812 L 27.892578 27.484375 L 29.019531 27.677734 L 29.064453 27.419922 L 28.195312 27.271484 L 28.253906 26.927734 L 28.962891 27.048828 L 29.005859 26.792969 L 28.298828 26.669922 L 28.337891 26.435547 L 29.181641 26.580078 L 29.224609 26.322266 L 28.125 26.132812 z M 31.189453 26.583984 L 30.787109 28.052734 L 31.060547 28.123047 L 31.203125 27.576172 L 31.792969 27.728516 C 32.411179 27.888396 32.651413 26.960661 32.033203 26.800781 L 31.189453 26.583984 z M 31.371094 26.921875 L 31.941406 27.070312 C 32.19431 27.135722 32.094701 27.514626 31.841797 27.449219 L 31.273438 27.302734 L 31.371094 26.921875 z M 33.134766 27.105469 L 32.65625 28.550781 L 32.925781 28.636719 L 33.095703 28.097656 L 33.658203 28.275391 C 33.75463 28.470295 33.68709 28.722109 33.642578 28.863281 L 33.892578 28.941406 C 33.94409 28.778032 34.03524 28.466814 33.923828 28.291016 A 0.47891169 0.47891169 0 0 0 33.966797 27.367188 L 33.134766 27.105469 z M 33.298828 27.453125 L 33.859375 27.630859 A 0.19591842 0.19591842 0 0 1 33.742188 28.003906 L 33.181641 27.826172 L 33.298828 27.453125 z M 35.369141 27.916016 C 34.705376 27.979504 34.392179 29.108042 35.140625 29.388672 C 35.997432 29.709931 36.531233 28.280595 35.673828 27.960938 C 35.566833 27.921047 35.463964 27.906946 35.369141 27.916016 z M 35.394531 28.203125 C 35.450819 28.196181 35.511383 28.201198 35.574219 28.224609 C 36.077877 28.412261 35.741507 29.311854 35.238281 29.123047 C 34.798807 28.958159 35.000515 28.251734 35.394531 28.203125 z M 37.271484 28.664062 C 37.009527 28.671263 36.762096 28.835717 36.630859 29.089844 L 36.613281 29.128906 C 36.607781 29.140506 36.602606 29.152222 36.597656 29.164062 C 36.444989 29.546093 36.593756 29.966306 36.933594 30.113281 C 37.093443 30.181931 37.276366 30.180535 37.445312 30.109375 L 37.363281 30.298828 L 37.5625 30.386719 L 37.779297 29.886719 L 37.865234 29.6875 L 37.666016 29.599609 C 37.555907 29.553799 37.447265 29.504559 37.337891 29.457031 L 37.25 29.65625 L 37.478516 29.755859 C 37.352075 29.875133 37.185505 29.912816 37.046875 29.853516 C 36.554044 29.640258 36.934903 28.761351 37.427734 28.974609 C 37.552572 29.028919 37.636333 29.154562 37.650391 29.308594 L 37.931641 29.429688 C 37.959531 29.126317 37.815387 28.848816 37.566406 28.726562 C 37.558006 28.722462 37.549566 28.718564 37.541016 28.714844 C 37.456656 28.678364 37.364992 28.661092 37.271484 28.664062 z M 38.773438 29.269531 L 38.072266 30.625 L 38.326172 30.75 L 38.578125 30.244141 L 39.105469 30.505859 C 39.170685 30.7136 39.064166 30.953325 38.998047 31.085938 L 39.232422 31.201172 C 39.30871 31.048158 39.446737 30.757511 39.365234 30.566406 C 39.798452 30.551128 40.03638 29.900825 39.550781 29.658203 L 38.773438 29.269531 z M 38.880859 29.640625 L 39.40625 29.902344 C 39.640029 30.018902 39.464246 30.368511 39.230469 30.251953 L 38.705078 29.990234 L 38.880859 29.640625 z M 40.548828 30.173828 L 39.798828 31.5 L 40.992188 32.175781 L 41.130859 31.929688 L 40.164062 31.382812 L 40.357422 31.041016 L 41.115234 31.470703 L 41.244141 31.244141 L 40.486328 30.814453 L 40.636719 30.548828 L 41.544922 31.064453 L 41.685547 30.818359 L 40.548828 30.173828 z M 42.287109 31.388672 C 42.207446 31.413539 42.132375 31.468455 42.068359 31.566406 C 41.771361 32.022471 42.735032 32.404392 42.568359 32.666016 C 42.515542 32.748522 42.388674 32.75173 42.205078 32.634766 C 42.021467 32.517803 41.939614 32.374611 42.021484 32.246094 L 41.732422 32.0625 C 41.526818 32.383207 41.841599 32.699476 42.052734 32.833984 C 42.300588 32.99188 42.673261 33.13975 42.886719 32.804688 C 43.176203 32.350289 42.231026 31.947176 42.373047 31.734375 C 42.457845 31.601248 42.572557 31.643725 42.714844 31.734375 C 42.86175 31.827946 42.958814 31.95996 42.871094 32.097656 L 43.150391 32.275391 C 43.356742 31.961613 43.09297 31.689251 42.927734 31.583984 C 42.803807 31.505032 42.5261 31.314071 42.287109 31.388672 z M 43.966797 32.484375 C 43.885941 32.505039 43.807335 32.555923 43.738281 32.650391 C 43.417822 33.090287 44.359823 33.522849 44.179688 33.775391 C 44.122625 33.855014 43.997535 33.851021 43.820312 33.724609 C 43.643086 33.598197 43.56776 33.452181 43.65625 33.328125 L 43.376953 33.128906 C 43.154847 33.438413 43.452444 33.770642 43.65625 33.916016 C 43.8955 34.086674 44.259533 34.253118 44.490234 33.929688 C 44.803102 33.491063 43.880239 33.041013 44.033203 32.835938 C 44.124851 32.707455 44.239605 32.753593 44.376953 32.851562 C 44.518714 32.952691 44.606529 33.089739 44.511719 33.222656 L 44.783203 33.416016 C 45.005693 33.113468 44.755204 32.826661 44.595703 32.712891 C 44.476078 32.627563 44.209364 32.422384 43.966797 32.484375 z M 45.875 33.751953 C 45.22366 33.606247 44.574203 34.582215 45.201172 35.080078 C 45.916761 35.650254 46.866927 34.457658 46.150391 33.888672 C 46.060942 33.8174 45.968049 33.772768 45.875 33.751953 z M 45.810547 34.03125 C 45.866261 34.042124 45.922079 34.067526 45.974609 34.109375 C 46.395356 34.443537 45.79915 35.194168 45.378906 34.859375 C 45.010753 34.566983 45.420545 33.955132 45.810547 34.03125 z "
     id="use59" />
  <path
     style="fill:#ffffff"
     d="M 36.304688 26.351562 L 36.152344 26.824219 L 35.652344 26.824219 L 36.054688 27.117188 L 35.902344 27.591797 L 36.304688 27.298828 L 36.707031 27.591797 L 36.554688 27.119141 L 36.957031 26.824219 L 36.458984 26.824219 L 36.304688 26.351562 z M 18.28125 28.441406 L 18.126953 28.914062 L 17.628906 28.914062 L 18.03125 29.207031 L 17.876953 29.681641 L 18.28125 29.386719 L 18.683594 29.681641 L 18.529297 29.207031 L 18.931641 28.914062 L 18.433594 28.914062 L 18.28125 28.441406 z M 35.695312 30.738281 L 35.59375 31.052734 L 35.259766 31.052734 L 35.529297 31.248047 L 35.425781 31.564453 L 35.695312 31.369141 L 35.964844 31.564453 L 35.861328 31.248047 L 36.130859 31.052734 L 35.796875 31.052734 L 35.695312 30.738281 z M 25.246094 32.082031 L 25.119141 32.476562 L 24.703125 32.476562 L 25.039062 32.720703 L 24.910156 33.115234 L 25.246094 32.871094 L 25.582031 33.115234 L 25.455078 32.720703 L 25.789062 32.476562 L 25.375 32.476562 L 25.246094 32.082031 z M 31.341797 33.998047 L 31.212891 34.392578 L 30.798828 34.392578 L 31.132812 34.636719 L 31.005859 35.03125 L 31.341797 34.787109 L 31.677734 35.03125 L 31.548828 34.636719 L 31.884766 34.392578 L 31.46875 34.392578 L 31.341797 33.998047 z M 21.261719 34.546875 L 21.189453 34.773438 L 20.951172 34.773438 L 21.144531 34.912109 L 21.070312 35.136719 L 21.261719 34.998047 L 21.455078 35.136719 L 21.380859 34.912109 L 21.572266 34.773438 L 21.335938 34.773438 L 21.261719 34.546875 z M 19.695312 35.167969 L 19.541016 35.640625 L 19.042969 35.640625 L 19.445312 35.933594 L 19.292969 36.408203 L 19.695312 36.115234 L 20.097656 36.408203 L 19.945312 35.933594 L 20.347656 35.640625 L 19.847656 35.640625 L 19.695312 35.167969 z M 33.191406 35.433594 L 33.064453 35.828125 L 32.648438 35.828125 L 32.984375 36.072266 L 32.855469 36.466797 L 33.191406 36.224609 L 33.527344 36.466797 L 33.400391 36.072266 L 33.734375 35.828125 L 33.320312 35.828125 L 33.191406 35.433594 z M 29.730469 35.548828 L 29.628906 35.863281 L 29.294922 35.863281 L 29.564453 36.058594 L 29.462891 36.375 L 29.730469 36.181641 L 30 36.375 L 29.896484 36.058594 L 30.166016 35.863281 L 29.832031 35.863281 L 29.730469 35.548828 z M 17.736328 36.71875 L 17.607422 37.113281 L 17.193359 37.113281 L 17.527344 37.357422 L 17.400391 37.751953 L 17.736328 37.507812 L 18.072266 37.751953 L 17.943359 37.357422 L 18.279297 37.113281 L 17.863281 37.113281 L 17.736328 36.71875 z M 30.535156 36.789062 L 30.462891 37.015625 L 30.224609 37.015625 L 30.417969 37.154297 L 30.34375 37.378906 L 30.535156 37.240234 L 30.728516 37.378906 L 30.654297 37.154297 L 30.845703 37.015625 L 30.609375 37.015625 L 30.535156 36.789062 z M 23.025391 36.871094 L 22.898438 37.265625 L 22.482422 37.265625 L 22.818359 37.509766 L 22.689453 37.904297 L 23.025391 37.660156 L 23.361328 37.904297 L 23.234375 37.509766 L 23.568359 37.265625 L 23.154297 37.265625 L 23.025391 36.871094 z M 42.552734 36.929688 L 42.398438 37.404297 L 41.900391 37.404297 L 42.302734 37.697266 L 42.148438 38.171875 L 42.552734 37.878906 L 42.955078 38.171875 L 42.800781 37.697266 L 43.205078 37.404297 L 42.707031 37.404297 L 42.552734 36.929688 z M 44.773438 37.3125 L 44.669922 37.626953 L 44.337891 37.626953 L 44.605469 37.822266 L 44.503906 38.138672 L 44.773438 37.943359 L 45.041016 38.138672 L 44.939453 37.822266 L 45.207031 37.626953 L 44.875 37.626953 L 44.773438 37.3125 z M 43.205078 38.458984 L 43.078125 38.855469 L 42.662109 38.855469 L 42.998047 39.099609 L 42.869141 39.494141 L 43.205078 39.25 L 43.541016 39.494141 L 43.414062 39.099609 L 43.748047 38.855469 L 43.333984 38.855469 L 43.205078 38.458984 z M 31.341797 38.498047 L 31.1875 38.972656 L 30.689453 38.972656 L 31.091797 39.263672 L 30.9375 39.738281 L 31.341797 39.445312 L 31.744141 39.738281 L 31.591797 39.265625 L 31.994141 38.972656 L 31.496094 38.972656 L 31.341797 38.498047 z M 22.546875 38.574219 L 22.445312 38.890625 L 22.111328 38.890625 L 22.380859 39.085938 L 22.277344 39.400391 L 22.546875 39.205078 L 22.816406 39.400391 L 22.712891 39.085938 L 22.982422 38.890625 L 22.648438 38.890625 L 22.546875 38.574219 z M 42.226562 39.744141 L 42.097656 40.138672 L 41.681641 40.138672 L 42.017578 40.382812 L 41.890625 40.777344 L 42.226562 40.533203 L 42.5625 40.777344 L 42.433594 40.382812 L 42.769531 40.138672 L 42.353516 40.138672 L 42.226562 39.744141 z M 24.919922 39.804688 L 24.765625 40.277344 L 24.267578 40.277344 L 24.669922 40.570312 L 24.517578 41.044922 L 24.919922 40.751953 L 25.322266 41.044922 L 25.169922 40.570312 L 25.572266 40.277344 L 25.072266 40.277344 L 24.919922 39.804688 z M 39.287109 40.359375 L 39.185547 40.675781 L 38.851562 40.675781 L 39.121094 40.871094 L 39.017578 41.185547 L 39.287109 40.990234 L 39.556641 41.185547 L 39.453125 40.871094 L 39.722656 40.675781 L 39.388672 40.675781 L 39.287109 40.359375 z M 34.867188 40.511719 L 34.765625 40.828125 L 34.433594 40.828125 L 34.701172 41.023438 L 34.599609 41.337891 L 34.867188 41.142578 L 35.136719 41.337891 L 35.035156 41.023438 L 35.302734 40.828125 L 34.970703 40.828125 L 34.867188 40.511719 z M 40.941406 40.664062 L 40.839844 40.980469 L 40.505859 40.980469 L 40.775391 41.175781 L 40.671875 41.490234 L 40.941406 41.294922 L 41.210938 41.490234 L 41.107422 41.175781 L 41.376953 40.980469 L 41.042969 40.980469 L 40.941406 40.664062 z M 37.501953 40.904297 L 37.400391 41.21875 L 37.066406 41.21875 L 37.335938 41.414062 L 37.232422 41.730469 L 37.501953 41.535156 L 37.771484 41.730469 L 37.667969 41.414062 L 37.9375 41.21875 L 37.603516 41.21875 L 37.501953 40.904297 z M 39.351562 41.8125 L 39.224609 42.207031 L 38.808594 42.207031 L 39.144531 42.451172 L 39.015625 42.845703 L 39.351562 42.601562 L 39.6875 42.845703 L 39.560547 42.451172 L 39.896484 42.207031 L 39.480469 42.207031 L 39.351562 41.8125 z M 36.130859 42.203125 L 36.001953 42.599609 L 35.587891 42.599609 L 35.921875 42.84375 L 35.794922 43.238281 L 36.130859 42.994141 L 36.466797 43.238281 L 36.337891 42.84375 L 36.673828 42.599609 L 36.257812 42.599609 L 36.130859 42.203125 z M 39.330078 43.537109 L 39.228516 43.853516 L 38.896484 43.853516 L 39.164062 44.048828 L 39.0625 44.365234 L 39.332031 44.169922 L 39.599609 44.365234 L 39.498047 44.048828 L 39.765625 43.853516 L 39.433594 43.853516 L 39.330078 43.537109 z M 31.341797 44.289062 L 31.291016 44.447266 L 31.125 44.447266 L 31.259766 44.544922 L 31.207031 44.701172 L 31.341797 44.605469 L 31.476562 44.701172 L 31.423828 44.542969 L 31.558594 44.447266 L 31.392578 44.447266 L 31.341797 44.289062 z "
     id="path4792" />
</svg>
