<?xml version="1.0" encoding="UTF-8" standalone="no"?>
<!-- Created with Inkscape (http://www.inkscape.org/) -->

<svg
   xmlns:dc="http://purl.org/dc/elements/1.1/"
   xmlns:cc="http://creativecommons.org/ns#"
   xmlns:rdf="http://www.w3.org/1999/02/22-rdf-syntax-ns#"
   xmlns:svg="http://www.w3.org/2000/svg"
   xmlns="http://www.w3.org/2000/svg"
   xmlns:sodipodi="http://sodipodi.sourceforge.net/DTD/sodipodi-0.dtd"
   xmlns:inkscape="http://www.inkscape.org/namespaces/inkscape"
   width="512"
   height="512"
   id="svg2"
   version="1.1"
   inkscape:version="0.48.4 r9939"
   sodipodi:docname="ic_action_home.svg">
  <defs
     id="defs4" />
  <sodipodi:namedview
     id="base"
     pagecolor="#ffffff"
     bordercolor="#666666"
     borderopacity="1.0"
     inkscape:pageopacity="0.0"
     inkscape:pageshadow="2"
     inkscape:zoom="0.7"
     inkscape:cx="417.56748"
     inkscape:cy="101.932"
     inkscape:document-units="px"
     inkscape:current-layer="layer1"
     showgrid="false"
     fit-margin-top="50"
     fit-margin-left="50"
     fit-margin-bottom="50"
     fit-margin-right="50"
     inkscape:window-width="1280"
     inkscape:window-height="954"
     inkscape:window-x="-4"
     inkscape:window-y="-6"
     inkscape:window-maximized="1" />
  <metadata
     id="metadata7">
    <rdf:RDF>
      <cc:Work
         rdf:about="">
        <dc:format>image/svg+xml</dc:format>
        <dc:type
           rdf:resource="http://purl.org/dc/dcmitype/StillImage" />
        <dc:title></dc:title>
      </cc:Work>
    </rdf:RDF>
  </metadata>
  <g
     inkscape:label="Layer 1"
     inkscape:groupmode="layer"
     id="layer1"
     transform="translate(8.8394985,-163.03898)">
    <path
       style="fill:#000000"
       d="M 67.687802,631.17263 C 67.541082,589.16534 69.623884,522.71136 69.477163,480.70407 125.03077,423.38856 191.95735,355.32632 249.11498,299.5826 c 61.81952,56.69967 130.20364,132.46709 173.60858,177.80985 -0.33213,52.42449 -0.96637,102.80897 -2.63207,155.21964 -43.31365,2.37705 -94.97443,-0.53142 -114.53848,-0.68342 -0.33927,-29.91052 -0.41754,-88.91699 0.035,-118.82609 -37.30582,-3.73215 -61.19477,-2.12699 -119.70245,-2.59744 -1.0066,68.57138 -1.07702,92.14603 -1.19679,121.63146 -66.47183,-0.35824 -52.45494,1.59896 -117.000998,-0.96397 z M 2.2188593,445.08121 C 68.184448,378.00928 185.33313,272.1881 253.34827,207.17678 c 78.40227,74.53417 165.89292,162.64094 236.92389,238.34892 5.35154,18.45342 -25.40635,29.98361 -40.59641,12.33137 C 380.8733,378.02724 321.06462,319.67723 251.02387,254.55028 179.16752,325.69093 99.960413,394.04413 29.746118,466.81643 19.735425,479.55147 -7.6077933,463.76225 2.2188593,445.08121 z"
       id="path3072"
       inkscape:connector-curvature="0"
       sodipodi:nodetypes="cccccccccccccccccc" />
  </g>
</svg>
