<?xml version="1.0" encoding="UTF-8" standalone="no"?>
<!-- Created with Inkscape (http://www.inkscape.org/) -->

<svg
   xmlns:dc="http://purl.org/dc/elements/1.1/"
   xmlns:cc="http://creativecommons.org/ns#"
   xmlns:rdf="http://www.w3.org/1999/02/22-rdf-syntax-ns#"
   xmlns:svg="http://www.w3.org/2000/svg"
   xmlns="http://www.w3.org/2000/svg"
   xmlns:sodipodi="http://sodipodi.sourceforge.net/DTD/sodipodi-0.dtd"
   xmlns:inkscape="http://www.inkscape.org/namespaces/inkscape"
   width="470"
   height="470"
   id="svg2"
   version="1.1"
   inkscape:version="0.48.5 r10040"
   sodipodi:docname="ic_menu_show_platforms.svg">
  <defs
     id="defs4" />
  <sodipodi:namedview
     id="base"
     pagecolor="#ffffff"
     bordercolor="#666666"
     borderopacity="1.0"
     inkscape:pageopacity="0.0"
     inkscape:pageshadow="2"
     inkscape:zoom="1.4"
     inkscape:cx="234.89641"
     inkscape:cy="223.75065"
     inkscape:document-units="px"
     inkscape:current-layer="layer1"
     showgrid="false"
     inkscape:snap-global="false"
     inkscape:window-width="1920"
     inkscape:window-height="1125"
     inkscape:window-x="1276"
     inkscape:window-y="-4"
     inkscape:window-maximized="1"
     fit-margin-top="0"
     fit-margin-left="0"
     fit-margin-right="0"
     fit-margin-bottom="0">
    <inkscape:grid
       type="xygrid"
       id="grid3058"
       empspacing="5"
       visible="true"
       enabled="true"
       snapvisiblegridlinesonly="true"
       originx="-61.021663px"
       originy="-336.83225px" />
  </sodipodi:namedview>
  <metadata
     id="metadata7">
    <rdf:RDF>
      <cc:Work
         rdf:about="">
        <dc:format>image/svg+xml</dc:format>
        <dc:type
           rdf:resource="http://purl.org/dc/dcmitype/StillImage" />
        <dc:title />
      </cc:Work>
    </rdf:RDF>
  </metadata>
  <g
     inkscape:label="Ebene 1"
     inkscape:groupmode="layer"
     id="layer1"
     transform="translate(-61.021663,-245.52992)">
    <path
       style="color:#000000;fill:#000000;fill-opacity:1;fill-rule:nonzero;stroke:none;stroke-width:1;marker:none;visibility:visible;display:inline;overflow:visible;enable-background:accumulate"
       d="M 286.375 23.6875 C 234.62672 23.6875 192.96875 65.345474 192.96875 117.09375 L 192.96875 134.6875 L 192.96875 249.84375 L 192.96875 312.21875 C 192.96875 329.86761 207.16364 344.0625 224.8125 344.0625 L 260.3125 344.0625 L 232.53125 439.125 L 232.53125 446.3125 L 256.75 446.3125 L 256.75 446.21875 L 256.78125 446.21875 L 286.625 344.0625 L 369.5 344.0625 L 399.34375 446.21875 L 399.375 446.21875 L 399.375 446.3125 L 423.625 446.3125 L 423.625 439.125 L 395.84375 344.0625 L 435.75 344.0625 C 453.39886 344.0625 467.59375 329.86761 467.59375 312.21875 L 467.59375 249.84375 L 467.59375 134.6875 L 467.59375 117.09375 C 467.59375 65.345474 425.93578 23.6875 374.1875 23.6875 L 286.375 23.6875 z M 322.15625 65.78125 C 322.27843 65.78125 322.40907 65.780743 322.53125 65.78125 L 322.15625 149.78125 L 322.1875 149.78125 L 322.1875 193.15625 L 235 193.15625 L 235 151.78125 L 235 149.78125 L 235.03125 149.78125 C 236.10932 103.2048 274.69059 65.781251 322.15625 65.78125 z M 338.03125 65.78125 C 338.15343 65.780743 338.28407 65.78125 338.40625 65.78125 C 385.87191 65.781251 424.45318 103.2048 425.53125 149.78125 L 425.5625 149.78125 L 425.5625 151.78125 L 425.5625 193.15625 L 338.375 193.15625 L 338.375 149.78125 L 338.40625 149.78125 L 338.03125 65.78125 z M 257 272 L 291.46875 272 C 297.38389 272 302.15625 276.77236 302.15625 282.6875 C 302.15625 288.60264 297.38389 293.375 291.46875 293.375 L 257 293.375 C 251.08486 293.375 246.34375 288.60264 246.34375 282.6875 C 246.34375 276.77236 251.08486 272 257 272 z M 364.15625 272 L 398.625 272 C 404.54014 272 409.28125 276.77236 409.28125 282.6875 C 409.28125 288.60264 404.54014 293.375 398.625 293.375 L 364.15625 293.375 C 358.24111 293.375 353.46875 288.60264 353.46875 282.6875 C 353.46875 276.77236 358.24111 272 364.15625 272 z "
       transform="translate(61.021663,245.52992)"
       id="rect3107" />
    <rect
       style="color:#000000;fill:#000000;fill-opacity:1;fill-rule:nonzero;stroke:none;stroke-width:1;marker:none;visibility:visible;display:inline;overflow:visible;enable-background:accumulate"
       id="rect3176"
       width="178.56422"
       height="20.203051"
       x="63.427162"
       y="528.38782" />
    <path
       style="color:#000000;fill:#000000;fill-opacity:1;fill-rule:nonzero;stroke:none;stroke-width:1;marker:none;visibility:visible;display:inline;overflow:visible;enable-background:accumulate"
       d="M 59.96875 14.40625 C 38.361245 14.40625 20.96875 31.798745 20.96875 53.40625 L 20.96875 60.71875 L 20.96875 108.84375 L 20.96875 134.75 C 20.96875 142.10838 26.891621 148.03125 34.25 148.03125 L 122.34375 148.03125 C 129.70213 148.03125 135.625 142.10838 135.625 134.75 L 135.625 108.84375 L 135.625 60.71875 L 135.625 53.40625 C 135.625 31.798745 118.2325 14.40625 96.625 14.40625 L 59.96875 14.40625 z M 74.96875 27.59375 C 85.28594 27.59386 93.51921 30.18522 99.65625 35.34375 C 105.79316 40.50246 108.87493 47.40399 108.875 56.03125 C 108.87493 60.12264 108.08766 63.99648 106.53125 67.6875 C 105.01917 71.33417 102.23428 75.64432 98.1875 80.625 C 97.07567 81.91471 93.55279 85.66235 87.59375 91.84375 C 81.63461 97.98077 73.22585 106.58302 62.375 117.65625 L 109.40625 117.65625 L 109.40625 129 L 46.15625 129 L 46.15625 117.65625 C 51.27039 112.36423 58.22599 105.2692 67.03125 96.375 C 75.88091 87.4364 81.45069 81.67311 83.71875 79.09375 C 88.03237 74.24648 91.0288 70.17912 92.71875 66.84375 C 94.45306 63.46403 95.31244 60.15269 95.3125 56.90625 C 95.31244 51.61429 93.45424 47.2729 89.71875 43.9375 C 86.02761 40.60227 81.20905 38.93759 75.25 38.9375 C 71.02523 38.93759 66.55763 39.6888 61.84375 41.15625 C 57.17428 42.62387 52.18024 44.83303 46.84375 47.8125 L 46.84375 34.21875 C 52.26918 32.03977 57.31731 30.39312 62.03125 29.28125 C 66.74513 28.16958 71.05528 27.59386 74.96875 27.59375 z "
       transform="translate(61.021663,245.52992)"
       id="rect3178" />
  </g>
</svg>
