<?xml version="1.0" encoding="UTF-8" standalone="no"?>
<svg
   xmlns:dc="http://purl.org/dc/elements/1.1/"
   xmlns:cc="http://creativecommons.org/ns#"
   xmlns:rdf="http://www.w3.org/1999/02/22-rdf-syntax-ns#"
   xmlns:svg="http://www.w3.org/2000/svg"
   xmlns="http://www.w3.org/2000/svg"
   id="svg2"
   xml:space="preserve"
   enable-background="new 0 0 96 96"
   viewBox="0 0 96 96"
   height="96px"
   width="96px"
   y="0px"
   x="0px"
   version="1.0"><metadata
     id="metadata15"><rdf:RDF><cc:Work
         rdf:about=""><dc:format>image/svg+xml</dc:format><dc:type
           rdf:resource="http://purl.org/dc/dcmitype/StillImage" /><dc:title></dc:title></cc:Work></rdf:RDF></metadata><defs
     id="defs13" /><path
     id="path4136"
     d="M 48 4.46875 C 23.966253 4.46875 4.46875 23.966253 4.46875 48 C 4.46875 72.033747 23.966253 91.53125 48 91.53125 C 72.033747 91.53125 91.53125 72.033747 91.53125 48 C 91.53125 23.966253 72.033747 4.46875 48 4.46875 z M 48 11.1875 C 68.326887 11.1875 84.8125 27.673113 84.8125 48 C 84.8125 68.326887 68.326887 84.8125 48 84.8125 C 27.673113 84.8125 11.1875 68.326887 11.1875 48 C 11.1875 27.673113 27.673113 11.1875 48 11.1875 z M 28.144531 23.423828 L 28.144531 72.576172 L 38.257812 72.576172 L 38.257812 50.257812 L 57.742188 50.257812 L 57.742188 72.576172 L 67.855469 72.576172 L 67.855469 23.423828 L 57.675781 23.423828 L 57.675781 41.830078 L 38.257812 41.830078 L 38.257812 23.423828 L 28.144531 23.423828 z "
     style="font-style:normal;font-variant:normal;font-weight:600;font-stretch:normal;font-size:67.42351532px;line-height:125%;font-family:FreeSans;-inkscape-font-specification:'FreeSans Semi-Bold';letter-spacing:0px;word-spacing:0px;fill:#000000;fill-opacity:1;stroke:none" /></svg>