<?xml version="1.0" encoding="UTF-8" standalone="no"?>
<!-- Created with Inkscape (http://www.inkscape.org/) -->

<svg
   xmlns:dc="http://purl.org/dc/elements/1.1/"
   xmlns:cc="http://creativecommons.org/ns#"
   xmlns:rdf="http://www.w3.org/1999/02/22-rdf-syntax-ns#"
   xmlns:svg="http://www.w3.org/2000/svg"
   xmlns="http://www.w3.org/2000/svg"
   xmlns:xlink="http://www.w3.org/1999/xlink"
   xmlns:sodipodi="http://sodipodi.sourceforge.net/DTD/sodipodi-0.dtd"
   xmlns:inkscape="http://www.inkscape.org/namespaces/inkscape"
   width="744.09448819"
   height="1052.3622047"
   id="svg2"
   version="1.1"
   inkscape:version="0.48.4 r9939"
   sodipodi:docname="icons-merged.svg">
  <title
     id="title4118">Libreario Iconset</title>
  <defs
     id="defs4" />
  <sodipodi:namedview
     id="base"
     pagecolor="#b40000"
     bordercolor="#666666"
     borderopacity="1.0"
     inkscape:pageopacity="0"
     inkscape:pageshadow="2"
     inkscape:zoom="1.8635726"
     inkscape:cx="337.5606"
     inkscape:cy="541.49912"
     inkscape:document-units="px"
     inkscape:current-layer="svg2"
     showgrid="false"
     inkscape:window-width="1680"
     inkscape:window-height="996"
     inkscape:window-x="0"
     inkscape:window-y="27"
     inkscape:window-maximized="1"
     inkscape:showpageshadow="false"
     showborder="false"
     inkscape:snap-bbox="true"
     showguides="false"
     inkscape:guide-bbox="true">
    <inkscape:grid
       type="xygrid"
       id="grid3004"
       empspacing="8"
       dotted="false"
       visible="true"
       enabled="true"
       snapvisiblegridlinesonly="true"
       color="#0000ff"
       opacity="0.07058824"
       empcolor="#0000ff"
       empopacity="0.11372549"
       originx="4px"
       originy="3px" />
    <inkscape:grid
       type="xygrid"
       id="grid3945"
       empspacing="1"
       dotted="true"
       visible="true"
       enabled="false"
       snapvisiblegridlinesonly="true"
       spacingx="1px"
       spacingy="1px"
       color="#9f9f9f"
       opacity="0.03137255"
       empcolor="#008b99"
       empopacity="0.0627451"
       originx="0.5px"
       originy="0.5px" />
    <sodipodi:guide
       orientation="1,0"
       position="304,691"
       id="guide4262" />
    <sodipodi:guide
       orientation="0,1"
       position="300,659"
       id="guide4264" />
    <sodipodi:guide
       orientation="0,1"
       position="374,675"
       id="guide4266" />
    <sodipodi:guide
       orientation="1,0"
       position="360,691"
       id="guide4268" />
    <sodipodi:guide
       orientation="0,1"
       position="401.5,619"
       id="guide4270" />
    <sodipodi:guide
       orientation="0,1"
       position="300,603"
       id="guide4272" />
    <sodipodi:guide
       orientation="0,1"
       position="300,563"
       id="guide4274" />
    <sodipodi:guide
       orientation="0,1"
       position="300,547"
       id="guide4276" />
    <sodipodi:guide
       orientation="0,1"
       position="300,507"
       id="guide4278" />
    <sodipodi:guide
       orientation="0,1"
       position="300,491"
       id="guide4280" />
    <sodipodi:guide
       orientation="1,0"
       position="344,691"
       id="guide4282" />
    <sodipodi:guide
       orientation="1,0"
       position="400,691"
       id="guide4284" />
  </sodipodi:namedview>
  <metadata
     id="metadata7">
    <rdf:RDF>
      <cc:Work
         rdf:about="">
        <dc:format>image/svg+xml</dc:format>
        <dc:type
           rdf:resource="http://purl.org/dc/dcmitype/StillImage" />
        <dc:title>Libreario Iconset</dc:title>
        <cc:license
           rdf:resource="http://creativecommons.org/licenses/by-sa/3.0/" />
        <dc:creator>
          <cc:Agent>
            <dc:title>Robert Martinez</dc:title>
          </cc:Agent>
        </dc:creator>
        <dc:source>https://github.com/grote/Liberario#liberario</dc:source>
      </cc:Work>
      <cc:License
         rdf:about="http://creativecommons.org/licenses/by-sa/3.0/">
        <cc:permits
           rdf:resource="http://creativecommons.org/ns#Reproduction" />
        <cc:permits
           rdf:resource="http://creativecommons.org/ns#Distribution" />
        <cc:requires
           rdf:resource="http://creativecommons.org/ns#Notice" />
        <cc:requires
           rdf:resource="http://creativecommons.org/ns#Attribution" />
        <cc:permits
           rdf:resource="http://creativecommons.org/ns#DerivativeWorks" />
        <cc:requires
           rdf:resource="http://creativecommons.org/ns#ShareAlike" />
      </cc:License>
    </rdf:RDF>
  </metadata>
  <g
     inkscape:groupmode="layer"
     id="layer3"
     inkscape:label="hintergrund"
     style="display:inline"
     sodipodi:insensitive="true">
    <rect
       style="color:#000000;fill:#000000;fill-opacity:1;fill-rule:evenodd;stroke:none;stroke-width:1px;marker:none;visibility:visible;display:inline;overflow:visible;enable-background:accumulate"
       id="rect4080"
       width="136.5"
       height="248"
       x="284"
       y="345.36218" />
  </g>
  <g
     inkscape:groupmode="layer"
     id="layer2"
     inkscape:label="button"
     style="opacity:0.62790695;display:none"
     sodipodi:insensitive="true">
    <rect
       ry="0"
       rx="0"
       y="361.36218"
       x="300"
       height="48"
       width="48"
       id="rect3091"
       style="color:#000000;fill:#363636;fill-opacity:1;fill-rule:evenodd;stroke:none;stroke-width:1px;marker:none;visibility:visible;display:inline;overflow:visible;enable-background:accumulate"
       inkscape:export-filename="/home/mray/Desktop/test-icon.png"
       inkscape:export-xdpi="90"
       inkscape:export-ydpi="90" />
    <path
       sodipodi:type="inkscape:offset"
       inkscape:radius="0"
       inkscape:original="M 300 361.375 L 300 409.375 L 348 409.375 L 348 361.375 L 300 361.375 z "
       xlink:href="#rect3091"
       style="color:#000000;fill:#000000;fill-opacity:1;fill-rule:evenodd;stroke:none;stroke-width:1px;marker:none;visibility:visible;display:inline;overflow:visible;enable-background:accumulate"
       id="path4239"
       inkscape:href="#rect3091"
       d="m 300,361.375 0,48 48,0 0,-48 -48,0 z"
       transform="translate(56,55.987183)" />
    <use
       x="0"
       y="0"
       xlink:href="#rect3091"
       id="use4225"
       transform="translate(56,0)"
       width="744.09448"
       height="1052.3622" />
    <use
       height="1052.3622"
       width="744.09448"
       transform="translate(0,56)"
       id="use4227"
       xlink:href="#rect3091"
       y="0"
       x="0" />
    <use
       x="0"
       y="0"
       xlink:href="#rect3091"
       id="use4229"
       transform="translate(0,112)"
       width="744.09448"
       height="1052.3622" />
    <use
       height="1052.3622"
       width="744.09448"
       transform="translate(0,167.5)"
       id="use4231"
       xlink:href="#rect3091"
       y="0"
       x="0" />
    <use
       x="0"
       y="0"
       xlink:href="#rect3091"
       id="use4233"
       transform="translate(56,112)"
       width="744.09448"
       height="1052.3622" />
    <use
       x="0"
       y="0"
       xlink:href="#rect3091"
       id="use4237"
       transform="translate(56,167.5)"
       width="744.09448"
       height="1052.3622" />
    <use
       x="0"
       y="0"
       xlink:href="#rect3091"
       id="use3923"
       transform="translate(56,56)"
       width="744.09448"
       height="1052.3622" />
    <rect
       inkscape:export-ydpi="90"
       inkscape:export-xdpi="90"
       inkscape:export-filename="/home/mray/Desktop/test-icon.png"
       style="color:#000000;fill:#5d5d5d;fill-opacity:1;fill-rule:evenodd;stroke:none;stroke-width:1px;marker:none;visibility:visible;display:inline;overflow:visible;enable-background:accumulate"
       id="use3952"
       width="40"
       height="40"
       x="304"
       y="365.36218"
       rx="0"
       ry="0" />
    <use
       x="0"
       y="0"
       xlink:href="#use3952"
       id="use3958"
       transform="translate(56,0)"
       width="744.09448"
       height="1052.3622" />
    <use
       height="1052.3622"
       width="744.09448"
       transform="translate(0,56)"
       id="use3960"
       xlink:href="#use3952"
       y="0"
       x="0" />
    <use
       x="0"
       y="0"
       xlink:href="#use3952"
       id="use3962"
       transform="translate(56,56)"
       width="744.09448"
       height="1052.3622" />
    <use
       x="0"
       y="0"
       xlink:href="#use3952"
       id="use3964"
       transform="translate(0,112)"
       width="744.09448"
       height="1052.3622" />
    <use
       height="1052.3622"
       width="744.09448"
       transform="translate(56,112)"
       id="use3966"
       xlink:href="#use3952"
       y="0"
       x="0" />
    <use
       height="1052.3622"
       width="744.09448"
       transform="translate(0,167)"
       id="use3968"
       xlink:href="#use3952"
       y="0"
       x="0" />
    <use
       x="0"
       y="0"
       xlink:href="#use3952"
       id="use3970"
       transform="translate(56,167)"
       width="744.09448"
       height="1052.3622" />
  </g>
  <g
     inkscape:groupmode="layer"
     id="layer4"
     inkscape:label="named-export"
     style="display:none"
     sodipodi:insensitive="true">
    <rect
       style="opacity:0.62790695;color:#000000;fill:#ff0000;fill-opacity:0;fill-rule:evenodd;stroke:none;stroke-width:1px;marker:none;visibility:visible;display:inline;overflow:visible;enable-background:accumulate"
       id="HIGH_SPEED_TRAIN"
       width="48"
       height="48"
       x="300"
       y="361.36218"
       inkscape:label="#rect4082"
       inkscape:export-xdpi="90"
       inkscape:export-ydpi="90" />
    <rect
       inkscape:label="#rect4082"
       y="361.36218"
       x="356"
       height="48"
       width="48"
       id="REGIONAL_TRAIN"
       style="opacity:0.62790695;color:#000000;fill:#ff0000;fill-opacity:0;fill-rule:evenodd;stroke:none;stroke-width:1px;marker:none;visibility:visible;display:inline;overflow:visible;enable-background:accumulate" />
    <rect
       style="opacity:0.62790695;color:#000000;fill:#ff0000;fill-opacity:0;fill-rule:evenodd;stroke:none;stroke-width:1px;marker:none;visibility:visible;display:inline;overflow:visible;enable-background:accumulate"
       id="SUBURBAN_TRAIN"
       width="48"
       height="48"
       x="300"
       y="417.36218"
       inkscape:label="#rect4082" />
    <rect
       inkscape:label="#rect4082"
       y="417.36218"
       x="356"
       height="48"
       width="48"
       id="rect4108"
       style="opacity:0.62790695;color:#000000;fill:#ff0000;fill-opacity:0;fill-rule:evenodd;stroke:none;stroke-width:1px;marker:none;visibility:visible;display:inline;overflow:visible;enable-background:accumulate" />
    <rect
       style="opacity:0.62790695;color:#000000;fill:#ff0000;fill-opacity:0;fill-rule:evenodd;stroke:none;stroke-width:1px;marker:none;visibility:visible;display:inline;overflow:visible;enable-background:accumulate"
       id="TRAM"
       width="48"
       height="48"
       x="300"
       y="473.36218"
       inkscape:label="#rect4082" />
    <rect
       inkscape:label="#rect4082"
       y="473.36218"
       x="356"
       height="48"
       width="48"
       id="BUS"
       style="opacity:0.62790695;color:#000000;fill:#ff0000;fill-opacity:0;fill-rule:evenodd;stroke:none;stroke-width:1px;marker:none;visibility:visible;display:inline;overflow:visible;enable-background:accumulate" />
    <rect
       style="opacity:0.62790695;color:#000000;fill:#ff0000;fill-opacity:0;fill-rule:evenodd;stroke:none;stroke-width:1px;marker:none;visibility:visible;display:inline;overflow:visible;enable-background:accumulate"
       id="FERRY"
       width="48"
       height="48"
       x="300"
       y="529.36218"
       inkscape:label="#rect4082" />
    <rect
       inkscape:label="#rect4082"
       y="529.36218"
       x="356"
       height="48"
       width="48"
       id="CABLECAR"
       style="opacity:0.62790695;color:#000000;fill:#ff0000;fill-opacity:0;fill-rule:evenodd;stroke:none;stroke-width:1px;marker:none;visibility:visible;display:inline;overflow:visible;enable-background:accumulate" />
  </g>
  <g
     inkscape:label="icons"
     inkscape:groupmode="layer"
     id="layer1"
     style="display:inline"
     sodipodi:insensitive="true">
    <path
       style="fill:#ffffff;fill-opacity:0.7962963;stroke:none"
       d="m 319.5,377.375 -16,16 40.5,0 0,-0.90625 -18.84375,-1.6875 18.84375,0 0,-1.375 -15.0625,-1.71875 15.0625,0 0,-1.5625 -11.5,-1.5625 11.5,0 0,-1.9375 -7.5,-1.15625 7.5,0 0,-2.4375 -5,-0.75 5,0 0,-0.90625 -24.5,0 z m -1.5,3 8,0 -1.5,2.5 -10.5,1.5 4,-4 z"
       id="path4086"
       inkscape:connector-curvature="0" />
    <path
       style="fill:#ffffff;fill-opacity:0.7962963;stroke:none"
       d="m 372,377.375 -12,13 0,3 40,0 0,-0.875 -9.5,-1.125 9.5,0 0,-1.9375 -7.5,-1.0625 7.5,0 0,-2 -5,-1 5,0 0,-2.03125 -4,-0.96875 4,0 0,-2.09375 -3,-0.90625 3,0 0,-2 z m -1.5,3 4.5,0 0,5 -9,0 z m 7.5,0 6,0 0,5 -6,0 z m 9,0 6,0 0,5 -6,0 z"
       id="path3026"
       inkscape:connector-curvature="0"
       sodipodi:nodetypes="cccccccccccccccccccccccccccccccccccc" />
    <path
       style="font-size:medium;font-style:normal;font-variant:normal;font-weight:normal;font-stretch:normal;text-indent:0;text-align:start;text-decoration:none;line-height:normal;letter-spacing:normal;word-spacing:normal;text-transform:none;direction:ltr;block-progression:tb;writing-mode:lr-tb;text-anchor:start;baseline-shift:baseline;color:#000000;fill:#ffffff;fill-opacity:0.7962963;stroke:none;stroke-width:1;marker:none;visibility:visible;display:inline;overflow:visible;enable-background:accumulate;font-family:Sans;-inkscape-font-specification:Sans"
       d="m 331.5,483.09375 -6.65625,3.9375 4,2.34375 -18.84375,0 -6,12 0,4 40,0 0,-16 -9.84375,0 4,-2.34375 z m 0,1.15625 4.6875,2.75 -4,2.375 -1.375,0 -4,-2.375 z m -21.5,7.125 5,0 0,9 -9.5,0 z m 6,0 9,0 0,9 -9,0 z m 10,0 7,0 0,13 -7,0 z m 8,0 9,0 0,9 -9,0 z"
       id="rect4105"
       inkscape:connector-curvature="0"
       sodipodi:nodetypes="ccccccccccccccccccccccccccccccccccccc" />
    <path
       style="fill:#ffffff;fill-opacity:0.7962963;stroke:none"
       d="m 309.53125,433.375 -5,10 0,5 1,1 38.46875,0 0,-1 -4.6875,-1.5 4.6875,0 0,-1.5 -4.6875,-1.5 4.6875,0 0,-1.5 -4.6875,-1.5 4.6875,0 0,-1.5 -4.6875,-1.5 4.6875,0 0,-1.5 -4.6875,-1.5 4.6875,0 0,-1.5 -34.46875,0 z m 0,2 5,0 0,7 -8.5,0 3.5,-7 z m 16.125,0 0,7.09375 -8.125,0 0,-7.03125 8.125,-0.0625 z m 2.875,0 8,0 0,7 -8,0 0,-7 z"
       id="path3050"
       inkscape:connector-curvature="0" />
    <path
       style="color:#000000;fill:#ffffff;fill-opacity:0.7962963;fill-rule:evenodd;stroke:none;stroke-width:1px;marker:none;visibility:visible;display:inline;overflow:visible;enable-background:accumulate"
       clip-path="none"
       d="m 319,545.375 -1.75,3.5 -2.25,0 0,3.5 2.5,0 c 0,1.10457 0.89543,2 2,2 1.10457,0 2,-0.89543 2,-2 l 5,0 c 0,1.10457 0.89543,2 2,2 1.10457,0 2,-0.89543 2,-2 l 2.5,0 0,-3.5 -2.25,0 -1.75,-3.5 -10,0 z m 9.5,9 -9,0 -15.5,0 3.625,6.53125 c 0.55042,-0.33325 1.14482,-0.625 1.8125,-0.625 1.78048,0 2.87577,1.90625 4.65625,1.90625 1.7805,0 2.90702,-1.90625 4.6875,-1.90625 1.7805,0 2.87578,1.90625 4.65625,1.90625 1.78049,0 2.90702,-1.90625 4.6875,-1.90625 1.7805,0 2.90702,1.90625 4.6875,1.90625 1.78048,0 2.87576,-1.90625 4.65625,-1.90625 1.24823,0 2.16654,0.94292 3.21875,1.5 L 344,554.375 l -15.5,0 z"
       id="rect3100"
       inkscape:connector-curvature="0" />
    <path
       style="color:#000000;fill:#ffffff;fill-opacity:0.7962963;fill-rule:evenodd;stroke:none;stroke-width:1.00198984;marker:none;visibility:visible;display:inline;overflow:visible;enable-background:accumulate"
       d="m 364,489.375 -4,8 0,6.5 7.375,0 c 0.034,-1.9326 1.62206,-3.5 3.5625,-3.5 1.94044,0 3.52847,1.5674 3.5625,3.5 l 11.875,0 c 0.034,-1.93155 1.62316,-3.5 3.5625,-3.5 1.93934,0 3.52845,1.56845 3.5625,3.5 l 5,0 1.5,-1.5 0,-13 -36,0 z m 0,2 4,0 0,6 -1,1 -6,0 0,-1 3,-6 z m 5,0 9.5,0 0,6 -9.5,0 0,-6 z m 10.5,0 9.5,0 0,6 -9.5,0 0,-6 z m 10.5,0 9,0 0,6 -9,0 0,-6 z m -19.0625,10 c -1.42115,0 -2.5625,1.14134 -2.5625,2.5625 0,1.42115 1.14135,2.5625 2.5625,2.5625 1.42115,0 2.5625,-1.14135 2.5625,-2.5625 0,-1.42116 -1.14135,-2.5625 -2.5625,-2.5625 z m 19,0 c -1.42005,0 -2.5625,1.14245 -2.5625,2.5625 0,1.42005 1.14245,2.53125 2.5625,2.53125 1.42005,0 2.5625,-1.1112 2.5625,-2.53125 0,-1.42005 -1.14245,-2.5625 -2.5625,-2.5625 z"
       id="path4048"
       inkscape:connector-curvature="0" />
    <path
       style="color:#000000;fill:#ffffff;fill-opacity:0.7962963;fill-rule:evenodd;stroke:none;stroke-width:1px;marker:none;visibility:visible;display:inline;overflow:visible;enable-background:accumulate"
       d="m 396,535.65625 -13.5,3.125 0,-1.25 -4,0.9375 0,1.21875 -14.5,3.375 0,1 15.5,-3.59375 0,4.90625 -7.5,0 -2,2 0,13 1,1 19,0 1,-1 0,-13 -2,-2 -7.5,0 0,-5.375 14.5,-3.34375 0,-1 z m -25,12.71875 5,0 0,6.25 -5,0 0,-6.25 z m 6,0 7,0 0,6.25 -7,0 0,-6.25 z m 8,0 5,0 0,6.25 -5,0 0,-6.25 z"
       id="rect3128"
       inkscape:connector-curvature="0" />
    <path
       style="fill:#ffffff;fill-opacity:0.7962963;stroke:none"
       d="m 360.21875,430.375 0,2 39.78125,0 0,-2 -39.78125,0 z m 14.78125,3 -5,10 0,5 1,1 29,0 0,-0.96875 -4.65625,-1.53125 4.65625,0.0625 0,-1.53125 -4.65625,-1.53125 4.65625,0.0625 0,-1.53125 -4.65625,-1.53125 4.65625,0.0625 0,-1.53125 -4.65625,-1.53125 4.65625,0.0625 0,-1.53125 -4.65625,-1.53125 4.65625,0.0625 0,-1.5625 -25,0 z m 0,2 5,0 0,7 -8.5,0 3.5,-7 z m 16.125,0 0,7.09375 -8.125,0 0,-7.03125 8.125,-0.0625 z m -30.90625,15 0,2 39.78125,0 0,-2 -39.78125,0 z"
       id="use3104"
       inkscape:connector-curvature="0" />
  </g>
</svg>
