<?xml version="1.0" encoding="UTF-8" standalone="no"?>
<svg
   xmlns:dc="http://purl.org/dc/elements/1.1/"
   xmlns:cc="http://creativecommons.org/ns#"
   xmlns:rdf="http://www.w3.org/1999/02/22-rdf-syntax-ns#"
   xmlns:svg="http://www.w3.org/2000/svg"
   xmlns="http://www.w3.org/2000/svg"
   xmlns:sodipodi="http://sodipodi.sourceforge.net/DTD/sodipodi-0.dtd"
   xmlns:inkscape="http://www.inkscape.org/namespaces/inkscape"
   width="20"
   height="40"
   viewBox="0 0 20 40"
   id="svg2"
   version="1.1"
   inkscape:version="0.92.0 r"
   sodipodi:docname="trip_via.svg">
  <metadata
     id="metadata12">
    <rdf:RDF>
      <cc:Work
         rdf:about="">
        <dc:format>image/svg+xml</dc:format>
        <dc:type
           rdf:resource="http://purl.org/dc/dcmitype/StillImage" />
        <dc:title></dc:title>
      </cc:Work>
    </rdf:RDF>
  </metadata>
  <defs
     id="defs10" />
  <sodipodi:namedview
     pagecolor="#ffffff"
     bordercolor="#666666"
     borderopacity="1"
     objecttolerance="10"
     gridtolerance="10"
     guidetolerance="10"
     inkscape:pageopacity="0"
     inkscape:pageshadow="2"
     inkscape:window-width="1920"
     inkscape:window-height="1021"
     id="namedview8"
     showgrid="false"
     inkscape:zoom="13.906433"
     inkscape:cx="-2.7521187"
     inkscape:cy="19.599946"
     inkscape:window-x="1440"
     inkscape:window-y="23"
     inkscape:window-maximized="0"
     inkscape:current-layer="svg2" />
  <path
     d="M 9.25,0 V 15.0625 C 6.846072,15.425312 5,17.495382 5,20 c 1e-7,2.504619 1.8460721,4.574688 4.25,4.9375 V 40 h 1.5 V 24.9375 C 13.153929,24.574688 15,22.504619 15,20 15,17.495382 13.153928,15.425312 10.75,15.0625 V 0 Z M 10,16 c 2.209999,0 4,1.790001 4,4 0,2.210001 -1.790001,4 -4,4 -2.2099995,0 -4,-1.789999 -4,-4 0,-2.209999 1.7900004,-4 4,-4 z"
     id="path4"
     inkscape:connector-curvature="0"
     sodipodi:nodetypes="ccsccccscccsssss" />
  <path
     d="M 0,16 H 24 V 40 H 0 Z"
     id="path6"
     inkscape:connector-curvature="0"
     style="fill:none" />
</svg>
