<?xml version="1.0" encoding="UTF-8" standalone="no"?>
<svg
   xmlns:dc="http://purl.org/dc/elements/1.1/"
   xmlns:cc="http://creativecommons.org/ns#"
   xmlns:rdf="http://www.w3.org/1999/02/22-rdf-syntax-ns#"
   xmlns:svg="http://www.w3.org/2000/svg"
   xmlns="http://www.w3.org/2000/svg"
   xmlns:sodipodi="http://sodipodi.sourceforge.net/DTD/sodipodi-0.dtd"
   xmlns:inkscape="http://www.inkscape.org/namespaces/inkscape"
   width="24"
   height="24"
   viewBox="0 0 24 24"
   version="1.1"
   id="svg8"
   sodipodi:docname="product_tram_marker.svg"
   inkscape:version="0.92.2 (5c3e80d, 2017-08-06)">
  <metadata
     id="metadata14">
    <rdf:RDF>
      <cc:Work
         rdf:about="">
        <dc:format>image/svg+xml</dc:format>
        <dc:type
           rdf:resource="http://purl.org/dc/dcmitype/StillImage" />
      </cc:Work>
    </rdf:RDF>
  </metadata>
  <defs
     id="defs12" />
  <sodipodi:namedview
     pagecolor="#ffffff"
     bordercolor="#666666"
     borderopacity="1"
     objecttolerance="10"
     gridtolerance="10"
     guidetolerance="10"
     inkscape:pageopacity="0"
     inkscape:pageshadow="2"
     inkscape:window-width="1920"
     inkscape:window-height="1021"
     id="namedview10"
     showgrid="false"
     inkscape:zoom="19.666667"
     inkscape:cx="19.661881"
     inkscape:cy="17.723985"
     inkscape:window-x="1443"
     inkscape:window-y="23"
     inkscape:window-maximized="0"
     inkscape:current-layer="svg8" />
  <g
     id="g823">
    <circle
       r="12"
       cy="12"
       cx="12"
       id="path814"
       style="fill:#f24236;fill-opacity:1;fill-rule:nonzero;stroke:none;stroke-width:1.0818975px;stroke-linecap:butt;stroke-linejoin:miter;stroke-opacity:1" />
    <path
       transform="matrix(1.0333945,0,0,1.0333945,-0.4007339,-0.4007339)"
       d="m 12,1.3554688 c -2.7867178,0 -5.5568367,1.1466804 -7.5273438,3.1171874 C 2.5021492,6.4431633 1.3554687,9.2132822 1.3554688,12 c 0,2.786718 1.1466804,5.556837 3.1171874,7.527344 1.9705071,1.970507 4.740626,3.117187 7.5273438,3.117187 2.786718,0 5.556837,-1.14668 7.527344,-3.117187 1.970507,-1.970507 3.117187,-4.740626 3.117187,-7.527344 0,-2.7867178 -1.14668,-5.5568367 -3.117187,-7.5273438 C 17.556837,2.5021492 14.786718,1.3554687 12,1.3554688 Z m 0.511719,1.1347656 c 2.683201,0.1470424 5.271605,1.4553941 6.939453,3.5859375 0.0011,0.00146 0.0028,0.00244 0.0039,0.00391 3.15977,3.5535294 2.494237,8.2967469 -0.01172,11.5800779 -2.506162,3.283603 -6.90817,5.182077 -11.1582028,3.101563 C 3.7168732,19.123331 2.0537187,14.56044 2.7558594,10.443359 3.4589663,6.3206132 6.5459336,2.5497274 11.378906,2.5 c 0.377496,-0.026295 0.755962,-0.030409 1.132813,-0.00977 z"
       id="path814-3"
       style="fill:#ffffff;fill-opacity:1;fill-rule:nonzero;stroke:none;stroke-width:0.99173939px;stroke-linecap:butt;stroke-linejoin:miter;stroke-opacity:1"
       inkscape:original="M 12 1 A 11 11 0 0 0 1 12 A 11 11 0 0 0 12 23 A 11 11 0 0 0 23 12 A 11 11 0 0 0 12 1 z M 12.492188 2.8457031 C 15.074238 2.9872023 17.57498 4.2512957 19.175781 6.2988281 C 25.28913 13.139581 16.607925 24.466967 8.421875 20.435547 C -0.40139915 17.292209 2.081598 2.9511709 11.382812 2.8554688 C 11.752574 2.8288437 12.123323 2.8254971 12.492188 2.8457031 z "
       inkscape:radius="-0.35552219"
       sodipodi:type="inkscape:offset" />
  </g>
  <path
     inkscape:connector-curvature="0"
     style="fill:#ffffff;fill-opacity:1;stroke-width:0.78571433"
     id="path2"
     d="M 17.336488,15.841587 V 9.2101587 c 0,-2.1921429 -2.050715,-2.6714289 -4.722142,-2.7421432 L 13.211488,5.281587 H 15.76506 V 4.1030155 H 7.9079172 V 5.281587 H 11.64006 L 11.042917,6.4758727 C 8.5836314,6.546587 6.3364886,7.0337293 6.3364886,9.2101587 v 6.6314283 c 0,1.139287 0.935,2.09 2.035,2.333572 l -1.2492857,1.249286 v 0.392857 h 1.7521429 l 1.5714282,-1.571428 h 2.962142 l 1.571429,1.571428 h 1.571428 v -0.392857 l -1.17857,-1.178571 h -0.06285 c 1.327854,0 2.027139,-1.076429 2.027139,-2.404287 z m -5.499999,1.225715 c -0.652143,0 -1.178572,-0.526428 -1.178572,-1.178572 0,-0.652143 0.526429,-1.178571 1.178572,-1.178571 0.652142,0 1.178571,0.526428 1.178571,1.178571 0,0.652144 -0.526429,1.178572 -1.178571,1.178572 z M 15.76506,13.531587 H 7.9079172 V 9.6030157 H 15.76506 Z" />
</svg>
