<?xml version="1.0" encoding="UTF-8" standalone="no"?>
<svg
   xmlns:dc="http://purl.org/dc/elements/1.1/"
   xmlns:cc="http://creativecommons.org/ns#"
   xmlns:rdf="http://www.w3.org/1999/02/22-rdf-syntax-ns#"
   xmlns:svg="http://www.w3.org/2000/svg"
   xmlns="http://www.w3.org/2000/svg"
   xmlns:sodipodi="http://sodipodi.sourceforge.net/DTD/sodipodi-0.dtd"
   xmlns:inkscape="http://www.inkscape.org/namespaces/inkscape"
   width="24"
   height="24"
   viewBox="0 0 24 24"
   version="1.1"
   id="svg6385"
   sodipodi:docname="product_regional_train_marker.svg"
   inkscape:version="0.92.2 (5c3e80d, 2017-08-06)">
  <metadata
     id="metadata6391">
    <rdf:RDF>
      <cc:Work
         rdf:about="">
        <dc:format>image/svg+xml</dc:format>
        <dc:type
           rdf:resource="http://purl.org/dc/dcmitype/StillImage" />
      </cc:Work>
    </rdf:RDF>
  </metadata>
  <defs
     id="defs6389" />
  <sodipodi:namedview
     pagecolor="#ffffff"
     bordercolor="#666666"
     borderopacity="1"
     objecttolerance="10"
     gridtolerance="10"
     guidetolerance="10"
     inkscape:pageopacity="0"
     inkscape:pageshadow="2"
     inkscape:window-width="1920"
     inkscape:window-height="1021"
     id="namedview6387"
     showgrid="false"
     inkscape:zoom="13.906433"
     inkscape:cx="24.074026"
     inkscape:cy="14.792978"
     inkscape:window-x="1443"
     inkscape:window-y="23"
     inkscape:window-maximized="0"
     inkscape:current-layer="svg6385" />
  <g
     id="g823">
    <circle
       r="12"
       cy="12"
       cx="12"
       id="path814"
       style="fill:#f24236;fill-opacity:1;fill-rule:nonzero;stroke:none;stroke-width:1.0818975px;stroke-linecap:butt;stroke-linejoin:miter;stroke-opacity:1" />
    <path
       transform="matrix(1.0333945,0,0,1.0333945,-0.4007339,-0.4007339)"
       d="m 12,1.3554688 c -2.7867178,0 -5.5568367,1.1466804 -7.5273438,3.1171874 C 2.5021492,6.4431633 1.3554687,9.2132822 1.3554688,12 c 0,2.786718 1.1466804,5.556837 3.1171874,7.527344 1.9705071,1.970507 4.740626,3.117187 7.5273438,3.117187 2.786718,0 5.556837,-1.14668 7.527344,-3.117187 1.970507,-1.970507 3.117187,-4.740626 3.117187,-7.527344 0,-2.7867178 -1.14668,-5.5568367 -3.117187,-7.5273438 C 17.556837,2.5021492 14.786718,1.3554687 12,1.3554688 Z m 0.511719,1.1347656 c 2.683201,0.1470424 5.271605,1.4553941 6.939453,3.5859375 0.0011,0.00146 0.0028,0.00244 0.0039,0.00391 3.15977,3.5535294 2.494237,8.2967469 -0.01172,11.5800779 -2.506162,3.283603 -6.90817,5.182077 -11.1582028,3.101563 C 3.7168732,19.123331 2.0537187,14.56044 2.7558594,10.443359 3.4589663,6.3206132 6.5459336,2.5497274 11.378906,2.5 c 0.377496,-0.026295 0.755962,-0.030409 1.132813,-0.00977 z"
       id="path814-3"
       style="fill:#ffffff;fill-opacity:1;fill-rule:nonzero;stroke:none;stroke-width:0.99173939px;stroke-linecap:butt;stroke-linejoin:miter;stroke-opacity:1"
       inkscape:original="M 12 1 A 11 11 0 0 0 1 12 A 11 11 0 0 0 12 23 A 11 11 0 0 0 23 12 A 11 11 0 0 0 12 1 z M 12.492188 2.8457031 C 15.074238 2.9872023 17.57498 4.2512957 19.175781 6.2988281 C 25.28913 13.139581 16.607925 24.466967 8.421875 20.435547 C -0.40139915 17.292209 2.081598 2.9511709 11.382812 2.8554688 C 11.752574 2.8288437 12.123323 2.8254971 12.492188 2.8457031 z "
       inkscape:radius="-0.35552219"
       sodipodi:type="inkscape:offset" />
  </g>
  <path
     d="m 6.5074767,14.93828 c 0,1.326875 1.079375,2.40625 2.4062501,2.40625 l -1.0312501,1.03125 v 0.34375 h 8.2499993 v -0.34375 l -1.03125,-1.03125 c 1.326875,0 2.40625,-1.079375 2.40625,-2.40625 V 7.7195297 c 0,-2.4062501 -2.46125,-2.7500001 -5.5,-2.7500001 -3.0387492,0 -5.4999993,0.34375 -5.4999993,2.7500001 z m 5.4999993,1.03125 c -0.75625,0 -1.375,-0.61875 -1.375,-1.375 0,-0.75625 0.61875,-1.375 1.375,-1.375 0.75625,0 1.375,0.61875 1.375,1.375 0,0.75625 -0.61875,1.375 -1.375,1.375 z m 4.125,-4.8125 H 7.8824767 V 7.7195297 h 8.2499993 z"
     id="path6383"
     style="fill:#ffffff;fill-opacity:1;stroke-width:0.6875"
     inkscape:connector-curvature="0" />
</svg>
