<?xml version="1.0" encoding="UTF-8" standalone="no"?>
<!-- Created with Inkscape (http://www.inkscape.org/) -->

<svg
   xmlns:dc="http://purl.org/dc/elements/1.1/"
   xmlns:cc="http://creativecommons.org/ns#"
   xmlns:rdf="http://www.w3.org/1999/02/22-rdf-syntax-ns#"
   xmlns:svg="http://www.w3.org/2000/svg"
   xmlns="http://www.w3.org/2000/svg"
   xmlns:sodipodi="http://sodipodi.sourceforge.net/DTD/sodipodi-0.dtd"
   xmlns:inkscape="http://www.inkscape.org/namespaces/inkscape"
   version="1.1"
   width="619.77002"
   height="619.77002"
   id="svg2"
   xml:space="preserve"
   inkscape:version="0.91 r13725"
   sodipodi:docname="network_rmv_logo.svg"
   inkscape:export-filename="J:\privat\Transportr\res\drawable-xhdpi\network_rmv_logo.png"
   inkscape:export-xdpi="13.94"
   inkscape:export-ydpi="13.94"><sodipodi:namedview
     pagecolor="#ffffff"
     bordercolor="#666666"
     borderopacity="1"
     objecttolerance="10"
     gridtolerance="10"
     guidetolerance="10"
     inkscape:pageopacity="0"
     inkscape:pageshadow="2"
     inkscape:window-width="1280"
     inkscape:window-height="744"
     id="namedview96"
     showgrid="false"
     inkscape:zoom="0.85838292"
     inkscape:cx="309.88501"
     inkscape:cy="309.88501"
     inkscape:window-x="0"
     inkscape:window-y="0"
     inkscape:window-maximized="1"
     inkscape:current-layer="svg2" /><metadata
     id="metadata8"><rdf:RDF><cc:Work
         rdf:about=""><dc:format>image/svg+xml</dc:format><dc:type
           rdf:resource="http://purl.org/dc/dcmitype/StillImage" /><dc:title></dc:title></cc:Work></rdf:RDF></metadata><defs
     id="defs6"><clipPath
       id="clipPath16"><path
         d="m 0.014984,595.28 841.874996,0 0,-595.276 -841.874996,0 0,595.276 z"
         id="path18"
         inkscape:connector-curvature="0" /></clipPath><clipPath
       id="clipPath490"><path
         d="m 0.014984,561.58 841.874996,0 0,-561.576 -841.874996,0 0,561.576 z"
         id="path492"
         inkscape:connector-curvature="0" /></clipPath><clipPath
       id="clipPath504"><path
         d="m 0.014984,561.58 841.874996,0 0,-561.576 -841.874996,0 0,561.576 z"
         id="path506"
         inkscape:connector-curvature="0" /></clipPath><clipPath
       id="clipPath520"><path
         d="m 0.014984,561.58 841.874996,0 0,-561.576 -841.874996,0 0,561.576 z"
         id="path522"
         inkscape:connector-curvature="0" /></clipPath><clipPath
       id="clipPath534"><path
         d="m 0.014984,561.58 841.874996,0 0,-561.576 -841.874996,0 0,561.576 z"
         id="path536"
         inkscape:connector-curvature="0" /></clipPath><clipPath
       id="clipPath548"><path
         d="m 0.014984,561.58 841.874996,0 0,-561.576 -841.874996,0 0,561.576 z"
         id="path550"
         inkscape:connector-curvature="0" /></clipPath><clipPath
       id="clipPath562"><path
         d="m 0.014984,561.58 841.874996,0 0,-561.576 -841.874996,0 0,561.576 z"
         id="path564"
         inkscape:connector-curvature="0" /></clipPath><clipPath
       id="clipPath576"><path
         d="m 0.014984,561.58 841.874996,0 0,-561.576 -841.874996,0 0,561.576 z"
         id="path578"
         inkscape:connector-curvature="0" /></clipPath><clipPath
       id="clipPath590"><path
         d="m 0.014984,561.58 841.874996,0 0,-561.576 -841.874996,0 0,561.576 z"
         id="path592"
         inkscape:connector-curvature="0" /></clipPath><clipPath
       id="clipPath604"><path
         d="m 0.014984,561.58 841.874996,0 0,-561.576 -841.874996,0 0,561.576 z"
         id="path606"
         inkscape:connector-curvature="0" /></clipPath><clipPath
       id="clipPath618"><path
         d="m 0.014984,561.58 841.874996,0 0,-561.576 -841.874996,0 0,561.576 z"
         id="path620"
         inkscape:connector-curvature="0" /></clipPath><clipPath
       id="clipPath632"><path
         d="m 0.014984,561.58 841.874996,0 0,-561.576 -841.874996,0 0,561.576 z"
         id="path634"
         inkscape:connector-curvature="0" /></clipPath><clipPath
       id="clipPath646"><path
         d="m 0.014984,561.58 841.874996,0 0,-561.576 -841.874996,0 0,561.576 z"
         id="path648"
         inkscape:connector-curvature="0" /></clipPath><clipPath
       id="clipPath660"><path
         d="m 0.014984,561.58 841.874996,0 0,-561.576 -841.874996,0 0,561.576 z"
         id="path662"
         inkscape:connector-curvature="0" /></clipPath><clipPath
       id="clipPath674"><path
         d="m 0.014984,561.58 841.874996,0 0,-561.576 -841.874996,0 0,561.576 z"
         id="path676"
         inkscape:connector-curvature="0" /></clipPath><clipPath
       id="clipPath688"><path
         d="m 0.014984,561.58 841.874996,0 0,-561.576 -841.874996,0 0,561.576 z"
         id="path690"
         inkscape:connector-curvature="0" /></clipPath><clipPath
       id="clipPath702"><path
         d="m 0.014984,561.58 841.874996,0 0,-561.576 -841.874996,0 0,561.576 z"
         id="path704"
         inkscape:connector-curvature="0" /></clipPath><clipPath
       id="clipPath716"><path
         d="m 0.014984,561.58 841.874996,0 0,-561.576 -841.874996,0 0,561.576 z"
         id="path718"
         inkscape:connector-curvature="0" /></clipPath><clipPath
       id="clipPath730"><path
         d="m 0.014984,561.58 841.874996,0 0,-561.576 -841.874996,0 0,561.576 z"
         id="path732"
         inkscape:connector-curvature="0" /></clipPath><clipPath
       id="clipPath1566"><path
         d="m 0.014984,561.58 841.874996,0 0,-561.576 -841.874996,0 0,561.576 z"
         id="path1568"
         inkscape:connector-curvature="0" /></clipPath><clipPath
       id="clipPath50506"><path
         d="m 0.014984,595.28 841.874996,0 0,-57.246 -841.874996,0 0,57.246 z"
         id="path50508"
         inkscape:connector-curvature="0" /></clipPath><clipPath
       id="clipPath50562"><path
         d="m 32.769,33.511 -14.256,0 0,14.257 14.256,0 0,-14.257 z"
         id="path50564"
         inkscape:connector-curvature="0" /></clipPath><clipPath
       id="clipPath50568"><path
         d="m 18.513,40.639 c 0,-3.938 3.19,-7.128 7.126,-7.128 3.939,0 7.13,3.19 7.13,7.128 0,3.938 -3.191,7.129 -7.13,7.129 -3.936,0 -7.126,-3.191 -7.126,-7.129"
         id="path50570"
         inkscape:connector-curvature="0" /></clipPath><linearGradient
       x1="0"
       y1="0"
       x2="1"
       y2="0"
       id="linearGradient50580"
       gradientUnits="userSpaceOnUse"
       gradientTransform="matrix(0,14.257,-14.257,0,25.641,33.511)"
       spreadMethod="pad"><stop
         id="stop50582"
         style="stop-color:#fba86f;stop-opacity:1"
         offset="0" /><stop
         id="stop50584"
         style="stop-color:#f78f70;stop-opacity:1"
         offset="0.56934297" /><stop
         id="stop50586"
         style="stop-color:#f78f70;stop-opacity:1"
         offset="0.56934297" /><stop
         id="stop50588"
         style="stop-color:#d8816b;stop-opacity:1"
         offset="1" /></linearGradient><clipPath
       id="clipPath50596"><path
         d="m 31.949,48.555 -12.927,0 0,-12.927 12.927,0 0,12.927 z"
         id="path50598"
         inkscape:connector-curvature="0" /></clipPath><clipPath
       id="clipPath50602"><path
         d="m 19.022,35.628 12.927,0 0,12.927 -12.927,0 0,-12.927 z"
         id="path50604"
         inkscape:connector-curvature="0" /></clipPath><clipPath
       id="clipPath50608"><path
         d="m 31.164,42.089 c 0,2.996 -2.43,5.429 -5.426,5.429 -2.997,0 -5.426,-2.433 -5.426,-5.429 0,-2.999 2.429,-5.427 5.426,-5.427 2.996,0 5.426,2.428 5.426,5.427"
         id="path50610"
         inkscape:connector-curvature="0" /></clipPath><clipPath
       id="clipPath50614"><path
         d="m 25.738,36.662 c -2.997,0 -5.426,2.428 -5.426,5.427 0,2.996 2.429,5.429 5.426,5.429 2.996,0 5.426,-2.433 5.426,-5.429 0,-2.999 -2.43,-5.427 -5.426,-5.427"
         id="path50616"
         inkscape:connector-curvature="0" /></clipPath><clipPath
       id="clipPath50634"><path
         d="m 32.769,16.273 -14.256,0 0,14.257 14.256,0 0,-14.257 z"
         id="path50636"
         inkscape:connector-curvature="0" /></clipPath><clipPath
       id="clipPath50640"><path
         d="m 18.513,23.402 c 0,-3.937 3.19,-7.129 7.128,-7.129 3.937,0 7.128,3.192 7.128,7.129 0,3.937 -3.191,7.128 -7.128,7.128 -3.938,0 -7.128,-3.191 -7.128,-7.128"
         id="path50642"
         inkscape:connector-curvature="0" /></clipPath><linearGradient
       x1="0"
       y1="0"
       x2="1"
       y2="0"
       id="linearGradient50652"
       gradientUnits="userSpaceOnUse"
       gradientTransform="matrix(0,14.257,-14.257,0,25.641,16.273)"
       spreadMethod="pad"><stop
         id="stop50654"
         style="stop-color:#fba86f;stop-opacity:1"
         offset="0" /><stop
         id="stop50656"
         style="stop-color:#f78f70;stop-opacity:1"
         offset="0.56934297" /><stop
         id="stop50658"
         style="stop-color:#f78f70;stop-opacity:1"
         offset="0.56934297" /><stop
         id="stop50660"
         style="stop-color:#d8816b;stop-opacity:1"
         offset="1" /></linearGradient><clipPath
       id="clipPath50668"><path
         d="m 31.949,31.613 -12.927,0 0,-12.927 12.927,0 0,12.927 z"
         id="path50670"
         inkscape:connector-curvature="0" /></clipPath><clipPath
       id="clipPath50674"><path
         d="m 19.022,18.686 12.927,0 0,12.927 -12.927,0 0,-12.927 z"
         id="path50676"
         inkscape:connector-curvature="0" /></clipPath><clipPath
       id="clipPath50680"><path
         d="m 31.164,24.853 c 0,2.996 -2.43,5.429 -5.426,5.429 -2.997,0 -5.426,-2.433 -5.426,-5.429 0,-2.999 2.429,-5.427 5.426,-5.427 2.996,0 5.426,2.428 5.426,5.427"
         id="path50682"
         inkscape:connector-curvature="0" /></clipPath><clipPath
       id="clipPath50686"><path
         d="m 25.738,19.426 c -2.997,0 -5.426,2.428 -5.426,5.427 0,2.996 2.429,5.429 5.426,5.429 2.996,0 5.426,-2.433 5.426,-5.429 0,-2.999 -2.43,-5.427 -5.426,-5.427"
         id="path50688"
         inkscape:connector-curvature="0" /></clipPath><clipPath
       id="clipPath50802"><path
         d="m 19.654,118.59 c 0,0 -6.003,0 -6.003,-6.004 l 0,-37.715 c 0,0 0,-6.003 6.003,-6.003 l 90.543,0 c 0,0 6.004,0 6.004,6.003 l 0,37.715 c 0,0 0,6.004 -6.004,6.004 l -90.543,0"
         id="path50804"
         inkscape:connector-curvature="0" /></clipPath><clipPath
       id="clipPath51220"><path
         d="m 154.927,81.429 c 0,0 -6.004,0 -6.004,-6.002 l 0,-37.715 c 0,0 0,-6.003 6.004,-6.003 l 69.332,0 c 0,0 6.004,0 6.004,6.003 l 0,37.715 c 0,0 0,6.002 -6.004,6.002 l -69.332,0"
         id="path51222"
         inkscape:connector-curvature="0" /></clipPath></defs><rect
     style="fill:#ffffff;fill-rule:evenodd;stroke:none;stroke-width:1px;stroke-linecap:butt;stroke-linejoin:miter;stroke-opacity:1"
     id="rect3334"
     width="619.77002"
     height="619.77002"
     x="0"
     y="-4.687501e-07" /><g
     transform="matrix(1.25,0,0,-1.25,-16.48125,1090.1738)"
     id="g10"><g
       transform="matrix(8,0,0,8,509.001,598.323)"
       id="g50518"><path
         d="m 0,0 c 0,1.929 -3.771,7.928 -5.169,9.221 -0.158,0.159 -0.37,0.284 -0.566,0.39 l -9.359,-12.744 10.209,0 C -2.708,-3.133 0,-2.124 0,0 m -11.538,9.611 -5.917,0 -3.556,-12.744 0.886,0 3.565,12.744 -0.077,-7.983 5.099,7.983 z m -12.677,0 -3.859,0 0.195,-7.046 3.664,7.046 z m 0.919,-3.718 -4.97,-9.026 2.299,0 2.671,9.026 z m -7.538,-9.026 -0.141,8.94 -2.636,-8.94 2.777,0 z m -10.137,2.637 c 0.213,0.941 0.054,1.576 -0.867,1.576 l -3.309,0 -1.238,-4.213 4.9,0 c -0.07,0.371 0.196,1.187 0.514,2.637 z m -6.425,10.107 -0.725,0 -3.699,-12.744 0.727,0 3.697,12.744 z m -1.185,0 -0.671,0 -3.7,-12.744 0.673,0 3.698,12.744 z m -1.186,0 -0.603,0 -3.714,-12.744 0.621,0 3.696,12.744 z m -1.186,0 -0.548,0 -3.697,-12.744 0.549,0 3.696,12.744 z m -1.184,0 -0.496,0 -3.698,-12.744 0.496,0 3.698,12.744 z m -1.186,0 -0.441,0 -3.7,-12.744 0.443,0 3.698,12.744 z m -1.185,0 -0.39,0 -3.7,-12.744 0.391,0 3.699,12.744 z m -1.187,0 -0.319,0 -3.698,-12.744 0.319,0 3.698,12.744 z m -1.185,0 -0.265,0 -3.698,-12.744 0.246,0 3.717,12.744 z m -1.186,0 -0.212,0 -3.699,-12.744 0.195,0 3.716,12.744 z m 14.476,-3.132 -0.672,-2.304 3.362,0 c 0.971,0 1.486,0.322 1.715,1.117 0.267,0.957 -0.282,1.187 -1.132,1.187 l -3.273,0"
         id="path50520"
         style="fill:#646a8c;fill-opacity:1;fill-rule:nonzero;stroke:none"
         inkscape:connector-curvature="0" /></g><g
       transform="matrix(8,0,0,8,327.881,675.203)"
       id="g50522"><path
         d="M 0,0 -1.576,0 -5.239,-7.045 -5.433,0 -13.692,0 c 2.756,0 2.387,-2.303 2.387,-2.815 0,-1.716 -0.891,-3.044 -2.66,-3.506 0.125,-0.159 0.675,-0.689 0.746,-0.865 0.264,-0.39 0.073,-0.952 0.073,-1.415 0,-1.046 -0.549,-2.07 -0.549,-3.096 0,-0.353 0.123,-0.732 0.284,-1.047 l 2.439,0 2.636,8.941 0.143,-8.941 2.568,0 4.97,9.028 -2.673,-9.028 4.957,0 L 5.184,0 0,0"
         id="path50524"
         style="fill:#b8dece;fill-opacity:1;fill-rule:nonzero;stroke:none"
         inkscape:connector-curvature="0" /></g><g
       transform="matrix(8,0,0,8,416.697,675.203)"
       id="g50526"><path
         d="M 0,0 -5.1,-7.983 -5.022,0 l -3.565,-12.744 5.031,0 L 5.803,0 0,0"
         id="path50528"
         style="fill:#ffffff;fill-opacity:1;fill-rule:nonzero;stroke:none"
         inkscape:connector-curvature="0" /></g><g
       transform="matrix(8,0,0,8,243.305,655.787)"
       id="g50530"><path
         d="m 0,0 c 0,2.365 -2.743,2.427 -2.743,2.427 -0.13,0 -0.25,0 -0.377,0 0,0 2.308,-0.179 2.308,-2.427 0,-1.893 -0.867,-3.468 -2.833,-3.871 0.888,-0.569 0.958,-1.525 0.958,-1.789 0,-1.205 -0.692,-2.354 -0.692,-3.557 0,-0.372 0.071,-0.762 0.25,-1.1 l 0.811,0 c -0.18,0.338 -0.249,0.728 -0.249,1.1 0,1.203 0.691,2.352 0.691,3.557 0,0.264 -0.069,1.22 -0.958,1.789 C -0.868,-3.468 0,-1.893 0,0"
         id="path50532"
         style="fill:#646a8c;fill-opacity:1;fill-rule:nonzero;stroke:none"
         inkscape:connector-curvature="0" /></g><g
       transform="matrix(8,0,0,8,218.345,675.203)"
       id="g50534"><path
         d="m 0,0 c -10.691,0 -11.065,0 -11.065,0 l -3.696,-12.744 4.707,0 1.238,4.213 3.31,0 c 0.92,0 1.08,-0.635 0.867,-1.575 -0.318,-1.45 -0.585,-2.266 -0.514,-2.638 l 5.143,0 c -0.179,0.338 -0.248,0.728 -0.248,1.1 0,1.203 0.69,2.352 0.69,3.557 0,0.264 -0.071,1.22 -0.957,1.789 1.965,0.403 2.833,1.978 2.833,3.871 C 2.308,-0.179 0,0 0,0 Z m -4.569,-5.436 -3.362,0 0.673,2.305 3.272,0 c 0.85,0 1.399,-0.231 1.133,-1.188 -0.229,-0.795 -0.744,-1.117 -1.716,-1.117"
         id="path50536"
         style="fill:#ffffff;fill-opacity:1;fill-rule:nonzero;stroke:none"
         inkscape:connector-curvature="0" /></g></g></svg>