<?xml version="1.0" encoding="UTF-8" standalone="no"?>
<!-- Created with Inkscape (http://www.inkscape.org/) -->

<svg
   xmlns:dc="http://purl.org/dc/elements/1.1/"
   xmlns:cc="http://creativecommons.org/ns#"
   xmlns:rdf="http://www.w3.org/1999/02/22-rdf-syntax-ns#"
   xmlns:svg="http://www.w3.org/2000/svg"
   xmlns="http://www.w3.org/2000/svg"
   xmlns:sodipodi="http://sodipodi.sourceforge.net/DTD/sodipodi-0.dtd"
   xmlns:inkscape="http://www.inkscape.org/namespaces/inkscape"
   width="64"
   height="64"
   id="svg3470"
   version="1.1"
   inkscape:version="0.91 r13725"
   viewBox="0 0 64 64"
   sodipodi:docname="network_zvv_logo.svg">
  <defs
     id="defs3472" />
  <sodipodi:namedview
     id="base"
     pagecolor="#ffffff"
     bordercolor="#666666"
     borderopacity="1.0"
     inkscape:pageopacity="0.0"
     inkscape:pageshadow="2"
     inkscape:zoom="3"
     inkscape:cx="27.833333"
     inkscape:cy="52"
     inkscape:current-layer="layer1"
     showgrid="true"
     inkscape:document-units="px"
     inkscape:grid-bbox="true"
     inkscape:window-width="1366"
     inkscape:window-height="744"
     inkscape:window-x="0"
     inkscape:window-y="24"
     inkscape:window-maximized="1">
    <sodipodi:guide
       position="0,0"
       orientation="0,64"
       id="guide3582" />
    <sodipodi:guide
       position="64,0"
       orientation="-64,0"
       id="guide3584" />
    <sodipodi:guide
       position="64,64"
       orientation="0,-64"
       id="guide3586" />
    <sodipodi:guide
       position="0,64"
       orientation="64,0"
       id="guide3588" />
  </sodipodi:namedview>
  <metadata
     id="metadata3475">
    <rdf:RDF>
      <cc:Work
         rdf:about="">
        <dc:format>image/svg+xml</dc:format>
        <dc:type
           rdf:resource="http://purl.org/dc/dcmitype/StillImage" />
        <dc:title />
      </cc:Work>
    </rdf:RDF>
  </metadata>
  <g
     id="layer1"
     inkscape:label="Layer 1"
     inkscape:groupmode="layer">
    <g
       id="layer1-6"
       transform="matrix(0.04792561,0,0,0.06460977,11.078674,10.259404)">
      <g
         id="layer1-3"
         transform="matrix(3.3046143,0,0,2.4512647,-545.40505,-568.08911)">
        <g
           id="g42113"
           transform="matrix(0.9099307,0,0,0.9099307,-157.82249,121.63117)">
          <path
             style="fill:#ed1c24;fill-opacity:1;fill-rule:nonzero;stroke:none"
             id="path28212"
             d="m 285.17782,236.22471 -7.22907,-12.84792 132.32889,0 -12.86822,12.8513 -112.2316,-0.003"
             inkscape:connector-curvature="0" />
          <path
             style="fill:#009a68;fill-opacity:1;fill-rule:nonzero;stroke:none"
             id="path28216"
             d="m 478.49881,163.88325 14.2112,3.98157 -104.72175,104.56953 -9.04226,-9.08286 99.55281,-99.46824"
             inkscape:connector-curvature="0" />
          <path
             style="fill:#2967ba;fill-opacity:1;fill-rule:nonzero;stroke:none"
             id="path28220"
             d="m 472.68378,365.69175 -3.98834,14.1909 -137.65005,-137.55872 18.20968,0 123.42871,123.36782"
             inkscape:connector-curvature="0" />
          <path
             style="fill:#848282;fill-opacity:1;fill-rule:evenodd;stroke:none"
             id="path28224"
             d="m 436.86655,196.8217 c -10.76411,-6.59987 -23.42936,-10.40553 -36.98768,-10.40553 -24.29875,0 -45.73564,12.22887 -58.48208,30.85802 l -15.06366,0 c 14.16045,-26.03751 41.78789,-43.71271 73.54574,-43.71271 17.12718,0 33.0467,5.13849 46.30395,13.95748 l -9.31627,9.30274 z m -2.46607,121.97072 c 21.63309,-12.09018 36.25361,-35.19479 36.25361,-61.70928 0,-16.43033 -5.61547,-31.5515 -15.03661,-43.55373 l 9.15728,-9.14374 c 11.72483,14.37357 18.75093,32.71857 18.75093,52.69747 0,30.04614 -15.8823,56.38135 -39.72099,71.09658 l -9.40422,-9.3873 z M 316.23543,257.08314 c 0,-5.03363 0.44653,-9.96577 1.30238,-14.75922 l 13.11517,0 c -1.01485,4.763 -1.54595,9.69853 -1.54595,14.75922 0,39.03428 31.68681,70.67373 70.77184,70.67373 2.57094,0 5.11143,-0.13531 7.61133,-0.40594 l 11.16328,11.14637 c -6.03494,1.38019 -12.3202,2.11426 -18.77461,2.11426 -46.1957,0 -83.64344,-37.397 -83.64344,-83.52842"
             inkscape:connector-curvature="0" />
          <path
             style="fill:#848282;fill-opacity:1;fill-rule:nonzero;stroke:none"
             id="path28228"
             d="m 549.07788,290.4343 c 0,0 -4.52959,0.13193 -6.40705,0.18605 0.9641,-1.32268 2.58109,-3.60269 3.72448,-5.58502 l 30.29986,-51.06018 0,-10.59836 -46.76401,0 -3.28471,11.97854 26.47389,0 c 2.9532,0 5.48354,-0.17929 7.01257,-0.3146 -1.02161,1.41064 -2.77052,3.90039 -4.32323,6.48486 l -30.41826,50.50878 0,10.26684 48.54337,0 3.66697,-11.86691 -28.52388,0"
             inkscape:connector-curvature="0" />
          <path
             style="fill:#848282;fill-opacity:1;fill-rule:nonzero;stroke:none"
             id="path28232"
             d="m 650.66036,223.37341 -13.95749,0 -14.41078,43.73978 c -2.29355,6.93476 -3.52151,11.35948 -4.15071,13.8357 -0.55817,-2.598 -1.64743,-7.11405 -3.57226,-13.15576 l -14.18413,-44.41972 -15.55756,0 26.61259,79.2627 12.96633,0 27.18428,-79.2627 -0.93027,0"
             inkscape:connector-curvature="0" />
          <path
             style="fill:#848282;fill-opacity:1;fill-rule:nonzero;stroke:none"
             id="path28236"
             d="m 721.12436,223.37341 -13.95749,0 -14.41078,43.73978 c -2.29355,6.93476 -3.52151,11.35948 -4.1541,13.8357 -0.55478,-2.598 -1.64404,-7.11405 -3.56887,-13.15576 l -14.18413,-44.41972 -15.55756,0 26.60921,79.2627 12.96632,0 27.18429,-79.2627 -0.92689,0"
             inkscape:connector-curvature="0" />
        </g>
      </g>
    </g>
  </g>
</svg>
