<?xml version="1.0" encoding="UTF-8" standalone="no"?>
<svg
   xmlns:dc="http://purl.org/dc/elements/1.1/"
   xmlns:cc="http://creativecommons.org/ns#"
   xmlns:rdf="http://www.w3.org/1999/02/22-rdf-syntax-ns#"
   xmlns:svg="http://www.w3.org/2000/svg"
   xmlns="http://www.w3.org/2000/svg"
   xmlns:sodipodi="http://sodipodi.sourceforge.net/DTD/sodipodi-0.dtd"
   xmlns:inkscape="http://www.inkscape.org/namespaces/inkscape"
   width="500"
   height="500"
   id="svg4199"
   version="1.1"
   inkscape:version="0.91 r13725"
   sodipodi:docname="ontario.svg"
   inkscape:export-filename="../../res/drawable-xhdpi/network_ontario_logo.png"
   inkscape:export-xdpi="17.280001"
   inkscape:export-ydpi="17.280001">
  <metadata
     id="metadata4211">
    <rdf:RDF>
      <cc:Work
         rdf:about="">
        <dc:format>image/svg+xml</dc:format>
        <dc:type
           rdf:resource="http://purl.org/dc/dcmitype/StillImage" />
        <dc:title></dc:title>
      </cc:Work>
    </rdf:RDF>
  </metadata>
  <defs
     id="defs4209" />
  <sodipodi:namedview
     pagecolor="#ffffff"
     bordercolor="#666666"
     borderopacity="1"
     objecttolerance="10"
     gridtolerance="10"
     guidetolerance="10"
     inkscape:pageopacity="0"
     inkscape:pageshadow="2"
     inkscape:window-width="1920"
     inkscape:window-height="1012"
     id="namedview4207"
     showgrid="false"
     fit-margin-top="0"
     fit-margin-left="0"
     fit-margin-right="0"
     fit-margin-bottom="0"
     inkscape:zoom="0.745"
     inkscape:cx="312.42933"
     inkscape:cy="122.86591"
     inkscape:window-x="0"
     inkscape:window-y="0"
     inkscape:window-maximized="1"
     inkscape:current-layer="svg4199" />
  <rect
     width="500"
     height="500"
     x="0"
     id="rect4203"
     y="0"
     style="fill:#ffffff" />
  <path
     d="m 249.99228,46.875 -34.11312,63.62529 c -3.87086,6.91501 -10.80627,6.27363 -17.74169,2.41138 l -24.69699,-12.78858 18.40705,97.72711 c 3.87086,17.85419 -8.54859,17.85419 -14.67765,10.13435 l -43.10105,-48.25099 -6.99738,24.503 c -0.80692,3.21777 -4.35481,6.59744 -9.67748,5.79261 L 62.8922,178.57005 77.20744,230.6148 c 3.06451,11.58054 5.4549,16.37528 -3.09375,19.42959 l -19.42619,9.13025 93.82127,76.20838 c 3.7135,2.88151 5.58971,8.067 4.26768,12.7621 l -8.21136,26.94707 c 32.30405,-3.72371 61.24898,-9.32594 93.56939,-12.77619 2.85323,-0.30459 7.62988,4.40408 7.61029,7.71058 l -4.28024,98.72342 15.70639,0 -2.47237,-98.5117 c -0.0197,-3.3065 4.31372,-8.22689 7.16695,-7.9223 32.32041,3.45026 61.26538,9.05248 93.56942,12.77619 l -8.21134,-26.94707 c -1.32203,-4.6951 0.55417,-9.88059 4.26767,-12.7621 l 93.82125,-76.20838 -19.42617,-9.13025 c -8.54867,-3.05431 -6.15828,-7.84905 -3.09377,-19.42959 l 14.31527,-52.04475 -54.5018,11.45912 c -5.32267,0.80483 -8.87056,-2.57484 -9.6775,-5.79261 l -6.99737,-24.503 -43.10103,48.25099 c -6.12908,7.71984 -18.54854,7.71984 -14.67768,-10.13435 l 18.40702,-97.72711 -24.69694,12.78858 c -6.93559,3.86225 -13.87083,4.50363 -17.7417,-2.41138"
     id="path4205"
     inkscape:connector-curvature="0"
     style="fill:#ff0000" />
  <text
     xml:space="preserve"
     style="font-style:normal;font-variant:normal;font-weight:normal;font-stretch:normal;font-size:72px;line-height:125%;font-family:FreeSans;-inkscape-font-specification:FreeSans;letter-spacing:0px;word-spacing:0px;fill:#000000;fill-opacity:1;stroke:none;stroke-width:1px;stroke-linecap:butt;stroke-linejoin:miter;stroke-opacity:1"
     x="323.48993"
     y="481.20807"
     id="text4213"
     sodipodi:linespacing="125%"><tspan
       sodipodi:role="line"
       id="tspan4215"
       x="323.48993"
       y="481.20807"
       style="font-style:normal;font-variant:normal;font-weight:bold;font-stretch:normal;font-size:120px;font-family:Roboto;-inkscape-font-specification:'Roboto Bold'">ON</tspan></text>
</svg>
