<?xml version="1.0" encoding="UTF-8" standalone="no"?>
<!-- Created with Inkscape (http://www.inkscape.org/) -->

<svg
   xmlns:dc="http://purl.org/dc/elements/1.1/"
   xmlns:cc="http://creativecommons.org/ns#"
   xmlns:rdf="http://www.w3.org/1999/02/22-rdf-syntax-ns#"
   xmlns:svg="http://www.w3.org/2000/svg"
   xmlns="http://www.w3.org/2000/svg"
   xmlns:sodipodi="http://sodipodi.sourceforge.net/DTD/sodipodi-0.dtd"
   xmlns:inkscape="http://www.inkscape.org/namespaces/inkscape"
   version="1.1"
   width="64"
   height="64"
   id="svg2"
   inkscape:version="0.48.5 r10040"
   sodipodi:docname="network_tfi_logo.svg">
  <sodipodi:namedview
     pagecolor="#ffffff"
     bordercolor="#666666"
     borderopacity="1"
     objecttolerance="10"
     gridtolerance="10"
     guidetolerance="10"
     inkscape:pageopacity="0"
     inkscape:pageshadow="2"
     inkscape:window-width="1366"
     inkscape:window-height="721"
     id="namedview7"
     showgrid="false"
     inkscape:zoom="6.675088"
     inkscape:cx="35.23699"
     inkscape:cy="26.134889"
     inkscape:window-x="-2"
     inkscape:window-y="-3"
     inkscape:window-maximized="1"
     inkscape:current-layer="svg2"
     showguides="true"
     inkscape:guide-bbox="true" />
  <defs
     id="defs4" />
  <metadata
     id="metadata7">
    <rdf:RDF>
      <cc:Work
         rdf:about="">
        <dc:format>image/svg+xml</dc:format>
        <dc:type
           rdf:resource="http://purl.org/dc/dcmitype/StillImage" />
        <dc:title />
      </cc:Work>
    </rdf:RDF>
  </metadata>
  <rect
     width="64"
     height="64"
     x="0"
     y="0"
     id="rect2989"
     style="fill:#ffffff;fill-opacity:1;stroke:none" />
  <path
     d="m 0,0 0,32 c 0,17.673088 14.326889,32 32,32 l 32,0 0,-32 C 64,14.326874 49.673112,0 32,0 z"
     id="path3798"
     style="fill:#00b273;fill-opacity:1;stroke:none"
     inkscape:connector-curvature="0"
     sodipodi:nodetypes="csscssc" />
  <path
     style="fill:#ffffff;fill-opacity:1;stroke:none"
     d="m 19.748565,25.949766 6.20097,0 0,-4.214253 -16.9774198,0 0,4.214253 6.2009698,0 0,16.315185 4.57548,0 z m 15.23151,8.368305 9.75457,0 -0.0316,-4.12395 -9.72289,-0.03082 0,-4.273745 11.039627,0.07491 0.0078,-4.198852 -15.62284,-0.03056 0,20.529889 4.57547,0 z m 20.04781,-12.582558 -4.57548,0 0,20.529438 4.57548,0 z"
     id="path2998"
     inkscape:connector-curvature="0"
     sodipodi:nodetypes="ccccccccccccccccccccccccc" />
</svg>
