<?xml version="1.0" encoding="UTF-8" standalone="no"?>
<!-- Created with Inkscape (http://www.inkscape.org/) -->

<svg
   xmlns:dc="http://purl.org/dc/elements/1.1/"
   xmlns:cc="http://creativecommons.org/ns#"
   xmlns:rdf="http://www.w3.org/1999/02/22-rdf-syntax-ns#"
   xmlns:svg="http://www.w3.org/2000/svg"
   xmlns="http://www.w3.org/2000/svg"
   xmlns:xlink="http://www.w3.org/1999/xlink"
   xmlns:sodipodi="http://sodipodi.sourceforge.net/DTD/sodipodi-0.dtd"
   xmlns:inkscape="http://www.inkscape.org/namespaces/inkscape"
   version="1.0"
   width="500"
   height="500"
   id="svg2"
   inkscape:version="0.91 r13725"
   sodipodi:docname="network_nvv_logo.svg"
   inkscape:export-filename="J:\privat\Transportr\res\drawable-xhdpi\network_nvv_logo.png"
   inkscape:export-xdpi="17.280001"
   inkscape:export-ydpi="17.280001">
  <metadata
     id="metadata3295">
    <rdf:RDF>
      <cc:Work
         rdf:about="">
        <dc:format>image/svg+xml</dc:format>
        <dc:type
           rdf:resource="http://purl.org/dc/dcmitype/StillImage" />
        <dc:title></dc:title>
      </cc:Work>
    </rdf:RDF>
  </metadata>
  <sodipodi:namedview
     pagecolor="#ffffff"
     bordercolor="#666666"
     borderopacity="1"
     objecttolerance="10"
     gridtolerance="10"
     guidetolerance="10"
     inkscape:pageopacity="0"
     inkscape:pageshadow="2"
     inkscape:window-width="1280"
     inkscape:window-height="744"
     id="namedview3293"
     showgrid="false"
     inkscape:zoom="0.62225397"
     inkscape:cx="251.97792"
     inkscape:cy="93.61411"
     inkscape:window-x="0"
     inkscape:window-y="0"
     inkscape:window-maximized="1"
     inkscape:current-layer="svg2" />
  <defs
     id="defs4">
    <clipPath
       id="clipPath5186">
      <path
         d="m 871.644,271.41 322.656,0 0,494.856 -322.656,0 0,-494.856 z"
         id="path5188"
         inkscape:connector-curvature="0" />
    </clipPath>
    <clipPath
       id="clipPath5136">
      <path
         d="m 12.495,871.395 1207.564,0 0,-858.897 -1207.564,0 0,858.897 z"
         id="path5138"
         inkscape:connector-curvature="0" />
    </clipPath>
    <clipPath
       id="clipPath5122">
      <path
         d="m 12.495,871.395 1207.564,0 0,-858.897 -1207.564,0 0,858.897 z"
         id="path5124"
         inkscape:connector-curvature="0" />
    </clipPath>
    <clipPath
       id="clipPath5080">
      <path
         d="m 12.495,871.395 1207.564,0 0,-858.897 -1207.564,0 0,858.897 z"
         id="path5082"
         inkscape:connector-curvature="0" />
    </clipPath>
    <clipPath
       id="clipPath4998">
      <path
         d="m 113.664,263.048 2.961,9.343 23.4,-2.871 -2.961,-9.342 -23.4,2.87 z"
         id="path5000"
         inkscape:connector-curvature="0" />
    </clipPath>
    <clipPath
       id="clipPath4650">
      <path
         d="m 707.296,230.091 -98.568,71.361 1.26,11.934 99.062,-69.606 -1.754,-13.689 z"
         id="path4652"
         inkscape:connector-curvature="0" />
    </clipPath>
    <clipPath
       id="clipPath4544">
      <path
         d="m 350.59,256.712 4.14,13.068 17.216,-2.105 -4.148,-13.068 -17.208,2.105 z"
         id="path4546"
         inkscape:connector-curvature="0" />
    </clipPath>
    <clipPath
       id="clipPath4460">
      <path
         d="m 424.83,181.418 4.14,13.069 17.217,-2.115 -4.149,-13.068 -17.208,2.114 z"
         id="path4462"
         inkscape:connector-curvature="0" />
    </clipPath>
    <clipPath
       id="clipPath4448">
      <path
         d="m 594.814,466.322 5.498,17.326 12.492,-1.539 -5.498,-17.325 -12.492,1.538 z"
         id="path4450"
         inkscape:connector-curvature="0" />
    </clipPath>
    <clipPath
       id="clipPath4436">
      <path
         d="m 471.198,469.796 5.5,17.326 12.5,-1.53 -5.49,-17.326 -12.51,1.53 z"
         id="path4438"
         inkscape:connector-curvature="0" />
    </clipPath>
    <linearGradient
       x1="0"
       y1="0"
       x2="1"
       y2="0"
       id="linearGradient4294"
       gradientUnits="userSpaceOnUse"
       gradientTransform="translate(1104.2309,4604.3363)"
       spreadMethod="pad">
      <stop
         id="stop4296"
         style="stop-color:#b2b4b6;stop-opacity:1"
         offset="0" />
      <stop
         id="stop4298"
         style="stop-color:#8a8c8e;stop-opacity:1"
         offset="1" />
    </linearGradient>
    <clipPath
       id="clipPath4290">
      <path
         d="m -19.2971,-24.9845 39.7346,0 0,49.7121 -39.7346,0 0,-49.7121 z"
         id="path4292"
         inkscape:connector-curvature="0" />
    </clipPath>
    <clipPath
       id="clipPath4280">
      <path
         d="m 1084.933,4579.333 39.735,0 0,49.712 -39.735,0 0,-49.712 z"
         id="path4282"
         inkscape:connector-curvature="0" />
    </clipPath>
    <clipPath
       id="clipPath4272">
      <path
         d="m 351.904,522.518 -3.646,-0.576 -58.176,103.69 2.844,1.359 58.978,-104.473 z"
         id="path4274"
         inkscape:connector-curvature="0" />
    </clipPath>
    <clipPath
       id="clipPath4264">
      <path
         d="m 248.848,595.239 84.373,64.96 59.922,-106.508 -84.373,-64.96"
         id="path4266"
         inkscape:connector-curvature="0" />
    </clipPath>
    <clipPath
       id="clipPath4112">
      <path
         d="m 130.35,166.55 11.574,43.83 28.17,-2.078 -6.416,-44.254 -33.328,2.502 z"
         id="path4114"
         inkscape:connector-curvature="0" />
    </clipPath>
    <clipPath
       id="clipPath4040">
      <path
         d="m 12.495,871.395 1207.564,0 0,-858.897 -1207.564,0 0,858.897 z"
         id="path4042"
         inkscape:connector-curvature="0" />
    </clipPath>
    <linearGradient
       x1="0"
       y1="0"
       x2="1"
       y2="0"
       id="linearGradient3788"
       gradientUnits="userSpaceOnUse"
       gradientTransform="matrix(92.5,0,0,-92.5,367.6875,77.889648)"
       spreadMethod="pad">
      <stop
         id="stop3790"
         style="stop-color:#535456;stop-opacity:1"
         offset="0" />
      <stop
         id="stop3792"
         style="stop-color:#646668;stop-opacity:1"
         offset="1" />
    </linearGradient>
    <clipPath
       id="clipPath3784">
      <path
         d="m 0.00273132,-0.676147 0.99458268,0 0,0.221786 -0.99458268,0 0,-0.221786 z"
         id="path3786"
         inkscape:connector-curvature="0" />
    </clipPath>
    <clipPath
       id="clipPath3774">
      <path
         d="m 367.941,140.433 91.998,0 0,-20.515 -91.998,0 0,20.515 z"
         id="path3776"
         inkscape:connector-curvature="0" />
    </clipPath>
    <clipPath
       id="clipPath3766">
      <path
         d="m 404.67,119.912 c -23.208,0 -34.458,9.499 -36.738,11.693 l 0,0.006 c 2.294,-2.147 13.68,-11.544 37.431,-11.537 2.727,0 5.616,0.118 8.667,0.396 2.783,0.248 5.414,0.583 7.9,0.99 -2.278,-0.382 -4.686,-0.716 -7.224,-0.99 -3.564,-0.386 -6.912,-0.558 -10.036,-0.558 m 24.299,2.971 c 20.499,4.987 29.004,14.897 30.961,17.544 l 0,-0.095 c -1.845,-2.767 -9.593,-12.34 -30.961,-17.449"
         id="path3768"
         inkscape:connector-curvature="0" />
    </clipPath>
    <clipPath
       id="clipPath3614">
      <path
         d="m 12.495,871.395 1207.564,0 0,-858.897 -1207.564,0 0,858.897 z"
         id="path3616"
         inkscape:connector-curvature="0" />
    </clipPath>
    <clipPath
       id="clipPath3590">
      <path
         d="m 12.495,871.395 1207.564,0 0,-858.897 -1207.564,0 0,858.897 z"
         id="path3592"
         inkscape:connector-curvature="0" />
    </clipPath>
    <clipPath
       id="clipPath3550">
      <path
         d="m 12.495,871.395 1207.564,0 0,-858.897 -1207.564,0 0,858.897 z"
         id="path3552"
         inkscape:connector-curvature="0" />
    </clipPath>
    <clipPath
       id="clipPath3526">
      <path
         d="m 12.495,871.395 1207.564,0 0,-858.897 -1207.564,0 0,858.897 z"
         id="path3528"
         inkscape:connector-curvature="0" />
    </clipPath>
    <clipPath
       id="clipPath3430">
      <path
         d="m 12.495,871.395 1207.564,0 0,-858.897 -1207.564,0 0,858.897 z"
         id="path3432"
         inkscape:connector-curvature="0" />
    </clipPath>
    <clipPath
       id="clipPath3390">
      <path
         d="m 12.495,871.395 1207.564,0 0,-858.897 -1207.564,0 0,858.897 z"
         id="path3392"
         inkscape:connector-curvature="0" />
    </clipPath>
    <clipPath
       id="clipPath3350">
      <path
         d="m 12.495,871.395 1207.564,0 0,-858.897 -1207.564,0 0,858.897 z"
         id="path3352"
         inkscape:connector-curvature="0" />
    </clipPath>
    <clipPath
       id="clipPath3190">
      <path
         d="m 12.495,871.395 1207.564,0 0,-858.897 -1207.564,0 0,858.897 z"
         id="path3192"
         inkscape:connector-curvature="0" />
    </clipPath>
    <linearGradient
       x1="0"
       y1="0"
       x2="1"
       y2="0"
       id="linearGradient3138"
       gradientUnits="userSpaceOnUse"
       gradientTransform="matrix(92.5,0,0,-92.5,367.6875,77.889648)"
       spreadMethod="pad">
      <stop
         id="stop3140"
         style="stop-color:#8a8c8e;stop-opacity:1"
         offset="0" />
      <stop
         id="stop3142"
         style="stop-color:#b2b4b6;stop-opacity:1"
         offset="1" />
    </linearGradient>
    <clipPath
       id="clipPath3134">
      <path
         d="m 0.00273132,-0.67511 0.99458268,0 0,1.356781 -0.99458268,0 0,-1.356781 z"
         id="path3136"
         inkscape:connector-curvature="0" />
    </clipPath>
    <clipPath
       id="clipPath3124">
      <path
         d="m 367.941,140.338 91.998,0 0,-125.503 -91.998,0 0,125.503 z"
         id="path3126"
         inkscape:connector-curvature="0" />
    </clipPath>
    <clipPath
       id="clipPath3116">
      <path
         d="m 367.68,14.55 92.502,9 0,117.666 c 0,0 -10.674,-17.334 -46.17,-20.502 -32.994,-2.943 -46.332,11.502 -46.332,11.502 l 0,-117.666"
         id="path3118"
         inkscape:connector-curvature="0" />
    </clipPath>
    <clipPath
       id="clipPath3108">
      <path
         d="m 367.932,14.829 0,116.776 c 2.28,-2.194 13.53,-11.693 36.738,-11.693 3.124,0 6.472,0.172 10.036,0.558 2.538,0.274 4.946,0.608 7.224,0.99 2.491,0.407 4.833,0.886 7.039,1.423 21.368,5.109 29.116,14.682 30.961,17.449 l 0,-116.552 -91.998,-8.951"
         id="path3110"
         inkscape:connector-curvature="0" />
    </clipPath>
    <clipPath
       id="clipPath2926">
      <path
         d="m 330.96,685.77 161.884,0 0,142.137 -161.884,0 0,-142.137 z"
         id="path2928"
         inkscape:connector-curvature="0" />
    </clipPath>
    <clipPath
       id="clipPath2910">
      <path
         d="m 491.259,448.592 5.157,16.264 18.558,-2.277 -5.156,-16.263 -18.559,2.276 z"
         id="path2912"
         inkscape:connector-curvature="0" />
    </clipPath>
    <clipPath
       id="clipPath2894">
      <path
         d="m 287.032,194.784 5.084,16.02 20.385,-2.502 -5.085,-16.02 -20.384,2.502 z"
         id="path2896"
         inkscape:connector-curvature="0" />
    </clipPath>
    <clipPath
       id="clipPath2878">
      <path
         d="m 582.852,570.912 5.194,16.352 18.504,-2.276 -5.184,-16.354 -18.514,2.278 z"
         id="path2880"
         inkscape:connector-curvature="0" />
    </clipPath>
    <clipPath
       id="clipPath2862">
      <path
         d="m 590.034,235.634 4.42,13.95 22.274,-2.735 -4.419,-13.95 -22.275,2.735 z"
         id="path2864"
         inkscape:connector-curvature="0" />
    </clipPath>
    <clipPath
       id="clipPath2846">
      <path
         d="m 604.182,245.364 4.194,13.22 22.428,-2.753 -4.194,-13.221 -22.428,2.754 z"
         id="path2848"
         inkscape:connector-curvature="0" />
    </clipPath>
    <clipPath
       id="clipPath2830">
      <path
         d="m 778.62,161.133 4.482,14.139 22.204,-2.728 -4.482,-14.138 -22.204,2.727 z"
         id="path2832"
         inkscape:connector-curvature="0" />
    </clipPath>
    <clipPath
       id="clipPath2814">
      <path
         d="m 324.696,152.304 5.05,15.93 20.564,-2.53 -5.048,-15.93 -20.566,2.53 z"
         id="path2816"
         inkscape:connector-curvature="0" />
    </clipPath>
    <clipPath
       id="clipPath2798">
      <path
         d="m 631.47,167.99 4.266,13.456 22.392,-2.754 -4.266,-13.455 -22.392,2.753 z"
         id="path2800"
         inkscape:connector-curvature="0" />
    </clipPath>
    <clipPath
       id="clipPath2786">
      <path
         d="m 498.298,491.576 4.517,14.248 10.693,-1.306 -4.519,-14.255 -10.691,1.313 z"
         id="path2788"
         inkscape:connector-curvature="0" />
    </clipPath>
    <clipPath
       id="clipPath2774">
      <path
         d="m 354.639,237.884 4.005,12.61 15.822,-1.944 -4.004,-12.61 -15.823,1.944 z"
         id="path2776"
         inkscape:connector-curvature="0" />
    </clipPath>
    <clipPath
       id="clipPath2762">
      <path
         d="m 381.73,179.708 3.896,12.286 16.344,-2.007 -3.896,-12.285 -16.344,2.006 z"
         id="path2764"
         inkscape:connector-curvature="0" />
    </clipPath>
    <clipPath
       id="clipPath2750">
      <path
         d="m 577.164,487.419 4.528,14.265 10.476,-1.287 -4.528,-14.265 -10.476,1.287 z"
         id="path2752"
         inkscape:connector-curvature="0" />
    </clipPath>
    <clipPath
       id="clipPath2738">
      <path
         d="m 179.346,408.092 4.023,12.69 15.679,-1.926 -4.024,-12.69 -15.678,1.926 z"
         id="path2740"
         inkscape:connector-curvature="0" />
    </clipPath>
    <clipPath
       id="clipPath2702">
      <path
         d="m 12.495,871.395 1207.564,0 0,-858.897 -1207.564,0 0,858.897 z"
         id="path2704"
         inkscape:connector-curvature="0" />
    </clipPath>
    <clipPath
       id="clipPath2642">
      <path
         d="m 12.495,871.395 1207.564,0 0,-858.897 -1207.564,0 0,858.897 z"
         id="path2644"
         inkscape:connector-curvature="0" />
    </clipPath>
    <clipPath
       id="clipPath2598">
      <path
         d="m 12.495,871.395 1207.564,0 0,-858.897 -1207.564,0 0,858.897 z"
         id="path2600"
         inkscape:connector-curvature="0" />
    </clipPath>
    <clipPath
       id="clipPath2586">
      <path
         d="m 144.291,211.496 25.165,79.327 22.256,-2.727 -25.164,-79.326 -22.257,2.726 z"
         id="path2588"
         inkscape:connector-curvature="0" />
    </clipPath>
    <clipPath
       id="clipPath2574">
      <path
         d="m 121.287,213.495 25.165,79.335 22.266,-2.736 -25.165,-79.326 -22.266,2.727 z"
         id="path2576"
         inkscape:connector-curvature="0" />
    </clipPath>
    <clipPath
       id="clipPath2562">
      <path
         d="m 416.352,383.028 23.67,74.619 20.97,-2.575 -23.67,-74.618 -20.97,2.574 z"
         id="path2564"
         inkscape:connector-curvature="0" />
    </clipPath>
    <clipPath
       id="clipPath2550">
      <path
         d="m 394.356,387.024 23.67,74.628 20.97,-2.574 -23.67,-74.628 -20.97,2.574 z"
         id="path2552"
         inkscape:connector-curvature="0" />
    </clipPath>
    <clipPath
       id="clipPath2538">
      <path
         d="m 544.162,204.261 45.062,142.065 64.386,-7.902 -45.062,-142.074 -64.386,7.911 z"
         id="path2540"
         inkscape:connector-curvature="0" />
    </clipPath>
    <clipPath
       id="clipPath2526">
      <path
         d="m 519.411,213.35 45.063,142.066 64.377,-7.902 -45.053,-142.066 -64.387,7.902 z"
         id="path2528"
         inkscape:connector-curvature="0" />
    </clipPath>
    <clipPath
       id="clipPath2514">
      <path
         d="M 365.799,220.614 405.418,345.506 520.509,331.376 480.9,206.474 365.799,220.614 z"
         id="path2516"
         inkscape:connector-curvature="0" />
    </clipPath>
    <clipPath
       id="clipPath2502">
      <path
         d="m 343.174,207.068 39.618,124.894 115.092,-14.139 -39.61,-124.893 -115.1,14.138 z"
         id="path2504"
         inkscape:connector-curvature="0" />
    </clipPath>
    <clipPath
       id="clipPath2490">
      <path
         d="M 563.844,644.954 599.853,758.48 735.178,741.867 699.16,628.34 563.844,644.954 z"
         id="path2492"
         inkscape:connector-curvature="0" />
    </clipPath>
    <clipPath
       id="clipPath2478">
      <path
         d="M 543.18,628.566 579.189,742.092 714.514,725.478 678.496,611.952 543.18,628.566 z"
         id="path2480"
         inkscape:connector-curvature="0" />
    </clipPath>
    <clipPath
       id="clipPath2466">
      <path
         d="M 498.117,635.64 537.412,759.516 654.574,745.124 615.28,621.258 498.117,635.64 z"
         id="path2468"
         inkscape:connector-curvature="0" />
    </clipPath>
    <clipPath
       id="clipPath2454">
      <path
         d="M 478.776,652.974 518.07,776.85 635.232,762.458 595.938,638.592 478.776,652.974 z"
         id="path2456"
         inkscape:connector-curvature="0" />
    </clipPath>
    <clipPath
       id="clipPath2442">
      <path
         d="m 449.571,401.27 1.701,5.365 141.508,-17.371 -1.702,-5.363 -141.507,17.369 z"
         id="path2444"
         inkscape:connector-curvature="0" />
    </clipPath>
    <clipPath
       id="clipPath2430">
      <path
         d="m 449.571,374.604 1.701,5.364 141.508,-17.37 -1.702,-5.364 -141.507,17.37 z"
         id="path2432"
         inkscape:connector-curvature="0" />
    </clipPath>
    <clipPath
       id="clipPath2418">
      <path
         d="m 0,883.89 1232.551,0 0,-883.89 L 0,0 0,883.89 z"
         id="path2420"
         inkscape:connector-curvature="0" />
    </clipPath>
    <linearGradient
       x1="0"
       y1="0"
       x2="1"
       y2="0"
       id="linearGradient10650"
       xlink:href="#linearGradient3138"
       gradientUnits="userSpaceOnUse"
       gradientTransform="matrix(92.5,0,0,-92.5,367.6875,77.889648)"
       spreadMethod="pad" />
    <linearGradient
       x1="0"
       y1="0"
       x2="1"
       y2="0"
       id="linearGradient10652"
       xlink:href="#linearGradient3788"
       gradientUnits="userSpaceOnUse"
       gradientTransform="matrix(92.5,0,0,-92.5,367.6875,77.889648)"
       spreadMethod="pad" />
    <linearGradient
       x1="0"
       y1="0"
       x2="1"
       y2="0"
       id="linearGradient10654"
       xlink:href="#linearGradient4294"
       gradientUnits="userSpaceOnUse"
       gradientTransform="translate(1104.2309,4604.3363)"
       spreadMethod="pad" />
  </defs>
  <rect
     style="fill:#ffffff;fill-rule:evenodd;stroke:none;stroke-width:1px;stroke-linecap:butt;stroke-linejoin:miter;stroke-opacity:1"
     id="rect3334"
     width="500"
     height="500"
     x="0"
     y="4.2632564e-14" />
  <g
     transform="translate(-4.5705376,164.59643)"
     id="layer1">
    <g
       transform="matrix(2.9577139,0,0,2.9577139,508.08887,-475.09811)"
       id="g12245">
      <g
         transform="matrix(1.25,0,0,-1.25,-4.5705357,192.48191)"
         id="g5090">
        <path
           d="m 0,0 0,14.288 -56.163,0 0,14.288 -23.815,-23.813 52.344,0 L -32.399,0 0,0 z"
           id="path5092"
           style="fill:#00a650;fill-opacity:1;fill-rule:nonzero;stroke:none"
           inkscape:connector-curvature="0" />
      </g>
      <g
         transform="matrix(1.25,0,0,-1.25,-39.048036,186.52816)"
         id="g5094">
        <path
           d="m 0,0 -102.248,0 0,-14.287 73.671,0 0,-14.289 L 0,0 z"
           id="path5096"
           style="fill:#005aaa;fill-opacity:1;fill-rule:nonzero;stroke:none"
           inkscape:connector-curvature="0" />
      </g>
      <g
         transform="matrix(1.25,0,0,-1.25,-50.719286,186.52816)"
         id="g5098">
        <path
           d="m 0,0 -2.381,0 -1.539,-6.544 -0.049,0 L -5.46,0 l -2.526,0 2.694,-9.116 2.647,0 L 0,0 z"
           id="path5100"
           style="fill:#ffffff;fill-opacity:1;fill-rule:nonzero;stroke:none"
           inkscape:connector-curvature="0" />
      </g>
      <g
         transform="matrix(1.25,0,0,-1.25,-62.505536,186.52816)"
         id="g5102">
        <path
           d="m 0,0 -2.477,0 -1.469,-6.544 -0.071,0 -1.42,6.544 -2.597,0 2.694,-9.116 2.646,0 L 0,0 z"
           id="path5104"
           style="fill:#ffffff;fill-opacity:1;fill-rule:nonzero;stroke:none"
           inkscape:connector-curvature="0" />
      </g>
      <g
         transform="matrix(1.25,0,0,-1.25,-74.771786,186.52816)"
         id="g5106">
        <path
           d="m 0,0 -2.117,0 0,-6.277 -2.334,6.277 -2.911,0 0,-9.116 2.166,0 0,6.277 0.047,0 2.285,-6.277 2.864,0 L 0,0 z"
           id="path5108"
           style="fill:#ffffff;fill-opacity:1;fill-rule:nonzero;stroke:none"
           inkscape:connector-curvature="0" />
      </g>
    </g>
  </g>
</svg>
