<?xml version="1.0" encoding="UTF-8" standalone="no"?>
<!-- Created with Inkscape (http://www.inkscape.org/) -->

<svg
   xmlns:dc="http://purl.org/dc/elements/1.1/"
   xmlns:cc="http://creativecommons.org/ns#"
   xmlns:rdf="http://www.w3.org/1999/02/22-rdf-syntax-ns#"
   xmlns:svg="http://www.w3.org/2000/svg"
   xmlns="http://www.w3.org/2000/svg"
   xmlns:sodipodi="http://sodipodi.sourceforge.net/DTD/sodipodi-0.dtd"
   xmlns:inkscape="http://www.inkscape.org/namespaces/inkscape"
   width="64"
   height="64"
   id="svg3352"
   version="1.1"
   inkscape:version="0.91 r13725"
   viewBox="0 0 64 64"
   sodipodi:docname="network_septa_logo.svg">
  <defs
     id="defs3354" />
  <sodipodi:namedview
     id="base"
     pagecolor="#ffffff"
     bordercolor="#666666"
     borderopacity="1.0"
     inkscape:pageopacity="0.0"
     inkscape:pageshadow="2"
     inkscape:zoom="5.5"
     inkscape:cx="22.454545"
     inkscape:cy="17.454545"
     inkscape:current-layer="layer1"
     showgrid="true"
     inkscape:document-units="px"
     inkscape:grid-bbox="true"
     inkscape:window-width="1366"
     inkscape:window-height="744"
     inkscape:window-x="0"
     inkscape:window-y="24"
     inkscape:window-maximized="1" />
  <metadata
     id="metadata3357">
    <rdf:RDF>
      <cc:Work
         rdf:about="">
        <dc:format>image/svg+xml</dc:format>
        <dc:type
           rdf:resource="http://purl.org/dc/dcmitype/StillImage" />
        <dc:title></dc:title>
      </cc:Work>
    </rdf:RDF>
  </metadata>
  <g
     id="layer1"
     inkscape:label="Layer 1"
     inkscape:groupmode="layer">
    <g
       id="g3418"
       transform="matrix(0.13182286,0,0,0.13182286,-0.84762025,-1.9114307)">
      <rect
         id="rect3420"
         height="340.33499"
         width="393.33301"
         y="14.5"
         x="53.167"
         style="fill:#ffffff" />
      <path
         d="m 12.362,464.539 21.416,0 c 0,3.869 1.225,7.132 3.06,9.782 1.836,2.443 4.487,4.28 7.548,5.502 3.059,1.222 6.526,1.834 10.198,1.834 15.297,0 23.252,-4.486 23.455,-13.047 0,-3.054 -0.814,-5.296 -2.446,-7.129 -1.633,-1.635 -3.467,-2.854 -5.508,-3.464 -2.244,-0.816 -5.913,-1.836 -11.217,-3.262 -4.488,-1.02 -7.75,-1.833 -10.198,-2.242 -7.139,-1.43 -13.258,-3.262 -18.154,-5.299 -4.895,-2.242 -8.77,-5.298 -11.83,-9.781 -3.059,-4.279 -4.486,-9.987 -4.486,-16.916 0.204,-6.522 1.834,-12.024 4.894,-16.915 3.264,-4.893 7.751,-8.562 13.666,-11.21 5.915,-2.648 13.258,-3.872 21.621,-3.872 7.75,0 14.279,1.02 19.785,3.058 5.303,2.037 9.789,4.891 12.849,8.151 3.264,3.263 5.508,6.929 7.14,11.006 1.428,3.873 2.244,7.948 2.447,11.82 l -21.418,0 c -1.02,-10.394 -8.363,-15.693 -22.232,-15.693 -5.101,0.205 -9.383,1.222 -12.647,3.058 -3.468,1.833 -5.303,4.892 -5.711,8.967 0,5.504 2.856,9.171 8.566,11.006 5.304,1.222 10.403,2.444 15.094,3.668 4.692,1.017 8.158,2.038 10.403,2.648 7.75,1.836 13.665,3.873 18.152,5.911 4.283,2.242 7.547,5.299 9.789,8.765 2.245,3.667 3.264,8.556 3.264,14.469 0,7.336 -1.632,13.45 -4.895,18.138 -3.264,4.688 -7.342,8.153 -11.83,10.596 -4.692,2.447 -9.18,3.874 -13.462,4.689 C 65.598,499.592 61.925,500 59.069,500 28.882,499.796 13.177,487.771 12.362,464.539 l 0,0 z"
         id="path2570"
         inkscape:connector-curvature="0"
         style="fill:#1f4fa3" />
      <path
         d="m 116.383,496.534 0,-105.772 78.119,0 0,18.341 -56.089,0 0,23.031 51.601,0 0,18.343 -51.601,0 0,27.716 58.537,0 0,18.342 -80.567,0 0,-0.001 z"
         id="path2572"
         inkscape:connector-curvature="0"
         style="fill:#1f4fa3" />
      <path
         d="m 336.054,496.534 0,-87.432 -32.427,0 0,-18.341 85.663,0 0,18.341 -31.412,0 0,87.432 -21.824,0 0,0 z"
         id="path2574"
         inkscape:connector-curvature="0"
         style="fill:#1f4fa3" />
      <path
         d="m 441.775,14.654 -101.334,0 -159.552,112.575 148.664,0 115.779,115.24 -111.776,112.351 108.22,0 c 25.556,0 44.222,-25.312 44.222,-43.296 l 0,-253.351 C 485.997,39.965 467.331,14.654 441.775,14.654 l 0,0 z"
         id="path2578"
         inkscape:connector-curvature="0"
         style="fill:#f14728" />
      <path
         d="m 58.666,354.82 101.112,0 159.553,-112.129 -148.443,0 L 54.666,127.229 167.11,14.654 l -108.444,0 c -25.778,0 -44,25.311 -44,43.741 l 0,253.351 c 10e-4,17.763 18.222,43.074 44,43.074 l 0,0 z"
         id="path2580"
         inkscape:connector-curvature="0"
         style="fill:#1f4fa3" />
      <path
         d="m 206.444,137.886 -14.224,0 87.111,87.037 c 4.001,3.335 7.11,7.33 14,6.887 l 14.89,0 -87.556,-86.819 c -3.999,-4.441 -6.889,-7.105 -14.221,-7.105 l 0,0 z"
         id="path2582"
         inkscape:connector-curvature="0"
         style="fill:#f14728" />
      <path
         d="m 214.706,390.817 0,33.926 0,71.719 21.99,0 0,-39.023 25.509,0 c 12.034,0 20.407,-3.145 25.508,-9.668 4.895,-5.908 7.361,-13.657 7.565,-23.027 l 0,-1.406 c 0,-4.483 -0.681,-8.783 -2.111,-12.656 -1.224,-3.873 -3.124,-7.311 -5.981,-10.371 -2.65,-3.054 -6.152,-5.196 -10.027,-7.031 -4.078,-1.629 -8.594,-2.461 -13.898,-2.461 l -48.555,0 z m 21.99,18.282 17.945,0 c 7.954,0 13.061,1.393 15.305,4.043 2.243,2.648 3.519,6.507 3.519,11.602 0,3.058 -0.442,5.696 -1.056,7.734 -0.611,2.241 -1.95,4.198 -4.398,5.625 -2.445,1.427 -6.039,2.109 -10.73,2.109 l -20.583,0 0,-15.469 0,-15.644 z"
         id="path9110"
         inkscape:connector-curvature="0"
         style="fill:#1f4fa3" />
      <path
         d="m 421.59,390.817 -16.009,45.176 -21.462,60.469 23.046,0 7.564,-21.797 38.879,0 6.685,21.797 24.102,0 -21.463,-60.469 -16.009,-45.176 -25.333,0 z m 12.491,23.731 6.685,21.445 6.686,21.445 -26.916,0 6.509,-21.445 7.036,-21.445 z"
         id="path2588"
         inkscape:connector-curvature="0"
         style="fill:#1f4fa3" />
    </g>
  </g>
</svg>
