<?xml version="1.0" encoding="UTF-8" standalone="no"?>
<!-- Created with Inkscape (http://www.inkscape.org/) -->

<svg
   xmlns:dc="http://purl.org/dc/elements/1.1/"
   xmlns:cc="http://creativecommons.org/ns#"
   xmlns:rdf="http://www.w3.org/1999/02/22-rdf-syntax-ns#"
   xmlns:svg="http://www.w3.org/2000/svg"
   xmlns="http://www.w3.org/2000/svg"
   xmlns:sodipodi="http://sodipodi.sourceforge.net/DTD/sodipodi-0.dtd"
   xmlns:inkscape="http://www.inkscape.org/namespaces/inkscape"
   version="1.1"
   width="550"
   height="550"
   id="svg2"
   xml:space="preserve"
   inkscape:version="0.91 r13725"
   sodipodi:docname="network_nvbw_logo.svg"><sodipodi:namedview
     pagecolor="#ffffff"
     bordercolor="#666666"
     borderopacity="1"
     objecttolerance="10"
     gridtolerance="10"
     guidetolerance="10"
     inkscape:pageopacity="0"
     inkscape:pageshadow="2"
     inkscape:window-width="1280"
     inkscape:window-height="744"
     id="namedview65"
     showgrid="false"
     inkscape:zoom="0.96727273"
     inkscape:cx="275"
     inkscape:cy="275"
     inkscape:window-x="0"
     inkscape:window-y="0"
     inkscape:window-maximized="1"
     inkscape:current-layer="svg2" /><metadata
     id="metadata8"><rdf:RDF><cc:Work
         rdf:about=""><dc:format>image/svg+xml</dc:format><dc:type
           rdf:resource="http://purl.org/dc/dcmitype/StillImage" /><dc:title></dc:title></cc:Work></rdf:RDF></metadata><defs
     id="defs6"><clipPath
       id="clipPath16"><path
         d="m 0,86.76 433.902,0 0,-86.76 L 0,0 0,86.76 z"
         id="path18"
         inkscape:connector-curvature="0" /></clipPath><clipPath
       id="clipPath118"><path
         d="m 0,86.76 433.902,0 0,-86.76 L 0,0 0,86.76 z"
         id="path120"
         inkscape:connector-curvature="0" /></clipPath></defs><rect
     style="fill:#ffffff;fill-rule:evenodd;stroke:none;stroke-width:1px;stroke-linecap:butt;stroke-linejoin:miter;stroke-opacity:1"
     id="rect3334"
     width="550"
     height="550"
     x="0"
     y="-1.4210855e-14" /><g
     transform="matrix(1.25,0,0,-1.25,3.81125,329.225)"
     id="g10"><g
       id="g12"><g
         clip-path="url(#clipPath16)"
         id="g14"><path
           d="m 432.902,85.732 -13.5,0.006"
           id="path20"
           style="fill:none;stroke:#0066b3;stroke-width:2;stroke-linecap:round;stroke-linejoin:miter;stroke-miterlimit:4;stroke-opacity:1;stroke-dasharray:none"
           inkscape:connector-curvature="0" /></g></g><path
       d="m 143.557,63.882 3.752,14 -121.251,0 -12.25,-14 129.749,0 z"
       id="path22"
       style="fill:none;stroke:#0066b3;stroke-width:2;stroke-linecap:butt;stroke-linejoin:miter;stroke-miterlimit:4;stroke-opacity:1;stroke-dasharray:none"
       inkscape:connector-curvature="0" /><path
       d="m 378.769,78.74 c 0.149,0 0.317,-0.075 0.317,-0.224 0,-0.299 -0.29,-0.384 -0.523,-0.562 -0.379,-0.29 -0.711,-0.528 -0.711,-1.01 0,-0.229 -0.262,-0.295 -0.262,-0.524 0,-0.056 0.075,-0.074 0.075,-0.131 0,-0.159 -0.113,-0.233 -0.113,-0.393 0,-0.075 0.038,-0.112 0.038,-0.187 0,-0.402 0.534,-0.449 0.936,-0.449 l 0.411,0 c 0.88,0 1.328,0.486 2.208,0.486 0.191,0 0.271,0.132 0.449,0.188 0.571,0.187 0.884,0.35 1.459,0.524 1.31,0.398 2.054,0.617 3.368,1.01 0.674,0.201 1.035,0.486 1.741,0.486 0.556,0 0.846,0.267 1.403,0.3 0.65,0.037 1.015,0 1.665,0 0.238,0 0.355,-0.117 0.58,-0.188 0.421,-0.13 0.707,-0.168 1.048,-0.448 0.187,-0.155 0.486,-0.164 0.486,-0.412 0,-0.131 0.178,-0.144 0.225,-0.262 0.094,-0.234 0.187,-0.379 0.187,-0.636 0,-0.108 -0.075,-0.155 -0.075,-0.262 0,-0.079 0.075,-0.108 0.075,-0.188 0,-0.462 -0.201,-0.711 -0.412,-1.122 -0.224,-0.435 -0.35,-0.729 -0.748,-1.01 -0.365,-0.257 -0.823,-0.356 -0.823,-0.805 0,-0.772 0.299,-1.192 0.299,-1.964 0,-0.179 -0.074,-0.271 -0.074,-0.449 0,-0.066 0.074,-0.085 0.074,-0.151 0,-0.397 -0.187,-0.612 -0.187,-1.009 0,-0.197 -0.149,-0.29 -0.149,-0.487 0,-0.164 0.201,-0.177 0.336,-0.262 0.529,-0.328 0.908,-0.388 1.497,-0.599 0.281,-0.098 0.637,-0.131 0.637,-0.43 0,-0.824 -0.329,-1.24 -0.525,-2.04 -0.182,-0.734 -0.215,-1.683 -0.973,-1.683 l -1.646,0 c -0.07,0 -0.099,-0.076 -0.169,-0.076 -0.056,0 -0.074,0.076 -0.131,0.076 l -2.282,0 c -0.047,0.102 -0.15,0.144 -0.15,0.261 0,0.735 0.543,1.132 1.198,1.459 0.421,0.211 0.795,0.071 1.16,0.375 -0.206,0.332 -0.52,0.332 -0.861,0.524 -0.45,0.253 -0.673,0.454 -1.122,0.711 -0.483,0.276 -0.778,0.426 -1.199,0.786 -0.233,0.201 -0.308,0.486 -0.617,0.486 -0.379,0 -0.496,-0.342 -0.766,-0.598 -0.356,-0.337 -0.689,-0.421 -0.974,-0.824 -0.22,-0.308 -0.322,-0.524 -0.599,-0.786 -0.543,-0.518 -0.744,-0.944 -1.01,-1.646 -0.168,-0.449 -0.379,-0.899 -0.861,-0.899 l -4.79,0 c -0.182,0 -0.299,0.174 -0.299,0.356 0,0.187 0.131,0.271 0.224,0.43 0.244,0.403 0.44,0.651 0.861,0.862 0.641,0.317 1.006,0.635 1.722,0.635 l 0.599,0 c 0.416,0 0.556,0.426 0.672,0.824 0.202,0.674 0.45,1.038 0.45,1.74 0,0.332 0.216,0.486 0.3,0.805 -0.052,0.018 -0.076,0.074 -0.131,0.074 -0.3,0 -0.454,-0.15 -0.731,-0.262 -0.8,-0.332 -1.248,-0.561 -1.983,-1.01 -0.978,-0.599 -1.665,-0.697 -2.732,-1.123 -0.977,-0.388 -1.529,-0.786 -2.582,-0.786 l -0.523,0 c -0.094,0 -0.132,-0.074 -0.225,-0.074 l -1.123,0 c -0.248,0 -0.313,-0.248 -0.523,-0.375 -0.281,-0.168 -0.478,-0.196 -0.786,-0.299 -1.039,-0.347 -1.694,-0.327 -2.733,-0.674 -1.033,-0.341 -1.641,-0.467 -2.694,-0.748 -0.533,-0.14 -0.795,-0.444 -1.347,-0.449 -0.898,-0.01 -1.403,0.047 -2.302,0.074 -0.739,-0.21 -1.197,-0.149 -1.964,-0.149 l -0.861,0 c -0.22,0 -0.374,0.211 -0.374,0.431 0,0.107 0.037,0.172 0.037,0.28 0,0.421 0.272,0.637 0.599,0.898 0.397,0.319 0.65,0.599 1.16,0.599 l 1.61,0 c 0.093,0 0.13,-0.075 0.224,-0.075 l 0.486,0 c 0.515,0 0.688,0.43 1.085,0.749 0.548,0.434 0.969,0.584 1.422,1.122 -0.575,0.749 -1.314,0.716 -1.983,1.385 -0.416,0.417 -0.757,0.547 -1.159,0.973 -0.178,0.192 -0.525,0.182 -0.525,0.448 0,0.258 -0.248,0.329 -0.411,0.525 -0.309,0.369 -0.561,0.674 -1.048,0.674 l -0.449,0 c -0.313,0 -0.637,0.191 -0.637,0.505 0,0.383 0.263,0.566 0.562,0.804 0.515,0.411 0.805,0.777 1.46,0.861 0.285,0.037 0.463,0.042 0.748,0 0.51,-0.075 0.945,-0.225 1.123,-0.711 0.06,-0.164 -0.038,-0.361 0.112,-0.45 0.262,-0.159 0.49,-0.037 0.785,-0.112 0.361,-0.093 0.562,-0.224 0.936,-0.224 l 0.486,0 c 0.281,0 0.431,-0.113 0.712,-0.113 0.309,0 0.388,0.314 0.561,0.562 0.085,0.122 0.224,0.169 0.224,0.318 0,0.037 -0.037,0.056 -0.037,0.094 l -0.187,0 c -0.356,-0.309 -0.664,-0.449 -1.141,-0.449 -0.07,0 -0.169,0.005 -0.169,0.075 0,0.21 -0.149,0.312 -0.149,0.523 0,0.478 0.084,1.085 0.561,1.085 0.197,0 0.239,-0.201 0.374,-0.337 0.21,0.141 0.411,0.253 0.411,0.506 0,0.108 -0.037,0.173 -0.037,0.28 0,0.248 -0.051,0.562 -0.299,0.562 l -0.336,0 c -0.109,0 -0.155,-0.075 -0.263,-0.075 -0.238,0 -0.374,0.248 -0.374,0.486 0,0.08 0.075,0.108 0.075,0.188 0,0.098 -0.075,0.145 -0.075,0.243 0,0.935 0.888,1.282 1.759,1.628 0.898,0.355 1.445,0.598 2.414,0.598 0.084,0 0.121,-0.074 0.206,-0.074 l 0.411,0 c 0.057,0 0.075,0.074 0.131,0.074 0.07,0 0.103,-0.065 0.169,-0.074 0.575,-0.117 0.925,-0.112 1.515,-0.112 0.299,0 0.468,0.112 0.767,0.112 l 0.412,0 c 0.163,0 0.248,0.112 0.411,0.112 0.174,0 0.337,-0.127 0.337,-0.299 0,-0.052 -0.037,-0.079 -0.037,-0.131 0,-0.243 -0.374,-0.262 -0.374,-0.505 0,-0.347 0.149,-0.533 0.149,-0.88 0,-0.468 0.374,-0.674 0.374,-1.142 0,-0.079 -0.074,-0.107 -0.074,-0.186 0,-0.052 0.074,-0.066 0.074,-0.112 0.034,-0.417 0.024,-0.665 0,-1.086 -0.004,-0.113 -0.074,-0.168 -0.074,-0.281 0,-0.126 0.037,-0.191 0.037,-0.318 0,-0.22 0.248,-0.262 0.449,-0.337 0.604,-0.224 0.983,-0.299 1.628,-0.299 0.309,0 0.477,-0.075 0.786,-0.075 0.117,0 0.164,-0.112 0.281,-0.112 l 0.523,0 c 0.104,0 0.155,0.08 0.225,0.15 0.047,-0.08 0.094,-0.15 0.187,-0.15 1.025,0 1.558,0.486 2.582,0.486 0.524,0 0.767,0.375 1.291,0.375 0.361,0 0.529,0.233 0.879,0.299 0.665,0.127 1.058,0.094 1.722,0.225 0.421,0.083 0.655,0.224 1.085,0.224 l 0.674,0 c 0.136,0 0.206,0.099 0.337,0.112 0.94,0.118 1.482,-0.075 2.432,-0.075 0.178,0 0.276,-0.089 0.45,-0.112 0.271,-0.042 0.434,-0.037 0.71,-0.037 0.192,0 0.295,0.075 0.487,0.075 0.552,0 0.879,0.369 1.123,0.86 0.079,0.16 0.224,0.23 0.224,0.412 0,0.178 -0.075,0.271 -0.075,0.449 0,0.117 -0.149,0.145 -0.149,0.262 0,0.098 -0.151,0.056 -0.225,0.113 -0.346,0.261 -0.608,0.411 -1.048,0.411 -0.271,0 -0.421,0.075 -0.692,0.075 -1.6,0 -2.479,-0.397 -4.023,-0.823 -1.852,-0.515 -2.891,-0.815 -4.715,-1.422 -0.954,-0.318 -1.502,-0.58 -2.507,-0.637 -0.692,-0.037 -1.086,0.037 -1.778,0.037 -0.234,0 -0.351,0.169 -0.505,0.337 -0.103,0.113 -0.262,0.146 -0.262,0.3 0,0.351 -0.374,0.473 -0.374,0.823 0,0.079 0.074,0.108 0.074,0.187 0,0.052 -0.074,0.061 -0.074,0.112 0,0.062 0.037,0.09 0.037,0.15 0,0.903 0.594,1.366 1.31,1.909 0.449,0.337 0.744,0.519 1.272,0.711 0.215,0.075 0.314,0.224 0.543,0.224 z M 368.44,77.318 c 0.107,0 0.178,-0.013 0.281,-0.037 -0.187,-0.047 -0.286,-0.15 -0.412,-0.3 l -0.186,0 c -0.01,0.057 -0.039,0.089 -0.039,0.15 0,0.154 0.202,0.187 0.356,0.187 z m 1.539,-14.295 c 0.149,0 0.317,-0.075 0.317,-0.224 0,-0.3 -0.29,-0.384 -0.523,-0.562 -0.379,-0.29 -0.711,-0.528 -0.711,-1.01 0,-0.229 -0.262,-0.294 -0.262,-0.524 0,-0.057 0.075,-0.075 0.075,-0.131 0,-0.159 -0.113,-0.234 -0.113,-0.393 0,-0.075 0.038,-0.113 0.038,-0.187 0,-0.402 0.534,-0.449 0.936,-0.449 l 0.411,0 c 0.88,0 1.328,0.486 2.208,0.486 0.191,0 0.271,0.131 0.449,0.188 0.571,0.186 0.884,0.35 1.459,0.523 1.31,0.398 2.054,0.617 3.368,1.011 0.674,0.201 1.035,0.486 1.741,0.486 0.556,0 0.846,0.267 1.403,0.299 0.65,0.038 1.015,0 1.665,0 0.239,0 0.355,-0.116 0.58,-0.186 0.421,-0.131 0.706,-0.168 1.048,-0.45 0.187,-0.154 0.486,-0.164 0.486,-0.411 0,-0.132 0.178,-0.145 0.225,-0.262 0.094,-0.234 0.187,-0.379 0.187,-0.636 0,-0.108 -0.075,-0.154 -0.075,-0.262 0,-0.08 0.075,-0.108 0.075,-0.187 0,-0.463 -0.201,-0.711 -0.412,-1.123 -0.224,-0.435 -0.35,-0.73 -0.748,-1.01 -0.365,-0.258 -0.823,-0.356 -0.823,-0.805 0,-0.771 0.299,-1.193 0.299,-1.965 0,-0.177 -0.074,-0.271 -0.074,-0.449 0,-0.065 0.074,-0.084 0.074,-0.149 0,-0.398 -0.187,-0.614 -0.187,-1.011 0,-0.196 -0.149,-0.29 -0.149,-0.486 0,-0.165 0.201,-0.178 0.336,-0.262 0.529,-0.327 0.908,-0.389 1.497,-0.599 0.281,-0.098 0.637,-0.131 0.637,-0.431 0,-0.823 -0.329,-1.239 -0.525,-2.039 -0.183,-0.734 -0.215,-1.684 -0.973,-1.684 l -1.646,0 c -0.07,0 -0.099,-0.074 -0.169,-0.074 -0.056,0 -0.074,0.074 -0.131,0.074 l -2.282,0 c -0.047,0.103 -0.15,0.145 -0.15,0.262 0,0.734 0.543,1.132 1.198,1.46 0.421,0.211 0.795,0.07 1.16,0.374 -0.206,0.332 -0.52,0.332 -0.861,0.524 -0.45,0.252 -0.674,0.453 -1.122,0.711 -0.483,0.275 -0.778,0.426 -1.199,0.785 -0.233,0.201 -0.308,0.487 -0.617,0.487 -0.379,0 -0.496,-0.341 -0.766,-0.599 -0.356,-0.336 -0.689,-0.421 -0.974,-0.823 -0.22,-0.309 -0.322,-0.524 -0.599,-0.786 -0.543,-0.519 -0.743,-0.945 -1.01,-1.646 -0.168,-0.449 -0.379,-0.898 -0.861,-0.898 l -4.79,0 c -0.183,0 -0.299,0.172 -0.299,0.355 0,0.188 0.131,0.271 0.224,0.431 0.244,0.402 0.44,0.65 0.861,0.86 0.641,0.318 1.006,0.636 1.722,0.636 l 0.599,0 c 0.416,0 0.556,0.426 0.673,0.824 0.201,0.673 0.449,1.038 0.449,1.739 0,0.333 0.215,0.488 0.299,0.805 -0.051,0.018 -0.075,0.075 -0.13,0.075 -0.3,0 -0.455,-0.149 -0.73,-0.262 -0.801,-0.332 -1.249,-0.561 -1.983,-1.01 -0.979,-0.599 -1.666,-0.698 -2.733,-1.123 -0.977,-0.388 -1.529,-0.786 -2.582,-0.786 l -0.523,0 c -0.094,0 -0.132,-0.075 -0.225,-0.075 l -1.123,0 c -0.248,0 -0.313,-0.248 -0.523,-0.374 -0.282,-0.169 -0.478,-0.196 -0.786,-0.3 -1.039,-0.345 -1.694,-0.327 -2.733,-0.672 -1.033,-0.342 -1.641,-0.468 -2.694,-0.749 -0.533,-0.141 -0.795,-0.445 -1.347,-0.45 -0.898,-0.009 -1.403,0.047 -2.302,0.076 -0.739,-0.211 -1.197,-0.15 -1.964,-0.15 l -0.861,0 c -0.22,0 -0.374,0.21 -0.374,0.43 0,0.108 0.037,0.174 0.037,0.281 0,0.421 0.272,0.636 0.599,0.897 0.397,0.319 0.65,0.6 1.16,0.6 l 1.609,0 c 0.094,0 0.131,-0.075 0.225,-0.075 l 0.486,0 c 0.515,0 0.688,0.431 1.085,0.748 0.548,0.435 0.969,0.585 1.423,1.123 -0.576,0.748 -1.315,0.716 -1.983,1.385 -0.417,0.416 -0.758,0.547 -1.16,0.972 -0.178,0.192 -0.525,0.183 -0.525,0.45 0,0.257 -0.248,0.327 -0.411,0.523 -0.309,0.37 -0.561,0.674 -1.048,0.674 l -0.449,0 c -0.313,0 -0.637,0.192 -0.637,0.506 0,0.383 0.263,0.565 0.562,0.803 0.514,0.413 0.805,0.778 1.46,0.862 0.285,0.037 0.463,0.042 0.748,0 0.51,-0.075 0.945,-0.225 1.123,-0.711 0.06,-0.164 -0.038,-0.36 0.112,-0.449 0.262,-0.16 0.491,-0.037 0.785,-0.113 0.361,-0.093 0.562,-0.224 0.936,-0.224 l 0.487,0 c 0.28,0 0.43,-0.113 0.711,-0.113 0.309,0 0.388,0.314 0.561,0.562 0.085,0.121 0.224,0.168 0.224,0.317 0,0.038 -0.037,0.057 -0.037,0.094 l -0.187,0 c -0.356,-0.309 -0.664,-0.448 -1.141,-0.448 -0.07,0 -0.169,0.004 -0.169,0.074 0,0.211 -0.149,0.314 -0.149,0.524 0,0.477 0.084,1.085 0.561,1.085 0.196,0 0.238,-0.201 0.374,-0.336 0.21,0.14 0.411,0.252 0.411,0.504 0,0.108 -0.037,0.174 -0.037,0.282 0,0.248 -0.052,0.56 -0.299,0.56 l -0.336,0 c -0.108,0 -0.155,-0.074 -0.263,-0.074 -0.238,0 -0.374,0.248 -0.374,0.486 0,0.079 0.075,0.108 0.075,0.188 0,0.097 -0.075,0.144 -0.075,0.243 0,0.936 0.888,1.281 1.759,1.628 0.898,0.355 1.445,0.599 2.414,0.599 0.084,0 0.121,-0.076 0.206,-0.076 l 0.411,0 c 0.056,0 0.075,0.076 0.131,0.076 0.07,0 0.103,-0.066 0.169,-0.076 0.575,-0.117 0.925,-0.112 1.515,-0.112 0.299,0 0.468,0.112 0.767,0.112 l 0.412,0 c 0.163,0 0.248,0.113 0.411,0.113 0.174,0 0.337,-0.126 0.337,-0.299 0,-0.052 -0.037,-0.08 -0.037,-0.132 0,-0.243 -0.374,-0.262 -0.374,-0.505 0,-0.346 0.149,-0.533 0.149,-0.879 0,-0.468 0.374,-0.674 0.374,-1.141 0,-0.08 -0.074,-0.108 -0.074,-0.188 0,-0.051 0.074,-0.065 0.074,-0.112 0.034,-0.416 0.024,-0.664 0,-1.085 -0.005,-0.112 -0.074,-0.168 -0.074,-0.28 0,-0.127 0.037,-0.193 0.037,-0.319 0,-0.22 0.248,-0.262 0.449,-0.337 0.604,-0.224 0.983,-0.3 1.628,-0.3 0.309,0 0.477,-0.074 0.786,-0.074 0.117,0 0.164,-0.112 0.281,-0.112 l 0.523,0 c 0.104,0 0.154,0.079 0.225,0.149 0.047,-0.079 0.094,-0.149 0.187,-0.149 1.025,0 1.558,0.486 2.582,0.486 0.524,0 0.767,0.374 1.291,0.374 0.361,0 0.529,0.235 0.879,0.3 0.665,0.126 1.058,0.094 1.722,0.225 0.421,0.084 0.655,0.224 1.085,0.224 l 0.674,0 c 0.135,0 0.206,0.098 0.337,0.113 0.94,0.116 1.482,-0.076 2.432,-0.076 0.178,0 0.276,-0.088 0.45,-0.112 0.271,-0.042 0.434,-0.037 0.71,-0.037 0.192,0 0.295,0.074 0.487,0.074 0.552,0 0.879,0.37 1.123,0.862 0.079,0.158 0.224,0.228 0.224,0.411 0,0.177 -0.075,0.271 -0.075,0.449 0,0.117 -0.149,0.144 -0.149,0.262 0,0.098 -0.151,0.056 -0.225,0.112 -0.346,0.262 -0.608,0.412 -1.048,0.412 -0.271,0 -0.421,0.074 -0.692,0.074 -1.6,0 -2.48,-0.397 -4.023,-0.823 -1.853,-0.515 -2.891,-0.813 -4.715,-1.422 -0.954,-0.318 -1.502,-0.58 -2.507,-0.636 -0.702,-0.042 -1.095,0.038 -1.797,0.038 -0.229,0 -0.332,0.167 -0.486,0.336 -0.103,0.113 -0.262,0.145 -0.262,0.299 0,0.352 -0.374,0.473 -0.374,0.823 0,0.081 0.074,0.109 0.074,0.188 0,0.052 -0.074,0.061 -0.074,0.112 0,0.061 0.037,0.089 0.037,0.15 0,0.903 0.594,1.366 1.31,1.909 0.449,0.337 0.744,0.518 1.272,0.711 0.215,0.074 0.314,0.224 0.543,0.224 z M 359.65,61.601 c 0.107,0 0.178,-0.014 0.281,-0.038 -0.187,-0.046 -0.285,-0.149 -0.412,-0.298 l -0.186,0 c -0.01,0.055 -0.039,0.089 -0.039,0.149 0,0.154 0.202,0.187 0.356,0.187 z m 0.955,-14.482 c 0.15,0 0.318,-0.075 0.318,-0.224 0,-0.3 -0.29,-0.384 -0.523,-0.562 -0.379,-0.29 -0.711,-0.528 -0.711,-1.011 0,-0.228 -0.263,-0.295 -0.263,-0.523 0,-0.057 0.075,-0.075 0.075,-0.131 0,-0.159 -0.112,-0.234 -0.112,-0.394 0,-0.074 0.037,-0.112 0.037,-0.186 0,-0.402 0.534,-0.449 0.936,-0.449 l 0.412,0 c 0.879,0 1.328,0.486 2.208,0.486 0.191,0 0.271,0.131 0.449,0.188 0.57,0.186 0.884,0.35 1.459,0.523 1.31,0.397 2.054,0.617 3.368,1.011 0.674,0.201 1.034,0.486 1.741,0.486 0.556,0 0.846,0.267 1.403,0.299 0.649,0.038 1.014,0 1.665,0 0.238,0 0.355,-0.116 0.58,-0.187 0.421,-0.131 0.706,-0.169 1.048,-0.449 0.186,-0.154 0.486,-0.164 0.486,-0.411 0,-0.132 0.178,-0.146 0.225,-0.263 0.094,-0.233 0.187,-0.379 0.187,-0.636 0,-0.107 -0.075,-0.154 -0.075,-0.261 0,-0.08 0.075,-0.109 0.075,-0.188 0,-0.463 -0.201,-0.711 -0.412,-1.123 -0.224,-0.434 -0.35,-0.729 -0.748,-1.01 -0.365,-0.257 -0.823,-0.355 -0.823,-0.804 0,-0.773 0.299,-1.194 0.299,-1.965 0,-0.178 -0.075,-0.272 -0.075,-0.449 0,-0.066 0.075,-0.084 0.075,-0.15 0,-0.397 -0.187,-0.613 -0.187,-1.01 0,-0.197 -0.15,-0.291 -0.15,-0.487 0,-0.164 0.201,-0.178 0.337,-0.261 0.528,-0.328 0.907,-0.389 1.497,-0.599 0.28,-0.099 0.636,-0.131 0.636,-0.431 0,-0.823 -0.328,-1.239 -0.524,-2.039 -0.183,-0.734 -0.215,-1.684 -0.973,-1.684 l -1.647,0 c -0.069,0 -0.098,-0.076 -0.168,-0.076 -0.056,0 -0.075,0.076 -0.131,0.076 l -2.283,0 c -0.046,0.103 -0.15,0.145 -0.15,0.261 0,0.735 0.544,1.133 1.198,1.46 0.421,0.21 0.796,0.071 1.16,0.374 -0.205,0.332 -0.519,0.332 -0.86,0.525 -0.45,0.252 -0.674,0.453 -1.123,0.711 -0.482,0.275 -0.777,0.425 -1.198,0.785 -0.233,0.201 -0.308,0.487 -0.617,0.487 -0.379,0 -0.496,-0.342 -0.768,-0.599 -0.355,-0.336 -0.687,-0.421 -0.972,-0.824 -0.22,-0.308 -0.323,-0.523 -0.599,-0.785 -0.543,-0.519 -0.744,-0.945 -1.011,-1.646 -0.168,-0.45 -0.378,-0.899 -0.86,-0.899 l -4.79,0 c -0.183,0 -0.3,0.173 -0.3,0.356 0,0.187 0.131,0.271 0.225,0.43 0.243,0.403 0.44,0.65 0.861,0.861 0.641,0.318 1.005,0.635 1.721,0.635 l 0.599,0 c 0.417,0 0.556,0.426 0.673,0.824 0.202,0.673 0.45,1.039 0.45,1.74 0,0.332 0.214,0.487 0.299,0.805 -0.051,0.018 -0.075,0.075 -0.131,0.075 -0.299,0 -0.454,-0.15 -0.73,-0.262 -0.8,-0.332 -1.249,-0.561 -1.983,-1.011 -0.978,-0.598 -1.665,-0.697 -2.732,-1.123 -0.977,-0.387 -1.53,-0.785 -2.582,-0.785 l -0.524,0 c -0.093,0 -0.131,-0.075 -0.225,-0.075 l -1.122,0 c -0.248,0 -0.313,-0.248 -0.524,-0.374 -0.281,-0.169 -0.477,-0.196 -0.785,-0.3 -1.04,-0.346 -1.694,-0.327 -2.733,-0.673 -1.033,-0.342 -1.641,-0.469 -2.694,-0.749 -0.533,-0.14 -0.795,-0.444 -1.347,-0.449 -0.898,-0.009 -1.403,0.047 -2.302,0.075 -0.739,-0.211 -1.197,-0.149 -1.964,-0.149 l -0.861,0 c -0.22,0 -0.374,0.21 -0.374,0.429 0,0.108 0.037,0.174 0.037,0.282 0,0.421 0.272,0.635 0.599,0.897 0.397,0.318 0.65,0.599 1.16,0.599 l 1.609,0 c 0.093,0 0.131,-0.074 0.225,-0.074 l 0.486,0 c 0.515,0 0.688,0.43 1.085,0.748 0.547,0.435 0.969,0.585 1.422,1.123 -0.575,0.748 -1.314,0.715 -1.983,1.384 -0.416,0.416 -0.758,0.547 -1.16,0.973 -0.178,0.192 -0.524,0.183 -0.524,0.449 0,0.257 -0.248,0.327 -0.412,0.524 -0.309,0.37 -0.56,0.674 -1.048,0.674 l -0.448,0 c -0.313,0 -0.637,0.192 -0.637,0.504 0,0.384 0.262,0.567 0.562,0.805 0.514,0.412 0.804,0.777 1.459,0.861 0.286,0.038 0.464,0.042 0.749,0 0.51,-0.075 0.944,-0.224 1.122,-0.71 0.061,-0.164 -0.037,-0.361 0.112,-0.45 0.263,-0.159 0.491,-0.038 0.786,-0.112 0.361,-0.094 0.562,-0.225 0.936,-0.225 l 0.486,0 c 0.281,0 0.431,-0.112 0.711,-0.112 0.309,0 0.389,0.314 0.562,0.562 0.084,0.121 0.224,0.168 0.224,0.317 0,0.038 -0.037,0.057 -0.037,0.094 l -0.187,0 c -0.356,-0.309 -0.664,-0.449 -1.142,-0.449 -0.069,0 -0.168,0.004 -0.168,0.075 0,0.211 -0.149,0.313 -0.149,0.523 0,0.478 0.084,1.086 0.56,1.086 0.197,0 0.239,-0.201 0.375,-0.337 0.21,0.141 0.411,0.253 0.411,0.505 0,0.107 -0.037,0.173 -0.037,0.281 0,0.247 -0.052,0.561 -0.3,0.561 l -0.337,0 c -0.107,0 -0.154,-0.074 -0.261,-0.074 -0.239,0 -0.374,0.248 -0.374,0.486 0,0.079 0.075,0.107 0.075,0.188 0,0.097 -0.075,0.144 -0.075,0.243 0,0.935 0.888,1.281 1.759,1.628 0.898,0.355 1.445,0.598 2.414,0.598 0.084,0 0.121,-0.075 0.205,-0.075 l 0.412,0 c 0.055,0 0.075,0.075 0.131,0.075 0.07,0 0.102,-0.065 0.168,-0.075 0.576,-0.117 0.926,-0.112 1.516,-0.112 0.299,0 0.467,0.112 0.767,0.112 l 0.412,0 c 0.163,0 0.247,0.112 0.411,0.112 0.173,0 0.337,-0.126 0.337,-0.299 0,-0.051 -0.037,-0.08 -0.037,-0.131 0,-0.243 -0.375,-0.262 -0.375,-0.505 0,-0.346 0.15,-0.533 0.15,-0.88 0,-0.467 0.374,-0.673 0.374,-1.141 0,-0.08 -0.075,-0.107 -0.075,-0.187 0,-0.052 0.075,-0.066 0.075,-0.113 0.033,-0.416 0.024,-0.664 0,-1.085 -0.005,-0.112 -0.075,-0.168 -0.075,-0.28 0,-0.127 0.038,-0.192 0.038,-0.318 0,-0.22 0.247,-0.263 0.448,-0.337 0.604,-0.225 0.983,-0.3 1.628,-0.3 0.31,0 0.478,-0.074 0.786,-0.074 0.118,0 0.165,-0.112 0.281,-0.112 l 0.524,0 c 0.103,0 0.154,0.079 0.225,0.149 0.047,-0.079 0.094,-0.149 0.186,-0.149 1.025,0 1.559,0.486 2.583,0.486 0.524,0 0.767,0.374 1.291,0.374 0.36,0 0.529,0.234 0.879,0.3 0.664,0.126 1.058,0.093 1.722,0.224 0.421,0.084 0.654,0.225 1.085,0.225 l 0.674,0 c 0.135,0 0.206,0.098 0.337,0.111 0.94,0.117 1.482,-0.074 2.432,-0.074 0.178,0 0.276,-0.089 0.448,-0.112 0.272,-0.042 0.436,-0.037 0.712,-0.037 0.192,0 0.294,0.074 0.487,0.074 0.551,0 0.879,0.37 1.122,0.861 0.08,0.159 0.224,0.229 0.224,0.411 0,0.178 -0.074,0.272 -0.074,0.45 0,0.117 -0.15,0.144 -0.15,0.261 0,0.099 -0.15,0.057 -0.225,0.113 -0.346,0.261 -0.607,0.412 -1.048,0.412 -0.27,0 -0.421,0.074 -0.691,0.074 -1.601,0 -2.48,-0.397 -4.024,-0.823 -1.852,-0.515 -2.89,-0.814 -4.714,-1.422 -0.954,-0.319 -1.502,-0.58 -2.508,-0.636 -0.701,-0.043 -1.095,0.037 -1.796,0.037 -0.23,0 -0.332,0.168 -0.486,0.337 -0.104,0.112 -0.262,0.145 -0.262,0.299 0,0.351 -0.375,0.473 -0.375,0.823 0,0.08 0.075,0.109 0.075,0.188 0,0.051 -0.075,0.06 -0.075,0.112 0,0.06 0.038,0.089 0.038,0.149 0,0.904 0.594,1.367 1.31,1.91 0.449,0.336 0.743,0.518 1.272,0.711 0.215,0.074 0.313,0.224 0.542,0.224 z m -10.328,-1.423 c 0.107,0 0.178,-0.013 0.28,-0.037 -0.186,-0.047 -0.285,-0.149 -0.411,-0.299 l -0.188,0 c -0.008,0.056 -0.037,0.089 -0.037,0.15 0,0.154 0.202,0.186 0.356,0.186"
       id="path24"
       style="fill:#0066b3;fill-opacity:1;fill-rule:nonzero;stroke:none"
       inkscape:connector-curvature="0" /><path
       d="m 9.4917,15.562 2.5933,0 2.893,-7.0923 1.889,7.0923 2.593,0 -3.087,-11.5933 -2.594,0 -2.893,7.0923 -1.8884,-7.0923 -2.5933,0 3.0874,11.5933"
       id="path26"
       style="fill:#0066b3;fill-opacity:1;fill-rule:nonzero;stroke:none"
       inkscape:connector-curvature="0" /><path
       d="m 24.139,9.6904 c 0.856,0 1.336,-0.7929 1.069,-1.792 -0.261,-0.9834 -1.163,-1.7763 -2.019,-1.7763 -0.855,0 -1.345,0.8105 -1.084,1.7929 0.262,0.9825 1.164,1.7754 2.034,1.7754 z m 2.042,2.1396 -0.204,-0.765 c -0.411,0.713 -0.973,1.026 -1.844,1.026 -1.934,0 -3.898,-1.809 -4.528,-4.176 -0.625,-2.3496 0.38,-4.1924 2.314,-4.1924 0.916,0 1.67,0.3477 2.403,1.1299 l -0.232,-0.8691 2.405,0 2.089,7.8466 -2.403,0"
       id="path28"
       style="fill:#0066b3;fill-opacity:1;fill-rule:nonzero;stroke:none"
       inkscape:connector-curvature="0" /><path
       d="m 34.327,16.725 -1.561,-5.864 c 0.879,0.871 1.515,1.167 2.523,1.167 0.811,0 1.378,-0.296 1.706,-0.871 0.332,-0.557 0.339,-1.097 0.051,-2.1775 l -1.334,-5.0108 -2.404,0 1.06,3.9834 c 0.214,0.8018 0.241,0.9581 0.184,1.2539 -0.053,0.3663 -0.38,0.6094 -0.801,0.6094 C 33.36,9.8154 32.933,9.624 32.604,9.293 32.35,9.0146 32.195,8.7187 32.056,8.1963 l -1.125,-4.2276 -2.404,0 3.396,12.7563 2.404,0"
       id="path30"
       style="fill:#0066b3;fill-opacity:1;fill-rule:nonzero;stroke:none"
       inkscape:connector-curvature="0" /><path
       d="m 42.288,7.8105 2.726,4.0335 2.69,0 -5.643,-7.8753 -1.608,0 -1.418,7.8753 2.704,0 0.549,-4.0335"
       id="path32"
       style="fill:#0066b3;fill-opacity:1;fill-rule:nonzero;stroke:none"
       inkscape:connector-curvature="0" /><path
       d="m 50.08,9.0283 c 0.349,0.8067 0.948,1.2527 1.73,1.2527 0.676,0 1.074,-0.4802 1.033,-1.2527 l -2.763,0 z m 4.571,-1.6191 0.097,0.3662 c 0.705,2.6446 -0.285,4.2866 -2.568,4.2866 -2.329,0 -4.22,-1.625 -4.91,-4.2173 -0.68,-2.5517 0.432,-4.1865 2.836,-4.1865 1.158,0 2.369,0.4873 3.192,1.3223 0.387,0.3828 0.631,0.7304 0.973,1.3965 l -2.314,0 C 51.512,5.834 51.156,5.624 50.6,5.624 c -0.992,0 -1.319,0.5772 -1.012,1.7852 l 5.063,0"
       id="path34"
       style="fill:#0066b3;fill-opacity:1;fill-rule:nonzero;stroke:none"
       inkscape:connector-curvature="0" /><path
       d="m 60.007,11.831 -0.342,-1.287 c 0.82,0.991 1.572,1.391 2.608,1.391 0.166,0 0.226,0 0.462,-0.017 L 62.026,9.2568 c -0.33,0.2256 -0.542,0.2774 -0.947,0.2774 -1.127,0 -1.881,-0.7451 -2.269,-2.2032 l -0.896,-3.3623 -2.404,0 2.093,7.8623 2.404,0"
       id="path36"
       style="fill:#0066b3;fill-opacity:1;fill-rule:nonzero;stroke:none"
       inkscape:connector-curvature="0" /><path
       d="m 65.852,9.0088 3.278,2.8362 3.291,0 -4.379,-3.636 2.492,-4.2403 -3.381,0 -1.793,3.1963 -0.851,-3.1963 -2.403,0 3.393,12.7463 2.404,0 -2.051,-7.7062"
       id="path38"
       style="fill:#0066b3;fill-opacity:1;fill-rule:nonzero;stroke:none"
       inkscape:connector-curvature="0" /><path
       d="m 74.942,9.0283 c 0.35,0.8067 0.95,1.2527 1.731,1.2527 0.677,0 1.074,-0.4802 1.034,-1.2527 l -2.765,0 z m 4.572,-1.6191 0.097,0.3662 c 0.704,2.6446 -0.285,4.2866 -2.569,4.2866 -2.328,0 -4.219,-1.625 -4.91,-4.2173 -0.679,-2.5517 0.433,-4.1865 2.837,-4.1865 1.157,0 2.369,0.4873 3.192,1.3223 0.387,0.3828 0.63,0.7304 0.973,1.3965 l -2.314,0 C 76.376,5.834 76.019,5.624 75.463,5.624 c -0.992,0 -1.319,0.5772 -1.012,1.7852 l 5.063,0"
       id="path40"
       style="fill:#0066b3;fill-opacity:1;fill-rule:nonzero;stroke:none"
       inkscape:connector-curvature="0" /><path
       d="m 86.173,16.725 -1.561,-5.864 c 0.879,0.871 1.514,1.167 2.523,1.167 0.812,0 1.379,-0.296 1.706,-0.871 0.332,-0.557 0.339,-1.097 0.052,-2.1775 l -1.335,-5.0108 -2.404,0 1.061,3.9834 c 0.213,0.8018 0.24,0.9581 0.183,1.2539 -0.053,0.3663 -0.379,0.6094 -0.8,0.6094 -0.392,0 -0.819,-0.1914 -1.147,-0.5224 C 84.195,9.0146 84.042,8.7187 83.902,8.1963 l -1.125,-4.2276 -2.404,0 3.397,12.7563 2.403,0"
       id="path42"
       style="fill:#0066b3;fill-opacity:1;fill-rule:nonzero;stroke:none"
       inkscape:connector-curvature="0" /><path
       d="m 94.095,11.831 -0.343,-1.287 c 0.821,0.991 1.573,1.391 2.609,1.391 0.166,0 0.226,0 0.462,-0.017 L 96.114,9.2568 c -0.33,0.2256 -0.542,0.2774 -0.948,0.2774 -1.126,0 -1.881,-0.7451 -2.269,-2.2032 l -0.895,-3.3623 -2.404,0 2.093,7.8623 2.404,0"
       id="path44"
       style="fill:#0066b3;fill-opacity:1;fill-rule:nonzero;stroke:none"
       inkscape:connector-curvature="0" /><path
       d="m 102.249,9.8096 c -0.378,0.2594 -0.779,0.3804 -1.197,0.3804 -0.442,0 -0.808,-0.2242 -0.9,-0.5718 -0.055,-0.208 0.041,-0.3643 0.288,-0.4678 0.083,-0.0352 0.155,-0.0528 0.628,-0.1914 1.275,-0.3115 1.688,-1.0576 1.347,-2.3418 -0.471,-1.7676 -2.05,-2.9297 -4.023,-2.9297 -0.947,0 -1.754,0.2949 -2.48,0.9014 l 1.394,1.9589 C 97.807,6.0625 98.461,5.75 99.017,5.75 c 0.441,0 0.832,0.2607 0.924,0.6074 0.107,0.3994 -0.045,0.5205 -0.839,0.7285 -1.38,0.3467 -1.749,0.9366 -1.408,2.2207 0.2,0.7454 0.684,1.4934 1.279,1.9804 0.674,0.557 1.5,0.835 2.519,0.835 0.821,0 1.396,-0.139 2.046,-0.504 l -1.289,-1.8084"
       id="path46"
       style="fill:#0066b3;fill-opacity:1;fill-rule:nonzero;stroke:none"
       inkscape:connector-curvature="0" /><path
       d="m 108.641,9.7187 c 0.855,0 1.333,-0.7959 1.07,-1.7822 -0.263,-0.9863 -1.164,-1.7832 -2.019,-1.7832 -0.856,0 -1.333,0.7969 -1.07,1.7832 0.262,0.9863 1.164,1.7822 2.019,1.7822 z m 4.393,2.1183 -2.404,0 -0.217,-0.816 c -0.372,0.747 -0.878,1.041 -1.748,1.041 -1.963,0 -3.935,-1.839 -4.581,-4.2642 -0.619,-2.3242 0.317,-3.9824 2.25,-3.9824 0.9,0 1.51,0.2617 2.434,1.0293 l -0.195,-0.7324 c -0.315,-1.1816 -1.089,-1.8936 -2.065,-1.8936 -0.599,0 -0.905,0.2608 -0.926,0.7989 l -2.696,0 C 102.811,2.3408 102.88,1.9248 103.186,1.3867 103.695,0.4336 104.568,0 105.948,0 c 1.29,0 2.407,0.41599 3.354,1.2656 0.923,0.8154 1.337,1.5781 1.782,3.2481 l 1.95,7.3233"
       id="path48"
       style="fill:#0066b3;fill-opacity:1;fill-rule:nonzero;stroke:none"
       inkscape:connector-curvature="0" /><path
       d="m 116.725,9.0283 c 0.351,0.8067 0.95,1.2527 1.732,1.2527 0.675,0 1.073,-0.4802 1.033,-1.2527 l -2.765,0 z m 4.572,-1.6191 0.098,0.3662 c 0.704,2.6446 -0.286,4.2866 -2.569,4.2866 -2.329,0 -4.22,-1.625 -4.91,-4.2173 -0.68,-2.5517 0.432,-4.1865 2.836,-4.1865 1.158,0 2.369,0.4873 3.192,1.3223 0.388,0.3828 0.63,0.7304 0.973,1.3965 l -2.314,0 c -0.445,-0.543 -0.801,-0.753 -1.357,-0.753 -0.992,0 -1.319,0.5772 -1.012,1.7852 l 5.063,0"
       id="path50"
       style="fill:#0066b3;fill-opacity:1;fill-rule:nonzero;stroke:none"
       inkscape:connector-curvature="0" /><path
       d="m 128.256,9.8096 c -0.379,0.2594 -0.779,0.3804 -1.198,0.3804 -0.441,0 -0.807,-0.2242 -0.899,-0.5718 -0.056,-0.208 0.04,-0.3643 0.288,-0.4678 0.083,-0.0352 0.155,-0.0528 0.627,-0.1914 1.276,-0.3115 1.69,-1.0576 1.348,-2.3418 -0.471,-1.7676 -2.05,-2.9297 -4.023,-2.9297 -0.947,0 -1.755,0.2949 -2.48,0.9014 l 1.394,1.9589 c 0.501,-0.4853 1.155,-0.7978 1.71,-0.7978 0.442,0 0.833,0.2607 0.925,0.6074 0.106,0.3994 -0.045,0.5205 -0.839,0.7285 -1.38,0.3467 -1.749,0.9366 -1.407,2.2207 0.198,0.7454 0.683,1.4934 1.278,1.9804 0.675,0.557 1.5,0.835 2.518,0.835 0.821,0 1.397,-0.139 2.046,-0.504 l -1.288,-1.8084"
       id="path52"
       style="fill:#0066b3;fill-opacity:1;fill-rule:nonzero;stroke:none"
       inkscape:connector-curvature="0" /><path
       d="m 132.891,9.0283 c 0.35,0.8067 0.95,1.2527 1.732,1.2527 0.675,0 1.073,-0.4802 1.033,-1.2527 l -2.765,0 z m 4.572,-1.6191 0.098,0.3662 c 0.704,2.6446 -0.286,4.2866 -2.569,4.2866 -2.329,0 -4.22,-1.625 -4.91,-4.2173 -0.68,-2.5517 0.433,-4.1865 2.836,-4.1865 1.158,0 2.369,0.4873 3.192,1.3223 0.388,0.3828 0.63,0.7304 0.973,1.3965 l -2.314,0 c -0.445,-0.543 -0.801,-0.753 -1.357,-0.753 -0.992,0 -1.319,0.5772 -1.013,1.7852 l 5.064,0"
       id="path54"
       style="fill:#0066b3;fill-opacity:1;fill-rule:nonzero;stroke:none"
       inkscape:connector-curvature="0" /><path
       d="m 140.726,3.9687 -2.404,0 3.394,12.7463 2.404,0 -3.394,-12.7463"
       id="path56"
       style="fill:#0066b3;fill-opacity:1;fill-rule:nonzero;stroke:none"
       inkscape:connector-curvature="0" /><path
       d="m 145.173,3.9687 -2.404,0 3.395,12.7463 2.403,0 -3.394,-12.7463"
       id="path58"
       style="fill:#0066b3;fill-opacity:1;fill-rule:nonzero;stroke:none"
       inkscape:connector-curvature="0" /><path
       d="m 153.316,9.8096 c -0.379,0.2594 -0.779,0.3804 -1.197,0.3804 -0.442,0 -0.808,-0.2242 -0.9,-0.5718 -0.055,-0.208 0.041,-0.3643 0.288,-0.4678 0.083,-0.0352 0.155,-0.0528 0.627,-0.1914 1.276,-0.3115 1.689,-1.0576 1.347,-2.3418 -0.47,-1.7676 -2.049,-2.9297 -4.022,-2.9297 -0.947,0 -1.754,0.2949 -2.479,0.9014 l 1.393,1.9589 c 0.502,-0.4853 1.154,-0.7978 1.711,-0.7978 0.441,0 0.832,0.2607 0.924,0.6074 0.107,0.3994 -0.045,0.5205 -0.839,0.7285 -1.38,0.3467 -1.749,0.9366 -1.407,2.2207 0.198,0.7454 0.683,1.4934 1.279,1.9804 0.674,0.557 1.499,0.835 2.517,0.835 0.822,0 1.397,-0.139 2.046,-0.504 l -1.288,-1.8084"
       id="path60"
       style="fill:#0066b3;fill-opacity:1;fill-rule:nonzero;stroke:none"
       inkscape:connector-curvature="0" /><path
       d="m 160.953,9.3076 c -0.368,0.3662 -0.677,0.5049 -1.113,0.5049 -0.946,0 -1.866,-0.8008 -2.153,-1.8809 -0.306,-1.1484 0.161,-1.9326 1.168,-1.9326 0.436,0 0.872,0.1738 1.355,0.5225 l -0.629,-2.3662 c -0.7,-0.3135 -1.198,-0.4346 -1.813,-0.4346 -1.142,0 -2.114,0.626 -2.549,1.6348 -0.293,0.6963 -0.305,1.5488 -0.051,2.5068 0.653,2.4517 2.729,4.2317 4.934,4.2317 0.601,0 1.02,-0.12 1.478,-0.432 l -0.627,-2.3544"
       id="path62"
       style="fill:#0066b3;fill-opacity:1;fill-rule:nonzero;stroke:none"
       inkscape:connector-curvature="0" /><path
       d="m 167.424,16.725 -1.561,-5.864 c 0.88,0.871 1.514,1.167 2.523,1.167 0.812,0 1.379,-0.296 1.707,-0.871 0.331,-0.557 0.338,-1.097 0.051,-2.1775 l -1.335,-5.0108 -2.404,0 1.061,3.9834 c 0.213,0.8018 0.24,0.9581 0.183,1.2539 -0.053,0.3663 -0.379,0.6094 -0.801,0.6094 -0.391,0 -0.817,-0.1914 -1.146,-0.5224 -0.255,-0.2784 -0.409,-0.5743 -0.549,-1.0967 l -1.125,-4.2276 -2.404,0 3.397,12.7563 2.403,0"
       id="path64"
       style="fill:#0066b3;fill-opacity:1;fill-rule:nonzero;stroke:none"
       inkscape:connector-curvature="0" /><path
       d="m 176.182,9.6904 c 0.857,0 1.335,-0.7929 1.069,-1.792 -0.261,-0.9834 -1.164,-1.7763 -2.019,-1.7763 -0.855,0 -1.345,0.8105 -1.084,1.7929 0.262,0.9825 1.164,1.7754 2.034,1.7754 z m 2.041,2.1396 -0.203,-0.765 c -0.411,0.713 -0.973,1.026 -1.844,1.026 -1.933,0 -3.898,-1.809 -4.528,-4.176 -0.625,-2.3496 0.38,-4.1924 2.314,-4.1924 0.916,0 1.669,0.3477 2.403,1.1299 l -0.232,-0.8691 2.405,0 2.089,7.8466 -2.404,0"
       id="path66"
       style="fill:#0066b3;fill-opacity:1;fill-rule:nonzero;stroke:none"
       inkscape:connector-curvature="0" /><path
       d="m 183.192,3.9687 -2.404,0 1.481,5.5625 -0.856,0 0.616,2.3128 0.857,0 0.321,1.208 c 0.354,1.331 0.75,2.027 1.541,2.74 0.791,0.714 1.694,1.113 2.52,1.113 0.405,0 0.628,-0.069 0.988,-0.296 l -0.645,-2.419 c -0.334,0.21 -0.511,0.281 -0.766,0.281 -0.315,0 -0.722,-0.229 -0.906,-0.526 -0.127,-0.192 -0.212,-0.455 -0.384,-1.103 l -0.265,-0.998 1.697,0 -0.615,-2.3128 -1.699,0 -1.481,-5.5625"
       id="path68"
       style="fill:#0066b3;fill-opacity:1;fill-rule:nonzero;stroke:none"
       inkscape:connector-curvature="0" /><path
       d="m 189.249,3.9687 -2.404,0 1.482,5.5625 -0.797,0 0.616,2.3128 0.796,0 0.631,2.366 2.404,0 -0.631,-2.366 1.368,0 -0.616,-2.3128 -1.368,0 -1.481,-5.5625"
       id="path70"
       style="fill:#0066b3;fill-opacity:1;fill-rule:nonzero;stroke:none"
       inkscape:connector-curvature="0" /><path
       d="m 200.772,10.997 0.608,2.284 0.478,0 c 0.792,0 1.103,-0.4 0.908,-1.133 -0.199,-0.75 -0.724,-1.151 -1.516,-1.151 l -0.478,0 z m -4.466,-7.0283 4.174,0 c 2.162,0 3.784,1.25 4.341,3.3379 0.222,0.837 0.185,1.6553 -0.079,2.125 -0.229,0.3828 -0.528,0.5567 -1.205,0.7134 0.901,0.54 1.4,1.236 1.711,2.404 0.522,1.96 -0.183,3.013 -2.005,3.013 l -3.849,0 -3.088,-11.5933 z m 3.219,2.3438 0.649,2.4404 0.523,0 c 0.851,0 1.066,-0.0342 1.318,-0.209 0.278,-0.1914 0.357,-0.5752 0.236,-1.0283 -0.111,-0.418 -0.444,-0.8193 -0.791,-0.9931 -0.323,-0.1397 -0.762,-0.21 -1.364,-0.21 l -0.571,0"
       id="path72"
       style="fill:#0066b3;fill-opacity:1;fill-rule:nonzero;stroke:none"
       inkscape:connector-curvature="0" /><path
       d="m 211.083,9.6904 c 0.855,0 1.335,-0.7929 1.068,-1.792 -0.262,-0.9834 -1.163,-1.7763 -2.019,-1.7763 -0.856,0 -1.345,0.8105 -1.084,1.7929 0.262,0.9825 1.163,1.7754 2.035,1.7754 z m 2.041,2.1396 -0.205,-0.765 c -0.41,0.713 -0.972,1.026 -1.843,1.026 -1.934,0 -3.898,-1.809 -4.528,-4.176 -0.626,-2.3496 0.38,-4.1924 2.314,-4.1924 0.916,0 1.669,0.3477 2.403,1.1299 l -0.231,-0.8691 2.403,0 2.09,7.8466 -2.403,0"
       id="path74"
       style="fill:#0066b3;fill-opacity:1;fill-rule:nonzero;stroke:none"
       inkscape:connector-curvature="0" /><path
       d="m 220.803,9.6904 c 0.856,0 1.335,-0.7929 1.069,-1.792 -0.262,-0.9834 -1.164,-1.7763 -2.019,-1.7763 -0.856,0 -1.346,0.8105 -1.084,1.7929 0.262,0.9825 1.163,1.7754 2.034,1.7754 z m 3.338,7.0096 -1.501,-5.635 c -0.411,0.713 -0.972,1.026 -1.844,1.026 -1.933,0 -3.897,-1.809 -4.527,-4.176 -0.626,-2.3496 0.38,-4.1924 2.314,-4.1924 0.916,0 1.668,0.3477 2.403,1.1299 l -0.232,-0.8691 2.404,0 3.386,12.7166 -2.403,0"
       id="path76"
       style="fill:#0066b3;fill-opacity:1;fill-rule:nonzero;stroke:none"
       inkscape:connector-curvature="0" /><path
       d="m 228.758,9.0283 c 0.351,0.8067 0.95,1.2527 1.732,1.2527 0.676,0 1.074,-0.4802 1.033,-1.2527 l -2.765,0 z m 4.573,-1.6191 0.097,0.3662 c 0.704,2.6446 -0.286,4.2866 -2.569,4.2866 -2.329,0 -4.22,-1.625 -4.91,-4.2173 -0.679,-2.5517 0.432,-4.1865 2.837,-4.1865 1.157,0 2.368,0.4873 3.191,1.3223 0.388,0.3828 0.631,0.7304 0.974,1.3965 l -2.315,0 c -0.444,-0.543 -0.801,-0.753 -1.357,-0.753 -0.991,0 -1.319,0.5772 -1.012,1.7852 l 5.064,0"
       id="path78"
       style="fill:#0066b3;fill-opacity:1;fill-rule:nonzero;stroke:none"
       inkscape:connector-curvature="0" /><path
       d="m 238.693,11.854 -0.265,-0.993 c 0.88,0.871 1.515,1.167 2.524,1.167 0.811,0 1.378,-0.296 1.706,-0.871 0.332,-0.557 0.339,-1.097 0.05,-2.1775 l -1.333,-5.0108 -2.405,0 1.061,3.9834 c 0.214,0.8018 0.24,0.9581 0.183,1.2539 -0.052,0.3663 -0.379,0.6094 -0.8,0.6094 -0.391,0 -0.818,-0.1914 -1.147,-0.5224 -0.255,-0.2784 -0.409,-0.5743 -0.548,-1.0967 l -1.126,-4.2276 -2.404,0 2.101,7.8853 2.403,0"
       id="path80"
       style="fill:#0066b3;fill-opacity:1;fill-rule:nonzero;stroke:none"
       inkscape:connector-curvature="0" /><path
       d="m 247.817,9.25 -0.616,-2.3125 -3.807,0 0.615,2.3125 3.808,0"
       id="path82"
       style="fill:#0066b3;fill-opacity:1;fill-rule:nonzero;stroke:none"
       inkscape:connector-curvature="0" /><path
       d="m 252.619,8.0703 4.113,7.4917 2.073,0 -0.026,-7.4917 3.887,7.4917 2.72,0 -6.288,-11.5933 -2.659,0 -0.031,6.7103 -3.71,-6.7103 -2.644,0 0.097,11.5933 2.72,0 -0.252,-7.4917"
       id="path84"
       style="fill:#0066b3;fill-opacity:1;fill-rule:nonzero;stroke:none"
       inkscape:connector-curvature="0" /><path
       d="m 266.831,7.3808 c -0.255,-0.956 0.024,-1.4433 0.858,-1.4433 0.818,0 1.357,0.4873 1.612,1.4433 l 1.189,4.4632 2.404,0 -1.332,-5.0022 c -0.554,-2.0791 -2.11,-3.1856 -4.48,-3.1856 -2.385,0 -3.353,1.1065 -2.799,3.1856 l 1.332,5.0022 2.404,0 -1.188,-4.4632 z m 2.751,7.1902 c -0.222,-0.832 -0.989,-1.509 -1.694,-1.509 -0.72,0 -1.124,0.677 -0.902,1.509 0.217,0.816 0.982,1.491 1.701,1.491 0.705,0 1.112,-0.675 0.895,-1.491 z m 3.406,0 c -0.222,-0.832 -0.988,-1.509 -1.694,-1.509 -0.719,0 -1.124,0.677 -0.902,1.509 0.217,0.816 0.983,1.491 1.701,1.491 0.705,0 1.112,-0.675 0.895,-1.491"
       id="path86"
       style="fill:#0066b3;fill-opacity:1;fill-rule:nonzero;stroke:none"
       inkscape:connector-curvature="0" /><path
       d="m 277.315,11.831 -0.343,-1.287 c 0.82,0.991 1.573,1.391 2.61,1.391 0.165,0 0.225,0 0.46,-0.017 l -0.708,-2.6612 c -0.331,0.2256 -0.542,0.2774 -0.948,0.2774 -1.127,0 -1.881,-0.7451 -2.269,-2.2032 l -0.896,-3.3623 -2.403,0 2.094,7.8623 2.403,0"
       id="path88"
       style="fill:#0066b3;fill-opacity:1;fill-rule:nonzero;stroke:none"
       inkscape:connector-curvature="0" /><path
       d="m 282.386,3.9687 -2.404,0 1.481,5.5625 -0.795,0 0.615,2.3128 0.797,0 0.63,2.366 2.403,0 -0.63,-2.366 1.367,0 -0.615,-2.3128 -1.367,0 -1.482,-5.5625"
       id="path90"
       style="fill:#0066b3;fill-opacity:1;fill-rule:nonzero;stroke:none"
       inkscape:connector-curvature="0" /><path
       d="m 287.75,3.9687 -2.405,0 1.482,5.5625 -0.796,0 0.615,2.3128 0.797,0 0.63,2.366 2.404,0 -0.63,-2.366 1.367,0 -0.616,-2.3128 -1.367,0 -1.481,-5.5625"
       id="path92"
       style="fill:#0066b3;fill-opacity:1;fill-rule:nonzero;stroke:none"
       inkscape:connector-curvature="0" /><path
       d="m 294.116,9.0283 c 0.349,0.8067 0.949,1.2527 1.73,1.2527 0.677,0 1.074,-0.4802 1.034,-1.2527 l -2.764,0 z m 4.572,-1.6191 0.097,0.3662 c 0.705,2.6446 -0.285,4.2866 -2.569,4.2866 -2.329,0 -4.219,-1.625 -4.91,-4.2173 -0.68,-2.5517 0.433,-4.1865 2.837,-4.1865 1.157,0 2.368,0.4873 3.191,1.3223 0.388,0.3828 0.631,0.7304 0.973,1.3965 l -2.313,0 c -0.446,-0.543 -0.802,-0.753 -1.358,-0.753 -0.991,0 -1.318,0.5772 -1.011,1.7852 l 5.063,0"
       id="path94"
       style="fill:#0066b3;fill-opacity:1;fill-rule:nonzero;stroke:none"
       inkscape:connector-curvature="0" /><path
       d="m 304.048,11.848 -0.257,-0.969 c 0.92,0.796 1.603,1.09 2.494,1.09 1.066,0 1.657,-0.433 1.925,-1.455 0.8,0.977 1.7,1.483 2.705,1.483 0.795,0 1.44,-0.401 1.639,-1.064 0.14,-0.437 0.107,-1.0121 -0.116,-1.849 l -1.362,-5.1153 -2.405,0 1.037,3.8965 c 0.214,0.8008 0.236,0.9405 0.2,1.2539 -0.034,0.4356 -0.294,0.6963 -0.684,0.6963 -0.405,0 -0.889,-0.2959 -1.182,-0.7246 -0.2,-0.2969 -0.332,-0.6279 -0.491,-1.2207 l -1.038,-3.9014 -2.404,0 1.039,3.9014 c 0.223,0.8369 0.245,0.9766 0.228,1.2559 -0.019,0.4355 -0.343,0.749 -0.75,0.749 -0.363,0 -0.865,-0.2959 -1.113,-0.6621 -0.195,-0.2793 -0.338,-0.6455 -0.524,-1.3428 l -1.038,-3.9014 -2.405,0 2.099,7.8793 2.403,0"
       id="path96"
       style="fill:#0066b3;fill-opacity:1;fill-rule:nonzero;stroke:none"
       inkscape:connector-curvature="0" /><path
       d="m 318.557,9.6904 c 0.865,0 1.352,-0.7929 1.09,-1.7754 -0.267,-1 -1.175,-1.7929 -2.04,-1.7929 -0.864,0 -1.365,0.7929 -1.104,1.7763 0.267,0.9991 1.175,1.792 2.054,1.792 z m 0.365,7.0096 -2.403,0 -3.387,-12.7166 2.404,0 0.232,0.8691 c 0.322,-0.7822 0.897,-1.1299 1.821,-1.1299 1.945,0 3.932,1.8428 4.558,4.1924 0.63,2.367 -0.37,4.176 -2.313,4.176 -0.879,0 -1.616,-0.313 -2.412,-1.026 l 1.5,5.635"
       id="path98"
       style="fill:#0066b3;fill-opacity:1;fill-rule:nonzero;stroke:none"
       inkscape:connector-curvature="0" /><path
       d="m 326.418,9.0283 c 0.35,0.8067 0.95,1.2527 1.731,1.2527 0.676,0 1.074,-0.4802 1.033,-1.2527 l -2.764,0 z m 4.572,-1.6191 0.097,0.3662 c 0.705,2.6446 -0.286,4.2866 -2.569,4.2866 -2.329,0 -4.219,-1.625 -4.909,-4.2173 -0.68,-2.5517 0.433,-4.1865 2.836,-4.1865 1.157,0 2.368,0.4873 3.192,1.3223 0.387,0.3828 0.63,0.7304 0.973,1.3965 l -2.315,0 c -0.444,-0.543 -0.8,-0.753 -1.357,-0.753 -0.991,0 -1.318,0.5772 -1.012,1.7852 l 5.064,0"
       id="path100"
       style="fill:#0066b3;fill-opacity:1;fill-rule:nonzero;stroke:none"
       inkscape:connector-curvature="0" /><path
       d="m 336.346,11.831 -0.343,-1.287 c 0.82,0.991 1.573,1.391 2.61,1.391 0.165,0 0.224,0 0.461,-0.017 l -0.709,-2.6612 c -0.33,0.2256 -0.542,0.2774 -0.947,0.2774 -1.127,0 -1.882,-0.7451 -2.27,-2.2032 l -0.896,-3.3623 -2.404,0 2.094,7.8623 2.404,0"
       id="path102"
       style="fill:#0066b3;fill-opacity:1;fill-rule:nonzero;stroke:none"
       inkscape:connector-curvature="0" /><path
       d="m 343.828,9.7187 c 0.854,0 1.333,-0.7959 1.07,-1.7822 -0.263,-0.9863 -1.165,-1.7832 -2.02,-1.7832 -0.855,0 -1.333,0.7969 -1.07,1.7832 0.263,0.9863 1.164,1.7822 2.02,1.7822 z m 4.392,2.1183 -2.403,0 -0.218,-0.816 c -0.371,0.747 -0.878,1.041 -1.747,1.041 -1.963,0 -3.936,-1.839 -4.581,-4.2642 -0.619,-2.3242 0.316,-3.9824 2.249,-3.9824 0.9,0 1.51,0.2617 2.435,1.0293 l -0.196,-0.7324 c -0.314,-1.1816 -1.089,-1.8936 -2.064,-1.8936 -0.6,0 -0.905,0.2608 -0.927,0.7989 l -2.695,0 C 337.998,2.3408 338.066,1.9248 338.372,1.3867 338.881,0.4336 339.754,0 341.134,0 c 1.29,0 2.408,0.41599 3.355,1.2656 0.923,0.8154 1.337,1.5781 1.781,3.2481 l 1.95,7.3233"
       id="path104"
       style="fill:#0066b3;fill-opacity:1;fill-rule:nonzero;stroke:none"
       inkscape:connector-curvature="0" /><path
       d="m 356.841,11.848 -0.257,-0.969 c 0.921,0.796 1.603,1.09 2.494,1.09 1.066,0 1.657,-0.433 1.926,-1.455 0.8,0.977 1.7,1.483 2.704,1.483 0.796,0 1.44,-0.401 1.639,-1.064 0.14,-0.437 0.107,-1.0121 -0.116,-1.849 l -1.362,-5.1153 -2.405,0 1.038,3.8965 c 0.213,0.8008 0.236,0.9405 0.2,1.2539 -0.034,0.4356 -0.295,0.6963 -0.685,0.6963 -0.404,0 -0.888,-0.2959 -1.183,-0.7246 -0.198,-0.2969 -0.332,-0.6279 -0.489,-1.2207 l -1.039,-3.9014 -2.404,0 1.039,3.9014 c 0.223,0.8369 0.245,0.9766 0.228,1.2559 -0.019,0.4355 -0.343,0.749 -0.751,0.749 -0.362,0 -0.864,-0.2959 -1.112,-0.6621 -0.195,-0.2793 -0.338,-0.6455 -0.523,-1.3428 l -1.039,-3.9014 -2.405,0 2.099,7.8793 2.403,0"
       id="path106"
       style="fill:#0066b3;fill-opacity:1;fill-rule:nonzero;stroke:none"
       inkscape:connector-curvature="0" /><path
       d="m 371.351,9.6904 c 0.864,0 1.351,-0.7929 1.089,-1.7754 -0.266,-1 -1.175,-1.7929 -2.039,-1.7929 -0.865,0 -1.366,0.7929 -1.105,1.7763 0.267,0.9991 1.175,1.792 2.055,1.792 z m 0.365,7.0096 -2.404,0 -3.387,-12.7166 2.405,0 0.231,0.8691 c 0.322,-0.7822 0.897,-1.1299 1.822,-1.1299 1.944,0 3.931,1.8428 4.557,4.1924 0.631,2.367 -0.37,4.176 -2.313,4.176 -0.879,0 -1.615,-0.313 -2.412,-1.026 l 1.501,5.635"
       id="path108"
       style="fill:#0066b3;fill-opacity:1;fill-rule:nonzero;stroke:none"
       inkscape:connector-curvature="0" /><path
       d="m 384.164,11.094 1.19,4.468 2.594,0 -3.088,-11.5933 -2.594,0 1.274,4.7813 -3.782,0 -1.273,-4.7813 -2.594,0 3.088,11.5933 2.594,0 -1.191,-4.468 3.782,0"
       id="path110"
       style="fill:#0066b3;fill-opacity:1;fill-rule:nonzero;stroke:none"
       inkscape:connector-curvature="0" /><path
       d="m 220.418,79.23 -0.663,-29.82 c 0.943,3.108 14.438,29.82 14.438,29.82 l 15.914,0 -29.192,-49.355 -13.083,0 -3.328,49.355 15.914,0 z m 43.064,-18.99 1.875,7.137 2.359,0 c 2.546,0 3.391,-1.041 2.766,-3.42 -0.606,-2.305 -2.343,-3.717 -4.578,-3.717 l -2.422,0 z m -9.113,18.988 -12.967,-49.363 21.253,0 c 4.841,0 9.566,1.696 12.632,4.499 2.634,2.361 4.823,5.901 5.7,9.239 0.666,2.535 0.663,4.92 -0.05,6.998 -0.631,1.913 -1.726,3.016 -4.342,4.561 l 0.097,0.368 c 1.995,0.883 2.904,1.472 3.931,2.502 1.901,1.913 3.378,4.661 4.238,7.932 0.721,2.746 0.641,5.56 -0.223,7.782 -1.42,3.704 -5.297,5.482 -12.008,5.482 l -18.261,0 z m 4.254,-37.488 2.134,8.125 3.291,0 c 2.678,0 3.947,-1.565 3.3,-4.025 -0.685,-2.61 -2.693,-4.1 -5.679,-4.1 l -3.046,0 z"
       id="path112"
       style="fill:none;stroke:#0066b3;stroke-width:2;stroke-linecap:butt;stroke-linejoin:miter;stroke-miterlimit:4;stroke-opacity:1;stroke-dasharray:none"
       inkscape:connector-curvature="0" /><g
       id="g114"><g
         clip-path="url(#clipPath118)"
         id="g116"><path
           d="m 315.402,33.24 1.056,16.762 c 0.142,2.22 0.303,3.552 0.951,6.733 l -0.504,0 c -1.039,-3.477 -1.572,-5.032 -2.398,-6.733 l -9.627,-20.127 -12.957,0 -1.755,49.355 15.789,0 -1.55,-23.382 c -0.06,-1.185 -0.265,-2.443 -0.903,-6.069 l 0.378,0 c 1.383,4.071 2.121,5.92 3.266,8.362 l 10.131,21.089 11.699,0 -1.065,-22.495 c -0.016,-1.257 -0.294,-3.034 -0.947,-6.956 l 0.315,0 c 1.282,3.922 2,5.699 3.023,7.918 l 9.996,21.533 15.851,0 -28.437,-49.302 73.938,-0.046"
           id="path122"
           style="fill:none;stroke:#0066b3;stroke-width:2;stroke-linecap:round;stroke-linejoin:miter;stroke-miterlimit:4;stroke-opacity:1;stroke-dasharray:none"
           inkscape:connector-curvature="0" /><path
           d="m 160.852,33.721 5.221,21.865 c 0.355,-2.96 6.533,-25.898 6.533,-25.898 l 14.593,0 12.964,49.354 -14.594,0 c 0,0 -5.467,-22.494 -5.869,-27.378 l -6.899,27.378 -14.593,0 -13.181,-49.16 -120.845,0 c 0,0 -12.75,-0.702 -17.5619,3.186 -9.125,7.375 -6.99998,14.334 5.3339,28.667 6.345,7.374 10.779,13.523 17.333,19.667 5.333,5 25.698,3.379 37.895,3.98 10.312,0.507 315.71,0.415 355.595,0.358"
           id="path124"
           style="fill:none;stroke:#0066b3;stroke-width:2;stroke-linecap:butt;stroke-linejoin:miter;stroke-miterlimit:4;stroke-opacity:1;stroke-dasharray:none"
           inkscape:connector-curvature="0" /></g></g><path
       d="m 160.652,28.865 3.471,14.362 -1.721,1.201 -3.742,-15.594 1.992,0.031"
       id="path126"
       style="fill:#0066b3;fill-opacity:1;fill-rule:nonzero;stroke:none"
       inkscape:connector-curvature="0" /><path
       d="m 316.089,28.865 0.563,9.438 -1.813,0.687 -0.687,-10.125 1.937,0"
       id="path128"
       style="fill:#0066b3;fill-opacity:1;fill-rule:nonzero;stroke:none"
       inkscape:connector-curvature="0" /></g></svg>