<?xml version="1.0" encoding="UTF-8" standalone="no"?>
<!-- Created with Inkscape (http://www.inkscape.org/) -->

<svg
   xmlns:dc="http://purl.org/dc/elements/1.1/"
   xmlns:cc="http://creativecommons.org/ns#"
   xmlns:rdf="http://www.w3.org/1999/02/22-rdf-syntax-ns#"
   xmlns:svg="http://www.w3.org/2000/svg"
   xmlns="http://www.w3.org/2000/svg"
   xmlns:sodipodi="http://sodipodi.sourceforge.net/DTD/sodipodi-0.dtd"
   xmlns:inkscape="http://www.inkscape.org/namespaces/inkscape"
   width="96"
   height="96"
   viewBox="0 0 96.000001 96.000002"
   id="svg4136"
   version="1.1"
   inkscape:version="0.91 r13725"
   inkscape:export-filename="/home/master/network_mvg_logo.png"
   inkscape:export-xdpi="90"
   inkscape:export-ydpi="90"
   sodipodi:docname="network_linz_logo.svg">
  <defs
     id="defs4138">
    <clipPath
       id="clipPath3470"
       clipPathUnits="userSpaceOnUse">
      <path
         inkscape:connector-curvature="0"
         id="path3472"
         d="m 0,0 937.559,0 0,841.89 L 0,841.89 0,0 Z" />
    </clipPath>
    <clipPath
       id="clipPath3506"
       clipPathUnits="userSpaceOnUse">
      <path
         inkscape:connector-curvature="0"
         id="path3508"
         d="m 1119.766,4.513 39.711,0 0,26.33 -39.711,0 0,-26.33 z" />
    </clipPath>
  </defs>
  <sodipodi:namedview
     id="base"
     pagecolor="#ffffff"
     bordercolor="#666666"
     borderopacity="1.0"
     inkscape:pageopacity="1"
     inkscape:pageshadow="2"
     inkscape:zoom="8.1026074"
     inkscape:cx="27.348121"
     inkscape:cy="55.469045"
     inkscape:document-units="px"
     inkscape:current-layer="layer1"
     showgrid="true"
     units="px"
     inkscape:window-width="1855"
     inkscape:window-height="1056"
     inkscape:window-x="65"
     inkscape:window-y="24"
     inkscape:window-maximized="1"
     showguides="false">
    <inkscape:grid
       type="xygrid"
       id="grid4856" />
  </sodipodi:namedview>
  <metadata
     id="metadata4141">
    <rdf:RDF>
      <cc:Work
         rdf:about="">
        <dc:format>image/svg+xml</dc:format>
        <dc:type
           rdf:resource="http://purl.org/dc/dcmitype/StillImage" />
        <dc:title></dc:title>
        <cc:license
           rdf:resource="http://creativecommons.org/publicdomain/zero/1.0/" />
      </cc:Work>
      <cc:License
         rdf:about="http://creativecommons.org/publicdomain/zero/1.0/">
        <cc:permits
           rdf:resource="http://creativecommons.org/ns#Reproduction" />
        <cc:permits
           rdf:resource="http://creativecommons.org/ns#Distribution" />
        <cc:permits
           rdf:resource="http://creativecommons.org/ns#DerivativeWorks" />
      </cc:License>
    </rdf:RDF>
  </metadata>
  <g
     inkscape:label="Ebene 1"
     inkscape:groupmode="layer"
     id="layer1"
     transform="translate(0,-956.36216)">
    <rect
       style="fill:#ffffff;fill-opacity:1;stroke:#01ffff;stroke-width:0;stroke-linecap:butt;stroke-linejoin:miter;stroke-miterlimit:0;stroke-dasharray:none;stroke-opacity:1"
       id="rect4267"
       width="95.999954"
       height="95.999969"
       x="2.3284263e-05"
       y="956.36218" />
    <path
       d="m 90.733626,1020.0508 c 0,-0.7972 0.309115,-1.5794 1.228952,-1.5794 0.927345,0 1.291525,0.7421 1.291525,1.5481 0,0.7659 -0.347911,1.5393 -1.252729,1.5393 -0.871029,0 -1.267748,-0.7421 -1.267748,-1.508 m 3.171246,-3.6331 -0.674547,0 0,2.1012 -0.01502,0 c -0.301606,-0.4818 -0.904818,-0.6395 -1.324063,-0.6395 -1.25273,0 -1.87096,0.9712 -1.87096,2.1238 0,1.1526 0.625739,2.1475 1.885977,2.1475 0.563165,0 1.086283,-0.1964 1.309046,-0.647 l 0.01502,0 0,0.5532 0.674547,0 0,-5.6392 z m -8.148374,5.6392 0.673296,0 0,-2.3065 c 0,-0.7346 0.396718,-1.279 1.212682,-1.279 0.515609,0 0.832233,0.3241 0.832233,0.821 l 0,2.7645 0.674546,0 0,-2.6857 c 0,-0.876 -0.332893,-1.4918 -1.411667,-1.4918 -0.586943,0 -1.046236,0.2366 -1.331572,0.7422 l -0.01632,0 0,-0.6483 -0.633248,0 0,4.0836 z m -1.093791,-4.0836 -0.673296,0 0,2.3065 c 0,0.7346 -0.396718,1.279 -1.212682,1.279 -0.515609,0 -0.833484,-0.3241 -0.833484,-0.821 l 0,-2.7645 -0.673295,0 0,2.6857 c 0,0.876 0.332893,1.4917 1.411667,1.4917 0.585692,0 1.046236,-0.2365 1.331573,-0.7421 l 0.01632,0 0,0.6483 0.633248,0 0,-4.0836 z m -8.149625,4.0836 0.674547,0 0,-0.5457 0.01502,0 c 0.301606,0.4819 0.903567,0.6395 1.324064,0.6395 1.252729,0 1.87096,-0.9711 1.87096,-2.1237 0,-1.1526 -0.625739,-2.1476 -1.885978,-2.1476 -0.563165,0 -1.086283,0.1965 -1.309046,0.6471 l -0.01502,0 0,-2.1088 -0.674547,0 0,5.6392 z m 3.171245,-2.0775 c 0,0.7972 -0.309115,1.5794 -1.228951,1.5794 -0.927345,0 -1.291526,-0.7421 -1.291526,-1.5481 0,-0.7659 0.347911,-1.5393 1.25273,-1.5393 0.871029,0 1.267747,0.7421 1.267747,1.508 m -5.93576,2.0775 0.673295,0 0,-1.8172 c 0,-1.0337 0.396719,-1.6494 1.483002,-1.6494 l 0,-0.7109 c -0.729612,-0.024 -1.181396,0.2991 -1.50678,0.9549 l -0.01502,0 0,-0.861 -0.634499,0 0,4.0836 z m -3.822014,-2.4329 c 0.04756,-0.6232 0.468053,-1.1526 1.173887,-1.1526 0.665786,0 1.150108,0.5131 1.181395,1.1526 l -2.355282,0 z m 2.339013,1.1376 c -0.118891,0.5281 -0.506849,0.7972 -1.062505,0.7972 -0.896058,0 -1.300286,-0.632 -1.276508,-1.3416 l 3.068624,0 c 0.04005,-0.9874 -0.404227,-2.3378 -1.85469,-2.3378 -1.118821,0 -1.927276,0.8999 -1.927276,2.1238 0.04005,1.2477 0.658277,2.1475 1.966072,2.1475 0.919836,0 1.570605,-0.4893 1.752069,-1.3891 l -0.665786,0 z m -3.529168,-2.7883 -0.705834,0 -1.11757,3.404 -0.01632,0 -1.148857,-3.404 -0.75339,0 1.521798,4.0836 0.722102,0 1.49802,-4.0836 z m -7.651537,2.7958 c 0.04005,1.0112 0.815964,1.3816 1.7358,1.3816 0.832233,0 1.74456,-0.3153 1.74456,-1.2865 0,-0.7897 -0.665786,-1.0112 -1.340332,-1.1614 -0.625739,-0.1501 -1.339082,-0.229 -1.339082,-0.7108 0,-0.4105 0.468053,-0.5206 0.87228,-0.5206 0.443023,0 0.903567,0.1652 0.951123,0.6871 l 0.673296,0 c -0.05507,-0.995 -0.775917,-1.2791 -1.680735,-1.2791 -0.713343,0 -1.530558,0.3392 -1.530558,1.1602 0,0.7821 0.674547,1.0036 1.340333,1.1526 0.674547,0.1502 1.340333,0.2378 1.340333,0.7584 0,0.5131 -0.570674,0.6082 -0.991171,0.6082 -0.555656,0 -1.078774,-0.189 -1.102552,-0.7897 l -0.673295,0 z m -2.480429,1.2878 0.674546,0 0,-1.8172 c 0,-1.0337 0.396719,-1.6494 1.48175,-1.6494 l 0,-0.7109 c -0.72836,-0.024 -1.180143,0.2991 -1.505528,0.9549 l -0.01632,0 0,-0.861 -0.634499,0 0,4.0836 z m -4.461519,0 0.673295,0 0,-2.3065 c 0,-0.7346 0.396718,-1.279 1.213933,-1.279 0.514358,0 0.832233,0.3241 0.832233,0.821 l 0,2.7645 0.673296,0 0,-2.6857 c 0,-0.876 -0.332894,-1.4918 -1.411668,-1.4918 -0.490579,0 -1.070013,0.2053 -1.291525,0.6946 l -0.01632,0 0,-2.1563 -0.673295,0 0,5.6392 z m -3.844541,-2.4329 c 0.04756,-0.6232 0.466802,-1.1526 1.172635,-1.1526 0.665786,0 1.150108,0.5131 1.181395,1.1526 l -2.35403,0 z m 2.337761,1.1376 c -0.11889,0.5281 -0.506848,0.7972 -1.061253,0.7972 -0.896058,0 -1.300286,-0.632 -1.276508,-1.3416 l 3.067373,0 c 0.04005,-0.9874 -0.404228,-2.3378 -1.854691,-2.3378 -1.117569,0 -1.926024,0.8999 -1.926024,2.1238 0.03875,1.2477 0.657026,2.1475 1.966072,2.1475 0.918585,0 1.569353,-0.4893 1.752069,-1.3891 l -0.667038,0 z m -6.981996,1.2953 0.674547,0 0,-1.5481 0.633248,-0.5844 1.404158,2.1325 0.856011,0 -1.74456,-2.5981 1.62567,-1.4855 -0.903567,0 -1.87096,1.7846 0,-3.3402 -0.674547,0 0,5.6392 z m -2.780784,0 0.673295,0 0,-1.8172 c 0,-1.0337 0.396719,-1.6494 1.483002,-1.6494 l 0,-0.7109 c -0.729612,-0.024 -1.181395,0.2991 -1.50678,0.9549 l -0.01502,0 0,-0.861 -0.6345,0 0,4.0836 z m -3.820762,-2.4329 c 0.04756,-0.6232 0.468053,-1.1526 1.172635,-1.1526 0.665786,0 1.150108,0.5131 1.181395,1.1526 l -2.35403,0 z m 2.339012,1.1376 c -0.11889,0.5281 -0.5081,0.7972 -1.062505,0.7972 -0.896058,0 -1.300285,-0.632 -1.276507,-1.3416 l 3.067373,0 c 0.04005,-0.9874 -0.404228,-2.3378 -1.854691,-2.3378 -1.11757,0 -1.926025,0.8999 -1.926025,2.1238 0.03875,1.2477 0.658278,2.1475 1.966072,2.1475 0.919837,0 1.569354,-0.4893 1.75207,-1.3891 l -0.665787,0 z m -2.964751,-4.3439 -0.784677,0 -1.633179,4.8883 -0.01632,0 -1.616909,-4.8883 -0.815964,0 1.997359,5.6392 0.856011,0 2.013628,-5.6392 z m -9.374822,5.6392 0.673295,0 0,-1.8172 c 0,-1.0337 0.396719,-1.6494 1.483002,-1.6494 l 0,-0.7109 c -0.729612,-0.024 -1.181395,0.2991 -1.50678,0.9549 l -0.01502,0 0,-0.861 -0.6345,0 0,4.0836 z m -3.820762,-2.4329 c 0.04756,-0.6232 0.468053,-1.1526 1.172635,-1.1526 0.665786,0 1.150108,0.5131 1.181395,1.1526 l -2.35403,0 z m 2.337761,1.1376 c -0.118891,0.5281 -0.506849,0.7972 -1.061254,0.7972 -0.896058,0 -1.300285,-0.632 -1.276507,-1.3416 l 3.067372,0 c 0.04005,-0.9874 -0.404227,-2.3378 -1.85469,-2.3378 -1.11757,0 -1.926025,0.8999 -1.926025,2.1238 0.03875,1.2477 0.657026,2.1475 1.966072,2.1475 0.919837,0 1.569354,-0.4893 1.75207,-1.3891 l -0.667038,0 z m -7.626507,-3.7119 1.268999,0 c 1.387889,0 1.887228,0.8135 1.887228,2.1563 0,2.0762 -1.387889,2.2189 -1.903498,2.2189 l -1.252729,0 0,-4.3752 z m -0.75339,5.0072 1.943545,0 c 1.885978,0 2.719462,-1.0663 2.719462,-2.9535 0,-1.8172 -0.976153,-2.6857 -2.719462,-2.6857 l -1.943545,0 0,5.6392 z"
       id="path6455"
       style="fill:#1a1613;fill-opacity:1;fill-rule:evenodd;stroke:none"
       inkscape:connector-curvature="0" />
    <path
       d="m 12.005648,993.06639 c -5.6166329,0 -10.1995453,4.54286 -10.1995453,10.13701 0,5.5953 4.5829124,10.1369 10.1995453,10.1369 5.617885,0 10.168259,-4.5416 10.168259,-10.1369 0,-5.59415 -4.550374,-10.13701 -10.168259,-10.13701 z m 23.465213,0 c -5.616633,0 -10.168259,4.54286 -10.168259,10.13701 0,5.5953 4.551626,10.1369 10.168259,10.1369 5.616633,0 10.168259,-4.5416 10.168259,-10.1369 0,-5.59415 -4.551626,-10.13701 -10.168259,-10.13701 z m -23.465213,5.13106 c 2.767018,0 5.005912,2.25015 5.005912,5.00595 0,2.7557 -2.238894,4.9746 -5.005912,4.9746 -2.765766,0 -5.0371985,-2.2189 -5.0371985,-4.9746 0,-2.7558 2.2714325,-5.00595 5.0371985,-5.00595 z m 23.465213,0 c 2.767018,0 5.005912,2.25015 5.005912,5.00595 0,2.7557 -2.238894,4.9746 -5.005912,4.9746 -2.767018,0 -5.005912,-2.2189 -5.005912,-4.9746 0,-2.7558 2.238894,-5.00595 5.005912,-5.00595 z"
       id="path6457"
       style="fill:#1a1613;fill-opacity:1;fill-rule:evenodd;stroke:none"
       inkscape:connector-curvature="0" />
    <path
       d="m 32.09187,986.96543 c -1.196413,0 -2.158799,0.96739 -2.158799,2.1588 0,1.19266 0.962386,2.1588 2.158799,2.1588 1.196413,0 2.1588,-0.96614 2.1588,-2.1588 0,-1.19141 -0.962387,-2.1588 -2.1588,-2.1588 z m 6.726695,0 c -1.196413,0 -2.1588,0.96739 -2.1588,2.1588 0,1.19266 0.962387,2.1588 2.1588,2.1588 1.196413,0 2.190086,-0.96614 2.190086,-2.1588 0,-1.19141 -0.993673,-2.1588 -2.190086,-2.1588 z"
       id="path6465"
       style="fill:#1a1613;fill-opacity:1;fill-rule:nonzero;stroke:none"
       inkscape:connector-curvature="0" />
    <path
       d="m 49.33098,993.59826 0,15.73734 c 0.03374,1.921 0.494334,3.7544 3.441564,3.7544 2.945979,0 4.649241,-1.8334 5.975808,-3.7544 l 9.855389,-15.73734 -6.445112,0 -7.07085,12.32704 c -0.09141,0.1389 -0.187722,0.1252 -0.187722,0.1252 l 0,-12.45224 -5.569077,0 z m 21.400274,0 0,15.73734 c 0.03374,1.921 0.495585,3.7544 3.441564,3.7544 2.947231,0 4.650492,-1.8334 5.975807,-3.7544 l 9.85539,-15.73734 -6.445112,0 -7.070851,12.32704 c -0.09011,0.1389 -0.187721,0.1252 -0.187721,0.1252 l 0,-12.45224 -5.569077,0 z"
       id="path6461"
       style="fill:#bc191c;fill-opacity:1;stroke:#ffffff;stroke-width:0.5456444;stroke-linecap:butt;stroke-linejoin:miter;stroke-miterlimit:3.86400008;stroke-dasharray:none;stroke-opacity:0"
       inkscape:connector-curvature="0" />
  </g>
</svg>
