<?xml version="1.0" encoding="UTF-8" standalone="no"?>
<!-- Creator: CorelDRAW -->

<svg
   xmlns:dc="http://purl.org/dc/elements/1.1/"
   xmlns:cc="http://creativecommons.org/ns#"
   xmlns:rdf="http://www.w3.org/1999/02/22-rdf-syntax-ns#"
   xmlns:svg="http://www.w3.org/2000/svg"
   xmlns="http://www.w3.org/2000/svg"
   xmlns:sodipodi="http://sodipodi.sourceforge.net/DTD/sodipodi-0.dtd"
   xmlns:inkscape="http://www.inkscape.org/namespaces/inkscape"
   xml:space="preserve"
   width="2596"
   height="2596"
   style="fill-rule:evenodd"
   viewBox="0 0 2890.69 2891.5302"
   id="svg2"
   version="1.1"
   inkscape:version="0.91 r13725"
   sodipodi:docname="network_vms_logo.svg"
   inkscape:export-filename="J:\privat\Transportr\res\drawable-xhdpi\network_vms_logo.png"
   inkscape:export-xdpi="3.3299999"
   inkscape:export-ydpi="3.3299999"><metadata
     id="metadata78"><rdf:RDF><cc:Work
         rdf:about=""><dc:format>image/svg+xml</dc:format><dc:type
           rdf:resource="http://purl.org/dc/dcmitype/StillImage" /><dc:title></dc:title></cc:Work></rdf:RDF></metadata><sodipodi:namedview
     pagecolor="#ffffff"
     bordercolor="#666666"
     borderopacity="1"
     objecttolerance="10"
     gridtolerance="10"
     guidetolerance="10"
     inkscape:pageopacity="0"
     inkscape:pageshadow="2"
     inkscape:window-width="1280"
     inkscape:window-height="744"
     id="namedview76"
     showgrid="false"
     inkscape:zoom="0.20493066"
     inkscape:cx="1298"
     inkscape:cy="1298"
     inkscape:window-x="0"
     inkscape:window-y="0"
     inkscape:window-maximized="1"
     inkscape:current-layer="svg2" /><defs
     id="defs4"><style
       type="text/css"
       id="style6">
   
    .fil2 {fill:#007946}
    .fil1 {fill:#007946;fill-rule:nonzero}
    .fil0 {fill:#CF2538;fill-rule:nonzero}
   
  </style></defs><rect
     style="fill:#ffffff;fill-rule:evenodd;stroke:none;stroke-width:1px;stroke-linecap:butt;stroke-linejoin:miter;stroke-opacity:1"
     id="rect3334"
     width="2891.5303"
     height="2891.5303"
     x="-0.42013761"
     y="-1.3626452e-05" /><g
     id="Ebene_x0020_1"
     transform="translate(0,998.55794)"><metadata
       id="CorelCorpID_0Corel-Layer" /><polygon
       class="fil0"
       points="532.533,234.495 108.939,657.876 0,657.876 0,234.495 105.119,234.495 105.119,522.286 393.685,234.495 "
       id="polygon10"
       style="fill:#cf2538;fill-rule:nonzero" /><polygon
       class="fil1"
       points="1079.35,234.495 1079.35,657.876 973.145,657.876 973.145,373.241 688.033,657.876 580.075,657.876 580.075,369.727 291.355,657.876 153.334,657.876 576.561,234.495 683.927,234.495 683.927,524.43 973.738,234.495 "
       id="polygon12"
       style="fill:#007946;fill-rule:nonzero" /><path
       class="fil1"
       d="m 0,703.478 0,188.893 188.916,0 0,-81.8055 c 0,0 -15.884,-0.0513 -26.0583,0.57071 -10.2781,0.61411 -19.7278,2.84042 -19.7278,2.84042 l 110.082,-110.499 -124.128,0 -50.0454,50.3084 c 0,0 3.0745,-14.7202 3.98185,-24.2501 0.980998,-10.123 0.644355,-26.0583 0.644355,-26.0583 l -83.6649,0 z"
       id="path14"
       inkscape:connector-curvature="0"
       style="fill:#007946;fill-rule:nonzero" /><path
       class="fil0"
       d="m 683.927,188.893 0,-188.893 -188.886,0 0,81.8055 c 0,0 15.8761,0.08022 26.0517,-0.541785 10.2768,-0.644355 19.7265,-2.84042 19.7265,-2.84042 l -110.074,110.469995 124.099,0 50.0441,-50.2794 c 0,0 -3.04425,14.6979 -3.97396,24.2212 -0.95864,10.123 -0.622,26.0583 -0.622,26.0583 l 83.6347,0 z"
       id="path16"
       inkscape:connector-curvature="0"
       style="fill:#cf2538;fill-rule:nonzero" /><path
       class="fil1"
       d="m 1524.22,234.495 0,104.219 -283.786,0 c -3.1258,0 -13.1975,1.62404 -18.6732,7.17996 -5.3942,5.44546 -6.9459,10.716 -6.9459,18.3878 l 0,13.1896 c 0,1.31764 1.4492,7.7007 4.3619,11.4919 4.1068,5.37313 8.4174,8.36741 15.1884,8.36741 l 201.9,0 c 13.5564,0 49.1669,12.5531 70.1374,34.7321 22.801,24.0884 30.8317,52.8332 30.8317,79.2728 0,16.506 0.021,43.3033 0,43.3546 0,11.8062 -9.113,46.1214 -24.7406,61.8437 -31.3735,31.534 -70.9067,41.3426 -95.7499,41.3426 l -308.937,0 0,-104.219 308.937,0 c 5.4244,0 8.9368,-1.36893 13.0436,-4.95628 3.8214,-3.35854 6.4777,-6.17003 6.4777,-11.3078 l 0,-26.0583 c 0,-4.23171 -2.196,-6.50799 -5.0864,-9.60353 -4.2317,-4.54599 -10.6135,-6.69078 -14.4349,-6.69078 l -201.929,0 c -5.1102,0 -35.5816,4.23828 -74.9109,-36.5626 -21.6148,-22.3907 -26.5711,-57.4528 -26.5711,-61.148 l 0,-42.3236 c 0,-31.6286 9.6035,-56.5008 26.5711,-76.6152 26.4173,-31.3209 62.0278,-43.8964 94.4612,-43.8964 l 289.855,0 z"
       id="path18"
       inkscape:connector-curvature="0"
       style="fill:#007946;fill-rule:nonzero" /><path
       class="fil1"
       d="m 1620.28,858.935 c -3.4032,-17.4581 -8.4397,-34.711 -18.6942,-69.1788 l -46.3778,0 0,102.644 27.3983,0 c 0,-38.3484 -0.1539,-64.1949 -0.5931,-79.6384 l 0.6733,0 c 4.1278,15.4435 12.106,41.29 23.7307,79.6384 l 28.2241,0 c 12.4952,-39.5121 19.6252,-64.1949 23.6794,-79.6384 l 0.6667,0 c -0.2564,15.4658 -0.4905,41.2098 -0.4905,79.6384 l 27.3983,0 0,-102.644 -46.3778,0 c -10.4017,34.3139 -15.1818,51.6694 -18.7678,69.1788 l -0.4694,0 z"
       id="path20"
       inkscape:connector-curvature="0"
       style="fill:#007946;fill-rule:nonzero" /><polygon
       class="fil1"
       points="1702.34,789.756 1733.15,789.756 1733.15,892.372 1702.34,892.372 "
       id="polygon22"
       style="fill:#007946;fill-rule:nonzero" /><polygon
       class="fil1"
       points="1775.6,892.401 1806.09,892.401 1806.09,809.512 1836.1,809.512 1836.1,789.756 1745.52,789.756 1745.52,809.512 1775.6,809.512 "
       id="polygon24"
       style="fill:#007946;fill-rule:nonzero" /><polygon
       class="fil1"
       points="1872.89,892.401 1903.37,892.401 1903.37,809.512 1933.4,809.512 1933.4,789.756 1842.82,789.756 1842.82,809.512 1872.89,809.512 "
       id="polygon26"
       style="fill:#007946;fill-rule:nonzero" /><polygon
       class="fil1"
       points="1946.44,789.756 1946.44,892.401 2026.75,892.401 2026.75,872.593 1976.91,872.593 1976.91,849.976 2011.72,849.976 2011.72,830.168 1976.91,830.168 1976.91,809.563 2025.56,809.563 2025.56,789.756 "
       id="polygon28"
       style="fill:#007946;fill-rule:nonzero" /><polygon
       class="fil1"
       points="2043.2,892.401 2119.73,892.401 2119.73,872.491 2073.64,872.491 2073.64,789.756 2043.2,789.756 "
       id="polygon30"
       style="fill:#007946;fill-rule:nonzero" /><path
       class="fil1"
       d="m 2219.38,815.06 c -3.615,-16.2128 -18.2839,-27.3167 -42.3223,-27.3167 -15.5474,0 -26.7026,3.22835 -34.1101,8.64488 -7.1287,5.13775 -10.3794,12.4729 -10.3794,20.6115 0,11.4853 6.1411,18.1537 12.3414,22.4643 5.6283,4.15806 13.5854,7.59156 23.0061,10.7897 8.3148,3.0745 13.1975,4.809 17.3766,6.74206 4.1068,2.0935 5.9149,4.67749 5.9149,8.44632 0,2.26971 -0.981,4.64856 -3.2507,6.24367 -2.4512,1.65428 -6.4554,3.12578 -12.4216,3.12578 -8.4687,0 -13.4026,-4.10678 -15.6486,-10.482 l -30.7502,1.72792 c 3.3007,16.2417 17.2227,28.3569 45.9899,28.3569 17.011,0 28.5831,-4.46578 36.0931,-10.2768 7.9782,-6.25156 11.3157,-14.64 11.3157,-22.751 0,-9.58117 -4.7064,-16.4245 -11.0527,-21.2558 -5.1667,-4.02656 -11.9824,-6.78546 -21.461,-9.91124 -9.6837,-2.94168 -13.7103,-4.13571 -18.6429,-6.38306 -5.3731,-2.34861 -8.1623,-5.31396 -8.1623,-9.18535 0,-2.04221 1.0323,-3.87928 2.943,-5.11671 2.3789,-1.50043 6.2003,-2.21842 9.6101,-2.21842 7.4588,0 11.5142,3.87271 13.7392,8.90788 l 29.8718,-1.16378 z"
       id="path32"
       inkscape:connector-curvature="0"
       style="fill:#007946;fill-rule:nonzero" /><path
       class="fil2"
       d="m 2307.8,869.387 6.5356,23.014 32.8437,0 -37.1543,-102.644 -41.8331,0 -37.1622,102.644 32.9542,0 6.3462,-23.014 37.4699,0 z m -6.0175,-19.7265 -25.406,0 6.1477,-21.9225 c 1.8594,-6.45539 3.945,-13.3513 5.7532,-21.7398 l 1.4491,0 c 1.8818,8.36741 3.8438,14.8964 5.8636,21.6885 l 6.1924,21.9738 z"
       id="path34"
       inkscape:connector-curvature="0"
       style="fill:#007946" /><path
       class="fil1"
       d="m 2427.26,853.642 c -1.5228,12.085 -7.8256,20.8324 -19.3977,20.8324 -11.8509,0 -21.432,-9.52331 -21.432,-33.1804 0,-23.0863 8.2925,-33.5683 21.6148,-33.5683 11.0527,0 16.0892,6.63949 18.7757,19.2136 l 30.6766,-2.48011 c -4.9628,-26.337 -25.2535,-36.7164 -49.2984,-36.7164 -14.1706,0 -26.6224,3.77014 -36.1746,11.0527 -10.745,8.74745 -16.8637,22.5669 -16.8637,41.415 0,22.2079 6.792,35.6841 17.0688,43.7938 9.8166,7.5692 23.423,10.4096 35.8446,10.4096 21.791,0 44.4382,-11.0237 50.2729,-37.4699 l -31.0869,-3.30199 z"
       id="path36"
       inkscape:connector-curvature="0"
       style="fill:#007946;fill-rule:nonzero" /><polygon
       class="fil1"
       points="2501.83,789.756 2471.39,789.756 2471.39,892.401 2501.83,892.401 2501.83,849.843 2537.67,849.843 2537.67,892.401 2568.14,892.401 2568.14,789.756 2537.67,789.756 2537.67,829.78 2501.83,829.78 "
       id="polygon38"
       style="fill:#007946;fill-rule:nonzero" /><path
       class="fil1"
       d="m 2672.57,815.06 c -3.5939,-16.2128 -18.2839,-27.3167 -42.3,-27.3167 -15.5474,0 -26.7026,3.22835 -34.1101,8.64488 -7.151,5.13775 -10.3794,12.4729 -10.3794,20.6115 0,11.4853 6.1411,18.1537 12.319,22.4643 5.6283,4.15806 13.6077,7.59156 23.0061,10.7897 8.3372,3.0745 13.2198,4.809 17.3766,6.74206 4.1068,2.0935 5.936,4.67749 5.936,8.44632 0,2.26971 -0.9797,4.64856 -3.2494,6.24367 -2.4815,1.65428 -6.4554,3.12578 -12.4505,3.12578 -8.4398,0 -13.3737,-4.10678 -15.6421,-10.482 l -30.7292,1.72792 c 3.302,16.2417 17.224,28.3569 45.9609,28.3569 17.0399,0 28.6133,-4.46578 36.1234,-10.2768 7.9781,-6.25156 11.3157,-14.64 11.3157,-22.751 0,-9.58117 -4.7288,-16.4245 -11.0527,-21.2558 -5.168,-4.02656 -11.9824,-6.78546 -21.461,-9.91124 -9.7061,-2.94168 -13.7103,-4.13571 -18.6442,-6.38306 -5.3718,-2.34861 -8.161,-5.31396 -8.161,-9.18535 0,-2.04221 1.0099,-3.87928 2.9206,-5.11671 2.4013,-1.50043 6.2003,-2.21842 9.6325,-2.21842 7.4587,0 11.5142,3.87271 13.7392,8.90788 l 29.8494,-1.16378 z"
       id="path40"
       inkscape:connector-curvature="0"
       style="fill:#007946;fill-rule:nonzero" /><polygon
       class="fil1"
       points="2691.34,789.756 2691.34,892.401 2771.62,892.401 2771.62,872.593 2721.79,872.593 2721.79,849.976 2756.62,849.976 2756.62,830.168 2721.79,830.168 2721.79,809.563 2770.45,809.563 2770.45,789.756 "
       id="polygon42"
       style="fill:#007946;fill-rule:nonzero" /><path
       class="fil2"
       d="m 2863.09,861.489 c -4.3921,-12.1362 -15.0569,-36.2535 -32.0245,-71.7325 l -42.5564,0 0,102.644 28.0203,0 c 0,-35.6105 -0.4616,-59.524 -1.1348,-71.7628 l 0.8271,0 c 4.3619,12.1139 14.9977,36.101 32.0166,71.7628 l 42.4538,0 0,-102.644 -28.0189,0 c 0,35.4488 0.4905,59.3925 1.1848,71.7325 l -0.768,0 z"
       id="path44"
       inkscape:connector-curvature="0"
       style="fill:#007946" /><polygon
       class="fil1"
       points="1549.96,657.957 1583.63,752.52 1598.04,752.52 1632.85,657.957 1619.63,657.957 1591.36,738.752 1564.5,657.957 "
       id="polygon46"
       style="fill:#007946;fill-rule:nonzero" /><polygon
       class="fil1"
       points="1659.74,709.554 1703.73,709.554 1703.73,698.552 1659.74,698.552 1659.74,669.083 1705.95,669.083 1705.95,657.957 1646.64,657.957 1646.64,752.52 1707.01,752.52 1707.01,740.977 1659.74,740.977 "
       id="polygon48"
       style="fill:#007946;fill-rule:nonzero" /><path
       class="fil2"
       d="m 1729.14,752.52 12.9634,0 0,-42.7102 16.4981,0 c 15.8617,0 19.1413,3.95161 20.6851,17.6843 0.9297,7.21021 2.2474,18.7231 4.3409,25.026 l 13.9957,0 c -3.6676,-10.4898 -4.5671,-18.6219 -5.8847,-29.7469 -1.3177,-11.7786 -5.3731,-15.8327 -14.4125,-18.1827 2.8904,-0.79821 7.0774,-2.11585 11.1329,-6.17135 4.2093,-4.1791 6.6829,-10.0717 6.6829,-16.7546 0,-7.59813 -3.4033,-14.8004 -10.482,-19.2439 -6.917,-4.46446 -16.8861,-4.46446 -21.7174,-4.46446 l -33.8024,0 0,94.5638 z m 12.707,-83.5624 20.6851,0 c 5.2416,0 18.8783,0 18.8783,15.3357 0,7.85325 -4.5973,11.2565 -6.4343,12.2967 -3.5361,2.08561 -11.0014,2.08561 -12.4439,2.08561 l -20.6851,0 0,-29.7179 z"
       id="path50"
       inkscape:connector-curvature="0"
       style="fill:#007946" /><polygon
       class="fil1"
       points="1893.53,752.52 1846.64,700.258 1888.93,657.957 1870.98,657.957 1831.58,699.349 1831.58,657.957 1818.62,657.957 1818.62,752.52 1831.58,752.52 1831.58,702.343 1875.19,752.52 "
       id="polygon52"
       style="fill:#007946;fill-rule:nonzero" /><polygon
       class="fil1"
       points="1918.04,709.554 1962.03,709.554 1962.03,698.552 1918.04,698.552 1918.04,669.083 1964.26,669.083 1964.26,657.957 1904.94,657.957 1904.94,752.52 1965.31,752.52 1965.31,740.977 1918.04,740.977 "
       id="polygon54"
       style="fill:#007946;fill-rule:nonzero" /><polygon
       class="fil1"
       points="2045.73,709.81 2045.73,752.52 2058.82,752.52 2058.82,657.957 2045.73,657.957 2045.73,698.552 2000.8,698.552 2000.8,657.957 1987.7,657.957 1987.7,752.52 2000.8,752.52 2000.8,709.81 "
       id="polygon56"
       style="fill:#007946;fill-rule:nonzero" /><path
       class="fil2"
       d="m 2083.2,752.52 12.9634,0 0,-42.7102 16.4994,0 c 15.8248,0 19.1045,3.95161 20.6851,17.6843 0.9008,7.21021 2.2184,18.7231 4.3119,25.026 l 14.0167,0 c -3.6675,-10.4898 -4.5959,-18.6219 -5.9136,-29.7469 -1.2887,-11.7786 -5.3442,-15.8327 -14.3836,-18.1827 2.8694,-0.79821 7.0564,-2.11585 11.1329,-6.17135 4.1804,-4.1791 6.6606,-10.0717 6.6606,-16.7546 0,-7.59813 -3.4099,-14.8004 -10.4596,-19.2439 -6.9459,-4.46446 -16.9084,-4.46446 -21.7398,-4.46446 l -33.7734,0 0,94.5638 z m 12.678,-83.5624 20.7075,0 c 5.2193,0 18.8494,0 18.8494,15.3357 0,7.85325 -4.5973,11.2565 -6.4278,12.2967 -3.5347,2.08561 -11.0014,2.08561 -12.4216,2.08561 l -20.7075,0 0,-29.7179 z"
       id="path58"
       inkscape:connector-curvature="0"
       style="fill:#007946" /><path
       class="fil1"
       d="m 2167.81,724.888 c 0,4.56835 0.1315,12.1652 5.5046,19.1124 7.4588,9.55224 22.1277,10.7384 29.33,10.7384 24.2212,0 37.3161,-12.7083 37.3161,-29.4628 0,-3.92268 -0.6732,-13.0949 -9.4286,-18.8481 -5.4967,-3.66757 -8.0005,-4.20935 -30.5227,-9.9691 -11.5142,-2.73785 -17.011,-5.62956 -17.011,-13.9957 0,-9.44967 7.8467,-15.3422 20.9415,-15.3422 9.2958,0 19.2583,2.63528 19.9027,14.4125 l 13.6143,0 c -0.263,-3.92268 -0.5194,-10.357 -5.761,-16.1102 -7.5903,-8.24249 -20.2972,-9.29713 -26.5698,-9.29713 -17.8171,0 -36.0208,8.38846 -36.0208,27.6258 0,6.30153 2.0856,13.3513 9.8376,18.5916 4.8234,3.27964 11.2578,4.85239 25.6638,8.39635 13.2185,3.27832 21.7174,5.37182 21.7174,15.9787 0,4.70642 -2.4815,16.8939 -22.1277,16.8939 -21.7174,0 -22.5156,-12.1875 -22.7786,-18.7244 l -13.6077,0 z"
       id="path60"
       inkscape:connector-curvature="0"
       style="fill:#007946;fill-rule:nonzero" /><polygon
       class="fil1"
       points="2250.86,657.957 2284.51,752.52 2298.92,752.52 2333.75,657.957 2320.52,657.957 2292.23,738.752 2265.4,657.957 "
       id="polygon62"
       style="fill:#007946;fill-rule:nonzero" /><polygon
       class="fil1"
       points="2360.63,709.554 2404.63,709.554 2404.63,698.552 2360.63,698.552 2360.63,669.083 2406.85,669.083 2406.85,657.957 2347.54,657.957 2347.54,752.52 2407.89,752.52 2407.89,740.977 2360.63,740.977 "
       id="polygon64"
       style="fill:#007946;fill-rule:nonzero" /><path
       class="fil2"
       d="m 2430.04,752.52 12.9634,0 0,-42.7102 16.4994,0 c 15.8248,0 19.1111,3.95161 20.6851,17.6843 0.9008,7.21021 2.2184,18.7231 4.3119,25.026 l 14.0167,0 c -3.6675,-10.4898 -4.5973,-18.6219 -5.8846,-29.7469 -1.3177,-11.7786 -5.3732,-15.8327 -14.4059,-18.1827 2.8627,-0.79821 7.0708,-2.11585 11.1263,-6.17135 4.1869,-4.1791 6.6605,-10.0717 6.6605,-16.7546 0,-7.59813 -3.3809,-14.8004 -10.4596,-19.2439 -6.9393,-4.46446 -16.8861,-4.46446 -21.7398,-4.46446 l -33.7734,0 0,94.5638 z m 12.678,-83.5624 20.7075,0 c 5.2416,0 18.8481,0 18.8481,15.3357 0,7.85325 -4.5894,11.2565 -6.4265,12.2967 -3.5137,2.08561 -11.0014,2.08561 -12.4216,2.08561 l -20.7075,0 0,-29.7179 z"
       id="path66"
       inkscape:connector-curvature="0"
       style="fill:#007946" /><path
       class="fil2"
       d="m 2519.75,752.52 34.4467,0 c 7.4666,0 14.8004,0 21.3597,-4.34085 3.1258,-2.0935 11.3893,-8.62253 11.3893,-21.461 0,-18.0722 -13.3513,-21.9962 -18.8559,-23.5703 4.5749,-1.70557 15.9577,-5.75975 15.9577,-21.3584 0,-7.45874 -2.6064,-12.9634 -6.6619,-16.8874 -5.8846,-5.75975 -12.3111,-6.94589 -23.8332,-6.94589 l -33.8024,0 0,94.5638 z m 12.707,-83.8188 18.8783,0 c 7.2023,0 19.1045,0 19.1045,14.2744 0,14.9241 -15.1818,14.9241 -19.6463,14.9241 l -18.3365,0 0,-29.1985 z m 0,40.4642 22.9338,0 c 11.5129,0 18.0722,6.94589 18.0722,16.3666 0,10.8699 -8.2648,16.3745 -18.5929,16.3745 l -22.413,0 0,-32.7411 z"
       id="path68"
       inkscape:connector-curvature="0"
       style="fill:#007946" /><path
       class="fil1"
       d="m 2608.06,657.957 0,57.6356 c 0,14.1272 2.6129,19.6239 5.5033,23.8109 8.7554,12.5755 24.4776,15.0792 33.3855,15.0792 6.7934,0 21.198,-1.44914 30.4951,-13.1172 7.5968,-9.42731 7.7218,-20.0118 7.7218,-25.1285 l 0,-58.28 -12.7004,0 0,58.0235 c 0,6.79335 0,26.8262 -25.5165,26.8262 -6.558,0 -15.7223,-1.44125 -21.6148,-9.29581 -1.962,-2.73654 -4.1791,-6.91696 -4.1791,-17.0176 l 0,-58.5364 -13.0949,0 z"
       id="path70"
       inkscape:connector-curvature="0"
       style="fill:#007946;fill-rule:nonzero" /><polygon
       class="fil1"
       points="2788.12,752.52 2788.12,657.957 2776.06,657.957 2776.06,736.146 2729.58,657.957 2711.38,657.957 2711.38,752.52 2723.31,752.52 2723.31,672.238 2771.36,752.52 "
       id="polygon72"
       style="fill:#007946;fill-rule:nonzero" /><path
       class="fil2"
       d="m 2813.53,752.52 26.5922,0 c 13.8721,0 25.5388,0 34.8346,-7.75199 7.2102,-5.75317 15.7012,-18.3286 15.7012,-38.7573 0,-12.9634 -3.2796,-25.9268 -11.6457,-35.7354 -10.482,-12.319 -25.406,-12.319 -38.1143,-12.319 l -27.368,0 0,94.5638 z m 13.0883,-83.6939 15.7302,0 c 11.5129,0 19.1045,1.57407 25.1496,8.26353 8.879,9.81656 9.1433,25.9268 9.1433,29.4628 0,5.50332 -0.388,20.9415 -12.4216,29.9809 -6.3029,4.69985 -15.7302,5.24163 -24.763,5.24163 l -12.8385,0 0,-72.9489 z"
       id="path74"
       inkscape:connector-curvature="0"
       style="fill:#007946" /></g></svg>