<?xml version="1.0" encoding="UTF-8" standalone="no"?>
<svg
   xmlns:dc="http://purl.org/dc/elements/1.1/"
   xmlns:cc="http://creativecommons.org/ns#"
   xmlns:rdf="http://www.w3.org/1999/02/22-rdf-syntax-ns#"
   xmlns:svg="http://www.w3.org/2000/svg"
   xmlns="http://www.w3.org/2000/svg"
   xmlns:sodipodi="http://sodipodi.sourceforge.net/DTD/sodipodi-0.dtd"
   xmlns:inkscape="http://www.inkscape.org/namespaces/inkscape"
   viewBox="0 0 406.64002 406.64001"
   height="406.64001"
   width="406.64001"
   xml:space="preserve"
   version="1.1"
   id="svg3336"
   inkscape:version="0.91 r13725"
   sodipodi:docname="network_vgs_logo.svg"><sodipodi:namedview
     pagecolor="#ffffff"
     bordercolor="#666666"
     borderopacity="1"
     objecttolerance="10"
     gridtolerance="10"
     guidetolerance="10"
     inkscape:pageopacity="0"
     inkscape:pageshadow="2"
     inkscape:window-width="1280"
     inkscape:window-height="744"
     id="namedview155"
     showgrid="false"
     inkscape:zoom="0.29996045"
     inkscape:cx="627.80355"
     inkscape:cy="-231.24322"
     inkscape:window-x="0"
     inkscape:window-y="0"
     inkscape:window-maximized="1"
     inkscape:current-layer="svg3336" /><metadata
     id="metadata3342"><rdf:RDF><cc:Work
         rdf:about=""><dc:format>image/svg+xml</dc:format><dc:type
           rdf:resource="http://purl.org/dc/dcmitype/StillImage" /><dc:title></dc:title></cc:Work></rdf:RDF></metadata><defs
     id="defs3340"><clipPath
       id="clipPath3658"
       clipPathUnits="userSpaceOnUse"><path
         id="path3660"
         d="m 723.106,651.972 609.448,0 0,-567.929 -609.448,0 0,567.929 z"
         inkscape:connector-curvature="0" /></clipPath><clipPath
       id="clipPath3670"
       clipPathUnits="userSpaceOnUse"><path
         id="path3672"
         d="m 721.15,644.601 c 0,9.794 7.939,17.734 17.734,17.734 l 593.076,0 c 9.794,0 17.734,-7.94 17.734,-17.734 l 0,-839.874 c 0,-9.795 -7.94,-17.734 -17.734,-17.734 l -593.076,0 c -9.795,0 -17.734,7.939 -17.734,17.734 l 0,839.874"
         inkscape:connector-curvature="0" /></clipPath><clipPath
       id="clipPath3676"
       clipPathUnits="userSpaceOnUse"><path
         id="path3678"
         d="m 723.106,651.972 609.448,0 0,-567.929 -609.448,0 0,567.929 z"
         inkscape:connector-curvature="0" /></clipPath><clipPath
       id="clipPath3686"
       clipPathUnits="userSpaceOnUse"><path
         id="path3688"
         d="m 720.376,665.097 629.614,0 0,-582.208 -629.614,0 0,582.208 z"
         inkscape:connector-curvature="0" /></clipPath><clipPath
       id="clipPath3692"
       clipPathUnits="userSpaceOnUse"><path
         id="path3694"
         d="m 721.15,644.601 c 0,9.794 7.939,17.734 17.734,17.734 l 593.076,0 c 9.794,0 17.734,-7.94 17.734,-17.734 l 0,-839.874 c 0,-9.795 -7.94,-17.734 -17.734,-17.734 l -593.076,0 c -9.795,0 -17.734,7.939 -17.734,17.734 l 0,839.874"
         inkscape:connector-curvature="0" /></clipPath><clipPath
       id="clipPath3698"
       clipPathUnits="userSpaceOnUse"><path
         id="path3700"
         d="m 723.106,651.972 609.448,0 0,-567.929 -609.448,0 0,567.929 z"
         inkscape:connector-curvature="0" /></clipPath><clipPath
       id="clipPath5996"
       clipPathUnits="userSpaceOnUse"><path
         id="path5998"
         d="m 721.15,644.601 c 0,9.794 7.939,17.734 17.734,17.734 l 593.076,0 c 9.794,0 17.734,-7.94 17.734,-17.734 l 0,-839.874 c 0,-9.795 -7.94,-17.734 -17.734,-17.734 l -593.076,0 c -9.795,0 -17.734,7.939 -17.734,17.734 l 0,839.874"
         inkscape:connector-curvature="0" /></clipPath><clipPath
       id="clipPath6002"
       clipPathUnits="userSpaceOnUse"><path
         id="path6004"
         d="m 723.106,651.972 609.448,0 0,-567.929 -609.448,0 0,567.929 z"
         inkscape:connector-curvature="0" /></clipPath><clipPath
       id="clipPath6012"
       clipPathUnits="userSpaceOnUse"><path
         id="path6014"
         d="m 723.106,651.972 609.448,0 0,-567.929 -609.448,0 0,567.929 z"
         inkscape:connector-curvature="0" /></clipPath><clipPath
       id="clipPath10012"
       clipPathUnits="userSpaceOnUse"><path
         id="path10014"
         d="m 871.287,227.343 14.558,0 0,-14.558 -14.558,0 0,14.558 z"
         inkscape:connector-curvature="0" /></clipPath><clipPath
       id="clipPath15462"
       clipPathUnits="userSpaceOnUse"><path
         id="path15464"
         d="m 871.287,227.343 14.558,0 0,-14.558 -14.558,0 0,14.558 z"
         inkscape:connector-curvature="0" /></clipPath><clipPath
       id="clipPath15572"
       clipPathUnits="userSpaceOnUse"><path
         id="path15574"
         d="m 871.287,227.343 14.558,0 0,-14.558 -14.558,0 0,14.558 z"
         inkscape:connector-curvature="0" /></clipPath><clipPath
       id="clipPath15640"
       clipPathUnits="userSpaceOnUse"><path
         id="path15642"
         d="m 871.287,227.343 14.558,0 0,-14.558 -14.558,0 0,14.558 z"
         inkscape:connector-curvature="0" /></clipPath><clipPath
       id="clipPath15690"
       clipPathUnits="userSpaceOnUse"><path
         id="path15692"
         d="m 871.287,227.343 14.558,0 0,-14.558 -14.558,0 0,14.558 z"
         inkscape:connector-curvature="0" /></clipPath><clipPath
       id="clipPath19118"
       clipPathUnits="userSpaceOnUse"><path
         id="path19120"
         d="m 871.287,227.343 14.558,0 0,-14.558 -14.558,0 0,14.558 z"
         inkscape:connector-curvature="0" /></clipPath><clipPath
       id="clipPath19182"
       clipPathUnits="userSpaceOnUse"><path
         id="path19184"
         d="m 871.287,227.343 14.558,0 0,-14.558 -14.558,0 0,14.558 z"
         inkscape:connector-curvature="0" /></clipPath><clipPath
       id="clipPath19220"
       clipPathUnits="userSpaceOnUse"><path
         id="path19222"
         d="m 871.287,227.343 14.558,0 0,-14.558 -14.558,0 0,14.558 z"
         inkscape:connector-curvature="0" /></clipPath><clipPath
       id="clipPath19236"
       clipPathUnits="userSpaceOnUse"><path
         id="path19238"
         d="m 871.287,227.343 14.558,0 0,-14.558 -14.558,0 0,14.558 z"
         inkscape:connector-curvature="0" /></clipPath><clipPath
       id="clipPath19858"
       clipPathUnits="userSpaceOnUse"><path
         id="path19860"
         d="m 62.362,62.362 1292.64,0 0,612.24 -1292.64,0 0,-612.24 z"
         inkscape:connector-curvature="0" /></clipPath><clipPath
       id="clipPath19870"
       clipPathUnits="userSpaceOnUse"><path
         id="path19872"
         d="m 496.059,674.602 212.524,0 0,-330.987 -212.524,0 0,330.987 z"
         inkscape:connector-curvature="0" /></clipPath><clipPath
       id="clipPath19884"
       clipPathUnits="userSpaceOnUse"><path
         id="path19886"
         d="m 62.362,62.362 1292.64,0 0,612.24 -1292.64,0 0,-612.24 z"
         inkscape:connector-curvature="0" /></clipPath><clipPath
       id="clipPath30804"
       clipPathUnits="userSpaceOnUse"><path
         id="path30806"
         d="m 722.831,651.972 85.039,0 0,-70.866 -85.039,0 0,70.866 z"
         inkscape:connector-curvature="0" /></clipPath><clipPath
       id="clipPath30826"
       clipPathUnits="userSpaceOnUse"><path
         id="path30828"
         d="m 722.831,573.679 85.039,0 0,-70.866 -85.039,0 0,70.866 z"
         inkscape:connector-curvature="0" /></clipPath><clipPath
       id="clipPath30848"
       clipPathUnits="userSpaceOnUse"><path
         id="path30850"
         d="m 722.831,495.386 85.039,0 0,-70.866 -85.039,0 0,70.866 z"
         inkscape:connector-curvature="0" /></clipPath><clipPath
       id="clipPath30872"
       clipPathUnits="userSpaceOnUse"><path
         id="path30874"
         d="m 722.831,417.093 85.039,0 0,-70.866 -85.039,0 0,70.866 z"
         inkscape:connector-curvature="0" /></clipPath><clipPath
       id="clipPath30894"
       clipPathUnits="userSpaceOnUse"><path
         id="path30896"
         d="m 722.831,338.799 85.039,0 0,-70.866 -85.039,0 0,70.866 z"
         inkscape:connector-curvature="0" /></clipPath></defs><rect
     style="fill:#ffffff;fill-rule:evenodd;stroke:none;stroke-width:1px;stroke-linecap:butt;stroke-linejoin:miter;stroke-opacity:1"
     id="rect3334"
     width="406.64001"
     height="406.64001"
     x="0"
     y="4.6484374e-06" /><g
     transform="matrix(1.25,0,0,-1.25,-139.24375,475.24876)"
     id="g3344"><g
       id="g3654"><g
         clip-path="url(#clipPath3658)"
         id="g3656"><g
           transform="translate(721.15,644.601)"
           id="g3662"><path
             id="path3664"
             style="fill:#ffffff;fill-opacity:1;fill-rule:nonzero;stroke:none"
             d="m 0,0 c 0,9.794 7.939,17.734 17.734,17.734 l 593.076,0 c 9.794,0 17.734,-7.94 17.734,-17.734 l 0,-839.874 c 0,-9.795 -7.94,-17.734 -17.734,-17.734 l -593.076,0 C 7.939,-857.608 0,-849.669 0,-839.874 L 0,0"
             inkscape:connector-curvature="0" /></g></g></g><g
       id="g5992"><g
         clip-path="url(#clipPath5996)"
         id="g5994"><g
           clip-path="url(#clipPath6002)"
           id="g6000"><path
             id="path6006"
             style="fill:none;stroke:#f5821f;stroke-width:1.72399998;stroke-linecap:butt;stroke-linejoin:miter;stroke-miterlimit:3.86400008;stroke-dasharray:none;stroke-opacity:1"
             d="m 720.376,665.097 629.614,0 0,-582.208 -629.614,0 0,582.208 z"
             inkscape:connector-curvature="0" /></g></g></g><g
       id="g15568"><g
         clip-path="url(#clipPath15572)"
         id="g15570"><g
           transform="translate(871.276,217.286)"
           id="g15576"><path
             id="path15578"
             style="fill:#ffffff;fill-opacity:1;fill-rule:evenodd;stroke:none"
             d="M 0,0 C 0.009,0 0.013,-0.026 -0.013,-0.034 -0.018,-0.018 -0.009,0 0,0"
             inkscape:connector-curvature="0" /></g></g></g><g
       transform="matrix(8,0,0,7.9591037,146.603,111.92854)"
       id="g27218"><path
         id="path27220"
         style="fill:#231f20;fill-opacity:1;fill-rule:nonzero;stroke:none"
         d="m 0,0 0.398,0 0,-0.705 C 0.334,-0.731 0.232,-0.754 0.12,-0.754 c -0.491,0 -0.758,0.375 -0.758,0.964 0,0.544 0.274,0.964 0.784,0.964 0.24,0 0.45,-0.067 0.604,-0.161 L 0.776,1.444 C 0.675,1.489 0.439,1.557 0.139,1.557 c -0.84,0 -1.287,-0.571 -1.287,-1.347 0,-0.776 0.447,-1.346 1.287,-1.346 0.341,0 0.574,0.063 0.709,0.135 l 0,1.369 L 0,0.368 0,0"
         inkscape:connector-curvature="0" /></g><g
       transform="matrix(8,0,0,7.9591037,168.635,106.85063)"
       id="g27222"><path
         id="path27224"
         style="fill:#231f20;fill-opacity:1;fill-rule:evenodd;stroke:none"
         d="m 0,0 c -0.086,-0.064 -0.221,-0.15 -0.506,-0.15 -0.36,0 -0.492,0.199 -0.492,0.529 l 1.118,0 0,0.09 c 0,0.787 -0.356,1.031 -0.773,1.031 -0.491,0 -0.795,-0.446 -0.795,-1.024 0,-0.521 0.27,-0.967 0.893,-0.967 0.277,0 0.48,0.082 0.578,0.123 L 0,0 Z m -0.998,0.671 c 0,0.255 0.102,0.514 0.345,0.514 0.21,0 0.323,-0.172 0.323,-0.514 l -0.668,0"
         inkscape:connector-curvature="0" /></g><g
       transform="matrix(8,0,0,7.9591037,172.195,103.69087)"
       id="g27226"><path
         id="path27228"
         style="fill:#231f20;fill-opacity:1;fill-rule:nonzero;stroke:none"
         d="m 0,0 c 0.098,-0.037 0.296,-0.094 0.536,-0.094 0.42,0 0.721,0.214 0.721,0.57 0,0.225 -0.12,0.334 -0.361,0.488 L 0.668,1.11 C 0.533,1.197 0.45,1.253 0.45,1.358 c 0,0.116 0.079,0.187 0.266,0.187 0.169,0 0.293,-0.041 0.409,-0.086 l 0.027,0.36 C 1.107,1.834 0.915,1.898 0.668,1.898 0.259,1.898 0,1.617 0,1.35 0,1.047 0.214,0.923 0.409,0.806 L 0.6,0.694 C 0.769,0.596 0.807,0.525 0.807,0.45 0.807,0.3 0.675,0.259 0.506,0.259 0.289,0.259 0.098,0.356 0.023,0.386 L 0,0"
         inkscape:connector-curvature="0" /></g><g
       transform="matrix(8,0,0,7.9591037,196.483,106.85063)"
       id="g27230"><path
         id="path27232"
         style="fill:#231f20;fill-opacity:1;fill-rule:evenodd;stroke:none"
         d="m 0,0 c -0.086,-0.064 -0.221,-0.15 -0.506,-0.15 -0.36,0 -0.492,0.199 -0.492,0.529 l 1.118,0 0,0.09 c 0,0.787 -0.356,1.031 -0.773,1.031 -0.491,0 -0.795,-0.446 -0.795,-1.024 0,-0.521 0.27,-0.967 0.893,-0.967 0.277,0 0.48,0.082 0.578,0.123 L 0,0 Z m -0.998,0.671 c 0,0.255 0.102,0.514 0.345,0.514 0.21,0 0.323,-0.172 0.323,-0.514 l -0.668,0"
         inkscape:connector-curvature="0" /></g><path
       id="path27234"
       style="fill:#231f20;fill-opacity:1;fill-rule:nonzero;stroke:none"
       d="m 201.003,103.18149 3.72072,0 0,22.38975 -3.72072,0 0,-22.38975 z"
       inkscape:connector-curvature="0" /><path
       id="path27236"
       style="fill:#231f20;fill-opacity:1;fill-rule:nonzero;stroke:none"
       d="m 209.115,103.18149 3.72072,0 0,22.38975 -3.72072,0 0,-22.38975 z"
       inkscape:connector-curvature="0" /><g
       transform="matrix(8,0,0,7.9591037,216.267,103.69087)"
       id="g27238"><path
         id="path27240"
         style="fill:#231f20;fill-opacity:1;fill-rule:nonzero;stroke:none"
         d="m 0,0 c 0.098,-0.037 0.296,-0.094 0.536,-0.094 0.42,0 0.721,0.214 0.721,0.57 0,0.225 -0.12,0.334 -0.361,0.488 L 0.668,1.11 C 0.533,1.197 0.45,1.253 0.45,1.358 c 0,0.116 0.079,0.187 0.266,0.187 0.169,0 0.293,-0.041 0.409,-0.086 l 0.026,0.36 C 1.106,1.834 0.915,1.898 0.668,1.898 0.259,1.898 0,1.617 0,1.35 0,1.047 0.214,0.923 0.409,0.806 L 0.6,0.694 C 0.769,0.596 0.806,0.525 0.806,0.45 0.806,0.3 0.675,0.259 0.506,0.259 0.289,0.259 0.098,0.356 0.023,0.386 L 0,0"
         inkscape:connector-curvature="0" /></g><g
       transform="matrix(8,0,0,7.9591037,239.691,106.49247)"
       id="g27242"><path
         id="path27244"
         style="fill:#231f20;fill-opacity:1;fill-rule:nonzero;stroke:none"
         d="m 0,0 c -0.064,-0.041 -0.218,-0.094 -0.33,-0.094 -0.356,0 -0.529,0.278 -0.529,0.638 0,0.412 0.154,0.649 0.506,0.649 0.128,0 0.244,-0.053 0.327,-0.094 L 0,1.467 c -0.086,0.033 -0.259,0.078 -0.405,0.078 -0.649,0 -0.934,-0.446 -0.934,-0.997 0,-0.548 0.27,-0.994 0.908,-0.994 0.187,0 0.348,0.037 0.457,0.079 L 0,0"
         inkscape:connector-curvature="0" /></g><g
       transform="matrix(8,0,0,7.9591037,242.491,103.18149)"
       id="g27246"><path
         id="path27248"
         style="fill:#231f20;fill-opacity:1;fill-rule:nonzero;stroke:none"
         d="m 0,0 0.465,0 0,1.125 c 0,0.248 0.086,0.454 0.33,0.454 0.191,0 0.267,-0.124 0.267,-0.42 l 0,-1.159 0.465,0 0,1.245 c 0,0.39 -0.132,0.717 -0.571,0.717 -0.288,0 -0.397,-0.158 -0.48,-0.278 l -0.011,0 0,1.129 L 0,2.813 0,0"
         inkscape:connector-curvature="0" /></g><g
       transform="matrix(8,0,0,7.9591037,259.331,114.67443)"
       id="g27250"><path
         id="path27252"
         style="fill:#231f20;fill-opacity:1;fill-rule:evenodd;stroke:none"
         d="m 0,0 c 0.09,0.075 0.296,0.188 0.529,0.188 0.266,0 0.36,-0.177 0.36,-0.368 l 0,-0.071 -0.094,0 c -0.589,0 -1.016,-0.132 -1.016,-0.657 0,-0.36 0.277,-0.566 0.577,-0.566 0.278,0 0.424,0.135 0.54,0.293 l 0.008,0 c 0,-0.094 0.004,-0.188 0.026,-0.263 l 0.42,0 c -0.011,0.075 -0.026,0.203 -0.026,0.341 l 0,0.844 c 0,0.484 -0.139,0.777 -0.739,0.777 -0.296,0 -0.48,-0.083 -0.611,-0.143 L 0,0 Z m 0.889,-0.608 c 0,-0.345 -0.101,-0.551 -0.379,-0.551 -0.18,0 -0.296,0.12 -0.296,0.296 0,0.282 0.236,0.364 0.634,0.364 l 0.041,0 0,-0.109"
         inkscape:connector-curvature="0" /></g><g
       transform="matrix(8,0,0,7.9591037,274.891,103.18149)"
       id="g27254"><path
         id="path27256"
         style="fill:#231f20;fill-opacity:1;fill-rule:nonzero;stroke:none"
         d="m 0,0 0.465,0 0,1.59 0.353,0 0,0.342 -0.353,0 0,0.334 c 0,0.146 0.086,0.24 0.221,0.24 0.068,0 0.128,-0.015 0.184,-0.03 L 0.889,2.813 C 0.799,2.832 0.679,2.858 0.555,2.858 0.131,2.858 0,2.603 0,2.325 l 0,-0.393 -0.323,0 0,-0.342 L 0,1.59 0,0"
         inkscape:connector-curvature="0" /></g><g
       transform="matrix(8,0,0,7.9591037,285.371,118.55848)"
       id="g27258"><path
         id="path27260"
         style="fill:#231f20;fill-opacity:1;fill-rule:nonzero;stroke:none"
         d="m 0,0 -0.308,0 0,-0.341 0.308,0 0,-1.058 c 0,-0.405 0.195,-0.563 0.54,-0.563 0.139,0 0.24,0.03 0.311,0.064 l 0,0.33 C 0.818,-1.587 0.758,-1.609 0.675,-1.609 c -0.135,0 -0.21,0.06 -0.21,0.266 l 0,1.002 0.386,0 0,0.341 -0.386,0 0,0.54 L 0,0.398 0,0"
         inkscape:connector-curvature="0" /></g><g
       transform="matrix(8,0,0,7.9591037,302.747,103.81025)"
       id="g27262"><path
         id="path27264"
         style="fill:#231f20;fill-opacity:1;fill-rule:nonzero;stroke:none"
         d="m 0,0 c 0.131,-0.079 0.334,-0.116 0.596,-0.116 0.499,0 0.878,0.255 0.878,0.787 0,0.368 -0.146,0.533 -0.454,0.706 L 0.739,1.534 C 0.593,1.617 0.461,1.692 0.461,1.887 c 0,0.18 0.124,0.307 0.364,0.307 0.222,0 0.375,-0.067 0.492,-0.112 L 1.339,2.483 C 1.264,2.506 1.069,2.577 0.791,2.577 0.353,2.577 -0.034,2.333 -0.034,1.864 -0.034,1.527 0.135,1.32 0.394,1.178 L 0.638,1.043 C 0.87,0.915 0.979,0.833 0.979,0.645 0.979,0.383 0.791,0.266 0.581,0.266 0.326,0.266 0.12,0.368 0.026,0.428 L 0,0"
         inkscape:connector-curvature="0" /></g><g
       transform="matrix(8,0,0,7.9591037,318.963,114.67443)"
       id="g27266"><path
         id="path27268"
         style="fill:#231f20;fill-opacity:1;fill-rule:evenodd;stroke:none"
         d="m 0,0 c 0.09,0.075 0.296,0.188 0.529,0.188 0.266,0 0.36,-0.177 0.36,-0.368 l 0,-0.071 -0.094,0 c -0.589,0 -1.016,-0.132 -1.016,-0.657 0,-0.36 0.277,-0.566 0.577,-0.566 0.278,0 0.424,0.135 0.54,0.293 l 0.008,0 c 0,-0.094 0.004,-0.188 0.026,-0.263 l 0.42,0 c -0.011,0.075 -0.026,0.203 -0.026,0.341 l 0,0.844 c 0,0.484 -0.139,0.777 -0.739,0.777 -0.296,0 -0.48,-0.083 -0.611,-0.143 L 0,0 Z m 0.889,-0.608 c 0,-0.345 -0.101,-0.551 -0.379,-0.551 -0.18,0 -0.296,0.12 -0.296,0.296 0,0.282 0.236,0.364 0.634,0.364 l 0.041,0 0,-0.109"
         inkscape:connector-curvature="0" /></g><g
       transform="matrix(8,0,0,7.9591037,334.283,114.67443)"
       id="g27270"><path
         id="path27272"
         style="fill:#231f20;fill-opacity:1;fill-rule:evenodd;stroke:none"
         d="m 0,0 c 0.09,0.075 0.296,0.188 0.529,0.188 0.266,0 0.36,-0.177 0.36,-0.368 l 0,-0.071 -0.094,0 c -0.589,0 -1.016,-0.132 -1.016,-0.657 0,-0.36 0.277,-0.566 0.577,-0.566 0.278,0 0.424,0.135 0.54,0.293 l 0.008,0 c 0,-0.094 0.004,-0.188 0.026,-0.263 l 0.42,0 c -0.011,0.075 -0.026,0.203 -0.026,0.341 l 0,0.844 c 0,0.484 -0.139,0.777 -0.739,0.777 -0.296,0 -0.48,-0.083 -0.611,-0.143 L 0,0 Z m 0.889,-0.608 c 0,-0.345 -0.101,-0.551 -0.379,-0.551 -0.18,0 -0.296,0.12 -0.296,0.296 0,0.282 0.236,0.364 0.634,0.364 l 0.041,0 0,-0.109"
         inkscape:connector-curvature="0" /></g><g
       transform="matrix(8,0,0,7.9591037,348.771,103.18149)"
       id="g27274"><path
         id="path27276"
         style="fill:#231f20;fill-opacity:1;fill-rule:nonzero;stroke:none"
         d="m 0,0 0.465,0 0,1.058 c 0,0.36 0.21,0.476 0.401,0.476 0.049,0 0.09,-0.007 0.132,-0.019 l 0,0.435 C 0.971,1.954 0.949,1.962 0.919,1.962 0.63,1.962 0.484,1.729 0.428,1.579 l -0.008,0 c 0,0.116 -0.011,0.236 -0.015,0.353 l -0.42,0 C -0.004,1.845 0,1.733 0,1.613 L 0,0"
         inkscape:connector-curvature="0" /></g><g
       transform="matrix(8,0,0,7.9591037,367.251,103.18149)"
       id="g27278"><path
         id="path27280"
         style="fill:#231f20;fill-opacity:1;fill-rule:nonzero;stroke:none"
         d="m 0,0 0.465,0 0,1.17 c 0,0.214 0.109,0.409 0.315,0.409 0.173,0 0.248,-0.12 0.248,-0.36 l 0,-1.219 0.465,0 0,1.17 c 0,0.214 0.109,0.409 0.315,0.409 0.172,0 0.247,-0.12 0.247,-0.36 l 0,-1.219 0.466,0 0,1.193 C 2.521,1.662 2.386,1.962 1.965,1.962 1.68,1.962 1.542,1.789 1.448,1.654 1.392,1.759 1.287,1.962 0.96,1.962 0.694,1.962 0.544,1.778 0.473,1.628 l -0.008,0 c 0,0.101 -0.011,0.202 -0.015,0.304 l -0.465,0 C -0.008,1.86 0,1.755 0,1.617 L 0,0"
         inkscape:connector-curvature="0" /></g><g
       transform="matrix(8,0,0,7.9591037,391.059,125.57045)"
       id="g27282"><path
         id="path27284"
         style="fill:#231f20;fill-opacity:1;fill-rule:evenodd;stroke:none"
         d="m 0,0 0,-2.483 c 0,-0.139 -0.004,-0.259 -0.015,-0.33 l 0.435,0 c 0.008,0.056 0.015,0.169 0.015,0.3 l 0.011,0 c 0.075,-0.165 0.214,-0.33 0.514,-0.33 0.48,0 0.679,0.457 0.679,0.994 0,0.63 -0.251,0.997 -0.668,0.997 -0.277,0 -0.431,-0.157 -0.498,-0.307 l -0.008,0 L 0.465,0 0,0 Z m 0.465,-1.842 c 0,0.375 0.105,0.649 0.36,0.649 0.259,0 0.349,-0.251 0.349,-0.637 0,-0.447 -0.071,-0.672 -0.341,-0.672 -0.274,0 -0.368,0.297 -0.368,0.66"
         inkscape:connector-curvature="0" /></g><g
       transform="matrix(8,0,0,7.9591037,407.963,103.18149)"
       id="g27286"><path
         id="path27288"
         style="fill:#231f20;fill-opacity:1;fill-rule:nonzero;stroke:none"
         d="m 0,0 0.48,0 0,1.155 0.776,0 0,-1.155 0.481,0 0,2.618 -0.481,0 0,-1.065 -0.776,0 0,1.065 L 0,2.618 0,0"
         inkscape:connector-curvature="0" /></g><g
       transform="matrix(8,0,0,7.9591037,142.579,137.18277)"
       id="g27290"><path
         id="path27292"
         style="fill:#50b848;fill-opacity:1;fill-rule:nonzero;stroke:none"
         d="M 0,0 0.506,0 1.305,2.618 0.81,2.618 0.266,0.6 0.259,0.6 -0.27,2.618 -0.788,2.618 0,0"
         inkscape:connector-curvature="0" /></g><g
       transform="matrix(8,0,0,7.9591037,164.747,140.85193)"
       id="g27294"><path
         id="path27296"
         style="fill:#50b848;fill-opacity:1;fill-rule:evenodd;stroke:none"
         d="m 0,0 c -0.086,-0.064 -0.221,-0.15 -0.506,-0.15 -0.36,0 -0.492,0.199 -0.492,0.529 l 1.118,0 0,0.09 c 0,0.788 -0.356,1.031 -0.773,1.031 -0.491,0 -0.795,-0.446 -0.795,-1.024 0,-0.521 0.27,-0.967 0.893,-0.967 0.277,0 0.48,0.082 0.578,0.123 L 0,0 Z m -0.998,0.671 c 0,0.255 0.102,0.514 0.345,0.514 0.21,0 0.323,-0.172 0.323,-0.514 l -0.668,0"
         inkscape:connector-curvature="0" /></g><g
       transform="matrix(8,0,0,7.9591037,169.003,137.18277)"
       id="g27298"><path
         id="path27300"
         style="fill:#50b848;fill-opacity:1;fill-rule:nonzero;stroke:none"
         d="m 0,0 0.465,0 0,1.058 c 0,0.36 0.21,0.476 0.401,0.476 0.049,0 0.09,-0.007 0.132,-0.019 l 0,0.435 C 0.971,1.954 0.949,1.962 0.919,1.962 0.63,1.962 0.484,1.729 0.428,1.579 l -0.008,0 c 0,0.116 -0.011,0.236 -0.015,0.353 l -0.42,0 C -0.004,1.845 0,1.733 0,1.613 L 0,0"
         inkscape:connector-curvature="0" /></g><g
       transform="matrix(8,0,0,7.9591037,179.723,137.18277)"
       id="g27302"><path
         id="path27304"
         style="fill:#50b848;fill-opacity:1;fill-rule:nonzero;stroke:none"
         d="m 0,0 0.465,0 0,0.941 0.011,0 L 1.062,0 l 0.54,0 -0.743,1.058 0.679,0.874 -0.495,0 -0.567,-0.773 -0.011,0 0,1.654 L 0,2.813 0,0"
         inkscape:connector-curvature="0" /></g><g
       transform="matrix(8,0,0,7.9591037,205.883,140.85193)"
       id="g27306"><path
         id="path27308"
         style="fill:#50b848;fill-opacity:1;fill-rule:evenodd;stroke:none"
         d="m 0,0 c -0.086,-0.064 -0.221,-0.15 -0.506,-0.15 -0.36,0 -0.492,0.199 -0.492,0.529 l 1.118,0 0,0.09 c 0,0.788 -0.356,1.031 -0.773,1.031 -0.491,0 -0.795,-0.446 -0.795,-1.024 0,-0.521 0.27,-0.967 0.893,-0.967 0.277,0 0.48,0.082 0.578,0.123 L 0,0 Z m -0.998,0.671 c 0,0.255 0.102,0.514 0.345,0.514 0.21,0 0.323,-0.172 0.323,-0.514 l -0.668,0"
         inkscape:connector-curvature="0" /></g><g
       transform="matrix(8,0,0,7.9591037,210.019,137.18277)"
       id="g27310"><path
         id="path27312"
         style="fill:#50b848;fill-opacity:1;fill-rule:nonzero;stroke:none"
         d="m 0,0 0.465,0 0,1.125 c 0,0.248 0.086,0.454 0.33,0.454 0.191,0 0.266,-0.124 0.266,-0.42 l 0,-1.159 0.466,0 0,1.245 c 0,0.39 -0.132,0.717 -0.571,0.717 -0.288,0 -0.397,-0.158 -0.48,-0.278 l -0.011,0 0,1.129 L 0,2.813 0,0"
         inkscape:connector-curvature="0" /></g><g
       transform="matrix(8,0,0,7.9591037,225.987,137.18277)"
       id="g27314"><path
         id="path27316"
         style="fill:#50b848;fill-opacity:1;fill-rule:nonzero;stroke:none"
         d="m 0,0 0.465,0 0,1.058 c 0,0.36 0.21,0.476 0.401,0.476 0.049,0 0.09,-0.007 0.132,-0.019 l 0,0.435 C 0.971,1.954 0.949,1.962 0.919,1.962 0.63,1.962 0.484,1.729 0.428,1.579 l -0.008,0 c 0,0.116 -0.011,0.236 -0.015,0.353 l -0.42,0 C -0.004,1.845 0,1.733 0,1.613 L 0,0"
         inkscape:connector-curvature="0" /></g><g
       transform="matrix(8,0,0,7.9591037,235.811,137.6842)"
       id="g27318"><path
         id="path27320"
         style="fill:#50b848;fill-opacity:1;fill-rule:nonzero;stroke:none"
         d="m 0,0 c 0.097,-0.038 0.296,-0.094 0.536,-0.094 0.42,0 0.721,0.214 0.721,0.57 0,0.225 -0.12,0.334 -0.361,0.488 L 0.668,1.11 C 0.533,1.197 0.45,1.253 0.45,1.358 c 0,0.116 0.079,0.187 0.266,0.187 0.169,0 0.293,-0.041 0.409,-0.086 l 0.026,0.36 C 1.106,1.834 0.915,1.898 0.668,1.898 0.259,1.898 0,1.617 0,1.35 0,1.047 0.214,0.923 0.409,0.806 L 0.6,0.694 C 0.769,0.596 0.806,0.525 0.806,0.45 0.806,0.3 0.675,0.259 0.506,0.259 0.289,0.259 0.097,0.356 0.023,0.386 L 0,0"
         inkscape:connector-curvature="0" /></g><g
       transform="matrix(8,0,0,7.9591037,248.819,137.18277)"
       id="g27322"><path
         id="path27324"
         style="fill:#50b848;fill-opacity:1;fill-rule:nonzero;stroke:none"
         d="m 0,0 0.465,0 0,1.17 c 0,0.214 0.109,0.409 0.315,0.409 0.173,0 0.248,-0.12 0.248,-0.36 l 0,-1.219 0.465,0 0,1.17 c 0,0.214 0.109,0.409 0.315,0.409 0.172,0 0.247,-0.12 0.247,-0.36 l 0,-1.219 0.466,0 0,1.193 C 2.521,1.662 2.386,1.962 1.965,1.962 1.68,1.962 1.542,1.789 1.448,1.654 1.392,1.759 1.287,1.962 0.96,1.962 0.694,1.962 0.544,1.778 0.473,1.628 l -0.008,0 c 0,0.101 -0.011,0.202 -0.015,0.304 l -0.465,0 C -0.007,1.86 0,1.755 0,1.617 L 0,0"
         inkscape:connector-curvature="0" /></g><g
       transform="matrix(8,0,0,7.9591037,273.499,148.67572)"
       id="g27326"><path
         id="path27328"
         style="fill:#50b848;fill-opacity:1;fill-rule:evenodd;stroke:none"
         d="m 0,0 c 0.09,0.075 0.296,0.188 0.529,0.188 0.266,0 0.36,-0.177 0.36,-0.368 l 0,-0.071 -0.094,0 c -0.589,0 -1.016,-0.132 -1.016,-0.657 0,-0.36 0.277,-0.566 0.577,-0.566 0.278,0 0.424,0.135 0.54,0.293 l 0.008,0 c 0,-0.094 0.004,-0.188 0.026,-0.263 l 0.42,0 c -0.011,0.075 -0.026,0.203 -0.026,0.341 l 0,0.844 c 0,0.484 -0.139,0.777 -0.739,0.777 -0.296,0 -0.48,-0.083 -0.611,-0.143 L 0,0 Z m 0.889,-0.608 c 0,-0.345 -0.101,-0.551 -0.379,-0.551 -0.18,0 -0.296,0.12 -0.296,0.296 0,0.282 0.236,0.364 0.634,0.364 l 0.041,0 0,-0.109"
         inkscape:connector-curvature="0" /></g><g
       transform="matrix(8,0,0,7.9591037,287.835,137.18277)"
       id="g27330"><path
         id="path27332"
         style="fill:#50b848;fill-opacity:1;fill-rule:evenodd;stroke:none"
         d="m 0,0 0.465,0 0,1.125 c 0,0.248 0.086,0.454 0.33,0.454 0.191,0 0.267,-0.124 0.267,-0.42 l 0,-1.159 0.465,0 0,1.245 c 0,0.39 -0.132,0.717 -0.571,0.717 -0.315,0 -0.446,-0.21 -0.513,-0.327 l 0.003,0 -0.011,0 c 0,0.098 -0.011,0.199 -0.015,0.297 l -0.435,0 C -0.004,1.845 0,1.733 0,1.613 L 0,0"
         inkscape:connector-curvature="0" /></g><g
       transform="matrix(8,0,0,7.9591037,304.651,148.67572)"
       id="g27334"><path
         id="path27336"
         style="fill:#50b848;fill-opacity:1;fill-rule:evenodd;stroke:none"
         d="m 0,0 c 0.09,0.075 0.296,0.188 0.529,0.188 0.266,0 0.36,-0.177 0.36,-0.368 l 0,-0.071 -0.094,0 c -0.589,0 -1.016,-0.132 -1.016,-0.657 0,-0.36 0.277,-0.566 0.577,-0.566 0.278,0 0.424,0.135 0.54,0.293 l 0.008,0 c 0,-0.094 0.004,-0.188 0.026,-0.263 l 0.42,0 c -0.011,0.075 -0.026,0.203 -0.026,0.341 l 0,0.844 c 0,0.484 -0.139,0.777 -0.739,0.777 -0.296,0 -0.48,-0.083 -0.611,-0.143 L 0,0 Z m 0.889,-0.608 c 0,-0.345 -0.101,-0.551 -0.379,-0.551 -0.18,0 -0.296,0.12 -0.296,0.296 0,0.282 0.236,0.364 0.634,0.364 l 0.041,0 0,-0.109"
         inkscape:connector-curvature="0" /></g><g
       transform="matrix(8,0,0,7.9591037,322.403,145.03045)"
       id="g27338"><path
         id="path27340"
         style="fill:#50b848;fill-opacity:1;fill-rule:evenodd;stroke:none"
         d="M 0,0 C 0,0.394 0.094,0.619 0.338,0.623 0.559,0.626 0.713,0.409 0.713,0.004 0.713,-0.435 0.596,-0.645 0.304,-0.645 0.146,-0.645 0,-0.454 0,0 Z m -0.394,-1.699 c 0.113,-0.041 0.357,-0.12 0.664,-0.12 0.709,0 0.893,0.431 0.893,1.035 l 0,1.425 c 0,0.102 0.007,0.203 0.015,0.304 l -0.42,0 C 0.754,0.844 0.743,0.746 0.743,0.645 l -0.015,0 c -0.098,0.169 -0.229,0.33 -0.51,0.33 -0.507,0 -0.698,-0.469 -0.698,-1.001 0,-0.78 0.405,-0.96 0.675,-0.96 0.304,0 0.435,0.176 0.51,0.326 l 0.008,0 0,-0.184 c 0,-0.304 -0.072,-0.608 -0.51,-0.608 -0.244,0 -0.462,0.105 -0.571,0.165 l -0.026,-0.412"
         inkscape:connector-curvature="0" /></g><g
       transform="matrix(8,0,0,7.9591037,346.547,140.85193)"
       id="g27342"><path
         id="path27344"
         style="fill:#50b848;fill-opacity:1;fill-rule:evenodd;stroke:none"
         d="m 0,0 c -0.086,-0.064 -0.221,-0.15 -0.506,-0.15 -0.36,0 -0.492,0.199 -0.492,0.529 l 1.118,0 0,0.09 c 0,0.788 -0.356,1.031 -0.773,1.031 -0.491,0 -0.795,-0.446 -0.795,-1.024 0,-0.521 0.27,-0.967 0.893,-0.967 0.277,0 0.48,0.082 0.578,0.123 L 0,0 Z m -0.998,0.671 c 0,0.255 0.102,0.514 0.345,0.514 0.21,0 0.323,-0.172 0.323,-0.514 l -0.668,0"
         inkscape:connector-curvature="0" /></g><g
       transform="matrix(8,0,0,7.9591037,350.587,137.18277)"
       id="g27346"><path
         id="path27348"
         style="fill:#50b848;fill-opacity:1;fill-rule:nonzero;stroke:none"
         d="m 0,0 0.465,0 0,1.17 c 0,0.214 0.109,0.409 0.315,0.409 0.173,0 0.248,-0.12 0.248,-0.36 l 0,-1.219 0.465,0 0,1.17 c 0,0.214 0.109,0.409 0.315,0.409 0.172,0 0.247,-0.12 0.247,-0.36 l 0,-1.219 0.466,0 0,1.193 C 2.521,1.662 2.386,1.962 1.965,1.962 1.68,1.962 1.542,1.789 1.448,1.654 1.392,1.759 1.287,1.962 0.96,1.962 0.694,1.962 0.544,1.778 0.473,1.628 l -0.008,0 c 0,0.101 -0.011,0.202 -0.015,0.304 l -0.465,0 C -0.008,1.86 0,1.755 0,1.617 L 0,0"
         inkscape:connector-curvature="0" /></g><g
       transform="matrix(8,0,0,7.9591037,385.467,140.85193)"
       id="g27350"><path
         id="path27352"
         style="fill:#50b848;fill-opacity:1;fill-rule:evenodd;stroke:none"
         d="m 0,0 c -0.086,-0.064 -0.221,-0.15 -0.506,-0.15 -0.36,0 -0.492,0.199 -0.492,0.529 l 1.118,0 0,0.09 c 0,0.788 -0.356,1.031 -0.773,1.031 -0.491,0 -0.795,-0.446 -0.795,-1.024 0,-0.521 0.27,-0.967 0.893,-0.967 0.277,0 0.48,0.082 0.577,0.123 L 0,0 Z m -0.998,0.671 c 0,0.255 0.102,0.514 0.345,0.514 0.21,0 0.323,-0.172 0.323,-0.514 l -0.668,0"
         inkscape:connector-curvature="0" /></g><g
       transform="matrix(8,0,0,7.9591037,389.603,137.18277)"
       id="g27354"><path
         id="path27356"
         style="fill:#50b848;fill-opacity:1;fill-rule:evenodd;stroke:none"
         d="m 0,0 0.465,0 0,1.125 c 0,0.248 0.086,0.454 0.33,0.454 0.191,0 0.266,-0.124 0.266,-0.42 l 0,-1.159 0.466,0 0,1.245 c 0,0.39 -0.132,0.717 -0.571,0.717 -0.315,0 -0.446,-0.21 -0.513,-0.327 l 0.003,0 -0.011,0 c 0,0.098 -0.011,0.199 -0.015,0.297 l -0.435,0 C -0.004,1.845 0,1.733 0,1.613 L 0,0"
         inkscape:connector-curvature="0" /></g><g
       transform="matrix(8,0,0,7.9591037,406.835,152.55181)"
       id="g27358"><path
         id="path27360"
         style="fill:#50b848;fill-opacity:1;fill-rule:nonzero;stroke:none"
         d="m 0,0 -0.307,0 0,-0.341 0.307,0 0,-1.058 c 0,-0.405 0.195,-0.563 0.54,-0.563 0.139,0 0.24,0.03 0.311,0.064 l 0,0.33 C 0.818,-1.587 0.758,-1.609 0.675,-1.609 c -0.135,0 -0.21,0.06 -0.21,0.266 l 0,1.002 0.386,0 0,0.341 -0.386,0 0,0.54 L 0,0.398 0,0"
         inkscape:connector-curvature="0" /></g><path
       id="path27362"
       style="fill:#50b848;fill-opacity:1;fill-rule:nonzero;stroke:none"
       d="m 415.883,144.13903 6.93112,0 0,3.04492 -6.93112,0 0,-3.04492 z"
       inkscape:connector-curvature="0" /><g
       transform="matrix(8,0,0,7.9591037,215.347,294.00896)"
       id="g27364"><path
         id="path27366"
         style="fill:#231f20;fill-opacity:1;fill-rule:nonzero;stroke:none"
         d="m 0,0 -3.74,0 -1.969,-6.458 c -0.374,-1.22 -0.473,-1.732 -0.63,-2.559 l -0.04,0 c -0.197,0.906 -0.433,1.654 -0.649,2.363 L -9.056,0 l -3.938,0 4.371,-13.289 4.311,0 L 0,0"
         inkscape:connector-curvature="0" /></g><g
       transform="matrix(8,0,0,7.9591037,302.827,291.94755)"
       id="g27368"><path
         id="path27370"
         style="fill:#231f20;fill-opacity:1;fill-rule:nonzero;stroke:none"
         d="m 0,0 c -1.083,0.334 -2.124,0.476 -3.503,0.476 -4.843,0 -7.835,-2.914 -7.835,-7.226 0,-3.976 2.382,-6.516 6.851,-6.516 1.811,0 3.504,0.354 4.784,0.925 l 0,6.556 -3.662,0 0,-4.036 c -0.197,-0.059 -0.472,-0.098 -0.748,-0.098 -2.264,0 -3.249,1.358 -3.249,3.425 0,2.146 1.261,3.662 3.682,3.662 1.319,0 2.656,-0.189 3.68,-0.582 L 0,0"
         inkscape:connector-curvature="0" /></g><g
       transform="matrix(8,0,0,7.9591037,436.707,223.34007)"
       id="g27372"><path
         id="path27374"
         style="fill:#231f20;fill-opacity:1;fill-rule:nonzero;stroke:none"
         d="m 0,0 c 0,4.154 -4.961,3.504 -4.961,5.178 0,0.512 0.432,0.925 1.456,0.925 0.807,0 1.747,-0.146 2.515,-0.363 l 0,3.117 c -0.827,0.138 -1.708,0.278 -2.377,0.278 -3.504,0 -5.532,-1.693 -5.532,-4.331 0,-4.548 4.961,-3.406 4.961,-5.336 0,-0.61 -0.571,-0.984 -1.457,-0.984 -1.004,0 -2.221,0.245 -2.949,0.501 L -8.391,-4.432 C -7.505,-4.629 -6.596,-4.666 -5.69,-4.666 -2.146,-4.666 0,-2.658 0,0"
         inkscape:connector-curvature="0" /></g><g
       transform="matrix(8,0,0,7.9591037,316.235,191.70264)"
       id="g27376"><path
         id="path27378"
         style="fill:#50b848;fill-opacity:1;fill-rule:nonzero;stroke:#50b848;stroke-width:0.23199999;stroke-linecap:butt;stroke-linejoin:miter;stroke-miterlimit:3.86400008;stroke-dasharray:none;stroke-opacity:1"
         d="M 0,0 C 0,1.481 1.245,2.681 2.783,2.681 4.32,2.681 5.565,1.481 5.565,0 5.565,-1.481 4.32,-2.681 2.783,-2.681 1.245,-2.681 0,-1.481 0,0 Z"
         inkscape:connector-curvature="0" /></g><g
       transform="matrix(8,0,0,7.9591037,316.235,294.00896)"
       id="g27380"><path
         id="path27382"
         style="fill:#50b848;fill-opacity:1;fill-rule:nonzero;stroke:#50b848;stroke-width:0.23199999;stroke-linecap:butt;stroke-linejoin:miter;stroke-miterlimit:3.86400008;stroke-dasharray:none;stroke-opacity:1"
         d="M 0,0 C 0,1.481 1.245,2.681 2.783,2.681 4.32,2.681 5.565,1.481 5.565,0 5.565,-1.481 4.32,-2.681 2.783,-2.681 1.245,-2.681 0,-1.481 0,0 Z"
         inkscape:connector-curvature="0" /></g><g
       transform="matrix(8,0,0,7.9591037,316.235,242.91151)"
       id="g27384"><path
         id="path27386"
         style="fill:#50b848;fill-opacity:1;fill-rule:nonzero;stroke:#50b848;stroke-width:0.23199999;stroke-linecap:butt;stroke-linejoin:miter;stroke-miterlimit:3.86400008;stroke-dasharray:none;stroke-opacity:1"
         d="M 0,0 C 0,1.481 1.245,2.681 2.783,2.681 4.32,2.681 5.565,1.481 5.565,0 5.565,-1.481 4.32,-2.681 2.783,-2.681 1.245,-2.681 0,-1.481 0,0 Z"
         inkscape:connector-curvature="0" /></g></g></svg>