<?xml version="1.0" encoding="UTF-8" standalone="no"?>
<!-- Created with Inkscape (http://www.inkscape.org/) -->

<svg
   xmlns:dc="http://purl.org/dc/elements/1.1/"
   xmlns:cc="http://creativecommons.org/ns#"
   xmlns:rdf="http://www.w3.org/1999/02/22-rdf-syntax-ns#"
   xmlns:svg="http://www.w3.org/2000/svg"
   xmlns="http://www.w3.org/2000/svg"
   xmlns:sodipodi="http://sodipodi.sourceforge.net/DTD/sodipodi-0.dtd"
   xmlns:inkscape="http://www.inkscape.org/namespaces/inkscape"
   width="64"
   height="64"
   id="svg3352"
   version="1.1"
   inkscape:version="0.91 r13725"
   viewBox="0 0 64 64"
   sodipodi:docname="network_vmobil_logo.svg">
  <defs
     id="defs3354" />
  <sodipodi:namedview
     id="base"
     pagecolor="#ffffff"
     bordercolor="#666666"
     borderopacity="1.0"
     inkscape:pageopacity="0.0"
     inkscape:pageshadow="2"
     inkscape:zoom="1.04"
     inkscape:cx="-13.909091"
     inkscape:cy="46.545455"
     inkscape:current-layer="layer1"
     showgrid="true"
     inkscape:document-units="px"
     inkscape:grid-bbox="true"
     inkscape:window-width="1366"
     inkscape:window-height="744"
     inkscape:window-x="0"
     inkscape:window-y="24"
     inkscape:window-maximized="1" />
  <metadata
     id="metadata3357">
    <rdf:RDF>
      <cc:Work
         rdf:about="">
        <dc:format>image/svg+xml</dc:format>
        <dc:type
           rdf:resource="http://purl.org/dc/dcmitype/StillImage" />
        <dc:title></dc:title>
      </cc:Work>
    </rdf:RDF>
  </metadata>
  <g
     id="layer1"
     inkscape:label="Layer 1"
     inkscape:groupmode="layer">
    <g
       id="g3416"
       transform="matrix(0.76207487,0,0,0.76207487,-8.8093742e-8,18.49651)">
      <path
         style="fill:#4c575f;fill-opacity:1;fill-rule:nonzero;stroke:none"
         id="path5451"
         d="m 77.6638,20.2225 -6.96625,0 L 64.66505,0 l 6.2875,0 3.31375,12.26375 0.0562,0 L 77.58,0 83.98125,0 M 52.845,20.2225 l -6.96625,0 L 39.84625,0 l 6.2875,0 3.3125,12.26375 0.0575,0 L 52.76125,0 l 6.4,0 M 13,20.2225 l -6.9675,0 L 0,0 l 6.2875,0 3.31375,12.26375 0.0563,0 L 12.91505,0 19.3163,0"
         inkscape:connector-curvature="0" />
      <path
         style="fill:#4c575f;fill-opacity:1;fill-rule:nonzero;stroke:none"
         id="path5481"
         d="m 80.9613,28.95625 0.88875,0 c 0.365,0 1.35,-0.1025 1.35,-1.58125 0,-0.95625 -0.355,-1.535 -1.33875,-1.535 l -0.9,0 0,3.11625 z m -0.535,-3.5675 1.37875,0 c 1.23625,0 1.92875,0.62 1.92875,1.91375 0,1.34375 -0.59,2.10375 -1.92875,2.10375 l -1.37875,0 m -4.34875,-4.0175 0.56875,0 2.115,3.2575 0.0113,0 0,-3.2575 0.50624,0 0,4.0175 -0.585,0 -2.09875,-3.22375 -0.01,0 0,3.22375 -0.50751,0 m -1.13,-1.45125 c 0,1.0125 -0.57875,1.54625 -1.58,1.54625 -1.03499,0 -1.64875,-0.4775 -1.64875,-1.54625 l 0,-2.56625 0.535,0 0,2.56625 c 0,0.70875 0.405,1.09625 1.11375,1.09625 0.675,0 1.04625,-0.3875 1.04625,-1.09625 l 0,-2.56625 0.53375,0 m -6.80625,3.5675 1.33875,0 c 0.46125,0 0.75375,-0.28125 0.75375,-0.72 0,-0.52375 -0.4225,-0.67 -0.87125,-0.67 l -1.22125,0 0,1.39 z m 0,-1.84 1.06875,0 c 0.6075,0 0.855,-0.21875 0.855,-0.64125 0,-0.55625 -0.39375,-0.635 -0.855,-0.635 l -1.06875,0 0,1.27625 z m -0.53375,-1.7275 1.45625,0 c 0.355,0 0.82125,0 1.0625,0.1475 0.265,0.1575 0.47375,0.44375 0.47375,0.8375 0,0.4275 -0.22625,0.74875 -0.59625,0.9 l 0,0.0113 c 0.495,0.10125 0.765,0.4725 0.765,0.9675 0,0.59125 -0.4225,1.15375 -1.22125,1.15375 l -1.94,0 m -2.48625,-2.16625 c 0.5,0 0.9275,-0.13 0.9275,-0.71375 0,-0.39375 -0.21375,-0.68625 -0.71375,-0.68625 l -1.3275,0 0,1.4 1.11375,0 z m -1.64875,-1.85125 1.89,0 c 0.75375,0 1.22125,0.41125 1.22125,1.0525 0,0.48375 -0.21375,0.88375 -0.6975,1.01875 l 0,0.0113 c 0.46625,0.09 0.5625,0.4325 0.60125,0.82625 0.0337,0.39375 0.0113,0.8325 0.23625,1.10875 l -0.59625,0 c -0.15125,-0.16375 -0.0675,-0.59625 -0.14625,-0.99 -0.0562,-0.395 -0.15125,-0.72625 -0.66875,-0.72625 l -1.305,0 0,1.71625 -0.535,0 m -3.7175,-4.0175 2.7725,0 0,0.45125 -2.23875,0 0,1.27625 2.0875,0 0,0.45 -2.0875,0 0,1.39 2.25625,0 0,0.45 -2.79,0 m -2.1375,0 -0.6075,0 -1.4175,-4.0175 0.57875,0 1.1475,3.4825 0.0112,0 1.15875,-3.4825 0.5575,0 m -4.6125,1.17625 c -0.0625,-0.57375 -0.44375,-0.82125 -0.99625,-0.82125 -0.45,0 -0.89875,0.1625 -0.89875,0.68625 0,0.495 0.64125,0.56875 1.2875,0.715 0.64125,0.14625 1.2825,0.37125 1.2825,1.15875 0,0.855 -0.83875,1.1975 -1.57,1.1975 -0.9,0 -1.65875,-0.43875 -1.65875,-1.4175 l 0.50625,0 c 0,0.675 0.5625,0.9675 1.17,0.9675 0.48375,0 1.0175,-0.15125 1.0175,-0.73125 0,-0.55125 -0.64125,-0.64625 -1.2825,-0.7875 -0.64125,-0.14125 -1.2875,-0.32625 -1.2875,-1.0625 0,-0.81625 0.725,-1.17625 1.45625,-1.17625 0.82125,0 1.44625,0.38875 1.48,1.27125 m -5.31625,0.675 c 0.50125,0 0.92875,-0.13 0.92875,-0.71375 0,-0.39375 -0.21375,-0.68625 -0.715,-0.68625 l -1.3275,0 0,1.4 1.11375,0 z m -1.6475,-1.85125 1.89,0 c 0.75375,0 1.22125,0.41125 1.22125,1.0525 0,0.48375 -0.215,0.88375 -0.69875,1.01875 l 0,0.0113 c 0.4675,0.09 0.5625,0.4325 0.6025,0.82625 0.0337,0.39375 0.0112,0.8325 0.23625,1.10875 l -0.59625,0 c -0.1525,-0.16375 -0.0675,-0.59625 -0.14625,-0.99 -0.0562,-0.395 -0.1525,-0.72625 -0.67,-0.72625 l -1.305,0 0,1.71625 -0.53375,0 m -4.3425,-4.0175 0.53375,0 0,1.7275 2.115,0 0,-1.7275 0.535,0 0,4.0175 -0.535,0 0,-1.84 -2.115,0 0,1.84 -0.53375,0 m -3.71875,-4.0175 2.77375,0 0,0.45125 -2.23875,0 0,1.27625 2.0875,0 0,0.45 -2.0875,0 0,1.39 2.255,0 0,0.45 -2.79,0 m -4.0325,-4.0175 0.53375,0 0,2.0025 2.0375,-2.0025 0.69125,0 -1.69375,1.62125 1.76125,2.39625 -0.675,0 -1.45125,-2.03125 -0.67,0.625 0,1.40625 -0.53375,0 m -2.48625,-2.16625 c 0.50125,0 0.9275,-0.13 0.9275,-0.71375 0,-0.39375 -0.2125,-0.68625 -0.71375,-0.68625 l -1.3275,0 0,1.4 1.11375,0 z m -1.64875,-1.85125 1.89125,0 c 0.7525,0 1.22,0.41125 1.22,1.0525 0,0.48375 -0.21375,0.88375 -0.6975,1.01875 l 0,0.0113 c 0.4675,0.09 0.5625,0.4325 0.60125,0.82625 0.035,0.39375 0.0125,0.8325 0.2375,1.10875 l -0.59625,0 c -0.1525,-0.16375 -0.0675,-0.59625 -0.14625,-0.99 -0.0575,-0.395 -0.1525,-0.72625 -0.67,-0.72625 l -1.305,0 0,1.71625 -0.535,0 m -3.7175,-4.0175 2.7725,0 0,0.45125 -2.2375,0 0,1.27625 2.08625,0 0,0.45 -2.08625,0 0,1.39 2.255,0 0,0.45 -2.79,0 m -2.1375,0 -0.6075,0 -1.4175,-4.0175 0.58,0 1.1475,3.4825 0.0112,0 1.1575,-3.4825 0.5575,0"
         inkscape:connector-curvature="0" />
      <path
         style="fill:#4c575f;fill-opacity:1;fill-rule:nonzero;stroke:none"
         id="path5501"
         d="m 82.9688,34.8875 c -0.31,0.39875 -0.71375,0.55125 -1.1025,0.55125 -1.24375,0 -1.975,-0.9275 -1.975,-2.08625 0,-1.19375 0.73125,-2.12125 1.975,-2.12125 0.82125,0 1.5975,0.50625 1.69375,1.4175 l -0.845,0 c -0.1,-0.44375 -0.4325,-0.675 -0.84875,-0.675 -0.7925,0 -1.09125,0.675 -1.09125,1.37875 0,0.66875 0.29875,1.34375 1.09125,1.34375 0.57375,0 0.90625,-0.30875 0.95625,-0.86625 l -0.88875,0 0,-0.65875 1.6875,0 0,2.1725 -0.5625,0 m -6.39625,-2.2 0.96875,0 c 0.39375,0 0.6075,-0.16875 0.6075,-0.57375 0,-0.38875 -0.21375,-0.5575 -0.6075,-0.5575 l -0.96875,0 0,1.13125 z m -0.8825,-1.8175 2.16625,0 c 0.71875,0 1.175,0.50125 1.175,1.10875 0,0.4725 -0.19125,0.8275 -0.635,1.0075 l 0,0.0112 c 0.4325,0.11125 0.55625,0.53375 0.58375,0.93875 0.0175,0.25375 0.0113,0.72625 0.17,0.95125 l -0.88375,0 c -0.1075,-0.25375 -0.095,-0.64125 -0.14,-0.9625 -0.0625,-0.4225 -0.225,-0.6075 -0.67,-0.6075 l -0.88375,0 0,1.57 -0.8825,0 m -3.87,-4.0175 3.00375,0 0,0.74375 -2.12,0 0,0.86 1.945,0 0,0.68625 -1.945,0 0,0.985 2.165,0 0,0.7425 -3.04875,0 m -3.30125,-0.6875 0.945,0 c 0.34875,0 0.65125,-0.11125 0.65125,-0.5275 0,-0.41125 -0.2575,-0.57375 -0.635,-0.57375 l -0.96125,0 0,1.10125 z m 0,-1.70375 0.89375,0 c 0.30875,0 0.54,-0.14125 0.54,-0.47875 0,-0.38125 -0.2925,-0.46125 -0.6075,-0.46125 l -0.82625,0 0,0.94 z m -0.88375,-1.62625 1.89,0 c 0.765,0 1.2825,0.24875 1.2825,0.99625 0,0.39375 -0.1975,0.66875 -0.545,0.83875 0.48875,0.14 0.73625,0.5175 0.73625,1.0175 0,0.815 -0.69125,1.165 -1.4175,1.165 l -1.94625,0 m -3.56,-4.0175 0.8825,0 0,3.275 1.9575,0 0,0.7425 -2.84,0 m -3.4025,-2.2 0.96625,0 c 0.39375,0 0.60875,-0.16875 0.60875,-0.57375 0,-0.38875 -0.215,-0.5575 -0.60875,-0.5575 l -0.96625,0 0,1.13125 z m -0.88375,-1.8175 2.165,0 c 0.72,0 1.17625,0.50125 1.17625,1.10875 0,0.4725 -0.19125,0.8275 -0.63625,1.0075 l 0,0.0112 c 0.43375,0.11125 0.5575,0.53375 0.58625,0.93875 0.0163,0.25375 0.01,0.72625 0.16875,0.95125 l -0.88375,0 c -0.10625,-0.25375 -0.0962,-0.64125 -0.14125,-0.9625 -0.0613,-0.4225 -0.22375,-0.6075 -0.66875,-0.6075 l -0.8825,0 0,1.57 -0.88375,0 m -3.06625,-1.5525 1.04125,0 -0.50625,-1.475 -0.0113,0 -0.52375,1.475 z m 0.085,-2.465 0.90625,0 1.50125,4.0175 -0.91625,0 -0.305,-0.895 -1.50125,0 -0.315,0.895 -0.895,0 m -2.975,-2.2 0.9675,0 c 0.39375,0 0.6075,-0.16875 0.6075,-0.57375 0,-0.38875 -0.21375,-0.5575 -0.6075,-0.5575 l -0.9675,0 0,1.13125 z m -0.88375,-1.8175 2.16625,0 c 0.72,0 1.175,0.50125 1.175,1.10875 0,0.4725 -0.19,0.8275 -0.635,1.0075 l 0,0.0112 c 0.4325,0.11125 0.55625,0.53375 0.585,0.93875 0.0163,0.25375 0.0113,0.72625 0.16875,0.95125 l -0.8825,0 c -0.1075,-0.25375 -0.0962,-0.64125 -0.14125,-0.9625 -0.0625,-0.4225 -0.225,-0.6075 -0.66875,-0.6075 l -0.88375,0 0,1.57 -0.88375,0 m -2.80125,-0.6475 c 0.79375,0 1.09125,-0.675 1.09125,-1.34375 0,-0.70375 -0.2975,-1.37875 -1.09125,-1.37875 -0.7925,0 -1.09125,0.675 -1.09125,1.37875 0,0.66875 0.29875,1.34375 1.09125,1.34375 z m 0,-3.465 c 1.24375,0 1.975,0.9275 1.975,2.12125 0,1.15875 -0.73125,2.08625 -1.975,2.08625 -1.2425,0 -1.97375,-0.9275 -1.97375,-2.08625 0,-1.19375 0.73125,-2.12125 1.97375,-2.12125 m -3.70125,4.1125 -0.995,0 -1.305,-4.0175 0.91125,0 0.89375,2.825 0.0113,0 0.90625,-2.825 0.91125,0"
         inkscape:connector-curvature="0" />
    </g>
  </g>
</svg>
