<?xml version="1.0" encoding="UTF-8" standalone="no"?>
<svg
   xmlns:dc="http://purl.org/dc/elements/1.1/"
   xmlns:cc="http://creativecommons.org/ns#"
   xmlns:rdf="http://www.w3.org/1999/02/22-rdf-syntax-ns#"
   xmlns:svg="http://www.w3.org/2000/svg"
   xmlns="http://www.w3.org/2000/svg"
   version="1.1"
   id="svg2"
   viewBox="0 0 100 100"
   width="100"
   height="100">
  <path
     d="m 0,0 0,100 100,0 0,-100 z"
     style="fill:#233366" />
  <g
     style="fill:#ffffff;fill-opacity:1"
     transform="matrix(0.64945346,0,0,0.64945346,11.114948,24.625204)"
     id="g3284">
    <path
       style="fill:#ffffff;"
       d="M 59.878,76.239 C 28.446,76.239 2.965,59.617 2.965,39.08 2.965,18.542 28.446,1.903 59.878,1.903 c 31.437,0 56.904,16.64 56.904,37.177 0,20.537 -25.468,37.159 -56.904,37.159 M 106.999,39.08 c 0,-18.363 -21.079,-33.227 -47.121,-33.227 -26.014,0 -47.127,14.864 -47.127,33.227 0,18.35 21.114,33.252 47.127,33.252 26.042,0 47.121,-14.902 47.121,-33.252"/>
    <path
       style="fill:#ffffff;"
       d="m 59.194,13.719 c 14.673,0 23.928,6.899 23.928,13.785 0,5.712 -3.852,8.64 -4.926,9.164 -2.292,1.178 -0.4,1.341 0.391,1.625 0.799,0.279 7.841,3.713 7.841,10.5 0,9.203 -10.674,16.167 -27.083,16.167 -11.634,0 -20.574,-5.55 -23.646,-7.557 -1.531,-1.006 -1.25,-1.453 -0.788,-1.917 0.466,-0.481 1.726,-1.982 2.394,-2.795 0.675,-0.808 0.929,-0.412 1.401,-0.21 0.467,0.21 1.496,0.464 1.496,-0.933 l 0,-24.804 c 0,-1.354 -0.516,-1.414 -1.109,-0.998 -0.595,0.396 -1.321,1.397 -2.258,0.396 -0.916,-1.006 -1.333,-1.405 -1.995,-2.261 -0.672,-0.886 -0.567,-1.35 0.411,-2.141 3.12,-2.459 11.28,-8.021 23.943,-8.021 m -6.082,8.632 0,11.485 c 0,1.268 0.585,1.328 1.117,1.328 l 5.771,0 c 1.218,0 7.9,-1.122 7.9,-7.785 0,-6.619 -6.48,-7.556 -7.417,-7.556 l -4.397,0 c -1.311,0 -2.974,0.628 -2.974,2.528 m 3.578,36.317 5.432,0 c 1.135,0 9.209,-1.105 9.209,-8.833 0,-7.725 -8.303,-9.031 -9.793,-9.031 l -7.153,0 c -0.653,0 -1.393,0.215 -1.393,1.672 l 0,13.708 c 0,2.226 2.048,2.484 3.698,2.484"/>
  </g>
</svg>
