<?xml version="1.0" encoding="UTF-8" standalone="no"?>
<!-- Created with Inkscape (http://www.inkscape.org/) -->

<svg
   xmlns:dc="http://purl.org/dc/elements/1.1/"
   xmlns:cc="http://creativecommons.org/ns#"
   xmlns:rdf="http://www.w3.org/1999/02/22-rdf-syntax-ns#"
   xmlns:svg="http://www.w3.org/2000/svg"
   xmlns="http://www.w3.org/2000/svg"
   xmlns:sodipodi="http://sodipodi.sourceforge.net/DTD/sodipodi-0.dtd"
   xmlns:inkscape="http://www.inkscape.org/namespaces/inkscape"
   width="64"
   height="64"
   id="svg3352"
   version="1.1"
   inkscape:version="0.91 r13725"
   viewBox="0 0 64 64"
   sodipodi:docname="network_vmobil_logo.svg">
  <defs
     id="defs3354" />
  <sodipodi:namedview
     id="base"
     pagecolor="#ffffff"
     bordercolor="#666666"
     borderopacity="1.0"
     inkscape:pageopacity="0.0"
     inkscape:pageshadow="2"
     inkscape:zoom="8.32"
     inkscape:cx="22.099973"
     inkscape:cy="31.167433"
     inkscape:current-layer="layer1"
     showgrid="true"
     inkscape:document-units="px"
     inkscape:grid-bbox="true"
     inkscape:window-width="1920"
     inkscape:window-height="1021"
     inkscape:window-x="1440"
     inkscape:window-y="23"
     inkscape:window-maximized="0" />
  <metadata
     id="metadata3357">
    <rdf:RDF>
      <cc:Work
         rdf:about="">
        <dc:format>image/svg+xml</dc:format>
        <dc:type
           rdf:resource="http://purl.org/dc/dcmitype/StillImage" />
        <dc:title />
      </cc:Work>
    </rdf:RDF>
  </metadata>
  <g
     id="layer1"
     inkscape:label="Layer 1"
     inkscape:groupmode="layer">
    <path
       inkscape:connector-curvature="0"
       d="m 59.18563,33.907569 -5.308804,0 -4.597217,-15.411059 4.791546,0 2.525326,9.345896 0.04283,0 2.482459,-9.345896 4.878232,0 m -23.728154,15.411059 -5.308804,0 -4.597216,-15.411059 4.791545,0 2.524373,9.345896 0.04382,0 2.482459,-9.345896 4.877279,0 m -35.1783288,15.411059 -5.3097566,0 L -8.8093742e-8,18.49651 4.7915457,18.49651 l 2.5253256,9.345896 0.042905,0 2.4824589,-9.345896 4.878232,0"
       id="path5451"
       style="fill:#4c575f;fill-opacity:1;fill-rule:nonzero;stroke:none" />
    <path
       inkscape:connector-curvature="0"
       d="m 61.698572,40.56334 0.677294,0 c 0.278157,0 1.028801,-0.07811 1.028801,-1.20503 0,-0.728735 -0.270536,-1.169785 -1.020228,-1.169785 l -0.685867,0 0,2.374815 z m -0.40771,-2.718702 1.050711,0 c 0.942115,0 1.469852,0.472487 1.469852,1.458421 0,1.024038 -0.449625,1.603215 -1.469852,1.603215 l -1.050711,0 m -3.314073,-3.061636 0.43343,0 1.611788,2.482459 0.0086,0 0,-2.482459 0.385793,0 0,3.061636 -0.445814,0 -1.599405,-2.456739 -0.0076,0 0,2.456739 -0.38676,0 m -0.861145,-1.105961 c 0,0.771601 -0.441051,1.178358 -1.204078,1.178358 -0.78874,0 -1.256471,-0.36389 -1.256471,-1.178358 l 0,-1.955675 0.40771,0 0,1.955675 c 0,0.540121 0.30864,0.835425 0.848761,0.835425 0.5144,0 0.797321,-0.295304 0.797321,-0.835425 l 0,-1.955675 0.406757,0 m -5.186872,2.718702 1.020228,0 c 0.351507,0 0.574414,-0.214333 0.574414,-0.548693 0,-0.399137 -0.321977,-0.510591 -0.663958,-0.510591 l -0.930684,0 0,1.059284 z m 0,-1.402217 0.814468,0 c 0.46296,0 0.651574,-0.166704 0.651574,-0.488681 0,-0.423904 -0.300067,-0.483917 -0.651574,-0.483917 l -0.814468,0 0,0.972598 z m -0.406757,-1.316485 1.109771,0 c 0.270537,0 0.625854,0 0.809705,0.112406 0.20195,0.120027 0.361033,0.338171 0.361033,0.638238 0,0.325787 -0.17242,0.570604 -0.454387,0.685867 l 0,0.0086 c 0.377227,0.07716 0.582987,0.36008 0.582987,0.737307 0,0.450577 -0.321977,0.879244 -0.930684,0.879244 l -1.478425,0 m -1.894709,-1.650844 c 0.381037,0 0.706824,-0.09907 0.706824,-0.543931 0,-0.300067 -0.162893,-0.522974 -0.54393,-0.522974 l -1.011655,0 0,1.066905 0.848761,0 z m -1.256471,-1.410792 1.440322,0 c 0.574414,0 0.930684,0.313404 0.930684,0.802084 0,0.368654 -0.162894,0.673484 -0.531548,0.776364 l 0,0.0086 c 0.355318,0.06859 0.428667,0.329598 0.458198,0.629665 0.02568,0.300067 0.0086,0.634427 0.18004,0.84495 l -0.454387,0 c -0.115264,-0.124789 -0.05144,-0.454387 -0.111454,-0.754454 -0.04283,-0.301019 -0.115263,-0.553457 -0.509637,-0.553457 l -0.994508,0 0,1.307911 -0.40771,0 m -2.833013,-3.061635 2.112852,0 0,0.343886 -1.706095,0 0,0.972598 1.590831,0 0,0.342934 -1.590831,0 0,1.059284 1.719432,0 0,0.342933 -2.126189,0 m -1.628935,0 -0.462961,0 -1.080241,-3.061635 0.441051,0 0.874481,2.653925 0.0085,0 0.883054,-2.653925 0.424857,0 m -3.51507,0.89639 c -0.04763,-0.43724 -0.338171,-0.625854 -0.759217,-0.625854 -0.342934,0 -0.684915,0.123837 -0.684915,0.522974 0,0.377227 0.48868,0.43343 0.981171,0.544884 0.488681,0.111453 0.977361,0.28292 0.977361,0.883054 0,0.651574 -0.63919,0.912584 -1.196457,0.912584 -0.685868,0 -1.264092,-0.33436 -1.264092,-1.080241 l 0.3858,0 c 0,0.514401 0.428668,0.737308 0.891628,0.737308 0.368654,0 0.775411,-0.115264 0.775411,-0.557267 0,-0.420094 -0.48868,-0.492491 -0.977361,-0.600134 -0.48868,-0.107644 -0.981171,-0.248627 -0.981171,-0.809705 0,-0.622044 0.552504,-0.896391 1.109771,-0.896391 0.625854,0 1.102151,0.296257 1.127871,0.968788 m -4.05138,0.514401 c 0.38199,0 0.707777,-0.09907 0.707777,-0.543931 0,-0.300067 -0.162894,-0.522974 -0.544884,-0.522974 l -1.011654,0 0,1.066905 0.848761,0 z m -1.255519,-1.410791 1.440322,0 c 0.574414,0 0.930684,0.313403 0.930684,0.802083 0,0.368654 -0.163846,0.673484 -0.5325,0.776364 l 0,0.0086 c 0.35627,0.06859 0.428667,0.329597 0.45915,0.629664 0.02568,0.300067 0.0085,0.634427 0.18004,0.84495 l -0.454387,0 c -0.116216,-0.124789 -0.05144,-0.454387 -0.111453,-0.754454 -0.04283,-0.301019 -0.116217,-0.553457 -0.510591,-0.553457 l -0.994507,0 0,1.307911 -0.406758,0 m -3.30931,-3.061635 0.406758,0 0,1.316484 1.611788,0 0,-1.316484 0.40771,0 0,3.061635 -0.40771,0 0,-1.402217 -1.611788,0 0,1.402217 -0.406758,0 m -2.833966,-3.061635 2.113805,0 0,0.343886 -1.706095,0 0,0.972598 1.590832,0 0,0.342934 -1.590832,0 0,1.059284 1.718479,0 0,0.342933 -2.126189,0 m -3.073067,-3.061635 0.406758,0 0,1.526055 1.552727,-1.526055 0.526785,0 -1.290765,1.235514 1.342205,1.826121 -0.514401,0 -1.105961,-1.547964 -0.51059,0.476297 0,1.071667 -0.406758,0 m -1.894708,-1.650844 c 0.38199,0 0.706824,-0.09907 0.706824,-0.543931 0,-0.300067 -0.161941,-0.522974 -0.543931,-0.522974 l -1.011654,0 0,1.066905 0.848761,0 z m -1.256471,-1.410791 1.441274,0 c 0.573461,0 0.929731,0.313403 0.929731,0.802083 0,0.368654 -0.162893,0.673484 -0.531547,0.776364 l 0,0.0086 c 0.35627,0.06859 0.428667,0.329597 0.458197,0.629664 0.02667,0.300067 0.0095,0.634427 0.180993,0.844951 l -0.454387,0 c -0.116216,-0.12479 -0.05144,-0.454388 -0.111453,-0.754455 -0.04382,-0.301019 -0.116217,-0.553456 -0.510591,-0.553456 l -0.994507,0 0,1.307911 -0.40771,0 m -2.833014,-3.061636 2.112853,0 0,0.343886 -1.705143,0 0,0.972598 1.589879,0 0,0.342934 -1.589879,0 0,1.059284 1.718479,0 0,0.342934 -2.126189,0 m -1.628935,0 -0.46296,0 -1.080241,-3.061636 0.442003,0 0.874481,2.653926 0.0085,0 0.882102,-2.653926 0.424857,0"
       id="path5481"
       style="fill:#4c575f;fill-opacity:1;fill-rule:nonzero;stroke:none" />
    <path
       inkscape:connector-curvature="0"
       d="m 63.228437,45.083397 c -0.236243,0.303877 -0.543931,0.420094 -0.840187,0.420094 -0.947831,0 -1.505098,-0.706825 -1.505098,-1.589879 0,-0.909727 0.557267,-1.616551 1.505098,-1.616551 0.625854,0 1.217414,0.3858 1.290764,1.080241 l -0.643953,0 c -0.07621,-0.338171 -0.329597,-0.514401 -0.646811,-0.514401 -0.603944,0 -0.831614,0.514401 -0.831614,1.050711 0,0.509638 0.22767,1.024038 0.831614,1.024038 0.43724,0 0.69063,-0.23529 0.728734,-0.660147 l -0.677294,0 0,-0.502017 1.286001,0 0,1.655608 -0.428667,0 m -4.874421,-1.676565 0.73826,0 c 0.300067,0 0.46296,-0.1286 0.46296,-0.43724 0,-0.296257 -0.162893,-0.424857 -0.46296,-0.424857 l -0.73826,0 0,0.862097 z m -0.672531,-1.385071 1.650844,0 c 0.547742,0 0.895438,0.38199 0.895438,0.84495 0,0.360081 -0.145746,0.630617 -0.483917,0.767791 l 0,0.0085 c 0.329597,0.08478 0.423904,0.406758 0.444861,0.715398 0.01334,0.193376 0.0086,0.553457 0.129553,0.724924 l -0.673484,0 c -0.08192,-0.193377 -0.0724,-0.488681 -0.10669,-0.733497 -0.04763,-0.321977 -0.171467,-0.462961 -0.510591,-0.462961 l -0.673483,0 0,1.196458 -0.672531,0 m -2.94923,-3.061636 2.289082,0 0,0.566793 -1.615598,0 0,0.655384 1.482235,0 0,0.522974 -1.482235,0 0,0.750644 1.649892,0 0,0.565841 -2.323376,0 m -2.5158,-0.523927 0.720161,0 c 0.265774,0 0.496301,-0.08478 0.496301,-0.401994 0,-0.313404 -0.196234,-0.437241 -0.483917,-0.437241 l -0.732545,0 0,0.839235 z m 0,-1.298385 0.681105,0 c 0.23529,0 0.41152,-0.107643 0.41152,-0.364843 0,-0.290541 -0.222907,-0.351507 -0.46296,-0.351507 l -0.629665,0 0,0.71635 z m -0.673483,-1.239324 1.440321,0 c 0.582987,0 0.977361,0.189566 0.977361,0.759217 0,0.300067 -0.15051,0.509637 -0.415331,0.63919 0.372464,0.106691 0.561078,0.394374 0.561078,0.775411 0,0.621091 -0.526784,0.887818 -1.080241,0.887818 l -1.483188,0 m -2.712987,-3.061636 0.672531,0 0,2.495795 1.491762,0 0,0.565841 -2.164293,0 m -2.59296,-1.676565 0.736355,0 c 0.300067,0 0.463913,-0.1286 0.463913,-0.437241 0,-0.296256 -0.163846,-0.424856 -0.463913,-0.424856 l -0.736355,0 0,0.862097 z m -0.673483,-1.385071 1.649892,0 c 0.548694,0 0.89639,0.38199 0.89639,0.84495 0,0.360081 -0.145747,0.630617 -0.48487,0.767791 l 0,0.0085 c 0.33055,0.08478 0.424857,0.406757 0.446767,0.715398 0.01242,0.193376 0.0076,0.553457 0.1286,0.724923 l -0.673484,0 c -0.08097,-0.193376 -0.07331,-0.48868 -0.107643,-0.733497 -0.04671,-0.321976 -0.170514,-0.46296 -0.509638,-0.46296 l -0.672531,0 0,1.196457 -0.673483,0 m -2.336712,-1.183121 0.79351,0 -0.3858,-1.12406 -0.0086,0 -0.399137,1.12406 z m 0.06478,-1.878514 0.69063,0 1.144065,3.061635 -0.698251,0 -0.232433,-0.682057 -1.144065,0 -0.240053,0.682057 -0.682057,0 m -2.267173,-1.676564 0.737307,0 c 0.300067,0 0.462961,-0.1286 0.462961,-0.437241 0,-0.296256 -0.162894,-0.424856 -0.462961,-0.424856 l -0.737307,0 0,0.862097 z m -0.673484,-1.385071 1.650845,0 c 0.548694,0 0.895438,0.38199 0.895438,0.84495 0,0.360081 -0.144794,0.630617 -0.483918,0.767791 l 0,0.0085 c 0.329598,0.08478 0.423905,0.406757 0.445814,0.715398 0.01242,0.193376 0.0086,0.553457 0.1286,0.724923 l -0.672531,0 c -0.08192,-0.193376 -0.07331,-0.48868 -0.107643,-0.733497 -0.04763,-0.321976 -0.171467,-0.46296 -0.509637,-0.46296 l -0.673484,0 0,1.196457 -0.673484,0 M 37.12261,44.937536 c 0.604897,0 0.831614,-0.514401 0.831614,-1.024038 0,-0.53631 -0.226717,-1.050711 -0.831614,-1.050711 -0.603944,0 -0.831614,0.514401 -0.831614,1.050711 0,0.509637 0.22767,1.024038 0.831614,1.024038 z m 0,-2.64059 c 0.947831,0 1.505098,0.706825 1.505098,1.616552 0,0.883054 -0.557267,1.589878 -1.505098,1.589878 -0.946878,0 -1.504145,-0.706824 -1.504145,-1.589878 0,-0.909727 0.557267,-1.616552 1.504145,-1.616552 m -2.820629,3.134033 -0.758265,0 -0.994508,-3.061635 0.694441,0 0.681104,2.152861 0.0086,0 0.69063,-2.152861 0.694441,0"
       id="path5501"
       style="fill:#4c575f;fill-opacity:1;fill-rule:nonzero;stroke:none" />
  </g>
</svg>
