<?xml version="1.0" encoding="UTF-8" standalone="no"?>
<!-- Created with Inkscape (http://www.inkscape.org/) -->

<svg
   xmlns:dc="http://purl.org/dc/elements/1.1/"
   xmlns:cc="http://creativecommons.org/ns#"
   xmlns:rdf="http://www.w3.org/1999/02/22-rdf-syntax-ns#"
   xmlns:svg="http://www.w3.org/2000/svg"
   xmlns="http://www.w3.org/2000/svg"
   xmlns:sodipodi="http://sodipodi.sourceforge.net/DTD/sodipodi-0.dtd"
   xmlns:inkscape="http://www.inkscape.org/namespaces/inkscape"
   width="96"
   height="96"
   viewBox="0 0 96.000001 96.000002"
   id="svg4136"
   version="1.1"
   inkscape:version="0.91 r13725"
   inkscape:export-filename="/home/master/network_mvg_logo.png"
   inkscape:export-xdpi="90"
   inkscape:export-ydpi="90"
   sodipodi:docname="network_vrs_logo.svg">
  <defs
     id="defs4138">
    <clipPath
       id="clipPath3470"
       clipPathUnits="userSpaceOnUse">
      <path
         inkscape:connector-curvature="0"
         id="path3472"
         d="m 0,0 937.559,0 0,841.89 L 0,841.89 0,0 Z" />
    </clipPath>
    <clipPath
       id="clipPath3506"
       clipPathUnits="userSpaceOnUse">
      <path
         inkscape:connector-curvature="0"
         id="path3508"
         d="m 1119.766,4.513 39.711,0 0,26.33 -39.711,0 0,-26.33 z" />
    </clipPath>
  </defs>
  <sodipodi:namedview
     id="base"
     pagecolor="#ffffff"
     bordercolor="#666666"
     borderopacity="1.0"
     inkscape:pageopacity="1"
     inkscape:pageshadow="2"
     inkscape:zoom="5.6568543"
     inkscape:cx="-3.8671477"
     inkscape:cy="66.329329"
     inkscape:document-units="px"
     inkscape:current-layer="layer1"
     showgrid="true"
     units="px"
     inkscape:window-width="1920"
     inkscape:window-height="1012"
     inkscape:window-x="1440"
     inkscape:window-y="0"
     inkscape:window-maximized="1"
     showguides="false"
     borderlayer="true">
    <inkscape:grid
       type="xygrid"
       id="grid4856"
       enabled="false" />
  </sodipodi:namedview>
  <metadata
     id="metadata4141">
    <rdf:RDF>
      <cc:Work
         rdf:about="">
        <dc:format>image/svg+xml</dc:format>
        <dc:type
           rdf:resource="http://purl.org/dc/dcmitype/StillImage" />
        <dc:title></dc:title>
        <cc:license
           rdf:resource="http://creativecommons.org/publicdomain/zero/1.0/" />
      </cc:Work>
      <cc:License
         rdf:about="http://creativecommons.org/publicdomain/zero/1.0/">
        <cc:permits
           rdf:resource="http://creativecommons.org/ns#Reproduction" />
        <cc:permits
           rdf:resource="http://creativecommons.org/ns#Distribution" />
        <cc:permits
           rdf:resource="http://creativecommons.org/ns#DerivativeWorks" />
      </cc:License>
    </rdf:RDF>
  </metadata>
  <g
     inkscape:label="Ebene 1"
     inkscape:groupmode="layer"
     id="layer1"
     transform="translate(0,-956.36216)">
    <rect
       style="fill:#ffffff;fill-opacity:1;stroke:#01ffff;stroke-width:0;stroke-linecap:butt;stroke-linejoin:miter;stroke-miterlimit:0;stroke-dasharray:none;stroke-opacity:1"
       id="rect4267"
       width="95.999954"
       height="95.999969"
       x="2.3284263e-05"
       y="956.36218" />
    <g
       id="g4140"
       transform="translate(-0.09941275,0.40889008)">
      <path
         style="fill:#fefefe"
         d="m 2,1003.9552 0,-44.40704 46.104843,0 46.104843,0 0,44.40704 0,44.407 -46.104843,0 -46.104843,0 0,-44.407 z"
         id="path4156"
         inkscape:connector-curvature="0" />
      <path
         style="fill:#b0d7ca"
         d="m 46.980918,1048.3047 c -3.434627,-0.147 -7.46381,-0.9118 -11.071858,-2.1015 -5.797941,-1.9119 -10.859905,-4.8225 -15.615385,-8.9788 -0.789496,-0.69 -3.177108,-3.0894 -3.884609,-3.9037 -5.075919,-5.8425 -8.4204989,-12.4386 -10.052957,-19.8262 -0.3138318,-1.4203 -0.7450666,-4.1176 -0.7124616,-4.4564 l 0.015087,-0.1568 29.7481456,-0.026 c 27.709742,-0.024 29.789109,-0.032 30.345979,-0.1077 1.191585,-0.1629 2.201114,-0.3865 3.173356,-0.7028 5.012438,-1.6307 8.919579,-5.5478 10.543255,-10.57014 0.311581,-0.96378 0.505623,-1.81932 0.663652,-2.92611 0.120461,-0.84366 0.120953,-3.34644 8.12e-4,-4.20006 -0.434481,-3.08744 -1.610781,-5.83847 -3.507173,-8.20226 -0.54647,-0.68116 -1.712766,-1.8514 -2.398206,-2.40632 -2.643636,-2.14025 -5.745965,-3.3758 -9.142873,-3.6413 -0.438211,-0.0343 -8.469211,-0.0503 -25.194162,-0.0503 -21.810534,0 -24.553982,-0.008 -24.57851,-0.072 -0.08881,-0.23144 3.313413,-3.83275 5.100231,-5.39868 6.138113,-5.37928 13.490787,-8.93926 21.448278,-10.38471 2.753771,-0.50021 5.319173,-0.68527 8.730306,-0.62979 2.373486,0.0386 3.382131,0.0957 4.741526,0.26823 7.051715,0.89521 13.607393,3.36466 19.410908,7.31188 10.059713,6.84204 16.886405,17.4466 18.890321,29.34413 0.341014,2.02466 0.439641,2.99232 0.532023,5.21983 0.08853,2.1348 0.0036,5.6848 -0.172831,7.2218 -0.737673,6.4273 -2.802438,12.5055 -6.108696,17.9828 -5.891075,9.7595 -15.394966,16.9542 -26.340959,19.9408 -2.363691,0.645 -4.974612,1.1268 -7.24573,1.3371 -1.787419,0.1656 -4.966542,0.2155 -7.31747,0.1149 z m 8.483047,-42.5145 c -1.852779,-0.077 -4.300817,-0.4984 -6.348562,-1.0938 -0.955536,-0.2778 -1.058387,-0.3157 -1.058387,-0.3893 0,-0.1492 1.844103,-5.98481 1.897769,-6.0054 0.03382,-0.013 0.197032,0.062 0.362694,0.16663 1.015951,0.64163 2.383558,1.06873 4.267868,1.33285 0.854896,0.11982 2.738274,0.12182 3.491342,0.004 2.032492,-0.31879 2.988302,-1.00764 3.072678,-2.21446 0.06207,-0.88779 -0.401203,-1.47886 -1.661793,-2.1202 -0.302503,-0.1539 -1.152621,-0.52206 -1.889151,-0.81814 -0.736529,-0.29607 -1.579239,-0.6513 -1.872689,-0.78941 -2.115318,-0.99549 -3.359656,-2.22534 -3.906314,-3.86082 -0.465238,-1.39189 -0.410242,-3.4041 0.137999,-5.04927 0.414069,-1.24252 1.196143,-2.40955 2.159012,-3.22171 2.301823,-1.94155 5.739121,-2.81648 10.327041,-2.62865 1.998276,0.0818 3.348129,0.23184 4.583213,0.50943 0.948641,0.2132 2.186269,0.66361 2.245158,0.81707 0.01428,0.0372 -0.389907,1.35356 -0.898193,2.92521 -0.716491,2.21543 -0.942778,2.86121 -1.007013,2.87382 -0.04557,0.009 -0.312031,-0.086 -0.592137,-0.21107 -0.985065,-0.4397 -1.977391,-0.72208 -3.212948,-0.9143 -0.803037,-0.12494 -3.241979,-0.12383 -3.990733,0.002 -1.592927,0.26729 -2.226725,0.77284 -2.226725,1.77617 0,0.68273 0.525418,1.2135 1.762391,1.78036 0.20124,0.0922 0.871659,0.37159 1.489818,0.62081 1.300994,0.52453 2.46484,1.07641 3.099082,1.46954 2.479197,1.53673 3.552536,3.80304 3.260364,6.88412 -0.183157,1.93148 -0.875586,3.53072 -2.082701,4.81032 -1.106085,1.1726 -2.877396,2.147 -4.908147,2.7002 -1.843151,0.5021 -4.227637,0.7385 -6.500936,0.6445 z m -50.0874525,-0.4387 c -0.073441,-0.054 -0.3071113,-1.7623 -1.6826064,-12.30338 -0.8785268,-6.73257 -1.5975035,-12.33788 -1.5977261,-12.45625 -2.224e-4,-0.11838 -0.025485,-0.39471 -0.056139,-0.61408 -0.046861,-0.33535 -0.044967,-0.40567 0.011896,-0.44166 0.087848,-0.0556 7.4113081,-0.0565 7.4990757,-9.2e-4 0.050984,0.0323 0.2450582,2.05099 0.8464933,8.80491 0.429189,4.81966 0.790612,8.77328 0.80316,8.78583 0.01255,0.0125 0.05406,-0.0384 0.09225,-0.11316 6.315835,-12.36835 8.906859,-17.41352 8.967575,-17.46142 0.05999,-0.0473 0.932605,-0.0575 4.119913,-0.0478 l 4.043797,0.0122 -0.0036,0.11956 c -0.0041,0.13662 -14.089339,25.62737 -14.211167,25.71877 -0.119519,0.09 -8.710255,0.087 -8.8328999,0 z m 19.1617735,0.031 c -0.03288,-0.013 -0.05978,-0.062 -0.05978,-0.1085 0,-0.046 1.213949,-5.84756 2.697664,-12.89157 1.715945,-8.14653 2.721071,-12.82212 2.761986,-12.84805 0.0909,-0.0576 8.650093,-0.0517 10.179649,0.007 1.874137,0.072 2.940748,0.19781 4.074244,0.48071 1.517653,0.37879 2.589098,0.95589 3.439942,1.85282 1.075695,1.13396 1.536911,2.46111 1.540413,4.4325 0.0021,1.17297 -0.128868,1.88298 -0.517043,2.80337 -0.485909,1.15214 -1.603122,2.28337 -2.903899,2.94033 -0.648901,0.32774 -1.835762,0.7437 -2.451615,0.85924 -0.09351,0.0175 -0.182034,0.0513 -0.196714,0.0751 -0.01468,0.0238 0.08779,0.16974 0.227705,0.32441 0.479719,0.53031 0.891592,1.3546 1.20891,2.41942 0.186977,0.62743 2.225954,9.34822 2.225954,9.52052 0,0.058 -0.03404,0.1194 -0.07565,0.1353 -0.118376,0.045 -7.401349,0.033 -7.473555,-0.013 -0.04085,-0.026 -0.359156,-1.4971 -0.871621,-4.0286 -0.444003,-2.19337 -0.863998,-4.17086 -0.933322,-4.39445 -0.171005,-0.55153 -0.314498,-0.81905 -0.545277,-1.01659 -0.31965,-0.27361 -0.601183,-0.33122 -1.74726,-0.35757 l -1.005268,-0.0231 -0.979536,4.84631 c -0.725305,3.5885 -1.001259,4.8684 -1.063233,4.9313 -0.07882,0.08 -0.298824,0.085 -3.778301,0.081 -2.032033,0 -3.721508,-0.015 -3.754388,-0.028 z m 14.002291,-15.62759 c 1.085922,-0.14692 1.86972,-0.44099 2.350676,-0.88195 0.520152,-0.47688 0.686167,-0.92441 0.64862,-1.74848 -0.01471,-0.3228 -0.05633,-0.61957 -0.10644,-0.75895 -0.118501,-0.32959 -0.483878,-0.70865 -0.834929,-0.86619 -0.578809,-0.25976 -0.827072,-0.28655 -2.680727,-0.28935 l -1.697844,-0.003 -0.463731,2.27177 c -0.255052,1.24947 -0.453492,2.30209 -0.440978,2.33915 0.01919,0.0568 0.234044,0.0625 1.372437,0.036 0.742325,-0.0173 1.576138,-0.062 1.852916,-0.0995 z"
         id="path4154"
         inkscape:connector-curvature="0" />
      <path
         style="fill:#8fc7b4"
         d="m 47.913537,1048.33 c -2.214918,-0.1218 -2.863305,-0.1807 -4.423961,-0.4019 -10.994904,-1.5578 -21.009171,-7.2166 -28.111467,-15.885 -4.495556,-5.4869 -7.6585627,-12.1316 -9.0924621,-19.1011 -0.2796695,-1.3594 -0.6029987,-3.4211 -0.6029987,-3.8451 l 0,-0.1917 29.1622698,-5e-4 c 18.537509,-4e-4 29.443777,-0.018 29.934932,-0.047 3.073213,-0.1869 5.806642,-1.1133 8.338305,-2.8258 1.553002,-1.0505 3.044139,-2.5148 4.175683,-4.1006 1.637291,-2.29463 2.691911,-5.1679 2.946482,-8.02761 0.06537,-0.73428 0.06653,-2.16712 0.0023,-2.88528 -0.340291,-3.80717 -1.943989,-7.29658 -4.612919,-10.03704 -2.390737,-2.45481 -5.416444,-4.07661 -8.760374,-4.69564 -1.499336,-0.27755 0.653761,-0.25554 -26.558495,-0.27151 -14.047324,-0.008 -24.910127,-0.0328 -24.933631,-0.0563 -0.08087,-0.0809 1.353593,-1.72105 2.738707,-3.13146 7.036787,-7.16522 16.159566,-11.69121 26.082116,-12.93982 3.624462,-0.45608 7.606961,-0.45641 11.224245,-9.3e-4 7.47425,0.94114 14.652052,3.81354 20.708918,8.28724 3.017404,2.2287 5.972686,5.0601 8.270252,7.92357 5.444069,6.78498 8.716656,14.75353 9.59503,23.3633 0.270068,2.64728 0.270068,6.34418 0,8.99148 -0.790856,7.7519 -3.565458,15.0888 -8.083881,21.3764 -6.732269,9.3681 -16.782641,15.7539 -28.042329,17.8175 -2.72349,0.4992 -5.31408,0.7231 -8.187182,0.7077 -0.828596,0 -1.624909,-0.014 -1.769584,-0.023 z m 7.556602,-42.5617 c -2.368057,-0.1591 -4.638046,-0.5764 -6.898987,-1.2681 -0.314953,-0.096 -0.466309,-0.1655 -0.466309,-0.2132 0,-0.039 0.335068,-1.1517 0.744596,-2.473 0.409528,-1.3213 0.819641,-2.64449 0.911363,-2.94042 0.09172,-0.29592 0.190669,-0.53804 0.219877,-0.53804 0.02921,0 0.205573,0.0944 0.391915,0.20969 0.497918,0.30817 0.766555,0.43386 1.377506,0.64453 2.469226,0.85144 5.625475,1.00114 7.588241,0.36004 0.621344,-0.20296 0.960745,-0.39458 1.299185,-0.73351 0.74191,-0.74296 0.75953,-1.87586 0.04036,-2.59503 -0.490323,-0.49032 -1.161234,-0.83941 -3.103377,-1.61476 -3.281139,-1.30989 -4.600446,-2.26732 -5.439032,-3.94713 -0.397989,-0.79723 -0.53529,-1.40058 -0.571887,-2.51307 -0.100355,-3.05064 1.036192,-5.41178 3.356543,-6.97314 2.172336,-1.46175 5.132047,-2.13572 8.991401,-2.04745 2.539133,0.0581 4.468056,0.29723 5.902797,0.73184 0.61658,0.18678 1.310874,0.47067 1.392954,0.56957 0.04099,0.0494 -0.162108,0.73093 -0.864379,2.90055 -0.504882,1.5598 -0.939454,2.84947 -0.965715,2.86595 -0.02626,0.0165 -0.336054,-0.0965 -0.688426,-0.251 -1.443961,-0.6332 -2.846692,-0.92812 -4.681578,-0.98428 -1.417184,-0.0434 -2.642238,0.0801 -3.419994,0.34458 -0.824077,0.28029 -1.222319,0.72767 -1.279266,1.43714 -0.05867,0.7309 0.358077,1.23333 1.497642,1.80555 0.481972,0.24202 0.952055,0.44358 2.197259,0.94213 2.574382,1.03073 4.021505,2.03643 4.935461,3.42994 0.657085,1.00186 0.955504,2.02301 1.004177,3.43617 0.07098,2.061 -0.403604,3.80285 -1.435405,5.26835 -0.350756,0.4982 -1.105646,1.268 -1.622422,1.6544 -1.751147,1.3095 -4.143524,2.1098 -7.169729,2.3983 -0.738433,0.07 -2.732721,0.1278 -3.244772,0.093 z m -50.1219461,-0.5099 c -0.041761,-0.099 -3.1571097,-23.90271 -3.2564234,-24.88175 -0.024015,-0.23675 -0.056931,-0.52191 -0.073147,-0.63371 l -0.029483,-0.20326 3.7539624,0 c 2.9461602,0 3.7641002,0.0129 3.8010731,0.0598 0.025911,0.0329 0.39645,3.99831 0.82342,8.81206 0.426971,4.81374 0.792729,8.76964 0.812797,8.79087 0.02007,0.0212 2.069878,-3.93881 4.555136,-8.80009 l 4.51865,-8.83871 4.07868,-0.0122 4.07868,-0.0122 -0.02096,0.10788 c -0.02839,0.1461 -14.092242,25.58371 -14.186394,25.65931 -0.05838,0.047 -1.01973,0.06 -4.4425236,0.06 l -4.3680182,0 -0.045445,-0.1076 z m 19.1930641,0.03 c -0.03482,-0.091 5.327651,-25.59956 5.400277,-25.68864 0.03841,-0.0471 1.058747,-0.0596 4.813587,-0.0589 5.996562,0.001 7.161711,0.0519 8.822307,0.38448 3.243401,0.64965 4.962031,2.21189 5.468904,4.97124 0.127805,0.69575 0.115654,2.25133 -0.0226,2.89351 -0.288742,1.34117 -0.788027,2.25695 -1.69974,3.11764 -0.899612,0.84927 -2.13548,1.47721 -3.708414,1.88424 -0.298965,0.0774 -0.564715,0.15373 -0.590556,0.1697 -0.02584,0.016 0.05989,0.13945 0.190506,0.27441 0.491699,0.50803 0.897485,1.26651 1.230205,2.29947 0.264565,0.82136 2.318231,9.69875 2.260407,9.77105 -0.0375,0.047 -0.844157,0.06 -3.742656,0.06 -2.898085,0 -3.705325,-0.013 -3.743428,-0.06 -0.02672,-0.033 -0.407161,-1.8316 -0.845427,-3.9972 -0.438266,-2.16554 -0.849745,-4.11989 -0.914396,-4.34299 -0.354126,-1.22202 -0.767,-1.45232 -2.603595,-1.45232 -0.681007,0 -0.761099,0.009 -0.783558,0.0837 -0.01376,0.046 -0.456285,2.21437 -0.983393,4.81851 -0.527107,2.6042 -0.979561,4.7833 -1.005453,4.8424 l -0.04708,0.1076 -3.733002,0 c -3.405439,0 -3.735624,-0.01 -3.762897,-0.078 z m 13.929751,-15.48897 c 1.865566,-0.23096 2.846154,-0.87694 3.086506,-2.03327 0.07915,-0.38077 0.02982,-1.0624 -0.101915,-1.40847 -0.213088,-0.55977 -0.72674,-0.94219 -1.481278,-1.10283 -0.505114,-0.10754 -3.620739,-0.16112 -3.734894,-0.0642 -0.053,0.045 -0.211485,0.74025 -0.521208,2.28654 -0.244777,1.22205 -0.455138,2.26048 -0.467468,2.30763 -0.02116,0.0809 0.05259,0.0857 1.311775,0.0857 0.891171,0 1.524888,-0.0236 1.908482,-0.0711 z"
         id="path4152"
         inkscape:connector-curvature="0" />
      <path
         style="fill:#a09f9e"
         d="m 47.889623,1048.3321 c -1.409909,-0.063 -3.940731,-0.3323 -5.356579,-0.5695 -8.510979,-1.426 -16.223228,-5.1693 -22.621982,-10.9801 -0.785668,-0.7135 -2.442917,-2.3766 -3.115897,-3.127 -5.919757,-6.6006 -9.6706299,-14.6 -10.9437753,-23.3394 -0.065144,-0.4472 -0.1243804,-0.9422 -0.131636,-1.1 l -0.013192,-0.287 29.8198853,-0.026 c 28.034284,-0.024 29.854254,-0.031 30.393805,-0.1092 2.00007,-0.2908 3.531521,-0.7573 5.213099,-1.5882 1.060756,-0.5241 1.701886,-0.9155 2.583172,-1.5768 1.756638,-1.3182 3.177203,-2.8907 4.28578,-4.7442 3.316856,-5.54583 3.062749,-12.57983 -0.645515,-17.86849 -2.797837,-3.99023 -7.191361,-6.53354 -12.034369,-6.96641 -0.36792,-0.0329 -8.715145,-0.0492 -25.213752,-0.0493 -16.991275,-10e-5 -24.673291,-0.0156 -24.694426,-0.0498 -0.03434,-0.0556 0.263471,-0.43121 1.053217,-1.32847 3.877038,-4.40481 8.654297,-8.04564 13.917629,-10.60685 4.526365,-2.2026 9.328027,-3.59766 14.371894,-4.17559 1.996507,-0.22877 2.705104,-0.2662 5.045706,-0.26656 2.207451,-3.4e-4 2.50081,0.0127 4.352221,0.19385 8.116882,0.7941 15.802755,3.78962 22.335022,8.70492 1.723791,1.29709 2.993362,2.4088 4.688782,4.10575 1.791766,1.79339 2.752296,2.89428 4.133782,4.73782 4.519102,6.03058 7.392864,12.95317 8.438033,20.32631 0.333624,2.35354 0.430635,3.76892 0.431051,6.28912 4.79e-4,2.247 -0.03468,2.9204 -0.258919,4.974 -0.915597,8.3851 -4.346653,16.5598 -9.68557,23.0764 -1.346166,1.6431 -3.603505,3.9961 -5.021042,5.234 -6.382647,5.5734 -13.752578,9.108 -21.899868,10.503 -2.466006,0.4223 -4.481763,0.5977 -7.083052,0.6165 -1.07849,0.01 -2.133067,0.01 -2.343504,0 z m 7.580516,-42.5638 c -2.368057,-0.1591 -4.638046,-0.5764 -6.898987,-1.2681 -0.314953,-0.096 -0.466309,-0.1655 -0.466309,-0.2132 0,-0.039 0.335068,-1.1517 0.744596,-2.473 0.409528,-1.3213 0.819641,-2.64449 0.911363,-2.94042 0.09172,-0.29592 0.190669,-0.53804 0.219877,-0.53804 0.02921,0 0.205573,0.0944 0.391915,0.20969 0.497918,0.30817 0.766555,0.43386 1.377506,0.64453 2.469226,0.85144 5.625475,1.00114 7.588241,0.36004 0.621344,-0.20296 0.960745,-0.39458 1.299185,-0.73351 0.74191,-0.74296 0.75953,-1.87586 0.04036,-2.59503 -0.490323,-0.49032 -1.161234,-0.83941 -3.103377,-1.61476 -3.281139,-1.30989 -4.600446,-2.26732 -5.439032,-3.94713 -0.397989,-0.79723 -0.53529,-1.40058 -0.571887,-2.51307 -0.100355,-3.05064 1.036192,-5.41178 3.356543,-6.97314 2.172336,-1.46175 5.132047,-2.13572 8.991401,-2.04745 2.539133,0.0581 4.468056,0.29723 5.902797,0.73184 0.61658,0.18678 1.310874,0.47067 1.392954,0.56957 0.04099,0.0494 -0.162108,0.73093 -0.864379,2.90055 -0.504882,1.5598 -0.939454,2.84947 -0.965715,2.86595 -0.02626,0.0165 -0.336054,-0.0965 -0.688426,-0.251 -1.443961,-0.6332 -2.846692,-0.92812 -4.681578,-0.98428 -1.417184,-0.0434 -2.642238,0.0801 -3.419994,0.34458 -0.824077,0.28029 -1.222319,0.72767 -1.279266,1.43714 -0.05867,0.7309 0.358077,1.23333 1.497642,1.80555 0.481972,0.24202 0.952055,0.44358 2.197259,0.94213 2.574382,1.03073 4.021505,2.03643 4.935461,3.42994 0.657085,1.00186 0.955504,2.02301 1.004177,3.43617 0.07098,2.061 -0.403604,3.80285 -1.435405,5.26835 -0.350756,0.4982 -1.105646,1.268 -1.622422,1.6544 -1.751147,1.3095 -4.143524,2.1098 -7.169729,2.3983 -0.738433,0.07 -2.732721,0.1278 -3.244772,0.093 z m -50.1219461,-0.5099 c -0.041761,-0.099 -3.1571097,-23.90271 -3.2564234,-24.88175 -0.024015,-0.23675 -0.056931,-0.52191 -0.073147,-0.63371 l -0.029483,-0.20326 3.7539624,0 c 2.9461602,0 3.7641002,0.0129 3.8010731,0.0598 0.025911,0.0329 0.39645,3.99831 0.82342,8.81206 0.426971,4.81374 0.792729,8.76964 0.812797,8.79087 0.02007,0.0212 2.069878,-3.93881 4.555136,-8.80009 l 4.51865,-8.83871 4.07868,-0.0122 4.07868,-0.0122 -0.02096,0.10788 c -0.02839,0.1461 -14.092242,25.58371 -14.186394,25.65931 -0.05838,0.047 -1.01973,0.06 -4.4425236,0.06 l -4.3680182,0 -0.045445,-0.1076 z m 19.1930641,0.03 c -0.03482,-0.091 5.327651,-25.59956 5.400277,-25.68864 0.03841,-0.0471 1.058747,-0.0596 4.813587,-0.0589 5.996562,0.001 7.161711,0.0519 8.822307,0.38448 3.243401,0.64965 4.962031,2.21189 5.468904,4.97124 0.127805,0.69575 0.115654,2.25133 -0.0226,2.89351 -0.288742,1.34117 -0.788027,2.25695 -1.69974,3.11764 -0.899612,0.84927 -2.13548,1.47721 -3.708414,1.88424 -0.298965,0.0774 -0.564715,0.15373 -0.590556,0.1697 -0.02584,0.016 0.05989,0.13945 0.190506,0.27441 0.491699,0.50803 0.897485,1.26651 1.230205,2.29947 0.264565,0.82136 2.318231,9.69875 2.260407,9.77105 -0.0375,0.047 -0.844157,0.06 -3.742656,0.06 -2.898085,0 -3.705325,-0.013 -3.743428,-0.06 -0.02672,-0.033 -0.407161,-1.8316 -0.845427,-3.9972 -0.438266,-2.16554 -0.849745,-4.11989 -0.914396,-4.34299 -0.354126,-1.22202 -0.767,-1.45232 -2.603595,-1.45232 -0.681007,0 -0.761099,0.009 -0.783558,0.0837 -0.01376,0.046 -0.456285,2.21437 -0.983393,4.81851 -0.527107,2.6042 -0.979561,4.7833 -1.005453,4.8424 l -0.04708,0.1076 -3.733002,0 c -3.405439,0 -3.735624,-0.01 -3.762897,-0.078 z m 13.929751,-15.48897 c 1.865566,-0.23096 2.846154,-0.87694 3.086506,-2.03327 0.07915,-0.38077 0.02982,-1.0624 -0.101915,-1.40847 -0.213088,-0.55977 -0.72674,-0.94219 -1.481278,-1.10283 -0.505114,-0.10754 -3.620739,-0.16112 -3.734894,-0.0642 -0.053,0.045 -0.211485,0.74025 -0.521208,2.28654 -0.244777,1.22205 -0.455138,2.26048 -0.467468,2.30763 -0.02116,0.0809 0.05259,0.0857 1.311775,0.0857 0.891171,0 1.524888,-0.0236 1.908482,-0.0711 z"
         id="path4150"
         inkscape:connector-curvature="0" />
      <path
         style="fill:#5fb396"
         d="m 47.680349,1048.3105 c -9.259442,-0.4385 -18.195313,-3.7925 -25.449697,-9.5522 -2.268068,-1.8008 -4.524795,-3.9922 -6.412297,-6.2267 -4.948407,-5.8583 -8.3451807,-13.0669 -9.7018843,-20.5894 -0.1888247,-1.047 -0.379878,-2.3598 -0.396717,-2.7261 l -0.013192,-0.287 29.8198853,-0.026 c 28.034284,-0.024 29.854254,-0.031 30.393805,-0.1092 2.00007,-0.2908 3.531521,-0.7573 5.213099,-1.5882 1.060756,-0.5241 1.701886,-0.9155 2.583172,-1.5768 1.756638,-1.3182 3.177203,-2.8907 4.28578,-4.7442 3.316856,-5.54583 3.062749,-12.57983 -0.645515,-17.86849 -2.797837,-3.99023 -7.191361,-6.53354 -12.034369,-6.96641 -0.36792,-0.0329 -8.715145,-0.0492 -25.213752,-0.0493 -16.991275,-10e-5 -24.673291,-0.0156 -24.694426,-0.0498 -0.03434,-0.0556 0.263471,-0.43121 1.053217,-1.32847 4.720579,-5.36319 10.76298,-9.57492 17.385058,-12.1179 4.059728,-1.55899 8.119155,-2.46478 12.745789,-2.84398 1.257879,-0.10309 4.851397,-0.11876 6.050065,-0.0264 4.709591,0.36299 8.555342,1.18479 12.626223,2.69809 5.098186,1.89518 9.606039,4.5925 13.864654,8.29605 0.818203,0.71156 3.168431,3.04961 3.861783,3.84177 2.168993,2.4781 3.960133,4.98768 5.478642,7.67617 3.006452,5.32287 4.887845,11.2515 5.486596,17.28932 0.181822,1.83345 0.215822,2.54545 0.215822,4.51965 0,1.9726 -0.03381,2.6816 -0.215526,4.5196 -0.783715,7.927 -3.772787,15.6003 -8.579341,22.0241 -1.383767,1.8494 -2.479685,3.1074 -4.230698,4.8565 -1.749401,1.7474 -3.051892,2.8789 -4.881814,4.2409 -8.226477,6.1227 -18.3258,9.2005 -28.594362,8.7142 z m 7.622397,-42.5931 c -1.444889,-0.115 -2.204796,-0.2135 -3.467428,-0.4494 -1.377005,-0.2574 -3.619548,-0.8587 -3.667393,-0.9834 -0.02538,-0.066 1.737054,-5.80404 1.803939,-5.87301 0.02505,-0.0258 0.204057,0.0557 0.440431,0.20071 1.375067,0.84325 3.663025,1.363 5.990463,1.36082 2.945703,-0.003 4.586605,-0.76128 4.814231,-2.22544 0.0477,-0.30678 0.04418,-0.40811 -0.02369,-0.68314 -0.235139,-0.95285 -0.888537,-1.40879 -3.523137,-2.45846 -1.424826,-0.56768 -2.754979,-1.20862 -3.394244,-1.63553 -0.497172,-0.33203 -1.239259,-1.01331 -1.552968,-1.42572 -0.470336,-0.61831 -0.747406,-1.20001 -0.962463,-2.02066 -0.111574,-0.42576 -0.131767,-0.6133 -0.152174,-1.41319 -0.06477,-2.53845 0.609841,-4.37507 2.183203,-5.94373 1.738449,-1.73327 4.322252,-2.71304 7.824341,-2.96699 0.960984,-0.0697 3.463291,-0.0289 4.615267,0.0752 2.05046,0.1853 3.815195,0.58371 4.791268,1.08166 0.170278,0.0869 0.187926,0.11188 0.159526,0.226 -0.09115,0.36623 -1.769197,5.49324 -1.813742,5.54157 -0.0397,0.0431 -0.189944,-0.004 -0.626156,-0.19725 -0.668467,-0.29577 -1.114723,-0.45355 -1.745671,-0.61722 -2.209971,-0.57327 -5.458077,-0.52915 -6.771012,0.092 -0.364066,0.17223 -0.703664,0.49554 -0.836043,0.79594 -0.16648,0.37778 -0.161563,0.93136 0.01116,1.25685 0.332237,0.62611 0.995769,1.02388 3.148023,1.88719 2.454117,0.98439 3.533525,1.6091 4.543527,2.62954 1.025886,1.0365 1.523278,2.03118 1.747283,3.49423 0.136569,0.89199 0.0715,2.43667 -0.142045,3.37177 -0.939027,4.11196 -4.651385,6.46836 -10.81104,6.86206 -0.700301,0.045 -2.120154,0.054 -2.583455,0.018 z m -49.9311328,-0.4587 c -0.011696,-0.033 -0.7322702,-5.52663 -1.601277,-12.208 C 2.1937655,980.9292 2.0673427,979.96718 2.0183607,979.71903 l -0.025961,-0.13152 3.7596893,0 c 2.9642578,0 3.7642945,0.0127 3.7814561,0.0598 0.011972,0.0329 0.3666502,3.95526 0.7881739,8.7164 0.421524,4.76114 0.777902,8.72656 0.791952,8.81205 0.01405,0.0855 0.04212,0.15544 0.06239,0.15544 0.02027,0 2.078054,-3.99233 4.572864,-8.87184 l 4.536018,-8.87183 4.033757,0 c 3.195213,0 4.033723,0.0124 4.033587,0.0598 -9.5e-5,0.0329 -3.18388,5.81691 -7.07508,12.8534 l -7.07491,12.79357 -4.4047093,0.012 c -3.4991552,0.01 -4.4090807,-10e-5 -4.4259736,-0.048 z m 19.2025418,-0.05 c 0,-0.1271 5.342643,-25.51202 5.383196,-25.57764 0.03731,-0.0604 9.620967,-0.0552 10.758282,0.006 2.303442,0.12354 3.855996,0.44158 5.132682,1.05144 0.658977,0.31479 1.099309,0.61338 1.570786,1.06518 1.134384,1.08703 1.68626,2.58063 1.689167,4.57157 0.0028,1.9113 -0.596611,3.42095 -1.810631,4.56027 -0.906817,0.85101 -2.288776,1.53816 -3.831974,1.90535 -0.249894,0.0595 -0.474273,0.12566 -0.498619,0.1471 -0.02549,0.0224 0.0687,0.15741 0.222084,0.31822 0.482995,0.50637 0.842808,1.17433 1.186807,2.2032 0.198219,0.59285 2.354124,9.75291 2.311624,9.82161 -0.03272,0.053 -7.418773,0.048 -7.451523,-0.01 -0.01459,-0.024 -0.382212,-1.7984 -0.816932,-3.944 -0.949233,-4.68496 -1.009365,-4.91592 -1.389424,-5.3366 -0.366211,-0.40535 -0.72429,-0.4936 -2.029326,-0.50014 l -0.932618,-0.005 -0.06474,0.26305 c -0.03561,0.14467 -0.487568,2.35068 -1.004359,4.90219 l -0.939621,4.6392 -3.742431,0.012 -3.742432,0.012 0,-0.1102 z m 14.104983,-15.38497 c 1.071073,-0.16986 1.783928,-0.45709 2.27543,-0.91687 0.516832,-0.48347 0.732058,-1.06635 0.677345,-1.83439 -0.08076,-1.13369 -0.630722,-1.69689 -1.84024,-1.88456 -0.468841,-0.0727 -3.578387,-0.0712 -3.6235,0.002 -0.05449,0.0882 -0.969809,4.6528 -0.942017,4.69777 0.03637,0.0589 3.028232,0.004 3.452982,-0.0637 z"
         id="path4148"
         inkscape:connector-curvature="0" />
      <path
         style="fill:#605c5a"
         d="m 48.176583,1048.3084 c -0.39457,-0.02 -0.803487,-0.047 -0.908706,-0.061 -0.105218,-0.014 -0.503374,-0.048 -0.884792,-0.077 -12.761511,-0.9446 -24.548488,-7.4661 -32.243075,-17.8393 -3.883584,-5.2355 -6.5587366,-11.2714 -7.8330942,-17.6737 -0.2289375,-1.1501 -0.5092373,-2.9416 -0.5385249,-3.4417 l -0.014003,-0.2391 29.8198861,-0.025 c 28.123581,-0.024 29.851173,-0.03 30.369891,-0.1092 2.076856,-0.3171 3.574273,-0.7774 5.260926,-1.6171 0.962013,-0.4789 1.678408,-0.9141 2.452845,-1.49 3.476802,-2.5855 5.777783,-6.32223 6.48566,-10.53251 0.314244,-1.86906 0.296706,-3.98948 -0.04806,-5.81093 -0.505307,-2.66959 -1.627353,-5.09526 -3.384842,-7.31747 -0.506259,-0.64012 -1.982934,-2.09761 -2.636006,-2.60175 -2.420552,-1.86856 -4.794813,-2.88226 -7.939216,-3.38969 l -0.645659,-0.10419 -25.001355,-0.0136 c -19.851335,-0.0108 -25.001327,-0.0258 -25.001216,-0.0729 7.6e-5,-0.0326 0.238866,-0.33908 0.530643,-0.68104 6.801243,-7.97099 16.121654,-13.26733 26.380273,-14.99064 1.112715,-0.18692 2.49988,-0.36144 3.602316,-0.45322 0.486635,-0.0405 1.013924,-0.0847 1.171751,-0.0982 1.434162,-0.12291 4.634293,-0.13894 5.021793,-0.0251 0.07891,0.0232 0.519608,0.0661 0.979327,0.0954 2.984255,0.1903 6.401456,0.82574 9.532491,1.77262 5.70447,1.72511 11.234832,4.74256 15.768899,8.60374 2.117714,1.80343 4.229402,3.97341 5.912688,6.07591 2.910617,3.63548 5.18129,7.59085 6.850257,11.93274 1.518255,3.94979 2.527267,8.49814 2.779797,12.53053 0.02965,0.4735 0.07782,0.9362 0.107045,1.0283 0.07335,0.2311 0.07311,4.3111 -4.78e-4,4.5435 -0.02907,0.092 -0.07712,0.5548 -0.106768,1.0283 -0.340946,5.4443 -1.91063,11.2032 -4.451729,16.3328 -2.198101,4.4372 -4.911074,8.217 -8.411565,11.7193 -4.275895,4.2781 -9.239014,7.5631 -14.827404,9.814 -4.048751,1.6308 -8.461214,2.6768 -12.745789,3.0216 -0.499788,0.04 -1.027076,0.085 -1.171752,0.099 -1.080073,0.106 -2.874454,0.1342 -4.232654,0.066 z m 7.126163,-42.591 c -1.444889,-0.115 -2.204796,-0.2135 -3.467428,-0.4494 -1.377005,-0.2574 -3.619548,-0.8587 -3.667393,-0.9834 -0.02538,-0.066 1.737054,-5.80404 1.803939,-5.87301 0.02505,-0.0258 0.204057,0.0557 0.440431,0.20071 1.375067,0.84325 3.663025,1.363 5.990463,1.36082 2.945703,-0.003 4.586605,-0.76128 4.814231,-2.22544 0.0477,-0.30678 0.04418,-0.40811 -0.02369,-0.68314 -0.235139,-0.95285 -0.888537,-1.40879 -3.523137,-2.45846 -1.424826,-0.56768 -2.754979,-1.20862 -3.394244,-1.63553 -0.497172,-0.33203 -1.239259,-1.01331 -1.552968,-1.42572 -0.470336,-0.61831 -0.747406,-1.20001 -0.962463,-2.02066 -0.111574,-0.42576 -0.131767,-0.6133 -0.152174,-1.41319 -0.06477,-2.53845 0.609841,-4.37507 2.183203,-5.94373 1.738449,-1.73327 4.322252,-2.71304 7.824341,-2.96699 0.960984,-0.0697 3.463291,-0.0289 4.615267,0.0752 2.05046,0.1853 3.815195,0.58371 4.791268,1.08166 0.170278,0.0869 0.187926,0.11188 0.159526,0.226 -0.09115,0.36623 -1.769197,5.49324 -1.813742,5.54157 -0.0397,0.0431 -0.189944,-0.004 -0.626156,-0.19725 -0.668467,-0.29577 -1.114723,-0.45355 -1.745671,-0.61722 -2.209971,-0.57327 -5.458077,-0.52915 -6.771012,0.092 -0.364066,0.17223 -0.703664,0.49554 -0.836043,0.79594 -0.16648,0.37778 -0.161563,0.93136 0.01116,1.25685 0.332237,0.62611 0.995769,1.02388 3.148023,1.88719 2.454117,0.98439 3.533525,1.6091 4.543527,2.62954 1.025886,1.0365 1.523278,2.03118 1.747283,3.49423 0.136569,0.89199 0.0715,2.43667 -0.142045,3.37177 -0.939027,4.11196 -4.651385,6.46836 -10.81104,6.86206 -0.700301,0.045 -2.120154,0.054 -2.583455,0.018 z m -49.9311328,-0.4587 c -0.011696,-0.033 -0.7322702,-5.52663 -1.601277,-12.208 C 2.1937655,980.9292 2.0673427,979.96718 2.0183607,979.71903 l -0.025961,-0.13152 3.7596893,0 c 2.9642578,0 3.7642945,0.0127 3.7814561,0.0598 0.011972,0.0329 0.3666502,3.95526 0.7881739,8.7164 0.421524,4.76114 0.777902,8.72656 0.791952,8.81205 0.01405,0.0855 0.04212,0.15544 0.06239,0.15544 0.02027,0 2.078054,-3.99233 4.572864,-8.87184 l 4.536018,-8.87183 4.033757,0 c 3.195213,0 4.033723,0.0124 4.033587,0.0598 -9.5e-5,0.0329 -3.18388,5.81691 -7.07508,12.8534 l -7.07491,12.79357 -4.4047093,0.012 c -3.4991552,0.01 -4.4090807,-10e-5 -4.4259736,-0.048 z m 19.2025418,-0.05 c 0,-0.1271 5.342643,-25.51202 5.383196,-25.57764 0.03731,-0.0604 9.620967,-0.0552 10.758282,0.006 2.303442,0.12354 3.855996,0.44158 5.132682,1.05144 0.658977,0.31479 1.099309,0.61338 1.570786,1.06518 1.134384,1.08703 1.68626,2.58063 1.689167,4.57157 0.0028,1.9113 -0.596611,3.42095 -1.810631,4.56027 -0.906817,0.85101 -2.288776,1.53816 -3.831974,1.90535 -0.249894,0.0595 -0.474273,0.12566 -0.498619,0.1471 -0.02549,0.0224 0.0687,0.15741 0.222084,0.31822 0.482995,0.50637 0.842808,1.17433 1.186807,2.2032 0.198219,0.59285 2.354124,9.75291 2.311624,9.82161 -0.03272,0.053 -7.418773,0.048 -7.451523,-0.01 -0.01459,-0.024 -0.382212,-1.7984 -0.816932,-3.944 -0.949233,-4.68496 -1.009365,-4.91592 -1.389424,-5.3366 -0.366211,-0.40535 -0.72429,-0.4936 -2.029326,-0.50014 l -0.932618,-0.005 -0.06474,0.26305 c -0.03561,0.14467 -0.487568,2.35068 -1.004359,4.90219 l -0.939621,4.6392 -3.742431,0.012 -3.742432,0.012 0,-0.1102 z m 14.104983,-15.38497 c 1.071073,-0.16986 1.783928,-0.45709 2.27543,-0.91687 0.516832,-0.48347 0.732058,-1.06635 0.677345,-1.83439 -0.08076,-1.13369 -0.630722,-1.69689 -1.84024,-1.88456 -0.468841,-0.0727 -3.578387,-0.0712 -3.6235,0.002 -0.05449,0.0882 -0.969809,4.6528 -0.942017,4.69777 0.03637,0.0589 3.028232,0.004 3.452982,-0.0637 z"
         id="path4146"
         inkscape:connector-curvature="0" />
      <path
         style="fill:#009160"
         d="m 48.176583,1048.3084 c -0.39457,-0.02 -0.803487,-0.047 -0.908706,-0.061 -0.105218,-0.014 -0.503374,-0.048 -0.884792,-0.077 -12.761511,-0.9446 -24.548488,-7.4661 -32.243075,-17.8393 -3.883584,-5.2355 -6.5587366,-11.2714 -7.8330942,-17.6737 -0.2289375,-1.1501 -0.5092373,-2.9416 -0.5385249,-3.4417 l -0.014003,-0.2391 29.8198861,-0.025 c 28.123581,-0.024 29.851173,-0.03 30.369891,-0.1092 2.076856,-0.3171 3.574273,-0.7774 5.260926,-1.6171 0.962013,-0.4789 1.678408,-0.9141 2.452845,-1.49 3.476802,-2.5855 5.777783,-6.32223 6.48566,-10.53251 0.314244,-1.86906 0.296706,-3.98948 -0.04806,-5.81093 -0.505307,-2.66959 -1.627353,-5.09526 -3.384842,-7.31747 -0.506259,-0.64012 -1.982934,-2.09761 -2.636006,-2.60175 -2.420552,-1.86856 -4.794813,-2.88226 -7.939216,-3.38969 l -0.645659,-0.10419 -25.001355,-0.0136 c -19.851335,-0.0108 -25.001327,-0.0258 -25.001216,-0.0729 7.6e-5,-0.0326 0.238866,-0.33908 0.530643,-0.68104 6.801243,-7.97099 16.121654,-13.26733 26.380273,-14.99064 1.112715,-0.18692 2.49988,-0.36144 3.602316,-0.45322 0.486635,-0.0405 1.013924,-0.0847 1.171751,-0.0982 1.434162,-0.12291 4.634293,-0.13894 5.021793,-0.0251 0.07891,0.0232 0.519608,0.0661 0.979327,0.0954 2.984255,0.1903 6.401456,0.82574 9.532491,1.77262 5.70447,1.72511 11.234832,4.74256 15.768899,8.60374 2.117714,1.80343 4.229402,3.97341 5.912688,6.07591 2.910617,3.63548 5.18129,7.59085 6.850257,11.93274 1.518255,3.94979 2.527267,8.49814 2.779797,12.53053 0.02965,0.4735 0.07782,0.9362 0.107045,1.0283 0.07335,0.2311 0.07311,4.3111 -4.78e-4,4.5435 -0.02907,0.092 -0.07712,0.5548 -0.106768,1.0283 -0.340946,5.4443 -1.91063,11.2032 -4.451729,16.3328 -2.198101,4.4372 -4.911074,8.217 -8.411565,11.7193 -4.275895,4.2781 -9.239014,7.5631 -14.827404,9.814 -4.048751,1.6308 -8.461214,2.6768 -12.745789,3.0216 -0.499788,0.04 -1.027076,0.085 -1.171752,0.099 -1.080073,0.106 -2.874454,0.1342 -4.232654,0.066 z m 7.197903,-42.6368 c -1.222065,-0.071 -3.005892,-0.3274 -4.328307,-0.6216 -1.241141,-0.276 -2.715202,-0.6822 -2.806242,-0.7732 -0.04063,-0.041 1.692293,-5.73124 1.768505,-5.80745 0.01961,-0.0196 0.131992,0.0296 0.249736,0.10924 1.435358,0.97144 4.579981,1.61771 6.981546,1.43471 2.490331,-0.18973 3.782242,-0.88993 4.022112,-2.17994 0.192205,-1.03368 -0.358174,-1.80592 -1.798175,-2.52304 -0.236742,-0.11789 -1.033055,-0.45591 -1.769585,-0.75114 -3.174997,-1.27268 -4.456176,-2.14333 -5.297924,-3.6003 -0.509607,-0.88207 -0.69858,-1.60273 -0.73751,-2.81258 -0.07902,-2.45569 0.632712,-4.43153 2.13551,-5.9284 1.597198,-1.59089 3.85513,-2.51932 7.05648,-2.90151 0.876786,-0.10468 3.833469,-0.11834 4.973967,-0.023 1.606863,0.13434 2.973733,0.35673 3.920834,0.63793 0.530799,0.1576 1.260149,0.44537 1.350628,0.53291 0.0457,0.0442 -0.134479,0.6533 -0.830103,2.8062 -0.488658,1.51236 -0.906338,2.76883 -0.92818,2.79216 -0.02261,0.0242 -0.303632,-0.0712 -0.652522,-0.22146 -1.481357,-0.63791 -2.83563,-0.92075 -4.678068,-0.97703 -1.402735,-0.0429 -2.693709,0.0867 -3.434749,0.34465 -0.718729,0.2502 -1.146317,0.63575 -1.295761,1.16836 -0.214416,0.76417 0.05133,1.35651 0.845708,1.88507 0.488826,0.32525 0.972104,0.55198 2.402177,1.12697 2.966254,1.19264 4.337935,2.09976 5.285892,3.49569 0.669821,0.98636 0.987332,2.04921 1.036311,3.469 0.0557,1.61468 -0.219557,3.02952 -0.823301,4.23176 -1.622082,3.2302 -5.52083,4.9986 -11.214181,5.0867 -0.618158,0.01 -1.263818,0.01 -1.434798,-7e-4 z m -49.9463589,-0.4368 c -0.011739,-0.02 -0.7596691,-5.70719 -1.6620669,-12.63846 -0.9023978,-6.93127 -1.6581631,-12.60948 -1.6794784,-12.61825 -0.021315,-0.009 -0.038758,-0.0949 -0.03876,-0.19131 l -5.1e-6,-0.17536 3.708291,0.0125 c 2.8948247,0.01 3.7128839,0.0255 3.7292281,0.0717 0.011516,0.0326 0.3663217,3.96544 0.7884572,8.73973 0.422137,4.77429 0.77904,8.75182 0.793118,8.83895 0.01739,0.10762 0.04858,0.15362 0.09728,0.14348 0.04129,-0.009 1.994658,-3.77603 4.607688,-8.88678 l 4.536007,-8.87183 3.998374,-0.0122 c 2.199105,-0.007 3.997148,0.004 3.99565,0.0239 -0.0015,0.0199 -3.18211,5.78251 -7.068028,12.80585 l -7.065305,12.76968 -4.3595511,0.012 c -2.3977536,0.01 -4.3691564,0 -4.3808955,-0.024 z m 19.1938549,-0.032 c 0,-0.037 1.185108,-5.69213 2.633574,-12.56644 1.448466,-6.87431 2.656987,-12.61333 2.685602,-12.75337 l 0.05203,-0.25462 5.456877,0.0206 c 5.81979,0.022 6.178746,0.035 7.632987,0.27651 3.161563,0.52501 4.973757,1.8445 5.665472,4.12514 0.222015,0.732 0.284432,1.22476 0.285833,2.25658 0.0014,1.0497 -0.05351,1.44766 -0.310063,2.24612 -0.661485,2.05872 -2.405489,3.45759 -5.186889,4.16043 -0.65252,0.16489 -0.765895,0.24378 -0.558789,0.38885 0.139775,0.0979 0.545687,0.621 0.7424,0.95674 0.216141,0.3689 0.557667,1.2072 0.719209,1.76536 0.147995,0.51135 2.181995,9.237 2.181995,9.3605 0,0.081 -0.180286,0.085 -3.655912,0.085 -2.228981,0 -3.666752,-0.018 -3.683685,-0.045 -0.01527,-0.025 -0.382161,-1.7949 -0.815301,-3.9338 -0.433141,-2.13886 -0.842466,-4.08115 -0.909611,-4.31621 -0.29912,-1.04717 -0.658584,-1.38578 -1.600823,-1.50795 -0.478233,-0.062 -1.8988,-0.0634 -1.93681,-0.002 -0.01617,0.0261 -0.46958,2.21601 -1.007589,4.86636 -0.538009,2.6504 -0.9881,4.8457 -1.000202,4.8786 -0.01734,0.047 -0.802454,0.06 -3.706154,0.06 -3.145091,0 -3.684149,-0.01 -3.684149,-0.068 z m 13.668336,-15.2863 c 1.334559,-0.1422 2.186052,-0.45856 2.763198,-1.02662 0.444777,-0.43777 0.642563,-0.94566 0.642563,-1.65002 0,-0.91854 -0.35353,-1.53666 -1.067509,-1.86645 -0.549794,-0.25395 -0.856636,-0.28574 -2.757787,-0.28574 l -1.724958,0 -0.04071,0.10761 c -0.07691,0.20328 -0.963347,4.68084 -0.93558,4.72576 0.03796,0.0614 2.535822,0.0578 3.120784,-0.005 z"
         id="path4144"
         inkscape:connector-curvature="0" />
      <path
         style="fill:#1e1916"
         d="m 55.374486,1005.6716 c -1.222065,-0.071 -3.005892,-0.3274 -4.328307,-0.6216 -1.241141,-0.276 -2.715202,-0.6822 -2.806242,-0.7732 -0.04063,-0.041 1.692293,-5.73124 1.768505,-5.80745 0.01961,-0.0196 0.131992,0.0296 0.249736,0.10924 1.435358,0.97144 4.579981,1.61771 6.981546,1.43471 2.490331,-0.18973 3.782242,-0.88993 4.022112,-2.17994 0.192205,-1.03368 -0.358174,-1.80592 -1.798175,-2.52304 -0.236742,-0.11789 -1.033055,-0.45591 -1.769585,-0.75114 -3.174997,-1.27268 -4.456176,-2.14333 -5.297924,-3.6003 -0.509607,-0.88207 -0.69858,-1.60273 -0.73751,-2.81258 -0.07902,-2.45569 0.632712,-4.43153 2.13551,-5.9284 1.597198,-1.59089 3.85513,-2.51932 7.05648,-2.90151 0.876786,-0.10468 3.833469,-0.11834 4.973967,-0.023 1.606863,0.13434 2.973733,0.35673 3.920834,0.63793 0.530799,0.1576 1.260149,0.44537 1.350628,0.53291 0.0457,0.0442 -0.134479,0.6533 -0.830103,2.8062 -0.488658,1.51236 -0.906338,2.76883 -0.92818,2.79216 -0.02261,0.0242 -0.303632,-0.0712 -0.652522,-0.22146 -1.481357,-0.63791 -2.83563,-0.92075 -4.678068,-0.97703 -1.402735,-0.0429 -2.693709,0.0867 -3.434749,0.34465 -0.718729,0.2502 -1.146317,0.63575 -1.295761,1.16836 -0.214416,0.76417 0.05133,1.35651 0.845708,1.88507 0.488826,0.32525 0.972104,0.55198 2.402177,1.12697 2.966254,1.19264 4.337935,2.09976 5.285892,3.49569 0.669821,0.98636 0.987332,2.04921 1.036311,3.469 0.0557,1.61468 -0.219557,3.02952 -0.823301,4.23176 -1.622082,3.2302 -5.52083,4.9986 -11.214181,5.0867 -0.618158,0.01 -1.263818,0.01 -1.434798,-7e-4 z m -49.9463589,-0.4368 c -0.011739,-0.02 -0.7596691,-5.70719 -1.6620669,-12.63846 -0.9023978,-6.93127 -1.6581631,-12.60948 -1.6794784,-12.61825 -0.021315,-0.009 -0.038758,-0.0949 -0.03876,-0.19131 l -5.1e-6,-0.17536 3.708291,0.0125 c 2.8948247,0.01 3.7128839,0.0255 3.7292281,0.0717 0.011516,0.0326 0.3663217,3.96544 0.7884572,8.73973 0.422137,4.77429 0.77904,8.75182 0.793118,8.83895 0.01739,0.10762 0.04858,0.15362 0.09728,0.14348 0.04129,-0.009 1.994658,-3.77603 4.607688,-8.88678 l 4.536007,-8.87183 3.998374,-0.0122 c 2.199105,-0.007 3.997148,0.004 3.99565,0.0239 -0.0015,0.0199 -3.18211,5.78251 -7.068028,12.80585 l -7.065305,12.76968 -4.3595511,0.012 c -2.3977536,0.01 -4.3691564,0 -4.3808955,-0.024 z m 19.1938549,-0.032 c 0,-0.037 1.185108,-5.69213 2.633574,-12.56644 1.448466,-6.87431 2.656987,-12.61333 2.685602,-12.75337 l 0.05203,-0.25462 5.456877,0.0206 c 5.81979,0.022 6.178746,0.035 7.632987,0.27651 3.161563,0.52501 4.973757,1.8445 5.665472,4.12514 0.222015,0.732 0.284432,1.22476 0.285833,2.25658 0.0014,1.0497 -0.05351,1.44766 -0.310063,2.24612 -0.661485,2.05872 -2.405489,3.45759 -5.186889,4.16043 -0.65252,0.16489 -0.765895,0.24378 -0.558789,0.38885 0.139775,0.0979 0.545687,0.621 0.7424,0.95674 0.216141,0.3689 0.557667,1.2072 0.719209,1.76536 0.147995,0.51135 2.181995,9.237 2.181995,9.3605 0,0.081 -0.180286,0.085 -3.655912,0.085 -2.228981,0 -3.666752,-0.018 -3.683685,-0.045 -0.01527,-0.025 -0.382161,-1.7949 -0.815301,-3.9338 -0.433141,-2.13886 -0.842466,-4.08115 -0.909611,-4.31621 -0.29912,-1.04717 -0.658584,-1.38578 -1.600823,-1.50795 -0.478233,-0.062 -1.8988,-0.0634 -1.93681,-0.002 -0.01617,0.0261 -0.46958,2.21601 -1.007589,4.86636 -0.538009,2.6504 -0.9881,4.8457 -1.000202,4.8786 -0.01734,0.047 -0.802454,0.06 -3.706154,0.06 -3.145091,0 -3.684149,-0.01 -3.684149,-0.068 z m 13.668336,-15.2863 c 1.334559,-0.1422 2.186052,-0.45856 2.763198,-1.02662 0.444777,-0.43777 0.642563,-0.94566 0.642563,-1.65002 0,-0.91854 -0.35353,-1.53666 -1.067509,-1.86645 -0.549794,-0.25395 -0.856636,-0.28574 -2.757787,-0.28574 l -1.724958,0 -0.04071,0.10761 c -0.07691,0.20328 -0.963347,4.68084 -0.93558,4.72576 0.03796,0.0614 2.535822,0.0578 3.120784,-0.005 z"
         id="path4142"
         inkscape:connector-curvature="0" />
    </g>
  </g>
</svg>
