<?xml version="1.0" encoding="UTF-8" standalone="no"?>
<!-- Created with Inkscape (http://www.inkscape.org/) -->

<svg
   xmlns:dc="http://purl.org/dc/elements/1.1/"
   xmlns:cc="http://creativecommons.org/ns#"
   xmlns:rdf="http://www.w3.org/1999/02/22-rdf-syntax-ns#"
   xmlns:svg="http://www.w3.org/2000/svg"
   xmlns="http://www.w3.org/2000/svg"
   xmlns:sodipodi="http://sodipodi.sourceforge.net/DTD/sodipodi-0.dtd"
   xmlns:inkscape="http://www.inkscape.org/namespaces/inkscape"
   width="96"
   height="96"
   viewBox="0 0 96.000001 96.000002"
   id="svg4136"
   version="1.1"
   inkscape:version="0.91 r13725"
   inkscape:export-filename="/home/master/network_mvg_logo.png"
   inkscape:export-xdpi="90"
   inkscape:export-ydpi="90"
   sodipodi:docname="network_nvbw_logo.svg">
  <defs
     id="defs4138">
    <clipPath
       id="clipPath3470"
       clipPathUnits="userSpaceOnUse">
      <path
         inkscape:connector-curvature="0"
         id="path3472"
         d="m 0,0 937.559,0 0,841.89 L 0,841.89 0,0 Z" />
    </clipPath>
    <clipPath
       id="clipPath3506"
       clipPathUnits="userSpaceOnUse">
      <path
         inkscape:connector-curvature="0"
         id="path3508"
         d="m 1119.766,4.513 39.711,0 0,26.33 -39.711,0 0,-26.33 z" />
    </clipPath>
    <clipPath
       id="clipPath16">
      <path
         inkscape:connector-curvature="0"
         d="m 0,86.76 433.902,0 0,-86.76 L 0,0 0,86.76 Z"
         id="path18" />
    </clipPath>
    <clipPath
       id="clipPath118">
      <path
         inkscape:connector-curvature="0"
         d="m 0,86.76 433.902,0 0,-86.76 L 0,0 0,86.76 Z"
         id="path120" />
    </clipPath>
  </defs>
  <sodipodi:namedview
     id="base"
     pagecolor="#ffffff"
     bordercolor="#666666"
     borderopacity="1.0"
     inkscape:pageopacity="1"
     inkscape:pageshadow="2"
     inkscape:zoom="8.51"
     inkscape:cx="35.281492"
     inkscape:cy="44.648984"
     inkscape:document-units="px"
     inkscape:current-layer="layer1"
     showgrid="true"
     units="px"
     inkscape:window-width="1855"
     inkscape:window-height="1056"
     inkscape:window-x="65"
     inkscape:window-y="24"
     inkscape:window-maximized="1"
     showguides="false">
    <inkscape:grid
       type="xygrid"
       id="grid4856" />
  </sodipodi:namedview>
  <metadata
     id="metadata4141">
    <rdf:RDF>
      <cc:Work
         rdf:about="">
        <dc:format>image/svg+xml</dc:format>
        <dc:type
           rdf:resource="http://purl.org/dc/dcmitype/StillImage" />
        <dc:title></dc:title>
        <cc:license
           rdf:resource="http://creativecommons.org/publicdomain/zero/1.0/" />
      </cc:Work>
      <cc:License
         rdf:about="http://creativecommons.org/publicdomain/zero/1.0/">
        <cc:permits
           rdf:resource="http://creativecommons.org/ns#Reproduction" />
        <cc:permits
           rdf:resource="http://creativecommons.org/ns#Distribution" />
        <cc:permits
           rdf:resource="http://creativecommons.org/ns#DerivativeWorks" />
      </cc:License>
    </rdf:RDF>
  </metadata>
  <g
     inkscape:label="Ebene 1"
     inkscape:groupmode="layer"
     id="layer1"
     transform="translate(0,-956.36216)">
    <rect
       style="fill:#ffffff;fill-opacity:1;stroke:#01ffff;stroke-width:0;stroke-linecap:butt;stroke-linejoin:miter;stroke-miterlimit:0;stroke-dasharray:none;stroke-opacity:1"
       id="rect4267"
       width="95.999954"
       height="95.999969"
       x="2.3284263e-05"
       y="956.36218" />
    <g
       id="g12"
       transform="matrix(0.21228384,0,0,-0.21228384,1.7369858,1013.9171)">
      <g
         id="g14"
         clip-path="url(#clipPath16)">
        <path
           style="fill:none;stroke:#0066b3;stroke-width:2;stroke-linecap:round;stroke-linejoin:miter;stroke-miterlimit:4;stroke-dasharray:none;stroke-opacity:1"
           id="path20"
           d="m 432.902,85.732 -13.5,0.006"
           inkscape:connector-curvature="0" />
      </g>
    </g>
    <path
       style="fill:none;stroke:#0066b3;stroke-width:0.42456767;stroke-linecap:butt;stroke-linejoin:miter;stroke-miterlimit:4;stroke-dasharray:none;stroke-opacity:1"
       id="path22"
       d="m 32.211817,1000.356 0.796489,-2.97199 -25.7396279,0 -2.600477,2.97199 27.5436159,0 z"
       inkscape:connector-curvature="0" />
    <path
       style="fill:#0066b3;fill-opacity:1;fill-rule:nonzero;stroke:none"
       id="path24"
       d="m 82.143524,997.20187 c 0.03163,0 0.06729,0.0159 0.06729,0.0476 0,0.0635 -0.06156,0.0815 -0.111025,0.11931 -0.08046,0.0616 -0.150934,0.11208 -0.150934,0.2144 0,0.0486 -0.05562,0.0626 -0.05562,0.11124 0,0.0119 0.01592,0.0157 0.01592,0.0278 0,0.0338 -0.02399,0.0495 -0.02399,0.0834 0,0.0159 0.0081,0.0238 0.0081,0.0397 0,0.0853 0.11336,0.0953 0.198698,0.0953 l 0.08725,0 c 0.18681,0 0.281913,-0.10317 0.468723,-0.10317 0.04055,0 0.05753,-0.028 0.09531,-0.0399 0.121215,-0.0397 0.187659,-0.0743 0.309723,-0.11124 0.278091,-0.0845 0.436031,-0.13098 0.714972,-0.2144 0.143079,-0.0427 0.219713,-0.10317 0.369586,-0.10317 0.11803,0 0.179592,-0.0567 0.297834,-0.0637 0.137984,-0.008 0.215468,0 0.353453,0 0.05052,0 0.07536,0.0248 0.123124,0.0399 0.08937,0.0276 0.150085,0.0357 0.222474,0.0951 0.0397,0.0329 0.10317,0.0348 0.10317,0.0875 0,0.0278 0.03779,0.0306 0.04776,0.0556 0.01995,0.0497 0.0397,0.0805 0.0397,0.13501 0,0.0229 -0.01592,0.0329 -0.01592,0.0556 0,0.0168 0.01592,0.0229 0.01592,0.0399 0,0.0981 -0.04267,0.15094 -0.08746,0.23818 -0.04755,0.0924 -0.0743,0.15476 -0.158789,0.21441 -0.07748,0.0546 -0.174709,0.0756 -0.174709,0.17089 0,0.16388 0.06347,0.25304 0.06347,0.41693 0,0.038 -0.01571,0.0575 -0.01571,0.0953 0,0.014 0.01571,0.0181 0.01571,0.0321 0,0.0843 -0.0397,0.12991 -0.0397,0.21419 0,0.0418 -0.03163,0.0616 -0.03163,0.10338 0,0.0348 0.04267,0.0376 0.07133,0.0556 0.112298,0.0696 0.192753,0.0824 0.317788,0.12716 0.05965,0.0208 0.135225,0.0278 0.135225,0.0913 0,0.17492 -0.06984,0.26323 -0.111449,0.43302 -0.03863,0.1559 -0.04564,0.3573 -0.206552,0.3573 l -0.349419,0 c -0.01486,0 -0.02102,0.016 -0.03588,0.016 -0.01189,0 -0.01571,-0.016 -0.02781,-0.016 l -0.484432,0 c -0.01,-0.022 -0.03184,-0.031 -0.03184,-0.055 0,-0.156 0.115271,-0.2403 0.254316,-0.30971 0.08937,-0.0448 0.168766,-0.0151 0.24625,-0.0796 -0.04373,-0.0705 -0.110388,-0.0705 -0.182777,-0.11124 -0.09553,-0.0537 -0.142867,-0.0964 -0.238182,-0.15093 -0.102533,-0.0586 -0.165157,-0.0904 -0.254528,-0.16686 -0.04946,-0.0427 -0.06538,-0.10317 -0.13098,-0.10317 -0.08046,0 -0.105292,0.0726 -0.162609,0.12695 -0.07557,0.0715 -0.146264,0.0894 -0.206765,0.17492 -0.0467,0.0654 -0.06835,0.11124 -0.127158,0.16686 -0.11527,0.10996 -0.157939,0.20039 -0.214406,0.34939 -0.03566,0.095 -0.08046,0.1909 -0.182777,0.1909 l -1.016839,0 c -0.03864,0 -0.06347,-0.037 -0.06347,-0.076 0,-0.04 0.02781,-0.058 0.04755,-0.091 0.0518,-0.086 0.0934,-0.1382 0.182776,-0.183 0.136074,-0.0673 0.213557,-0.13478 0.365553,-0.13478 l 0.127158,0 c 0.08831,0 0.11803,-0.0904 0.142654,-0.17492 0.04288,-0.14308 0.09553,-0.22035 0.09553,-0.36937 0,-0.0705 0.04585,-0.10317 0.06369,-0.17089 -0.01104,-0.004 -0.01613,-0.0157 -0.02781,-0.0157 -0.06369,0 -0.09638,0.0318 -0.155179,0.0556 -0.169827,0.0705 -0.264931,0.11909 -0.420959,0.21441 -0.207614,0.12715 -0.353453,0.14796 -0.57996,0.23839 -0.207401,0.0824 -0.324582,0.16686 -0.548117,0.16686 l -0.111024,0 c -0.01995,0 -0.02802,0.0157 -0.04776,0.0157 l -0.238395,0 c -0.05265,0 -0.06644,0.0526 -0.111024,0.0796 -0.05965,0.0357 -0.101472,0.0416 -0.166855,0.0635 -0.220563,0.074 -0.359609,0.069 -0.580172,0.1431 -0.219289,0.072 -0.348358,0.099 -0.571893,0.1588 -0.113147,0.03 -0.168765,0.094 -0.285946,0.095 -0.190631,0 -0.297834,-0.01 -0.488677,-0.016 -0.156878,0.045 -0.254104,0.032 -0.416926,0.032 l -0.182776,0 c -0.0467,0 -0.07939,-0.045 -0.07939,-0.091 0,-0.023 0.0079,-0.037 0.0079,-0.059 0,-0.089 0.05774,-0.1353 0.127158,-0.1907 0.08428,-0.068 0.137985,-0.12712 0.24625,-0.12712 l 0.341776,0 c 0.01974,0 0.0276,0.0159 0.04755,0.0159 l 0.10317,0 c 0.109326,0 0.146051,-0.0913 0.230328,-0.159 0.116332,-0.0921 0.205703,-0.12398 0.301868,-0.23819 -0.122064,-0.159 -0.278941,-0.15199 -0.420959,-0.29401 -0.08831,-0.0885 -0.160699,-0.11612 -0.246037,-0.20655 -0.03779,-0.0408 -0.111449,-0.0386 -0.111449,-0.0951 0,-0.0548 -0.05265,-0.0698 -0.08725,-0.11145 -0.0656,-0.0783 -0.119091,-0.14308 -0.222473,-0.14308 l -0.09532,0 c -0.06645,0 -0.135225,-0.0405 -0.135225,-0.10721 0,-0.0813 0.05583,-0.12015 0.119304,-0.17067 0.109326,-0.0872 0.170888,-0.16495 0.309934,-0.18278 0.0605,-0.008 0.09829,-0.009 0.158789,0 0.108264,0.0159 0.200608,0.0478 0.238394,0.15094 0.01274,0.0348 -0.0081,0.0766 0.02378,0.0955 0.05562,0.0338 0.104019,0.008 0.166643,0.0238 0.07663,0.0197 0.119303,0.0476 0.198698,0.0476 l 0.10317,0 c 0.05965,0 0.09149,0.024 0.151146,0.024 0.0656,0 0.08237,-0.0667 0.119091,-0.1193 0.01804,-0.0259 0.04755,-0.0359 0.04755,-0.0675 0,-0.008 -0.0079,-0.0119 -0.0079,-0.02 l -0.0397,0 c -0.07557,0.0656 -0.140957,0.0953 -0.242216,0.0953 -0.01486,0 -0.03588,-0.001 -0.03588,-0.0159 0,-0.0446 -0.03163,-0.0662 -0.03163,-0.11103 0,-0.10147 0.01783,-0.23032 0.119091,-0.23032 0.04182,0 0.05074,0.0427 0.07939,0.0715 0.04458,-0.0299 0.08725,-0.0537 0.08725,-0.10742 0,-0.0229 -0.0079,-0.0367 -0.0079,-0.0594 0,-0.0526 -0.01083,-0.1193 -0.06347,-0.1193 l -0.07133,0 c -0.02314,0 -0.0329,0.0159 -0.05583,0.0159 -0.05052,0 -0.07939,-0.0526 -0.07939,-0.10317 0,-0.017 0.01592,-0.0229 0.01592,-0.0399 0,-0.0208 -0.01592,-0.0308 -0.01592,-0.0516 0,-0.19848 0.188508,-0.27214 0.373408,-0.34559 0.19063,-0.0754 0.30675,-0.12695 0.512453,-0.12695 0.01783,0 0.02569,0.0157 0.04373,0.0157 l 0.08725,0 c 0.0121,0 0.01592,-0.0157 0.02781,-0.0157 0.01486,0 0.02186,0.0138 0.03588,0.0157 0.122063,0.0248 0.196363,0.0238 0.32161,0.0238 0.06347,0 0.09935,-0.0238 0.162822,-0.0238 l 0.08746,0 c 0.0346,0 0.05265,-0.0238 0.08725,-0.0238 0.03694,0 0.07154,0.027 0.07154,0.0635 0,0.011 -0.0079,0.0168 -0.0079,0.0278 0,0.0516 -0.0794,0.0556 -0.0794,0.1072 0,0.0737 0.03163,0.11315 0.03163,0.18681 0,0.0994 0.07939,0.14308 0.07939,0.24243 0,0.0168 -0.01571,0.0227 -0.01571,0.0395 0,0.011 0.01571,0.014 0.01571,0.0238 0.0072,0.0885 0.0051,0.14117 0,0.23054 -8.49e-4,0.024 -0.01571,0.0357 -0.01571,0.0597 0,0.0267 0.0079,0.0405 0.0079,0.0675 0,0.0467 0.05265,0.0556 0.09532,0.0715 0.128219,0.0476 0.208675,0.0635 0.345598,0.0635 0.0656,0 0.101259,0.0159 0.166855,0.0159 0.02484,0 0.03481,0.0238 0.05965,0.0238 l 0.111024,0 c 0.02208,0 0.0329,-0.017 0.04776,-0.0318 0.01,0.017 0.01996,0.0318 0.0397,0.0318 0.217591,0 0.330738,-0.10317 0.548117,-0.10317 0.111237,0 0.162822,-0.0796 0.274058,-0.0796 0.07663,0 0.112299,-0.0495 0.186598,-0.0635 0.141169,-0.027 0.224596,-0.02 0.365553,-0.0478 0.08937,-0.0176 0.139046,-0.0476 0.230328,-0.0476 l 0.143079,0 c 0.02887,0 0.04373,-0.021 0.07154,-0.0238 0.199546,-0.025 0.314604,0.0159 0.516274,0.0159 0.03779,0 0.05859,0.0189 0.09553,0.0238 0.05753,0.009 0.09213,0.008 0.150721,0.008 0.04076,0 0.06262,-0.0159 0.103382,-0.0159 0.117181,0 0.186598,-0.0783 0.238395,-0.18256 0.01677,-0.034 0.04755,-0.0488 0.04755,-0.0875 0,-0.0378 -0.01592,-0.0575 -0.01592,-0.0953 0,-0.0248 -0.03163,-0.0308 -0.03163,-0.0556 0,-0.0208 -0.03205,-0.0119 -0.04776,-0.024 -0.07345,-0.0554 -0.129068,-0.0872 -0.222473,-0.0872 -0.05753,0 -0.08937,-0.0159 -0.146901,-0.0159 -0.339654,0 -0.526251,0.0843 -0.854017,0.17471 -0.39315,0.10932 -0.613713,0.17301 -1.000919,0.30187 -0.202519,0.0675 -0.31885,0.12312 -0.532195,0.13522 -0.146901,0.008 -0.230541,-0.008 -0.377441,-0.008 -0.04967,0 -0.07451,-0.0359 -0.107203,-0.0715 -0.02187,-0.024 -0.05562,-0.031 -0.05562,-0.0637 0,-0.0745 -0.07939,-0.10041 -0.07939,-0.17471 0,-0.0168 0.01571,-0.0229 0.01571,-0.0397 0,-0.011 -0.01571,-0.013 -0.01571,-0.0238 0,-0.0132 0.0079,-0.0191 0.0079,-0.0318 0,-0.1917 0.126096,-0.28998 0.278091,-0.40525 0.09532,-0.0715 0.15794,-0.11018 0.270025,-0.15094 0.04564,-0.0159 0.06666,-0.0476 0.115271,-0.0476 z m -2.19268,0.30187 c 0.02271,0 0.03779,0.003 0.05965,0.008 -0.0397,0.01 -0.06071,0.0319 -0.08746,0.0637 l -0.03948,0 c -0.0021,-0.0121 -0.0083,-0.0189 -0.0083,-0.0318 0,-0.0327 0.04288,-0.0397 0.07557,-0.0397 z m 0.326705,3.03456 c 0.03163,0 0.06729,0.016 0.06729,0.048 0,0.064 -0.06156,0.082 -0.111025,0.1193 -0.08046,0.062 -0.150934,0.1121 -0.150934,0.2144 0,0.049 -0.05562,0.062 -0.05562,0.1112 0,0.012 0.01592,0.016 0.01592,0.028 0,0.034 -0.02399,0.05 -0.02399,0.084 0,0.016 0.0081,0.024 0.0081,0.04 0,0.085 0.11336,0.095 0.198698,0.095 l 0.08725,0 c 0.18681,0 0.281913,-0.1032 0.468723,-0.1032 0.04055,0 0.05753,-0.028 0.09531,-0.04 0.121215,-0.039 0.187659,-0.074 0.309723,-0.111 0.278091,-0.085 0.436031,-0.131 0.714972,-0.2146 0.143079,-0.043 0.219713,-0.1032 0.369586,-0.1032 0.11803,0 0.179592,-0.057 0.297834,-0.063 0.137984,-0.01 0.215468,0 0.353453,0 0.05073,0 0.07536,0.025 0.123124,0.039 0.08937,0.028 0.149873,0.036 0.222474,0.096 0.0397,0.033 0.10317,0.035 0.10317,0.087 0,0.028 0.03779,0.031 0.04776,0.056 0.01996,0.05 0.0397,0.081 0.0397,0.135 0,0.023 -0.01592,0.033 -0.01592,0.056 0,0.017 0.01592,0.023 0.01592,0.04 0,0.098 -0.04267,0.151 -0.08746,0.2384 -0.04755,0.092 -0.0743,0.155 -0.158789,0.2144 -0.07748,0.055 -0.174709,0.076 -0.174709,0.1709 0,0.1637 0.06347,0.2533 0.06347,0.4172 0,0.038 -0.01571,0.058 -0.01571,0.095 0,0.014 0.01571,0.018 0.01571,0.032 0,0.085 -0.0397,0.1303 -0.0397,0.2146 0,0.042 -0.03163,0.062 -0.03163,0.1032 0,0.035 0.04267,0.038 0.07133,0.056 0.112298,0.069 0.192753,0.083 0.317788,0.1272 0.05965,0.021 0.135225,0.028 0.135225,0.091 0,0.1747 -0.06984,0.263 -0.111449,0.4328 -0.03885,0.1558 -0.04564,0.3575 -0.206552,0.3575 l -0.349419,0 c -0.01486,0 -0.02102,0.016 -0.03588,0.016 -0.01189,0 -0.01571,-0.016 -0.02781,-0.016 l -0.484432,0 c -0.01,-0.022 -0.03184,-0.031 -0.03184,-0.056 0,-0.1558 0.115271,-0.2403 0.254316,-0.31 0.08937,-0.045 0.168766,-0.015 0.24625,-0.079 -0.04373,-0.07 -0.110388,-0.07 -0.182777,-0.1112 -0.09553,-0.053 -0.143079,-0.096 -0.238182,-0.1509 -0.102533,-0.058 -0.165157,-0.091 -0.254528,-0.1667 -0.04946,-0.043 -0.06538,-0.1034 -0.13098,-0.1034 -0.08046,0 -0.105292,0.072 -0.162609,0.1272 -0.07557,0.071 -0.146264,0.089 -0.206764,0.1747 -0.0467,0.066 -0.06836,0.1113 -0.127158,0.1669 -0.115271,0.1101 -0.157727,0.2006 -0.214407,0.3494 -0.03566,0.095 -0.08046,0.1906 -0.182777,0.1906 l -1.016839,0 c -0.03885,0 -0.06347,-0.037 -0.06347,-0.075 0,-0.04 0.02781,-0.058 0.04755,-0.091 0.0518,-0.085 0.0934,-0.138 0.182776,-0.1826 0.136074,-0.067 0.213558,-0.135 0.365553,-0.135 l 0.127158,0 c 0.08831,0 0.11803,-0.09 0.142867,-0.1749 0.04267,-0.1429 0.09531,-0.2204 0.09531,-0.3692 0,-0.071 0.04564,-0.1036 0.06347,-0.1709 -0.01083,-0 -0.01592,-0.016 -0.0276,-0.016 -0.06368,0 -0.09659,0.032 -0.154967,0.056 -0.170039,0.071 -0.265143,0.1191 -0.420959,0.2144 -0.207826,0.1272 -0.353665,0.1482 -0.580172,0.2384 -0.207401,0.082 -0.324582,0.1669 -0.548116,0.1669 l -0.111025,0 c -0.01995,0 -0.02802,0.016 -0.04776,0.016 l -0.238395,0 c -0.05265,0 -0.06644,0.053 -0.111024,0.079 -0.05986,0.036 -0.101472,0.042 -0.166855,0.064 -0.220563,0.073 -0.359609,0.069 -0.580172,0.1426 -0.219289,0.073 -0.348358,0.099 -0.571892,0.159 -0.113148,0.03 -0.168766,0.095 -0.285947,0.096 -0.190631,0 -0.297834,-0.01 -0.488677,-0.016 -0.156878,0.045 -0.254104,0.032 -0.416926,0.032 l -0.182776,0 c -0.0467,0 -0.07939,-0.045 -0.07939,-0.091 0,-0.023 0.0079,-0.037 0.0079,-0.06 0,-0.089 0.05774,-0.135 0.127158,-0.1904 0.08428,-0.068 0.137985,-0.1274 0.24625,-0.1274 l 0.341564,0 c 0.01995,0 0.02781,0.016 0.04776,0.016 l 0.10317,0 c 0.109326,0 0.146051,-0.091 0.230328,-0.1588 0.116332,-0.092 0.205703,-0.1242 0.30208,-0.2384 -0.122276,-0.1588 -0.279153,-0.152 -0.420959,-0.294 -0.08852,-0.088 -0.160911,-0.1162 -0.246249,-0.2064 -0.03779,-0.041 -0.111449,-0.039 -0.111449,-0.096 0,-0.055 -0.05265,-0.069 -0.08725,-0.111 -0.0656,-0.079 -0.119091,-0.1431 -0.222473,-0.1431 l -0.09532,0 c -0.06645,0 -0.135225,-0.041 -0.135225,-0.1074 0,-0.081 0.05583,-0.12 0.119304,-0.1705 0.109114,-0.088 0.170888,-0.1651 0.309934,-0.183 0.0605,-0.01 0.09829,-0.01 0.158789,0 0.108264,0.016 0.200608,0.048 0.238394,0.151 0.01274,0.035 -0.0081,0.076 0.02378,0.095 0.05562,0.034 0.104232,0.01 0.166643,0.024 0.07663,0.02 0.119304,0.047 0.198698,0.047 l 0.103382,0 c 0.05944,0 0.09128,0.024 0.150934,0.024 0.06559,0 0.08237,-0.067 0.119091,-0.1193 0.01804,-0.026 0.04755,-0.036 0.04755,-0.067 0,-0.01 -0.0079,-0.012 -0.0079,-0.02 l -0.0397,0 c -0.07557,0.065 -0.140956,0.095 -0.242216,0.095 -0.01486,0 -0.03588,-9e-4 -0.03588,-0.016 0,-0.045 -0.03163,-0.067 -0.03163,-0.1112 0,-0.1013 0.01783,-0.2303 0.119091,-0.2303 0.04161,0 0.05052,0.043 0.07939,0.071 0.04458,-0.03 0.08725,-0.053 0.08725,-0.107 0,-0.023 -0.0079,-0.037 -0.0079,-0.06 0,-0.053 -0.01104,-0.1189 -0.06347,-0.1189 l -0.07133,0 c -0.02293,0 -0.0329,0.016 -0.05583,0.016 -0.05052,0 -0.07939,-0.053 -0.07939,-0.1032 0,-0.017 0.01592,-0.023 0.01592,-0.04 0,-0.021 -0.01592,-0.031 -0.01592,-0.052 0,-0.1987 0.188508,-0.2719 0.373408,-0.3456 0.190631,-0.075 0.30675,-0.1271 0.512453,-0.1271 0.01783,0 0.02569,0.016 0.04373,0.016 l 0.08725,0 c 0.01189,0 0.01592,-0.016 0.02781,-0.016 0.01486,0 0.02187,0.014 0.03588,0.016 0.122063,0.025 0.196363,0.024 0.32161,0.024 0.06347,0 0.09935,-0.024 0.162822,-0.024 l 0.08746,0 c 0.0346,0 0.05265,-0.024 0.08725,-0.024 0.03694,0 0.07154,0.027 0.07154,0.063 0,0.011 -0.0079,0.017 -0.0079,0.028 0,0.052 -0.07939,0.056 -0.07939,0.1072 0,0.073 0.03163,0.1132 0.03163,0.1866 0,0.099 0.07939,0.1431 0.07939,0.2422 0,0.017 -0.01571,0.023 -0.01571,0.04 0,0.011 0.01571,0.014 0.01571,0.024 0.0072,0.088 0.0051,0.141 0,0.2303 -0.0011,0.024 -0.01571,0.036 -0.01571,0.06 0,0.027 0.0079,0.041 0.0079,0.068 0,0.047 0.05265,0.056 0.09532,0.072 0.128219,0.048 0.208675,0.064 0.345598,0.064 0.0656,0 0.101259,0.016 0.166855,0.016 0.02484,0 0.03481,0.024 0.05965,0.024 l 0.111024,0 c 0.02208,0 0.03269,-0.017 0.04776,-0.032 0.01,0.017 0.01995,0.032 0.0397,0.032 0.217591,0 0.330738,-0.1032 0.548117,-0.1032 0.111237,0 0.162822,-0.079 0.274058,-0.079 0.07663,0 0.112299,-0.05 0.186598,-0.064 0.141169,-0.027 0.224596,-0.02 0.365553,-0.048 0.08937,-0.018 0.139046,-0.048 0.230328,-0.048 l 0.143079,0 c 0.02866,0 0.04373,-0.021 0.07154,-0.024 0.199546,-0.025 0.314604,0.016 0.516274,0.016 0.03779,0 0.05859,0.019 0.09553,0.024 0.05753,0.01 0.09213,0.01 0.150721,0.01 0.04076,0 0.06262,-0.016 0.103382,-0.016 0.117181,0 0.186598,-0.079 0.238395,-0.183 0.01677,-0.034 0.04755,-0.048 0.04755,-0.087 0,-0.038 -0.01592,-0.058 -0.01592,-0.095 0,-0.025 -0.03163,-0.03 -0.03163,-0.056 0,-0.021 -0.03205,-0.012 -0.04776,-0.024 -0.07345,-0.056 -0.129068,-0.087 -0.222473,-0.087 -0.05753,0 -0.08937,-0.016 -0.146901,-0.016 -0.339654,0 -0.526463,0.084 -0.854017,0.1747 -0.393362,0.1093 -0.613713,0.1726 -1.000919,0.3019 -0.202519,0.067 -0.31885,0.1231 -0.532195,0.135 -0.149024,0.01 -0.232451,-0.01 -0.381474,-0.01 -0.04861,0 -0.07048,-0.035 -0.10317,-0.071 -0.02187,-0.024 -0.05562,-0.031 -0.05562,-0.064 0,-0.075 -0.07939,-0.1004 -0.07939,-0.1747 0,-0.017 0.01571,-0.023 0.01571,-0.04 0,-0.011 -0.01571,-0.013 -0.01571,-0.024 0,-0.013 0.0079,-0.019 0.0079,-0.032 0,-0.1917 0.126096,-0.29 0.278091,-0.4053 0.09532,-0.072 0.15794,-0.1099 0.270026,-0.1509 0.04564,-0.016 0.06666,-0.048 0.11527,-0.048 z m -2.19268,0.3019 c 0.02271,0 0.03779,0 0.05965,0.01 -0.0397,0.01 -0.0605,0.032 -0.08746,0.063 l -0.03949,0 c -0.0021,-0.012 -0.0083,-0.019 -0.0083,-0.032 0,-0.033 0.04288,-0.04 0.07557,-0.04 z m 0.202731,3.0743 c 0.03184,0 0.06751,0.016 0.06751,0.048 0,0.064 -0.06156,0.082 -0.111024,0.1194 -0.08046,0.062 -0.150934,0.112 -0.150934,0.2146 0,0.048 -0.05583,0.063 -0.05583,0.111 0,0.012 0.01592,0.016 0.01592,0.028 0,0.034 -0.02378,0.05 -0.02378,0.084 0,0.016 0.0079,0.024 0.0079,0.039 0,0.085 0.11336,0.095 0.198698,0.095 l 0.08746,0 c 0.186597,0 0.281913,-0.1031 0.468723,-0.1031 0.04055,0 0.05753,-0.028 0.09531,-0.04 0.121002,-0.04 0.187659,-0.074 0.309722,-0.1111 0.278092,-0.084 0.436031,-0.1309 0.714972,-0.2146 0.143079,-0.043 0.219502,-0.1031 0.369586,-0.1031 0.11803,0 0.179592,-0.057 0.297835,-0.063 0.137772,-0.01 0.215255,0 0.353452,0 0.05052,0 0.07536,0.025 0.123125,0.04 0.08937,0.028 0.149872,0.036 0.222473,0.095 0.03948,0.033 0.10317,0.035 0.10317,0.087 0,0.028 0.03779,0.031 0.04776,0.056 0.01995,0.049 0.0397,0.08 0.0397,0.135 0,0.023 -0.01592,0.033 -0.01592,0.055 0,0.017 0.01592,0.023 0.01592,0.04 0,0.098 -0.04267,0.1509 -0.08746,0.2384 -0.04755,0.092 -0.0743,0.1547 -0.158788,0.2144 -0.07748,0.055 -0.17471,0.075 -0.17471,0.1707 0,0.1641 0.06347,0.2534 0.06347,0.4171 0,0.038 -0.01592,0.058 -0.01592,0.095 0,0.014 0.01592,0.018 0.01592,0.032 0,0.084 -0.0397,0.1301 -0.0397,0.2144 0,0.042 -0.03184,0.062 -0.03184,0.1034 0,0.035 0.04267,0.038 0.07154,0.055 0.112086,0.07 0.192542,0.082 0.317789,0.1271 0.05944,0.021 0.135013,0.028 0.135013,0.091 0,0.1747 -0.06963,0.263 -0.111237,0.4329 -0.03885,0.1558 -0.04564,0.3575 -0.206552,0.3575 l -0.349632,0 c -0.01465,0 -0.0208,0.016 -0.03566,0.016 -0.01189,0 -0.01592,-0.016 -0.02781,-0.016 l -0.484644,0 c -0.0098,-0.022 -0.03184,-0.031 -0.03184,-0.055 0,-0.156 0.115482,-0.2405 0.254316,-0.3099 0.08937,-0.045 0.168978,-0.015 0.246249,-0.079 -0.04352,-0.07 -0.110175,-0.07 -0.182564,-0.1114 -0.09553,-0.053 -0.143079,-0.096 -0.238395,-0.151 -0.102321,-0.058 -0.164944,-0.09 -0.254316,-0.1666 -0.04946,-0.043 -0.06538,-0.1034 -0.130979,-0.1034 -0.08046,0 -0.105293,0.073 -0.163034,0.1272 -0.07536,0.071 -0.145839,0.089 -0.20634,0.1749 -0.0467,0.065 -0.06857,0.111 -0.127158,0.1666 -0.11527,0.1102 -0.157939,0.2006 -0.214619,0.3495 -0.03566,0.096 -0.08024,0.1908 -0.182564,0.1908 l -1.01684,0 c -0.03885,0 -0.06368,-0.037 -0.06368,-0.076 0,-0.04 0.02781,-0.058 0.04776,-0.091 0.05159,-0.086 0.09341,-0.1379 0.182777,-0.1827 0.136073,-0.067 0.213345,-0.1348 0.36534,-0.1348 l 0.127158,0 c 0.08852,0 0.11803,-0.091 0.142867,-0.175 0.04288,-0.1428 0.09553,-0.2205 0.09553,-0.3693 0,-0.07 0.04543,-0.1034 0.06347,-0.1709 -0.01083,-0 -0.01592,-0.016 -0.02781,-0.016 -0.06347,0 -0.09638,0.032 -0.154967,0.056 -0.169827,0.07 -0.265142,0.1191 -0.420959,0.2146 -0.207613,0.1269 -0.353452,0.148 -0.579959,0.2384 -0.207401,0.082 -0.324794,0.1666 -0.548117,0.1666 l -0.111237,0 c -0.01974,0 -0.02781,0.016 -0.04776,0.016 l -0.238182,0 c -0.05265,0 -0.06645,0.053 -0.111237,0.079 -0.05965,0.036 -0.101259,0.042 -0.166643,0.064 -0.220775,0.073 -0.359608,0.069 -0.580171,0.1429 -0.219289,0.073 -0.348358,0.1 -0.571893,0.159 -0.113147,0.03 -0.168766,0.094 -0.285946,0.095 -0.190631,0 -0.297834,-0.01 -0.488678,-0.016 -0.156877,0.045 -0.254103,0.032 -0.416925,0.032 l -0.182777,0 c -0.0467,0 -0.07939,-0.045 -0.07939,-0.091 0,-0.023 0.0079,-0.037 0.0079,-0.06 0,-0.089 0.05774,-0.1348 0.127158,-0.1904 0.08428,-0.067 0.137984,-0.1272 0.246249,-0.1272 l 0.341565,0 c 0.01974,0 0.02781,0.016 0.04776,0.016 l 0.10317,0 c 0.109326,0 0.146051,-0.091 0.230328,-0.1588 0.116119,-0.092 0.205703,-0.1241 0.301867,-0.2384 -0.122063,-0.1587 -0.278941,-0.1517 -0.420959,-0.2938 -0.08831,-0.088 -0.160911,-0.1161 -0.246249,-0.2065 -0.03779,-0.041 -0.111237,-0.039 -0.111237,-0.095 0,-0.055 -0.05265,-0.069 -0.08746,-0.1113 -0.0656,-0.079 -0.118879,-0.143 -0.222473,-0.143 l -0.0951,0 c -0.06645,0 -0.135225,-0.041 -0.135225,-0.107 0,-0.082 0.05562,-0.1204 0.119304,-0.1709 0.109113,-0.087 0.170676,-0.165 0.309722,-0.1828 0.06071,-0.01 0.0985,-0.01 0.159,0 0.108265,0.016 0.200396,0.048 0.238183,0.1507 0.01295,0.035 -0.0079,0.077 0.02377,0.096 0.05583,0.034 0.104232,0.01 0.166856,0.024 0.07663,0.02 0.119303,0.048 0.198697,0.048 l 0.10317,0 c 0.05965,0 0.09149,0.024 0.150934,0.024 0.0656,0 0.08258,-0.067 0.119304,-0.1193 0.01783,-0.026 0.04755,-0.036 0.04755,-0.067 0,-0.01 -0.0079,-0.012 -0.0079,-0.02 l -0.0397,0 c -0.07557,0.066 -0.140957,0.095 -0.242429,0.095 -0.01465,0 -0.03566,-8e-4 -0.03566,-0.016 0,-0.045 -0.03163,-0.066 -0.03163,-0.111 0,-0.1015 0.01783,-0.2306 0.118879,-0.2306 0.04182,0 0.05074,0.043 0.07961,0.072 0.04458,-0.03 0.08725,-0.054 0.08725,-0.1072 0,-0.023 -0.0079,-0.037 -0.0079,-0.06 0,-0.052 -0.01104,-0.1191 -0.06369,-0.1191 l -0.07154,0 c -0.02271,0 -0.03269,0.016 -0.05541,0.016 -0.05074,0 -0.07939,-0.053 -0.07939,-0.1031 0,-0.017 0.01592,-0.023 0.01592,-0.04 0,-0.021 -0.01592,-0.031 -0.01592,-0.052 0,-0.1985 0.188508,-0.272 0.373407,-0.3456 0.190631,-0.075 0.30675,-0.127 0.512453,-0.127 0.01783,0 0.02569,0.016 0.04352,0.016 l 0.08746,0 c 0.01167,0 0.01592,-0.016 0.02781,-0.016 0.01486,0 0.02165,0.014 0.03566,0.016 0.122276,0.025 0.196575,0.024 0.321823,0.024 0.06347,0 0.09914,-0.024 0.162821,-0.024 l 0.08746,0 c 0.0346,0 0.05243,-0.024 0.08725,-0.024 0.03673,0 0.07154,0.027 0.07154,0.063 0,0.011 -0.0079,0.017 -0.0079,0.028 0,0.052 -0.07961,0.056 -0.07961,0.1072 0,0.073 0.03184,0.1131 0.03184,0.1868 0,0.099 0.07939,0.1428 0.07939,0.2422 0,0.017 -0.01592,0.023 -0.01592,0.04 0,0.011 0.01592,0.014 0.01592,0.024 0.007,0.088 0.0051,0.1409 0,0.2303 -0.0011,0.024 -0.01592,0.036 -0.01592,0.059 0,0.027 0.0081,0.041 0.0081,0.068 0,0.047 0.05243,0.056 0.0951,0.072 0.12822,0.048 0.208675,0.064 0.345598,0.064 0.06581,0 0.101472,0.016 0.166855,0.016 0.02505,0 0.03503,0.024 0.05965,0.024 l 0.111237,0 c 0.02186,0 0.03269,-0.017 0.04776,-0.032 0.01,0.017 0.01995,0.032 0.03948,0.032 0.217591,0 0.330951,-0.1032 0.54833,-0.1032 0.111236,0 0.162821,-0.079 0.274058,-0.079 0.07642,0 0.112298,-0.05 0.186598,-0.064 0.140956,-0.027 0.224596,-0.02 0.365552,-0.048 0.08937,-0.018 0.138834,-0.048 0.230328,-0.048 l 0.14308,0 c 0.02866,0 0.04373,-0.021 0.07154,-0.024 0.199547,-0.025 0.314605,0.016 0.516275,0.016 0.03779,0 0.05859,0.019 0.0951,0.024 0.05774,0.01 0.09256,0.01 0.151146,0.01 0.04076,0 0.06241,-0.016 0.103382,-0.016 0.116968,0 0.186598,-0.079 0.238182,-0.1828 0.01698,-0.034 0.04755,-0.049 0.04755,-0.087 0,-0.038 -0.01571,-0.058 -0.01571,-0.096 0,-0.025 -0.03184,-0.031 -0.03184,-0.055 0,-0.021 -0.03184,-0.012 -0.04776,-0.024 -0.07345,-0.055 -0.128857,-0.087 -0.222474,-0.087 -0.05732,0 -0.08937,-0.016 -0.146688,-0.016 -0.339866,0 -0.526464,0.084 -0.85423,0.1748 -0.39315,0.1093 -0.6135,0.1728 -1.000706,0.3018 -0.202519,0.068 -0.318851,0.1231 -0.532408,0.135 -0.148811,0.01 -0.232451,-0.01 -0.381262,-0.01 -0.04883,0 -0.07048,-0.036 -0.10317,-0.072 -0.02208,-0.024 -0.05562,-0.031 -0.05562,-0.063 0,-0.074 -0.07961,-0.1004 -0.07961,-0.1747 0,-0.017 0.01592,-0.023 0.01592,-0.04 0,-0.011 -0.01592,-0.013 -0.01592,-0.024 0,-0.013 0.0081,-0.019 0.0081,-0.032 0,-0.1919 0.126097,-0.2901 0.278092,-0.4054 0.09531,-0.071 0.157727,-0.11 0.270025,-0.151 0.04564,-0.016 0.06644,-0.048 0.115058,-0.048 z m -2.192468,0.3021 c 0.02271,0 0.03779,0 0.05944,0.01 -0.03948,0.01 -0.0605,0.032 -0.08725,0.064 l -0.03991,0 c -0.0017,-0.012 -0.0079,-0.019 -0.0079,-0.032 0,-0.033 0.04288,-0.039 0.07557,-0.039"
       inkscape:connector-curvature="0" />
    <path
       style="fill:#0066b3;fill-opacity:1;fill-rule:nonzero;stroke:none"
       id="path26"
       d="m 3.7519203,1010.6135 0.5505157,0 0.6141372,1.5056 0.4010041,-1.5056 0.550452,0 -0.6553202,2.4611 -0.5506643,0 -0.6141371,-1.5056 -0.4008768,1.5056 -0.5505157,0 0.6554051,-2.4611"
       inkscape:connector-curvature="0" />
    <path
       style="fill:#0066b3;fill-opacity:1;fill-rule:nonzero;stroke:none"
       id="path28"
       d="m 6.8613054,1011.86 c 0.181715,0 0.2836112,0.1683 0.2269314,0.3804 -0.055406,0.2088 -0.2468861,0.3771 -0.428601,0.3771 -0.1815027,0 -0.2855218,-0.1721 -0.2301157,-0.3806 0.055618,-0.2086 0.2470984,-0.3769 0.4317853,-0.3769 z m 0.4334836,-0.4542 -0.043306,0.1624 c -0.087249,-0.1514 -0.2065522,-0.2178 -0.3914514,-0.2178 -0.4105569,0 -0.8274824,0.384 -0.9612212,0.8865 -0.1326774,0.4988 0.080668,0.89 0.4912248,0.89 0.194452,0 0.354514,-0.074 0.5101181,-0.2399 l -0.04925,0.1845 0.5105426,0 0.443461,-1.6657 -0.5101181,0"
       inkscape:connector-curvature="0" />
    <path
       style="fill:#0066b3;fill-opacity:1;fill-rule:nonzero;stroke:none"
       id="path30"
       d="m 9.0240532,1010.3667 -0.3313751,1.2448 c 0.1865975,-0.1849 0.32161,-0.2478 0.5355921,-0.2478 0.1721622,0 0.2925272,0.063 0.3621563,0.1849 0.070478,0.1183 0.071964,0.2329 0.010826,0.4623 l -0.2831866,1.0637 -0.5103304,0 0.2250209,-0.8456 c 0.045429,-0.1702 0.05116,-0.2034 0.03906,-0.2662 -0.011251,-0.078 -0.080668,-0.1294 -0.1700393,-0.1294 -0.083003,0 -0.1736482,0.041 -0.2434896,0.1109 -0.05392,0.059 -0.086824,0.122 -0.1163315,0.2329 l -0.2388193,0.8974 -0.5103304,0 0.7209159,-2.7079 0.5103304,0"
       inkscape:connector-curvature="0" />
    <path
       style="fill:#0066b3;fill-opacity:1;fill-rule:nonzero;stroke:none"
       id="path32"
       d="m 10.714045,1012.2591 0.578686,-0.8563 0.571043,0 -1.197918,1.6718 -0.341352,0 -0.301019,-1.6718 0.574016,0 0.116544,0.8563"
       inkscape:connector-curvature="0" />
    <path
       style="fill:#0066b3;fill-opacity:1;fill-rule:nonzero;stroke:none"
       id="path34"
       d="m 12.368161,1012.0005 c 0.07409,-0.1712 0.201245,-0.2659 0.367251,-0.2659 0.143503,0 0.227992,0.1019 0.219289,0.2659 l -0.58654,0 z m 0.970349,0.3437 0.02059,-0.078 c 0.149661,-0.5614 -0.0605,-0.91 -0.545144,-0.91 -0.494409,0 -0.895838,0.345 -1.042314,0.8953 -0.144353,0.5417 0.09171,0.8887 0.602037,0.8887 0.245825,0 0.5029,-0.1034 0.67761,-0.2807 0.08215,-0.081 0.133951,-0.155 0.206552,-0.2964 l -0.491225,0 c -0.09447,0.1152 -0.170039,0.1598 -0.288069,0.1598 -0.210585,0 -0.280002,-0.1225 -0.214831,-0.379 l 1.074793,0"
       inkscape:connector-curvature="0" />
    <path
       style="fill:#0066b3;fill-opacity:1;fill-rule:nonzero;stroke:none"
       id="path36"
       d="m 14.475502,1011.4056 -0.0726,0.2732 c 0.174073,-0.2104 0.33371,-0.2953 0.553636,-0.2953 0.03524,0 0.04798,0 0.09808,0 l -0.15051,0.5649 c -0.07005,-0.048 -0.115058,-0.059 -0.201033,-0.059 -0.239243,0 -0.399305,0.1582 -0.481672,0.4677 l -0.190206,0.7138 -0.51033,0 0.44431,-1.669 0.51033,0"
       inkscape:connector-curvature="0" />
    <path
       style="fill:#0066b3;fill-opacity:1;fill-rule:nonzero;stroke:none"
       id="path38"
       d="m 15.716301,1012.0047 0.695867,-0.6021 0.698626,0 -0.929591,0.7719 0.529011,0.9001 -0.717731,0 -0.380625,-0.6785 -0.180654,0.6785 -0.510118,0 0.720279,-2.7058 0.51033,0 -0.435394,1.6359"
       inkscape:connector-curvature="0" />
    <path
       style="fill:#0066b3;fill-opacity:1;fill-rule:nonzero;stroke:none"
       id="path40"
       d="m 17.645961,1012.0005 c 0.0743,-0.1712 0.20167,-0.2659 0.367464,-0.2659 0.143716,0 0.227993,0.1019 0.219501,0.2659 l -0.586965,0 z m 0.970562,0.3437 0.02059,-0.078 c 0.149447,-0.5614 -0.0605,-0.91 -0.545358,-0.91 -0.494196,0 -0.895625,0.345 -1.042313,0.8953 -0.144141,0.5417 0.09192,0.8887 0.602249,0.8887 0.245612,0 0.5029,-0.1034 0.67761,-0.2807 0.08215,-0.081 0.133739,-0.155 0.206552,-0.2964 l -0.491225,0 c -0.09425,0.1152 -0.170039,0.1598 -0.288069,0.1598 -0.210585,0 -0.280002,-0.1225 -0.214831,-0.379 l 1.074793,0"
       inkscape:connector-curvature="0" />
    <path
       style="fill:#0066b3;fill-opacity:1;fill-rule:nonzero;stroke:none"
       id="path42"
       d="m 20.030121,1010.3667 -0.331375,1.2448 c 0.186598,-0.1849 0.321398,-0.2478 0.535592,-0.2478 0.172375,0 0.29274,0.063 0.362156,0.1849 0.07048,0.1183 0.07196,0.2329 0.01104,0.4623 l -0.283399,1.0637 -0.51033,0 0.225233,-0.8456 c 0.04522,-0.1702 0.05095,-0.2034 0.03885,-0.2662 -0.01125,-0.078 -0.08046,-0.1294 -0.169827,-0.1294 -0.08321,0 -0.173861,0.041 -0.24349,0.1109 -0.05434,0.059 -0.08682,0.122 -0.116543,0.2329 l -0.23882,0.8974 -0.51033,0 0.721128,-2.7079 0.510118,0"
       inkscape:connector-curvature="0" />
    <path
       style="fill:#0066b3;fill-opacity:1;fill-rule:nonzero;stroke:none"
       id="path44"
       d="m 21.711834,1011.4056 -0.07281,0.2732 c 0.174285,-0.2104 0.333923,-0.2953 0.553849,-0.2953 0.03524,0 0.04798,0 0.09807,0 l -0.150509,0.5649 c -0.07005,-0.048 -0.115058,-0.059 -0.201245,-0.059 -0.239032,0 -0.399306,0.1582 -0.481672,0.4677 l -0.189994,0.7138 -0.510331,0 0.44431,-1.669 0.510331,0"
       inkscape:connector-curvature="0" />
    <path
       style="fill:#0066b3;fill-opacity:1;fill-rule:nonzero;stroke:none"
       id="path46"
       d="m 23.442796,1011.8347 c -0.08024,-0.055 -0.165369,-0.081 -0.254104,-0.081 -0.09383,0 -0.171525,0.048 -0.191055,0.1214 -0.01168,0.044 0.0087,0.077 0.06114,0.099 0.01762,0.01 0.0329,0.011 0.133314,0.041 0.270662,0.066 0.358335,0.2246 0.285946,0.4972 -0.09998,0.3752 -0.435182,0.6219 -0.854018,0.6219 -0.201032,0 -0.372345,-0.063 -0.526464,-0.1913 l 0.295924,-0.4159 c 0.106354,0.103 0.245188,0.1694 0.363218,0.1694 0.09362,0 0.17662,-0.055 0.19615,-0.129 0.02271,-0.085 -0.0096,-0.1105 -0.178106,-0.1546 -0.292952,-0.074 -0.371285,-0.1988 -0.298896,-0.4714 0.04246,-0.1583 0.145202,-0.3171 0.271511,-0.4204 0.14308,-0.1183 0.318426,-0.1773 0.534743,-0.1773 0.174285,0 0.296349,0.029 0.434333,0.107 l -0.273634,0.3839"
       inkscape:connector-curvature="0" />
    <path
       style="fill:#0066b3;fill-opacity:1;fill-rule:nonzero;stroke:none"
       id="path48"
       d="m 24.799714,1011.854 c 0.181503,0 0.282975,0.1689 0.227144,0.3783 -0.05583,0.2094 -0.247098,0.3786 -0.428601,0.3786 -0.181715,0 -0.282974,-0.1692 -0.227144,-0.3786 0.05562,-0.2094 0.247099,-0.3783 0.428601,-0.3783 z m 0.932563,-0.4497 -0.51033,0 -0.04607,0.1732 c -0.07897,-0.1586 -0.186385,-0.221 -0.371072,-0.221 -0.416713,0 -0.835337,0.3904 -0.972472,0.9053 -0.131404,0.4933 0.06729,0.8454 0.477639,0.8454 0.191055,0 0.320548,-0.056 0.516699,-0.2186 l -0.0414,0.1555 c -0.06687,0.2509 -0.231177,0.402 -0.438366,0.402 -0.127158,0 -0.192117,-0.055 -0.196575,-0.1696 l -0.572317,0 c -0.01592,0.1437 -0.0013,0.232 0.06368,0.3462 0.108053,0.2024 0.293376,0.2944 0.586328,0.2944 0.273846,0 0.510967,-0.088 0.712,-0.2687 0.195938,-0.1731 0.283824,-0.335 0.37829,-0.6895 l 0.413953,-1.5546"
       inkscape:connector-curvature="0" />
    <path
       style="fill:#0066b3;fill-opacity:1;fill-rule:nonzero;stroke:none"
       id="path50"
       d="m 26.515817,1012.0005 c 0.07451,-0.1712 0.20167,-0.2659 0.367676,-0.2659 0.143291,0 0.22778,0.1019 0.219289,0.2659 l -0.586965,0 z m 0.970562,0.3437 0.0208,-0.078 c 0.149447,-0.5614 -0.06071,-0.91 -0.545358,-0.91 -0.494409,0 -0.895837,0.345 -1.042313,0.8953 -0.144353,0.5417 0.09171,0.8887 0.602037,0.8887 0.245824,0 0.5029,-0.1034 0.67761,-0.2807 0.08237,-0.081 0.133739,-0.155 0.206552,-0.2964 l -0.491225,0 c -0.09447,0.1152 -0.170039,0.1598 -0.288069,0.1598 -0.210586,0 -0.280002,-0.1225 -0.214831,-0.379 l 1.074793,0"
       inkscape:connector-curvature="0" />
    <path
       style="fill:#0066b3;fill-opacity:1;fill-rule:nonzero;stroke:none"
       id="path52"
       d="m 28.963662,1011.8347 c -0.08046,-0.055 -0.165369,-0.081 -0.254316,-0.081 -0.09362,0 -0.171313,0.048 -0.190843,0.1214 -0.01189,0.044 0.0085,0.077 0.06114,0.099 0.01762,0.01 0.0329,0.011 0.133101,0.041 0.270875,0.066 0.35876,0.2246 0.286159,0.4972 -0.09999,0.3752 -0.435182,0.6219 -0.854018,0.6219 -0.201033,0 -0.372558,-0.063 -0.526464,-0.1913 l 0.295924,-0.4159 c 0.106354,0.103 0.245188,0.1694 0.363005,0.1694 0.09383,0 0.176833,-0.055 0.196363,-0.129 0.0225,-0.085 -0.0096,-0.1105 -0.178106,-0.1546 -0.292952,-0.074 -0.371285,-0.1988 -0.298684,-0.4714 0.04203,-0.1583 0.14499,-0.3171 0.271299,-0.4204 0.143292,-0.1183 0.318426,-0.1773 0.534531,-0.1773 0.174285,0 0.29656,0.029 0.434333,0.107 l -0.273422,0.3839"
       inkscape:connector-curvature="0" />
    <path
       style="fill:#0066b3;fill-opacity:1;fill-rule:nonzero;stroke:none"
       id="path54"
       d="m 29.947598,1012.0005 c 0.0743,-0.1712 0.201669,-0.2659 0.367675,-0.2659 0.143292,0 0.227781,0.1019 0.219289,0.2659 l -0.586964,0 z m 0.970561,0.3437 0.0208,-0.078 c 0.149448,-0.5614 -0.06071,-0.91 -0.545357,-0.91 -0.494409,0 -0.895838,0.345 -1.042314,0.8953 -0.144353,0.5417 0.09192,0.8887 0.602037,0.8887 0.245825,0 0.502901,-0.1034 0.67761,-0.2807 0.08237,-0.081 0.133739,-0.155 0.206552,-0.2964 l -0.491224,0 c -0.09447,0.1152 -0.17004,0.1598 -0.28807,0.1598 -0.210585,0 -0.280002,-0.1225 -0.215043,-0.379 l 1.075005,0"
       inkscape:connector-curvature="0" />
    <path
       style="fill:#0066b3;fill-opacity:1;fill-rule:nonzero;stroke:none"
       id="path56"
       d="m 31.610841,1013.0746 -0.51033,0 0.720491,-2.7058 0.510331,0 -0.720492,2.7058"
       inkscape:connector-curvature="0" />
    <path
       style="fill:#0066b3;fill-opacity:1;fill-rule:nonzero;stroke:none"
       id="path58"
       d="m 32.554868,1013.0746 -0.510331,0 0.720704,-2.7058 0.510118,0 -0.720491,2.7058"
       inkscape:connector-curvature="0" />
    <path
       style="fill:#0066b3;fill-opacity:1;fill-rule:nonzero;stroke:none"
       id="path60"
       d="m 34.283495,1011.8347 c -0.08046,-0.055 -0.165369,-0.081 -0.254104,-0.081 -0.09383,0 -0.171525,0.048 -0.191055,0.1214 -0.01168,0.044 0.0087,0.077 0.06114,0.099 0.01762,0.01 0.0329,0.011 0.133102,0.041 0.270874,0.066 0.358547,0.2246 0.285946,0.4972 -0.09977,0.3752 -0.43497,0.6219 -0.853806,0.6219 -0.201033,0 -0.372346,-0.063 -0.526251,-0.1913 l 0.295711,-0.4159 c 0.106566,0.103 0.244976,0.1694 0.363218,0.1694 0.09362,0 0.17662,-0.055 0.19615,-0.129 0.02271,-0.085 -0.0096,-0.1105 -0.178106,-0.1546 -0.292952,-0.074 -0.371285,-0.1988 -0.298684,-0.4714 0.04203,-0.1583 0.14499,-0.3171 0.271511,-0.4204 0.14308,-0.1183 0.318214,-0.1773 0.534319,-0.1773 0.174497,0 0.29656,0.029 0.434333,0.107 l -0.273422,0.3839"
       inkscape:connector-curvature="0" />
    <path
       style="fill:#0066b3;fill-opacity:1;fill-rule:nonzero;stroke:none"
       id="path62"
       d="m 35.904707,1011.9412 c -0.07812,-0.078 -0.143716,-0.1071 -0.236272,-0.1071 -0.200821,0 -0.396122,0.17 -0.457047,0.3992 -0.06496,0.2438 0.03418,0.4103 0.247947,0.4103 0.09256,0 0.185112,-0.037 0.287645,-0.1109 l -0.133527,0.5023 c -0.148598,0.067 -0.254316,0.092 -0.38487,0.092 -0.242428,0 -0.448768,-0.1329 -0.541112,-0.3471 -0.0622,-0.1478 -0.06475,-0.3288 -0.01083,-0.5321 0.138621,-0.5205 0.579322,-0.8984 1.047408,-0.8984 0.127583,0 0.21653,0.025 0.313756,0.092 l -0.133102,0.4998"
       inkscape:connector-curvature="0" />
    <path
       style="fill:#0066b3;fill-opacity:1;fill-rule:nonzero;stroke:none"
       id="path64"
       d="m 37.278395,1010.3667 -0.331375,1.2448 c 0.18681,-0.1849 0.321398,-0.2478 0.535592,-0.2478 0.172375,0 0.29274,0.063 0.362369,0.1849 0.07027,0.1183 0.07175,0.2329 0.01083,0.4623 l -0.283398,1.0637 -0.510331,0 0.225233,-0.8456 c 0.04522,-0.1702 0.05095,-0.2034 0.03885,-0.2662 -0.01125,-0.078 -0.08045,-0.1294 -0.170039,-0.1294 -0.083,0 -0.173436,0.041 -0.243277,0.1109 -0.05413,0.059 -0.08682,0.122 -0.116544,0.2329 l -0.238819,0.8974 -0.510331,0 0.721128,-2.7079 0.510118,0"
       inkscape:connector-curvature="0" />
    <path
       style="fill:#0066b3;fill-opacity:1;fill-rule:nonzero;stroke:none"
       id="path66"
       d="m 39.137577,1011.86 c 0.181928,0 0.283399,0.1683 0.226932,0.3804 -0.05541,0.2088 -0.247099,0.3771 -0.428601,0.3771 -0.181503,0 -0.285522,-0.1721 -0.230116,-0.3806 0.05562,-0.2086 0.247098,-0.3769 0.431785,-0.3769 z m 0.433272,-0.4542 -0.04309,0.1624 c -0.08725,-0.1514 -0.206552,-0.2178 -0.391451,-0.2178 -0.410345,0 -0.827483,0.384 -0.961222,0.8865 -0.132677,0.4988 0.08067,0.89 0.491225,0.89 0.194452,0 0.354302,-0.074 0.510118,-0.2399 l -0.04925,0.1845 0.510543,0 0.443461,-1.6657 -0.51033,0"
       inkscape:connector-curvature="0" />
    <path
       style="fill:#0066b3;fill-opacity:1;fill-rule:nonzero;stroke:none"
       id="path68"
       d="m 40.625687,1013.0746 -0.51033,0 0.314392,-1.1808 -0.181715,0 0.130767,-0.491 0.181927,0 0.06814,-0.2564 c 0.07515,-0.2826 0.159213,-0.4303 0.32713,-0.5817 0.167916,-0.1516 0.359608,-0.2363 0.534955,-0.2363 0.08598,0 0.133314,0.015 0.209736,0.063 l -0.136923,0.5135 c -0.0709,-0.045 -0.108477,-0.06 -0.162609,-0.06 -0.06687,0 -0.153269,0.049 -0.192329,0.1117 -0.02696,0.041 -0.045,0.097 -0.08152,0.2342 l -0.05626,0.2118 0.360245,0 -0.130554,0.491 -0.360671,0 -0.314392,1.1808"
       inkscape:connector-curvature="0" />
    <path
       style="fill:#0066b3;fill-opacity:1;fill-rule:nonzero;stroke:none"
       id="path70"
       d="m 41.91149,1013.0746 -0.51033,0 0.314605,-1.1808 -0.169191,0 0.130767,-0.491 0.168978,0 0.133951,-0.5023 0.510331,0 -0.133952,0.5023 0.290405,0 -0.130767,0.491 -0.290404,0 -0.314393,1.1808"
       inkscape:connector-curvature="0" />
    <path
       style="fill:#0066b3;fill-opacity:1;fill-rule:nonzero;stroke:none"
       id="path72"
       d="m 44.357637,1011.5826 0.129068,-0.4848 0.101472,0 c 0.168129,0 0.234149,0.085 0.192754,0.2405 -0.04225,0.1592 -0.153694,0.2443 -0.321822,0.2443 l -0.101472,0 z m -0.94806,1.492 0.886073,0 c 0.458958,0 0.803282,-0.2653 0.921524,-0.7086 0.04713,-0.1777 0.03927,-0.3514 -0.01677,-0.4511 -0.04861,-0.081 -0.112086,-0.1182 -0.255802,-0.1514 0.191267,-0.1147 0.297197,-0.2624 0.363217,-0.5103 0.110813,-0.4161 -0.03885,-0.6397 -0.425629,-0.6397 l -0.81708,0 -0.655533,2.4611 z m 0.683342,-0.4975 0.137772,-0.5181 0.111025,0 c 0.180653,0 0.226294,0.01 0.27979,0.044 0.05902,0.041 0.07579,0.1221 0.0501,0.2183 -0.02356,0.089 -0.09425,0.1739 -0.167917,0.2108 -0.06857,0.03 -0.16176,0.045 -0.289555,0.045 l -0.121214,0"
       inkscape:connector-curvature="0" />
    <path
       style="fill:#0066b3;fill-opacity:1;fill-rule:nonzero;stroke:none"
       id="path74"
       d="m 46.546496,1011.86 c 0.181502,0 0.283399,0.1683 0.226719,0.3804 -0.05562,0.2088 -0.246886,0.3771 -0.428601,0.3771 -0.181715,0 -0.285522,-0.1721 -0.230116,-0.3806 0.05562,-0.2086 0.246886,-0.3769 0.431998,-0.3769 z m 0.433271,-0.4542 -0.04352,0.1624 c -0.08704,-0.1514 -0.20634,-0.2178 -0.391239,-0.2178 -0.410557,0 -0.827483,0.384 -0.961222,0.8865 -0.132889,0.4988 0.08067,0.89 0.491225,0.89 0.194452,0 0.354302,-0.074 0.510118,-0.2399 l -0.04904,0.1845 0.510118,0 0.443673,-1.6657 -0.510118,0"
       inkscape:connector-curvature="0" />
    <path
       style="fill:#0066b3;fill-opacity:1;fill-rule:nonzero;stroke:none"
       id="path76"
       d="m 48.609895,1011.86 c 0.181714,0 0.283398,0.1683 0.226931,0.3804 -0.05562,0.2088 -0.247098,0.3771 -0.428601,0.3771 -0.181715,0 -0.285734,-0.1721 -0.230116,-0.3806 0.05562,-0.2086 0.246886,-0.3769 0.431786,-0.3769 z m 0.708603,-1.488 -0.318638,1.1962 c -0.08725,-0.1514 -0.20634,-0.2178 -0.391451,-0.2178 -0.410345,0 -0.827271,0.384 -0.961009,0.8865 -0.13289,0.4988 0.08067,0.89 0.491224,0.89 0.194452,0 0.35409,-0.074 0.510118,-0.2399 l -0.04925,0.1845 0.51033,0 0.718793,-2.6995 -0.510118,0"
       inkscape:connector-curvature="0" />
    <path
       style="fill:#0066b3;fill-opacity:1;fill-rule:nonzero;stroke:none"
       id="path78"
       d="m 50.298612,1012.0005 c 0.07451,-0.1712 0.20167,-0.2659 0.367676,-0.2659 0.143504,0 0.227993,0.1019 0.219289,0.2659 l -0.586965,0 z m 0.970774,0.3437 0.02059,-0.078 c 0.149448,-0.5614 -0.06071,-0.91 -0.545357,-0.91 -0.494409,0 -0.895838,0.345 -1.042314,0.8953 -0.144141,0.5417 0.09171,0.8887 0.602249,0.8887 0.245613,0 0.502689,-0.1034 0.677398,-0.2807 0.08237,-0.081 0.133951,-0.155 0.206765,-0.2964 l -0.491437,0 c -0.09426,0.1152 -0.17004,0.1598 -0.28807,0.1598 -0.210373,0 -0.280002,-0.1225 -0.214831,-0.379 l 1.075005,0"
       inkscape:connector-curvature="0" />
    <path
       style="fill:#0066b3;fill-opacity:1;fill-rule:nonzero;stroke:none"
       id="path80"
       d="m 52.407652,1011.4007 -0.05626,0.2108 c 0.18681,-0.1849 0.32161,-0.2478 0.535805,-0.2478 0.172162,0 0.292527,0.063 0.362156,0.1849 0.07048,0.1183 0.07196,0.2329 0.01061,0.4623 l -0.282974,1.0637 -0.510543,0 0.225233,-0.8456 c 0.04543,-0.1702 0.05095,-0.2034 0.03885,-0.2662 -0.01104,-0.078 -0.08046,-0.1294 -0.169827,-0.1294 -0.083,0 -0.173648,0.041 -0.243489,0.1109 -0.05413,0.059 -0.08682,0.122 -0.116332,0.2329 l -0.239032,0.8974 -0.51033,0 0.446008,-1.6739 0.510118,0"
       inkscape:connector-curvature="0" />
    <path
       style="fill:#0066b3;fill-opacity:1;fill-rule:nonzero;stroke:none"
       id="path82"
       d="m 54.34453,1011.9535 -0.130767,0.4909 -0.808164,0 0.130554,-0.4909 0.808377,0"
       inkscape:connector-curvature="0" />
    <path
       style="fill:#0066b3;fill-opacity:1;fill-rule:nonzero;stroke:none"
       id="path84"
       d="m 55.363917,1012.2039 0.873124,-1.5904 0.440064,0 -0.0055,1.5904 0.825147,-1.5904 0.577412,0 -1.334841,2.4611 -0.564463,0 -0.0066,-1.4245 -0.787573,1.4245 -0.561279,0 0.02059,-2.4611 0.577412,0 -0.0535,1.5904"
       inkscape:connector-curvature="0" />
    <path
       style="fill:#0066b3;fill-opacity:1;fill-rule:nonzero;stroke:none"
       id="path86"
       d="m 58.380895,1012.3503 c -0.05413,0.2029 0.0051,0.3064 0.18214,0.3064 0.173648,0 0.288069,-0.1035 0.342201,-0.3064 l 0.252406,-0.9475 0.51033,0 -0.282762,1.0619 c -0.117605,0.4414 -0.447919,0.6762 -0.951032,0.6762 -0.506297,0 -0.711787,-0.2348 -0.594182,-0.6762 l 0.282762,-1.0619 0.51033,0 -0.252193,0.9475 z m 0.583993,-1.5264 c -0.04713,0.1766 -0.209949,0.3203 -0.359609,0.3203 -0.152844,0 -0.238607,-0.1437 -0.19148,-0.3203 0.04607,-0.1732 0.208463,-0.3165 0.361095,-0.3165 0.14966,0 0.23606,0.1433 0.189994,0.3165 z m 0.723039,0 c -0.04713,0.1766 -0.209737,0.3203 -0.359609,0.3203 -0.152632,0 -0.238607,-0.1437 -0.19148,-0.3203 0.04607,-0.1732 0.208675,-0.3165 0.361095,-0.3165 0.14966,0 0.236059,0.1433 0.189994,0.3165"
       inkscape:connector-curvature="0" />
    <path
       style="fill:#0066b3;fill-opacity:1;fill-rule:nonzero;stroke:none"
       id="path88"
       d="m 60.606479,1011.4056 -0.07281,0.2732 c 0.174072,-0.2104 0.333922,-0.2953 0.55406,-0.2953 0.03503,0 0.04776,0 0.09765,0 l -0.150297,0.5649 c -0.07027,-0.048 -0.115058,-0.059 -0.201245,-0.059 -0.239244,0 -0.399306,0.1582 -0.481672,0.4677 l -0.190206,0.7138 -0.510119,0 0.444523,-1.669 0.510118,0"
       inkscape:connector-curvature="0" />
    <path
       style="fill:#0066b3;fill-opacity:1;fill-rule:nonzero;stroke:none"
       id="path90"
       d="m 61.68297,1013.0746 -0.51033,0 0.314392,-1.1808 -0.168765,0 0.130554,-0.491 0.16919,0 0.133739,-0.5023 0.510118,0 -0.133739,0.5023 0.290192,0 -0.130554,0.491 -0.290192,0 -0.314605,1.1808"
       inkscape:connector-curvature="0" />
    <path
       style="fill:#0066b3;fill-opacity:1;fill-rule:nonzero;stroke:none"
       id="path92"
       d="m 62.821661,1013.0746 -0.510543,0 0.314605,-1.1808 -0.168978,0 0.130554,-0.491 0.169191,0 0.133738,-0.5023 0.510331,0 -0.133739,0.5023 0.290192,0 -0.130767,0.491 -0.290192,0 -0.314392,1.1808"
       inkscape:connector-curvature="0" />
    <path
       style="fill:#0066b3;fill-opacity:1;fill-rule:nonzero;stroke:none"
       id="path94"
       d="m 64.17306,1012.0005 c 0.07409,-0.1712 0.201457,-0.2659 0.367251,-0.2659 0.143716,0 0.227993,0.1019 0.219501,0.2659 l -0.586752,0 z m 0.970561,0.3437 0.02059,-0.078 c 0.14966,-0.5614 -0.0605,-0.91 -0.545357,-0.91 -0.494409,0 -0.895626,0.345 -1.042314,0.8953 -0.144353,0.5417 0.09192,0.8887 0.602249,0.8887 0.245613,0 0.502688,-0.1034 0.677398,-0.2807 0.08237,-0.081 0.133951,-0.155 0.206552,-0.2964 l -0.491012,0 c -0.09468,0.1152 -0.170252,0.1598 -0.288282,0.1598 -0.210373,0 -0.27979,-0.1225 -0.214619,-0.379 l 1.074793,0"
       inkscape:connector-curvature="0" />
    <path
       style="fill:#0066b3;fill-opacity:1;fill-rule:nonzero;stroke:none"
       id="path96"
       d="m 66.281463,1011.402 -0.05456,0.2057 c 0.195301,-0.169 0.340291,-0.2314 0.529436,-0.2314 0.226294,0 0.351754,0.092 0.408646,0.3088 0.169827,-0.2074 0.360883,-0.3148 0.574228,-0.3148 0.168766,0 0.305689,0.085 0.347933,0.2259 0.02972,0.093 0.02271,0.2149 -0.02463,0.3925 l -0.28913,1.0859 -0.510543,0 0.220138,-0.8272 c 0.04543,-0.17 0.0501,-0.1996 0.04246,-0.2661 -0.0072,-0.093 -0.06241,-0.1479 -0.145202,-0.1479 -0.08598,0 -0.18872,0.063 -0.25092,0.1539 -0.04246,0.063 -0.07048,0.1333 -0.104231,0.2591 l -0.220351,0.8282 -0.51033,0 0.220563,-0.8282 c 0.04734,-0.1777 0.05201,-0.2073 0.0484,-0.2666 -0.004,-0.092 -0.07281,-0.159 -0.159213,-0.159 -0.07706,0 -0.183626,0.063 -0.236272,0.1406 -0.04139,0.059 -0.07175,0.137 -0.111237,0.285 l -0.22035,0.8282 -0.510543,0 0.445584,-1.6726 0.510118,0"
       inkscape:connector-curvature="0" />
    <path
       style="fill:#0066b3;fill-opacity:1;fill-rule:nonzero;stroke:none"
       id="path98"
       d="m 69.361489,1011.86 c 0.183626,0 0.287008,0.1683 0.231389,0.3769 -0.05668,0.2123 -0.249433,0.3806 -0.433059,0.3806 -0.183413,0 -0.289767,-0.1683 -0.234361,-0.3771 0.05668,-0.2121 0.249434,-0.3804 0.436031,-0.3804 z m 0.07748,-1.488 -0.510118,0 -0.719006,2.6995 0.510331,0 0.04925,-0.1845 c 0.06836,0.166 0.190419,0.2399 0.386569,0.2399 0.412892,0 0.8347,-0.3912 0.96759,-0.89 0.133739,-0.5025 -0.07854,-0.8865 -0.491013,-0.8865 -0.186597,0 -0.34305,0.066 -0.512028,0.2178 l 0.318426,-1.1962"
       inkscape:connector-curvature="0" />
    <path
       style="fill:#0066b3;fill-opacity:1;fill-rule:nonzero;stroke:none"
       id="path100"
       d="m 71.030252,1012.0005 c 0.0743,-0.1712 0.20167,-0.2659 0.367464,-0.2659 0.143503,0 0.227992,0.1019 0.219289,0.2659 l -0.586753,0 z m 0.970562,0.3437 0.02059,-0.078 c 0.14966,-0.5614 -0.06071,-0.91 -0.545358,-0.91 -0.494409,0 -0.895625,0.345 -1.042101,0.8953 -0.144353,0.5417 0.09192,0.8887 0.602037,0.8887 0.245612,0 0.502688,-0.1034 0.67761,-0.2807 0.08215,-0.081 0.133739,-0.155 0.206552,-0.2964 l -0.491437,0 c -0.09425,0.1152 -0.169827,0.1598 -0.288069,0.1598 -0.210373,0 -0.27979,-0.1225 -0.214831,-0.379 l 1.075005,0"
       inkscape:connector-curvature="0" />
    <path
       style="fill:#0066b3;fill-opacity:1;fill-rule:nonzero;stroke:none"
       id="path102"
       d="m 73.137806,1011.4056 -0.07281,0.2732 c 0.174073,-0.2104 0.333922,-0.2953 0.554061,-0.2953 0.03503,0 0.04755,0 0.09786,0 l -0.15051,0.5649 c -0.07005,-0.048 -0.115058,-0.059 -0.201032,-0.059 -0.239244,0 -0.399519,0.1582 -0.481885,0.4677 l -0.190206,0.7138 -0.51033,0 0.444522,-1.669 0.51033,0"
       inkscape:connector-curvature="0" />
    <path
       style="fill:#0066b3;fill-opacity:1;fill-rule:nonzero;stroke:none"
       id="path104"
       d="m 74.726114,1011.854 c 0.18129,0 0.282974,0.1689 0.227144,0.3783 -0.05583,0.2094 -0.247311,0.3786 -0.428814,0.3786 -0.181502,0 -0.282974,-0.1692 -0.227143,-0.3786 0.05583,-0.2094 0.247098,-0.3783 0.428813,-0.3783 z m 0.932351,-0.4497 -0.510119,0 -0.04628,0.1732 c -0.07876,-0.1586 -0.186386,-0.221 -0.37086,-0.221 -0.416713,0 -0.835549,0.3904 -0.972473,0.9053 -0.131403,0.4933 0.06708,0.8454 0.477427,0.8454 0.191055,0 0.320548,-0.056 0.516911,-0.2186 l -0.04161,0.1555 c -0.06666,0.2509 -0.231177,0.402 -0.438153,0.402 -0.127371,0 -0.192117,-0.055 -0.196788,-0.1696 l -0.572105,0 c -0.01592,0.1437 -0.0015,0.232 0.06347,0.3462 0.108053,0.2024 0.293377,0.2944 0.586328,0.2944 0.273846,0 0.51118,-0.088 0.712213,-0.2687 0.195938,-0.1731 0.283823,-0.335 0.378077,-0.6895 l 0.413954,-1.5546"
       inkscape:connector-curvature="0" />
    <path
       style="fill:#0066b3;fill-opacity:1;fill-rule:nonzero;stroke:none"
       id="path106"
       d="m 77.488564,1011.402 -0.05456,0.2057 c 0.195513,-0.169 0.340291,-0.2314 0.529435,-0.2314 0.226295,0 0.351755,0.092 0.408859,0.3088 0.169827,-0.2074 0.360883,-0.3148 0.574016,-0.3148 0.168978,0 0.305688,0.085 0.347933,0.2259 0.02972,0.093 0.02271,0.2149 -0.02463,0.3925 l -0.289131,1.0859 -0.510542,0 0.22035,-0.8272 c 0.04522,-0.17 0.0501,-0.1996 0.04246,-0.2661 -0.0072,-0.093 -0.06262,-0.1479 -0.145414,-0.1479 -0.08576,0 -0.188508,0.063 -0.251132,0.1539 -0.04203,0.063 -0.07048,0.1333 -0.103807,0.2591 l -0.220563,0.8282 -0.51033,0 0.220563,-0.8282 c 0.04734,-0.1777 0.05201,-0.2073 0.0484,-0.2666 -0.004,-0.092 -0.07281,-0.159 -0.159425,-0.159 -0.07685,0 -0.183413,0.063 -0.236059,0.1406 -0.0414,0.059 -0.07175,0.137 -0.111025,0.285 l -0.220563,0.8282 -0.510542,0 0.445583,-1.6726 0.510119,0"
       inkscape:connector-curvature="0" />
    <path
       style="fill:#0066b3;fill-opacity:1;fill-rule:nonzero;stroke:none"
       id="path108"
       d="m 80.568802,1011.86 c 0.183413,0 0.286796,0.1683 0.231177,0.3769 -0.05647,0.2123 -0.249433,0.3806 -0.432847,0.3806 -0.183625,0 -0.289979,-0.1683 -0.234573,-0.3771 0.05668,-0.2121 0.249433,-0.3804 0.436243,-0.3804 z m 0.07748,-1.488 -0.510331,0 -0.719005,2.6995 0.510543,0 0.04904,-0.1845 c 0.06836,0.166 0.190419,0.2399 0.386781,0.2399 0.41268,0 0.834488,-0.3912 0.967378,-0.89 0.133951,-0.5025 -0.07855,-0.8865 -0.491013,-0.8865 -0.186597,0 -0.342838,0.066 -0.512028,0.2178 l 0.318638,-1.1962"
       inkscape:connector-curvature="0" />
    <path
       style="fill:#0066b3;fill-opacity:1;fill-rule:nonzero;stroke:none"
       id="path110"
       d="m 83.288795,1011.562 0.252618,-0.9485 0.550664,0 -0.655533,2.4611 -0.550664,0 0.27045,-1.015 -0.802858,0 -0.270237,1.015 -0.550664,0 0.655532,-2.4611 0.550664,0 -0.25283,0.9485 0.802858,0"
       inkscape:connector-curvature="0" />
    <path
       style="fill:none;stroke:#0066b3;stroke-width:0.42456767;stroke-linecap:butt;stroke-linejoin:miter;stroke-miterlimit:4;stroke-dasharray:none;stroke-opacity:1"
       id="path112"
       d="m 48.528165,997.09785 -0.140744,6.33035 c 0.200184,-0.6598 3.064954,-6.33035 3.064954,-6.33035 l 3.378285,0 -6.19699,10.47725 -2.777309,0 -0.706481,-10.47725 3.378285,0 z m 9.141792,4.03125 0.398032,-1.51505 0.500777,0 c 0.540475,0 0.719855,0.22099 0.587177,0.72605 -0.128644,0.4893 -0.497381,0.789 -0.971835,0.789 l -0.514151,0 z m -1.934543,-4.03082 -2.752685,10.47892 4.511669,0 c 1.027666,0 2.030707,-0.36 2.681569,-0.955 0.559156,-0.5012 1.023845,-1.2527 1.210018,-1.9613 0.141381,-0.5382 0.140744,-1.0444 -0.01061,-1.4856 -0.133951,-0.4061 -0.366402,-0.6402 -0.921736,-0.9682 l 0.02059,-0.078 c 0.423506,-0.1875 0.616472,-0.3125 0.834488,-0.5312 0.403551,-0.4061 0.717095,-0.9894 0.899659,-1.68379 0.153056,-0.58293 0.136074,-1.1803 -0.04734,-1.65199 -0.301443,-0.7863 -1.124467,-1.16374 -2.549104,-1.16374 l -3.876515,0 z m 0.903055,7.95812 0.453014,-1.7248 0.698626,0 c 0.568496,0 0.837885,0.3322 0.700537,0.8544 -0.145415,0.5541 -0.571681,0.8704 -1.20556,0.8704 l -0.646617,0 z"
       inkscape:connector-curvature="0" />
    <path
       style="fill:none;stroke:#0066b3;stroke-width:0.42456767;stroke-linecap:round;stroke-linejoin:miter;stroke-miterlimit:4;stroke-dasharray:none;stroke-opacity:1"
       id="path122"
       d="m 68.691734,1006.8608 0.224171,-3.5583 c 0.03015,-0.4713 0.06432,-0.754 0.201882,-1.4293 l -0.106991,0 c -0.220563,0.7381 -0.33371,1.0682 -0.509057,1.4293 l -2.043656,4.2726 -2.750562,0 -0.372558,-10.47725 3.35175,0 -0.32904,4.96365 c -0.01274,0.2515 -0.05626,0.5186 -0.191693,1.2883 l 0.08024,0 c 0.293588,-0.8642 0.450254,-1.2567 0.693319,-1.7751 l 2.150647,-4.47685 2.483509,0 -0.226082,4.77535 c -0.0034,0.2668 -0.06241,0.644 -0.201033,1.4766 l 0.06687,0 c 0.272148,-0.8326 0.424568,-1.2098 0.641734,-1.6808 l 2.12199,-4.57115 3.364911,0 -6.036716,10.46605 15.695843,0.01"
       inkscape:connector-curvature="0" />
    <path
       style="fill:none;stroke:#0066b3;stroke-width:0.42456767;stroke-linecap:butt;stroke-linejoin:miter;stroke-miterlimit:4;stroke-dasharray:none;stroke-opacity:1"
       id="path124"
       d="m 35.883266,1006.7587 1.108334,-4.6416 c 0.07536,0.6284 1.38685,5.4977 1.38685,5.4977 l 3.097858,0 2.752048,-10.47704 -3.09807,0 c 0,0 -1.160556,4.77514 -1.245894,5.81194 l -1.464546,-5.81194 -3.097858,0 -2.798114,10.43584 -25.6534404,0 c 0,0 -2.7066189,0.1491 -3.7281076,-0.6763 -1.93709,-1.5656 -1.4859826,-3.0429 1.1323008,-6.0855 1.346941,-1.56542 2.2882075,-2.87076 3.6795158,-4.17503 1.1321097,-1.06142 5.4552704,-0.71731 8.0444964,-0.84489 2.189071,-0.10763 67.020131,-0.0881 75.487072,-0.076"
       inkscape:connector-curvature="0" />
    <path
       style="fill:#0066b3;fill-opacity:1;fill-rule:nonzero;stroke:none"
       id="path126"
       d="m 35.840809,1007.7895 0.736837,-3.0488 -0.36534,-0.2549 -0.794366,3.3103 0.422869,-0.01"
       inkscape:connector-curvature="0" />
    <path
       style="fill:#0066b3;fill-opacity:1;fill-rule:nonzero;stroke:none"
       id="path128"
       d="m 68.837573,1007.7895 0.119515,-2.0035 -0.38487,-0.1458 -0.145839,2.1493 0.411194,0"
       inkscape:connector-curvature="0" />
  </g>
</svg>
