<?xml version="1.0" encoding="UTF-8" standalone="no"?>
<!-- Created with Inkscape (http://www.inkscape.org/) -->

<svg
   xmlns:dc="http://purl.org/dc/elements/1.1/"
   xmlns:cc="http://creativecommons.org/ns#"
   xmlns:rdf="http://www.w3.org/1999/02/22-rdf-syntax-ns#"
   xmlns:svg="http://www.w3.org/2000/svg"
   xmlns="http://www.w3.org/2000/svg"
   xmlns:sodipodi="http://sodipodi.sourceforge.net/DTD/sodipodi-0.dtd"
   xmlns:inkscape="http://www.inkscape.org/namespaces/inkscape"
   width="96"
   height="96"
   viewBox="0 0 96.000001 96.000002"
   id="svg4136"
   version="1.1"
   inkscape:version="0.91 r13725"
   inkscape:export-filename="/home/master/network_mvg_logo.png"
   inkscape:export-xdpi="90"
   inkscape:export-ydpi="90"
   sodipodi:docname="network_ivb_logo.svg">
  <defs
     id="defs4138">
    <clipPath
       id="clipPath3470"
       clipPathUnits="userSpaceOnUse">
      <path
         inkscape:connector-curvature="0"
         id="path3472"
         d="m 0,0 937.559,0 0,841.89 L 0,841.89 0,0 Z" />
    </clipPath>
    <clipPath
       id="clipPath3506"
       clipPathUnits="userSpaceOnUse">
      <path
         inkscape:connector-curvature="0"
         id="path3508"
         d="m 1119.766,4.513 39.711,0 0,26.33 -39.711,0 0,-26.33 z" />
    </clipPath>
  </defs>
  <sodipodi:namedview
     id="base"
     pagecolor="#ffffff"
     bordercolor="#666666"
     borderopacity="1.0"
     inkscape:pageopacity="1"
     inkscape:pageshadow="2"
     inkscape:zoom="8.34"
     inkscape:cx="45.758116"
     inkscape:cy="47.30423"
     inkscape:document-units="px"
     inkscape:current-layer="layer1"
     showgrid="true"
     units="px"
     inkscape:window-width="1855"
     inkscape:window-height="1056"
     inkscape:window-x="65"
     inkscape:window-y="24"
     inkscape:window-maximized="1"
     showguides="false">
    <inkscape:grid
       type="xygrid"
       id="grid4856" />
  </sodipodi:namedview>
  <metadata
     id="metadata4141">
    <rdf:RDF>
      <cc:Work
         rdf:about="">
        <dc:format>image/svg+xml</dc:format>
        <dc:type
           rdf:resource="http://purl.org/dc/dcmitype/StillImage" />
        <dc:title></dc:title>
        <cc:license
           rdf:resource="http://creativecommons.org/publicdomain/zero/1.0/" />
      </cc:Work>
      <cc:License
         rdf:about="http://creativecommons.org/publicdomain/zero/1.0/">
        <cc:permits
           rdf:resource="http://creativecommons.org/ns#Reproduction" />
        <cc:permits
           rdf:resource="http://creativecommons.org/ns#Distribution" />
        <cc:permits
           rdf:resource="http://creativecommons.org/ns#DerivativeWorks" />
      </cc:License>
    </rdf:RDF>
  </metadata>
  <g
     inkscape:label="Ebene 1"
     inkscape:groupmode="layer"
     id="layer1"
     transform="translate(0,-956.36216)">
    <rect
       style="fill:#ffffff;fill-opacity:1;stroke:#01ffff;stroke-width:0;stroke-linecap:butt;stroke-linejoin:miter;stroke-miterlimit:0;stroke-dasharray:none;stroke-opacity:1"
       id="rect4267"
       width="95.999954"
       height="95.999969"
       x="2.3284263e-05"
       y="956.36218" />
    <path
       id="path2550"
       style="fill:#918f90;fill-opacity:1;fill-rule:nonzero;stroke:none"
       d="m 7.9711163,958.4774 c -3.1340274,0 -5.6995431,2.56733 -5.6995431,5.70679 l 0,80.29521 c 0,3.1376 2.5655157,5.7068 5.6995431,5.7068 l 80.2951687,0 c 3.141267,0 5.70679,-2.5692 5.70679,-5.7068 l 0,-80.29521 c 0,-3.13946 -2.565523,-5.70679 -5.70679,-5.70679 l -80.2951687,0"
       inkscape:connector-curvature="0" />
    <path
       id="path2554"
       style="fill:#ffffff;fill-opacity:1;fill-rule:nonzero;stroke:none"
       d="m 7.9711163,959.949 c -2.331961,0 -4.2330165,1.89925 -4.2330165,4.23664 l 0,80.29336 c 0,2.3374 1.9010555,4.2366 4.2330165,4.2366 l 80.2951687,0 c 2.333769,0 4.233017,-1.8992 4.233017,-4.2366 l 0,-80.29336 c 0,-2.33739 -1.899248,-4.23664 -4.233017,-4.23664 l -80.2951687,0"
       inkscape:connector-curvature="0" />
    <path
       id="path2558"
       style="fill:#918f90;fill-opacity:1;fill-rule:evenodd;stroke:none"
       d="m 63.078387,988.17679 c 0,0 2.315667,1.00122 1.032005,3.39474 0,0 0.820168,-1.00304 2.580002,-3.3187 1.75621,-2.31748 0.412803,-3.83651 -0.809306,-4.09723 l -31.206284,-8.30128 28.403583,12.32247"
       inkscape:connector-curvature="0" />
    <path
       id="path2562"
       style="fill:#918f90;fill-opacity:1;fill-rule:evenodd;stroke:none"
       d="m 59.352673,992.83419 c 0,0 2.241436,0.96683 1.006656,3.6265 0,0 0.818361,-1.00123 2.576379,-3.3187 1.759841,-2.31205 0.382023,-3.78582 -0.80749,-4.09724 l -25.541144,-6.3966 22.765599,10.18604"
       inkscape:connector-curvature="0" />
    <path
       id="path2566"
       style="fill:#918f90;fill-opacity:1;fill-rule:evenodd;stroke:none"
       d="m 55.687981,997.25532 c 0,0 2.641562,1.00122 1.261937,3.64098 0,0 0.450823,-0.5577 2.210656,-2.86969 1.756218,-2.31567 0.333142,-3.84557 -0.809305,-4.10085 l -19.617086,-4.61685 16.953798,7.94641"
       inkscape:connector-curvature="0" />
    <path
       id="path2570"
       style="fill:#9d0d30;fill-opacity:1;fill-rule:evenodd;stroke:none"
       d="m 75.801515,1002.7195 0.28606,0 c 0.162955,0 0.349436,0.034 0.349436,0.2354 0,0.2317 -0.162948,0.2589 -0.353052,0.2589 l -0.282444,0 0,-0.4943 z m -0.320464,1.481 0.320464,0 0,-0.7423 0.191919,0 0.449008,0.7423 0.327703,0 -0.461678,-0.755 c 0.277005,-0.025 0.449007,-0.1684 0.449007,-0.4635 0,-0.3639 -0.222692,-0.5051 -0.635496,-0.5051 l -0.640927,0 0,1.7236 z m 0.586614,0.3694 c -0.639119,0 -1.151502,-0.5124 -1.151502,-1.2258 0,-0.7133 0.512383,-1.2257 1.151502,-1.2257 0.637304,0 1.146063,0.5124 1.146063,1.2257 0,0.7134 -0.508759,1.2258 -1.146063,1.2258 m 0,0.2987 c 0.840086,0 1.52084,-0.6826 1.52084,-1.5245 0,-0.8401 -0.680754,-1.5226 -1.52084,-1.5226 -0.841901,0 -1.519039,0.6825 -1.519039,1.5226 0,0.8419 0.677138,1.5245 1.519039,1.5245"
       inkscape:connector-curvature="0" />
    <path
       id="path2574"
       style="fill:#9d0d30;fill-opacity:1;fill-rule:evenodd;stroke:none"
       d="m 19.56901,1020.5016 6.700768,0 5.165443,-19.0884 -6.697153,0 -5.169058,19.0884 z"
       inkscape:connector-curvature="0" />
    <path
       id="path2578"
       style="fill:#9d0d30;fill-opacity:1;fill-rule:evenodd;stroke:none"
       d="m 56.635977,1001.4134 -7.164262,0 -9.624775,14.4408 -0.07239,0 -1.67474,-14.4408 -6.664557,0 3.244462,19.0884 8.194459,0 13.761834,-19.0884 z"
       inkscape:connector-curvature="0" />
    <path
       id="path2582"
       style="fill:#9d0d30;fill-opacity:1;fill-rule:evenodd;stroke:none"
       d="m 51.39667,1020.5016 11.333917,-0.058 c 5.701351,-0.056 10.225867,-2.0097 10.225867,-6.0562 0,-2.1075 -1.9608,-3.373 -4.814199,-3.7025 l 0,-0.054 c 3.925231,-0.3584 6.132264,-2.2722 6.132264,-4.8413 0,-3.612 -4.064638,-4.3761 -6.626538,-4.3761 l -11.04785,0 -5.203461,19.0885 z m 10.797994,-15.48 1.714574,0 c 2.491285,0 4.128006,0.2444 4.128006,1.7779 0,1.3163 -1.636721,2.16 -4.414066,2.16 l -2.500347,0 1.071833,-3.9379 z m -2.033223,7.3888 1.604133,0 c 2.996421,0 4.562534,0.2462 4.562534,1.9137 0,1.8612 -2.246867,2.5709 -5.59454,2.5709 l -1.785182,0 1.213055,-4.4846"
       inkscape:connector-curvature="0" />
  </g>
</svg>
