<?xml version="1.0" encoding="UTF-8" standalone="no"?>
<!-- Created with Inkscape (http://www.inkscape.org/) -->

<svg
   xmlns:dc="http://purl.org/dc/elements/1.1/"
   xmlns:cc="http://creativecommons.org/ns#"
   xmlns:rdf="http://www.w3.org/1999/02/22-rdf-syntax-ns#"
   xmlns:svg="http://www.w3.org/2000/svg"
   xmlns="http://www.w3.org/2000/svg"
   xmlns:sodipodi="http://sodipodi.sourceforge.net/DTD/sodipodi-0.dtd"
   xmlns:inkscape="http://www.inkscape.org/namespaces/inkscape"
   version="1.0"
   width="1035"
   height="1035"
   id="svg2"
   xml:space="preserve"
   inkscape:version="0.91 r13725"
   sodipodi:docname="network_vvo_logo.svg"
   inkscape:export-filename="J:\privat\Transportr\res\drawable-xhdpi\network_vvo_logo.png"
   inkscape:export-xdpi="8.3500004"
   inkscape:export-ydpi="8.3500004"><metadata
     id="metadata10"><rdf:RDF><cc:Work
         rdf:about=""><dc:format>image/svg+xml</dc:format><dc:type
           rdf:resource="http://purl.org/dc/dcmitype/StillImage" /><dc:title></dc:title></cc:Work></rdf:RDF></metadata><sodipodi:namedview
     pagecolor="#ffffff"
     bordercolor="#666666"
     borderopacity="1"
     objecttolerance="10"
     gridtolerance="10"
     guidetolerance="10"
     inkscape:pageopacity="0"
     inkscape:pageshadow="2"
     inkscape:window-width="1280"
     inkscape:window-height="744"
     id="namedview8"
     showgrid="false"
     inkscape:zoom="0.33333333"
     inkscape:cx="159"
     inkscape:cy="112.5"
     inkscape:window-x="0"
     inkscape:window-y="0"
     inkscape:window-maximized="1"
     inkscape:current-layer="svg2" /><defs
     id="defs5" /><rect
     style="fill:#ffffff;fill-rule:evenodd;stroke:none;stroke-width:1px;stroke-linecap:butt;stroke-linejoin:miter;stroke-opacity:1"
     id="rect3334"
     width="1035"
     height="1035"
     x="0"
     y="0" /><path
     d="m 853.23438,411.43749 0,51.125 179.46872,0 0,-51.125 -179.46872,0 z m 0.4375,80.59375 0,51.125 178.81242,0 0,-51.125 -178.81242,0 z m -0.4375,80.40625 0,51.12502 179.46872,0 0,-51.12502 -179.46872,0 z"
     id="blue"
     style="fill:#0068b4;fill-opacity:1;fill-rule:nonzero;stroke:none"
     inkscape:connector-curvature="0" /><path
     d="m 853.23438,411.43754 c -37.13251,0 -71.03625,20.33749 -89.0625,51.15625 l 89.0625,-0.0312 0,-51.125 z m -102.40626,80.625 c -1.49749,6.4675 -3.62499,18.51876 -3.625,25.4375 0,7.1525 1.90627,18.96749 3.625,25.65625 l 102.84376,0.0312 0,-51.125 -102.84376,0 z m 102.40626,80.34375 -89.0625,0.0312 c 18.02625,30.58747 51.92998,51.12497 89.0625,51.12497 l 0,-51.15622 z"
     id="green"
     style="fill:#309d25;fill-opacity:1;fill-rule:evenodd;stroke:none"
     inkscape:connector-curvature="0" /><path
     d="m 853.23438,411.43749 0,51.125 89.96874,0 c -18.03751,-30.80876 -50.67875,-51.125 -88.03124,-51.125 -0.65122,-1e-5 -1.28751,0 -1.9375,0 z m 0.4375,80.625 0,51.09375 103.25,0 c 3.01999,-8.70376 4.09374,-18.50375 4.09374,-25.65625 -10e-6,-6.91874 -0.88499,-19.17875 -4.3125,-25.4375 l -103.03124,0 z m -0.4375,80.375 0,51.12502 c 0.42997,0 1.07,0 1.5,0 l 0.875,0 c 36.92376,-0.22 70.17875,-20.5375 88.4375,-51.12502 l -90.8125,0 z"
     id="black"
     style="fill:#1a1b1f;fill-opacity:1;fill-rule:evenodd;stroke:none"
     inkscape:connector-curvature="0" /><path
     d="m 576.51562,406.45311 c -62.41998,0 -112.8125,49.57875 -112.8125,111.0625 0,61.4725 50.3925,111.03127 112.8125,111.03127 62.12377,0 112.5,-49.55877 112.5,-111.03126 2e-5,-61.48375 -50.37625,-111.0625 -112.5,-111.0625 z m -574.218745,4.78125 88.8125,211.65622 43.593745,0 88.9375,-211.65622 -61.75,0 -38.03124,108.3125 c -5.71876,13.68625 -8.37251,27.27375 -10.90626,38.09375 -5.40999,-21.84999 -6.14,-26.0025 -10.25,-37.21875 l -38.749995,-109.1875 -61.65625,0 z m 236.531245,0 88.8125,211.65622 43.59376,0 88.9375,-211.65622 -61.75,0 -38.03126,108.3125 c -5.73,13.68625 -8.3625,27.27375 -10.90624,38.09375 -5.40001,-21.84999 -6.14,-26.0025 -10.25,-37.21875 l -38.75,-109.1875 -61.65626,0 z m 337.6875,44.3125 c 30.91877,1e-5 55.375,29.025 55.375,62.5 -10e-6,33.475 -24.45625,61.75 -55.375,61.75 -31.20498,-1e-5 -55.46874,-28.8175 -55.46874,-62.28125 -3e-5,-33.485 24.26375,-61.96875 55.46874,-61.96875 z"
     id="VVO"
     style="fill:#1b1c20;fill-opacity:1;fill-rule:evenodd;stroke:none"
     inkscape:connector-curvature="0" /></svg>