<?xml version="1.0" encoding="UTF-8" standalone="no"?>
<!-- Created with Inkscape (http://www.inkscape.org/) -->

<svg
   xmlns:dc="http://purl.org/dc/elements/1.1/"
   xmlns:cc="http://creativecommons.org/ns#"
   xmlns:rdf="http://www.w3.org/1999/02/22-rdf-syntax-ns#"
   xmlns:svg="http://www.w3.org/2000/svg"
   xmlns="http://www.w3.org/2000/svg"
   xmlns:sodipodi="http://sodipodi.sourceforge.net/DTD/sodipodi-0.dtd"
   xmlns:inkscape="http://www.inkscape.org/namespaces/inkscape"
   width="96"
   height="96"
   viewBox="0 0 96.000001 96.000002"
   id="svg4136"
   version="1.1"
   inkscape:version="0.91 r13725"
   inkscape:export-filename="/home/master/network_mvg_logo.png"
   inkscape:export-xdpi="90"
   inkscape:export-ydpi="90"
   sodipodi:docname="network_bayern_logo.svg">
  <defs
     id="defs4138">
    <clipPath
       id="clipPath3470"
       clipPathUnits="userSpaceOnUse">
      <path
         inkscape:connector-curvature="0"
         id="path3472"
         d="m 0,0 937.559,0 0,841.89 L 0,841.89 0,0 Z" />
    </clipPath>
    <clipPath
       id="clipPath3506"
       clipPathUnits="userSpaceOnUse">
      <path
         inkscape:connector-curvature="0"
         id="path3508"
         d="m 1119.766,4.513 39.711,0 0,26.33 -39.711,0 0,-26.33 z" />
    </clipPath>
    <clipPath
       id="clipPath3352"
       clipPathUnits="userSpaceOnUse">
      <path
         inkscape:connector-curvature="0"
         id="path3354"
         d="m 0,0 5372.57,0 0,2030.35 L 0,2030.35 0,0 Z" />
    </clipPath>
  </defs>
  <sodipodi:namedview
     id="base"
     pagecolor="#ffffff"
     bordercolor="#666666"
     borderopacity="1.0"
     inkscape:pageopacity="1"
     inkscape:pageshadow="2"
     inkscape:zoom="8.48"
     inkscape:cx="40.426865"
     inkscape:cy="46.035083"
     inkscape:document-units="px"
     inkscape:current-layer="layer1"
     showgrid="true"
     units="px"
     inkscape:window-width="1855"
     inkscape:window-height="1056"
     inkscape:window-x="65"
     inkscape:window-y="24"
     inkscape:window-maximized="1"
     showguides="false">
    <inkscape:grid
       type="xygrid"
       id="grid4856" />
  </sodipodi:namedview>
  <metadata
     id="metadata4141">
    <rdf:RDF>
      <cc:Work
         rdf:about="">
        <dc:format>image/svg+xml</dc:format>
        <dc:type
           rdf:resource="http://purl.org/dc/dcmitype/StillImage" />
        <dc:title></dc:title>
        <cc:license
           rdf:resource="http://creativecommons.org/publicdomain/zero/1.0/" />
      </cc:Work>
      <cc:License
         rdf:about="http://creativecommons.org/publicdomain/zero/1.0/">
        <cc:permits
           rdf:resource="http://creativecommons.org/ns#Reproduction" />
        <cc:permits
           rdf:resource="http://creativecommons.org/ns#Distribution" />
        <cc:permits
           rdf:resource="http://creativecommons.org/ns#DerivativeWorks" />
      </cc:License>
    </rdf:RDF>
  </metadata>
  <g
     inkscape:label="Ebene 1"
     inkscape:groupmode="layer"
     id="layer1"
     transform="translate(0,-956.36216)">
    <rect
       style="fill:#ffffff;fill-opacity:1;stroke:#01ffff;stroke-width:0;stroke-linecap:butt;stroke-linejoin:miter;stroke-miterlimit:0;stroke-dasharray:none;stroke-opacity:1"
       id="rect4267"
       width="95.999954"
       height="95.999969"
       x="2.3284263e-05"
       y="956.36218" />
    <path
       inkscape:connector-curvature="0"
       id="path3356"
       style="fill:#231f20;fill-opacity:1;fill-rule:evenodd;stroke:none"
       d="m 37.415908,996.68502 1.484512,0 c 0.50116,0 0.854972,-0.0971 1.060333,-0.29139 0.205582,-0.19896 0.308594,-0.46388 0.308594,-0.79564 0,-0.30771 -0.103012,-0.55409 -0.308594,-0.73894 -0.20139,-0.18948 -0.556967,-0.28389 -1.06673,-0.28433 l -1.478115,0 0,2.1103 z m 0,-4.09244 1.266137,0 c 0.453955,0 0.768946,-0.0853 0.944529,-0.25587 0.179993,-0.17515 0.269991,-0.42618 0.269991,-0.75307 0,-0.30309 -0.09,-0.53999 -0.269991,-0.71049 -0.175583,-0.17073 -0.484177,-0.25587 -0.92534,-0.25587 l -1.285326,0 0,1.9753 z m -2.936818,-4.08561 5.44968,0 c 0.907911,0 1.604287,0.24859 2.088463,0.74622 0.488366,0.49719 0.732771,1.11328 0.732771,1.84715 0,0.61586 -0.173598,1.14416 -0.520572,1.58444 -0.23139,0.29381 -0.569762,0.52608 -1.015336,0.69637 0.676743,0.18022 1.173492,0.49036 1.490909,0.93086 0.321166,0.43565 0.481749,0.98533 0.481749,1.64818 0,0.5402 -0.113599,1.0257 -0.340578,1.45672 -0.227198,0.43123 -0.537776,0.77203 -0.931514,1.02328 -0.244404,0.15617 -0.612995,0.26955 -1.105553,0.34057 -0.655568,0.0951 -1.090333,0.14228 -1.304517,0.14228 l -5.025502,0 0,-10.41607" />
    <path
       inkscape:connector-curvature="0"
       id="path3358"
       style="fill:#231f20;fill-opacity:1;fill-rule:nonzero;stroke:none"
       d="m 44.835158,988.50697 7.801517,0 0,2.2239 -4.883889,0 0,1.65546 4.530517,0 0,2.12464 -4.530517,0 0,2.05339 5.025502,0 0,2.35868 -7.94313,0 0,-10.41607" />
    <path
       inkscape:connector-curvature="0"
       id="path3360"
       style="fill:#231f20;fill-opacity:1;fill-rule:nonzero;stroke:none"
       d="m 59.213966,995.15021 0,-2.16699 4.498755,0 0,4.44053 c -0.861371,0.64917 -1.624361,1.0921 -2.28809,1.32877 -0.659758,0.23206 -1.443704,0.34807 -2.352057,0.34828 -1.118348,0 -2.030892,-0.21063 -2.737855,-0.63238 -0.702551,-0.42131 -1.248489,-1.04909 -1.638477,-1.8831 -0.385576,-0.83314 -0.578364,-1.79002 -0.578364,-2.86999 0,-1.13709 0.212199,-2.12464 0.636156,-2.96329 0.424178,-0.84284 1.045335,-1.48252 1.863911,-1.91795 0.637922,-0.33661 1.497085,-0.50447 2.57661,-0.50447 1.041364,0 1.818913,0.10412 2.332867,0.31234 0.518366,0.20846 0.946515,0.53293 1.285327,0.97365 0.342783,0.43565 0.59954,0.98997 0.771152,1.66252 l -2.808219,0.5541 c -0.115805,-0.39307 -0.312785,-0.69372 -0.591599,-0.90218 -0.273963,-0.20867 -0.625348,-0.31234 -1.053717,-0.31277 -0.638362,0 -1.148126,0.24638 -1.529289,0.73872 -0.376974,0.48814 -0.565791,1.26283 -0.565791,2.3236 0,1.12739 0.190803,1.93251 0.572187,2.41558 0.385577,0.4833 0.921148,0.72484 1.606493,0.72484 0.325799,0 0.635936,-0.052 0.931956,-0.15618 0.295579,-0.10433 0.634171,-0.28189 1.015335,-0.53292 l 0,-0.98071 -1.947291,0 0,0" />
    <path
       inkscape:connector-curvature="0"
       id="path3362"
       style="fill:#231f20;fill-opacity:1;fill-rule:evenodd;stroke:none"
       d="m 62.348646,1001.0461 c 0.358004,0.022 9.204855,0.5464 11.078693,0.6934 -0.045,0.019 -38.499808,-0.4534 -38.499808,-0.4534 -0.0019,0.034 14.190874,1.1409 22.232823,1.5203 0,0 27.82103,1.2667 19.080278,0.9749 l 5.780993,0.3068 c 0.639465,0.027 4.392435,3.7566 4.428169,3.8245 l -4.573312,-0.081 -16.746968,0.1345 c -0.0011,0.044 -5.177483,0.2531 -5.177483,0.2531 l 6.493692,0.084 c 0,0 19.750623,0.2622 20.116788,0.3482 0,0 5.757611,0.5892 5.823123,0.5848 0.174039,-0.011 0.817254,0.4081 0.533807,0.778 -0.258521,0.3377 -4.665073,3.8617 -5.98062,3.9038 -1.95082,0.076 -4.487063,-0.062 -4.487063,-0.062 -3.535034,-0.051 -10.778481,0.1378 -10.798995,0.1612 l -20.054364,0.4829 c -0.06573,0 18.440812,0.3907 16.032065,0.3037 l 19.123511,-0.032 c 0,0 0.472043,0.042 1.291503,-0.2311 1.906483,-0.9033 5.628351,-4.229 5.628351,-4.229 0.509543,-0.4879 0.335504,-0.9315 0.280358,-0.9927 -0.653141,-0.7356 -1.724945,-1.8147 -2.599991,-2.6156 -0.726373,-0.731 -3.638267,-3.4044 -3.638267,-3.4044 -0.523439,-0.4551 -1.465762,-1.155 -2.124858,-1.4334 -1.003866,-0.3458 -1.387677,-0.3538 -2.31478,-0.5035 0,0 -3.411289,-0.3329 -7.046467,-0.4318 -7.662772,-0.2082 -20.120318,-0.3873 -20.136642,-0.2448 0.03088,0.039 6.255464,0.3616 6.255464,0.3616 l 0,0 z m 20.945732,3.3472 0.934383,0.7528 1.680388,1.5308 c 0.752182,0.6258 1.166654,0.8755 1.69252,1.6016 0.635053,0.031 4.460814,0.4924 4.460814,0.4924 -1.289959,-1.2626 -3.858407,-3.4825 -4.078106,-3.5799 -0.449765,-0.2223 -0.712257,-0.2373 -1.19555,-0.3482 -0.492999,-0.083 -0.897766,-0.1324 -1.318414,-0.1964 0,0 -2.110521,-0.2594 -2.176035,-0.2531 l 0,0" />
    <path
       inkscape:connector-curvature="0"
       id="path3364"
       style="fill:#00adef;fill-opacity:1;fill-rule:nonzero;stroke:none"
       d="m 16.535578,994.94948 -5.994626,-12.42136 14.822177,6.54839 5.994736,12.42109 -14.822287,-6.54812 0,0" />
    <path
       inkscape:connector-curvature="0"
       id="path3366"
       style="fill:#00adef;fill-opacity:1;fill-rule:nonzero;stroke:none"
       d="m 37.338263,1013.9282 -5.994736,-12.4215 14.822177,6.5484 5.994736,12.4212 -14.822177,-6.5481 0,0" />
    <path
       inkscape:connector-curvature="0"
       id="path3368"
       style="fill:#00adef;fill-opacity:1;fill-rule:nonzero;stroke:none"
       d="m 7.7064829,1000.8212 -5.9947362,-12.42144 14.8222873,6.54818 5.994626,12.42136 -14.8221771,-6.5481 0,0" />
    <path
       inkscape:connector-curvature="0"
       id="path3370"
       style="fill:#00adef;fill-opacity:1;fill-rule:nonzero;stroke:none"
       d="m 28.509058,1019.7999 -5.994604,-12.4216 14.822265,6.5485 5.994737,12.4211 -14.822398,-6.548 0,0" />
  </g>
</svg>
