<?xml version="1.0" encoding="UTF-8" standalone="no"?>
<!-- Created with Inkscape (http://www.inkscape.org/) -->

<svg
   xmlns:dc="http://purl.org/dc/elements/1.1/"
   xmlns:cc="http://creativecommons.org/ns#"
   xmlns:rdf="http://www.w3.org/1999/02/22-rdf-syntax-ns#"
   xmlns:svg="http://www.w3.org/2000/svg"
   xmlns="http://www.w3.org/2000/svg"
   xmlns:sodipodi="http://sodipodi.sourceforge.net/DTD/sodipodi-0.dtd"
   xmlns:inkscape="http://www.inkscape.org/namespaces/inkscape"
   width="64"
   height="64"
   id="svg3352"
   version="1.1"
   inkscape:version="0.91 r13725"
   viewBox="0 0 64 64"
   sodipodi:docname="network_septa_logo.svg">
  <defs
     id="defs3354" />
  <sodipodi:namedview
     id="base"
     pagecolor="#ffffff"
     bordercolor="#666666"
     borderopacity="1.0"
     inkscape:pageopacity="0.0"
     inkscape:pageshadow="2"
     inkscape:zoom="5.5"
     inkscape:cx="23.363636"
     inkscape:cy="17.090909"
     inkscape:current-layer="layer1"
     showgrid="true"
     inkscape:document-units="px"
     inkscape:grid-bbox="true"
     inkscape:window-width="1920"
     inkscape:window-height="1021"
     inkscape:window-x="1440"
     inkscape:window-y="23"
     inkscape:window-maximized="0" />
  <metadata
     id="metadata3357">
    <rdf:RDF>
      <cc:Work
         rdf:about="">
        <dc:format>image/svg+xml</dc:format>
        <dc:type
           rdf:resource="http://purl.org/dc/dcmitype/StillImage" />
        <dc:title />
      </cc:Work>
    </rdf:RDF>
  </metadata>
  <g
     id="layer1"
     inkscape:label="Layer 1"
     inkscape:groupmode="layer">
    <rect
       style="fill:#ffffff"
       x="6.1610055"
       y="7.6999999e-07"
       width="51.850281"
       height="44.863934"
       id="rect3420" />
    <path
       style="fill:#1f4fa3"
       d="M 6.3203125 49.304688 C 5.2178779 49.304687 4.2504354 49.465386 3.4707031 49.814453 C 2.6909709 50.16352 2.1001918 50.64796 1.6699219 51.292969 C 1.266544 51.937715 1.0503295 52.661735 1.0234375 53.521484 C 1.0234375 54.434885 1.2119883 55.187883 1.6152344 55.751953 C 2.0186124 56.342915 2.5305083 56.745469 3.1757812 57.041016 C 3.821186 57.309539 4.627276 57.551727 5.5683594 57.740234 C 5.8910618 57.79415 6.3204884 57.900697 6.9121094 58.035156 C 7.6112978 58.223135 8.0948145 58.357277 8.390625 58.464844 C 8.6596755 58.545256 8.9019208 58.706344 9.1171875 58.921875 C 9.3323224 59.163506 9.4394531 59.458741 9.4394531 59.861328 C 9.4126931 60.989863 8.3641506 61.582031 6.3476562 61.582031 C 5.8636028 61.582031 5.4071523 61.500932 5.0039062 61.339844 C 4.6003965 61.178757 4.2498392 60.937277 4.0078125 60.615234 C 3.7659175 60.265903 3.6054688 59.836195 3.6054688 59.326172 L 0.78125 59.326172 C 0.88868563 62.388681 2.9601164 63.97311 6.9394531 64 C 7.3159392 64 7.8004488 63.945327 8.3378906 63.837891 C 8.9023561 63.730455 9.4928151 63.543273 10.111328 63.220703 C 10.702949 62.898659 11.241605 62.442204 11.671875 61.824219 C 12.102013 61.206233 12.316406 60.400647 12.316406 59.433594 C 12.316406 58.654126 12.182662 58.008785 11.886719 57.525391 C 11.591173 57.068492 11.160301 56.664688 10.595703 56.369141 C 10.004214 56.100486 9.2247522 55.833824 8.203125 55.591797 C 7.9071827 55.511385 7.4505441 55.376252 6.8320312 55.242188 C 6.2136503 55.080837 5.5409853 54.9189 4.8417969 54.757812 C 4.0890884 54.515917 3.7128906 54.032194 3.7128906 53.306641 C 3.7666743 52.769463 4.007682 52.366631 4.4648438 52.125 C 4.8951135 51.882973 5.4603841 51.749676 6.1328125 51.722656 C 7.9610638 51.722656 8.9280406 52.420849 9.0625 53.791016 L 11.886719 53.791016 C 11.859959 53.280598 11.752696 52.742972 11.564453 52.232422 C 11.349318 51.69498 11.053317 51.211388 10.623047 50.78125 C 10.219669 50.351508 9.6287441 49.975554 8.9296875 49.707031 C 8.2038708 49.438376 7.3419397 49.304688 6.3203125 49.304688 z M 14.494141 49.599609 L 14.494141 63.542969 L 25.115234 63.542969 L 25.115234 61.125 L 17.398438 61.125 L 17.398438 57.472656 L 24.201172 57.472656 L 24.201172 55.052734 L 17.398438 55.052734 L 17.398438 52.017578 L 24.792969 52.017578 L 24.792969 49.599609 L 14.494141 49.599609 z M 39.177734 49.599609 L 39.177734 52.017578 L 43.451172 52.017578 L 43.451172 63.542969 L 46.328125 63.542969 L 46.328125 52.017578 L 50.46875 52.017578 L 50.46875 49.599609 L 39.177734 49.599609 z M 27.455078 49.607422 L 27.455078 54.080078 L 27.455078 63.533203 L 30.353516 63.533203 L 30.353516 58.388672 L 33.716797 58.388672 C 35.303153 58.388672 36.40765 57.975115 37.080078 57.115234 C 37.725351 56.336425 38.04928 55.315258 38.076172 54.080078 L 38.076172 53.894531 C 38.076172 53.303569 37.987336 52.737113 37.798828 52.226562 C 37.637477 51.716012 37.386384 51.262753 37.009766 50.859375 C 36.660435 50.456788 36.198313 50.173536 35.6875 49.931641 C 35.149926 49.716901 34.554657 49.607422 33.855469 49.607422 L 27.455078 49.607422 z M 54.728516 49.607422 L 52.617188 55.5625 L 49.787109 63.533203 L 52.826172 63.533203 L 53.822266 60.660156 L 58.949219 60.660156 L 59.830078 63.533203 L 63.005859 63.533203 L 60.177734 55.5625 L 58.066406 49.607422 L 54.728516 49.607422 z M 30.355469 52.017578 L 32.720703 52.017578 C 33.769222 52.017578 34.44247 52.201451 34.738281 52.550781 C 35.033959 52.899848 35.201172 53.408441 35.201172 54.080078 C 35.201172 54.483192 35.143435 54.830954 35.0625 55.099609 C 34.98196 55.395024 34.805125 55.651733 34.482422 55.839844 C 34.160115 56.027955 33.68674 56.119141 33.068359 56.119141 L 30.355469 56.119141 L 30.355469 54.080078 L 30.355469 52.017578 z M 56.375 52.736328 L 57.255859 55.5625 L 58.136719 58.388672 L 54.587891 58.388672 L 55.447266 55.5625 L 56.375 52.736328 z "
       id="path2570" />
    <path
       style="fill:#f14728"
       d="M 44.03125 0.01953125 L 22.998047 14.859375 L 42.595703 14.859375 L 57.857422 30.050781 L 43.123047 44.861328 L 57.388672 44.861328 C 60.757537 44.861328 63.21875 41.524999 63.21875 39.154297 L 63.21875 5.7578125 C 63.218618 3.3575819 60.757537 0.01953125 57.388672 0.01953125 L 44.03125 0.01953125 z M 24.492188 16.265625 L 35.974609 27.738281 C 36.502032 28.177911 36.912053 28.704882 37.820312 28.646484 L 39.783203 28.646484 L 28.240234 17.201172 C 27.713075 16.615746 27.333713 16.265625 26.367188 16.265625 L 24.492188 16.265625 z "
       id="path2578" />
    <path
       style="fill:#1f4fa3"
       inkscape:connector-curvature="0"
       id="path2580"
       d="m 6.8858997,44.861956 13.3288733,0 21.032732,-14.781165 -19.56818,0 L 6.3586082,14.86026 21.181298,0.02030149 l -14.2953983,0 c -3.3981297,0 -5.8002059,3.33656841 -5.8002059,5.76606371 l 0,33.3974538 c 1.318e-4,2.341569 2.4020762,5.678137 5.8002059,5.678137 l 0,0 z" />
  </g>
</svg>
