<?xml version="1.0" encoding="UTF-8" standalone="no"?>
<!-- Created with Inkscape (http://www.inkscape.org/) -->

<svg
   xmlns:dc="http://purl.org/dc/elements/1.1/"
   xmlns:cc="http://creativecommons.org/ns#"
   xmlns:rdf="http://www.w3.org/1999/02/22-rdf-syntax-ns#"
   xmlns:svg="http://www.w3.org/2000/svg"
   xmlns="http://www.w3.org/2000/svg"
   xmlns:sodipodi="http://sodipodi.sourceforge.net/DTD/sodipodi-0.dtd"
   xmlns:inkscape="http://www.inkscape.org/namespaces/inkscape"
   id="svg2"
   version="1.1"
   inkscape:version="0.91 r13725"
   width="64"
   height="64"
   viewBox="0 0 64 64"
   sodipodi:docname="network_brfloripa_logo.svg">
  <metadata
     id="metadata8">
    <rdf:RDF>
      <cc:Work
         rdf:about="">
        <dc:format>image/svg+xml</dc:format>
        <dc:type
           rdf:resource="http://purl.org/dc/dcmitype/StillImage" />
        <dc:title></dc:title>
      </cc:Work>
    </rdf:RDF>
  </metadata>
  <defs
     id="defs6" />
  <sodipodi:namedview
     pagecolor="#ffffff"
     bordercolor="#666666"
     borderopacity="1"
     objecttolerance="10"
     gridtolerance="10"
     guidetolerance="10"
     inkscape:pageopacity="0"
     inkscape:pageshadow="2"
     inkscape:window-width="1920"
     inkscape:window-height="1012"
     id="namedview4"
     showgrid="false"
     inkscape:zoom="1.403315"
     inkscape:cx="-74.297177"
     inkscape:cy="138.42996"
     inkscape:window-x="1440"
     inkscape:window-y="0"
     inkscape:window-maximized="1"
     inkscape:current-layer="svg2" />
  <g
     id="g4198"
     transform="matrix(0.11166298,0,0,0.11166298,28.589756,32.0905)">
    <path
       sodipodi:nodetypes="csssscccscsscscsccssscccscsscsssscssscsscccsccsscsssscssssscs"
       style="fill:#27a9dd"
       d="m -223.27108,128.37251 c -10.49397,-4.55078 -15.49126,-13.21546 -14.78908,-25.64242 0.40669,-7.19736 1.05676,-9.19294 4.31086,-13.2334 5.17166,-6.42142 12.331,-10.33699 18.94694,-10.3624 14.42837,-0.0554 25.21745,10.89921 25.21745,25.60444 0,18.31385 -17.55408,30.62955 -33.68618,23.63377 z M 16.0362,112.76866 c -0.4572,-0.73979 -0.631,-27.59917 -0.3862,-59.6875 0.2447,-32.08834 0.6224,-57.09493 0.8392,-55.57022 0.3918,2.75577 7.427693,-0.129638 22.785919,1.3790261 9.714178,0.95423983 14.823993,-1.0533734 20.111995,-0.2309724 L 71.72,0.57703 l 0,54.79111 c 0,30.13512 -0.3414,55.68088 -0.7587,56.76835 -0.6591,1.71749 -4.2621,1.97724 -27.4263,1.97724 -17.6865,0 -26.9474,-0.45299 -27.4988,-1.34507 z m 114.0413,0.53592 c -1.5465,-1.5465 -1.90935,-102.575692 -0.35455,-102.575692 0.7666,0 9.5888,5.622703 16.5566,9.011103 12.9324,6.28889 26.01945,16.114859 34.61555,23.442449 l 3.90935,2.132144 -0.15935,35.066896 -1.0501,33.10725 -26.33,0.33669 c -14.4815,0.18517 -26.7159,-0.0492 -27.1875,-0.52084 z M 291.3747,70.64991 C 283.9643,59.79807 266.7728,43.0847 253.3364,33.66957 L 243.1715,26.54681 242.7527,4.39277 c -0.3806,-20.13715 -0.6754,-22.63534 -3.238,-27.44078 -1.5506,-2.90771 -4.4733,-6.14208 -6.4949,-7.1875 -8.2769,-4.28013 -25.8476,-0.77543 -40.4346,8.06518 l -7.1152,4.31227 0,9.24464 c 0,8.29385 -0.225,9.15747 -2.1875,8.39731 -5.8991,-2.28499 -24.2634,-7.13397 -38.0111,-10.03662 -14.6904,-3.1017 -17.2396,-4.2645 -17.2823,-7.88312 -0.04,-3.35556 -4.0301,-9.19611 -7.8923,-11.55102 -7.5698,-4.61558 -23.7751,-2.187 -37.8211,5.66796 l -7.5805,4.23924 -29.6126,0.47091 -29.6126,0.47093 0,-4.54465 c 0,-7.02941 -2.4515,-18.74665 -5.3268,-25.45971 -1.8447,-4.30712 -2.2463,-6.64884 -1.3764,-8.0278 1.207,-1.9135 38.205,-12.67784 43.7796,-12.73742 4.0108,-0.0429 8.3601,5.99658 11.5133,15.98752 l 2.7999,8.87143 8.2559,-5.65225 c 19.9497,-13.65807 34.8663,-18.48469 57.2295,-18.51797 12.2509,-0.0182 16.2984,0.46273 22.0848,2.62435 9.7815,3.65405 18.1444,9.6972 22.1411,15.99934 l 3.3682,5.31101 6.8279,-4.92854 c 8.9396,-6.45271 24.8506,-14.05516 34.6367,-16.54971 4.2948,-1.09479 13.0412,-2.33423 19.4364,-2.75431 26.1128,-1.71529 43.2228,5.56561 51.3375,21.84598 6.527,13.09478 7.3105,23.72284 6.0867,82.56139 l -0.9193,44.20211 z"
       id="path4164"
       inkscape:connector-curvature="0" />
    <path
       sodipodi:nodetypes="cscsscscscsscscscscscscsccscsscssssscss"
       style="fill:#1473b4"
       d="m -58.7552,113.10616 c -0.3425,-0.55418 -0.7343,-23.47606 -0.8707,-50.9375 l -0.248,-49.92993 13.6095,-4.12574 c 12.1096,-3.67107 27.0222,-7.29174 38.9219,-9.44996 l 4.0625,-0.7368 0,56.11651 c 0,30.86409 -0.3414,57.00628 -0.7587,58.09375 -0.6591,1.71749 -4.2621,1.97724 -27.4263,1.97724 -14.6671,0 -26.9477,-0.45341 -27.2902,-1.00757 z M 176.095,39.48594 c -10.9265,-8.39104 -27.1404,-17.90776 -38.3224,-22.4933 -8.0856,-3.31575 -8.5447,-3.72206 -8.5485,-7.56641 0,-2.23438 0.1786,-4.0625 0.402,-4.0625 4.7775,0 47.0228,19.07184 53.7194,24.25187 1.8081,1.39867 2.1767,3.20024 1.875,9.16539 l -0.3755,7.42455 z M 16.7199,-2.2707 c 10e-5,-2.61073 9.2288,-3.61557 33.2062,-3.61557 19.2383,0 21.542159,2.8122549 21.541559,5.9646849 C 71.467259,1.9211749 68.894,-0.26127 44.2195,-0.26127 19.791,-0.26127 16.7198,-0.48568 16.7199,-2.2707 Z M -59.53,-34.705 c 0,-23.61672 0.2582,-27.26287 1.9772,-27.92253 2.9251,-1.12245 51.524,-0.92249 52.227,0.2149 0.3309,0.5355 0.7417,11.06395 0.9127,23.39655 l 0.311,22.42292 -12.5884,1.58237 c -6.9236,0.87028 -19.3948,2.90698 -27.7139,4.52597 L -59.53,-7.5412 Z m 14.0375,-45.07525 c -19.4061,-9.60585 -21.709,-35.64551 -4.2384,-47.92435 4.6954,-3.30006 6.6583,-3.84612 14.9894,-4.17006 8.7106,-0.33869 10.163,-0.0359 15.8966,3.31398 9.2806,5.42222 13.5114,12.21251 14.1001,22.63 0.5323,9.42125 -1.7625,15.5179 -8.1082,21.5406 -7.9645,7.55913 -22.5263,9.61576 -32.6395,4.60983 z"
       id="path4160"
       inkscape:connector-curvature="0" />
    <path
       style="fill:#00588d"
       d="m 264.8343,128.0325 c -9.2738,-4.213 -15.5883,-14.17009 -15.6073,-24.61085 -0.011,-6.00986 5.6921,-16.08616 11.307,-19.97726 5.8041,-4.02227 14.9117,-5.35764 21.5649,-3.16188 8.4029,2.77322 17.1072,15.2167 17.1072,24.45622 0,12.76948 -12.5083,25.5701 -24.9861,25.5701 -2.4063,0 -6.6298,-1.02435 -9.3857,-2.27632 z M -182.715,115.18494 c 2.80555,-10.10028 7.61123,-21.25872 11.36287,-26.38371 l 4.34641,-5.9375 10.55132,0 c 15.6515,0 22.866,-1.90496 28.4869,-7.52178 4.0538,-4.05087 4.6875,-5.45877 4.6875,-10.4145 0,-4.86794 -0.6499,-6.38026 -4.3181,-10.04843 l -4.318,-4.31804 13.3806,-8.6972 c 14.3741,-9.34305 27.7544,-16.50005 30.8474,-16.50005 3.0065,0 12.964,14.57242 15.1901,22.23014 1.395,4.79851 1.8415,9.93536 1.4506,16.68805 -1.0888,18.80845 -12.7584,35.49044 -31.1065,44.46761 -14.6399,7.16285 -20.2612,8.10781 -52.19028,8.77328 l -29.18918,0.60834 0.81836,-2.94621 z m 2.55999,-80.98331 c -30.63273,-10.92696 -44.57334,-29.74727 -40.57478,-54.77732 4.90169,-30.68336 35.00238,-50.32619 77.08459,-50.3032 28.2961,0.0155 64.7232,8.60762 67.5327,15.92916 0.4894,1.27525 -1.82,7.06484 -5.9984,15.03785 -7.7429,14.77478 -5.6431,13.96072 -23.4593,9.09465 -27.8016,-7.59336 -55.27031,-6.11791 -62.73321,3.36962 -3.62248,4.60523 -3.33126,12.85382 0.61955,17.54909 3.97695,4.72635 10.73999,7.57395 33.49946,14.10511 l 18.4706,5.3004 -10.9706,4.60995 c -12.886,5.41483 -24.00151,10.9311 -35.5637,17.64915 -4.5887,2.6662 -9.0887,4.80654 -10,4.7563 -0.9113,-0.0503 -4.46941,-1.09457 -7.90691,-2.32076 z"
       id="path4158"
       inkscape:connector-curvature="0" />
  </g>
</svg>
