<?xml version="1.0" encoding="UTF-8" standalone="no"?>
<!-- Created with Inkscape (http://www.inkscape.org/) -->

<svg
   xmlns:dc="http://purl.org/dc/elements/1.1/"
   xmlns:cc="http://creativecommons.org/ns#"
   xmlns:rdf="http://www.w3.org/1999/02/22-rdf-syntax-ns#"
   xmlns:svg="http://www.w3.org/2000/svg"
   xmlns="http://www.w3.org/2000/svg"
   xmlns:sodipodi="http://sodipodi.sourceforge.net/DTD/sodipodi-0.dtd"
   xmlns:inkscape="http://www.inkscape.org/namespaces/inkscape"
   width="96"
   height="96"
   viewBox="0 0 96.000001 96.000002"
   id="svg4136"
   version="1.1"
   inkscape:version="0.91 r13725"
   inkscape:export-filename="/home/master/network_mvg_logo.png"
   inkscape:export-xdpi="90"
   inkscape:export-ydpi="90"
   sodipodi:docname="network_wien_logo.svg">
  <defs
     id="defs4138">
    <clipPath
       id="clipPath3470"
       clipPathUnits="userSpaceOnUse">
      <path
         inkscape:connector-curvature="0"
         id="path3472"
         d="m 0,0 937.559,0 0,841.89 L 0,841.89 0,0 Z" />
    </clipPath>
    <clipPath
       id="clipPath3506"
       clipPathUnits="userSpaceOnUse">
      <path
         inkscape:connector-curvature="0"
         id="path3508"
         d="m 1119.766,4.513 39.711,0 0,26.33 -39.711,0 0,-26.33 z" />
    </clipPath>
    <clipPath
       id="clipPath3490"
       clipPathUnits="userSpaceOnUse">
      <path
         inkscape:connector-curvature="0"
         id="path3492"
         d="m 19.908,95.093 56.127,0 0,13.161 -56.127,0 0,-13.161 z" />
    </clipPath>
  </defs>
  <sodipodi:namedview
     id="base"
     pagecolor="#ffffff"
     bordercolor="#666666"
     borderopacity="1.0"
     inkscape:pageopacity="1"
     inkscape:pageshadow="2"
     inkscape:zoom="8.46"
     inkscape:cx="34.509737"
     inkscape:cy="46.01278"
     inkscape:document-units="px"
     inkscape:current-layer="layer1"
     showgrid="true"
     units="px"
     inkscape:window-width="1855"
     inkscape:window-height="1056"
     inkscape:window-x="65"
     inkscape:window-y="24"
     inkscape:window-maximized="1"
     showguides="false">
    <inkscape:grid
       type="xygrid"
       id="grid4856" />
  </sodipodi:namedview>
  <metadata
     id="metadata4141">
    <rdf:RDF>
      <cc:Work
         rdf:about="">
        <dc:format>image/svg+xml</dc:format>
        <dc:type
           rdf:resource="http://purl.org/dc/dcmitype/StillImage" />
        <dc:title></dc:title>
        <cc:license
           rdf:resource="http://creativecommons.org/publicdomain/zero/1.0/" />
      </cc:Work>
      <cc:License
         rdf:about="http://creativecommons.org/publicdomain/zero/1.0/">
        <cc:permits
           rdf:resource="http://creativecommons.org/ns#Reproduction" />
        <cc:permits
           rdf:resource="http://creativecommons.org/ns#Distribution" />
        <cc:permits
           rdf:resource="http://creativecommons.org/ns#DerivativeWorks" />
      </cc:License>
    </rdf:RDF>
  </metadata>
  <g
     inkscape:label="Ebene 1"
     inkscape:groupmode="layer"
     id="layer1"
     transform="translate(0,-956.36216)">
    <rect
       style="fill:#ffffff;fill-opacity:1;stroke:#01ffff;stroke-width:0;stroke-linecap:butt;stroke-linejoin:miter;stroke-miterlimit:0;stroke-dasharray:none;stroke-opacity:1"
       id="rect4267"
       width="95.999954"
       height="95.999969"
       x="2.3284263e-05"
       y="956.36218" />
    <g
       transform="matrix(0.20502823,0,0,-0.20502823,-2.2471188,1034.6367)"
       id="g3344">
      <path
         inkscape:connector-curvature="0"
         id="path3482"
         style="fill:#e3000f;fill-opacity:1;fill-rule:nonzero;stroke:none"
         d="m 19.908,95.093 449.016,0 0,105.288 -449.016,0 0,-105.288 z" />
      <path
         inkscape:connector-curvature="0"
         id="path3484"
         style="fill:#ffffff;fill-opacity:1;fill-rule:nonzero;stroke:none"
         d="m 21.012,96.197 104.184,0 0,103.08 -104.184,0 0,-103.08 z" />
      <g
         transform="matrix(8,0,0,8,-139.356,-665.651)"
         id="g3486">
        <g
           clip-path="url(#clipPath3490)"
           id="g3488">
          <g
             transform="translate(24.3922,98.8589)"
             id="g3494">
            <path
               inkscape:connector-curvature="0"
               id="path3496"
               style="fill:#240c4b;fill-opacity:1;fill-rule:nonzero;stroke:none"
               d="m 0,0 c -0.036,0 -0.065,0.029 -0.065,0.065 0,0.021 0.01,0.04 0.025,0.052 l 1.323,0.976 -3.475,0 c -0.037,0 -0.066,0.029 -0.066,0.065 0,0.022 0.011,0.042 0.028,0.054 l 1.818,1.34 c 0.012,0.011 0.028,0.019 0.046,0.019 l 1.41,0 C 1.36,2.559 1.528,2.525 1.626,2.461 1.744,2.382 1.779,2.292 1.801,2.232 1.958,1.8 2.161,0.425 2.171,0.358 2.181,0.425 2.383,1.8 2.54,2.232 c 0.023,0.06 0.057,0.15 0.176,0.229 0.097,0.064 0.266,0.098 0.582,0.11 l 3.456,0 C 6.79,2.571 6.82,2.541 6.82,2.505 6.82,2.483 6.808,2.463 6.79,2.451 L 3.494,0.013 C 3.483,0.005 3.469,0 3.455,0 L 0,0 Z" />
          </g>
          <g
             transform="translate(30.9254,103.3915)"
             id="g3498">
            <path
               inkscape:connector-curvature="0"
               id="path3500"
               style="fill:#e3000f;fill-opacity:1;fill-rule:nonzero;stroke:none"
               d="m 0,0 c 0.036,0 0.065,-0.029 0.065,-0.065 0,-0.022 -0.011,-0.042 -0.027,-0.054 l -1.83,-1.347 C -1.803,-1.473 -1.816,-1.477 -1.83,-1.477 l -1.409,0 c -0.316,0.011 -0.485,0.045 -0.582,0.109 -0.118,0.079 -0.153,0.169 -0.175,0.229 -0.158,0.432 -0.36,1.807 -0.37,1.874 -0.01,-0.067 -0.213,-1.442 -0.37,-1.874 -0.022,-0.06 -0.057,-0.15 -0.175,-0.229 -0.098,-0.064 -0.266,-0.098 -0.582,-0.109 l -3.458,-10e-4 c -0.036,0 -0.065,0.029 -0.065,0.065 0,0.02 0.008,0.037 0.023,0.049 l 0.105,0.078 3.198,2.365 c 0.011,0.009 0.025,0.014 0.041,0.014 l 3.455,0 c 0.036,0 0.065,-0.029 0.065,-0.066 0,-0.021 -0.01,-0.04 -0.026,-0.052 L -3.479,0 0,0 Z" />
          </g>
          <g
             transform="translate(53.4476,101.6576)"
             id="g3502">
            <path
               inkscape:connector-curvature="0"
               id="path3504"
               style="fill:#ffffff;fill-opacity:1;fill-rule:nonzero;stroke:none"
               d="m 0,0 -0.549,-0.016 0,0.996 0.544,0 C 0.311,0.98 0.46,0.775 0.46,0.508 0.46,0.21 0.294,0.01 0,0 m 0.992,-0.37 c 0.333,0.144 0.504,0.478 0.504,0.945 0,0.621 -0.448,1.16 -1.291,1.16 l -1.695,0 c -0.017,0 -0.045,0.005 -0.045,-0.046 l 0,-1.679 0,-1.668 c 0,-0.052 0,-0.047 0.045,-0.047 l 0.897,0 c 0.039,0 0.044,0.006 0.044,0.047 l 0,0.96 0.632,0.01 c 0,0 0.399,-0.585 0.582,-0.914 0.05,-0.092 0.072,-0.103 0.116,-0.103 l 0.97,0 c 0.061,0 0.078,0.037 0.011,0.139 -0.316,0.478 -0.631,0.986 -0.77,1.196 m -2.982,-0.611 0,-0.652 c 0,-0.062 -0.006,-0.072 -0.061,-0.072 l -2.499,0 c -0.055,0 -0.061,0.01 -0.061,0.072 l 0,3.316 c 0,0.046 -0.006,0.051 0.05,0.051 l 2.477,0 c 0.049,0 0.055,-0.005 0.055,-0.066 l 0,-0.622 c 0,-0.041 -0.017,-0.066 -0.055,-0.066 l -1.568,0.015 0,-0.575 1.534,0 c 0.05,0 0.056,-0.01 0.056,-0.072 l 0,-0.616 c 0,-0.061 -0.006,-0.072 -0.056,-0.072 l -1.534,0 0,-0.59 1.601,0.015 c 0.061,0 0.061,0 0.061,-0.066 m 21.344,2.654 0,-3.404 c 0,0 -0.006,-0.092 -0.067,-0.051 -0.825,0.575 -2.116,1.674 -2.116,1.674 l 0,-1.551 c 0,-0.046 0,-0.046 -0.05,-0.046 l -0.826,0 c -0.039,0 -0.055,0.051 -0.055,0.051 l 0,3.44 c 0,0 0.033,0.051 0.061,0.036 0.781,-0.519 2.122,-1.669 2.122,-1.669 l 0,1.52 c 0,0.056 0,0.061 0.044,0.061 l 0.831,0 c 0.056,0 0.056,-0.061 0.056,-0.061 m -27.95,-2.654 0,-0.652 c 0,-0.062 -0.005,-0.072 -0.061,-0.072 l -2.498,0 c -0.056,0 -0.062,0.01 -0.062,0.072 l 0,3.316 c 0,0.046 -0.005,0.051 0.05,0.051 l 2.477,0 c 0.05,0 0.056,-0.005 0.056,-0.066 l 0,-0.622 C -8.634,1.005 -8.651,0.98 -8.69,0.98 l -1.568,0.015 0,-0.575 1.535,0 c 0.049,0 0.055,-0.01 0.055,-0.072 l 0,-0.616 c 0,-0.061 -0.006,-0.072 -0.055,-0.072 l -1.535,0 0,-0.59 1.601,0.015 c 0.061,0 0.061,0 0.061,-0.066 m 24.378,0 0,-0.652 c 0,-0.062 -0.006,-0.072 -0.061,-0.072 l -2.499,0 c -0.055,0 -0.061,0.01 -0.061,0.072 l 0,3.316 c 0,0.046 -0.006,0.051 0.05,0.051 l 2.477,0 c 0.049,0 0.055,-0.005 0.055,-0.066 l 0,-0.622 c 0,-0.041 -0.017,-0.066 -0.055,-0.066 l -1.569,0.015 0,-0.575 1.535,0 c 0.05,0 0.056,-0.01 0.056,-0.072 l 0,-0.616 c 0,-0.061 -0.006,-0.072 -0.056,-0.072 l -1.535,0 0,-0.59 1.602,0.015 c 0.061,0 0.061,0 0.061,-0.066 m -3.078,2.669 0,-1.678 0,-1.669 c 0,-0.041 -0.006,-0.046 -0.056,-0.046 l -0.908,0 c -0.05,0 -0.05,-0.005 -0.05,0.046 l 0,1.669 0,1.678 c 0,0.051 0,0.046 0.05,0.046 l 0.908,0 c 0.05,0 0.056,-0.005 0.056,-0.046 m -1.471,-0.015 0,-3.404 c 0,0 -0.006,-0.092 -0.067,-0.051 -0.825,0.575 -2.116,1.674 -2.116,1.674 l 0,-1.551 c 0,-0.046 0,-0.046 -0.05,-0.046 l -0.826,0 c -0.038,0 -0.055,0.051 -0.055,0.051 l 0,3.44 c 0,0 0.033,0.051 0.061,0.036 0.781,-0.519 2.122,-1.669 2.122,-1.669 l 0,1.52 c 0,0.056 0,0.061 0.044,0.061 l 0.831,0 c 0.056,0 0.056,-0.061 0.056,-0.061 m -3.571,0.015 0,-1.678 0,-1.669 c 0,-0.041 -0.006,-0.046 -0.055,-0.046 l -0.909,0 c -0.05,0 -0.05,-0.005 -0.05,0.046 l 0,1.669 0,1.678 c 0,0.051 0,0.046 0.05,0.046 l 0.909,0 c 0.049,0 0.055,-0.005 0.055,-0.046 m -1.471,-2.613 0,-0.734 c 0,-0.041 0,-0.046 -0.044,-0.046 l -2.45,0 c -0.049,0 -0.049,-0.005 -0.049,0.046 l 0,1.669 0,1.678 c 0,0.051 0,0.046 0.049,0.046 l 0.887,0 c 0.044,0 0.05,-0.005 0.05,-0.046 l 0,-2.577 1.507,0.016 c 0.045,0 0.05,-0.011 0.05,-0.052 m -19.236,2.676 1.371,0 -4.473,-3.491 0,1.209 0,0.119 -0.096,-0.072 -1.647,-1.258 0,2.637 1.105,0.856 0,-1.491 0,-0.122 0.096,0.076 1.677,1.323 0,-1.191 0,-0.12 0.095,0.074 1.872,1.451 z m 1.371,-0.67 0,-0.149 0,-0.929 0,-1.661 c 0,-0.041 -0.006,-0.046 -0.058,-0.046 l -0.856,0 c -0.051,0 -0.051,-0.005 -0.051,0.046 l -0.003,2.074 0.91,0.711 c 0.052,0 0.058,-0.005 0.058,-0.046 m 6.604,0.59 0,-3.4 c 0,0 -0.005,-0.093 -0.065,-0.052 -0.814,0.574 -2.085,1.672 -2.085,1.672 l 0,-1.549 c 0,-0.046 0,-0.046 -0.049,-0.046 l -0.814,0 c -0.038,0 -0.054,0.051 -0.054,0.051 l 0,3.436 c 0,0 0.032,0.052 0.06,0.036 0.769,-0.518 2.09,-1.666 2.09,-1.666 l 0,1.518 c 0,0.056 0,0.061 0.044,0.061 l 0.819,0 c 0.054,0 0.054,-0.061 0.054,-0.061" />
          </g>
        </g>
      </g>
    </g>
  </g>
</svg>
