<?xml version="1.0" encoding="UTF-8" standalone="no"?>
<!-- Created with Inkscape (http://www.inkscape.org/) -->

<svg
   xmlns:dc="http://purl.org/dc/elements/1.1/"
   xmlns:cc="http://creativecommons.org/ns#"
   xmlns:rdf="http://www.w3.org/1999/02/22-rdf-syntax-ns#"
   xmlns:svg="http://www.w3.org/2000/svg"
   xmlns="http://www.w3.org/2000/svg"
   xmlns:sodipodi="http://sodipodi.sourceforge.net/DTD/sodipodi-0.dtd"
   xmlns:inkscape="http://www.inkscape.org/namespaces/inkscape"
   width="64"
   height="64"
   viewBox="0 0 64.000001 64.000001"
   id="svg4136"
   version="1.1"
   inkscape:version="0.91 r13725"
   inkscape:export-filename="/home/master/network_mvg_logo.png"
   inkscape:export-xdpi="90"
   inkscape:export-ydpi="90"
   sodipodi:docname="network_linz_logo.svg">
  <defs
     id="defs4138">
    <clipPath
       id="clipPath3470"
       clipPathUnits="userSpaceOnUse">
      <path
         inkscape:connector-curvature="0"
         id="path3472"
         d="m 0,0 937.559,0 0,841.89 L 0,841.89 0,0 Z" />
    </clipPath>
    <clipPath
       id="clipPath3506"
       clipPathUnits="userSpaceOnUse">
      <path
         inkscape:connector-curvature="0"
         id="path3508"
         d="m 1119.766,4.513 39.711,0 0,26.33 -39.711,0 0,-26.33 z" />
    </clipPath>
  </defs>
  <sodipodi:namedview
     id="base"
     pagecolor="#ffffff"
     bordercolor="#666666"
     borderopacity="1.0"
     inkscape:pageopacity="1"
     inkscape:pageshadow="2"
     inkscape:zoom="4.0513037"
     inkscape:cx="32.814575"
     inkscape:cy="47.75135"
     inkscape:document-units="px"
     inkscape:current-layer="layer1"
     showgrid="true"
     units="px"
     inkscape:window-width="1920"
     inkscape:window-height="1012"
     inkscape:window-x="1440"
     inkscape:window-y="0"
     inkscape:window-maximized="1"
     showguides="false">
    <inkscape:grid
       type="xygrid"
       id="grid4856"
       enabled="false" />
  </sodipodi:namedview>
  <metadata
     id="metadata4141">
    <rdf:RDF>
      <cc:Work
         rdf:about="">
        <dc:format>image/svg+xml</dc:format>
        <dc:type
           rdf:resource="http://purl.org/dc/dcmitype/StillImage" />
        <dc:title></dc:title>
        <cc:license
           rdf:resource="http://creativecommons.org/publicdomain/zero/1.0/" />
      </cc:Work>
      <cc:License
         rdf:about="http://creativecommons.org/publicdomain/zero/1.0/">
        <cc:permits
           rdf:resource="http://creativecommons.org/ns#Reproduction" />
        <cc:permits
           rdf:resource="http://creativecommons.org/ns#Distribution" />
        <cc:permits
           rdf:resource="http://creativecommons.org/ns#DerivativeWorks" />
      </cc:License>
    </rdf:RDF>
  </metadata>
  <g
     inkscape:label="Ebene 1"
     inkscape:groupmode="layer"
     id="layer1"
     transform="translate(0,-988.36216)">
    <rect
       style="fill:#ffffff;fill-opacity:1;stroke:#01ffff;stroke-width:0;stroke-linecap:butt;stroke-linejoin:miter;stroke-miterlimit:0;stroke-dasharray:none;stroke-opacity:1;fill-rule:nonzero"
       id="rect4267"
       width="63.999992"
       height="64"
       x="2.1617598e-05"
       y="988.36212" />
    <path
       d="m 60.489113,1030.8212 c 0,-0.5314 0.206076,-1.0529 0.819301,-1.0529 0.618231,0 0.861017,0.4947 0.861017,1.0321 0,0.5106 -0.23194,1.0262 -0.835153,1.0262 -0.580686,0 -0.845165,-0.4948 -0.845165,-1.0054 m 2.114164,-2.422 -0.449698,0 0,1.4008 -0.01001,0 c -0.201071,-0.3212 -0.603212,-0.4264 -0.882709,-0.4264 -0.835154,0 -1.247307,0.6475 -1.247307,1.4159 0,0.7684 0.417159,1.4317 1.257318,1.4317 0.375444,0 0.724189,-0.131 0.872698,-0.4314 l 0.01001,0 0,0.3688 0.449698,0 0,-3.7594 z m -5.432251,3.7594 0.448864,0 0,-1.5376 c 0,-0.4898 0.264479,-0.8527 0.808455,-0.8527 0.34374,0 0.554822,0.2161 0.554822,0.5473 l 0,1.843 0.449698,0 0,-1.7904 c 0,-0.584 -0.221929,-0.9946 -0.941112,-0.9946 -0.391295,0 -0.697491,0.1578 -0.887715,0.4948 l -0.01088,0 0,-0.4322 -0.422165,0 0,2.7224 z m -0.729194,-2.7224 -0.448864,0 0,1.5377 c 0,0.4897 -0.264479,0.8527 -0.808455,0.8527 -0.34374,0 -0.555657,-0.2161 -0.555657,-0.5474 l 0,-1.843 -0.448863,0 0,1.7905 c 0,0.584 0.221929,0.9945 0.941112,0.9945 0.390461,0 0.697491,-0.1577 0.887715,-0.4948 l 0.01088,0 0,0.4322 0.422166,0 0,-2.7224 z m -5.433086,2.7224 0.449699,0 0,-0.3638 0.01001,0 c 0.201071,0.3213 0.602378,0.4264 0.88271,0.4264 0.835153,0 1.247307,-0.6474 1.247307,-1.4158 0,-0.7684 -0.41716,-1.4318 -1.257319,-1.4318 -0.375444,0 -0.724189,0.131 -0.872698,0.4314 l -0.01001,0 0,-1.4058 -0.449699,0 0,3.7594 z m 2.114165,-1.385 c 0,0.5315 -0.206077,1.053 -0.819301,1.053 -0.618231,0 -0.861018,-0.4948 -0.861018,-1.0321 0,-0.5106 0.231941,-1.0262 0.835154,-1.0262 0.580686,0 0.845165,0.4947 0.845165,1.0053 m -3.957175,1.385 0.448863,0 0,-1.2114 c 0,-0.6892 0.26448,-1.0996 0.988669,-1.0996 l 0,-0.474 c -0.486409,-0.016 -0.787598,0.1994 -1.004521,0.6366 l -0.01001,0 0,-0.574 -0.423,0 0,2.7224 z m -2.548011,-1.6219 c 0.03171,-0.4155 0.312036,-0.7684 0.782592,-0.7684 0.443858,0 0.766739,0.3421 0.787597,0.7684 l -1.570189,0 z m 1.559343,0.7584 c -0.07926,0.3521 -0.337899,0.5315 -0.708337,0.5315 -0.597372,0 -0.866858,-0.4214 -0.851006,-0.8944 l 2.045751,0 c 0.0267,-0.6583 -0.269485,-1.5586 -1.236461,-1.5586 -0.745881,0 -1.284851,0.6 -1.284851,1.4159 0.0267,0.8318 0.438851,1.4317 1.310715,1.4317 0.613224,0 1.047071,-0.3262 1.168047,-0.9261 l -0.443858,0 z m -2.352779,-1.8589 -0.470557,0 -0.745047,2.2694 -0.01088,0 -0.765905,-2.2694 -0.50226,0 1.014533,2.7224 0.481401,0 0.998681,-2.7224 z m -5.101027,1.8639 c 0.0267,0.6741 0.543976,0.9211 1.1572,0.9211 0.554823,0 1.163041,-0.2102 1.163041,-0.8577 0,-0.5265 -0.443858,-0.6741 -0.893555,-0.7743 -0.41716,-0.1 -0.892722,-0.1526 -0.892722,-0.4738 0,-0.2737 0.312036,-0.3471 0.58152,-0.3471 0.295349,0 0.602379,0.1101 0.634083,0.4581 l 0.448864,0 c -0.03671,-0.6634 -0.517278,-0.8528 -1.120491,-0.8528 -0.475562,0 -1.020372,0.2262 -1.020372,0.7735 0,0.5214 0.449698,0.6691 0.893556,0.7684 0.449698,0.1001 0.893555,0.1585 0.893555,0.5056 0,0.3421 -0.380449,0.4055 -0.660781,0.4055 -0.370437,0 -0.719183,-0.126 -0.735035,-0.5265 l -0.448863,0 z m -1.65362,0.8585 0.449697,0 0,-1.2114 c 0,-0.6892 0.26448,-1.0996 0.987834,-1.0996 l 0,-0.474 c -0.485573,-0.016 -0.786762,0.1994 -1.003686,0.6366 l -0.01088,0 0,-0.574 -0.422999,0 0,2.7224 z m -2.974347,0 0.448863,0 0,-1.5376 c 0,-0.4898 0.264479,-0.8527 0.809289,-0.8527 0.342906,0 0.554823,0.2161 0.554823,0.5473 l 0,1.843 0.448864,0 0,-1.7904 c 0,-0.584 -0.22193,-0.9946 -0.941113,-0.9946 -0.327052,0 -0.713342,0.1369 -0.861017,0.4631 l -0.01088,0 0,-1.4375 -0.448863,0 0,3.7594 z m -2.563028,-1.6219 c 0.03171,-0.4155 0.311201,-0.7684 0.781757,-0.7684 0.443857,0 0.766739,0.3421 0.787597,0.7684 l -1.569354,0 z m 1.558508,0.7584 c -0.07926,0.3521 -0.337899,0.5315 -0.707503,0.5315 -0.597372,0 -0.866857,-0.4214 -0.851005,-0.8944 l 2.044916,0 c 0.0267,-0.6583 -0.269486,-1.5586 -1.236461,-1.5586 -0.745047,0 -1.284017,0.6 -1.284017,1.4159 0.02583,0.8318 0.438018,1.4317 1.310715,1.4317 0.61239,0 1.046236,-0.3262 1.168047,-0.9261 l -0.444692,0 z m -4.654666,0.8635 0.449698,0 0,-1.032 0.422165,-0.3896 0.936106,1.4216 0.570674,0 -1.16304,-1.732 1.08378,-0.9904 -0.602378,0 -1.247307,1.1898 0,-2.2268 -0.449698,0 0,3.7594 z m -1.853857,0 0.448864,0 0,-1.2114 c 0,-0.6892 0.264479,-1.0996 0.988668,-1.0996 l 0,-0.474 c -0.486408,-0.016 -0.787597,0.1994 -1.00452,0.6366 l -0.01001,0 0,-0.574 -0.423,0 0,2.7224 z m -2.547176,-1.6219 c 0.03171,-0.4155 0.312036,-0.7684 0.781757,-0.7684 0.443858,0 0.766739,0.3421 0.787597,0.7684 l -1.569354,0 z m 1.559342,0.7584 c -0.07926,0.3521 -0.338733,0.5315 -0.708337,0.5315 -0.597372,0 -0.866857,-0.4214 -0.851005,-0.8944 l 2.044917,0 c 0.0267,-0.6583 -0.269486,-1.5586 -1.236462,-1.5586 -0.745047,0 -1.284017,0.6 -1.284017,1.4159 0.02583,0.8318 0.438852,1.4317 1.310715,1.4317 0.613225,0 1.046237,-0.3262 1.168048,-0.9261 l -0.443859,0 z m -1.976501,-2.8959 -0.523118,0 -1.088787,3.2588 -0.01088,0 -1.077939,-3.2588 -0.543977,0 1.331574,3.7594 0.570674,0 1.342419,-3.7594 z m -6.249884,3.7594 0.448864,0 0,-1.2114 c 0,-0.6892 0.264479,-1.0996 0.988668,-1.0996 l 0,-0.474 c -0.486408,-0.016 -0.787597,0.1994 -1.00452,0.6366 l -0.01001,0 0,-0.574 -0.423,0 0,2.7224 z m -2.547175,-1.6219 c 0.03171,-0.4155 0.312035,-0.7684 0.781757,-0.7684 0.443857,0 0.766739,0.3421 0.787597,0.7684 l -1.569354,0 z m 1.558508,0.7584 c -0.07926,0.3521 -0.3379,0.5315 -0.707503,0.5315 -0.597373,0 -0.866857,-0.4214 -0.851005,-0.8944 l 2.044915,0 c 0.0267,-0.6583 -0.269485,-1.5586 -1.23646,-1.5586 -0.745047,0 -1.284017,0.6 -1.284017,1.4159 0.02583,0.8318 0.438017,1.4317 1.310715,1.4317 0.613225,0 1.046236,-0.3262 1.168047,-0.9261 l -0.444692,0 z m -5.08434,-2.4746 0.845999,0 c 0.92526,0 1.258153,0.5423 1.258153,1.4375 0,1.3842 -0.92526,1.4793 -1.268999,1.4793 l -0.835153,0 0,-2.9168 z m -0.50226,3.3381 1.295697,0 c 1.257319,0 1.812975,-0.7108 1.812975,-1.969 0,-1.2114 -0.650769,-1.7904 -1.812975,-1.7904 l -1.295697,0 0,3.7594 z"
       id="path6455"
       style="fill:#1a1613;fill-opacity:1;fill-rule:nonzero;stroke:none"
       inkscape:connector-curvature="0" />
    <path
       d="m 8.0037744,1012.8316 c -3.7444233,0 -6.7996994,3.0286 -6.7996994,6.758 0,3.7302 3.0552761,6.758 6.7996994,6.758 3.7452576,0 6.7788416,-3.0278 6.7788416,-6.758 0,-3.7294 -3.033584,-6.758 -6.7788416,-6.758 z m 15.6434816,0 c -3.744424,0 -6.778842,3.0286 -6.778842,6.758 0,3.7302 3.034418,6.758 6.778842,6.758 3.744423,0 6.778841,-3.0278 6.778841,-6.758 0,-3.7294 -3.034418,-6.758 -6.778841,-6.758 z m -15.6434816,3.4207 c 1.8446794,0 3.3372756,1.5001 3.3372756,3.3373 0,1.8372 -1.4925962,3.3164 -3.3372756,3.3164 -1.8438447,0 -3.3581336,-1.4792 -3.3581336,-3.3164 0,-1.8372 1.5142889,-3.3373 3.3581336,-3.3373 z m 15.6434816,0 c 1.844679,0 3.337275,1.5001 3.337275,3.3373 0,1.8372 -1.492596,3.3164 -3.337275,3.3164 -1.84468,0 -3.337276,-1.4792 -3.337276,-3.3164 0,-1.8372 1.492596,-3.3373 3.337276,-3.3373 z"
       id="path6457"
       style="fill:#1a1613;fill-opacity:1;fill-rule:nonzero;stroke:none"
       inkscape:connector-curvature="0" />
    <path
       d="m 21.394594,1008.7643 c -0.797609,0 -1.4392,0.6449 -1.4392,1.4392 0,0.7951 0.641591,1.4392 1.4392,1.4392 0.797609,0 1.439201,-0.6441 1.439201,-1.4392 0,-0.7943 -0.641592,-1.4392 -1.439201,-1.4392 z m 4.484465,0 c -0.797609,0 -1.4392,0.6449 -1.4392,1.4392 0,0.7951 0.641591,1.4392 1.4392,1.4392 0.797609,0 1.460058,-0.6441 1.460058,-1.4392 0,-0.7943 -0.662449,-1.4392 -1.460058,-1.4392 z"
       id="path6465"
       style="fill:#1a1613;fill-opacity:1;fill-rule:nonzero;stroke:none"
       inkscape:connector-curvature="0" />
    <path
       d="m 32.887338,1013.1862 0,10.4916 c 0.02249,1.2806 0.329556,2.5029 2.294377,2.5029 1.963987,0 3.099495,-1.2223 3.983874,-2.5029 l 6.570261,-10.4916 -4.296742,0 -4.713902,8.218 c -0.06094,0.093 -0.125148,0.084 -0.125148,0.084 l 0,-8.3015 -3.71272,0 z m 14.266855,0 0,10.4916 c 0.02249,1.2806 0.33039,2.5029 2.294377,2.5029 1.964821,0 3.100329,-1.2223 3.983873,-2.5029 l 6.570262,-10.4916 -4.296743,0 -4.713902,8.218 c -0.06007,0.093 -0.125148,0.084 -0.125148,0.084 l 0,-8.3015 -3.712719,0 z"
       id="path6461"
       style="fill:#bc191c;fill-opacity:1;stroke:#ffffff;stroke-width:0.36376306;stroke-linecap:butt;stroke-linejoin:miter;stroke-miterlimit:3.86400008;stroke-dasharray:none;stroke-opacity:0;fill-rule:nonzero"
       inkscape:connector-curvature="0" />
  </g>
</svg>
