<?xml version="1.0" encoding="UTF-8" standalone="no"?>
<!-- Created with Inkscape (http://www.inkscape.org/) -->

<svg
   xmlns:dc="http://purl.org/dc/elements/1.1/"
   xmlns:cc="http://creativecommons.org/ns#"
   xmlns:rdf="http://www.w3.org/1999/02/22-rdf-syntax-ns#"
   xmlns:svg="http://www.w3.org/2000/svg"
   xmlns="http://www.w3.org/2000/svg"
   xmlns:sodipodi="http://sodipodi.sourceforge.net/DTD/sodipodi-0.dtd"
   xmlns:inkscape="http://www.inkscape.org/namespaces/inkscape"
   width="96"
   height="96"
   viewBox="0 0 96.000001 96.000002"
   id="svg4136"
   version="1.1"
   inkscape:version="0.91 r13725"
   inkscape:export-filename="/home/master/network_mvg_logo.png"
   inkscape:export-xdpi="90"
   inkscape:export-ydpi="90"
   sodipodi:docname="network_vbb_logo.svg">
  <defs
     id="defs4138">
    <clipPath
       id="clipPath3470"
       clipPathUnits="userSpaceOnUse">
      <path
         inkscape:connector-curvature="0"
         id="path3472"
         d="m 0,0 937.559,0 0,841.89 L 0,841.89 0,0 Z" />
    </clipPath>
    <clipPath
       id="clipPath3506"
       clipPathUnits="userSpaceOnUse">
      <path
         inkscape:connector-curvature="0"
         id="path3508"
         d="m 1119.766,4.513 39.711,0 0,26.33 -39.711,0 0,-26.33 z" />
    </clipPath>
  </defs>
  <sodipodi:namedview
     id="base"
     pagecolor="#ffffff"
     bordercolor="#666666"
     borderopacity="1.0"
     inkscape:pageopacity="1"
     inkscape:pageshadow="2"
     inkscape:zoom="8.5"
     inkscape:cx="32.475287"
     inkscape:cy="48.626159"
     inkscape:document-units="px"
     inkscape:current-layer="layer1"
     showgrid="true"
     units="px"
     inkscape:window-width="1855"
     inkscape:window-height="1056"
     inkscape:window-x="65"
     inkscape:window-y="24"
     inkscape:window-maximized="1"
     showguides="false">
    <inkscape:grid
       type="xygrid"
       id="grid4856" />
  </sodipodi:namedview>
  <metadata
     id="metadata4141">
    <rdf:RDF>
      <cc:Work
         rdf:about="">
        <dc:format>image/svg+xml</dc:format>
        <dc:type
           rdf:resource="http://purl.org/dc/dcmitype/StillImage" />
        <dc:title></dc:title>
        <cc:license
           rdf:resource="http://creativecommons.org/publicdomain/zero/1.0/" />
      </cc:Work>
      <cc:License
         rdf:about="http://creativecommons.org/publicdomain/zero/1.0/">
        <cc:permits
           rdf:resource="http://creativecommons.org/ns#Reproduction" />
        <cc:permits
           rdf:resource="http://creativecommons.org/ns#Distribution" />
        <cc:permits
           rdf:resource="http://creativecommons.org/ns#DerivativeWorks" />
      </cc:License>
    </rdf:RDF>
  </metadata>
  <g
     inkscape:label="Ebene 1"
     inkscape:groupmode="layer"
     id="layer1"
     transform="translate(0,-956.36216)">
    <rect
       style="fill:#ffffff;fill-opacity:1;stroke:#01ffff;stroke-width:0;stroke-linecap:butt;stroke-linejoin:miter;stroke-miterlimit:0;stroke-dasharray:none;stroke-opacity:1"
       id="rect4267"
       width="95.999954"
       height="95.999969"
       x="2.3284263e-05"
       y="956.36218" />
    <path
       d="m 47.816857,1050.2784 c -19.467056,0 -36.139496,-12.0994 -42.8719833,-29.1846 l 11.3690013,0 c 6.00208,11.2102 17.879228,18.8636 31.502982,18.8636 l 0,10.321"
       style="font-size:7px;font-family:fnt3;letter-spacing:0;word-spacing:0;fill:#ec1b24;fill-rule:nonzero;stroke:none;stroke-width:0.56699997;stroke-linecap:butt;stroke-linejoin:miter;stroke-miterlimit:3.86400008;stroke-dasharray:none"
       id="path4090"
       inkscape:connector-curvature="0" />
    <path
       d="m 84.591459,1031.9229 c -2.095974,2.7946 -4.509499,5.3352 -7.177102,7.5582 l -6.637193,-7.9075 c 2.095927,-1.7149 3.937875,-3.6839 5.58923,-5.8433 l 8.225065,6.1926"
       style="font-size:7px;font-family:fnt3;letter-spacing:0;word-spacing:0;fill:#ec1b24;fill-rule:nonzero;stroke:none;stroke-width:0.56699997;stroke-linecap:butt;stroke-linejoin:miter;stroke-miterlimit:3.86400008;stroke-dasharray:none"
       id="path4092"
       inkscape:connector-curvature="0" />
    <path
       d="m 70.491328,1044.3081 c -4.128418,2.3501 -8.669637,4.0649 -13.496692,5.0494 l -2.032492,-10.1305 c 3.715613,-0.7621 7.240636,-2.0959 10.448052,-3.9061 l 5.081132,8.9872"
       style="font-size:7px;font-family:fnt3;letter-spacing:0;word-spacing:0;fill:#ec1b24;fill-rule:nonzero;stroke:none;stroke-width:0.56699997;stroke-linecap:butt;stroke-linejoin:miter;stroke-miterlimit:3.86400008;stroke-dasharray:none"
       id="path4094"
       inkscape:connector-curvature="0" />
    <path
       d="m 25.142335,964.12171 c 4.16018,-2.35005 8.701447,-4.06489 13.496739,-5.04937 l 2.064208,10.1305 c -3.74733,0.76217 -7.272351,2.09592 -10.479817,3.9061 l -5.08113,-8.98723"
       style="font-size:7px;font-family:fnt3;letter-spacing:0;word-spacing:0;fill:#ec1b24;fill-rule:nonzero;stroke:none;stroke-width:0.56699997;stroke-linecap:butt;stroke-linejoin:miter;stroke-miterlimit:3.86400008;stroke-dasharray:none"
       id="path4096"
       inkscape:connector-curvature="0" />
    <path
       d="m 47.816857,958.18316 c 19.467004,0 36.139444,12.0994 42.871931,29.18465 l -11.369003,0 C 73.317706,976.12587 61.440605,968.47243 47.816857,968.47243 l 0,-10.28927"
       style="font-size:7px;font-family:fnt3;letter-spacing:0;word-spacing:0;fill:#ec1b24;fill-rule:nonzero;stroke:none;stroke-width:0.56699997;stroke-linecap:butt;stroke-linejoin:miter;stroke-miterlimit:3.86400008;stroke-dasharray:none"
       id="path4098"
       inkscape:connector-curvature="0" />
    <path
       d="m 11.042249,976.50691 c 2.095925,-2.79462 4.509454,-5.33516 7.177056,-7.55815 l 6.637239,7.90751 c -2.064207,1.71484 -3.937872,3.6838 -5.557512,5.84326 l -8.256783,-6.19262"
       style="font-size:7px;font-family:fnt3;letter-spacing:0;word-spacing:0;fill:#ec1b24;fill-rule:nonzero;stroke:none;stroke-width:0.56699997;stroke-linecap:butt;stroke-linejoin:miter;stroke-miterlimit:3.86400008;stroke-dasharray:none"
       id="path4100"
       inkscape:connector-curvature="0" />
    <path
       d="m 55.40676,1009.4389 c -1.11149,5.0176 -5.144611,7.0818 -9.971717,7.0818 l -10.098682,0 5.620946,-24.7704 9.654161,0 c 5.335157,0 7.907462,2.25475 6.986515,6.31963 -0.698644,3.17567 -2.477012,4.79527 -4.541219,5.65277 2.064207,0.9527 2.985158,2.9534 2.349996,5.7162 z m -11.750085,1.8737 1.143257,-5.0494 1.810134,0 c 1.524346,0 2.19122,0.8575 1.810135,2.5089 -0.381086,1.6831 -1.556062,2.5405 -3.334477,2.5405 l -1.429049,0 z m 24.294111,-9.7494 1.047963,-4.73177 1.492579,0 c 1.365566,0 2.19122,0.69864 1.810182,2.28647 -0.412805,1.8737 -1.841949,2.4453 -3.366243,2.4453 l -0.984481,0 z m 9.558865,7.8757 c -1.143257,5.0176 -5.176425,7.0818 -10.003481,7.0818 l -10.098733,0 5.620997,-24.7704 9.654114,0 c 5.335204,0 7.939273,2.25475 6.986559,6.31963 -0.698641,3.17567 -2.477059,4.79527 -4.541266,5.65277 2.064207,0.9527 2.985157,2.9534 2.38181,5.7162 z m -11.781852,1.8737 1.14326,-5.0494 1.841898,0 c 1.492579,0 2.159457,0.8575 1.778371,2.5089 -0.381089,1.6831 -1.556061,2.5405 -3.33448,2.5405 l -1.429049,0 z m -34.837457,-19.5623 8.034523,0 -13.147371,24.7704 -8.066288,0 -1.96896,-24.7704 8.193348,0 0.09515,14.894 6.8595,-14.894 z m 14.989316,9.8129 1.047964,-4.73177 1.492579,0 c 1.365566,0 2.191267,0.69864 1.810181,2.28647 -0.412801,1.8737 -1.841897,2.4453 -3.366243,2.4453 l -0.984481,0"
       style="font-size:7px;font-family:fnt3;letter-spacing:0;word-spacing:0;fill:#ec1b24;fill-rule:evenodd;stroke:none;stroke-width:0.56699997;stroke-linecap:butt;stroke-linejoin:miter;stroke-miterlimit:3.86400008;stroke-dasharray:none"
       id="path4102"
       inkscape:connector-curvature="0" />
  </g>
</svg>
