<?xml version="1.0" encoding="UTF-8" standalone="no"?>
<!-- Created with Inkscape (http://www.inkscape.org/) -->

<svg
   xmlns:dc="http://purl.org/dc/elements/1.1/"
   xmlns:cc="http://creativecommons.org/ns#"
   xmlns:rdf="http://www.w3.org/1999/02/22-rdf-syntax-ns#"
   xmlns:svg="http://www.w3.org/2000/svg"
   xmlns="http://www.w3.org/2000/svg"
   xmlns:sodipodi="http://sodipodi.sourceforge.net/DTD/sodipodi-0.dtd"
   xmlns:inkscape="http://www.inkscape.org/namespaces/inkscape"
   version="1.1"
   width="291.87"
   height="291.87"
   id="svg2"
   xml:space="preserve"
   inkscape:version="0.48.4 r9939"
   sodipodi:docname="network_vvv_logo.svg"
   inkscape:export-filename="J:\privat\Transportr\res\drawable-xhdpi\network_vvv_logo.png"
   inkscape:export-xdpi="29.6"
   inkscape:export-ydpi="29.6"><sodipodi:namedview
     pagecolor="#ffffff"
     bordercolor="#666666"
     borderopacity="1"
     objecttolerance="10"
     gridtolerance="10"
     guidetolerance="10"
     inkscape:pageopacity="0"
     inkscape:pageshadow="2"
     inkscape:window-width="1920"
     inkscape:window-height="1028"
     id="namedview62"
     showgrid="false"
     inkscape:zoom="0.86899859"
     inkscape:cx="145.93312"
     inkscape:cy="135.78848"
     inkscape:window-x="-8"
     inkscape:window-y="-8"
     inkscape:window-maximized="1"
     inkscape:current-layer="svg2" /><metadata
     id="metadata8"><rdf:RDF><cc:Work
         rdf:about=""><dc:format>image/svg+xml</dc:format><dc:type
           rdf:resource="http://purl.org/dc/dcmitype/StillImage" /><dc:title></dc:title></cc:Work></rdf:RDF></metadata><defs
     id="defs6"><clipPath
       id="clipPath20"><path
         d="m 24.836,270.075 235.012,0 0,217.602 -235.012,0 0,-217.602 z"
         id="path22"
         inkscape:connector-curvature="0" /></clipPath></defs><g
     transform="matrix(1.25,0,0,-1.25,-32.03375,621.85374)"
     id="g10"><g
       id="g12"><path
         d="m 72.523,339.344 c 82.18,47.782 164.989,16.032 164.989,16.032 -61.977,39.488 -109.68,34.394 -143.574,16.535 L 72.523,339.344 z"
         id="path14"
         style="fill:#ed1c24;fill-opacity:1;fill-rule:nonzero;stroke:#ffffff;stroke-width:0.87199998;stroke-linecap:butt;stroke-linejoin:miter;stroke-miterlimit:3.86400008;stroke-opacity:1;stroke-dasharray:none"
         inkscape:connector-curvature="0" /><g
         id="g16"><g
           clip-path="url(#clipPath20)"
           id="g18"><path
             d="m 51.293,310.255 c 91.047,79.296 196.672,38.793 196.672,38.793 -80.219,51.113 -136.543,27.543 -169.934,-1.739 L 51.293,310.255 z"
             id="path24"
             style="fill:#fddd04;fill-opacity:1;fill-rule:nonzero;stroke:#ffffff;stroke-width:0.87199998;stroke-linecap:butt;stroke-linejoin:miter;stroke-miterlimit:3.86400008;stroke-opacity:1;stroke-dasharray:none"
             inkscape:connector-curvature="0" /><path
             d="m 26.063,310.313 c 0,0 59.812,163.36 101.992,176.66 7.152,2.254 25.648,-12.007 27.183,-17.218 0.242,-0.836 1.086,-3.133 -5.41,-7.879 -10.332,-7.543 -28.5,-20.672 -42.988,-37.68 C 71.219,382.391 26.063,310.313 26.063,310.313"
             id="path26"
             style="fill:#ed1c24;fill-opacity:1;fill-rule:nonzero;stroke:none"
             inkscape:connector-curvature="0" /></g></g><path
         d="m 26.063,310.313 c 0,0 59.812,163.36 101.992,176.66 7.152,2.254 25.648,-12.007 27.183,-17.218 0.242,-0.836 1.086,-3.133 -5.41,-7.879 -10.332,-7.543 -28.5,-20.672 -42.988,-37.68 C 71.219,382.391 26.063,310.313 26.063,310.313 z"
         id="path28"
         style="fill:none;stroke:#ffffff;stroke-width:0.87199998;stroke-linecap:butt;stroke-linejoin:miter;stroke-miterlimit:3.86400008;stroke-opacity:1;stroke-dasharray:none"
         inkscape:connector-curvature="0" /><path
         d="m 36.035,304.524 c 0,0 59.817,163.36 101.992,176.66 7.157,2.254 25.653,-12.007 27.184,-17.218 0.242,-0.836 1.086,-3.133 -5.41,-7.879 -10.332,-7.543 -28.5,-20.672 -42.988,-37.68 C 81.191,376.602 36.035,304.524 36.035,304.524"
         id="path30"
         style="fill:#fddd04;fill-opacity:1;fill-rule:nonzero;stroke:none"
         inkscape:connector-curvature="0" /><path
         d="m 36.035,304.524 c 0,0 59.817,163.36 101.992,176.66 7.157,2.254 25.653,-12.008 27.184,-17.218 0.242,-0.836 1.086,-3.133 -5.41,-7.879 -10.332,-7.543 -28.5,-20.672 -42.988,-37.68 C 81.191,376.602 36.035,304.524 36.035,304.524 z"
         id="path32"
         style="fill:none;stroke:#ffffff;stroke-width:0.87199998;stroke-linecap:butt;stroke-linejoin:miter;stroke-miterlimit:3.86400008;stroke-opacity:1;stroke-dasharray:none"
         inkscape:connector-curvature="0" /><path
         d="m 46.008,298.735 c 0,0 59.812,163.359 101.992,176.66 7.152,2.254 25.648,-12.008 27.184,-17.215 0.242,-0.836 1.086,-3.136 -5.411,-7.882 -10.332,-7.543 -28.5,-20.672 -42.988,-37.68 C 91.164,370.813 46.008,298.735 46.008,298.735"
         id="path34"
         style="fill:#00564d;fill-opacity:1;fill-rule:nonzero;stroke:none"
         inkscape:connector-curvature="0" /><path
         d="m 46.008,298.735 c 0,0 59.812,163.359 101.992,176.66 7.152,2.254 25.648,-12.008 27.184,-17.215 0.242,-0.836 1.086,-3.136 -5.411,-7.882 -10.332,-7.543 -28.5,-20.672 -42.988,-37.68 C 91.164,370.813 46.008,298.735 46.008,298.735 z"
         id="path36"
         style="fill:none;stroke:#ffffff;stroke-width:0.87199998;stroke-linecap:butt;stroke-linejoin:miter;stroke-miterlimit:3.86400008;stroke-opacity:1;stroke-dasharray:none"
         inkscape:connector-curvature="0" /><path
         d="m 51.898,294.368 c 93.141,91.754 206.786,48.18 206.786,48.18 -139.551,88.918 -206.786,-48.18 -206.786,-48.18"
         id="path38"
         style="fill:#00564d;fill-opacity:1;fill-rule:evenodd;stroke:none"
         inkscape:connector-curvature="0" /><path
         d="m 51.898,294.368 c 93.141,91.754 206.786,48.18 206.786,48.18 -139.551,88.918 -206.786,-48.18 -206.786,-48.18 z"
         id="path40"
         style="fill:none;stroke:#ffffff;stroke-width:0.87199998;stroke-linecap:butt;stroke-linejoin:miter;stroke-miterlimit:3.86400008;stroke-opacity:1;stroke-dasharray:none"
         inkscape:connector-curvature="0" /><path
         d="m 118.77,294.485 -4.317,0 -7.176,-14.195 -0.054,0 -1.246,14.195 -4.157,0 2.172,-18.906 4.692,0"
         id="path42"
         style="fill:#00564d;fill-opacity:1;fill-rule:nonzero;stroke:none"
         inkscape:connector-curvature="0" /><path
         d="m 115.879,281.11 c 0,-3.918 2.465,-5.902 6.277,-5.902 4.981,0 7.973,3.812 7.973,8.633 0,3.941 -2.625,5.8 -6.383,5.8 -4.875,0 -7.867,-3.894 -7.867,-8.531 m 3.762,0 c 0,2.305 1.218,5.695 3.972,5.695 1.957,0 2.754,-1.191 2.754,-3.015 0,-2.305 -1.219,-5.75 -4.027,-5.75 -1.774,0 -2.699,1.457 -2.699,3.07"
         id="path44"
         style="fill:#00564d;fill-opacity:1;fill-rule:evenodd;stroke:none"
         inkscape:connector-curvature="0" /><path
         d="m 139.363,286.805 c 1.828,0 2.7,-1.242 2.7,-2.968 0,-2.328 -1.293,-5.215 -3.997,-5.215 -1.746,0 -2.543,1.402 -2.543,3.019 0,2.196 1.325,5.164 3.84,5.164 m 7.578,2.465 -3.605,0 -0.422,-2.093 -0.055,0 c -0.765,1.8 -2.304,2.46 -4.183,2.46 -4.395,0 -6.91,-4.261 -6.91,-8.261 0,-3.364 2.011,-5.586 5.265,-5.586 1.535,0 2.785,0.637 3.766,1.933 l 0.051,-0.054 c -0.743,-2.676 -1.43,-4.766 -3.817,-4.766 -1.215,0 -2.515,0.582 -2.461,1.957 l -3.757,0 c 0,-3.281 3.07,-4.473 5.851,-4.473 4.527,0 6.621,1.747 7.547,5.907"
         id="path46"
         style="fill:#00564d;fill-opacity:1;fill-rule:evenodd;stroke:none"
         inkscape:connector-curvature="0" /><path
         d="m 155.699,293.427 -3.761,0 -0.848,-4.157 -2.41,0 -0.582,-2.515 2.465,0 -1.536,-7.336 c -0.109,-0.481 -0.187,-0.957 -0.187,-1.301 -0.051,-2.223 1.828,-2.781 3.574,-2.781 0.797,0 1.59,0.054 2.356,0.132 l 0.636,2.915 c -0.445,-0.055 -0.898,-0.079 -1.351,-0.079 -0.555,0 -1.266,0.024 -1.266,1.004 0,0.11 0.051,0.344 0.102,0.637 l 1.406,6.809 2.676,0 0.578,2.515 -2.699,0"
         id="path48"
         style="fill:#00564d;fill-opacity:1;fill-rule:nonzero;stroke:none"
         inkscape:connector-curvature="0" /><path
         d="m 156.965,275.575 3.762,0 4.023,18.91 -3.762,0"
         id="path50"
         style="fill:#00564d;fill-opacity:1;fill-rule:nonzero;stroke:none"
         inkscape:connector-curvature="0" /><path
         d="m 173.301,280.821 c -0.426,-1.484 -1.196,-3.102 -3.528,-3.102 -1.082,0 -2.062,0.504 -2.062,1.54 0,1.722 1.352,2.066 2.781,2.222 1.086,0.078 2.223,0.11 3.18,0.664 l -0.371,-1.324 z m -4.055,4.293 c 0.242,1.375 1.434,2.012 2.781,2.012 0.957,0 2.383,-0.321 2.383,-1.668 0,-1.75 -1.668,-1.567 -5.215,-1.989 -3.261,-0.398 -5.242,-2.039 -5.242,-4.66 0,-1.91 1.453,-3.605 4.445,-3.605 1.536,0 3.153,0.558 4.184,1.726 l 0,-1.355 3.762,0 c -0.082,0.242 -0.133,0.559 -0.133,0.797 0,0.527 0.051,1.375 0.187,1.851 l 1.219,5.508 c 0.156,0.848 0.289,1.727 0.289,2.305 0.055,3.074 -3.254,3.605 -5.691,3.605 -3.098,0 -6.012,-1.089 -6.492,-4.527"
         id="path52"
         style="fill:#00564d;fill-opacity:1;fill-rule:evenodd;stroke:none"
         inkscape:connector-curvature="0" /><path
         d="m 179.016,275.575 3.761,0 1.536,7.285 c 0.394,1.906 1.562,3.813 3.839,3.813 0.875,0 1.801,-0.582 1.801,-1.403 0,-0.371 -0.133,-1.273 -0.238,-1.668 l -1.668,-8.027 3.762,0 1.695,8.027 c 0.105,0.473 0.394,1.797 0.394,2.356 0,2.383 -1.402,3.683 -4,3.683 -1.957,0 -3.574,-0.769 -4.789,-2.281 l -0.054,0 0.422,1.91 -3.602,0"
         id="path54"
         style="fill:#00564d;fill-opacity:1;fill-rule:nonzero;stroke:none"
         inkscape:connector-curvature="0" /><path
         d="m 204.781,275.575 3.625,0 4,18.91 -3.758,0 -1.511,-7.043 -0.055,0 c -0.582,1.508 -2.25,2.199 -3.84,2.199 -5.058,0 -7.465,-4.531 -7.465,-9.031 0,-3.285 1.93,-5.406 5.215,-5.406 1.668,0 3.258,0.637 4.102,2.121 l 0.058,-0.051 -0.371,-1.699 z m -1.14,11.23 c 1.828,0 2.703,-1.214 2.703,-2.964 0,-2.36 -1.324,-5.801 -4.133,-5.801 -1.777,0 -2.676,1.406 -2.676,3.043 0,2.414 1.274,5.722 4.106,5.722"
         id="path56"
         style="fill:#00564d;fill-opacity:1;fill-rule:evenodd;stroke:none"
         inkscape:connector-curvature="0" /><path
         d="m 140.844,318.024 -4.317,0 -7.175,-14.195 -0.055,0 -1.246,14.195 -4.156,0 2.171,-18.91 4.684,0"
         id="path58"
         style="fill:#00564d;fill-opacity:1;fill-rule:nonzero;stroke:none"
         inkscape:connector-curvature="0" /><path
         d="m 151.988,305.048 c 0.133,0.664 0.211,1.402 0.211,2.144 0,3.969 -2.566,5.985 -6.383,5.985 -4.66,0 -7.546,-4.079 -7.546,-8.446 0,-3.898 2.441,-5.988 6.089,-5.988 3.95,0 5.911,1.644 7.102,4.715 l -3.766,0 c -0.554,-0.875 -1.293,-1.879 -2.8,-1.879 -2.043,0 -3.024,1.082 -3.024,2.672 0,0.211 0,0.453 0.031,0.797 l 10.086,0 z m -9.691,2.382 c 0.555,1.536 1.617,2.911 3.73,2.911 2.203,0 2.547,-1.508 2.547,-2.911"
         id="path60"
         style="fill:#00564d;fill-opacity:1;fill-rule:evenodd;stroke:none"
         inkscape:connector-curvature="0" /><path
         d="m 152.887,299.114 3.761,0 1.27,6.063 c 0.504,2.332 1.535,4.503 4.426,4.503 0.527,0 1.054,-0.128 1.586,-0.238 l 0.769,3.656 c -0.398,0.051 -0.769,0.079 -1.168,0.079 -2.011,0 -3.863,-1.008 -4.711,-2.887 l -0.054,0.051 0.558,2.464 -3.578,0"
         id="path62"
         style="fill:#00564d;fill-opacity:1;fill-rule:nonzero;stroke:none"
         inkscape:connector-curvature="0" /><path
         d="m 172.109,310.344 c 1.93,0 2.676,-1.324 2.676,-3.046 0,-2.36 -1.191,-5.719 -4.027,-5.719 -1.723,0 -2.731,1.215 -2.731,2.883 0,2.437 1.141,5.882 4.082,5.882 m -8.925,-11.23 3.468,0 0.453,2.145 0.051,0 c 0.66,-1.907 2.407,-2.516 4.289,-2.516 4.664,0 7.098,4.371 7.098,8.609 0,3.176 -1.453,5.825 -4.926,5.825 -1.801,0 -2.887,-0.559 -4.054,-1.825 l -0.051,0 1.406,6.672 -3.762,0"
         id="path64"
         style="fill:#00564d;fill-opacity:1;fill-rule:evenodd;stroke:none"
         inkscape:connector-curvature="0" /><path
         d="m 195.195,312.805 -3.757,0 -1.536,-7.285 c -0.398,-1.902 -1.566,-3.808 -3.839,-3.808 -0.879,0 -1.801,0.582 -1.801,1.402 0,0.371 0.133,1.273 0.234,1.668 l 1.668,8.023 -3.758,0 -1.699,-8.023 c -0.102,-0.477 -0.394,-1.801 -0.394,-2.355 0,-2.383 1.402,-3.684 4,-3.684 1.96,0 3.574,0.766 4.792,2.277 l 0.051,0 -0.418,-1.906 3.598,0"
         id="path66"
         style="fill:#00564d;fill-opacity:1;fill-rule:nonzero;stroke:none"
         inkscape:connector-curvature="0" /><path
         d="m 195.535,299.114 3.762,0 1.535,7.285 c 0.395,1.903 1.563,3.813 3.84,3.813 0.875,0 1.801,-0.586 1.801,-1.407 0,-0.367 -0.133,-1.269 -0.239,-1.668 l -1.668,-8.023 3.762,0 1.692,8.023 c 0.109,0.477 0.402,1.801 0.402,2.356 0,2.387 -1.406,3.684 -4,3.684 -1.961,0 -3.578,-0.766 -4.793,-2.278 l -0.059,0 0.426,1.906 -3.601,0"
         id="path68"
         style="fill:#00564d;fill-opacity:1;fill-rule:nonzero;stroke:none"
         inkscape:connector-curvature="0" /><path
         d="m 221.301,299.114 3.625,0 4,18.91 -3.758,0 -1.512,-7.047 -0.054,0 c -0.582,1.508 -2.25,2.2 -3.84,2.2 -5.055,0 -7.465,-4.532 -7.465,-9.032 0,-3.281 1.93,-5.402 5.215,-5.402 1.668,0 3.258,0.637 4.105,2.121 l 0.055,-0.055 -0.371,-1.695 z m -1.141,11.227 c 1.828,0 2.703,-1.215 2.703,-2.961 0,-2.364 -1.324,-5.801 -4.133,-5.801 -1.773,0 -2.675,1.402 -2.675,3.043 0,2.414 1.273,5.719 4.105,5.719"
         id="path70"
         style="fill:#00564d;fill-opacity:1;fill-rule:evenodd;stroke:none"
         inkscape:connector-curvature="0" /><path
         d="m 162.914,341.559 -4.312,0 -7.18,-14.195 -0.055,0 -1.242,14.195 -4.156,0 2.172,-18.906 4.687,0"
         id="path72"
         style="fill:#00564d;fill-opacity:1;fill-rule:nonzero;stroke:none"
         inkscape:connector-curvature="0" /><path
         d="m 174.063,328.583 c 0.132,0.664 0.21,1.406 0.21,2.144 0,3.973 -2.566,5.989 -6.382,5.989 -4.661,0 -7.551,-4.079 -7.551,-8.45 0,-3.894 2.441,-5.988 6.094,-5.988 3.949,0 5.906,1.645 7.101,4.719 l -3.765,0 c -0.555,-0.875 -1.297,-1.883 -2.805,-1.883 -2.039,0 -3.02,1.086 -3.02,2.676 0,0.211 0,0.449 0.028,0.793 l 10.09,0 z m -9.692,2.386 c 0.555,1.536 1.613,2.911 3.731,2.911 2.199,0 2.543,-1.508 2.543,-2.911"
         id="path74"
         style="fill:#00564d;fill-opacity:1;fill-rule:evenodd;stroke:none"
         inkscape:connector-curvature="0" /><path
         d="m 174.961,322.653 3.758,0 1.273,6.063 c 0.504,2.332 1.535,4.503 4.422,4.503 0.531,0 1.059,-0.132 1.59,-0.238 l 0.766,3.656 c -0.395,0.051 -0.766,0.079 -1.165,0.079 -2.015,0 -3.867,-1.008 -4.714,-2.887 l -0.051,0.051 0.555,2.464 -3.575,0"
         id="path76"
         style="fill:#00564d;fill-opacity:1;fill-rule:nonzero;stroke:none"
         inkscape:connector-curvature="0" /><path
         d="m 185.258,322.653 3.758,0 0.929,4.445 1.961,1.668 2.25,-6.113 4.129,0 -3.519,8.5 6.144,5.191 -4.637,0 -5.402,-5.113 -0.055,0.051 2.172,10.277 -3.758,0"
         id="path78"
         style="fill:#00564d;fill-opacity:1;fill-rule:nonzero;stroke:none"
         inkscape:connector-curvature="0" /><path
         d="m 214.277,328.583 c 0.133,0.664 0.211,1.406 0.211,2.144 0,3.973 -2.566,5.989 -6.383,5.989 -4.66,0 -7.546,-4.079 -7.546,-8.45 0,-3.894 2.437,-5.988 6.089,-5.988 3.95,0 5.911,1.645 7.102,4.719 l -3.766,0 c -0.554,-0.875 -1.296,-1.883 -2.804,-1.883 -2.039,0 -3.02,1.086 -3.02,2.676 0,0.211 0,0.449 0.024,0.793 l 10.093,0 z m -9.691,2.386 c 0.555,1.536 1.613,2.911 3.73,2.911 2.2,0 2.543,-1.508 2.543,-2.911"
         id="path80"
         style="fill:#00564d;fill-opacity:1;fill-rule:evenodd;stroke:none"
         inkscape:connector-curvature="0" /><path
         d="m 215.176,322.653 3.758,0 1.535,7.281 c 0.398,1.907 1.566,3.813 3.844,3.813 0.875,0 1.796,-0.582 1.796,-1.403 0,-0.371 -0.129,-1.273 -0.234,-1.667 l -1.668,-8.024 3.758,0 1.699,8.024 c 0.102,0.476 0.395,1.8 0.395,2.355 0,2.383 -1.403,3.684 -4,3.684 -2.465,0 -3.946,-1.168 -4.528,-1.961 l -0.051,0 1.403,6.804 -3.766,0"
         id="path82"
         style="fill:#00564d;fill-opacity:1;fill-rule:nonzero;stroke:none"
         inkscape:connector-curvature="0" /><path
         d="m 231.352,322.653 3.757,0 1.274,6.063 c 0.504,2.332 1.535,4.503 4.422,4.503 0.531,0 1.058,-0.132 1.59,-0.238 l 0.769,3.656 c -0.402,0.051 -0.769,0.079 -1.164,0.079 -2.016,0 -3.871,-1.008 -4.719,-2.887 l -0.051,0.051 0.555,2.464 -3.574,0"
         id="path84"
         style="fill:#00564d;fill-opacity:1;fill-rule:nonzero;stroke:none"
         inkscape:connector-curvature="0" /><path
         d="m 254.785,332.344 c 0.051,3.524 -2.621,4.368 -5.617,4.368 -2.648,0 -6.066,-1.114 -6.066,-4.34 0,-2.149 1.089,-2.887 2.968,-3.496 l 2.887,-0.926 c 0.824,-0.266 1.352,-0.559 1.352,-1.508 0,-1.25 -1.246,-1.644 -2.387,-1.644 -1.293,0 -2.699,0.605 -2.699,1.855 l 0,0.445 -3.496,0 0,-0.554 c 0,-3.203 3.152,-4.262 5.828,-4.262 3.148,0 6.511,1.27 6.511,4.66 0,2.301 -1.586,3.258 -3.597,3.918 l -1.883,0.613 c -1.27,0.395 -1.723,0.762 -1.723,1.375 0,0.981 0.981,1.348 2.305,1.348 1.43,0 2.09,-0.687 2.121,-1.852"
         id="path86"
         style="fill:#00564d;fill-opacity:1;fill-rule:nonzero;stroke:none"
         inkscape:connector-curvature="0" /><path
         d="m 124.078,401.63 c -0.14,-0.832 -1.82,-1.368 -0.574,-2.25 -0.199,-2.571 -0.082,-5.934 2.141,-7.621 1.207,-0.286 2.261,-0.122 3.414,0.335 0.425,0.356 1.414,0.911 1.046,1.536 -0.898,-0.766 -1.894,-1.274 -3.027,-1.496 -1.355,0.031 -2.172,1.402 -2.496,2.511 0.199,0.84 1.047,0.731 1.602,1.067 1.343,0.562 3.992,0.09 4.464,1.847 -0.347,0.86 -0.777,0.168 -0.976,-0.281 -1.145,-0.512 -2.656,-0.418 -3.738,-0.922 -1.246,-0.531 -1.895,-0.363 -1.813,1.192 -1.168,4.363 4.469,2.757 6.449,4.421 -0.09,0.051 -0.101,0.114 -0.164,0.102 -2.074,-0.121 -4.375,-1.09 -6.328,-0.441"
         id="path88"
         style="fill:#00564d;fill-opacity:1;fill-rule:nonzero;stroke:none"
         inkscape:connector-curvature="0" /><path
         d="m 133.336,400.18 c -0.008,-2.793 -1.695,-5.73 0.141,-8.359 2.757,-0.055 3.367,2.875 4.304,4.852 -1.465,-1.051 -1.824,-3.325 -3.504,-4.153 -1.507,1.676 -0.605,4.266 -0.25,6.235 -0.007,0.41 0.403,1.972 -0.691,1.425 m 1.332,4.645 c -0.332,-0.492 0.52,-0.863 0.625,-1.203 0.004,0.293 0.289,0.492 0.117,0.887 -0.238,0.093 -0.347,0.488 -0.742,0.316"
         id="path90"
         style="fill:#00564d;fill-opacity:1;fill-rule:evenodd;stroke:none"
         inkscape:connector-curvature="0" /><path
         d="m 138.934,400.333 c -0.082,0.301 -0.332,0.039 -0.43,0.277 -0.93,-2.328 -0.785,-5.219 -1.535,-7.758 0.183,-0.238 0.461,-0.093 0.699,-0.242 0.824,2.301 2.051,4.774 4.133,6.422 0.402,-1.602 0.195,-2.746 0.605,-4.523 0.063,-0.926 1.266,-1.313 2.035,-0.848 1.102,0.754 1.911,2.433 2.247,3.512 -0.887,-0.887 -1.973,-2.692 -3.286,-2.782 -1.203,1.645 0.071,3.996 -1.074,5.664 -1.476,-0.64 -2.844,-1.988 -3.535,-3.621 -0.191,0.11 -0.258,-0.347 -0.406,-0.027 0.215,1.348 0.351,2.637 0.547,3.926 -0.332,-2.578 -0.196,-1.289 0,0"
         id="path92"
         style="fill:#00564d;fill-opacity:1;fill-rule:evenodd;stroke:none"
         inkscape:connector-curvature="0" /><path
         d="m 152.395,406.735 c -3.286,0.289 -3.122,-3.879 -4.676,-5.848 -1.153,-0.101 -4.11,1.051 -3.656,-0.902 0.988,0.738 2.609,0.27 3.468,-0.183 -0.676,-2.649 -1.578,-6.524 -2.519,-9.133 0.449,-0.145 0.758,-0.328 1.086,0.125 0.429,2.871 1.433,6.629 2.316,9.297 1.191,0.164 2.891,0.121 4.164,0.695 l 0,0.41 c -1.273,-0.082 -2.254,-0.41 -3.75,-0.309 0.281,1.684 0.899,3.528 2.172,4.868 0.535,0.57 1.578,0.57 1.848,-0.231 0.121,-1.207 0.222,-0.758 0.41,0.106 -0.289,0.347 -0.41,0.8 -0.863,1.105"
         id="path94"
         style="fill:#00564d;fill-opacity:1;fill-rule:nonzero;stroke:none"
         inkscape:connector-curvature="0" /><path
         d="m 151.961,397.942 c -0.328,-1.195 -1.348,-2.598 -0.875,-3.734 2.113,0.75 3.727,2.867 5.637,4.039 -0.305,-1.485 -0.868,-3.18 -0.957,-4.965 0.265,-0.363 0.664,-0.672 1.203,-0.594 0.469,0.324 1.711,0.957 1.441,1.731 -0.734,0.039 -1.004,-0.77 -1.656,-0.614 -0.227,1.868 0.586,3.282 1.199,4.789 0.102,0.797 1.352,0.688 0.953,1.739 -2.105,1.383 -5.5,0.121 -6.945,-2.391 m 5.102,1.684 c -1.606,-1.231 -3.192,-2.852 -5.036,-3.887 0.344,1.465 1.469,2.902 2.805,3.715 0.691,0.254 2.176,1.101 2.231,0.172"
         id="path96"
         style="fill:#00564d;fill-opacity:1;fill-rule:evenodd;stroke:none"
         inkscape:connector-curvature="0" /><path
         d="m 163.473,400.098 c -3.094,-0.964 -3.782,-4.14 -4.746,-6.671 0.914,-0.657 2.136,-0.067 3.183,0.136 1.254,0.875 3.453,1.551 3.586,3.043 -1.75,-1.351 -3.711,-2.644 -5.781,-2.461 0.699,2.102 1.89,4.594 4.203,5.192 0.902,0.148 1.184,-2.512 1.371,-0.387 -0.105,0.914 -0.988,1.18 -1.816,1.148"
         id="path98"
         style="fill:#00564d;fill-opacity:1;fill-rule:nonzero;stroke:none"
         inkscape:connector-curvature="0" /><path
         d="m 171,406.684 c -1.953,-4.742 -4.367,-9.418 -5.922,-14.273 0.27,-0.309 0.715,-0.098 1.02,0.168 0.996,2.058 2.738,4.152 4.648,5.23 -0.531,-1.273 -0.336,-2.832 -0.562,-4.027 0.156,-0.516 0.332,-1.305 1.25,-1.145 1.304,0.747 2.586,1.915 3.039,3.055 -1.012,-1 -2.063,-1.68 -3.328,-2.144 -0.457,1.472 0.433,3.089 0.617,4.386 -0.125,0.434 0.078,1.442 -0.821,1.239 -1.222,-1.176 -2.636,-2.532 -3.91,-3.637 1.086,2.996 2.403,6.187 3.965,9.055 -0.008,0.683 1.137,1.75 0.004,2.093"
         id="path100"
         style="fill:#00564d;fill-opacity:1;fill-rule:nonzero;stroke:none"
         inkscape:connector-curvature="0" /><path
         d="m 183.012,396.505 c -2.071,0.093 -3.832,-1.707 -4.555,-3.43 0.09,-0.574 -1.066,-1.828 0.164,-2.219 1.863,0.508 3.192,1.762 4.703,2.403 -2.152,-3.375 -4.433,-7.016 -8.804,-8.336 -1.36,-0.192 -2.379,0.718 -2.911,1.972 -0.683,1.332 0.032,2.508 0.957,3.336 -0.496,0.125 -0.929,-0.426 -1.414,-0.664 -0.507,-1.101 -0.429,-2.492 0.34,-3.637 0.586,-1.054 1.824,-1.511 2.863,-1.668 5.219,1.067 7.657,5.938 10.563,9.614 2.539,1.883 -0.66,2.023 -1.906,2.629 m 0.953,-1.778 c -1.281,-0.465 -7.317,-5.515 -4.004,-0.633 1.207,0.782 2.437,2.145 4.129,1.129 0.328,-0.211 -0.086,-0.336 -0.125,-0.496"
         id="path102"
         style="fill:#00564d;fill-opacity:1;fill-rule:evenodd;stroke:none"
         inkscape:connector-curvature="0" /><path
         d="m 192.793,394.048 c -1.742,-1.766 -4.453,-3.059 -6.82,-3.707 0.644,1.472 1.207,3.32 1.984,4.453 -1.586,-0.051 -2.078,-2.793 -2.75,-4.219 -0.168,-0.551 -0.668,-1.555 0.359,-1.57 1.911,0.703 3.606,2.113 5.555,2.937 -0.16,-0.726 -0.672,-1.769 -0.707,-2.66 -0.121,-0.824 0.566,-1.934 1.566,-1.613 0.637,0.039 1.594,0.09 1.833,0.875 -0.79,-0.063 -1.692,-0.774 -2.461,0.019 -0.411,2.016 1.195,3.5 1.796,5.246 -0.273,-0.047 -0.168,0.289 -0.355,0.239"
         id="path104"
         style="fill:#00564d;fill-opacity:1;fill-rule:nonzero;stroke:none"
         inkscape:connector-curvature="0" /><path
         d="m 198.594,393.36 c -1.992,0.145 -2.723,-2.922 -5.055,-1.496 -0.527,-1.531 1.242,-0.117 1.68,-1.117 -1.035,-0.926 -1.305,-2.785 -1.836,-3.945 -0.172,-0.747 -0.238,-1.766 0.527,-2.071 0.422,-0.277 1.227,0.231 0.992,0.809 -0.355,0.363 -0.289,-0.27 -0.636,-0.086 -0.332,2.004 0.691,3.773 1.918,5.199 1.781,-0.504 3.55,-0.851 5.308,-0.914 0.098,0.156 0.383,0.43 0.219,0.637 -1.75,0.086 -3.363,0.379 -4.777,1.062 0.207,0.598 0.722,1.031 1.273,1.188 0.121,0.218 0.66,0.336 0.387,0.734"
         id="path106"
         style="fill:#00564d;fill-opacity:1;fill-rule:nonzero;stroke:none"
         inkscape:connector-curvature="0" /><path
         d="m 209.766,387.274 c -2.024,0.453 -4.071,-1.015 -5.082,-2.59 -0.012,-0.578 -1.368,-1.609 -0.219,-2.215 1.918,0.18 3.441,1.184 5.047,1.547 -2.707,-2.945 -5.59,-6.136 -10.121,-6.679 -1.371,0.047 -2.215,1.125 -2.524,2.453 -0.445,1.433 0.469,2.465 1.52,3.117 -0.469,0.207 -0.989,-0.258 -1.504,-0.41 -0.692,-0.992 -0.86,-2.379 -0.297,-3.641 0.391,-1.14 1.531,-1.801 2.527,-2.133 5.325,0.141 8.575,4.516 12.071,7.625 2.832,1.418 -0.297,2.114 -1.418,2.926 m 0.629,-1.922 c -1.34,-0.23 -8.165,-4.16 -4.055,0.078 1.328,0.555 2.769,1.688 4.262,0.391 0.289,-0.258 -0.137,-0.316 -0.207,-0.469"
         id="path108"
         style="fill:#00564d;fill-opacity:1;fill-rule:evenodd;stroke:none"
         inkscape:connector-curvature="0" /><path
         d="m 218.336,383.891 c -2.906,2.375 -4.758,-2.636 -7.563,-1.269 -0.46,-0.848 0.825,-0.785 1.004,-1.125 -0.527,-1.227 -1.937,-2.25 -1.191,-3.711 1.887,-1.465 4.059,0.508 5.75,1.348 -1.648,-0.336 -3.316,-1.278 -4.918,-1 -0.555,4.765 4.598,2.074 6.484,4.875 0.305,0.101 0.528,0.562 0.434,0.882 m -3.035,-1.488 c -0.555,-0.574 -1.715,0.086 -0.547,0.473 0.851,0.293 1.523,0.922 2.414,0.492 -0.523,-0.457 -1.227,-0.82 -1.867,-0.965"
         id="path110"
         style="fill:#00564d;fill-opacity:1;fill-rule:evenodd;stroke:none"
         inkscape:connector-curvature="0" /><path
         d="m 227.738,385.063 c -2.765,1.797 -4.578,-1.957 -6.875,-2.965 -1.066,0.45 -3.133,2.852 -3.648,0.918 1.215,0.188 2.422,-0.988 2.976,-1.793 -1.843,-2.019 -4.461,-5.019 -6.519,-6.875 0.332,-0.339 0.519,-0.648 1.019,-0.402 1.731,2.336 4.379,5.18 6.411,7.117 1.128,-0.414 2.613,-1.25 4.007,-1.34 0.047,0.09 0.133,0.254 0.192,0.36 -1.164,0.531 -2.188,0.703 -3.465,1.492 1.047,1.355 2.457,2.695 4.207,3.273 0.742,0.262 1.668,-0.23 1.527,-1.062 -0.461,-1.129 -0.16,-0.777 0.407,-0.106 -0.086,0.446 0.015,0.899 -0.239,1.383"
         id="path112"
         style="fill:#00564d;fill-opacity:1;fill-rule:nonzero;stroke:none"
         inkscape:connector-curvature="0" /><path
         d="m 223.34,377.36 c -0.836,-0.918 -2.383,-1.703 -2.473,-2.933 2.227,-0.286 4.621,0.863 6.856,1.039 -0.942,-1.184 -2.215,-2.438 -3.106,-3.981 0.071,-0.449 0.285,-0.902 0.801,-1.082 0.562,0.078 1.961,0.078 2.074,0.887 -0.64,0.371 -1.246,-0.227 -1.75,0.207 0.633,1.762 2.004,2.656 3.235,3.722 0.453,0.661 1.515,0 1.64,1.118 -1.25,2.187 -4.847,2.605 -7.277,1.023 m 5.312,-0.816 c -1.992,-0.367 -4.14,-1.094 -6.246,-1.176 0.965,1.144 2.621,1.918 4.184,2.035 0.73,-0.09 2.433,-0.008 2.062,-0.859"
         id="path114"
         style="fill:#00564d;fill-opacity:1;fill-rule:evenodd;stroke:none"
         inkscape:connector-curvature="0" /><path
         d="m 238.66,380.137 c -3.773,-3.468 -7.941,-6.687 -11.402,-10.429 0.117,-0.395 0.605,-0.395 0.996,-0.281 1.769,1.445 4.238,2.609 6.426,2.777 -1.016,-0.93 -1.5,-2.426 -2.211,-3.41 -0.078,-0.535 -0.254,-1.328 0.648,-1.567 1.5,0.125 3.153,0.641 4.043,1.485 -1.336,-0.481 -2.578,-0.653 -3.922,-0.539 0.211,1.527 1.696,2.613 2.414,3.718 0.067,0.446 0.68,1.274 -0.222,1.465 -1.602,-0.551 -3.457,-1.179 -5.078,-1.644 2.246,2.257 4.793,4.593 7.418,6.531 0.285,0.625 1.769,1.105 0.89,1.894"
         id="path116"
         style="fill:#00564d;fill-opacity:1;fill-rule:nonzero;stroke:none"
         inkscape:connector-curvature="0" /><path
         d="m 239.074,371.489 c -0.676,-3.254 -4.246,-2.734 -5.113,-5.586 0.152,-0.18 0.441,-0.156 0.41,-0.414 1.973,0.598 3.137,3.367 5.922,2.621 1.652,0.246 0.137,-1.305 1.133,-1.672 0.41,0.442 0.613,0.949 0.57,1.457 -0.746,1.371 -2.437,0.778 -3.41,1.184 0.066,0.805 1.738,1.762 0.488,2.41"
         id="path118"
         style="fill:#00564d;fill-opacity:1;fill-rule:nonzero;stroke:none"
         inkscape:connector-curvature="0" /><path
         d="m 247.383,365.575 c -2.449,2.844 -5.141,-1.77 -7.664,0.062 -0.602,-0.753 0.676,-0.918 0.793,-1.281 -0.739,-1.117 -2.305,-1.879 -1.821,-3.449 1.606,-1.773 4.086,-0.203 5.895,0.332 -1.68,-0.043 -3.488,-0.684 -5.016,-0.133 0.285,4.789 4.883,1.246 7.235,3.672 0.312,0.047 0.613,0.465 0.578,0.797 m -3.242,-0.941 c -0.649,-0.469 -1.676,0.382 -0.457,0.562 0.886,0.137 1.66,0.645 2.457,0.063 -0.59,-0.356 -1.344,-0.594 -2,-0.625"
         id="path120"
         style="fill:#00564d;fill-opacity:1;fill-rule:evenodd;stroke:none"
         inkscape:connector-curvature="0" /><path
         d="m 249.316,363.36 c 0.137,0.277 -0.222,0.25 -0.136,0.496 -2.246,-1.109 -4.078,-3.351 -6.332,-4.742 -0.02,-0.297 0.277,-0.375 0.359,-0.645 2.152,1.157 4.715,2.172 7.367,2.004 -0.773,-1.453 -1.691,-2.168 -2.574,-3.765 -0.57,-0.731 0.063,-1.821 0.941,-1.989 1.325,-0.175 3.051,0.532 4.016,1.102 -1.246,-0.062 -3.262,-0.676 -4.297,0.133 0.203,2.027 2.727,2.922 2.992,4.93 -1.527,0.515 -3.445,0.421 -5.05,-0.329 -0.067,0.211 -0.426,-0.082 -0.325,0.25 1.067,0.868 2.028,1.731 3.039,2.555 -1.972,-1.687 -1.011,-0.824 0,0"
         id="path122"
         style="fill:#00564d;fill-opacity:1;fill-rule:evenodd;stroke:none"
         inkscape:connector-curvature="0" /></g></g></svg>