<?xml version="1.0" encoding="UTF-8" standalone="no"?>
<!-- Created with Inkscape (http://www.inkscape.org/) -->

<svg
   xmlns:dc="http://purl.org/dc/elements/1.1/"
   xmlns:cc="http://creativecommons.org/ns#"
   xmlns:rdf="http://www.w3.org/1999/02/22-rdf-syntax-ns#"
   xmlns:svg="http://www.w3.org/2000/svg"
   xmlns="http://www.w3.org/2000/svg"
   xmlns:sodipodi="http://sodipodi.sourceforge.net/DTD/sodipodi-0.dtd"
   xmlns:inkscape="http://www.inkscape.org/namespaces/inkscape"
   width="96"
   height="96"
   viewBox="0 0 96.000001 96.000002"
   id="svg4136"
   version="1.1"
   inkscape:version="0.91 r13725"
   inkscape:export-filename="/home/master/network_mvg_logo.png"
   inkscape:export-xdpi="90"
   inkscape:export-ydpi="90"
   sodipodi:docname="network_vmv_logo.svg">
  <defs
     id="defs4138">
    <clipPath
       id="clipPath3470"
       clipPathUnits="userSpaceOnUse">
      <path
         inkscape:connector-curvature="0"
         id="path3472"
         d="m 0,0 937.559,0 0,841.89 L 0,841.89 0,0 Z" />
    </clipPath>
    <clipPath
       id="clipPath3506"
       clipPathUnits="userSpaceOnUse">
      <path
         inkscape:connector-curvature="0"
         id="path3508"
         d="m 1119.766,4.513 39.711,0 0,26.33 -39.711,0 0,-26.33 z" />
    </clipPath>
    <clipPath
       id="clipPath3470-9"
       clipPathUnits="userSpaceOnUse">
      <path
         inkscape:connector-curvature="0"
         id="path3472-6"
         d="m 0,0 937.559,0 0,841.89 L 0,841.89 0,0 Z" />
    </clipPath>
    <clipPath
       id="clipPath3506-0"
       clipPathUnits="userSpaceOnUse">
      <path
         inkscape:connector-curvature="0"
         id="path3508-8"
         d="m 1119.766,4.513 39.711,0 0,26.33 -39.711,0 0,-26.33 z" />
    </clipPath>
  </defs>
  <sodipodi:namedview
     id="base"
     pagecolor="#ffffff"
     bordercolor="#666666"
     borderopacity="1.0"
     inkscape:pageopacity="1"
     inkscape:pageshadow="2"
     inkscape:zoom="8.02"
     inkscape:cx="27.348121"
     inkscape:cy="55.469045"
     inkscape:document-units="px"
     inkscape:current-layer="layer1"
     showgrid="true"
     units="px"
     inkscape:window-width="1855"
     inkscape:window-height="1056"
     inkscape:window-x="65"
     inkscape:window-y="24"
     inkscape:window-maximized="1"
     showguides="false">
    <inkscape:grid
       type="xygrid"
       id="grid4856" />
  </sodipodi:namedview>
  <metadata
     id="metadata4141">
    <rdf:RDF>
      <cc:Work
         rdf:about="">
        <dc:format>image/svg+xml</dc:format>
        <dc:type
           rdf:resource="http://purl.org/dc/dcmitype/StillImage" />
        <dc:title></dc:title>
        <cc:license
           rdf:resource="http://creativecommons.org/publicdomain/zero/1.0/" />
      </cc:Work>
      <cc:License
         rdf:about="http://creativecommons.org/publicdomain/zero/1.0/">
        <cc:permits
           rdf:resource="http://creativecommons.org/ns#Reproduction" />
        <cc:permits
           rdf:resource="http://creativecommons.org/ns#Distribution" />
        <cc:permits
           rdf:resource="http://creativecommons.org/ns#DerivativeWorks" />
      </cc:License>
    </rdf:RDF>
  </metadata>
  <g
     inkscape:label="Ebene 1"
     inkscape:groupmode="layer"
     id="layer1"
     transform="translate(0,-956.36216)">
    <rect
       style="fill:#ffffff;fill-opacity:1;stroke:#01ffff;stroke-width:0;stroke-linecap:butt;stroke-linejoin:miter;stroke-miterlimit:0;stroke-dasharray:none;stroke-opacity:1"
       id="rect4267"
       width="95.999954"
       height="95.999969"
       x="2.3284263e-05"
       y="956.36218" />
    <g
       transform="matrix(0.28952834,0,0,-0.28952834,-559.39098,1036.1843)"
       id="g3344">
      <g
         id="g3466">
        <g
           clip-path="url(#clipPath3470-9)"
           id="g3468">
          <g
             transform="translate(938.7733,646.7622)"
             id="g3474">
            <path
               inkscape:connector-curvature="0"
               id="path3476"
               style="fill:none;stroke:#8ab5dd;stroke-width:0.5;stroke-linecap:butt;stroke-linejoin:miter;stroke-miterlimit:4;stroke-dasharray:none;stroke-opacity:1"
               d="M 0,0 0,-195.591" />
          </g>
        </g>
      </g>
      <g
         transform="matrix(8,0,0,8,-7019.1218,-31.5882)"
         id="g3502">
        <g
           clip-path="url(#clipPath3506-0)"
           id="g3504">
          <g
             transform="translate(1129.5336,30.9163)"
             id="g3510">
            <path
               inkscape:connector-curvature="0"
               id="path3512"
               style="fill:none;stroke:#005ea8;stroke-width:0.49900001;stroke-linecap:butt;stroke-linejoin:miter;stroke-miterlimit:3.86400008;stroke-dasharray:none;stroke-opacity:1"
               d="M 0,0 0,-26.949 M 10.388,0 l 0,-26.949 M 20.775,0 l 0,-26.949 m -30.806,20.799 40.007,0 m -40.007,-6.684 40.007,0 m -40.007,-6.399 40.007,0" />
          </g>
        </g>
      </g>
      <g
         transform="matrix(8,0,0,8,1939.0102,162.6446)"
         id="g3514">
        <path
           inkscape:connector-curvature="0"
           id="path3516"
           style="fill:#000000;fill-opacity:1;fill-rule:nonzero;stroke:none"
           d="M 0,0 10.231,-6.58 14.077,-6.01 0,3.301 0,0 Z" />
      </g>
      <g
         transform="matrix(8,0,0,8,1986.915,215.1558)"
         id="g3518">
        <path
           inkscape:connector-curvature="0"
           id="path3520"
           style="fill:#000000;fill-opacity:1;fill-rule:nonzero;stroke:none"
           d="m 0,0 11.922,-7.678 3.846,0.57 L 4.997,0 0,0 Z" />
      </g>
      <g
         transform="matrix(8,0,0,8,2159.9854,215.1558)"
         id="g3522">
        <path
           inkscape:connector-curvature="0"
           id="path3524"
           style="fill:#005ea8;fill-opacity:1;fill-rule:nonzero;stroke:none"
           d="m 0,0 -27.622,-19.799 0,-3.429 L 4.468,0 0,0 Z" />
      </g>
      <g
         transform="matrix(8,0,0,8,2220.6558,215.1558)"
         id="g3526">
        <path
           inkscape:connector-curvature="0"
           id="path3528"
           style="fill:#ffdd00;fill-opacity:1;fill-rule:nonzero;stroke:none"
           d="m 0,0 -35.206,-25.235 0,-0.432 1.785,-0.663 1.484,0 L 3.481,-0.693 3.635,0 0,0 Z" />
      </g>
      <g
         transform="matrix(8,0,0,8,2094.1982,61.4646)"
         id="g3530">
        <path
           inkscape:connector-curvature="0"
           id="path3532"
           style="fill:#000000;fill-opacity:1;fill-rule:nonzero;stroke:none"
           d="m 0,0 10.806,-7.119 4.725,0 L 2.451,1.534 0,0 Z" />
      </g>
      <g
         transform="matrix(8,0,0,8,2149.5022,107.6238)"
         id="g3534">
        <path
           inkscape:connector-curvature="0"
           id="path3536"
           style="fill:#000000;fill-opacity:1;fill-rule:nonzero;stroke:none"
           d="m 0,0 13.399,-8.661 0,3.127 L 1.551,2.255 0,0 Z" />
      </g>
      <g
         transform="matrix(8,0,0,8,1983.2582,4.5126)"
         id="g3538">
        <path
           inkscape:connector-curvature="0"
           id="path3540"
           style="fill:#e2001a;fill-opacity:1;fill-rule:nonzero;stroke:none"
           d="M 0,0 4.744,0 34.18,21.307 34.18,24.5 0,0 Z" />
      </g>
    </g>
  </g>
</svg>
