<?xml version="1.0" encoding="UTF-8" standalone="no"?>
<!-- Generator: Adobe Illustrator 16.0.3, SVG Export Plug-In . SVG Version: 6.00 Build 0)  -->

<svg
   xmlns:dc="http://purl.org/dc/elements/1.1/"
   xmlns:cc="http://creativecommons.org/ns#"
   xmlns:rdf="http://www.w3.org/1999/02/22-rdf-syntax-ns#"
   xmlns:svg="http://www.w3.org/2000/svg"
   xmlns="http://www.w3.org/2000/svg"
   xmlns:sodipodi="http://sodipodi.sourceforge.net/DTD/sodipodi-0.dtd"
   xmlns:inkscape="http://www.inkscape.org/namespaces/inkscape"
   version="1.1"
   id="svg2"
   inkscape:version="0.92.0 r"
   sodipodi:docname="ic_placeholder.svg"
   x="0px"
   y="0px"
   width="64"
   height="64"
   viewBox="0 0 64 64"
   enable-background="new 0 0 512 512"
   xml:space="preserve"
   inkscape:export-filename="/home/tovok7/vcs/liberario/res/drawable-xhdpi/ic_placeholder.png"
   inkscape:export-xdpi="16.875"
   inkscape:export-ydpi="16.875"><metadata
     id="metadata4352"><rdf:RDF><cc:Work
         rdf:about=""><dc:format>image/svg+xml</dc:format><dc:type
           rdf:resource="http://purl.org/dc/dcmitype/StillImage" /><dc:title /></cc:Work></rdf:RDF></metadata><defs
     id="defs4350"><filter
       inkscape:collect="always"
       style="color-interpolation-filters:sRGB"
       id="filter4486"
       x="-0.024"
       width="1.048"
       y="-0.024"
       height="1.048"><feGaussianBlur
         inkscape:collect="always"
         stdDeviation="4.7152286"
         id="feGaussianBlur4488" /></filter></defs><sodipodi:namedview
     units="px"
     pagecolor="#ffffff"
     bordercolor="#666666"
     borderopacity="1.0"
     inkscape:zoom="5.6"
     inkscape:cx="30.148499"
     inkscape:cy="40.990274"
     showgrid="false"
     showguides="false"
     id="base"
     inkscape:window-width="1920"
     inkscape:window-height="1021"
     inkscape:window-x="1443"
     inkscape:window-y="23"
     inkscape:document-units="px"
     inkscape:pageshadow="2"
     inkscape:window-maximized="0"
     inkscape:current-layer="layer2"
     inkscape:pageopacity="0.0"
     inkscape:snap-bbox="true"
     inkscape:bbox-paths="false"
     inkscape:snap-bbox-edge-midpoints="false"
     inkscape:object-paths="true"
     inkscape:snap-intersection-paths="true"
     inkscape:object-nodes="false"
     inkscape:snap-smooth-nodes="false"
     inkscape:snap-midpoints="false"
     inkscape:bbox-nodes="false"
     inkscape:snap-bbox-midpoints="false"
     inkscape:snap-nodes="false" /><line
     display="none"
     stroke-miterlimit="10"
     x1="185.248"
     y1="-359.80701"
     x2="343.71399"
     y2="28.569"
     id="line4336"
     style="display:none;fill:none;stroke:#2a7b26;stroke-miterlimit:10" /><line
     display="none"
     stroke-miterlimit="10"
     x1="217.12"
     y1="-364.40201"
     x2="375.586"
     y2="23.975006"
     id="line4338"
     style="display:none;fill:none;stroke:#2a7b26;stroke-miterlimit:10" /><line
     display="none"
     stroke-miterlimit="10"
     x1="327.62601"
     y1="-380.85699"
     x2="536.30902"
     y2="-16.98999"
     id="line4340"
     style="display:none;fill:none;stroke:#2a7b26;stroke-miterlimit:10" /><line
     display="none"
     stroke-miterlimit="10"
     x1="353.52499"
     y1="-388.84201"
     x2="562.20801"
     y2="-24.975006"
     id="line4342"
     style="display:none;fill:none;stroke:#2a7b26;stroke-miterlimit:10" /><g
     inkscape:groupmode="layer"
     id="layer1"
     inkscape:label="Background"
     style="display:inline"
     transform="translate(0,-448)"
     sodipodi:insensitive="true"><rect
       style="opacity:0.5;fill:#5d4745;fill-opacity:1;fill-rule:nonzero;stroke:#f24236;stroke-width:2.40572882;stroke-linecap:round;stroke-linejoin:round;stroke-miterlimit:4;stroke-dasharray:none;stroke-opacity:1;filter:url(#filter4486)"
       id="rect4419-0"
       width="471.52286"
       height="471.52286"
       x="26.238571"
       y="26.238579"
       ry="58.070744"
       transform="matrix(0.12475233,0,0,0.12475233,0.14845534,448.05932)" /><rect
       style="opacity:1;fill:#a9817f;fill-opacity:1;fill-rule:nonzero;stroke:none;stroke-width:0.29984808;stroke-linecap:round;stroke-linejoin:round;stroke-miterlimit:4;stroke-dasharray:none;stroke-opacity:1"
       id="rect4419"
       width="64"
       height="64"
       x="0"
       y="448.00003"
       ry="0" /></g><g
     inkscape:groupmode="layer"
     id="layer2"
     inkscape:label="Dropshadow"
     style="display:inline"
     transform="translate(0,-448)"
     sodipodi:insensitive="true"><path
       style="display:inline;fill:#9f7271;fill-opacity:1;fill-rule:nonzero;stroke:none;stroke-width:0.12475236px;stroke-linecap:butt;stroke-linejoin:miter;stroke-opacity:1"
       d="M 44.47386,464.8885 24.853804,465.68912 6.3919204,466.4452 31.87255,492.13257 7.9900662,489.4771 30,512 c 8.803888,-0.005 25.196239,-0.043 34,0 V 485.26439 C 57.697066,479.30335 50.862592,470.757 44.47386,464.8885 Z"
       id="path4560"
       inkscape:connector-curvature="0"
       sodipodi:nodetypes="ccccccccc" /></g><g
     id="layer1_1_"
     transform="translate(0,-988.36216)"
     inkscape:label="Logo"
     inkscape:groupmode="layer"
     style="display:inline"
     sodipodi:insensitive="true"><path
       d="m 57.41719,1026.9004 c -1.112353,-3.252 -7.466529,-14.3617 -9.941243,-18.1691 -2.495779,-4.1032 -5.393605,-5.8165 -9.708489,-5.732 -3.524373,-0.1083 -23.580086,0.7933 -30.3944316,1.9459 -1.4913004,0.2525 -1.1789789,2.2541 -0.1691689,2.3161 1.8031141,0.111 8.4779885,0.3651 11.4640135,0.6451 1.854008,0.1738 3.595698,1.0576 4.86478,3.5535 1.269085,2.4958 4.317296,10.089 5.435994,12.9975 0.634544,1.6499 0.769064,3.4228 0.111044,4.5687 -0.491896,0.8568 -2.006672,1.704 -4.299148,1.3009 -1.924819,-0.3384 -14.594464,-3.0986 -15.8423536,-3.3841 -1.5933347,-0.3645 -2.1173394,2.5872 -0.4229855,3.1727 2.3266111,0.8041 13.0291771,4.5259 21.7031101,6.9113 4.423898,1.2166 6.906609,0.6055 10.203687,-0.037 4.14191,-0.8073 9.930582,-1.9882 13.441755,-2.9611 3.447594,-0.9517 4.674418,-4.2091 3.553436,-7.1282 z m -18.983465,6.7909 c -1.49003,0 -2.698072,-1.208 -2.698072,-2.698 0,-1.49 1.208042,-2.6981 2.698072,-2.6981 1.49016,0 2.698073,1.2081 2.698073,2.6981 0,1.49 -1.207913,2.698 -2.698073,2.698 z m 9.920048,-11.7085 c -1.85997,0.4704 -8.358694,1.4257 -10.977576,1.7134 -2.855436,0.4124 -4.473519,-0.127 -5.393603,-2.2209 -0.763356,-1.3912 -3.922612,-9.5021 -4.441795,-10.6921 -0.951813,-2.5064 0.222089,-3.2361 1.808444,-3.3948 1.261342,-0.1485 7.183397,-0.6498 9.327766,-0.8355 3.236162,-0.2537 4.885972,0.9942 6.493522,3.786 1.807176,3.0583 3.466249,5.8968 4.864779,8.4078 0.789114,1.4162 0.116376,2.7814 -1.681537,3.2361 z m 4.346612,8.6786 c -1.341167,0 -2.428264,-1.0871 -2.428264,-2.4284 0,-1.3412 1.086843,-2.4282 2.428264,-2.4282 1.341422,0 2.428265,1.087 2.428265,2.4282 0,1.3413 -1.087096,2.4284 -2.428265,2.4284 z"
       id="path4348"
       inkscape:connector-curvature="0"
       style="fill:#ffffff;stroke-width:0.12475236" /></g></svg>