<?xml version="1.0" encoding="UTF-8" standalone="no"?>
<!-- Created with Inkscape (http://www.inkscape.org/) -->

<svg
   xmlns:dc="http://purl.org/dc/elements/1.1/"
   xmlns:cc="http://creativecommons.org/ns#"
   xmlns:rdf="http://www.w3.org/1999/02/22-rdf-syntax-ns#"
   xmlns:svg="http://www.w3.org/2000/svg"
   xmlns="http://www.w3.org/2000/svg"
   xmlns:sodipodi="http://sodipodi.sourceforge.net/DTD/sodipodi-0.dtd"
   xmlns:inkscape="http://www.inkscape.org/namespaces/inkscape"
   id="svg4344"
   version="1.1"
   inkscape:version="0.91 r13725"
   xml:space="preserve"
   width="2416.2366"
   height="2416.2366"
   viewBox="0 0 2416.2366 2416.2366"
   sodipodi:docname="network_mvv_logo.svg"
   inkscape:export-filename="/tmp/Transportr/res/drawable-xhdpi/network_mvv_logo.png"
   inkscape:export-xdpi="3.5758088"
   inkscape:export-ydpi="3.5758088"><title
     id="title4747">Logo of M端nchner Verkehrs- und Tarifverbund (MVV)</title><metadata
     id="metadata4350"><rdf:RDF><cc:Work
         rdf:about=""><dc:format>image/svg+xml</dc:format><dc:type
           rdf:resource="http://purl.org/dc/dcmitype/StillImage" /><dc:title>Logo of M端nchner Verkehrs- und Tarifverbund (MVV)</dc:title><dc:source>https://de.wikipedia.org/wiki/Datei:M%C3%BCnchner_Verkehrs-_und_Tarifverbund.svg</dc:source><dc:subject><rdf:Bag><rdf:li>MVV</rdf:li><rdf:li>M端nchner Verkehrs- und Tarifverbund</rdf:li><rdf:li>M端nchen</rdf:li></rdf:Bag></dc:subject><dc:rights><cc:Agent><dc:title>Image contains a Trademark</dc:title></cc:Agent></dc:rights></cc:Work></rdf:RDF></metadata><defs
     id="defs4348" /><sodipodi:namedview
     pagecolor="#ffffff"
     bordercolor="#666666"
     borderopacity="1"
     objecttolerance="10"
     gridtolerance="10"
     guidetolerance="10"
     inkscape:pageopacity="1"
     inkscape:pageshadow="2"
     inkscape:window-width="1280"
     inkscape:window-height="744"
     id="namedview4346"
     showgrid="false"
     inkscape:zoom="0.22017712"
     inkscape:cx="1208.1183"
     inkscape:cy="1208.1183"
     inkscape:window-x="0"
     inkscape:window-y="0"
     inkscape:window-maximized="1"
     inkscape:current-layer="g4352"
     fit-margin-top="0"
     fit-margin-left="0"
     fit-margin-right="0"
     fit-margin-bottom="0" /><g
     id="g4352"
     inkscape:groupmode="layer"
     inkscape:label="mvv"
     transform="matrix(1.25,0,0,-1.25,31.976778,2416.2366)"><rect
       style="fill:#ffffff;fill-rule:evenodd;stroke:none;stroke-width:1px;stroke-linecap:butt;stroke-linejoin:miter;stroke-opacity:1"
       id="rect3334"
       width="1932.9893"
       height="1932.9893"
       x="-25.581423"
       y="-1932.9893"
       transform="scale(1,-1)" /><g
       id="g4354"
       transform="translate(0,272.11615)"><path
         d="m 912.445,823.988 121.645,0 -247.637,-690.805 -112.957,0 0,690.805 112.957,0 0,-346.981 125.992,346.981 z"
         style="fill:#1f1a17;fill-opacity:1;fill-rule:evenodd;stroke:none"
         id="path4356"
         inkscape:connector-curvature="0" /><path
         d="m 1498.945,1063.718 0,3.113 c -2.144,3.5 -6.965,2.332 -7.5,3.887 l -2.679,0 c -8.039,4.281 -13.934,12.453 -25.184,15.563 -3.215,1.167 -5.359,0 -8.039,1.167 l -3.215,6.614 c -4.285,0 -8.035,0.39 -11.25,1.168 l -1.074,3.113 c -6.43,-2.723 -8.574,2.723 -14.465,2.332 -2.144,2.727 -6.434,3.504 -10.719,5.059 l -3.75,5.445 -5.359,-1.555 c -3.215,1.555 -4.82,3.891 -7.5,6.227 l -5.895,-1.168 c -3.214,1.945 -3.214,7.39 -7.504,4.277 -5.355,0.391 -5.355,4.281 -10.179,4.281 -8.035,0 -15.539,1.555 -23.039,1.555 l -5.36,3.113 -3.214,2.723 c -9.11,1.945 -18.754,0.777 -27.864,3.891 l -2.679,5.058 c -4.821,-0.39 -5.895,-2.722 -9.11,-2.722 -4.82,1.554 -4.82,3.89 -8.035,2.722 l -2.68,-1.168 c -5.359,7.782 -18.218,4.282 -25.183,7.782 -10.184,-4.282 -19.293,0.777 -27.864,-1.555 l -5.359,2.723 c -4.285,-0.391 -8.574,0 -12.324,-0.391 l -1.07,-2.332 -4.825,2.723 c -3.75,1.168 -3.75,-2.336 -8.035,-1.168 l -2.68,1.168 c -6.429,-2.723 -14.468,-1.559 -20.898,-1.559 l 0,0.781 c -1.609,5.446 -6.43,0 -7.5,2.723 -11.254,-7.395 -26.793,-1.945 -39.117,-5.059 -1.609,-2.336 -7.5,-2.336 -8.574,-4.668 l -4.821,-1.168 c -6.429,3.5 -15.004,-1.945 -20.363,1.168 l -1.605,2.332 c -3.215,0 -6.969,-1.164 -6.969,-5.445 l -5.895,1.945 c -5.89,-2.332 -8.57,-5.836 -13.394,-7.004 -4.285,-0.777 -11.25,2.336 -13.93,-1.945 l -1.074,-2.332 c -6.965,-2.336 -12.324,-1.168 -18.754,-1.168 1.609,-5.836 -6.43,-4.277 -8.035,-7.004 -3.215,-1.164 -8.039,0 -11.254,-1.164 l -4.82,-6.226 c -3.215,-0.391 -6.969,-0.391 -8.039,1.168 -3.75,-2.336 -5.895,-4.668 -8.04,-5.059 -4.285,1.555 -6.964,-1.945 -11.785,-1.945 -3.754,-5.446 -6.968,-6.614 -9.109,-8.95 -4.289,1.168 -5.895,3.114 -9.645,1.168 l -1.074,-2.722 c -7.5,-4.282 -11.25,-5.446 -17.144,-6.227 l -2.68,-5.832 c -4.289,-2.726 -5.359,0.777 -8.039,0 -4.82,-2.336 -8.035,-4.672 -10.18,-5.449 l -2.144,-2.723 -5.895,0 c -8.035,-4.281 -13.93,-10.894 -18.215,-15.562 -6.968,-1.555 -14.468,-4.668 -17.683,-7.781 l -1.61,-1.168 -2.679,-4.668 -6.43,-1.164 c -1.606,-6.618 -9.106,-7.782 -11.785,-10.508 -5.36,-1.946 -8.574,-6.223 -11.789,-7.778 -1.61,-4.672 -4.289,-4.672 -4.289,-8.562 l -1.606,-2.723 -6.965,2.336 c -1.609,-3.113 0,-7.004 -1.609,-7.781 l -6.43,0.777 c -1.07,-4.277 -3.75,-7.781 -5.359,-10.894 -3.75,-1.555 -6.965,0 -8.57,-1.555 -0.539,-7.391 -6.43,-7.391 -6.969,-10.895 -5.356,-4.277 -9.645,-7.781 -11.25,-12.449 l -5.359,-3.109 c -1.606,-5.059 -7.5,-5.836 -7.5,-10.508 -4.825,-1.164 -4.825,-3.5 -8.575,-3.109 -4.824,-0.391 -3.215,-6.614 -7.504,-6.614 l -3.214,-5.058 2.679,-2.336 c -2.679,-3.109 -5.894,-6.223 -5.894,-9.727 l -4.821,-2.332 -1.609,-5.836 c -3.75,-3.5 -8.57,-3.5 -11.785,-5.445 -0.539,-4.672 -3.215,-4.672 -3.215,-9.34 -2.145,-1.945 -5.359,-3.113 -5.895,-5.445 -3.214,-5.445 -2.144,-8.949 -3.214,-13.617 l 1.07,-1.946 c 8.574,0 14.469,1.946 19.824,0 2.145,3.114 5.36,1.168 8.039,3.114 4.821,-1.946 7.5,-4.282 12.324,-3.114 1.071,3.114 4.286,3.114 8.036,3.891 0.539,-3.891 6.429,-1.945 6.429,-5.445 l 2.68,0 c 5.359,1.554 6.43,4.668 11.254,5.445 l 8.574,-2.723 c 5.356,0.778 5.356,3.114 8.57,3.114 l 2.68,-0.391 2.145,-2.723 c 5.359,3.114 5.359,-2.722 8.574,-2.722 4.82,2.722 9.109,5.445 13.93,5.836 0.535,4.668 2.144,5.836 2.144,9.336 l 2.68,1.945 3.75,0 c 1.609,4.668 4.285,4.668 7.5,4.668 2.679,2.336 1.074,7.781 5.359,8.558 5.895,1.559 6.43,7.391 10.719,8.172 l 3.75,3.11 0,2.726 4.82,-0.39 c 0.539,3.5 3.215,5.058 5.895,5.058 l 2.144,1.168 0.535,3.887 -2.679,2.726 c 0.535,3.5 3.215,5.446 5.894,3.5 l 5.895,1.946 2.679,4.281 -1.07,2.723 c 6.43,1.945 12.324,3.109 19.289,6.613 l 0,1.945 c 3.75,3.891 4.821,5.059 5.895,8.168 3.75,3.114 10.715,4.668 14.465,4.668 1.609,7.781 8.039,3.114 8.039,10.117 4.285,0 8.035,1.168 8.574,1.946 l 1.07,2.722 c 8.574,4.282 12.324,8.559 20.899,10.118 l 4.82,5.445 5.359,-3.113 c 2.68,3.113 8.039,5.058 8.575,8.558 l 3.214,0 c 5.36,2.336 8.036,3.504 10.715,5.836 l 2.145,1.945 c 8.039,-4.277 16.074,1.168 19.824,3.891 l 1.609,4.668 c 6.965,-2.332 11.789,5.059 19.825,3.891 l 2.679,-1.168 c 3.215,2.336 7.5,7.004 10.719,8.172 l 3.215,0.39 c 3.215,-7.394 8.035,5.055 11.25,-3.504 3.75,3.114 5.359,7.395 8.574,8.559 3.215,-4.277 8.035,-1.164 11.254,-1.164 l 2.676,2.722 c 3.754,1.165 5.894,1.165 8.574,1.165 4.824,-2.723 6.43,0 11.254,-2.332 2.141,2.332 5.355,3.5 7.5,2.332 l 2.68,0.781 2.144,2.722 c 3.215,-0.39 5.895,1.946 8.035,0.778 3.754,-3.113 11.254,-3.113 14.469,0 3.215,-1.168 8.039,1.168 11.254,0 1.07,1.168 2.676,2.336 4.285,3.113 l 0,-0.777 c 1.07,1.164 1.606,1.164 3.215,1.164 5.359,-2.332 14.469,-1.164 21.433,-3.891 l 4.821,3.891 c 7.504,-2.723 12.324,-4.668 20.363,-2.332 l 1.609,-1.559 c 6.43,0 9.645,4.672 13.395,2.727 l 2.145,-2.727 5.89,1.559 c 2.68,-2.336 4.824,-5.449 10.184,-4.668 3.215,-1.168 6.965,-1.168 8.035,-3.504 l 5.359,-0.777 c 3.215,3.5 6.965,3.113 11.254,3.5 l 5.356,-4.668 c 3.754,-2.332 8.574,0 10.183,0 l 6.43,-2.723 1.07,-2.332 4.824,2.723 c 4.286,-0.391 5.891,-2.723 8.571,-4.282 3.754,0 8.574,1.559 11.254,-0.386 l 2.144,-3.504 c 3.75,-1.168 8.571,-1.168 10.715,-1.168 1.07,-5.446 6.43,-4.668 9.645,-7.391 l 2.679,1.945 c 2.145,-3.113 7.5,-2.332 7.5,-5.836 5.36,0.391 9.11,-2.332 11.254,0.391 5.36,-2.336 7.5,-8.949 11.789,-10.504 l 5.36,1.164 c 4.285,-2.332 4.82,-4.668 8.57,-4.668 l 5.359,0 c 2.145,-6.222 8.039,-3.5 10.719,-7.39 l 5.356,-0.391 c 2.679,-4.277 8.574,-7.777 10.183,-11.281 l 1.07,0 c 5.895,7.004 11.25,16.73 16.075,24.121 l 3.215,0 c 5.359,6.613 5.894,6.226 6.964,16.34 l 4.825,1.168 1.605,10.113 9.109,2.727 1.075,14.781 13.929,1.168 c 0.535,0.777 1.071,1.168 1.61,1.945 -0.539,0 -1.075,1.168 -1.61,1.168 z"
         style="fill:#1f1a17;fill-opacity:1;fill-rule:evenodd;stroke:none"
         id="path4358"
         inkscape:connector-curvature="0" /><path
         d="m 1768.301,552.71 c 2.679,8.949 7.504,24.903 2.679,33.848 0,12.84 0,28.402 -3.214,41.629 2.144,3.5 0,5.058 2.144,8.172 l -3.215,1.941 c -1.07,9.34 3.215,17.508 -2.144,25.289 l -3.215,1.168 c 3.75,4.281 1.609,10.113 3.75,14.785 -3.215,1.164 -3.215,5.446 -3.75,7.391 0.535,4.668 3.215,5.058 3.215,7.39 -2.68,3.114 -8.035,2.336 -8.035,6.227 0.535,2.332 2.675,7.004 -2.145,7.004 1.606,7 1.606,14.394 -0.535,21.785 l -4.824,4.277 -0.535,6.618 0.535,1.554 c -0.535,4.278 -5.36,5.059 -5.36,8.559 0,4.668 4.825,3.891 2.68,7.781 -1.605,4.668 -6.965,3.5 -8.035,5.059 l 1.605,6.222 c -3.214,3.891 -3.214,8.172 -5.894,10.504 l 0,3.114 -1.606,2.722 -3.214,1.168 -1.075,3.114 3.219,1.167 c -2.68,7.782 -6.969,11.282 -8.039,16.727 l 0.535,2.723 -5.359,5.058 c -1.071,4.668 -3.215,4.668 -3.215,8.172 l -3.215,3.11 c -0.535,3.503 -1.605,5.058 -1.605,8.171 l -2.68,4.668 -1.07,2.336 c -1.61,3.11 0.535,7.391 -2.145,8.559 l -3.215,0.387 -1.609,3.113 c 1.074,2.336 1.074,5.059 0,6.613 l -5.356,2.336 0,5.059 -3.214,5.054 c -3.754,-2.722 -5.36,2.723 -8.04,2.723 -1.07,5.836 1.61,9.727 -0.535,14.399 -5.894,4.667 -9.109,10.113 -14.468,11.667 -0.536,3.504 -0.536,5.45 -0.536,7.782 -4.824,1.945 -6.429,4.668 -8.039,5.449 -4.82,7.781 -8.035,13.613 -13.394,18.285 0,2.332 0,7 -3.215,5.836 -4.82,1.164 -7.5,6.223 -8.574,8.945 l 0.539,5.45 c -4.289,0 -7.504,2.332 -8.039,3.109 -2.68,5.836 -10.18,8.172 -11.254,12.84 l -1.606,3.113 c -1.609,-0.777 -6.964,-0.777 -5.894,2.723 -0.535,1.945 -2.145,3.113 -3.215,5.058 l 0,-5.449 -13.395,2.336 c -2.679,-2.336 -7.503,-5.445 -11.253,-7.781 -1.071,-4.668 -3.215,-8.949 -5.895,-12.84 -4.824,-4.277 -5.359,-9.727 -7.5,-16.727 l -4.289,0 c -1.07,-8.171 -10.18,-24.898 -12.859,-33.847 l 0,-0.778 c 4.824,-2.336 3.214,-6.226 7.504,-7.394 l 1.605,2.726 4.824,-5.449 2.141,-4.668 2.68,-0.386 c 2.679,-3.504 5.359,-4.672 5.894,-7.782 l 0.535,-3.113 c 3.215,-2.723 4.824,-3.891 7.504,-5.059 1.606,-3.113 3.215,-7.39 3.75,-11.281 l 5.359,-2.336 c 2.676,-1.945 2.676,-5.445 3.215,-6.613 l 2.676,-2.332 c 3.754,-3.504 0,-7.781 4.824,-13.231 5.36,-3.109 -0.535,-8.168 5.895,-8.168 l 0,-6.226 c 2.68,-3.891 10.18,-2.723 11.254,-8.559 -0.539,-5.058 3.215,-5.058 2.676,-8.558 4.824,-4.668 5.894,-11.282 8.574,-15.95 l 0,-2.335 c 4.289,-1.168 3.75,-5.836 2.679,-7.004 5.36,-5.055 5.895,-9.727 10.715,-13.618 -0.535,-4.277 -1.07,-5.445 -1.07,-7.777 l 3.75,-5.449 c 3.215,-8.945 10.184,-14.395 8.574,-24.508 l 4.285,-3.891 c -1.605,-4.281 0,-5.449 -1.605,-8.558 3.215,-9.34 8.039,-13.617 9.644,-21.789 0.536,-6.613 -1.605,-10.113 -1.605,-14.781 0.535,-3.504 4.82,-3.504 5.891,-6.614 l -3.75,-4.672 c 0.535,-4.277 6.429,-3.109 6.429,-6.613 l 0,-3.113 -2.679,-4.668 c 1.074,-4.668 4.824,-4.668 4.824,-7.781 -4.824,-2.723 0,-7 -2.145,-11.282 l 4.824,-2.332 c 0.536,-3.504 3.215,-5.836 3.215,-8.172 l -3.75,-5.835 3.215,-1.168 c 1.07,-4.278 0,-6.614 1.07,-9.727 -4.285,-3.5 -0.535,-6.613 -0.535,-10.113 l -3.215,-2.336 c 0,-4.668 4.821,-4.668 2.68,-8.168 l 1.07,-1.946 c 0,-6.226 -4.285,-8.171 -4.285,-14.007 l 1.071,-1.946 c -1.071,-6.613 2.144,-13.613 2.144,-19.449 -2.144,-4.281 -5.359,-6.226 -5.359,-9.726 l -0.535,-5.836 2.679,-2.336 c -2.144,-4.278 -2.144,-7.782 -4.289,-8.168 2.145,-5.449 0,-12.449 2.145,-17.899 -4.824,-1.945 2.144,-3.109 0.535,-5.836 -5.359,-7.777 -2.68,-15.172 -5.359,-22.175 l -4.286,-5.446 3.215,-5.058 c -2.679,-3.5 0,-6.223 -2.679,-8.559 -3.215,-0.387 -1.606,-6.223 -4.821,-6.223 l 1.606,-5.449 c -3.75,-1.945 -3.75,-5.836 -4.821,-8.558 l 1.071,-2.723 c -3.215,-1.945 -3.215,-7.781 -4.825,-8.168 -4.82,0 -1.07,-7.395 -4.82,-7.781 l 2.68,-5.449 c -4.824,-6.614 -10.184,-12.45 -11.254,-20.231 l 3.75,-4.277 c -3.215,-4.668 -6.43,-9.336 -10.715,-11.672 -1.07,-4.668 -5.359,-8.172 -5.894,-11.281 0.535,-6.614 -2.68,-11.286 -3.215,-15.954 l -3.215,-0.777 c -4.824,-7.004 -12.324,-11.672 -11.254,-20.23 -4.82,-1.168 -4.82,-4.668 -6.43,-7.004 l 1.61,-2.332 c -3.215,-5.836 -6.43,-8.172 -11.254,-12.45 l 0,-3.113 c -2.68,-2.336 -4.821,-6.226 -5.895,-7.781 l 0,-2.723 -6.429,-1.168 c -1.071,-3.5 -4.286,-4.277 -3.215,-8.558 -2.68,-3.5 -6.965,-3.891 -8.035,-8.172 -1.61,-7 -9.649,-10.113 -11.789,-15.559 l 0,-5.058 -5.895,0 1.07,-6.614 -5.359,-4.281 -1.606,0.777 c -4.285,-2.332 -4.285,-5.445 -7.5,-7.777 l -5.359,-0.781 0.535,-5.055 c -5.894,-3.113 -8.574,-4.281 -12.324,-8.949 l -5.895,-0.777 c 0,-4.668 -6.429,-5.45 -4.82,-9.34 -3.215,-1.164 -4.824,-5.446 -5.894,-7.391 l -5.895,0 -1.074,-5.058 c -8.57,-1.164 -12.324,-6.614 -19.289,-10.891 l 0,-2.336 c -4.285,-0.391 -6.43,-3.5 -11.25,-3.5 -3.754,-3.113 -8.574,-8.172 -11.789,-11.285 l -2.68,-1.164 -5.894,1.164 c -2.145,-4.277 -2.68,-5.445 -5.36,-7 -3.215,0 -7.5,-0.777 -8.035,-2.336 l -3.215,-6.223 c -5.359,-1.168 -13.398,-2.336 -16.613,-5.058 0.539,-5.446 -5.356,-2.336 -5.356,-6.614 l -5.359,3.11 -2.144,-5.055 c -3.75,-0.391 -5.356,-3.504 -8.036,-4.668 l -5.359,0 c -2.68,-2.726 -5.359,-5.836 -6.43,-6.617 l -4.824,2.336 c -3.75,-3.891 -4.285,-4.668 -8.57,-5.836 -5.36,0 -9.11,-1.168 -13.934,-1.555 l -2.144,-3.113 c -3.215,-1.945 -8.036,-0.777 -11.25,-0.777 -3.215,-2.723 -5.895,-4.668 -10.719,-5.059 -1.606,2.336 -5.895,1.168 -12.324,-3.113 -4.821,0 -4.821,-4.668 -7.5,-2.332 l -3.215,-2.336 c -3.215,1.558 -8.039,-0.778 -11.254,1.558 l -2.141,-5.058 c -5.894,-2.336 -10.183,0 -16.078,0.386 -3.75,-2.332 -8.57,-0.386 -10.715,-2.722 l -1.605,2.336 -4.289,-4.668 -8.574,0 -3.75,-2.727 c -13.395,5.059 -25.184,0.781 -38.579,1.168 -2.679,3.891 -8.039,0 -8.574,3.891 -6.429,-0.778 -4.285,-6.613 -9.644,-6.613 -3.75,0 -3.75,4.281 -8.039,4.281 -0.536,-0.781 -1.071,-1.559 -1.606,-1.559 l 0,0.391 c -1.609,-1.168 -4.289,-1.168 -6.43,-1.168 -4.824,0.39 -8.574,1.168 -13.398,0.39 -4.285,0.778 -6.43,4.668 -10.18,4.278 l -2.144,-1.945 c -4.285,0.777 -8.571,0 -11.25,0.777 -2.145,4.672 -8.039,3.89 -8.574,5.058 l -4.286,-0.386 -2.144,-3.114 c -3.215,3.5 -5.895,3.5 -9.109,6.223 -8.575,0 -16.61,0.391 -24.649,0.391 -3.75,4.277 -4.82,4.668 -8.035,7.781 l -4.824,-0.777 c -3.75,2.722 -5.36,4.277 -8.574,5.445 -6.965,0.777 -13.93,-1.168 -19.825,0.777 l -2.679,5.836 c -9.645,0 -17.684,3.114 -27.864,5.836 0,4.668 -5.894,4.281 -6.429,6.613 l -4.825,-2.332 -4.82,5.446 -5.359,-1.168 c -4.285,2.336 -6.43,7.39 -9.645,10.504 -6.965,0.777 -10.18,-3.114 -13.93,0.777 -3.753,3.504 1.606,5.059 -1.609,7.395 -3.215,1.168 -5.894,2.722 -8.035,2.722 l -2.68,2.332 -1.609,-2.332 c -4.285,2.723 -4.285,8.559 -7.5,8.559 -3.75,-2.723 -5.359,1.945 -8.574,-1.168 -3.215,4.281 -8.039,4.281 -8.039,10.894 -3.75,0.391 -5.895,5.836 -8.571,5.836 l -1.609,3.114 c -3.75,0 -5.359,2.332 -8.574,2.332 -1.071,3.504 0,5.058 -1.071,8.171 -4.285,2.333 -5.894,-1.558 -8.039,0 -3.214,2.333 -4.82,4.278 -7.5,5.836 l -2.679,-0.39 c -0.535,-5.446 -5.36,-5.446 -4.285,-10.113 -1.61,-4.672 -3.215,-5.836 -5.36,-8.95 -1.07,-4.668 4.285,-7.781 0,-10.504 l -2.68,-1.945 c -2.14,-3.113 -5.359,-8.949 -5.359,-12.449 l -4.285,-4.668 c 1.609,-3.504 1.609,-7.781 4.285,-8.563 -3.75,-3.5 -5.355,-7.39 -8.035,-9.336 -2.68,-7.003 -4.285,-12.449 -8.039,-15.562 -2.141,-5.055 3.215,-2.723 3.215,-7.391 4.824,-0.777 5.359,-3.89 8.574,-4.281 l 2.68,-5.445 c 4.285,0.777 8.574,0.777 10.714,1.168 2.68,-3.114 1.075,-5.836 0,-7.004 l 5.36,0 c 3.215,-4.278 5.894,-6.613 9.109,-10.113 1.61,-3.114 5.36,-1.946 8.039,-3.114 l 4.285,-1.554 c 3.215,-3.114 4.286,-5.45 4.286,-7.395 4.289,-2.723 5.359,1.168 8.574,-1.555 1.07,-3.113 4.824,-4.668 7.504,-3.113 2.675,-2.723 7.5,-4.668 8.57,-6.613 4.824,1.945 6.969,-2.336 8.574,-3.891 8.039,-0.777 16.074,-5.445 23.578,-10.894 3.215,-1.164 8.035,-1.164 8.035,-3.5 5.36,0 8.575,0 13.399,0.777 4.285,-0.777 3.75,-6.613 6.965,-6.613 4.285,-1.946 8.574,-1.946 11.25,-2.336 2.144,-1.946 3.754,-5.446 6.969,-4.668 6.429,-1.164 8.57,-4.278 13.929,-4.278 l 2.68,1.555 c 5.359,-1.555 9.109,-3.5 12.324,-6.223 5.36,-0.781 9.645,-0.781 13.395,-0.781 3.215,-2.332 3.215,-4.668 4.289,-7 5.355,-2.336 9.109,2.332 13.929,-0.781 l 2.68,-2.723 c 11.789,2.336 25.184,-2.332 36.438,-2.332 l 5.355,-5.449 c 5.359,-0.777 5.895,2.727 8.574,5.449 3.215,-2.722 5.895,-6.613 10.719,-6.613 5.895,1.555 8.035,-1.168 11.25,-2.336 l 3.215,3.891 c 8.039,1.168 13.398,-2.723 20.363,-4.668 l 1.07,0 7.504,4.277 c 3.75,-0.777 8.571,0 11.25,-0.777 l 3.75,-3.5 c 4.825,3.5 10.184,3.5 13.399,4.277 l 4.82,2.336 3.215,-3.113 c 5.895,0 11.254,1.168 16.613,0 l 2.141,3.113 c 8.039,-2.336 13.933,1.555 20.363,1.555 l 4.82,-3.5 c 2.68,-0.391 5.36,2.336 7.504,1.945 1.606,2.723 6.965,1.555 9.11,5.059 5.894,0 13.394,1.554 19.824,-0.391 1.609,6.613 10.18,0 12.859,5.836 8.575,-2.336 16.614,5.445 24.649,2.336 5.359,0.777 6.965,5.445 11.254,8.558 5.359,-1.168 4.285,-5.449 9.109,-5.449 l 0.535,5.449 4.821,3.5 5.894,-1.945 c 2.68,1.945 2.68,6.613 5.359,7.391 3.215,-5.055 7.5,0 11.254,-1.946 2.141,4.672 5.356,1.946 8.036,4.282 l 4.824,3.89 c 3.75,2.336 8.574,2.336 11.25,2.336 l 3.754,5.055 c 4.285,-1.945 5.355,-1.945 8.035,-1.945 4.289,2.336 8.039,2.336 8.574,4.281 l 3.75,2.723 c 3.75,0.777 3.75,3.89 8.039,3.89 0,4.668 6.43,3.891 6.965,5.059 5.359,-3.504 7.5,5.445 11.254,3.113 6.965,4.668 12.859,8.168 19.289,10.504 l 2.144,5.445 c 3.75,0 7.5,0.778 8.571,3.5 3.215,1.168 5.359,1.946 8.039,1.946 l 3.75,5.449 c 4.824,2.332 10.179,5.054 13.394,5.054 1.61,3.504 5.36,3.504 8.039,4.672 2.145,3.887 5.36,8.559 7.5,11.282 l 5.36,0 c 3.215,3.113 4.285,4.277 3.75,7.39 6.969,3.891 11.254,6.614 18.219,8.172 1.074,1.945 2.679,5.445 5.894,4.668 3.215,1.945 3.215,7.781 4.824,8.559 l 3.215,0.386 c 1.606,4.282 6.43,7.782 8.035,10.895 l 5.36,-0.777 5.894,3.113 c 1.07,4.668 -2.68,3.5 -2.68,7.781 l 2.145,2.332 4.285,-1.168 c 1.61,2.727 2.68,4.672 5.895,5.059 l 2.144,5.449 c 4.821,3.109 8.035,5.832 9.11,10.113 -0.539,4.282 3.75,5.446 4.82,8.172 4.824,-1.558 3.215,4.277 8.039,4.277 l 4.82,4.668 2.68,5.45 c 3.215,1.945 5.359,3.109 3.75,5.836 3.215,4.277 4.289,5.445 7.504,8.558 l 2.14,0.387 c 3.215,3.504 6.43,5.449 6.43,7.781 l 0,3.113 c 3.219,2.332 3.754,5.059 5.36,7.004 0,5.446 4.824,4.278 3.214,7.782 4.825,3.886 5.895,7 10.719,9.336 1.07,3.113 0.535,8.168 2.141,10.89 3.754,3.504 4.289,4.672 5.359,8.563 l -1.07,2.722 c 1.07,2.723 5.894,4.668 7.5,2.723 0,4.668 4.824,3.5 5.359,12.449 3.75,1.168 9.11,3.113 3.75,4.668 2.145,5.059 5.36,10.895 5.36,15.172 5.359,5.836 5.359,14.008 10.714,17.508 0.536,4.281 0.536,7.781 -0.535,8.558 3.215,4.668 7.504,7.004 10.719,9.34 0.535,3.5 -2.144,7 1.07,8.168 l 5.895,1.946 c -1.609,7.003 -1.074,14.785 0,19.453 5.355,2.722 1.07,7.781 2.68,12.058 3.75,1.168 3.75,5.45 4.285,6.614 l -0.535,2.726 c 3.214,7.391 8.574,8.559 9.109,13.227 l -2.145,5.836 c 4.286,1.945 0,6.613 4.286,8.168 0,5.449 -4.286,8.949 -1.606,14.007 4.82,2.723 8.574,4.668 10.18,8.168 l -5.36,4.668 c 1.075,5.45 2.68,8.563 5.36,11.286 -2.68,4.277 1.074,11.281 -2.68,14.394 2.68,4.668 3.215,5.059 5.895,8.168 0.535,3.504 -2.141,5.449 -1.071,8.172 l 4.285,5.445 c -4.285,2.336 0,5.446 0,8.559 l -5.355,3.504 c 5.355,5.054 0,8.168 5.355,12.449 -2.679,5.836 -2.679,8.945 -2.679,13.617 l 0,-0.004 z"
         style="fill:#1f1a17;fill-opacity:1;fill-rule:evenodd;stroke:none"
         id="path4360"
         inkscape:connector-curvature="0" /><path
         d="m 903.754,833.448 125.988,0 -251.976,-690.8 -117.301,0 0,690.8 117.301,0 0,-346.976 125.988,346.976 z"
         style="fill:#006cae;fill-opacity:1;fill-rule:evenodd;stroke:none"
         id="path4362"
         inkscape:connector-curvature="0" /><path
         d="m 1173.109,111.101 0,-92.59 1.61,0 7.5,3.891 c 3.754,-0.391 8.574,0 11.254,-0.391 l 3.75,-3.5 c 4.824,3.5 10.179,3.5 13.933,3.891 l 4.821,2.332 2.679,-2.723 c 6.43,0 11.254,1.555 16.61,0 l 2.679,2.723 c 8.039,-2.332 13.399,1.945 19.828,1.945 l 4.821,-3.113 c 3.215,-1.164 5.359,2.726 8.039,1.168 1.07,2.722 8.035,1.945 8.574,5.449 7.5,0 13.395,0.777 19.824,-0.391 1.071,5.836 10.715,0 12.324,5.059 9.11,-2.336 17.145,6.222 25.184,3.109 5.895,0.391 6.965,5.449 11.254,8.172 5.355,-0.391 4.285,-5.059 9.645,-5.059 l 1.07,5.059 4.285,3.891 5.359,-2.723 c 2.68,2.723 2.68,7.391 5.36,7.781 4.82,-3.89 7.5,0 11.254,-1.168 2.14,4.278 5.89,1.168 8.035,3.5 l 4.824,5.059 c 3.75,1.168 8.57,1.168 11.25,1.168 l 3.75,4.668 c 4.289,-0.777 5.359,-0.777 8.039,-0.777 4.285,1.945 8.039,1.945 8.574,3.5 l 3.215,3.113 c 4.285,0.777 4.285,3.5 8.574,3.5 0,4.668 6.43,4.281 6.965,5.449 5.36,-3.504 8.035,4.668 11.25,3.109 6.969,4.668 13.399,8.172 19.293,9.727 l 2.141,6.227 c 3.754,0 8.039,0.386 8.574,3.89 3.215,0.777 5.359,1.164 8.039,1.164 l 3.75,5.059 c 4.82,2.722 10.18,5.836 15.004,5.836 0.535,4.281 5.355,4.281 6.43,4.668 2.14,3.504 5.359,8.558 7.5,11.285 l 5.894,0 c 2.68,2.332 4.824,4.668 3.215,7.777 6.965,3.113 11.254,5.836 18.219,8.172 1.07,1.168 2.679,5.445 5.894,4.281 3.215,1.946 3.215,7.778 5.36,8.168 l 2.675,1.168 c 2.68,3.891 6.434,7.391 8.04,10.895 l 5.894,-1.946 5.359,3.5 c 1.071,5.059 -2.679,4.278 -2.679,7.782 l 2.14,2.332 4.289,-1.555 c 1.606,4.281 3.75,4.668 6.965,6.613 l 1.071,4.668 c 4.824,3.504 8.039,6.614 9.109,9.34 -0.535,5.445 3.754,5.836 4.824,8.945 4.82,-1.164 3.215,4.668 8.039,4.668 l 4.821,4.282 2.144,5.445 c 3.75,1.559 5.356,2.727 4.285,5.059 3.215,4.281 4.289,6.226 7.504,8.949 l 2.676,1.168 c 2.144,3.109 5.894,5.445 5.894,7.39 l 0,2.332 c 3.215,2.727 3.754,5.836 5.36,7.782 0,4.672 5.359,3.504 3.215,7.394 4.824,4.278 6.429,7.781 10.718,8.946 1.071,3.503 0.536,8.562 2.676,11.285 3.215,4.277 4.824,4.668 5.36,8.558 l -0.536,2.723 c 0.536,2.336 4.821,4.668 6.43,2.336 0,5.445 4.824,5.055 5.895,12.449 4.285,1.945 8.574,3.109 4.285,6.223 1.074,3.89 4.289,9.336 4.289,13.617 5.355,6.613 5.355,14.785 11.25,18.285 1.074,4.281 1.074,7.781 -1.07,8.168 3.214,5.059 7.5,6.617 10.714,9.727 0.539,3.504 -2.14,7.781 1.075,8.172 l 5.894,2.332 c -1.609,6.617 -0.539,13.617 0,19.843 5.356,2.332 1.07,6.223 4.285,10.504 2.145,1.946 2.145,5.836 2.68,7.004 l -0.535,3.109 c 3.215,6.618 8.57,8.172 9.644,13.231 l -2.679,5.055 c 4.285,2.336 0,7.781 4.285,8.562 0,5.832 -4.285,10.113 -1.07,14.004 4.285,3.113 8.039,4.668 9.644,8.559 l -5.359,4.668 c 1.074,4.668 3.215,8.171 5.359,11.281 -2.144,4.672 2.145,11.285 -2.144,13.617 2.144,4.668 2.679,5.836 5.359,8.172 0.535,4.668 -1.07,5.836 -0.535,8.559 l 3.75,5.835 c -3.75,1.555 0,5.446 0,8.168 l -4.285,4.282 c 4.285,4.668 0,8.168 4.285,11.672 -2.68,5.445 -2.68,8.949 -2.68,13.617 2.68,8.945 7.504,25.285 2.68,33.457 0,12.84 0,28.398 -3.215,42.015 2.68,3.114 0,5.45 2.68,8.559 l -3.215,1.559 c -0.535,8.945 3.215,17.894 -2.68,24.898 l -2.68,2.332 c 3.215,3.504 1.075,9.727 3.215,13.617 -2.679,1.946 -2.679,5.449 -3.215,8.559 0.536,3.504 2.68,3.89 2.68,7.004 -2.144,3.113 -8.039,1.945 -8.039,6.613 0.539,1.559 2.68,5.836 -1.605,5.836 1.07,8.559 1.07,14.785 -0.536,22.566 l -4.289,4.668 -1.605,5.446 1.605,3.113 c -1.605,3.5 -6.429,3.891 -6.429,8.168 0,4.281 4.824,3.504 2.679,7.004 -1.605,4.668 -6.965,4.281 -8.035,5.449 l 1.606,6.613 c -3.215,2.723 -3.215,7 -5.36,10.114 l 0,2.722 -2.14,3.891 -3.215,0.39 -1.074,2.333 3.214,1.945 c -2.14,7.781 -6.964,11.672 -8.035,16.34 l 0.535,3.89 -5.359,3.891 c -0.535,4.672 -3.215,4.672 -3.215,8.559 l -3.215,2.726 c -0.535,4.277 -1.605,5.445 -1.605,8.559 l -2.68,4.668 -1.074,1.554 c -0.535,3.891 0.539,7.395 -1.605,8.559 l -3.215,1.168 -2.145,2.336 c 1.074,3.113 1.074,5.836 0,7.781 l -5.359,1.555 0,5.445 -3.215,4.672 c -3.75,-2.727 -5.356,3.109 -8.035,3.109 -1.071,5.45 1.605,8.95 -0.535,13.618 -5.36,4.667 -8.575,10.503 -14.469,11.671 -0.535,4.282 -0.535,6.614 -0.535,8.559 -4.825,1.559 -5.36,4.281 -8.575,4.668 -4.285,7.781 -7.5,14.394 -12.859,19.062 0,1.559 0,7.782 -3.75,5.836 -4.289,1.946 -6.965,5.836 -8.039,8.95 l 0.535,5.445 c -4.285,0 -7.5,2.336 -8.035,2.726 -2.145,5.446 -9.109,8.559 -11.254,13.227 l -1.605,3.113 c -1.075,-0.781 -6.969,-0.781 -4.825,2.332 -1.605,1.559 -3.214,2.723 -4.285,4.668 l 0,-4.668 -12.859,2.336 c -3.215,-3.113 -6.969,-6.226 -11.789,-7.781 -1.074,-4.668 -3.215,-8.949 -5.895,-13.227 -4.824,-4.671 -5.359,-10.117 -6.965,-16.339 l -4.824,0 c -1.07,-8.563 -10.179,-24.903 -12.859,-34.625 4.285,-2.727 3.215,-5.836 7.5,-7.782 l 3.215,3.11 3.754,-5.446 1.07,-3.89 3.215,-1.945 c 2.679,-3.5 5.359,-4.668 5.894,-7.782 l 0.535,-1.554 c 3.215,-3.891 5.36,-5.446 7.5,-5.446 2.68,-3.113 3.215,-7.781 3.754,-12.062 l 5.895,-1.555 c 2.141,-2.336 2.141,-5.449 2.676,-7.781 l 2.679,-1.945 c 3.75,-3.504 0,-7.004 4.825,-12.45 5.359,-2.722 -0.536,-8.172 6.964,-8.172 l 0,-5.836 c 1.61,-5.054 9.11,-4.277 10.18,-9.726 -0.535,-3.891 3.215,-3.891 2.68,-8.168 4.824,-4.281 6.965,-11.281 8.574,-15.953 l 0,-3.11 c 4.285,-0.39 3.75,-5.449 2.68,-6.613 5.359,-5.058 5.894,-10.117 11.25,-13.617 -1.071,-3.504 -2.141,-5.449 -2.141,-8.172 l 4.285,-4.668 c 3.215,-8.949 10.719,-14.785 8.574,-23.73 l 3.75,-5.059 c -1.07,-3.5 0,-5.059 -1.07,-8.172 3.215,-10.113 8.035,-13.613 9.645,-22.562 0.535,-5.446 -1.61,-9.336 -1.61,-13.617 0.539,-4.278 4.825,-4.278 6.969,-7.004 l -4.824,-4.278 c 1.07,-4.668 6.43,-4.281 6.43,-7.781 l 0,-2.336 -1.606,-4.668 c 0.535,-5.445 4.285,-5.445 4.285,-7.004 -4.285,-3.109 0,-7.777 -2.679,-11.281 l 4.824,-3.891 c 0.535,-3.5 3.215,-4.668 3.215,-8.168 l -3.754,-4.668 3.218,-2.336 c 1.071,-4.281 0,-5.445 1.071,-8.558 -4.289,-3.891 -0.535,-7.004 -0.535,-11.281 l -3.215,-1.559 c 0,-4.668 5.355,-4.668 2.679,-8.168 l 1.071,-2.723 c 0,-5.836 -4.289,-8.171 -4.289,-13.617 l 1.074,-1.168 c -1.074,-7.004 2.144,-14.785 2.144,-19.453 -2.144,-4.668 -4.824,-7.004 -4.824,-10.113 l -1.07,-5.836 2.676,-3.113 c -1.606,-4.282 -1.606,-7.004 -4.285,-8.172 2.679,-4.668 0,-12.449 2.679,-16.727 -4.285,-3.113 1.606,-3.113 0.535,-6.613 -4.82,-7.004 -3.214,-14.785 -4.82,-22.567 l -5.359,-3.89 3.215,-5.445 c -2.68,-4.282 0,-5.836 -2.68,-8.172 -3.215,-1.946 -1.606,-7.391 -4.824,-7.391 l 1.609,-5.445 c -3.75,-2.336 -3.75,-5.836 -4.824,-8.559 L 1650,446.46 c -3.215,-2.722 -3.215,-7.781 -4.289,-8.558 -5.356,0 -1.606,-6.614 -5.356,-7.782 l 2.68,-5.836 c -4.824,-5.836 -9.648,-12.449 -11.789,-19.453 l 4.285,-3.5 c -3.215,-6.226 -6.429,-10.117 -9.109,-12.449 -2.68,-5.449 -6.965,-8.949 -7.5,-11.281 0.535,-6.617 -2.68,-11.285 -3.215,-16.344 l -2.68,-0.387 c -5.359,-6.613 -11.789,-12.062 -11.254,-20.23 -5.355,-0.391 -5.355,-5.445 -6.964,-7.004 l 1.609,-3.113 c -2.68,-5.446 -6.434,-8.168 -10.719,-12.45 l 0,-3.109 c -3.215,-1.558 -4.82,-5.058 -6.429,-7.004 l 0,-3.113 -5.36,-0.387 c -2.14,-4.281 -4.82,-4.672 -4.285,-8.172 -2.68,-4.281 -6.965,-5.445 -8.039,-8.558 -1.606,-7.782 -9.109,-10.504 -11.785,-15.953 l 0,-5.832 -5.895,0 1.071,-5.45 -4.286,-4.668 -2.679,0.391 c -4.289,-2.727 -4.289,-5.059 -7.504,-7.004 l -5.356,-1.168 0.536,-5.445 c -4.29,-2.723 -8.575,-4.668 -12.325,-9.34 l -5.359,-0.777 c 0,-3.891 -6.965,-4.668 -4.82,-8.168 -3.754,-2.336 -5.36,-5.45 -6.43,-7.782 l -5.895,0 -1.074,-5.445 c -8.57,-0.391 -12.324,-7.004 -17.68,-10.508 l 0,-2.332 c -5.894,-1.168 -8.039,-3.5 -11.789,-3.5 -4.289,-3.113 -9.644,-8.562 -12.859,-11.285 l -2.68,-0.777 -5.894,0.777 c -2.145,-4.277 -2.68,-5.836 -5.36,-7.391 -3.214,0 -5.894,-0.39 -8.035,-1.554 l -2.679,-6.617 c -5.895,-1.164 -13.934,-1.555 -17.684,-5.446 1.07,-5.836 -4.824,-2.722 -4.824,-6.222 l -4.821,2.722 -2.679,-4.668 c -3.75,-1.168 -5.36,-3.504 -8.039,-4.281 l -5.356,0 c -1.074,-2.723 -4.289,-5.836 -6.429,-7.004 l -4.825,1.945 c -3.75,-3.113 -4.285,-5.054 -8.574,-5.445 -5.355,0 -8.57,-0.777 -13.394,-1.945 l -2.68,-2.723 c -3.215,-2.336 -8.035,-0.777 -11.25,-0.777 -2.68,-2.727 -5.895,-4.672 -10.719,-5.836 -1.605,3.109 -5.894,2.332 -11.789,-3.113 -5.355,0 -5.355,-4.668 -8.035,-1.559 l -3.215,-3.109 c -3.215,2.332 -7.504,-0.391 -10.719,2.332 l -1.07,-5.446 c -7.5,-2.336 -11.254,0 -16.609,0.778 -4.289,-2.332 -9.645,-0.778 -11.789,-3.114 l -1.61,2.336 -3.215,-5.058 -9.644,0 -4.285,-1.946 c -12.86,4.668 -24.649,0.778 -38.582,1.168 -2.141,3.5 -7.5,0 -8.035,3.5 -6.43,-0.386 -4.29,-7 -8.04,-7 -4.82,0 -4.82,4.278 -8.574,4.278 -1.07,-0.778 -1.605,-1.168 -3.215,-1.168 z"
         style="fill:#009b87;fill-opacity:1;fill-rule:evenodd;stroke:none"
         id="path4364"
         inkscape:connector-curvature="0" /><path
         d="m 1173.109,1152.038 0,-87.144 3.754,0 c 5.356,-1.946 15,-1.559 21.434,-3.113 l 4.82,3.113 c 8.039,-2.723 12.86,-4.281 20.363,-1.946 l 2.68,-1.167 c 5.356,0 8.57,4.281 12.32,1.554 l 2.145,-1.554 5.895,1.167 c 3.214,-2.335 4.824,-5.449 10.179,-4.281 3.215,-1.554 6.969,-1.554 8.039,-3.89 l 5.895,-0.778 c 2.14,3.5 8.035,3.114 10.715,3.5 l 5.894,-5.445 c 3.75,-1.168 8.039,0 10.719,0 l 5.355,-1.555 1.075,-3.504 5.355,3.891 c 4.824,-0.387 5.359,-3.891 8.574,-4.668 3.215,0 8.039,0.777 11.254,-0.387 l 1.606,-3.113 c 3.75,-1.945 8.574,-1.945 11.254,-1.945 0.535,-5.836 5.894,-3.891 9.109,-6.227 l 2.68,0.391 c 2.14,-2.336 8.035,-1.559 8.035,-5.059 4.824,0.391 8.574,-3.113 10.719,0.391 5.894,-3.113 7.5,-8.949 11.785,-11.285 l 5.894,1.168 c 4.289,-1.946 4.824,-4.668 8.039,-4.668 l 5.36,0 c 2.14,-5.446 8.035,-3.114 10.715,-5.836 l 5.359,-1.168 c 3.215,-4.278 8.574,-7.391 10.18,-11.282 l 2.144,0 c 6.43,7.004 11.25,15.95 15.539,24.122 l 2.68,0 c 5.355,5.836 5.894,5.445 6.965,15.949 l 4.82,1.168 1.609,10.117 9.11,3.109 1.07,15.563 13.399,0.39 c 1.07,0.778 1.605,1.168 2.14,2.332 -0.535,0 -1.07,0.782 -1.07,0.782 l 0,2.722 c -2.68,3.891 -7.504,2.332 -8.039,5.059 l -2.68,0 c -7.5,3.5 -13.93,11.668 -25.184,14.781 -3.75,1.559 -5.355,0 -8.035,1.559 l -3.215,5.445 c -4.289,0 -8.039,1.168 -11.253,1.945 l -1.071,3.5 c -5.894,-2.332 -8.574,2.723 -13.933,1.559 -2.68,3.109 -6.965,4.277 -11.25,4.668 l -3.754,6.223 -4.821,-2.332 c -3.75,2.332 -4.824,4.668 -8.039,7 l -5.355,-0.778 c -3.215,1.168 -3.215,6.227 -6.969,3.891 -6.429,0.391 -6.429,4.668 -11.25,4.668 -8.574,0 -15.539,1.168 -23.043,1.168 l -5.355,2.723 -3.215,3.113 c -9.109,1.945 -17.684,1.168 -27.863,3.113 l -2.68,6.613 c -3.75,-1.945 -5.895,-3.89 -9.109,-3.89 -4.29,1.168 -4.29,4.281 -6.965,3.89 l -3.215,-2.722 c -5.895,7.781 -18.754,5.445 -25.723,7.781 -10.179,-3.891 -18.754,1.168 -28.398,-1.168 l -4.821,3.5 c -4.289,-1.164 -8.574,0 -10.718,-1.164 l -2.68,-2.336 -4.82,3.5 c -4.289,0.781 -4.289,-2.723 -8.039,-2.332 l -2.68,2.332 c -6.43,-3.5 -13.93,-2.723 -21.434,-2.723 z"
         style="fill:#009b87;fill-opacity:1;fill-rule:evenodd;stroke:none"
         id="path4366"
         inkscape:connector-curvature="0" /><path
         d="m 1173.109,1063.718 0,88.313 c -0.535,5.835 -4.285,0 -6.964,3.113 -11.25,-7.781 -26.254,-1.946 -39.114,-5.059 -1.609,-2.722 -6.969,-2.722 -7.504,-4.668 l -5.894,-1.558 c -5.356,3.504 -13.93,-1.164 -20.36,1.558 l -1.074,1.946 c -3.75,0 -7.5,-0.778 -7.5,-4.668 l -4.285,1.164 c -7.504,-1.946 -10.184,-5.446 -15.004,-6.614 -4.289,-0.777 -10.719,1.559 -13.933,-1.945 l -0.536,-2.332 c -7.5,-2.336 -11.789,-1.559 -19.289,-1.559 1.606,-5.445 -6.429,-4.277 -8.039,-6.613 -3.215,-1.945 -8.035,0 -11.25,-1.945 l -4.824,-5.055 c -3.215,-0.781 -6.965,-0.781 -8.035,1.164 -3.754,-2.722 -4.824,-5.054 -8.574,-5.445 -3.75,1.168 -6.43,-2.336 -11.254,-2.336 -3.75,-4.668 -6.965,-5.836 -9.11,-8.559 -4.285,1.168 -5.894,3.114 -8.57,1.168 l -2.144,-2.722 c -5.895,-5.446 -11.254,-5.836 -17.149,-6.614 l -2.68,-5.449 c -4.285,-2.722 -5.355,0.781 -8.035,0 -4.824,-2.332 -8.039,-5.055 -10.179,-5.055 l -2.68,-3.113 -5.359,0 c -8.04,-4.281 -12.86,-10.504 -17.684,-15.562 -6.965,-2.332 -13.93,-4.668 -18.215,-7.782 l -1.074,-1.168 -3.215,-5.054 -5.894,-0.781 c -2.141,-6.614 -9.645,-7.778 -12.325,-11.668 -5.355,-0.782 -8.57,-5.059 -11.25,-6.614 -2.144,-5.449 -4.824,-5.449 -4.824,-8.172 l -1.605,-3.113 -5.36,1.168 c -3.215,-3.113 0,-5.836 -3.215,-7.004 l -6.429,1.168 c -1.075,-4.277 -3.215,-7.781 -5.36,-10.894 -3.75,-1.555 -6.965,0 -8.574,-1.555 -0.535,-7.391 -6.43,-7.391 -6.965,-10.895 -5.359,-3.89 -9.644,-7.781 -11.254,-12.449 l -5.355,-2.722 c -1.074,-5.446 -7.504,-6.223 -7.504,-10.895 -4.82,-1.164 -4.82,-3.5 -8.57,-3.109 -4.825,-0.391 -3.215,-6.227 -7.504,-6.227 l -2.68,-5.445 2.145,-3.114 c -2.145,-2.335 -5.36,-5.058 -5.36,-8.949 l -4.82,-3.5 -2.68,-4.668 c -3.215,-3.504 -8.039,-3.504 -11.254,-5.449 -0.535,-5.055 -3.215,-5.055 -3.215,-9.336 -2.144,-1.945 -5.359,-3.113 -5.894,-5.445 -3.215,-5.449 -0.535,-8.949 -3.215,-13.617 l 2.68,-1.555 c 8.039,0 12.859,1.555 18.219,0 2.144,2.723 6.429,0.387 9.644,2.723 3.75,-2.336 5.895,-4.282 10.715,-2.723 1.609,2.723 5.894,2.723 8.039,3.5 0.535,-3.5 6.43,-1.945 6.43,-6.227 l 3.214,0 c 5.36,2.727 5.895,5.45 10.719,6.227 l 9.11,-3.113 c 4.82,1.168 4.82,3.504 8.035,3.504 l 2.679,-0.391 2.68,-3.113 c 4.82,3.504 4.82,-3.114 8.035,-3.114 4.825,3.114 9.11,6.227 13.934,6.618 0.535,4.277 2.144,5.832 2.144,8.558 l 3.215,2.723 4.821,0 c 0.535,4.668 3.214,4.668 5.894,4.668 2.68,2.722 2.145,7.781 5.895,8.558 5.359,1.555 5.894,7.782 10.179,8.172 l 3.75,3.11 0,2.726 4.825,-1.168 c 1.07,3.891 3.214,6.223 5.894,6.223 l 2.145,1.168 1.07,3.5 -3.215,2.726 c 0.535,3.11 3.75,5.446 5.895,3.11 l 5.894,2.336 3.75,4.277 -2.144,2.727 c 6.429,1.945 12.324,3.109 19.289,5.445 l 0,3.113 c 3.754,4.278 4.824,5.446 5.894,8.168 4.824,3.113 10.719,4.668 14.469,4.668 1.605,7.781 8.039,3.113 8.039,8.949 4.285,0 8.035,2.336 8.57,3.114 l 1.61,3.113 c 8.035,3.891 11.789,8.168 21.433,9.727 l 4.285,5.054 4.825,-2.332 c 3.215,2.332 8.035,4.668 8.57,8.168 l 3.215,0 c 5.359,1.168 8.039,3.504 11.254,5.449 l 1.609,2.332 c 8.035,-4.277 16.074,1.168 19.824,3.891 l 1.606,5.059 c 6.969,-3.114 11.789,4.668 19.828,3.5 l 2.68,-2.332 c 3.75,3.5 6.964,7.39 11.25,8.168 l 2.679,1.945 c 3.215,-7.781 8.039,4.668 11.254,-3.891 3.75,1.946 5.895,6.614 8.574,8.559 3.215,-4.278 8.036,-1.945 11.25,-1.945 l 3.215,3.113 c 4.289,1.554 5.36,1.554 8.039,1.554 4.821,-2.722 7.5,0 11.25,-2.332 2.145,2.332 5.36,3.5 7.504,2.332 l 2.68,0.782 2.68,3.109 c 2.675,-1.164 5.355,1.559 8.035,0.391 3.215,-3.114 10.719,-3.114 13.933,0 3.215,-1.555 8.036,1.168 11.25,0 2.145,1.168 2.68,2.336 3.75,3.113 z"
         style="fill:#009b87;fill-opacity:1;fill-rule:evenodd;stroke:none"
         id="path4368"
         inkscape:connector-curvature="0" /><path
         d="m 1173.109,16.472 0,92.594 c -1.07,-0.391 -3.214,-0.391 -4.285,-0.391 -6.965,0.391 -10.179,1.168 -15.004,0.391 -4.285,0.777 -6.429,5.058 -9.644,4.277 l -2.68,-2.332 c -4.285,1.168 -8.57,0 -11.25,1.168 -2.144,4.668 -8.039,4.277 -8.574,5.445 l -4.285,-0.777 -1.075,-2.723 c -4.285,3.5 -6.964,3.5 -10.179,5.055 -8.574,0 -16.61,1.168 -24.649,1.168 -3.75,3.113 -4.824,4.668 -8.039,7.781 l -5.355,-1.168 c -3.215,3.113 -5.36,4.281 -8.039,5.836 -6.965,0.777 -12.324,-1.555 -19.824,0.777 l -2.68,5.45 c -9.645,0 -17.684,3.5 -27.328,6.222 0,5.059 -6.43,4.282 -6.965,5.45 l -4.824,-1.168 -3.75,5.445 -5.36,-1.168 c -5.355,1.559 -6.965,7.781 -10.715,10.504 -6.964,0.781 -10.179,-2.723 -13.933,0.781 -2.676,3.5 1.609,5.055 -1.606,7.777 -3.214,1.168 -5.359,2.336 -8.039,2.336 l -1.07,2.336 -3.215,-2.336 c -4.285,2.723 -4.285,8.172 -7.5,8.172 -3.754,-2.336 -5.359,2.332 -8.574,-0.781 -3.215,4.281 -8.039,4.281 -8.039,10.895 -3.75,0.39 -5.359,5.835 -8.574,5.835 l -0.535,3.114 c -4.286,0 -6.43,1.168 -8.036,1.168 -2.679,4.668 0,6.613 -2.679,9.336 -4.289,2.332 -5.36,-1.559 -8.039,0 -2.68,2.332 -4.821,4.277 -7.5,6.222 l -2.145,-0.777 c -0.535,-5.445 -5.894,-5.445 -4.285,-10.113 -2.145,-5.45 -2.68,-5.836 -5.895,-8.95 -1.07,-4.667 4.286,-8.171 0,-11.281 l -2.144,-1.168 c -2.68,-3.5 -5.895,-8.949 -5.895,-12.449 l -4.285,-4.668 c 2.145,-3.504 2.145,-7.781 4.285,-8.172 -3.214,-3.89 -5.355,-7.781 -8.035,-10.89 -2.144,-5.836 -4.289,-11.672 -8.039,-14.008 -2.144,-6.223 3.215,-3.114 3.215,-7.781 4.824,-0.778 5.895,-3.891 8.574,-5.446 l 2.68,-4.668 c 4.285,0.387 8.574,0.387 11.25,1.555 2.144,-2.723 1.609,-5.836 0,-7.004 l 4.824,0 c 3.75,-4.277 5.895,-7 9.109,-10.113 2.145,-3.114 6.43,-1.946 8.036,-3.114 l 4.289,-2.332 c 3.215,-2.336 4.285,-4.671 4.285,-7.781 4.289,-1.558 6.43,2.723 8.039,-0.39 2.141,-3.114 6.965,-4.668 8.035,-3.114 2.68,-2.722 7.504,-4.668 8.574,-6.222 5.36,1.554 6.965,-2.723 9.645,-4.282 8.574,-0.777 15.539,-5.836 22.504,-10.894 3.215,-2.332 8.039,-2.332 8.039,-3.887 5.359,0 8.574,0 13.933,0.387 4.821,-0.387 3.75,-5.836 6.43,-5.836 4.285,-1.945 8.57,-1.945 11.25,-2.332 2.68,-1.945 3.75,-5.449 7.504,-4.672 6.43,-1.164 8.035,-4.277 13.395,-4.277 l 2.679,1.168 c 5.36,-1.168 9.11,-3.504 12.324,-5.836 5.356,-0.778 9.645,-0.778 13.395,-0.778 3.215,-2.336 3.215,-5.058 4.285,-7.004 5.895,-3.113 9.109,1.946 14.469,-1.168 l 2.144,-2.335 c 11.789,1.167 25.184,-3.11 36.434,-3.11 l 5.894,-4.668 c 4.825,-0.781 5.36,3.11 8.04,4.668 3.75,-1.558 5.894,-5.836 10.714,-5.836 5.895,1.555 8.575,-1.168 11.254,-2.336 l 3.215,3.891 c 8.039,1.558 13.934,-2.723 19.824,-4.668 z"
         style="fill:#009b87;fill-opacity:1;fill-rule:evenodd;stroke:none"
         id="path4370"
         inkscape:connector-curvature="0" /><path
         d="m 130.441,480.163 0,-346.98 -112.957,0 0,687.648 112.957,0 173.778,-479.461 178.121,479.461 112.957,0 0,-684.492 -117.301,0 0,343.824 -125.988,-346.98 -91.235,0 -130.332,346.98 z"
         style="fill:#1f1a17;fill-opacity:1;fill-rule:evenodd;stroke:none"
         id="path4372"
         inkscape:connector-curvature="0" /><path
         d="m 121.75,489.624 0,-346.976 -112.953,0 0,690.8 112.953,0 173.781,-482.613 178.121,482.613 112.957,0 0,-687.648 -117.3,0 0,343.824 -125.989,-346.976 -91.234,0 -130.336,346.976 z"
         style="fill:#006cae;fill-opacity:1;fill-rule:evenodd;stroke:none"
         id="path4374"
         inkscape:connector-curvature="0" /><path
         d="m 1872.57,1372.843 c -3.215,0 -5.894,-2.723 -9.644,-4.668 l 0,0.391 c -0.535,-0.782 -1.61,-0.782 -3.215,-0.782 0,1.168 -5.359,3.114 -6.969,3.114 -2.14,-3.5 -1.605,-5.836 -4.285,-8.168 -0.535,-0.782 -1.07,-0.782 -2.68,-0.782 l 0,0.391 c -1.07,-1.168 -4.285,0 -4.285,0 0.535,-4.668 -4.824,-4.668 -8.574,-5.058 l 0,-1.165 c -2.145,-0.781 -2.68,-0.781 -3.75,-0.781 -1.074,-0.777 0,-3.109 -1.074,-5.054 l 1.074,-0.391 c -0.535,-1.168 -3.75,-3.113 -5.895,-3.113 -1.07,-2.723 0,-7.782 -1.07,-10.114 -2.144,-0.39 -3.754,-0.777 -5.894,-0.777 -3.215,0 -6.43,0 -6.43,-2.727 -1.609,-3.109 -3.215,-1.945 -3.215,-6.613 l -3.215,-3.5 -6.433,0 -0.536,-0.777 -1.07,0.777 c 0.535,-0.777 1.07,-3.113 -1.609,-2.336 -0.535,0.391 -1.071,2.336 -3.215,1.559 l -0.535,-1.168 0,-0.778 c -2.141,-0.777 -3.75,-1.558 -6.43,-2.335 l 0,0.777 c -1.07,-0.387 -2.68,-1.555 -4.285,-2.723 l 0,-1.554 c -4.289,0 -7.504,-2.336 -12.859,-5.45 l 0,-2.332 c -1.61,-1.945 -2.68,-3.5 -4.289,-4.281 -1.071,-1.164 -2.141,-1.164 -2.68,-1.555 l 0,-0.39 c -8.035,-4.278 -3.75,-18.672 -12.324,-18.672 -2.676,2.332 -3.215,2.332 -4.286,3.89 l -1.07,0 -0.535,0.778 c -4.824,-5.445 -4.289,-8.949 -6.969,-13.227 l -1.605,0 c -3.75,-4.672 -3.75,-13.617 -8.039,-15.953 -18.754,4.281 -12.325,-6.613 -26.254,-15.562 -5.36,-1.555 -8.574,-6.223 -11.789,-7.391 -0.535,-1.945 -0.535,-3.891 0,-5.445 6.429,-7.004 -3.75,-8.95 -6.965,-14.395 0,-10.117 -9.645,-8.172 -17.149,-5.836 -2.679,-1.168 0,-5.449 -6.429,-6.613 l -1.606,1.945 c -1.074,-3.113 -1.609,-5.449 -4.289,-7.781 -1.605,-8.172 -5.894,-5.449 -11.25,-7.781 0,-3.114 -9.109,-14.785 -11.254,-16.731 -3.75,-0.386 -8.039,-6.222 -8.039,-11.281 -2.676,-0.391 -3.75,-2.723 -4.82,-2.723 -1.609,-0.777 -2.145,0.387 -3.75,0 0,-3.504 -6.43,-6.226 -7.504,-10.894 l -3.215,-0.391 c -1.07,-1.164 -2.679,-7.777 -5.355,-7.777 -1.61,-3.504 -2.145,-7.004 -6.969,-8.172 -0.535,-4.281 1.074,-5.445 -2.141,-8.559 l -3.214,0 -1.075,2.332 c -6.965,-1.164 -6.965,-12.835 -10.179,-18.671 -0.536,-8.559 -9.645,-5.446 -15.539,-6.614 -1.61,-3.113 -6.43,-13.226 -10.715,-13.226 -1.61,-2.727 -4.289,-7.782 -8.039,-7.782 l -1.071,-2.726 c -4.289,-5.445 -4.289,-14.781 -15.004,-15.559 l 0,-7.394 c -1.074,-1.946 -1.609,-3.891 -4.289,-5.055 -5.355,0.777 -5.355,-4.672 -10.179,-5.836 l -2.68,0 c 0,-5.449 -3.75,-9.34 -5.895,-12.84 -1.605,0 -2.679,0 -5.355,-0.39 l 0,-3.5 c -0.539,-3.114 -2.68,-9.336 -5.895,-9.336 0,-6.614 -5.359,-6.614 -5.359,-10.895 -4.285,-2.336 -6.965,-5.836 -9.644,-10.113 l -1.61,-0.391 0,-22.566 0,22.566 -3.215,-4.668 c -1.07,-1.168 0,-3.89 -1.07,-3.89 0,-3.114 -10.18,-8.949 -10.18,-12.063 -1.074,-1.554 -2.679,-2.722 -4.289,-4.668 l -1.07,0 0,-2.332 c -0.535,0 -2.68,-3.504 -6.43,-3.504 1.071,-3.109 -1.609,-3.109 -0.535,-4.668 -2.68,0 -2.68,-1.945 -4.289,-0.777 -1.07,-0.391 -0.535,-6.613 -2.676,-8.172 l 0.535,-0.777 c -1.609,-0.387 -0.535,-4.668 -4.289,-4.668 0,-1.168 -0.535,-2.332 -0.535,-3.5 -2.679,-4.281 -2.679,-4.281 -3.75,-8.559 -1.609,0 -1.609,-1.558 -4.285,0 -1.609,-2.336 0.535,-3.89 0,-5.058 -0.539,-1.946 -3.754,-1.946 -2.144,-4.282 -1.61,-1.945 -4.825,-4.277 -5.895,-6.613 -3.75,0 -4.824,1.168 -8.039,0.391 -0.535,0 -1.07,0 -2.141,-0.391 l 0,-7.004 c -1.609,-1.554 -3.215,-3.109 -4.289,-4.277 -0.535,-2.336 -0.535,-3.5 -2.14,-4.281 -1.61,-1.164 -3.215,-1.164 -4.825,-2.723 l 1.071,-1.945 c -2.676,-0.387 -4.285,-1.555 -5.356,-1.555 -2.144,-1.168 1.071,-3.891 -2.144,-3.891 2.144,-3.5 -3.75,-4.668 -5.36,-8.172 0,-5.835 -1.07,-10.503 -6.965,-11.281 0,-1.554 -2.679,-2.332 -1.07,-4.668 -3.75,-2.336 -4.289,-3.113 -4.289,-8.172 -2.141,-1.164 -4.82,-1.164 -5.894,-2.722 -1.071,-4.668 -4.286,-2.723 -6.43,-6.223 1.074,-3.504 9.109,-10.894 0,-10.894 l -1.07,-0.391 c -8.575,1.168 -5.36,-3.5 -11.79,-5.832 0,-5.059 -3.75,-5.059 -3.75,-10.895 -1.07,-1.945 -3.75,-1.945 -3.75,-4.281 -0.535,-1.164 0,-3.5 -2.144,-4.668 0,-10.113 2.68,-18.285 -10.715,-19.062 -0.535,0 -0.535,-0.391 -1.074,-0.391 l 0,-1.555 c -2.676,-3.5 -4.82,-7.781 -5.895,-12.058 l -1.605,0 c -2.68,-2.336 -3.215,-4.282 -4.285,-6.617 1.07,-3.11 -1.61,-5.446 -4.289,-7 l 0,-4.282 c -2.141,-2.332 -11.25,-13.617 -11.25,-15.562 0,-0.387 -5.36,-13.617 -5.895,-13.617 1.07,-1.164 -0.535,-7 -1.609,-7 l 1.074,-2.336 c -4.824,-2.332 -1.609,-2.332 -2.145,-5.446 l -3.214,-0.777 c 0,-3.504 -4.289,-9.34 -4.289,-13.617 -5.891,-4.668 -5.891,-11.672 -11.25,-15.172 -2.145,-3.113 -0.536,-6.617 -2.145,-9.727 -3.215,-1.168 -3.75,-4.672 -3.215,-7.004 -2.144,-2.335 -2.679,-4.668 -3.75,-5.835 0,-4.668 -4.289,-13.227 -8.039,-16.731 l 0,-5.445 0.535,-0.391 c -0.535,-1.164 -5.355,-4.277 -6.429,-4.277 0,-8.949 3.214,-17.117 -5.356,-21.789 0,-6.614 -1.609,-8.946 -5.359,-14.395 0,-7.777 -2.68,-10.504 -5.895,-17.894 0.535,-4.668 -1.605,-9.336 -5.359,-12.45 0,-5.058 -2.68,-6.226 -8.035,-7.781 -1.61,-1.555 -2.68,-3.89 -1.61,-6.222 -3.75,-6.227 -6.429,-8.95 -6.429,-16.731 -2.68,-1.945 -2.68,-4.668 -6.43,-6.613 -12.324,4.277 -7.5,14.781 -9.645,24.898 -1.07,1.168 3.215,11.281 3.215,13.227 -0.535,17.898 1.61,35.015 -1.07,50.965 2.68,3.113 -2.145,7.781 -2.145,9.336 l 2.145,1.558 c 0.535,10.504 0.535,19.84 0.535,30.735 -4.824,5.835 -9.109,17.894 -8.039,25.289 -1.07,1.945 0,3.109 0,5.445 0,1.945 -2.68,1.945 -1.07,4.281 l 1.07,0 c 1.609,1.555 -1.07,1.555 -1.07,5.832 l 0,71.977 c -5.36,8.945 0.535,19.84 -4.285,27.621 l 0,3.113 -1.61,1.945 c 1.61,1.168 -6.965,3.5 -6.965,6.223 l -1.074,0.777 c -4.82,-0.777 -2.676,2.336 -4.285,4.282 -3.215,1.168 -5.895,2.722 -9.109,3.5 0.535,2.726 -5.36,6.226 -7.5,6.226 -5.36,-5.836 -5.895,1.555 -9.645,1.555 -4.824,0.391 -7.504,0 -11.254,0.391 -4.285,-3.114 -8.574,-3.114 -13.394,-1.946 -4.289,-1.554 -1.61,-4.668 -7.504,-6.226 -0.535,-5.446 -10.715,0 -12.86,-5.055 -2.144,-2.727 -10.179,-11.672 -11.789,-6.227 -3.75,-0.777 -3.215,-5.058 -5.894,-5.058 0,-10.504 -8.571,-24.121 -8.571,-33.844 3.215,-2.726 1.071,-14.008 0.536,-18.676 2.144,-3.5 0.535,-10.117 0,-13.226 2.679,-4.282 -1.071,-7.004 0.535,-11.285 -1.071,-5.446 -1.071,-11.282 2.144,-16.727 l 0,-54.855 1.606,-4.282 c 0.535,-19.062 -1.606,-40.461 1.074,-58.355 -0.539,-1.168 -0.539,-7.391 0,-9.336 -1.074,-1.168 0,-20.231 1.605,-25.68 1.071,-7 -4.82,-23.73 0,-28.398 l -1.605,-0.391 c 0,-44.738 -1.074,-91.035 0,-133.832 -0.539,-7 -1.074,-11.281 1.605,-16.34 0,-15.558 -1.07,-29.176 0,-43.961 -1.605,-4.281 1.071,-13.617 -4.285,-15.562 -2.679,-5.836 -2.144,-11.281 -2.144,-15.172 2.679,-1.555 3.75,-4.281 3.75,-5.445 -1.606,-5.45 -3.75,-7.782 -3.75,-13.231 6.429,-5.445 4.824,-8.168 4.824,-15.949 l 2.676,-0.777 -2.141,-1.559 c 0,-1.945 3.215,-5.445 -2.68,-3.109 -1.07,-3.891 -2.679,-6.618 -2.679,-11.286 l 2.679,-0.386 0,-2.336 1.071,-3.113 -2.141,0.781 c 0,-3.891 2.141,-5.449 0.535,-8.563 l 0.535,-1.164 2.145,-1.168 c -0.539,-1.168 -3.215,-8.172 -4.824,-10.117 2.144,0.781 4.824,-1.555 2.144,-1.555 -2.679,-6.226 -2.679,-13.226 -2.144,-18.675 -0.535,-1.555 -1.071,-7 -1.606,-12.836 l 0,-42.797 1.606,-0.778 -1.606,-0.39 0,-4.668 c 0.535,-0.777 0,-2.332 1.071,-3.11 3.214,-0.39 29.468,-1.945 30.543,-2.335 l 0.535,0.39 c 4.285,-1.558 6.965,-7.004 10.179,-9.34 l 2.68,2.336 0,4.278 c 5.359,4.281 5.895,2.336 9.109,-2.332 l -0.535,-0.778 c 2.141,-0.39 3.215,0 5.356,-0.39 l 1.609,0.39 c 0.535,-2.336 2.68,0 3.75,-2.336 1.074,0 2.68,4.282 6.43,3.114 2.144,2.332 2.144,-3.114 15.004,-1.168 1.07,1.168 4.285,6.226 5.894,8.949 3.215,-5.449 6.965,0.387 10.715,1.555 3.215,-1.555 8.574,0 11.789,3.113 l 11.789,2.722 c 11.254,0.778 15.539,8.95 16.074,12.059 l 2.68,2.727 0,37.734 c 2.145,0.391 4.285,2.727 5.895,3.891 l 0,1.945 c -6.965,10.504 -1.61,11.672 1.605,21.398 -2.676,5.446 2.68,14.008 4.824,19.063 -1.07,1.558 1.071,4.668 1.61,6.226 l -1.61,5.446 c 1.61,1.168 2.145,3.113 3.75,3.113 3.215,4.668 3.215,8.949 4.825,14.004 9.644,7.394 0.535,18.676 5.894,27.625 l 3.215,0.387 c 0.535,3.113 -0.535,4.281 -0.535,7.004 1.07,1.168 2.676,4.281 1.605,6.613 l 1.071,1.168 c 0.539,-1.555 2.679,0 3.754,-1.168 l 0.535,1.168 0,8.558 c 1.605,0.391 2.14,1.555 2.679,1.555 2.68,-1.555 4.286,-0.387 4.821,-0.387 -0.535,0.387 -2.141,3.5 0.535,3.5 0,1.168 -0.535,7.782 -0.535,9.336 2.679,3.114 10.179,8.563 5.894,12.063 4.824,1.554 4.824,12.84 4.824,16.34 3.75,5.445 3.75,16.339 6.43,22.175 1.606,4.668 0,7.782 1.606,11.282 2.144,2.336 3.75,4.281 3.75,5.449 0,3.891 1.609,5.055 2.679,8.558 0,6.614 -3.75,12.059 4.824,14.004 2.68,2.336 2.145,5.059 3.75,7.391 -1.07,10.117 7.5,18.676 7.5,28.012 5.895,5.449 3.219,21.789 8.575,24.511 0,2.332 2.679,4.668 2.679,7.391 1.61,1.168 2.68,2.723 3.215,3.891 0,2.722 2.145,4.668 4.289,5.836 -1.074,5.445 3.215,11.281 1.071,15.172 3.75,5.058 3.214,8.171 5.894,11.285 0,-0.391 0.535,-0.782 1.606,-0.782 3.75,0 4.289,4.672 4.824,9.34 0.535,0.387 1.07,1.164 1.07,1.555 l 2.68,0 c 0,3.891 5.894,5.059 -2.145,6.613 -0.535,2.336 -0.535,6.614 2.145,7.395 2.679,0.386 4.285,4.668 6.429,5.832 l 0,13.617 c 1.071,2.723 4.825,11.285 6.965,11.285 3.215,2.723 6.43,4.277 8.575,5.836 0,7.777 -4.286,8.168 2.144,15.949 0,3.114 2.141,15.563 5.359,16.731 0,4.277 0,7.777 1.071,10.89 2.679,2.336 8.035,6.227 8.035,9.727 l 2.144,0.777 c -4.82,4.282 3.75,8.172 3.75,11.285 -3.75,5.836 1.61,11.282 7.504,10.114 0,1.554 3.75,1.554 2.68,4.281 -2.144,1.555 -2.144,2.723 -2.68,5.055 -4.289,0.781 0,5.449 0.536,6.226 l 2.144,0 1.07,-0.777 2.145,-0.777 c 4.82,4.277 3.75,4.277 3.75,11.281 1.605,2.722 4.82,2.722 5.359,4.277 1.606,4.281 2.141,7.004 5.356,10.117 0,2.332 0,5.446 0.535,6.614 l 0,0.39 c 0.539,0.387 1.074,1.164 2.144,1.555 5.895,0 4.825,7.391 10.18,10.504 l 0,8.172 c 1.074,1.164 3.754,2.332 2.145,4.277 l 3.215,0 c 1.07,5.445 -1.606,7.781 2.679,12.063 2.68,0 4.285,-1.559 4.824,0.386 0.536,5.446 5.356,8.949 9.106,12.449 l 0,5.45 c 1.609,0 6.969,12.449 6.433,13.613 4.821,4.672 11.25,11.285 12.86,17.898 -0.535,2.723 1.605,5.836 1.605,9.336 -2.14,1.946 2.145,2.336 0,4.668 2.68,1.168 4.825,4.668 7.504,7.782 1.071,0.39 2.141,0.39 3.215,1.558 3.215,3.11 0.535,5.445 5.895,5.445 2.14,1.168 0,3.5 1.07,4.668 0.535,3.5 3.215,1.555 4.285,3.5 -0.535,3.504 4.289,4.282 4.824,7.004 -4.289,4.282 -8.039,16.731 0.535,16.731 0,2.332 3.215,5.445 4.286,6.613 l -0.536,-0.777 0,0.777 c 3.75,0.387 3.75,-1.168 5.895,-1.168 -1.606,3.113 -3.215,4.281 -3.75,6.613 -1.07,4.282 8.574,16.731 11.254,16.731 l 2.676,-1.168 3.214,0 c 0,2.723 1.075,3.5 2.145,5.836 0,10.113 1.07,5.445 6.43,5.836 l -0.535,2.332 c -1.071,1.945 0,2.336 1.07,5.058 l 0,3.504 c 2.144,2.332 3.215,5.055 0.539,6.614 1.605,2.722 0,5.054 2.676,5.054 3.215,1.559 12.324,3.504 17.148,1.559 0.535,2.332 0,3.113 0.535,4.668 -5.894,1.945 0.535,6.226 1.61,8.949 l -1.61,1.164 c 1.61,3.891 4.825,6.617 5.895,10.117 l 4.285,0 c 0,2.336 2.68,2.336 0.539,5.446 l 0,1.168 c 2.676,-1.168 2.141,1.945 3.75,1.168 5.356,4.668 4.82,8.949 6.965,14.394 l -0.535,1.168 1.605,2.723 c 4.289,0.777 13.399,3.5 15.004,7.39 l 0,4.668 2.68,0.391 3.75,0 c 0,5.445 5.894,16.34 10.18,19.84 l 0,5.058 c 9.109,1.555 5.894,14.004 8.039,20.231 2.144,1.168 4.285,1.168 5.359,1.945 -1.074,3.113 2.141,1.945 2.141,3.113 l 2.679,-1.168 c 4.289,2.723 4.824,2.723 10.184,2.723 l 2.14,3.113 -1.605,0.391 3.215,2.332 0,5.445 c 2.14,4.672 6.43,7.004 6.43,13.231 3.214,3.89 2.679,8.168 11.25,8.168 3.753,4.281 6.968,8.172 10.183,11.281 3.215,6.617 4.82,3.504 9.645,5.836 0,1.945 0,3.504 1.07,5.449 l 4.824,0 0,7.781 c 2.141,2.333 6.43,6.614 7.5,10.504 2.68,0 3.75,1.946 6.43,0.778 4.824,3.5 1.609,5.445 3.215,10.504 2.144,0 2.679,0.777 4.289,0.777 1.605,3.504 6.429,7.781 8.57,10.504 -0.535,6.613 12.863,17.898 16.613,22.176 l 1.606,-1.168 c 2.144,1.558 4.289,1.168 4.289,3.89 1.605,0.782 2.68,1.168 4.285,2.336 l -1.605,1.168 c 1.605,0.778 7.5,8.559 8.035,10.114 1.609,0.777 3.75,1.167 4.824,2.722 0,3.891 5.895,3.891 5.895,8.563 1.07,2.722 2.14,5.054 4.285,6.613 1.605,0 3.215,0 8.035,4.668 l 0,0.387 c 0.539,0 1.074,-0.387 1.609,-0.387 3.75,0 5.36,4.277 5.895,8.949 0.535,0 1.07,0.777 1.07,0.777 l 0,0.387 c 5.359,1.168 9.109,3.113 12.324,6.613 l 0,1.559 c 1.074,0.387 1.61,1.168 2.68,2.332 0,0 0,0.391 0.535,0.391 1.609,0.777 2.145,1.168 2.68,1.554 0,3.891 1.07,3.891 4.285,5.059 l 0,0.777 c 0.539,0.391 1.074,0.391 2.144,1.168 5.895,6.227 11.79,11.672 15.004,11.672 -0.535,3.113 2.145,3.891 2.68,4.281 l 5.895,0 0,1.555 c 2.14,2.332 4.285,5.445 7.5,5.445 0,5.059 -0.536,14.008 -1.606,18.676 l -2.68,-1.168 -3.214,0 c -0.536,0.391 -1.075,0.391 -1.075,2.336 -1.605,2.332 -2.14,5.836 0,8.168 -5.355,4.668 -3.214,12.063 0.539,14.008 2.141,0 3.75,0 4.821,-0.781 -0.535,-2.723 -0.535,-5.836 -0.535,-8.168 l 3.214,-1.946 c 0.536,1.168 3.75,5.059 3.75,5.446 1.61,2.336 4.289,1.945 4.289,4.281 l 0.536,-1.945 0,1.168 1.605,-1.168 0,2.722 c -1.07,-0.39 -1.07,-0.39 -1.605,0 l 0,-0.39 c -1.075,0.781 -6.43,5.449 -8.039,6.617 0,0.387 0.535,0.777 0.535,1.164 l 1.074,-0.387 0,1.164 c 1.605,3.114 4.285,5.45 8.035,6.618 l 0,1.554 c 3.215,1.946 5.895,3.113 9.645,5.446 0,0 2.144,5.835 2.679,8.171 1.61,0.778 2.145,1.555 2.68,1.555 5.895,-1.945 9.645,6.613 14.469,10.117 l 0,-0.39 c 2.14,0.777 3.75,1.168 5.894,1.168 3.215,3.5 5.895,5.445 9.11,7.781 1.605,2.332 0.535,4.668 2.14,5.445 3.75,1.559 5.895,3.504 8.575,5.836 l 1.07,0 c 1.609,3.113 4.289,5.445 6.43,7.004 l 3.214,0 c 0.539,1.945 -26.254,3.113 -26.789,3.5 z m -113.062,-104.266 c -1.606,0 -2.676,-0.777 -4.82,-1.941 0.535,1.941 -1.61,1.941 -1.071,4.277 1.606,2.336 4.285,1.946 4.821,4.668 0.535,0.778 0.535,0.778 1.07,1.168 l 0,-0.39 c 0.539,0 1.609,1.168 2.68,1.945 1.074,0 2.144,-1.945 3.214,-3.109 -1.07,-2.336 -3.214,-3.891 -5.894,-6.618 z m 11.789,-1.941 -3.215,0.387 0,1.168 -0.535,0 -1.07,0.386 0.535,1.946 4.285,1.168 2.144,-1.946 c 0,-0.777 0,-1.945 -2.144,-3.109 z m 9.109,-41.629 0,0.387 2.145,2.336 c -0.535,-1.168 -1.071,-1.946 -2.145,-2.723 z m 44.473,88.703 -4.82,-1.168 c -0.536,-1.168 -2.68,-1.945 -2.145,-4.281 l -1.605,0 0,0.391 -0.536,-0.391 -0.539,0 0,-0.387 c -1.07,-0.781 -3.214,-1.945 -5.355,-2.726 l 0,1.558 c 0,2.723 -1.609,3.891 -2.68,6.614 l 2.141,1.945 2.68,-1.945 1.609,2.336 c 1.605,2.332 1.605,5.054 2.68,6.222 l 2.679,0 c 0.535,1.168 1.606,1.168 3.215,3.5 1.07,0 0.535,-1.555 2.676,-2.332 l 0,-9.336 z m 10.719,14.781 -1.61,0 c -0.535,-0.386 -0.535,-0.386 -1.07,-1.168 l 0,-1.945 c -1.07,-0.777 -1.606,-1.945 -2.145,-2.722 l -1.605,0 -0.535,1.167 -0.535,3.5 c 0,1.946 0,3.504 0.535,5.836 0.535,-1.164 2.14,-1.164 5.355,-0.386 l 0,0.777 1.61,0 c 3.214,-2.336 0.535,-2.336 0,-5.059 z m 13.394,14.008 -0.535,-1.945 -2.68,0 0,0.387 -1.605,0 -2.145,1.558 0,2.723 2.145,1.168 c 0,0 0.535,0 0.535,-0.391 l 0,-0.777 4.285,0 0,-2.723 z"
         style="fill:#1f1a17;fill-opacity:1;fill-rule:evenodd;stroke:none"
         id="path4376"
         inkscape:connector-curvature="0" /><path
         d="m 1520.668,909.156 1.07,1.164 c -0.535,0 -1.07,0 -1.605,0.39 l 0.535,-1.554 z"
         style="fill:#1f1a17;fill-opacity:1;fill-rule:evenodd;stroke:none"
         id="path4378"
         inkscape:connector-curvature="0" /><path
         d="m 1468.535,994.32 0,-0.387 c 0,0.387 0,0.387 0.535,0.777 l -0.535,-0.39 z"
         style="fill:#1f1a17;fill-opacity:1;fill-rule:evenodd;stroke:none"
         id="path4380"
         inkscape:connector-curvature="0" /><path
         d="m 1863.879,1379.152 c -2.676,0 -5.891,-3.114 -9.645,-4.668 -0.535,-0.391 -1.605,-0.391 -3.214,-0.391 0,1.168 -5.356,2.727 -6.43,2.727 -2.68,-3.504 -2.141,-5.836 -4.82,-8.172 -0.54,-0.387 -1.075,-0.387 -2.68,-0.387 l 0,0.387 c -1.074,-1.168 -4.289,0 -4.289,0 0.539,-5.059 -4.821,-5.059 -8.571,-5.446 l 0,-1.168 c -2.144,-0.777 -2.679,-0.777 -3.753,-0.777 -1.071,-0.391 0,-3.113 -1.071,-4.668 l 1.071,-0.781 c -0.536,-1.164 -3.75,-2.723 -5.891,-2.723 -1.074,-3.109 0,-7.781 -1.074,-10.113 -2.141,-0.777 -3.75,-0.777 -5.895,-1.168 l 0,0.391 c -3.215,0 -6.429,0 -6.429,-3.114 -1.606,-3.113 -3.215,-1.945 -3.215,-6.613 l -3.215,-3.504 -6.43,0 -0.535,-0.777 -1.07,0.777 c 0.535,-0.777 1.07,-3.109 -1.61,-2.332 -0.535,0.387 -1.07,2.332 -3.215,1.555 l -0.535,-1.168 0,-0.778 c -2.144,-0.777 -3.75,-1.554 -6.429,-1.945 l 0,0.391 c -1.075,-0.391 -2.68,-1.559 -3.75,-2.723 l 0,-1.168 c -4.825,-0.39 -8.039,-2.336 -13.399,-5.836 l 0,-2.336 c -1.605,-1.554 -2.68,-3.109 -4.285,-3.89 -1.07,-1.164 -2.145,-1.164 -2.68,-1.946 l 0,-0.386 c -8.039,-4.282 -3.75,-18.676 -12.324,-18.676 -2.144,2.336 -2.68,2.336 -4.285,4.281 l -1.074,0 -0.535,0.387 c -4.821,-5.446 -4.286,-8.946 -6.965,-12.836 l -1.61,0 c -3.75,-5.059 -3.75,-14.008 -8.035,-16.34 -18.219,4.277 -12.324,-6.227 -26.258,-15.176 -5.355,-1.945 -8.57,-6.613 -11.785,-7.777 -0.539,-1.945 -0.539,-3.504 0,-5.449 6.43,-7.004 -3.754,-8.95 -6.969,-14.004 0,-10.117 -9.644,-8.559 -17.144,-6.227 -2.68,-1.168 0,-5.058 -5.895,-6.613 l -2.144,1.945 c -1.07,-3.113 -1.606,-5.445 -3.75,-7.781 -2.145,-8.168 -6.43,-5.059 -11.789,-7.781 0,-2.723 -9.11,-14.782 -11.25,-16.34 -3.754,-0.777 -8.039,-6.613 -8.039,-11.281 -2.68,-0.778 -3.75,-3.114 -4.821,-3.114 -1.609,-0.386 -2.144,0.778 -3.753,0 0,-3.5 -6.43,-5.836 -7.5,-10.504 l -3.215,-0.777 c -1.071,-1.168 -2.68,-7.781 -4.825,-7.781 -2.14,-3.5 -2.679,-7.004 -7.5,-8.172 -0.535,-4.277 1.071,-5.445 -2.144,-8.168 l -3.215,0 -1.07,2.336 c -6.965,-1.168 -6.965,-13.231 -10.18,-19.066 -0.539,-8.559 -9.648,-5.446 -15.539,-6.614 -1.609,-3.113 -6.43,-13.226 -10.719,-13.226 -1.605,-2.723 -4.285,-7.391 -8.035,-7.391 l -1.074,-3.113 c -4.285,-5.446 -4.285,-14.785 -15.004,-15.172 l 0,-7.395 c -0.535,-2.332 -1.605,-4.277 -4.285,-5.054 -5.36,0.386 -5.36,-4.672 -9.645,-6.227 l -3.215,0 c 0,-5.058 -3.75,-9.336 -5.894,-12.84 -1.609,0 -2.145,0 -5.359,-0.386 l 0,-3.114 c -0.536,-3.5 -2.68,-9.726 -5.895,-9.726 0,-6.614 -4.82,-6.614 -4.82,-10.504 -4.824,-2.336 -7.504,-6.223 -10.18,-10.113 l -1.609,-0.782 0,-22.562 0,22.562 c -1.071,-1.554 -2.145,-2.722 -3.215,-4.277 -1.07,-1.168 0,-4.281 -1.07,-4.281 0,-3.11 -10.184,-8.946 -10.184,-11.672 -1.07,-1.945 -2.68,-3.11 -4.285,-5.055 l -1.071,0 0,-2.336 c -0.539,0 -2.679,-3.5 -6.429,-3.5 1.07,-3.113 -1.61,-3.113 -0.539,-4.668 -2.676,0 -2.676,-1.945 -4.285,-0.781 -1.071,-0.387 -0.536,-6.223 -2.68,-8.168 l 0.535,-0.777 c -1.07,-0.391 -0.535,-4.668 -4.285,-4.668 0,-1.168 -0.535,-2.336 -0.535,-3.504 -2.68,-4.278 -2.68,-4.278 -3.75,-8.168 -1.61,0 -1.61,-1.945 -4.289,0 -1.606,-2.336 1.074,-4.281 0,-5.449 -0.536,-1.946 -3.75,-1.946 -2.141,-4.278 -1.609,-1.558 -4.824,-3.89 -5.895,-6.226 -3.753,0 -4.824,0.777 -8.039,0.39 -0.535,-0.39 -1.07,-0.39 -2.144,-0.39 l 0,-7 c -1.606,-1.946 -2.68,-3.504 -4.285,-4.672 -0.535,-2.332 -0.535,-3.5 -2.145,-3.891 -1.605,-1.164 -3.215,-1.164 -4.285,-3.109 l 0.535,-1.559 c -2.68,-0.777 -4.285,-1.945 -5.359,-1.945 -2.141,-1.168 1.074,-3.5 -2.141,-3.5 2.141,-3.5 -3.754,-4.668 -5.359,-8.559 0,-5.836 -1.071,-10.504 -6.965,-10.894 0,-1.946 -2.68,-2.723 -1.074,-5.059 -3.75,-2.332 -4.285,-2.722 -4.285,-8.168 -2.145,-1.168 -4.825,-1.168 -5.895,-2.336 -1.07,-4.668 -4.285,-3.109 -6.43,-6.613 1.071,-3.5 9.645,-10.504 0,-10.504 l -1.07,-0.777 c -8.574,1.168 -5.359,-3.5 -11.254,-5.836 0,-4.668 -4.285,-4.668 -4.285,-10.895 -1.074,-1.554 -3.754,-1.554 -3.754,-3.89 -0.535,-1.164 0,-3.5 -2.141,-5.055 0,-10.117 2.68,-18.285 -10.718,-19.066 l 0,0.39 0,-0.39 -1.071,0 0,-1.946 c -2.679,-3.5 -4.824,-7.39 -5.894,-12.058 l -1.606,0 c -2.679,-2.336 -3.214,-4.282 -4.289,-6.614 1.075,-2.722 -1.605,-5.058 -4.285,-7.004 l 0,-4.277 c -2.144,-2.336 -11.254,-13.617 -11.254,-15.176 0,-0.777 -5.359,-14.004 -5.894,-14.004 1.074,-1.168 -0.535,-7.003 -1.606,-7.003 l 1.071,-2.332 c -4.821,-2.336 -1.606,-2.336 -2.145,-5.45 l -3.215,-0.386 c 0,-3.504 -4.285,-9.727 -4.285,-13.618 -5.894,-4.668 -5.894,-12.062 -11.254,-15.562 -2.14,-3.113 -0.535,-6.613 -2.14,-9.336 -3.215,-1.168 -3.75,-4.668 -3.215,-7.395 -2.145,-2.332 -2.68,-4.668 -3.754,-5.836 0,-4.667 -4.285,-12.835 -8.035,-16.726 l 0,-5.059 0.535,-0.777 c -0.535,-1.168 -5.36,-4.281 -6.43,-4.281 0,-8.559 3.215,-17.117 -5.359,-21.785 0,-6.614 -1.606,-8.95 -5.356,-14.395 0,-7.391 -2.679,-10.504 -5.894,-17.508 0.535,-5.058 -1.61,-9.726 -5.36,-12.449 0,-5.445 -2.679,-6.613 -8.039,-7.781 -1.605,-1.946 -2.676,-4.278 -1.605,-6.614 -3.75,-5.835 -6.43,-8.949 -6.43,-16.73 -2.68,-1.555 -2.68,-4.668 -6.43,-6.223 -12.324,3.891 -7.503,14.782 -9.644,24.899 -1.074,1.168 3.215,11.281 3.215,12.84 -0.539,17.894 1.605,35.011 -1.074,50.964 2.679,3.11 -2.141,7.782 -2.141,9.727 l 2.141,1.164 c 0.535,10.504 0.535,20.231 0.535,30.734 -4.821,5.836 -9.106,17.899 -8.035,25.68 -1.071,1.555 0,2.723 0,5.055 0,1.945 -2.68,1.945 -1.071,4.281 l 1.071,0 c 1.605,1.945 -1.071,1.945 -1.071,5.836 l 0,71.973 c -5.359,8.949 0.535,20.23 -4.289,28.011 l 0,2.723 -1.605,1.945 c 1.605,1.168 -6.969,3.504 -6.969,6.614 l -1.07,0.39 c -4.821,-0.39 -2.68,2.332 -4.286,4.278 -3.214,1.168 -5.894,2.726 -9.109,3.504 0.535,3.113 -5.359,6.613 -7.504,6.613 -5.355,-5.836 -5.894,1.168 -9.644,1.168 -4.821,0.387 -7.5,0 -11.25,0.387 -4.289,-2.723 -8.039,-2.723 -13.399,-1.555 -4.285,-1.945 -1.605,-4.668 -7.5,-6.613 -0.535,-5.45 -10.719,0 -12.859,-4.668 -1.61,-3.114 -10.18,-12.063 -11.789,-6.614 -3.75,-0.781 -3.215,-4.672 -5.895,-4.672 0,-10.89 -8.574,-24.507 -8.574,-33.843 3.215,-3.114 1.074,-14.395 0.539,-19.067 2.141,-3.5 0.535,-10.113 0,-13.226 2.676,-3.891 -1.074,-7.004 0.535,-11.282 -1.074,-5.058 -1.074,-11.281 2.141,-16.339 l 0,-55.246 1.609,-4.278 c 0.535,-19.062 -1.609,-40.461 1.071,-57.969 -0.536,-1.168 -0.536,-7.781 0,-9.726 -1.071,-1.168 0,-20.231 2.144,-25.289 0.535,-7.391 -5.359,-23.731 0,-28.399 l -2.144,-0.777 c 0,-44.352 -1.071,-90.648 0,-133.445 -0.536,-7.391 -1.071,-11.282 2.144,-16.727 0,-15.562 -1.609,-29.18 0,-43.965 -2.144,-4.277 0.535,-13.613 -4.824,-15.558 -2.676,-5.836 -2.141,-11.285 -2.141,-15.176 2.68,-1.164 3.75,-4.277 3.75,-5.445 -1.609,-5.446 -3.75,-7.782 -3.75,-12.84 6.965,-5.446 4.821,-8.559 4.821,-16.34 l 2.679,-0.387 -2.144,-1.945 c 0,-1.559 3.215,-5.059 -2.676,-2.723 -1.074,-4.281 -2.68,-6.617 -2.68,-11.285 l 2.68,-0.777 0,-2.332 1.07,-3.114 -2.144,0.778 c 0,-3.5 2.144,-5.446 0.535,-8.172 l 0.539,-1.555 2.141,-1.168 c -0.536,-1.164 -3.215,-8.168 -4.821,-9.726 2.141,0.39 4.821,-1.946 2.141,-1.946 -2.676,-5.836 -2.676,-13.226 -2.141,-18.285 -0.535,-1.945 -1.074,-7.39 -1.609,-13.226 l 0,-42.793 1.609,-0.391 -1.609,-0.777 0,-4.668 c 0.535,-0.778 0,-2.336 1.074,-3.114 3.215,-0.39 29.469,-1.554 30.539,-2.335 l 0.535,0.781 c 4.289,-1.946 6.969,-7.395 10.184,-9.727 l 2.68,2.332 0,4.281 c 5.355,4.278 5.894,2.333 9.109,-2.335 l -0.539,-0.387 c 2.144,-0.781 3.215,0 5.359,-0.781 l 1.61,0.781 c 0.535,-2.727 3.215,0 3.75,-2.727 1.07,0 2.679,4.282 6.429,3.114 2.145,2.335 2.145,-3.114 15.004,-1.168 1.071,1.168 4.285,6.617 5.895,8.949 3.215,-5.446 6.965,0.39 10.715,1.558 3.214,-1.558 8.574,0 11.789,3.11 l 11.789,3.113 c 11.25,0.391 15.539,8.949 16.074,11.672 l 2.68,3.113 0,37.348 c 2.14,0.387 4.285,3.113 5.894,4.277 l 0,1.559 c -6.969,10.89 -1.609,12.058 1.606,21.398 -2.68,5.446 2.679,14.395 5.359,19.063 -1.609,1.945 0.535,4.668 1.07,6.613 l -1.07,5.059 c 1.07,1.554 1.605,3.109 3.215,3.109 3.215,4.672 3.215,8.949 4.82,14.395 9.645,7.003 0.539,18.285 5.895,27.234 l 3.215,0.391 c 0.535,3.113 -0.536,4.277 -0.536,7.39 1.071,1.168 2.68,3.891 1.61,6.227 l 1.07,1.554 c 0.535,-1.945 2.68,0 3.75,-1.554 l 0.535,1.554 0,8.168 c 1.61,0.391 2.145,1.559 2.68,1.559 2.68,-1.559 4.289,-0.391 4.824,-0.391 -0.535,0.391 -2.144,3.504 0.535,3.504 0,1.164 -0.535,7.781 -0.535,9.727 2.68,2.722 10.18,8.168 5.895,11.668 4.82,1.945 4.82,13.23 4.82,16.73 3.75,5.059 3.75,15.949 6.43,21.785 1.609,4.672 0,7.782 1.609,11.286 2.145,2.332 3.75,4.277 3.75,5.445 0,4.281 1.609,5.445 2.68,8.949 0,6.613 -3.75,11.672 4.82,13.617 2.68,2.332 2.145,5.446 3.754,7.778 -1.074,10.117 7.5,18.285 7.5,27.625 5.895,5.445 3.215,22.175 8.574,24.507 0,2.336 2.68,4.668 2.68,7.782 1.605,1.168 2.68,2.336 3.215,3.504 0,3.109 2.14,4.668 4.285,5.836 -1.07,5.445 3.215,11.281 1.07,15.558 3.754,4.668 3.215,7.781 5.895,11.285 0.539,-0.39 0.539,-0.781 1.609,-0.781 3.75,0 4.82,4.672 4.82,8.949 0.539,0.391 1.075,1.168 1.075,1.946 l 2.679,0 c 0,3.5 5.895,4.668 -2.144,6.613 -0.535,2.336 -0.535,6.226 2.144,7.004 2.68,0.39 4.821,4.668 6.43,5.836 l 0,13.617 c 1.07,3.109 4.82,11.281 6.965,11.281 3.215,3.113 6.43,4.281 8.574,5.836 0,7.781 -4.289,8.559 2.141,16.34 0,2.723 2.144,15.172 5.359,16.34 0,4.281 0,7.781 1.07,10.894 2.68,2.332 8.039,6.614 8.039,10.114 l 2.145,0.39 c -4.824,4.278 3.75,8.559 3.75,11.281 -3.75,6.227 1.605,11.282 7.5,10.118 0,1.941 3.754,1.941 2.68,4.277 -2.141,1.555 -2.141,2.723 -2.68,5.445 -4.285,0.391 0,5.059 0.539,5.836 l 2.141,0 1.074,-0.777 2.14,-0.387 c 4.825,3.891 3.75,3.891 3.75,11.281 1.61,2.332 4.825,2.332 5.36,3.891 1.609,4.277 2.144,7.391 5.359,10.113 0,2.336 0,5.45 0.535,6.614 l 0,0.39 c 0.536,0.391 1.071,1.168 2.145,1.555 5.894,0 4.82,7.781 10.18,10.504 l 0,8.562 c 1.07,1.164 3.75,2.332 2.144,3.891 l 3.215,0 c 1.07,5.445 -1.609,7.777 2.68,12.059 2.675,0 4.285,-1.168 4.82,0.39 0.535,5.445 5.359,8.945 9.109,12.449 l 0,5.446 c 1.61,0 6.965,12.449 6.43,13.617 4.824,4.668 11.254,11.281 12.859,17.894 -0.535,3.114 1.61,5.836 1.61,9.34 -2.145,1.946 2.14,2.723 0,5.055 3.215,0.777 4.82,4.281 7.5,7.394 1.074,0.387 2.144,0.387 3.215,1.555 3.215,3.113 0.535,5.445 5.894,5.445 2.68,1.168 0,3.504 1.074,4.668 1.071,3.504 3.215,1.946 4.286,3.504 -0.536,3.5 4.285,4.278 4.82,7.391 -4.285,3.891 -7.5,16.34 0.539,16.34 0,2.336 3.215,5.449 4.285,6.613 l -0.535,-0.387 0,0.387 c 3.75,0.781 3.75,-1.164 5.894,-1.164 -1.609,3.109 -3.214,4.277 -3.75,6.613 -0.539,4.278 8.571,16.727 11.25,16.727 l 2.68,-1.168 3.215,0 c 0,2.726 1.07,3.504 2.145,5.836 0,10.117 1.07,5.449 6.429,5.836 l -0.535,2.336 c -1.074,1.945 0,2.722 1.07,5.445 l 0,3.113 c 2.145,2.336 3.75,5.446 0.536,7.004 1.609,2.332 0,4.668 2.679,4.668 3.75,1.945 12.324,3.5 17.145,1.945 0.539,2.333 0,2.723 0.539,4.668 -5.895,1.555 0.535,5.836 1.605,8.95 l -1.605,1.168 c 1.605,3.5 4.82,6.222 5.894,10.113 l 4.285,0 c 0,2.336 3.215,2.336 0.536,5.059 l 0,1.167 c 3.214,-1.167 2.679,1.946 3.75,1.165 5.359,5.058 4.824,8.949 6.968,14.394 l -0.539,1.168 1.61,3.113 c 4.285,0.391 13.394,3.5 15.004,7.004 l 0,4.668 2.679,0.778 3.75,0 c 0,5.058 5.895,15.949 10.18,19.453 l 0,5.445 c 9.109,1.168 5.895,13.617 8.039,20.23 2.141,1.168 4.285,1.168 5.356,1.555 -1.071,3.113 2.144,1.945 2.144,3.113 l 2.68,-1.168 c 4.285,2.727 4.82,2.727 10.179,2.727 l 2.145,3.109 -1.609,0.782 3.214,2.332 0,5.058 c 2.145,5.059 6.43,7.391 6.43,13.227 3.754,4.281 2.68,8.172 11.254,8.172 3.75,4.277 6.965,8.558 10.18,11.281 3.215,6.613 4.824,3.5 10.183,6.223 0,1.558 0,3.504 0.535,5.058 l 4.821,0 0,7.781 c 2.144,2.336 6.429,6.614 7.504,10.895 3.215,0 3.75,1.555 6.429,0.387 4.821,3.504 2.145,5.449 3.215,10.894 2.145,0 2.68,0.391 4.821,0.391 1.074,3.5 5.894,7.781 8.039,10.89 -0.536,6.227 12.859,17.508 16.609,21.79 l 1.609,-1.168 c 2.145,1.945 4.285,1.168 4.285,4.277 1.61,0.391 2.68,1.168 4.29,2.336 l -1.61,1.168 c 1.61,0.387 7.504,8.168 8.039,10.113 1.606,0.391 3.75,1.168 4.821,2.336 0,4.277 5.894,4.277 5.894,8.949 1.07,2.332 2.145,4.668 4.289,6.223 1.606,0 3.215,0 8.035,5.059 0.535,0 1.071,-0.391 1.61,-0.391 3.75,0 5.355,4.668 5.894,8.949 0.535,0.391 1.071,0.777 1.071,1.168 l 0,0.387 c 5.359,0.781 9.109,3.113 12.324,6.226 l 0,1.555 c 1.07,0.391 1.605,1.168 2.679,2.723 l 0.536,0.39 c 1.605,0.391 2.144,0.778 2.679,1.168 0,3.891 1.071,4.278 4.285,5.059 l 0,0.777 c 1.071,0.387 1.071,0.778 2.145,1.168 5.895,6.613 11.789,12.059 15.004,12.059 -0.539,2.722 2.141,3.5 2.676,3.89 l 5.894,0 0,1.555 c 2.145,2.336 4.289,5.449 7.504,5.449 0,5.446 -0.535,14.395 -1.074,19.063 l -3.215,-1.168 -3.215,0 0,-0.387 c -0.535,0.777 -1.07,0.777 -1.07,2.332 -1.606,2.336 -2.145,5.836 0,8.172 -5.359,4.668 -3.215,12.449 1.07,14.004 1.61,0 3.215,0 4.289,-0.391 -0.535,-3.109 -0.535,-6.222 -0.535,-8.558 l 3.215,-1.555 c 0.535,1.168 4.285,4.668 4.285,5.059 1.07,2.722 3.75,1.945 3.75,4.277 l 0.535,-1.555 0,0.778 1.61,-1.168 0,3.113 c -0.536,-0.777 -0.536,-0.777 -1.61,0 l 0,-0.391 c -1.07,0.391 -6.429,5.059 -8.035,6.227 0,0.391 0.535,0.777 0.535,1.168 l 1.071,-0.391 0,1.559 c 1.609,2.722 4.289,5.055 8.039,6.222 l 0,1.555 c 3.214,2.336 5.894,3.504 9.644,5.449 0,0 2.145,5.836 2.68,8.559 1.605,0.391 2.144,1.168 2.68,1.168 5.894,-1.559 10.179,6.613 14.464,10.113 l 0,-0.386 c 2.145,0.777 3.754,1.554 5.895,1.554 3.215,3.5 5.894,5.059 9.109,7.391 1.61,2.336 0.535,5.058 2.145,5.449 3.75,1.945 6.429,3.5 8.574,5.836 l 1.07,0 c 2.145,3.109 4.285,5.445 6.43,7.391 l 3.215,0 c 0.535,1.554 -26.254,2.722 -26.793,3.5 z m -113.059,-104.262 0,-0.391 c -1.605,0 -2.679,-0.39 -4.82,-1.554 0.535,1.554 -1.609,1.554 -1.074,3.89 1.609,2.723 4.289,1.942 4.824,5.055 l 1.07,0.777 c 0.535,0 1.61,1.168 2.68,1.559 1.07,0 2.145,-1.559 3.215,-2.723 -1.07,-2.726 -3.215,-4.281 -5.895,-6.613 z m 11.789,-1.945 -3.214,0 0,1.164 -0.536,0 -1.074,0.781 0.539,1.555 4.285,1.168 2.145,-1.946 c 0,-0.39 0,-1.558 -2.145,-2.722 z m 9.11,-42.02 0,0.391 2.144,2.332 c -0.539,-0.778 -1.074,-1.946 -2.144,-2.723 z m 44.472,88.703 -4.82,-1.168 c -0.539,-1.168 -2.68,-1.554 -2.144,-3.89 l -2.68,0 0,-0.387 c -1.07,-1.168 -3.215,-1.945 -5.359,-3.113 l 0,1.945 c 0,2.332 -1.606,3.5 -2.68,6.613 l 2.144,1.555 2.68,-1.555 1.606,2.336 c 1.609,1.945 1.609,4.668 2.679,6.223 l 2.68,0 c 0.535,1.168 1.609,1.168 3.215,3.5 1.074,0 0.535,-1.946 2.679,-2.332 l 0,-9.727 z m 10.719,15.172 -1.609,0 c -0.535,-0.777 -0.535,-0.777 -1.071,-1.168 l 0,-1.945 c -1.074,-0.778 -1.609,-1.946 -2.144,-3.11 l -1.609,0 -0.536,1.164 -0.535,3.504 c 0,1.946 0,3.5 0.535,6.223 0.536,-1.164 2.145,-1.164 5.36,-0.777 l 0,0.777 1.609,0 c 3.215,-2.332 0.535,-2.332 0,-4.668 z m 13.395,13.617 -0.535,-1.554 -2.68,0 0,0.386 -1.61,0 -2.14,1.168 0,2.723 2.14,1.558 c 0,0 0.536,-0.39 1.075,-0.39 l 0,-0.777 3.75,0 0,-3.114 z"
         style="fill:#006cae;fill-opacity:1;fill-rule:evenodd;stroke:none"
         id="path4382"
         inkscape:connector-curvature="0" /><path
         d="m 1511.98,918.616 1.606,1.168 c -1.07,0 -1.606,0 -2.145,0.778 l 0.539,-1.946 z"
         style="fill:#006cae;fill-opacity:1;fill-rule:evenodd;stroke:none"
         id="path4384"
         inkscape:connector-curvature="0" /><path
         d="m 1459.844,1000.628 0,-0.387 c 0,0.387 0,0.778 0.539,0.778 l -0.539,-0.391 z"
         style="fill:#006cae;fill-opacity:1;fill-rule:evenodd;stroke:none"
         id="path4386"
         inkscape:connector-curvature="0" /></g></g></svg>