<?xml version="1.0" encoding="UTF-8" standalone="no"?>
<!-- Created with Inkscape (http://www.inkscape.org/) -->

<svg
   xmlns:dc="http://purl.org/dc/elements/1.1/"
   xmlns:cc="http://creativecommons.org/ns#"
   xmlns:rdf="http://www.w3.org/1999/02/22-rdf-syntax-ns#"
   xmlns:svg="http://www.w3.org/2000/svg"
   xmlns="http://www.w3.org/2000/svg"
   xmlns:sodipodi="http://sodipodi.sourceforge.net/DTD/sodipodi-0.dtd"
   xmlns:inkscape="http://www.inkscape.org/namespaces/inkscape"
   width="64"
   height="64"
   viewBox="0 0 64.000001 64.000001"
   id="svg4136"
   version="1.1"
   inkscape:version="0.91 r13725"
   inkscape:export-filename="/home/master/network_mvg_logo.png"
   inkscape:export-xdpi="90"
   inkscape:export-ydpi="90"
   sodipodi:docname="network_dsb_logo.svg">
  <defs
     id="defs4138">
    <clipPath
       id="clipPath3470"
       clipPathUnits="userSpaceOnUse">
      <path
         inkscape:connector-curvature="0"
         id="path3472"
         d="m 0,0 937.559,0 0,841.89 L 0,841.89 0,0 Z" />
    </clipPath>
    <clipPath
       id="clipPath3506"
       clipPathUnits="userSpaceOnUse">
      <path
         inkscape:connector-curvature="0"
         id="path3508"
         d="m 1119.766,4.513 39.711,0 0,26.33 -39.711,0 0,-26.33 z" />
    </clipPath>
    <clipPath
       id="clipPath65104">
      <path
         inkscape:connector-curvature="0"
         d="m 439.7123,265.43179 -93.957,-6.569 -4.029,57.612 93.957,6.57 4.029,-57.613 z"
         id="path65106" />
    </clipPath>
    <linearGradient
       id="SVGID_8_"
       gradientUnits="userSpaceOnUse"
       x1="6.2982998"
       y1="12.1118"
       x2="35.306599"
       y2="12.1118">
      <stop
         offset="0"
         style="stop-color:#23A6DE"
         id="stop61" />
      <stop
         offset="0.1713"
         style="stop-color:#1A93D2"
         id="stop63" />
      <stop
         offset="0.3984"
         style="stop-color:#1380C4"
         id="stop65" />
      <stop
         offset="0.6173"
         style="stop-color:#0C74BB"
         id="stop67" />
      <stop
         offset="0.8225"
         style="stop-color:#086DB6"
         id="stop69" />
      <stop
         offset="1"
         style="stop-color:#066AB5"
         id="stop71" />
    </linearGradient>
    <linearGradient
       id="SVGID_5_"
       gradientUnits="userSpaceOnUse"
       x1="0.5"
       y1="18.8848"
       x2="6.7460999"
       y2="18.8848">
      <stop
         offset="0"
         style="stop-color:#95C13D"
         id="stop40" />
      <stop
         offset="0.1841"
         style="stop-color:#8BBD40"
         id="stop42" />
      <stop
         offset="0.501"
         style="stop-color:#6EB245"
         id="stop44" />
      <stop
         offset="0.91"
         style="stop-color:#2EA24B"
         id="stop46" />
      <stop
         offset="1"
         style="stop-color:#089E4C"
         id="stop48" />
    </linearGradient>
    <linearGradient
       id="SVGID_2_"
       gradientUnits="userSpaceOnUse"
       x1="0.5"
       y1="18.128901"
       x2="34.6768"
       y2="18.128901">
      <stop
         offset="0"
         style="stop-color:#E31E30"
         id="stop13" />
      <stop
         offset="0.1068"
         style="stop-color:#E63E2D"
         id="stop15" />
      <stop
         offset="0.2547"
         style="stop-color:#E95628"
         id="stop17" />
      <stop
         offset="0.3899"
         style="stop-color:#EA6325"
         id="stop19" />
      <stop
         offset="0.5"
         style="stop-color:#EB6824"
         id="stop21" />
      <stop
         offset="0.5827"
         style="stop-color:#ED7723"
         id="stop23" />
      <stop
         offset="0.8668"
         style="stop-color:#F5A61D"
         id="stop25" />
      <stop
         offset="1"
         style="stop-color:#F9BA16"
         id="stop27" />
    </linearGradient>
  </defs>
  <sodipodi:namedview
     id="base"
     pagecolor="#ffffff"
     bordercolor="#666666"
     borderopacity="1.0"
     inkscape:pageopacity="1"
     inkscape:pageshadow="2"
     inkscape:zoom="11.02845"
     inkscape:cx="30.533197"
     inkscape:cy="24.507835"
     inkscape:document-units="px"
     inkscape:current-layer="layer1"
     showgrid="true"
     units="px"
     inkscape:window-width="1855"
     inkscape:window-height="1056"
     inkscape:window-x="65"
     inkscape:window-y="24"
     inkscape:window-maximized="1"
     showguides="true"
     inkscape:guide-bbox="true">
    <inkscape:grid
       type="xygrid"
       id="grid4856" />
    <sodipodi:guide
       position="61.000001,64.000001"
       orientation="0,1"
       id="guide4139" />
    <sodipodi:guide
       position="0,90.000001"
       orientation="1,0"
       id="guide4141" />
  </sodipodi:namedview>
  <metadata
     id="metadata4141">
    <rdf:RDF>
      <cc:Work
         rdf:about="">
        <dc:format>image/svg+xml</dc:format>
        <dc:type
           rdf:resource="http://purl.org/dc/dcmitype/StillImage" />
        <dc:title></dc:title>
        <cc:license
           rdf:resource="http://creativecommons.org/publicdomain/zero/1.0/" />
      </cc:Work>
      <cc:License
         rdf:about="http://creativecommons.org/publicdomain/zero/1.0/">
        <cc:permits
           rdf:resource="http://creativecommons.org/ns#Reproduction" />
        <cc:permits
           rdf:resource="http://creativecommons.org/ns#Distribution" />
        <cc:permits
           rdf:resource="http://creativecommons.org/ns#DerivativeWorks" />
      </cc:License>
    </rdf:RDF>
  </metadata>
  <g
     inkscape:label="Ebene 1"
     inkscape:groupmode="layer"
     id="layer1"
     transform="translate(0,-988.36216)">
    <rect
       style="fill:#ffffff;fill-opacity:1;stroke:#01ffff;stroke-width:0;stroke-linecap:butt;stroke-linejoin:miter;stroke-miterlimit:0;stroke-dasharray:none;stroke-opacity:1"
       id="rect4267"
       width="63.999992"
       height="63.999992"
       x="2.144923e-05"
       y="988.36218" />
    <path
       id="path18878"
       d="m 19.757508,992.73177 24.425805,0 c 2.432234,0 4.295217,1.07381 5.459581,3.0403 l 12.432843,21.54083 c 0.349306,0.621 0.815058,1.9018 0.80212,2.9497 0,1.2679 -0.426936,2.2511 -1.112618,3.4285 l -11.824785,20.5445 c -1.138487,1.9795 -2.522788,3.5837 -5.601888,3.5837 l -24.270561,0 c -3.67422,0 -4.515153,-1.3584 -5.912392,-3.5837 L 2.2661433,1023.6393 c -0.62099,-1.1127 -1.0349878,-1.9018 -1.0608642,-3.3378 0,-1.8501 0.5821818,-2.6523 1.0608642,-3.4285 L 14.155613,996.30249 c 1.241993,-2.2511 2.742731,-3.57072 5.601895,-3.57072 z"
       inkscape:connector-curvature="0"
       style="fill:#a91138" />
    <path
       id="path18880"
       d="m 10.183833,1011.711 0,16.4176 6.766258,0 c 5.291396,0 8.693932,-3.5836 8.693932,-8.2024 0,-5.3561 -2.755662,-8.2023 -8.849178,-8.2023 l -6.611012,0 0,-0.012 z m 3.97178,2.9627 1.86299,0 c 3.234346,0 5.446641,1.3972 5.446641,5.1361 0,3.299 -1.539552,5.369 -5.446641,5.369 l -1.86299,0 0,-10.5051 z"
       inkscape:connector-curvature="0"
       style="fill:#ffffff" />
    <path
       id="path18884"
       d="m 26.989517,1027.7533 0,-3.092 c 0,0 2.613348,0.621 4.864459,0.621 2.445165,0 3.506035,-0.7116 3.506035,-2.0053 0,-3.6613 -8.202311,-0.5434 -8.202311,-7.1026 0,-3.1697 2.432226,-4.7609 6.688635,-4.7609 2.238167,0 4.579839,0.3363 4.579839,0.3363 l 0,2.9886 c 0,0 -2.173482,-0.3105 -3.971781,-0.3105 -2.18642,0 -3.104976,0.401 -3.104976,1.5913 0,3.1307 8.318742,0.4786 8.318742,7.0767 0,2.704 -1.500732,5.3173 -7.167316,5.3173 -3.363722,-0.013 -5.511326,-0.6599 -5.511326,-0.6599 l 0,0 z"
       inkscape:connector-curvature="0"
       style="fill:#ffffff" />
    <path
       id="path18886"
       d="m 41.854586,1011.711 0,16.4951 6.067639,0 c 5.964139,0 7.206125,-2.1605 7.206125,-4.8127 0,-2.9368 -2.50985,-3.6095 -3.790657,-3.7001 l 0,-0.5692 c 2.044112,-0.2457 3.092038,-1.449 3.092038,-3.3119 0,-2.5098 -1.668923,-4.1141 -5.744202,-4.1141 l -6.830943,0.013 0,0 z m 3.881219,2.8075 2.173481,0 c 1.953545,0 2.626293,0.7373 2.626293,1.7206 0,1.2808 -0.763309,2.0959 -2.936791,2.0959 l -1.862983,0 0,-3.8165 z m 0,6.5333 1.707737,0 c 2.432227,0 3.583659,0.4915 3.583659,2.2123 0,1.022 -0.465751,1.9923 -2.807417,1.9923 l -2.483979,0 0,-4.2046 z"
       inkscape:connector-curvature="0"
       style="fill:#ffffff" />
  </g>
</svg>
