<?xml version="1.0" encoding="UTF-8" standalone="no"?>
<!-- Created with Inkscape (http://www.inkscape.org/) -->

<svg
   xmlns:dc="http://purl.org/dc/elements/1.1/"
   xmlns:cc="http://creativecommons.org/ns#"
   xmlns:rdf="http://www.w3.org/1999/02/22-rdf-syntax-ns#"
   xmlns:svg="http://www.w3.org/2000/svg"
   xmlns="http://www.w3.org/2000/svg"
   xmlns:sodipodi="http://sodipodi.sourceforge.net/DTD/sodipodi-0.dtd"
   xmlns:inkscape="http://www.inkscape.org/namespaces/inkscape"
   width="96"
   height="96"
   viewBox="0 0 96.000001 96.000002"
   id="svg4136"
   version="1.1"
   inkscape:version="0.91 r13725"
   inkscape:export-filename="/home/master/network_mvg_logo.png"
   inkscape:export-xdpi="90"
   inkscape:export-ydpi="90"
   sodipodi:docname="network_bsvag_logo.svg">
  <defs
     id="defs4138">
    <clipPath
       id="clipPath3470"
       clipPathUnits="userSpaceOnUse">
      <path
         inkscape:connector-curvature="0"
         id="path3472"
         d="m 0,0 937.559,0 0,841.89 L 0,841.89 0,0 Z" />
    </clipPath>
    <clipPath
       id="clipPath3506"
       clipPathUnits="userSpaceOnUse">
      <path
         inkscape:connector-curvature="0"
         id="path3508"
         d="m 1119.766,4.513 39.711,0 0,26.33 -39.711,0 0,-26.33 z" />
    </clipPath>
  </defs>
  <sodipodi:namedview
     id="base"
     pagecolor="#ffffff"
     bordercolor="#666666"
     borderopacity="1.0"
     inkscape:pageopacity="1"
     inkscape:pageshadow="2"
     inkscape:zoom="5.7941349"
     inkscape:cx="18.50561"
     inkscape:cy="55.469045"
     inkscape:document-units="px"
     inkscape:current-layer="layer1"
     showgrid="true"
     units="px"
     inkscape:window-width="1855"
     inkscape:window-height="1056"
     inkscape:window-x="65"
     inkscape:window-y="24"
     inkscape:window-maximized="1"
     showguides="false">
    <inkscape:grid
       type="xygrid"
       id="grid4856" />
  </sodipodi:namedview>
  <metadata
     id="metadata4141">
    <rdf:RDF>
      <cc:Work
         rdf:about="">
        <dc:format>image/svg+xml</dc:format>
        <dc:type
           rdf:resource="http://purl.org/dc/dcmitype/StillImage" />
        <dc:title />
        <cc:license
           rdf:resource="http://creativecommons.org/publicdomain/zero/1.0/" />
      </cc:Work>
      <cc:License
         rdf:about="http://creativecommons.org/publicdomain/zero/1.0/">
        <cc:permits
           rdf:resource="http://creativecommons.org/ns#Reproduction" />
        <cc:permits
           rdf:resource="http://creativecommons.org/ns#Distribution" />
        <cc:permits
           rdf:resource="http://creativecommons.org/ns#DerivativeWorks" />
      </cc:License>
    </rdf:RDF>
  </metadata>
  <g
     inkscape:label="Ebene 1"
     inkscape:groupmode="layer"
     id="layer1"
     transform="translate(0,-956.36216)">
    <rect
       style="fill:#ffffff;fill-opacity:1;stroke:#01ffff;stroke-width:0;stroke-linecap:butt;stroke-linejoin:miter;stroke-miterlimit:0;stroke-dasharray:none;stroke-opacity:1"
       id="rect4267"
       width="95.999954"
       height="95.999969"
       x="2.3284263e-05"
       y="956.36218" />
    <path
       d="m 43.29373,1009.0623 c 1.035302,-4.8795 4.143299,-9.24869 8.037705,-9.24869 3.304598,0 5.10958,5.48399 4.147481,10.96579 -0.96419,5.4798 -4.634805,8.4121 -7.939403,8.4121 -4.030355,0 -5.4003,-4.685 -4.245783,-10.1292 z m -6.165795,-41.4497 15.437496,0 -4.197678,26.64803 c 3.266952,-3.68944 8.029339,-5.66383 12.06806,-5.45468 3.494927,0.17987 13.988074,2.23583 13.988074,15.06525 0,12.8272 -4.762387,21.1912 -10.721122,24.8263 -5.958735,3.6329 -8.905684,2.5956 -11.137334,2.5956 -2.229558,0 -6.682401,-0.6233 -8.962154,-3.2189 -2.277664,-2.5956 -2.277664,-2.9072 -2.277664,-2.9072 l -0.882621,5.0866 -14.243239,0 10.928182,-62.641"
       id="path4941"
       style="fill:#b62234;fill-opacity:1;fill-rule:evenodd;stroke:none"
       inkscape:connector-curvature="0" />
    <path
       d="m 93.898011,1002.1645 c 0,25.7173 -20.789689,46.5655 -46.437975,46.5655 -2.043414,0 -10.141772,-1.7317 -12.860745,-2.5202 1.478703,0.1567 9.547779,1.1628 11.068313,1.1628 23.370623,0 42.581218,-17.7925 42.581218,-41.228 0,-13.4045 -6.19717,-25.35753 -15.876714,-33.13379 l -1.886551,-5.97965 7.303581,-0.12968 c 9.8636,8.53967 16.108873,21.17035 16.108873,35.26302"
       id="path4943"
       style="fill:#969f95;fill-opacity:1;fill-rule:nonzero;stroke:none"
       inkscape:connector-curvature="0" />
    <path
       d="m 2.2184071,1004.7391 c 0.8951691,-25.70054 22.3980669,-45.80839 48.0296209,-44.91113 2.041322,0.0711 10.076935,2.08524 12.766628,2.96996 -1.472429,-0.20916 -9.503859,-1.49753 -11.022302,-1.54982 -23.358074,-0.81778 -43.1752076,16.29083 -43.9908994,39.71169 -0.4664077,13.3982 5.3124554,25.5604 14.7159214,33.6692 l 1.675306,6.0424 -7.303582,-0.1255 C 7.5287708,1031.6674 1.7289925,1018.8255 2.2184071,1004.7391"
       id="path4945"
       style="fill:#969f95;fill-opacity:1;fill-rule:nonzero;stroke:none"
       inkscape:connector-curvature="0" />
  </g>
</svg>
