<?xml version="1.0" encoding="UTF-8" standalone="no"?>
<!-- Created with Inkscape (http://www.inkscape.org/) -->

<svg
   xmlns:dc="http://purl.org/dc/elements/1.1/"
   xmlns:cc="http://creativecommons.org/ns#"
   xmlns:rdf="http://www.w3.org/1999/02/22-rdf-syntax-ns#"
   xmlns:svg="http://www.w3.org/2000/svg"
   xmlns="http://www.w3.org/2000/svg"
   xmlns:sodipodi="http://sodipodi.sourceforge.net/DTD/sodipodi-0.dtd"
   xmlns:inkscape="http://www.inkscape.org/namespaces/inkscape"
   width="96"
   height="96"
   viewBox="0 0 96.000001 96.000002"
   id="svg4136"
   version="1.1"
   inkscape:version="0.91 r13725"
   inkscape:export-filename="/home/master/network_mvg_logo.png"
   inkscape:export-xdpi="90"
   inkscape:export-ydpi="90"
   sodipodi:docname="network_vgs_logo.svg">
  <defs
     id="defs4138">
    <clipPath
       id="clipPath3470"
       clipPathUnits="userSpaceOnUse">
      <path
         inkscape:connector-curvature="0"
         id="path3472"
         d="m 0,0 937.559,0 0,841.89 L 0,841.89 0,0 Z" />
    </clipPath>
    <clipPath
       id="clipPath3506"
       clipPathUnits="userSpaceOnUse">
      <path
         inkscape:connector-curvature="0"
         id="path3508"
         d="m 1119.766,4.513 39.711,0 0,26.33 -39.711,0 0,-26.33 z" />
    </clipPath>
  </defs>
  <sodipodi:namedview
     id="base"
     pagecolor="#ffffff"
     bordercolor="#666666"
     borderopacity="1.0"
     inkscape:pageopacity="1"
     inkscape:pageshadow="2"
     inkscape:zoom="8.48"
     inkscape:cx="36.084799"
     inkscape:cy="46.035083"
     inkscape:document-units="px"
     inkscape:current-layer="layer1"
     showgrid="true"
     units="px"
     inkscape:window-width="1855"
     inkscape:window-height="1056"
     inkscape:window-x="65"
     inkscape:window-y="24"
     inkscape:window-maximized="1"
     showguides="false">
    <inkscape:grid
       type="xygrid"
       id="grid4856" />
  </sodipodi:namedview>
  <metadata
     id="metadata4141">
    <rdf:RDF>
      <cc:Work
         rdf:about="">
        <dc:format>image/svg+xml</dc:format>
        <dc:type
           rdf:resource="http://purl.org/dc/dcmitype/StillImage" />
        <dc:title></dc:title>
        <cc:license
           rdf:resource="http://creativecommons.org/publicdomain/zero/1.0/" />
      </cc:Work>
      <cc:License
         rdf:about="http://creativecommons.org/publicdomain/zero/1.0/">
        <cc:permits
           rdf:resource="http://creativecommons.org/ns#Reproduction" />
        <cc:permits
           rdf:resource="http://creativecommons.org/ns#Distribution" />
        <cc:permits
           rdf:resource="http://creativecommons.org/ns#DerivativeWorks" />
      </cc:License>
    </rdf:RDF>
  </metadata>
  <g
     inkscape:label="Ebene 1"
     inkscape:groupmode="layer"
     id="layer1"
     transform="translate(0,-956.36216)">
    <rect
       style="fill:#ffffff;fill-opacity:1;stroke:#01ffff;stroke-width:0;stroke-linecap:butt;stroke-linejoin:miter;stroke-miterlimit:0;stroke-dasharray:none;stroke-opacity:1"
       id="rect4267"
       width="95.999954"
       height="95.999969"
       x="2.3284263e-05"
       y="956.36218" />
    <g
       id="g27364"
       transform="matrix(2.2552309,0,0,-2.2498697,31.43396,989.99266)">
      <path
         inkscape:connector-curvature="0"
         d="m 0,0 -3.74,0 -1.969,-6.458 c -0.374,-1.22 -0.473,-1.732 -0.63,-2.559 l -0.04,0 c -0.197,0.906 -0.433,1.654 -0.649,2.363 L -9.056,0 l -3.938,0 4.371,-13.289 4.311,0 L 0,0"
         style="fill:#231f20;fill-opacity:1;fill-rule:nonzero;stroke:none"
         id="path27366" />
    </g>
    <g
       id="g27368"
       transform="matrix(2.2552309,0,0,-2.2498697,56.094909,990.57537)">
      <path
         inkscape:connector-curvature="0"
         d="m 0,0 c -1.083,0.334 -2.124,0.476 -3.503,0.476 -4.843,0 -7.835,-2.914 -7.835,-7.226 0,-3.976 2.382,-6.516 6.851,-6.516 1.811,0 3.504,0.354 4.784,0.925 l 0,6.556 -3.662,0 0,-4.036 c -0.197,-0.059 -0.472,-0.098 -0.748,-0.098 -2.264,0 -3.249,1.358 -3.249,3.425 0,2.146 1.261,3.662 3.682,3.662 1.319,0 2.656,-0.189 3.68,-0.582 L 0,0"
         style="fill:#231f20;fill-opacity:1;fill-rule:nonzero;stroke:none"
         id="path27370" />
    </g>
    <g
       id="g27372"
       transform="matrix(2.2552309,0,0,-2.2498697,93.836199,1009.9693)">
      <path
         inkscape:connector-curvature="0"
         d="m 0,0 c 0,4.154 -4.961,3.504 -4.961,5.178 0,0.512 0.432,0.925 1.456,0.925 0.807,0 1.747,-0.146 2.515,-0.363 l 0,3.117 c -0.827,0.138 -1.708,0.278 -2.377,0.278 -3.504,0 -5.532,-1.693 -5.532,-4.331 0,-4.548 4.961,-3.406 4.961,-5.336 0,-0.61 -0.571,-0.984 -1.457,-0.984 -1.004,0 -2.221,0.245 -2.949,0.501 L -8.391,-4.432 C -7.505,-4.629 -6.596,-4.666 -5.69,-4.666 -2.146,-4.666 0,-2.658 0,0"
         style="fill:#231f20;fill-opacity:1;fill-rule:nonzero;stroke:none"
         id="path27374" />
    </g>
    <g
       id="g27376"
       transform="matrix(2.2552309,0,0,-2.2498697,59.874676,1018.9125)">
      <path
         inkscape:connector-curvature="0"
         d="M 0,0 C 0,1.481 1.245,2.681 2.783,2.681 4.32,2.681 5.565,1.481 5.565,0 5.565,-1.481 4.32,-2.681 2.783,-2.681 1.245,-2.681 0,-1.481 0,0 Z"
         style="fill:#50b848;fill-opacity:1;fill-rule:nonzero;stroke:#50b848;stroke-width:0.23199999;stroke-linecap:butt;stroke-linejoin:miter;stroke-miterlimit:3.86400008;stroke-dasharray:none;stroke-opacity:1"
         id="path27378" />
    </g>
    <g
       id="g27380"
       transform="matrix(2.2552309,0,0,-2.2498697,59.874676,989.99266)">
      <path
         inkscape:connector-curvature="0"
         d="M 0,0 C 0,1.481 1.245,2.681 2.783,2.681 4.32,2.681 5.565,1.481 5.565,0 5.565,-1.481 4.32,-2.681 2.783,-2.681 1.245,-2.681 0,-1.481 0,0 Z"
         style="fill:#50b848;fill-opacity:1;fill-rule:nonzero;stroke:#50b848;stroke-width:0.23199999;stroke-linecap:butt;stroke-linejoin:miter;stroke-miterlimit:3.86400008;stroke-dasharray:none;stroke-opacity:1"
         id="path27382" />
    </g>
    <g
       id="g27384"
       transform="matrix(2.2552309,0,0,-2.2498697,59.874676,1004.4368)">
      <path
         inkscape:connector-curvature="0"
         d="M 0,0 C 0,1.481 1.245,2.681 2.783,2.681 4.32,2.681 5.565,1.481 5.565,0 5.565,-1.481 4.32,-2.681 2.783,-2.681 1.245,-2.681 0,-1.481 0,0 Z"
         style="fill:#50b848;fill-opacity:1;fill-rule:nonzero;stroke:#50b848;stroke-width:0.23199999;stroke-linecap:butt;stroke-linejoin:miter;stroke-miterlimit:3.86400008;stroke-dasharray:none;stroke-opacity:1"
         id="path27386" />
    </g>
  </g>
</svg>
