<?xml version="1.0" encoding="UTF-8" standalone="no"?>
<!-- Created with Inkscape (http://www.inkscape.org/) -->

<svg
   xmlns:dc="http://purl.org/dc/elements/1.1/"
   xmlns:cc="http://creativecommons.org/ns#"
   xmlns:rdf="http://www.w3.org/1999/02/22-rdf-syntax-ns#"
   xmlns:svg="http://www.w3.org/2000/svg"
   xmlns="http://www.w3.org/2000/svg"
   xmlns:sodipodi="http://sodipodi.sourceforge.net/DTD/sodipodi-0.dtd"
   xmlns:inkscape="http://www.inkscape.org/namespaces/inkscape"
   width="96"
   height="96"
   viewBox="0 0 96.000001 96.000002"
   id="svg4136"
   version="1.1"
   inkscape:version="0.91 r13725"
   inkscape:export-filename="/home/master/network_mvg_logo.png"
   inkscape:export-xdpi="90"
   inkscape:export-ydpi="90"
   sodipodi:docname="network_stv_logo.svg">
  <defs
     id="defs4138">
    <clipPath
       id="clipPath3470"
       clipPathUnits="userSpaceOnUse">
      <path
         inkscape:connector-curvature="0"
         id="path3472"
         d="m 0,0 937.559,0 0,841.89 L 0,841.89 0,0 Z" />
    </clipPath>
    <clipPath
       id="clipPath3506"
       clipPathUnits="userSpaceOnUse">
      <path
         inkscape:connector-curvature="0"
         id="path3508"
         d="m 1119.766,4.513 39.711,0 0,26.33 -39.711,0 0,-26.33 z" />
    </clipPath>
  </defs>
  <sodipodi:namedview
     id="base"
     pagecolor="#ffffff"
     bordercolor="#666666"
     borderopacity="1.0"
     inkscape:pageopacity="1"
     inkscape:pageshadow="2"
     inkscape:zoom="8.49"
     inkscape:cx="39.781956"
     inkscape:cy="46.046195"
     inkscape:document-units="px"
     inkscape:current-layer="layer1"
     showgrid="true"
     units="px"
     inkscape:window-width="1855"
     inkscape:window-height="1056"
     inkscape:window-x="65"
     inkscape:window-y="24"
     inkscape:window-maximized="1"
     showguides="false">
    <inkscape:grid
       type="xygrid"
       id="grid4856" />
  </sodipodi:namedview>
  <metadata
     id="metadata4141">
    <rdf:RDF>
      <cc:Work
         rdf:about="">
        <dc:format>image/svg+xml</dc:format>
        <dc:type
           rdf:resource="http://purl.org/dc/dcmitype/StillImage" />
        <dc:title></dc:title>
        <cc:license
           rdf:resource="http://creativecommons.org/publicdomain/zero/1.0/" />
      </cc:Work>
      <cc:License
         rdf:about="http://creativecommons.org/publicdomain/zero/1.0/">
        <cc:permits
           rdf:resource="http://creativecommons.org/ns#Reproduction" />
        <cc:permits
           rdf:resource="http://creativecommons.org/ns#Distribution" />
        <cc:permits
           rdf:resource="http://creativecommons.org/ns#DerivativeWorks" />
      </cc:License>
    </rdf:RDF>
  </metadata>
  <g
     inkscape:label="Ebene 1"
     inkscape:groupmode="layer"
     id="layer1"
     transform="translate(0,-956.36216)">
    <rect
       style="fill:#ffffff;fill-opacity:1;stroke:#01ffff;stroke-width:0;stroke-linecap:butt;stroke-linejoin:miter;stroke-miterlimit:0;stroke-dasharray:none;stroke-opacity:1"
       id="rect4267"
       width="95.999954"
       height="95.999969"
       x="2.3284263e-05"
       y="956.36218" />
    <g
       id="g3050"
       transform="matrix(0.51708873,0,0,-0.51708873,65.705379,1001.3821)">
      <path
         inkscape:connector-curvature="0"
         d="m 0,0 -1.474,0 c -0.213,0 -0.423,-0.173 -0.471,-0.386 l -0.348,-1.638 c -0.047,-0.213 0.089,-0.385 0.302,-0.385 l 1.481,10e-4 -2.578,-12.118 c -0.214,-0.971 0.395,-1.757 1.366,-1.757 l 50.796,0 c 0.971,0 1.93,0.786 2.144,1.757 L 54.682,1.86 c 0.214,0.97 -0.4,1.757 -1.37,1.757 l -50.765,0 C 1.577,3.617 0.611,2.83 0.397,1.86 L 0,0 Z"
         style="fill:#009036;fill-opacity:1;fill-rule:nonzero;stroke:none"
         id="path3052" />
    </g>
    <g
       id="g3054"
       transform="matrix(0.51708873,0,0,-0.51708873,67.286326,1007.9318)">
      <path
         inkscape:connector-curvature="0"
         d="M 0,0 C 0,0.999 0.809,1.808 1.808,1.808 2.807,1.808 3.617,0.999 3.617,0 3.617,-0.999 2.807,-1.808 1.808,-1.808 0.809,-1.808 0,-0.999 0,0"
         style="fill:#ffffff;fill-opacity:1;fill-rule:nonzero;stroke:none"
         id="path3056" />
    </g>
    <g
       id="g3058"
       transform="matrix(0.51708873,0,0,-0.51708873,75.000617,1006.997)">
      <path
         inkscape:connector-curvature="0"
         d="m 0,0 0.002,1.133 c 0,2.733 -0.429,4.968 -0.73,7.317 l -2.33,0 c -0.213,0 -0.424,-0.173 -0.471,-0.386 L -3.604,7.708 -4.661,2.733 -5.079,0.761 -5.16,0.386 C -5.207,0.173 -5.072,0 -4.859,0 L -3.199,0 0,0 Z"
         style="fill:#ffffff;fill-opacity:1;fill-rule:nonzero;stroke:none"
         id="path3060" />
    </g>
    <g
       id="g3062"
       transform="matrix(0.51708873,0,0,-0.51708873,66.560695,1008.8668)">
      <path
         inkscape:connector-curvature="0"
         d="m 0,0 c -0.301,0.534 -0.474,1.151 -0.474,1.808 0,2.036 1.65,3.685 3.686,3.685 2.035,0 3.684,-1.649 3.684,-3.685 C 6.896,1.151 6.717,0.534 6.423,0 l 9.321,0 c 0.213,0 0.423,0.174 0.47,0.387 0.024,0.223 0.097,1.151 0.111,1.418 l -6.747,0 C 9.273,1.805 8.862,1.929 8.987,2.51 L 9.219,3.616 9.906,6.844 C 9.954,7.057 9.819,7.23 9.605,7.23 l -6.726,0 C 2.665,7.23 2.53,7.403 2.577,7.616 L 2.93,9.269 c 0.047,0.213 0.258,0.387 0.471,0.387 l 6.714,0 c 0.213,0 0.422,0.169 0.469,0.382 l 0.204,0.956 0.146,0.686 c 0.046,0.213 -0.088,0.386 -0.302,0.386 l -14.255,0 c -0.213,0 -0.371,0.172 -0.324,0.385 l 0.348,1.638 c 0.047,0.213 0.258,0.386 0.471,0.386 l 18.492,0 0,1.424 c 0,0.214 -0.173,0.385 -0.386,0.385 l -0.336,0 -19.632,0 L -8.453,0 0,0 Z"
         style="fill:#ffffff;fill-opacity:1;fill-rule:nonzero;stroke:none"
         id="path3064" />
    </g>
    <g
       id="g3066"
       transform="matrix(0.51708873,0,0,-0.51708873,88.681596,1004.5682)">
      <path
         inkscape:connector-curvature="0"
         d="m 0,0 c 0.918,-0.894 2.027,-2.118 2.449,-2.82 l -9.178,0 c -0.109,0 -0.178,0.088 -0.154,0.198 l 0.256,1.232 0.064,0.307 0.083,0.394 0.102,0.492 C -6.354,-0.088 -6.246,0 -6.137,0 L 0,0 Z"
         style="fill:#ffffff;fill-opacity:1;fill-rule:nonzero;stroke:none"
         id="path3068" />
    </g>
    <g
       id="g3070"
       transform="matrix(0.51708873,0,0,-0.51708873,79.9898,1002.6278)">
      <path
         inkscape:connector-curvature="0"
         d="M 0,0 -3.014,0 C -3.474,0 -3.766,-0.323 -3.83,-0.625 L -5.213,-7.179 -5.356,-7.858 C -5.43,-8.231 -5.271,-8.45 -4.888,-8.45 l 8.316,0 0,-1.827 c 0,-0.988 -0.801,-1.789 -1.789,-1.789 l -9.677,0 c 0.173,1.479 0.247,3.071 0.247,4.748 0,3.284 -0.63,6.02 -0.921,8.909 -0.042,0.188 -0.041,0.701 -0.04,0.818 l 3.675,0 c 0.929,0 1.825,-0.216 2.945,-0.771 C -1.389,1.247 -0.667,0.692 0,0"
         style="fill:#ffffff;fill-opacity:1;fill-rule:nonzero;stroke:none"
         id="path3072" />
    </g>
    <g
       id="g3074"
       transform="matrix(0.51708873,0,0,-0.51708873,80.739785,1003.5979)">
      <path
         inkscape:connector-curvature="0"
         d="m 0,0 c 0.831,-1.338 1.466,-2.935 1.776,-4.697 l -6.048,0 c -0.219,0 -0.359,0.178 -0.31,0.398 l 0.585,2.786 0.234,1.115 C -3.715,-0.178 -3.498,0 -3.278,0 L 0,0 Z"
         style="fill:#ffffff;fill-opacity:1;fill-rule:nonzero;stroke:none"
         id="path3076" />
    </g>
    <g
       id="g3078"
       transform="matrix(0.51708873,0,0,-0.51708873,82.473584,1008.8668)">
      <path
         inkscape:connector-curvature="0"
         d="m 0,0 12.581,0 c 2.795,0 2.903,2 2.901,2.527 -10e-4,0.365 -10e-4,0.696 -0.112,1.089 L 3.517,3.618 c -0.305,0 -0.716,0.123 -0.59,0.705 l 0.18,0.85 0.298,1.403 0.392,1.86 0.24,1.129 c 0.064,0.302 0.338,0.624 0.788,0.624 l 5.071,0 C 9.302,10.636 8.671,11.036 8.05,11.352 7.085,11.849 6.11,12.066 5.215,12.066 l -8.026,0 c 0.501,-0.521 0.884,-1.12 1.305,-1.784 l 0.057,-0.092 c 0.832,-1.338 1.397,-2.933 1.707,-4.695 0,0 0.15,-1.144 0.178,-1.879 L 0.437,1.789 C 0.437,1.137 0.305,0.526 0,0"
         style="fill:#ffffff;fill-opacity:1;fill-rule:nonzero;stroke:none"
         id="path3080" />
    </g>
    <g
       id="g3082"
       transform="matrix(0.51708873,0,0,-0.51708873,61.086018,1009.7963)">
      <path
         inkscape:connector-curvature="0"
         d="M 0,0 C 0.971,0 1.931,0.787 2.144,1.757 L 5.609,18.142 C 5.822,19.113 5.208,19.9 4.238,19.9 l -111.838,0 c -0.97,0 -1.936,-0.787 -2.15,-1.757 L -113.235,1.757 C -113.449,0.787 -112.84,0 -111.869,0 L 0,0 Z"
         style="fill:#009036;fill-opacity:1;fill-rule:nonzero;stroke:none"
         id="path3084" />
    </g>
    <g
       id="g3086"
       transform="matrix(0.51708873,0,0,-0.51708873,41.684177,1007.9353)">
      <path
         inkscape:connector-curvature="0"
         d="m 0,0 6.925,0 0.522,2.494 -3.926,0 2.157,10.176 -2.983,0 L 0,0 Z"
         style="fill:#ffffff;fill-opacity:1;fill-rule:nonzero;stroke:none"
         id="path3088" />
    </g>
    <g
       id="g3090"
       transform="matrix(0.51708873,0,0,-0.51708873,45.759819,1007.9353)">
      <path
         inkscape:connector-curvature="0"
         d="m 0,0 2.982,0 2.696,12.67 -2.999,0 L 0,0 Z"
         style="fill:#ffffff;fill-opacity:1;fill-rule:nonzero;stroke:none"
         id="path3092" />
    </g>
    <g
       id="g3094"
       transform="matrix(0.51708873,0,0,-0.51708873,48.298414,1007.9353)">
      <path
         inkscape:connector-curvature="0"
         d="M 0,0 2.78,0 3.589,3.993 C 3.74,4.734 3.875,5.981 4.061,7.75 l 0.117,0 C 4.262,6.621 4.381,5.459 4.515,4.296 L 5.037,0 8.036,0 10.732,12.67 7.935,12.67 7.11,8.711 C 7.059,8.424 6.891,7.245 6.621,5.156 l -0.067,0 C 6.385,7.042 6.284,8.121 6.251,8.391 L 5.695,12.67 2.679,12.67 0,0 Z"
         style="fill:#ffffff;fill-opacity:1;fill-rule:nonzero;stroke:none"
         id="path3096" />
    </g>
    <g
       id="g3098"
       transform="matrix(0.51708873,0,0,-0.51708873,53.450376,1007.9353)">
      <path
         inkscape:connector-curvature="0"
         d="m 0,0 2.982,0 2.696,12.67 -2.999,0 L 0,0 Z"
         style="fill:#ffffff;fill-opacity:1;fill-rule:nonzero;stroke:none"
         id="path3100" />
    </g>
    <g
       id="g3102"
       transform="matrix(0.51708873,0,0,-0.51708873,55.97956,1007.9353)">
      <path
         inkscape:connector-curvature="0"
         d="m 0,0 6.759,0 0.522,2.46 -3.777,0 0.624,2.965 3.787,0 0.516,2.426 -3.781,0 0.506,2.41 3.773,0 0.523,2.409 -6.756,0 L 0,0 Z"
         style="fill:#ffffff;fill-opacity:1;fill-rule:nonzero;stroke:none"
         id="path3104" />
    </g>
    <g
       id="g3106"
       transform="matrix(0.51708873,0,0,-0.51708873,6.5826949,1007.9353)">
      <path
         inkscape:connector-curvature="0"
         d="m 0,0 3.319,0 5.375,12.67 -3.134,0 -3.235,-9.317 0.303,9.317 -2.864,0 L 0,0 Z"
         style="fill:#ffffff;fill-opacity:1;fill-rule:nonzero;stroke:none"
         id="path3108" />
    </g>
    <g
       id="g3110"
       transform="matrix(0.51708873,0,0,-0.51708873,14.697161,1007.9353)">
      <path
         inkscape:connector-curvature="0"
         d="m 0,0 2.965,0 1.096,5.223 0.741,0 c 0.623,0 1.011,-0.354 1.011,-0.91 C 5.813,3.218 5.29,1.971 5.29,0.775 5.29,0.472 5.324,0.219 5.425,0 l 3.1,0 0,0.253 C 8.374,0.522 8.323,0.825 8.323,1.196 c 0,1.163 0.472,2.292 0.472,3.319 0,0.876 -0.404,1.382 -1.331,1.618 1.617,0.387 2.409,1.567 2.409,3.521 0,0.994 -0.303,1.752 -0.943,2.291 -0.742,0.641 -1.854,0.725 -3.42,0.725 l -2.814,0 L 0,0 Z m 4.549,7.464 0.64,3.049 0.658,0 c 0.673,0 1.044,-0.404 1.044,-1.112 0,-1.23 -0.606,-1.937 -1.719,-1.937 l -0.623,0 z"
         style="fill:#ffffff;fill-opacity:1;fill-rule:nonzero;stroke:none"
         id="path3112" />
    </g>
    <g
       id="g3114"
       transform="matrix(0.51708873,0,0,-0.51708873,22.138842,1004.0148)">
      <path
         inkscape:connector-curvature="0"
         d="m 0,0 0.657,3.083 0.657,0 C 1.971,3.083 2.342,2.696 2.342,1.971 2.342,0.741 1.735,0 0.674,0 L 0,0 Z m -4.549,-7.582 4.431,0 c 2.982,0 4.431,1.332 4.431,4.162 0,1.112 -0.455,1.836 -1.415,2.258 1.499,0.505 2.291,1.718 2.291,3.588 0,2.089 -1.382,2.662 -4.364,2.662 l -2.679,0 -2.695,-12.67 z m 3.386,2.157 0.725,3.42 0.724,0 c 0.691,0 1.112,-0.455 1.112,-1.247 0,-1.381 -0.657,-2.173 -1.803,-2.173 l -0.758,0 z"
         style="fill:#ffffff;fill-opacity:1;fill-rule:nonzero;stroke:none"
         id="path3116" />
    </g>
    <g
       id="g3118"
       transform="matrix(0.51708873,0,0,-0.51708873,26.270281,1001.3838)">
      <path
         inkscape:connector-curvature="0"
         d="m 0,0 -1.499,-7.093 c -0.287,-1.348 -0.438,-2.291 -0.438,-2.831 0,-2.055 1.28,-3.049 3.908,-3.049 1.348,0 2.325,0.405 3.067,1.28 0.556,0.657 0.842,1.786 1.179,3.353 L 7.986,0 5.021,0 3.302,-8.07 c -0.37,-1.736 -0.522,-2.645 -1.55,-2.645 -0.505,0 -0.808,0.303 -0.808,0.791 0,0.287 0.101,0.843 0.286,1.685 L 2.965,0 0,0 Z"
         style="fill:#ffffff;fill-opacity:1;fill-rule:nonzero;stroke:none"
         id="path3120" />
    </g>
    <g
       id="g3122"
       transform="matrix(0.51708873,0,0,-0.51708873,29.974858,1007.9353)">
      <path
         inkscape:connector-curvature="0"
         d="M 0,0 2.78,0 3.589,3.993 C 3.74,4.734 3.875,5.981 4.061,7.75 l 0.117,0 C 4.263,6.621 4.381,5.459 4.516,4.296 L 5.038,0 8.037,0 10.733,12.67 7.936,12.67 7.11,8.711 C 7.059,8.424 6.891,7.245 6.622,5.156 l -0.068,0 C 6.385,7.042 6.284,8.121 6.251,8.391 L 5.695,12.67 2.679,12.67 0,0 Z"
         style="fill:#ffffff;fill-opacity:1;fill-rule:nonzero;stroke:none"
         id="path3124" />
    </g>
    <g
       id="g3126"
       transform="matrix(0.51708873,0,0,-0.51708873,35.09171,1007.9353)">
      <path
         inkscape:connector-curvature="0"
         d="m 0,0 4.65,0 c 1.718,0 2.931,0.741 3.589,2.19 0.505,1.129 0.96,2.881 1.348,5.24 0.151,0.91 0.201,1.567 0.201,2.005 0,2.19 -1.162,3.235 -3.554,3.235 l -3.539,0 L 0,0 Z m 5.189,10.395 0.674,0 c 0.674,0 1.011,-0.354 1.011,-1.078 0,-0.303 -0.051,-0.792 -0.185,-1.432 L 6.082,5.004 C 5.694,3.151 5.408,2.274 4.111,2.274 l -0.657,0 1.735,8.121 z"
         style="fill:#ffffff;fill-opacity:1;fill-rule:nonzero;stroke:none"
         id="path3128" />
    </g>
    <g
       id="g3130"
       transform="matrix(0.51708873,0,0,-0.51708873,10.240324,1007.9353)">
      <path
         inkscape:connector-curvature="0"
         d="m 0,0 6.759,0 0.522,2.46 -3.776,0 0.623,2.965 3.787,0 0.516,2.426 -3.781,0 0.506,2.41 3.774,0 0.522,2.409 -6.756,0 L 0,0 Z"
         style="fill:#ffffff;fill-opacity:1;fill-rule:nonzero;stroke:none"
         id="path3132" />
    </g>
    <g
       id="g3134"
       transform="matrix(0.51708873,0,0,-0.51708873,60.830887,1007.9336)">
      <path
         inkscape:connector-curvature="0"
         d="m 0,0 c -0.213,0 -0.348,0.172 -0.301,0.385 l 0.358,1.688 c 0.047,0.213 0.258,0.386 0.471,0.386 l 8.277,0 c 0.213,0 0.349,-0.172 0.302,-0.385 L 8.748,0.386 C 8.701,0.173 8.49,0 8.277,0 L 0,0 Z"
         style="fill:#009036;fill-opacity:1;fill-rule:nonzero;stroke:none"
         id="path3136" />
    </g>
  </g>
</svg>
