<?xml version="1.0" encoding="UTF-8" standalone="no"?>
<svg
   xmlns:svg="http://www.w3.org/2000/svg"
   xmlns="http://www.w3.org/2000/svg"
   height="512"
   width="512"
   version="1.1"
   xml:space="preserve"><defs
     id="defs51" /><circle
     style="fill:#f0f0f0"
     cx="256"
     cy="256"
     r="256"
     id="circle2" /><path
     id="path4"
     d="M 256,0 C 154.506,0 66.81,59.065 25.402,144.696 H 486.597 C 445.19,59.065 357.493,0 256,0 Z"
     style="fill:#338af3" /><path
     id="path6"
     d="m 256,512 c 101.493,0 189.19,-59.065 230.598,-144.696 H 25.402 C 66.81,452.935 154.506,512 256,512 Z"
     style="fill:#338af3" /><path
     style="fill:#ffda44"
     d="m 256,178.087 c -43.03,0 -77.913,34.883 -77.913,77.913 0,43.03 34.883,77.913 77.913,77.913 43.03,0 77.913,-34.883 77.913,-77.913 0,-43.03 -34.883,-77.913 -77.913,-77.913 z m 0,122.435 c -24.588,0 -44.522,-19.932 -44.522,-44.522 0,-24.59 19.933,-44.522 44.522,-44.522 24.589,0 44.522,19.932 44.522,44.522 0,24.59 -19.934,44.522 -44.522,44.522 z"
     id="path10" /><polygon
     style="fill:#0052b4"
     points="307.409,289.391 294.558,267.13 256,256 217.442,267.13 204.59,289.391 "
     id="polygon12" /><polygon
     style="fill:#338af3"
     points="256,200.348 230.295,244.87 256,256 281.705,244.87 "
     id="polygon14" /><polygon
     style="fill:#6da544"
     points="217.442,267.13 294.558,267.13 281.705,244.87 230.295,244.87 "
     id="polygon16" /></svg>
