<?xml version="1.0" encoding="utf-8"?>
<!-- Generator: Adobe Illustrator 19.0.0, SVG Export Plug-In . SVG Version: 6.00 Build 0)  -->
<svg version="1.1" id="Layer_1" xmlns="http://www.w3.org/2000/svg" xmlns:xlink="http://www.w3.org/1999/xlink" x="0px" y="0px"
	 viewBox="0 0 56.7 56.7" style="enable-background:new 0 0 56.7 56.7;" xml:space="preserve">
<style type="text/css">
	.st0{fill:#FFFFFF;}
</style>
<rect id="XMLID_52_" x="0" y="0" width="28.3" height="28.3"/>
<rect id="XMLID_51_" x="28.3" y="0" class="st0" width="28.3" height="28.3"/>
<rect id="XMLID_50_" x="0" y="28.3" class="st0" width="28.3" height="28.3"/>
<rect id="XMLID_49_" x="28.3" y="28.3" width="28.3" height="28.3"/>
<path id="XMLID_48_" d="M36,23.4v-2.6l2.3-2.1c3.9-3.6,5.8-5.7,5.9-7.8c0-1.5-0.9-2.7-2.9-2.7c-1.5,0-2.9,0.8-3.8,1.5l-1.2-3
	c1.3-1,3.4-1.9,5.8-1.9c4.1,0,6.3,2.4,6.3,5.8c0,3.1-2.1,5.5-4.8,7.9l-1.6,1.4v0.1h6.8v3.5H36"/>
<path id="XMLID_47_" class="st0" d="M36,51.7v-2.4l2.3-2.1c3.9-3.6,5.9-5.8,5.9-8c0-1.6-0.9-2.8-3-2.8c-1.5,0-2.9,0.8-3.9,1.5
	l-1.1-3c1.3-1,3.4-1.9,5.8-1.9c4.1,0,6.3,2.4,6.3,5.8c0,3.1-2.1,5.6-4.8,8l-1.6,1.4v0.1h6.8v3.4H36"/>
<path id="XMLID_44_" d="M8.9,48.6c0.5,0.1,1,0.1,1.8,0c1.3-0.1,2.6-0.4,3.5-1.1c1.2-0.8,2-2.1,2.3-3.4l-0.1,0
	c-0.8,0.8-2,1.3-3.6,1.3c-3,0-5.5-2.1-5.5-5.7c0-3.6,2.8-6.6,6.7-6.6c4.6,0,6.8,3.6,6.8,7.9c0,3.8-1.2,6.6-3.1,8.5
	c-1.7,1.6-4.1,2.5-6.9,2.6c-0.7,0.1-1.4,0-1.9,0V48.6z M13.8,36.2c-1.4,0-2.4,1.3-2.4,3.2c0,1.6,0.9,2.9,2.5,2.9
	c1.2,0,1.9-0.5,2.4-1.2c0.1-0.3,0.2-0.6,0.2-1.1C16.5,38.1,15.7,36.2,13.8,36.2"/>
<path id="XMLID_41_" class="st0" d="M8.9,20.4c0.5,0.1,1,0.1,1.8,0c1.3-0.1,2.6-0.4,3.6-1.1c1.4-0.9,2-2.2,2.3-3.7l-0.1,0
	c-0.9,1-2.1,1.5-3.7,1.5c-3,0-5.5-2.1-5.5-5.7S10,4.7,14,4.7c4.6,0,6.8,3.6,6.8,7.9c0,3.8-1.2,6.6-3.1,8.5c-1.7,1.6-4.1,2.5-6.9,2.6
	c-0.7,0.1-1.4,0-1.9,0V20.4z M13.8,7.7c-1.5,0-2.5,1.3-2.5,3.3c0,1.7,0.9,3,2.6,3c1.3,0,2-0.5,2.5-1.2c0.1-0.3,0.2-0.6,0.2-1.1
	C16.6,9.7,15.9,7.7,13.8,7.7"/>
</svg>
