<?xml version="1.0" encoding="UTF-8" standalone="no"?>
<!-- Created with Inkscape (http://www.inkscape.org/) -->

<svg
   xmlns:dc="http://purl.org/dc/elements/1.1/"
   xmlns:cc="http://creativecommons.org/ns#"
   xmlns:rdf="http://www.w3.org/1999/02/22-rdf-syntax-ns#"
   xmlns:svg="http://www.w3.org/2000/svg"
   xmlns="http://www.w3.org/2000/svg"
   xmlns:sodipodi="http://sodipodi.sourceforge.net/DTD/sodipodi-0.dtd"
   xmlns:inkscape="http://www.inkscape.org/namespaces/inkscape"
   width="822.62573"
   height="822.63"
   id="svg3400"
   version="1.1"
   inkscape:version="0.91 r13725"
   sodipodi:docname="network_mvg_logo.svg"
   inkscape:export-filename="J:\privat\Transportr\res\drawable-xhdpi\network_mvg_logo.png"
   inkscape:export-xdpi="10.5"
   inkscape:export-ydpi="10.5">
  <defs
     id="defs3402" />
  <sodipodi:namedview
     id="base"
     pagecolor="#ffffff"
     bordercolor="#666666"
     borderopacity="1.0"
     inkscape:pageopacity="0.0"
     inkscape:pageshadow="2"
     inkscape:zoom="0.35"
     inkscape:cx="594.17"
     inkscape:cy="81.162879"
     inkscape:document-units="px"
     inkscape:current-layer="layer1"
     showgrid="false"
     fit-margin-top="0"
     fit-margin-left="0"
     fit-margin-right="0"
     fit-margin-bottom="0"
     inkscape:window-width="1280"
     inkscape:window-height="744"
     inkscape:window-x="0"
     inkscape:window-y="0"
     inkscape:window-maximized="1" />
  <metadata
     id="metadata3405">
    <rdf:RDF>
      <cc:Work
         rdf:about="">
        <dc:format>image/svg+xml</dc:format>
        <dc:type
           rdf:resource="http://purl.org/dc/dcmitype/StillImage" />
        <dc:title></dc:title>
      </cc:Work>
    </rdf:RDF>
  </metadata>
  <g
     inkscape:label="Ebene 1"
     inkscape:groupmode="layer"
     id="layer1"
     transform="translate(38.455716,209.10494)">
    <rect
       style="fill:#ffffff;fill-rule:evenodd;stroke:none;stroke-width:1px;stroke-linecap:butt;stroke-linejoin:miter;stroke-opacity:1"
       id="rect3334"
       width="822.62573"
       height="822.62573"
       x="-38.455715"
       y="-209.10069" />
    <path
       inkscape:connector-curvature="0"
       d="m 391.99822,326.53239 -39.01928,0 L 246.4491,108.81765 -29.922753,93.434282 l -8.532963,-18.90873 324.356756,0 86.98815,186.563418 83.55894,-186.555408 327.72187,0 -8.25254,18.90072 L 496.95767,108.81765 391.99822,326.53239 Z M 32.50809,115.97252 l 124.53319,102.63592 23.03499,-93.15753 43.14555,3.05264 97.2918,198.02884 -47.9208,0 -62.23054,-126.23978 -24.31694,92.07588 -116.184505,-99.00641 58.216445,133.17031 -50.596869,0 -98.333385,-213.58046 53.361064,3.02059 z m 666.63674,65.08287 c 0,0 -3.8859,-27.89839 -65.37933,-28.67557 -23.86826,-0.31215 -47.90477,6.10528 -72.72648,22.99494 -14.37384,9.79087 -42.93723,32.68165 -50.57283,62.04626 -4.8073,18.42799 3.97404,38.85903 16.51309,46.81512 16.0644,10.18347 52.45569,12.30669 84.44028,4.2785 16.03235,-4.0141 39.16349,-16.20863 39.16349,-16.20863 l 13.77292,-32.12881 -36.71177,0 13.14798,-32.12079 84.54444,-0.12051 -31.03114,74.58531 c -1.06562,2.57191 -45.24474,30.4783 -77.36554,38.73885 -3.0286,0.76116 -72.52618,20.18266 -119.63775,-1.8428 -38.33023,-17.91521 -49.1707,-52.74413 -35.18144,-86.27506 17.74696,-42.53662 41.71136,-68.7845 85.50589,-92.46047 34.39626,-18.58824 78.17476,-24.70954 100.19221,-24.70954 85.37771,0 96.63481,40.02882 96.63481,40.02882 l -45.30883,25.05406"
       style="fill:#ed1c24;fill-opacity:1;fill-rule:nonzero;stroke:none"
       id="path3147" />
  </g>
</svg>
