<?xml version="1.0" encoding="UTF-8" standalone="no"?>
<svg
   xmlns:dc="http://purl.org/dc/elements/1.1/"
   xmlns:cc="http://creativecommons.org/ns#"
   xmlns:rdf="http://www.w3.org/1999/02/22-rdf-syntax-ns#"
   xmlns:svg="http://www.w3.org/2000/svg"
   xmlns="http://www.w3.org/2000/svg"
   xmlns:sodipodi="http://sodipodi.sourceforge.net/DTD/sodipodi-0.dtd"
   xmlns:inkscape="http://www.inkscape.org/namespaces/inkscape"
   width="24"
   height="24"
   viewBox="0 0 24 24"
   id="svg2"
   version="1.1"
   inkscape:version="0.91 r13725"
   sodipodi:docname="product_tram.svg">
  <metadata
     id="metadata12">
    <rdf:RDF>
      <cc:Work
         rdf:about="">
        <dc:format>image/svg+xml</dc:format>
        <dc:type
           rdf:resource="http://purl.org/dc/dcmitype/StillImage" />
      </cc:Work>
    </rdf:RDF>
  </metadata>
  <defs
     id="defs10" />
  <sodipodi:namedview
     pagecolor="#ffffff"
     bordercolor="#666666"
     borderopacity="1"
     objecttolerance="10"
     gridtolerance="10"
     guidetolerance="10"
     inkscape:pageopacity="0"
     inkscape:pageshadow="2"
     inkscape:window-width="1920"
     inkscape:window-height="1012"
     id="namedview8"
     showgrid="false"
     inkscape:zoom="22.627417"
     inkscape:cx="10.510232"
     inkscape:cy="9.6618082"
     inkscape:window-x="1440"
     inkscape:window-y="0"
     inkscape:window-maximized="1"
     inkscape:current-layer="svg2" />
  <path
     d="M0 0h24v24h-24z"
     fill="none"
     id="path4" />
  <path
     style="fill:#000000"
     d="m 12.000171,2.4355271 c -1.561837,0 -2.347625,0.077969 -3.0698893,0.3088544 C 8.0347621,3.0306563 7.5536346,3.6218871 7.7632676,4.1767203 7.8158794,4.3159723 7.9858317,4.500303 8.1322348,4.5767802 8.3739487,4.7030546 8.7453679,4.6200059 8.9385731,4.3964423 9.0795624,4.2332761 9.2373857,4.1301359 9.2660832,4.180866 9.2755432,4.197581 9.3525542,4.4188079 9.4360569,4.6742041 9.5193349,4.9289346 9.5848294,5.1020526 9.645415,5.2276549 9.2693436,5.3404999 8.8986471,5.4723503 8.5364403,5.6463703 7.0078782,6.3807425 5.8369269,7.6033734 5.6613987,8.6478559 5.6289771,8.8395951 5.6195303,10.129364 5.6282331,13.077534 l 0.012437,4.158136 0.089133,0.263252 c 0.049152,0.144355 0.1586595,0.376881 0.2425233,0.518212 0.1671906,0.281721 0.6234426,0.739632 0.8415767,0.84365 0.076102,0.03632 0.1388809,0.07641 0.1388809,0.08913 0,0.01273 -0.3326296,0.300032 -0.7379343,0.638438 -0.4052972,0.338414 -0.7794562,0.679415 -0.8332853,0.758662 -0.1183985,0.174312 -0.1589242,0.522285 -0.082914,0.715134 0.072089,0.182904 0.2323708,0.348309 0.4228612,0.439443 0.2138687,0.102313 0.5356328,0.07754 0.7400071,-0.05804 0.2162109,-0.143424 2.472903,-2.040377 2.5620415,-2.15369 l 0.074623,-0.09535 2.9019888,0 2.901989,0 0.07462,0.09535 c 0.09196,0.116905 2.348066,2.013181 2.572406,2.161981 0.205321,0.13617 0.575681,0.146199 0.785609,0.0228 0.246546,-0.144913 0.380511,-0.353864 0.40006,-0.623927 0.02954,-0.408307 -0.04211,-0.504611 -0.922418,-1.239564 -0.420726,-0.351258 -0.764882,-0.648599 -0.764882,-0.661239 0,-0.0126 0.06279,-0.05284 0.138882,-0.08913 0.218127,-0.104021 0.674386,-0.561929 0.841577,-0.84365 0.08387,-0.141331 0.193342,-0.373857 0.242523,-0.518212 l 0.08913,-0.263252 0.01244,-4.158136 c 0.0087,-2.94817 -9.76e-4,-4.2379389 -0.03317,-4.4296781 C 18.163408,7.6033714 16.992458,6.3807405 15.463896,5.6463683 15.101076,5.4720541 14.729588,5.340587 14.352849,5.2276529 14.413689,5.1034938 14.479491,4.9335575 14.56428,4.6742021 14.64778,4.4188059 14.724808,4.197537 14.734253,4.180864 14.761433,4.132851 14.905535,4.22582 15.038962,4.3777847 15.480076,4.880179 16.28161,4.5838711 16.278532,3.919687 16.27733,3.6568606 16.169973,3.4399009 15.92822,3.2149183 15.31799,2.6470301 14.249882,2.4355271 12.000171,2.4355271 Z m 0.01866,1.4323387 c 0.766964,3.608e-4 1.852473,0.056758 1.909094,0.099497 0.0053,0.00404 -0.06139,0.2214422 -0.149245,0.4829738 -0.09141,0.2720867 -0.13602,0.4509026 -0.151318,0.5949077 -0.516631,-0.09966 -1.052236,-0.1554637 -1.627187,-0.1554637 -0.573473,0 -1.107619,0.056322 -1.623041,0.1554637 -0.01454,-0.092748 -0.0744,-0.3142319 -0.155463,-0.5555236 -0.08834,-0.2629591 -0.15961,-0.4896613 -0.15961,-0.5037023 0,-0.056369 1.045465,-0.1185866 1.95677,-0.1181524 z m -0.01866,1.8199615 c 1.008974,0 1.086666,0.00411 1.372227,0.093278 0.626899,0.1957416 1.011812,0.4760362 1.009477,0.7358615 -0.0022,0.2419699 -0.257274,0.5912093 -0.497484,0.6819673 -0.18071,0.068287 -3.64581,0.055066 -3.801606,-0.01451 C 9.851194,7.081054 9.618468,6.7424001 9.618468,6.5086753 c 0,-0.2519216 0.391777,-0.5346984 1.009477,-0.7275701 0.285561,-0.089133 0.363245,-0.093278 1.372226,-0.093278 z m 0.13059,2.3879222 c 1.519377,-0.00835 3.013921,0.075701 3.764294,0.2549605 0.414125,0.098925 0.68289,0.2170946 0.787682,0.3503114 0.08064,0.10261 0.08291,0.1514755 0.08291,1.7971596 0,1.435632 -0.0112,1.71583 -0.06426,1.842763 -0.08337,0.199528 -0.204591,0.326423 -0.400061,0.416644 -0.153703,0.07061 -0.362565,0.07462 -4.301162,0.07462 -3.938605,0 -4.1474602,-0.0037 -4.3011617,-0.07462 -0.1954719,-0.09022 -0.3187607,-0.217116 -0.4021257,-0.416644 -0.053076,-0.126942 -0.062186,-0.405455 -0.062186,-1.842763 l 0,-1.69559 0.1202253,-0.099497 C 7.4700461,8.5862241 7.8105493,8.4641656 8.2234401,8.3721669 9.0672752,8.1841313 10.611383,8.0841041 12.130761,8.0757495 Z m 2.640809,7.0580515 c 0.323507,-0.0023 0.647731,0.116247 0.895471,0.35653 0.212348,0.205964 0.30583,0.380129 0.368967,0.686113 0.0542,0.262626 0.0075,0.58924 -0.120225,0.837431 -0.103005,0.2001 -0.39183,0.466572 -0.605271,0.559669 -0.490145,0.213795 -1.050772,0.11036 -1.428193,-0.263252 -0.493444,-0.488469 -0.493444,-1.31201 0,-1.805452 0.243784,-0.243786 0.565746,-0.368734 0.889251,-0.371039 z m -5.557308,0.0083 c 0.3640945,-5.98e-4 0.659264,0.118249 0.903762,0.362747 0.620026,0.620028 0.43274,1.694158 -0.358603,2.056267 C 9.2478998,17.795173 8.6830713,17.690184 8.3001356,17.289564 8.0959311,17.075927 8.0264624,16.942231 7.964334,16.640762 7.878214,16.222906 8.013806,15.800216 8.3333012,15.490331 8.5879301,15.243374 8.8441012,15.14269 9.214262,15.142093 Z"
     id="path4848"
     inkscape:connector-curvature="0" />
</svg>
