<?xml version="1.0" encoding="UTF-8" standalone="no"?>
<svg
   xmlns:dc="http://purl.org/dc/elements/1.1/"
   xmlns:cc="http://creativecommons.org/ns#"
   xmlns:rdf="http://www.w3.org/1999/02/22-rdf-syntax-ns#"
   xmlns:svg="http://www.w3.org/2000/svg"
   xmlns="http://www.w3.org/2000/svg"
   xmlns:sodipodi="http://sodipodi.sourceforge.net/DTD/sodipodi-0.dtd"
   xmlns:inkscape="http://www.inkscape.org/namespaces/inkscape"
   width="24"
   height="24"
   viewBox="0 0 24 24"
   version="1.1"
   id="svg8"
   sodipodi:docname="product_tram_marker.svg"
   inkscape:version="0.92.0 r">
  <metadata
     id="metadata14">
    <rdf:RDF>
      <cc:Work
         rdf:about="">
        <dc:format>image/svg+xml</dc:format>
        <dc:type
           rdf:resource="http://purl.org/dc/dcmitype/StillImage" />
      </cc:Work>
    </rdf:RDF>
  </metadata>
  <defs
     id="defs12" />
  <sodipodi:namedview
     pagecolor="#ffffff"
     bordercolor="#666666"
     borderopacity="1"
     objecttolerance="10"
     gridtolerance="10"
     guidetolerance="10"
     inkscape:pageopacity="0"
     inkscape:pageshadow="2"
     inkscape:window-width="1920"
     inkscape:window-height="1021"
     id="namedview10"
     showgrid="false"
     inkscape:zoom="9.8333333"
     inkscape:cx="-8.440678"
     inkscape:cy="12"
     inkscape:window-x="1440"
     inkscape:window-y="23"
     inkscape:window-maximized="0"
     inkscape:current-layer="svg8" />
  <rect
     style="fill:#f24236;fill-opacity:1;fill-rule:nonzero;stroke:none"
     id="rect5145"
     width="24"
     height="24"
     x="0"
     y="0"
     ry="6.2033896" />
  <g
     id="g6">
    <path
       d="M19 16.94V8.5c0-2.79-2.61-3.4-6.01-3.49l.76-1.51H17V2H7v1.5h4.75l-.76 1.52C7.86 5.11 5 5.73 5 8.5v8.44c0 1.45 1.19 2.66 2.59 2.97L6 21.5v.5h2.23l2-2H14l2 2h2v-.5L16.5 20h-.08c1.69 0 2.58-1.37 2.58-3.06zm-7 1.56c-.83 0-1.5-.67-1.5-1.5s.67-1.5 1.5-1.5 1.5.67 1.5 1.5-.67 1.5-1.5 1.5zm5-4.5H7V9h10v5z"
       id="path2"
       style="fill:#ffffff;fill-opacity:1" />
    <path
       fill="none"
       d="M0 0h24v24H0V0z"
       id="path4" />
  </g>
</svg>
