<?xml version="1.0" encoding="UTF-8" standalone="no"?>
<svg
   xmlns:dc="http://purl.org/dc/elements/1.1/"
   xmlns:cc="http://creativecommons.org/ns#"
   xmlns:rdf="http://www.w3.org/1999/02/22-rdf-syntax-ns#"
   xmlns:svg="http://www.w3.org/2000/svg"
   xmlns="http://www.w3.org/2000/svg"
   xmlns:sodipodi="http://sodipodi.sourceforge.net/DTD/sodipodi-0.dtd"
   xmlns:inkscape="http://www.inkscape.org/namespaces/inkscape"
   width="24"
   height="24"
   viewBox="0 0 24 24"
   id="svg2"
   version="1.1"
   inkscape:version="0.92.0 r"
   sodipodi:docname="product_cablecar_marker.svg">
  <metadata
     id="metadata12">
    <rdf:RDF>
      <cc:Work
         rdf:about="">
        <dc:format>image/svg+xml</dc:format>
        <dc:type
           rdf:resource="http://purl.org/dc/dcmitype/StillImage" />
      </cc:Work>
    </rdf:RDF>
  </metadata>
  <defs
     id="defs10" />
  <sodipodi:namedview
     pagecolor="#ffffff"
     bordercolor="#666666"
     borderopacity="1"
     objecttolerance="10"
     gridtolerance="10"
     guidetolerance="10"
     inkscape:pageopacity="0"
     inkscape:pageshadow="2"
     inkscape:window-width="1920"
     inkscape:window-height="1021"
     id="namedview8"
     showgrid="false"
     inkscape:zoom="16"
     inkscape:cx="0.69193498"
     inkscape:cy="12.552945"
     inkscape:window-x="1440"
     inkscape:window-y="23"
     inkscape:window-maximized="0"
     inkscape:current-layer="svg2" />
  <path
     inkscape:connector-curvature="0"
     style="fill:#f24236;fill-opacity:1;fill-rule:nonzero;stroke:none"
     d="M 6.2033896,0 H 17.79661 C 21.233288,0 24,2.7667118 24,6.2033896 V 17.79661 C 24,21.233288 21.233288,24 17.79661,24 H 6.2033896 C 2.7667118,24 0,21.233288 0,17.79661 V 6.2033896 C 0,2.7667118 2.7667118,0 6.2033896,0 Z"
     id="rect5145" />
  <path
     d="M0 0h24v24h-24z"
     id="path6"
     fill="none" />
  <path
     style="color:#000000;display:inline;overflow:visible;visibility:visible;fill:#ffffff;fill-opacity:1;fill-rule:nonzero;stroke:none;stroke-width:1px;marker:none;enable-background:accumulate"
     d="m 22.693918,2.5815841 -9.077859,2.1547934 0,-0.9229343 -2.95339,0.6922011 0,0.8998608 -9.3331574,2.1868378 -0.02542,0.712924 10.0969284,-2.322928 0,3.622517 -5.5376064,0 -1.476695,1.4766961 0,9.598516 0.738347,0.738348 14.0286024,0 0.738347,-0.738348 0,-9.598516 -1.476695,-1.4766961 -5.537606,0 0,-3.9686176 9.818194,-2.3710602 z m -17.5688554,9.2383149 3.691738,0 0,4.614671 -3.691738,0 z m 4.430085,0 5.1684314,0 0,4.614671 -5.1684314,0 z m 5.9067794,0 3.691738,0 0,4.614671 -3.691738,0 z"
     id="rect3128"
     inkscape:connector-curvature="0"
     sodipodi:nodetypes="cccccccccccccccccccccccccccccccccccc" />
</svg>
