<?xml version="1.0" encoding="UTF-8" standalone="no"?>
<svg
   xmlns:dc="http://purl.org/dc/elements/1.1/"
   xmlns:cc="http://creativecommons.org/ns#"
   xmlns:rdf="http://www.w3.org/1999/02/22-rdf-syntax-ns#"
   xmlns:svg="http://www.w3.org/2000/svg"
   xmlns="http://www.w3.org/2000/svg"
   xmlns:sodipodi="http://sodipodi.sourceforge.net/DTD/sodipodi-0.dtd"
   xmlns:inkscape="http://www.inkscape.org/namespaces/inkscape"
   width="24"
   height="24"
   viewBox="0 0 24 24"
   id="svg2"
   version="1.1"
   inkscape:version="0.92.0 r"
   sodipodi:docname="product_subway_marker.svg">
  <metadata
     id="metadata12">
    <rdf:RDF>
      <cc:Work
         rdf:about="">
        <dc:format>image/svg+xml</dc:format>
        <dc:type
           rdf:resource="http://purl.org/dc/dcmitype/StillImage" />
      </cc:Work>
    </rdf:RDF>
  </metadata>
  <defs
     id="defs10" />
  <sodipodi:namedview
     pagecolor="#ffffff"
     bordercolor="#666666"
     borderopacity="1"
     objecttolerance="10"
     gridtolerance="10"
     guidetolerance="10"
     inkscape:pageopacity="0"
     inkscape:pageshadow="2"
     inkscape:window-width="1920"
     inkscape:window-height="1021"
     id="namedview8"
     showgrid="false"
     inkscape:zoom="13.906433"
     inkscape:cx="13.530171"
     inkscape:cy="19.582178"
     inkscape:window-x="1440"
     inkscape:window-y="23"
     inkscape:window-maximized="0"
     inkscape:current-layer="svg2" />
  <path
     inkscape:connector-curvature="0"
     style="fill:#f24236;fill-opacity:1;fill-rule:nonzero;stroke:none"
     d="M 6.2033896,0 H 17.79661 C 21.233288,0 24,2.7667118 24,6.2033896 V 17.79661 C 24,21.233288 21.233288,24 17.79661,24 H 6.2033896 C 2.7667118,24 0,21.233288 0,17.79661 V 6.2033896 C 0,2.7667118 2.7667118,0 6.2033896,0 Z"
     id="rect5145" />
  <path
     d="M0 0h24v24h-24z"
     fill="none"
     id="path4" />
  <path
     d="m 12,4.0494112 c -4.42,0 -8,0.4460681 -8,3.568545 l 0,8.4752948 c 0,1.721823 1.57,3.122476 3.5,3.122476 L 6,20.553932 6,21 l 12,0 0,-0.446068 -1.5,-1.338205 c 1.93,0 3.5,-1.400653 3.5,-3.122476 L 20,7.6179562 C 20,4.4954793 16.42,4.0494112 12,4.0494112 Z M 7.5,17.431455 c -0.83,0 -1.5,-0.597731 -1.5,-1.338204 0,-0.740473 0.67,-1.338205 1.5,-1.338205 0.83,0 1.5,0.597732 1.5,1.338205 0,0.740473 -0.67,1.338204 -1.5,1.338204 z m 3.5,-5.352818 -5,0 0,-4.4606808 5,0 0,4.4606808 z m 5.5,5.352818 c -0.83,0 -1.5,-0.597731 -1.5,-1.338204 0,-0.740473 0.67,-1.338205 1.5,-1.338205 0.83,0 1.5,0.597732 1.5,1.338205 0,0.740473 -0.67,1.338204 -1.5,1.338204 z m 1.5,-5.352818 -5,0 0,-4.4606808 5,0 0,4.4606808 z"
     id="path6"
     inkscape:connector-curvature="0"
     style="fill:#ffffff;fill-opacity:1" />
  <rect
     style="opacity:1;fill:#ffffff;fill-opacity:1;fill-rule:nonzero;stroke:none;stroke-width:1.778;stroke-linecap:square;stroke-linejoin:round;stroke-miterlimit:10;stroke-dasharray:none;stroke-dashoffset:0;stroke-opacity:1"
     id="rect4140"
     width="16"
     height="1"
     x="4"
     y="2" />
</svg>
