<?xml version="1.0" encoding="UTF-8" standalone="no"?>
<svg
   xmlns:dc="http://purl.org/dc/elements/1.1/"
   xmlns:cc="http://creativecommons.org/ns#"
   xmlns:rdf="http://www.w3.org/1999/02/22-rdf-syntax-ns#"
   xmlns:svg="http://www.w3.org/2000/svg"
   xmlns="http://www.w3.org/2000/svg"
   xmlns:sodipodi="http://sodipodi.sourceforge.net/DTD/sodipodi-0.dtd"
   xmlns:inkscape="http://www.inkscape.org/namespaces/inkscape"
   version="1.1"
   id="svg2985"
   viewBox="82.992 45.607 770.02841 568.03143"
   width="779.59918"
   height="522.56384"
   inkscape:version="0.91 r13725"
   sodipodi:docname="North_America_2.svg">
  <metadata
     id="metadata3030">
    <rdf:RDF>
      <cc:Work
         rdf:about="">
        <dc:format>image/svg+xml</dc:format>
        <dc:type
           rdf:resource="http://purl.org/dc/dcmitype/StillImage" />
        <dc:title>World Map</dc:title>
      </cc:Work>
    </rdf:RDF>
  </metadata>
  <defs
     id="defs3028" />
  <sodipodi:namedview
     pagecolor="#ffffff"
     bordercolor="#666666"
     borderopacity="1"
     objecttolerance="10"
     gridtolerance="10"
     guidetolerance="10"
     inkscape:pageopacity="0"
     inkscape:pageshadow="2"
     inkscape:window-width="1366"
     inkscape:window-height="701"
     id="namedview3026"
     showgrid="false"
     inkscape:zoom="0.69605824"
     inkscape:cx="320.0219"
     inkscape:cy="346.83206"
     inkscape:window-x="0"
     inkscape:window-y="0"
     inkscape:window-maximized="1"
     inkscape:current-layer="svg2985"
     fit-margin-top="10"
     fit-margin-left="10"
     fit-margin-right="10"
     fit-margin-bottom="10" />
  <title
     id="title3">World Map</title>
  <style
     id="style_css_sheet"
     type="text/css"> 
/*
 * Below are Cascading Style Sheet (CSS) definitions in use in this file,
 * which allow easily changing how countries are displayed.
 *
 */

/*
 * Circles around small countries
 *
 * Change opacity to 1 to display all circles.
 *
 */
.circlexx
{
   opacity:0;
   fill:#e0e0e0;
   stroke:#000000;
   stroke-width:0.5;
}

/*
 * Smaller circles around French DOMs and Chinese SARs
 *
 * Change opacity to 1 to display all subnational circles.
 *
 */
.subxx
{
   opacity:0;
   stroke-width:0.3;
}


/*
 * Circles around small countries, but with no permanent residents 
 *
 * Change opacity to 1 to display all circles.
 *
 */
.noxx
{
   opacity:0;
   fill:#e0e0e0;
   stroke:#000000;
   stroke-width:0.5;
}

/*
 * land
 */
.landxx
{
   fill: #e0e0e0;
   stroke:#ffffff;
   stroke-width:0.5;
   fill-rule:evenodd;
}

/*
 * Styles for coastlines of islands with no borders
 */
.coastxx
{
   fill: #e0e0e0;
   stroke:#ffffff;
   stroke-width:0.3;
   fill-rule:evenodd;
}


/*
 * Styles for territories with limited or no recognition
 */
.limitxx
{
   fill: #e0e0e0;
   stroke:#ffffff;
   stroke-width:0;
   fill-rule:evenodd;
}

/*
 * Circles around small territories with limited or no recognition
 *
 * Change opacity to 1 to display all circles.
 *
 */
.unxx
{
   opacity:0;
   fill:#e0e0e0;
   stroke:#000000;
   stroke-width:0.3;
}


/*
 * Styles for territories without permanent population.
 */
.antxx
{
   fill: #e0e0e0;
   stroke:#ffffff;
   stroke-width:0;
   fill-rule:evenodd;
}

/*
 * Oceans and seas
 */
.oceanxx
{
   opacity: 1;
   color: #000000;
   fill:#ffffff;
   stroke:#000;
   stroke-width:0.5;
   stroke-miterlimit:1;
}

/*

 Reserved class names:

 .eu - for members of European Union
 .eaeu - for members of Euroasian Economical Union

*/



/*
 * Additional style rules
 *
 * The following are examples of colouring countries.  You can substitute these with your own styles to colour the countries on the map.
 *
 * Color a few countries:
 *
 * .gb, .au, .nc
 * {
 *    fill:       #ff0000;
 * }
 *
 * Color a few small country circles (and the countries):
 *
 * .ms, .ky
 * {
 *    opacity:    1;
 *    fill:       #ff0000;
 * }
 *
 */ 
  </style>
  <path
     style="fill:#e0e0e0;fill-rule:evenodd;stroke:none;stroke-width:0.30000001"
     d="m 836.21889,57.610801 c -42.64608,0.733827 -85.41095,5.471991 -127.38615,12.173527 -18.9721,4.696335 6.74516,29.850179 -13.85456,23.389495 24.56414,-12.76128 -70.56963,-21.861339 -40.00292,-1.503114 20.82832,-2.142919 34.59945,1.37039 5.00448,3.314875 -19.1723,4.038666 -24.64588,-12.410088 -36.82999,6.199346 -17.5871,-8.667113 -31.3596,3.42168 -45.44053,-10.698056 -15.72175,-1.993292 -68.66078,13.855436 -28.1909,15.851986 28.45651,17.12787 63.02717,-3.83941 93.25912,1.93137 -2.79945,5.12586 -55.61141,16.90902 -19.19936,27.25902 18.9231,6.33901 -49.28495,21.73049 -26.19977,-9.72939 24.83583,-21.57784 -25.5166,1.59805 -37.07818,-6.07721 -23.33448,-17.17168 -69.84117,-10.63412 -78.77104,13.87794 9.0444,6.05843 45.07204,-8.77486 20.96811,12.53053 -33.29472,-3.24116 -64.46603,-9.88399 -97.9147,-1.11749 -20.77711,0.724 -58.50746,-5.03705 -88.60236,-12.11707 -33.04874,0.91747 -65.16368,11.07952 -96.23048,20.93124 12.57973,30.88109 -38.21693,-0.0851 -40.20085,28.13203 14.59215,6.69131 29.49973,5.13477 5.38504,8.71269 -20.42472,5.1711 -47.28629,19.21163 -57.61721,30.05554 10.00181,1.59621 34.39849,-2.91378 14.35542,10.81749 15.45507,-0.0484 33.66969,1.13324 8.82202,9.00307 -29.98712,12.31949 -62.508894,18.02019 -92.068301,30.80164 12.941881,4.86622 58.247141,-11.53665 80.322111,-17.31996 10.15377,-2.93932 49.25051,-21.07792 24.32607,-1.18892 34.0629,-9.20937 61.57385,-36.52957 99.12843,-32.55271 40.2417,-8.67306 35.62413,39.0055 19.05647,57.50002 8.25295,18.97929 18.56277,-30.19711 19.45921,1.10297 -1.69247,13.49382 -11.97968,25.7747 1.12504,39.31282 -10.70526,30.46944 -46.95651,52.1556 -40.77068,88.54521 -1.64554,17.32735 12.98463,48.71155 19.73992,40.94862 -2.09069,17.26409 14.3052,39.97351 2.89269,42.76169 14.22054,10.54898 15.74946,50.69384 34.40264,37.47725 -5.5187,-15.30893 -22.58512,-64.62961 -0.97283,-28.48285 26.16019,21.55575 14.28342,63.21889 43.66826,80.44373 23.13597,12.97299 58.57048,19.37026 76.80836,22.74712 15.0369,-12.5911 8.03362,-28.08292 34.37047,-26.05776 16.96574,-14.4341 13.00903,-46.75818 -15.52231,-29.50182 -9.11773,45.15115 -68.90133,16.71122 -48.73,-19.95052 0.79068,-36.92167 36.24989,-62.14436 69.90866,-43.53417 4.38006,-23.58985 57.62938,-11.00415 44.27734,17.56022 11.79806,34.37888 29.8136,-5.30246 17.31058,-22.82392 3.52279,-40.17927 62.20649,-36.06743 65.642,-77.96803 12.69057,-24.73648 48.49939,-15.55793 50.53988,-44.40424 10.37342,-4.53345 32.55024,-13.26091 30.64863,7.31179 3.75738,-21.50998 68.11474,-18.70412 43.91028,-36.80619 -27.4979,10.09011 -15.95461,-11.55774 -22.51937,-22.84251 -23.28785,3.57302 13.3209,-8.67044 15.78493,6.78662 10.77065,-5.93932 -1.56589,-11.80588 17.52379,-9.49115 14.19626,-6.14609 31.38182,-12.5887 11.24698,4.4318 -25.76181,12.53809 6.67759,37.1157 21.53862,22.0392 17.12985,11.28087 20.61153,-26.29679 3.18564,-29.87054 14.47302,-22.39 3.77926,-38.91626 -13.94416,-49.00917 6.16362,-19.6751 -8.70888,-48.95409 -27.39542,-20.75512 -22.40717,3.76331 2.52968,-24.15671 -19.20847,-27.20606 -14.39089,-5.22989 -36.47992,0.24397 -12.59744,-13.11045 20.95608,0.0205 22.23535,20.50911 49.77564,19.99752 11.34522,1.98039 -5.98689,-14.1922 14.05281,-6.47946 4.45235,-6.65477 10.66877,-9.03293 6.02623,-20.91646 18.52694,7.05835 43.94923,-19.98852 13.33139,-24.32323 -8.62709,-0.43642 5.62212,-21.98235 -15.82923,-23.77809 -21.84087,-20.48673 -50.44228,-16.79252 -79.30254,-17.10632 40.90155,6.42464 73.58651,-17.612033 110.00557,-30.252329 26.4684,-9.532774 56.77619,-11.572764 82.43829,-21.641592 -13.88352,-6.915303 -32.36416,-4.221172 -47.86137,-5.332468 z m -4.53486,1.953219 0.41612,0.137999 -0.41612,-0.137999 z m 0.78766,0.02548 c 2.08232,0.05449 -1.10052,1.442021 0,0 z m -15.11197,0.286614 0.10827,0.273875 -0.10827,-0.273875 z m 4.67498,0.286614 c 5.58721,0.803418 -4.05004,2.411933 0,0 z m -14.9039,6.855374 c 4.15201,3.909105 -7.43577,0.712436 0,0 z m -73.09709,1.021193 c 10.57863,2.2379 3.25862,6.820077 0,0 z m 56.24209,0.575351 c 3.59014,-0.309073 -1.54323,2.853815 0,0 z m 70.59186,0 c 1.37531,0.981037 -1.77544,0.0471 0,0 z M 687.84859,73.45098 c -23.51388,6.044051 17.20089,7.941705 0,0 z m -65.46467,8.551702 c -21.18404,-7.073471 -29.78521,23.327508 -4.26948,9.178005 5.88608,-0.03384 17.55433,-8.575748 4.26948,-9.178005 z m 23.71037,2.965921 0.0403,0.02123 -0.0403,-0.02123 z m 28.99044,2.199493 -0.21892,0.279027 0.21892,-0.279027 z m 69.31167,1.250485 -0.0403,0.760056 0.0403,-0.760056 z m -26.02452,0.564735 c 9.82823,7.447416 -12.63805,0.64391 0,0 z m 43.95166,0.972363 c 2.00266,1.701383 -3.18038,0.393457 0,0 z m -30.65492,2.912844 c 2.21337,0.633849 -2.19547,0.867436 0,0 z m -14.20542,1.184669 c 3.74903,-0.292097 -2.20929,1.945256 0,0 z m -41.91777,0.288737 -0.1293,1.012423 0.1293,-1.012423 z m -7.40099,2.137925 c 14.61515,3.549456 -9.04517,12.762126 0,0 z m -12.72989,2.290786 c 7.24899,-0.02153 -3.80247,4.73729 0,0 z m 82.03306,1.91713 -0.62755,0.0738 0.62755,-0.0738 z m -29.46813,0.002 c 18.77626,-3.348962 21.7212,6.4555 0,0 z m 1.48402,0.40975 0.0149,0.21443 -0.0149,-0.21443 z m -24.07766,0.65603 c -9.40296,5.44373 7.25108,18.08825 -12.04839,10.5771 7.46132,-0.0953 2.95269,-14.771513 12.04839,-10.5771 z m -87.29189,0.0955 c 3.50396,2.31296 -4.67681,0.21153 0,0 z m 152.08567,0.49042 -1.04918,0.22357 1.04918,-0.22357 z m -153.38923,1.63901 c 3.35531,-0.3373 0.97833,3.06615 0,0 z m -5.44566,0.61993 -0.58499,0.18066 0.58499,-0.18066 z m 45.0132,0.21868 c -1.16772,2.58654 -4.38355,-2.19458 0,0 z m 19.98864,4.85969 c 2.05835,13.90203 -17.26521,7.0064 0,0 z m 8.3033,2.22922 0.5172,0.30834 -0.5172,-0.30834 z m 21.37076,5.96156 c -19.92512,3.22289 -23.49978,24.4176 -9.4815,31.38778 -27.07281,14.18193 -30.31259,-34.49561 0.76393,-27.24035 l 4.85405,-1.69113 3.86352,-2.4563 z m -66.71303,4.16758 0.25265,0.051 -0.25265,-0.051 z m 26.65719,1.26959 c -1.60432,5.72419 -8.78499,7.3555 0,0 z m 51.96623,1.02119 -0.55145,0.95904 0.55145,-0.95904 z m -116.501,1.79399 c 4.60621,2.25277 -5.34293,2.43037 0,0 z m -22.24333,0.67514 0.63055,1.4182 -0.63055,-1.4182 z m 46.85176,9.62172 c -14.01623,8.57364 20.78883,5.71938 0,0 z m -273.6077,1.08276 -0.26751,0.21019 0.26751,-0.21019 z m -57.64967,2.1719 c 7.16023,2.14071 -7.25478,3.7883 0,0 z m 7.60056,0.82799 c 1.46874,1.37165 -1.71931,0.6888 0,0 z m 164.03639,0.0786 -0.20129,0.52788 0.20129,-0.52788 z m 142.78666,0.68999 c 4.62119,1.52007 -4.28372,3.10146 0,0 z m -154.43378,0.45646 c 4.9834,1.235 -3.74991,3.3348 0,0 z m 293.74921,0.76218 0.0348,0.87818 -0.0348,-0.87818 z m -296.51344,0.0807 c 2.80765,4.14706 -6.37786,0.71904 0,0 z m -174.87039,0.81738 c 6.15482,2.70146 -6.55363,3.36322 0,0 z m 471.55155,0.21018 0.0191,0.23778 -0.0191,-0.23778 z m -25.14556,2.55192 c 7.93302,8.28901 5.03098,16.04388 18.9321,3.3604 -22.42608,32.05817 11.5417,7.00199 13.04386,14.88985 -23.71989,13.70359 -48.67377,14.39809 -60.11724,43.62962 -10.5818,9.7739 -4.76057,9.42919 -14.4159,23.28084 12.54761,24.70155 -51.3641,34.14409 -32.32516,47.0335 -25.1694,29.01863 -7.9762,-18.40901 -6.40442,-22.78098 -25.92282,4.52439 -78.93685,-30.07884 -34.66379,-47.55956 9.91131,-7.01052 63.08175,-26.46011 51.50657,-20.34559 -14.98883,9.92341 33.90804,22.21358 19.75747,7.06207 -18.10842,-3.45379 39.36018,1.47773 12.4129,-15.29346 2.91525,-13.71398 29.8552,-14.49544 32.27361,-33.27669 z m -22.55543,0.78554 0.49042,1.32691 -0.49042,-1.32691 z m -53.31437,0.79827 c 3.10648,1.13688 -4.26232,1.89452 0,0 z m -175.42239,0.48193 c 5.66514,2.01448 -6.24584,2.57579 0,0 z m 175.6538,0.3312 -0.0446,0.008 0.0446,-0.008 z m 8.97843,0.42249 c 7.08475,1.4092 -5.18438,2.30176 0,0 z m 98.01761,0.22292 -0.19107,0.0722 0.19107,-0.0722 z m -74.42188,0.41825 c 1.9041,-0.80241 -0.056,1.62423 0,0 z m 76.59377,0.14012 0.18762,1.68573 -0.18762,-1.68573 z m -112.07441,0.0446 -1.13612,0.65906 1.13612,-0.65906 z m -106.67757,0.91504 c -0.53703,6.43288 -7.52355,-4.26243 0,0 z m 72.64274,0.0807 c 20.1684,13.01577 -46.48578,0.80111 -4.86445,3.75234 l 2.69123,-1.16247 2.17322,-2.58987 z m 33.08582,2.29503 c -2.05464,4.65025 -11.66138,-0.43695 0,0 z m 156.77764,0.84711 0.11348,0.0842 -0.11348,-0.0842 z m -158.83913,0.69849 -0.0191,0.006 0.0191,-0.006 z m -105.36341,0.34393 c 22.36168,1.18333 -16.20402,7.67358 0,0 z m 145.17085,1.83858 c -0.0582,8.69438 -10.25076,0.89517 0,0 z m -46.14479,2.42666 c 1.42854,1.47338 -2.81493,0.26811 0,0 z m -60.38629,1.09125 0.12526,0.0616 -0.12526,-0.0616 z m 107.95566,3.01051 c 6.73995,0.22395 -3.26372,4.06811 0,0 z m -191.14579,0.16134 0.2951,1.10188 -0.2951,-1.10188 z m 204.79922,1.04455 c 5.80714,4.16266 -4.67236,4.09564 0,0 z m -452.28688,3.15063 -0.12526,0.97024 0.12526,-0.97024 z m 521.60277,0.81526 c 2.65318,1.16515 -0.56182,3.68168 0,0 z m -288.09124,0.91504 c 12.70713,5.1218 -9.2551,4.7339 0,0 z m -281.81971,0.21231 c -14.20023,3.038 7.64488,7.22831 0,0 z m 483.8547,1.30143 0.12219,0.3589 -0.12219,-0.3589 z m -469.10579,0.77492 c 4.76868,3.30492 -7.19067,1.77715 0,0 z m 276.36133,0.53714 c -0.84573,3.26021 -5.16058,-3.62367 0,0 z m 300.20756,0.50529 c 10.87678,6.74167 -6.67941,7.10762 0,0 z m -550.78215,0.81313 c 4.18992,-1.93703 -1.15946,3.76072 0,0 z m 246.87833,0.42886 c 2.18158,0.42605 -1.8388,1.40185 0,0 z m 324.51878,0.70698 0.0106,0.0934 -0.0106,-0.0934 z m -596.95456,0.26326 c 5.05072,3.02528 -6.98988,2.23132 0,0 z m 252.31339,2.76847 c -0.65791,1.84796 -4.23956,-0.8412 0,0 z m 290.94252,11.27347 0.0403,0.14861 -0.0403,-0.14861 z m -587.10778,1.15071 c -21.84636,7.84838 1.61046,14.19992 5.57018,1.88354 l -5.57018,-1.88354 z m -0.2484,2.22072 0.0191,0.13375 -0.0191,-0.13375 z m 610.46997,1.45217 0.13588,0.39065 -0.13588,-0.39065 z m -84.20919,4.2334 c -22.50352,6.72623 11.74111,13.65616 0.0734,0.0162 l -0.0734,-0.0162 z m -177.80022,1.4734 -0.0352,0.42666 0.0352,-0.42666 z m -1.08064,0.78341 c 1.58607,1.22939 -2.25377,0.59812 0,0 z m -0.97024,1.22926 c 1.49499,1.12599 -2.41249,0.34805 0,0 z m -30.93092,0.24839 c 20.3639,5.21773 -24.75324,14.61444 0,0 z m 21.2264,0.71335 c -3.14936,1.8739 -2.11102,1.25608 0,0 z m -8.51561,1.05941 c 2.11415,-0.20986 -1.94232,1.04118 0,0 z m 0.53501,1.52012 c 2.23198,-0.45952 -1.0215,2.14822 0,0 z m -2.45426,0.12313 c 3.40692,0.95568 -4.4047,1.7365 0,0 z m -221.37609,3.75358 c 1.26015,1.0296 -2.01417,0.57873 0,0 z m -99.83071,1.88528 0.10616,0.006 -0.10616,-0.006 z M 734.22904,212.69 c -24.5042,10.02438 11.89712,8.57418 0,0 z m -586.76385,0.17409 c 2.82693,2.17198 1.60951,1.23661 0,0 z m 512.48209,4.84271 c -16.09097,4.02474 2.02898,12.16716 0,0 z m -444.0239,3.60709 c -7.52201,7.33643 -20.99196,6.87946 0,0 z m -14.5536,5.37134 c 1.6197,-0.30185 -1.0332,2.25109 0,0 z m -3.79816,2.82368 c 1.16854,1.21835 -2.45154,0.33827 0,0 z m -29.28554,2.71115 c 5.81146,0.18269 -2.84315,7.15009 0,0 z m 481.96729,0.27601 c -19.76534,8.54715 -5.85961,37.15376 -1.29615,8.38013 l 1.19071,-2.48546 0.10544,-5.89467 z m -351.64091,3.87033 -0.0658,0.53502 0.0658,-0.53502 z m -167.04052,11.62166 c 1.87612,2.4825 -3.82478,1.33333 0,0 z m 2.21011,0.24627 c 1.70766,1.53943 -2.98091,0.25392 0,0 z m 31.66974,1.11249 c -13.77546,-0.43805 -10.14912,15.25829 0,0 z m -33.59961,0.36092 c 4.06375,3.19549 -5.10179,1.6669 0,0 z m -18.80185,3.85761 c 6.8409,3.98995 -8.60624,3.09393 0,0 z m 208.20249,0.81314 -0.22259,0.29779 0.22259,-0.29779 z m 446.44207,6.04011 0.37366,1.66872 -0.37366,-1.66872 z m -651.65316,0.17409 -0.0212,0.0573 0.0212,-0.0573 z m 186.90603,1.1316 -3.8441,6.05781 3.8441,-6.05781 z m -4.97221,2.01266 c 3.07206,-0.33253 -2.72697,1.80098 0,0 z m -212.149263,0.81101 -0.202874,0.36685 0.202874,-0.36685 z m 550.124013,2.83853 c -1.77393,5.33253 -1.30592,3.92568 0,0 z m -127.67892,3.15063 c 3.88705,12.70192 -6.55013,9.85081 -3.06497,1.95224 l 1.22152,-1.37487 1.84345,-0.57737 z m -192.70838,0.1189 -0.11676,0.28449 0.11676,-0.28449 z m 446.29984,1.6666 c 1.07207,1.80245 -2.81722,-0.42329 0,0 z m -446.36778,0.276 c 4.92882,-0.31257 -2.83629,2.0895 0,0 z m 457.56057,23.94179 c 2.65591,4.14475 -6.34331,2.03423 0,0 z m -472.55788,1.18892 0.24203,0.0849 -0.24203,-0.0849 z m 471.8785,8.52834 c 6.00577,2.09978 -1.47558,3.60781 0,0 z m -17.86134,0.35243 0.12484,0.72642 -0.12484,-0.72642 z m 31.66338,0.33332 -0.10596,0.23498 0.10596,-0.23498 z m -30.88209,0.47982 c 2.23254,1.562 -1.88766,1.03198 0,0 z m -0.61993,0.16983 0.0594,0.0297 -0.0594,-0.0297 z m 17.20955,0.60933 0.138,0.42248 -0.138,-0.42248 z m -92.56134,3.55825 c 4.12239,0.42713 -6.22018,1.67959 0,0 z m -122.61753,1.15495 c 20.18868,16.63758 -7.41202,13.89363 -13.39536,9.35312 -29.7988,6.09897 1.64036,-2.61846 9.91365,-8.36861 l 3.48171,-0.98451 0,0 z m 173.73667,5.39683 c -23.08523,2.03982 -7.55582,17.36618 0,0 z m -428.59136,3.71961 c 6.1258,1.47491 -4.61459,3.66642 0,0 z m 403.5392,0.32483 c 2.28425,5.06583 -5.64956,2.83807 0,0 z m -397.79419,1.80248 c 3.89332,1.32347 -2.4991,2.22578 0,0 z m 413.36262,8.08674 c -1.87729,4.03891 -3.80882,0.35906 0,0 z m -134.93768,4.59219 c 8.8596,3.50081 -7.50934,5.52581 0,0 z m -31.86294,0.0807 c -9.13958,10.49437 -32.72955,46.98714 -15.14765,13.20236 4.031,-5.34772 8.62323,-10.82335 15.14765,-13.20236 z m 14.75317,0.0382 c 23.52882,0.34804 -8.57021,31.46392 2.84032,3.88057 1.19792,-1.61585 -5.41076,-2.7199 -2.84032,-3.88057 z m 8.23112,2.18463 c 2.56388,-0.83469 -0.0954,3.15705 0,0 z m 11.7278,1.67934 c 4.35268,4.71673 -6.73111,5.18603 0,0 z m 99.33603,2.18251 c -5.80066,8.85298 -6.83257,-0.30879 0,0 z m 44.19794,6.10381 c -12.8952,-1.85929 -12.06318,11.69363 0,0 z m -127.74262,4.42871 c 17.1422,2.46987 -23.84656,1.22359 0,0 z m -329.04939,7.08042 c 2.78214,4.92652 -5.57661,0.7464 0,0 z m 300.45809,4.33317 c 2.32606,8.9989 -25.1495,4.52414 0,0 z m -14.29246,5.56667 c 1.38794,3.00441 -5.74424,-2.54947 0,0 z m 51.28472,21.48966 -0.0828,0.0998 0.0828,-0.0998 z m -0.31209,0.39064 -0.0509,0.0679 0.0509,-0.0679 z m -18.01631,2.29291 -0.18472,0.48193 0.18472,-0.48193 z m 6.94666,3.1294 c 4.01794,-0.58652 0.21261,3.15312 0,0 z m -328.33605,39.5633 c 11.98001,2.74305 -5.54938,4.58804 0,0 z m 388.83275,5.36497 c -29.07027,25.55247 32.15982,13.71166 0,0 z m -100.67993,0.50317 0.98854,0.62432 -0.98854,-0.62432 z m -262.63783,16.30726 c 22.25032,14.86126 -9.06998,30.52453 0,0 z m 202.66765,5.94458 c 4.25241,2.00094 -3.93915,1.3761 0,0 z m -19.20523,0.0446 c 8.03805,3.42654 -4.75061,5.60036 0,0 z m 11.76815,0.15923 c 4.73856,0.97911 -2.78064,1.80949 0,0 z m 8.49649,1.31629 c 3.26984,1.62611 -2.14656,1.35784 0,0 z m -14.10775,0.85773 0.26746,0.48863 -0.26746,-0.48863 z m -2.2823,0.70485 0.051,0.0616 -0.051,-0.0616 z m 13.27552,1.38636 0.28024,0.017 -0.28024,-0.017 z m -229.40552,3.65167 c -13.42375,4.1582 -3.56946,17.42404 0,0 z m 162.82411,9.06336 -0.0679,0.017 0.0679,-0.017 z m -22.27942,12.21611 -0.67938,0.39277 0.67938,-0.39277 z m 147.71427,1.81522 c -27.22445,-1.31504 25.99784,21.49311 -0.95537,24.38127 5.54127,-23.55378 -24.23923,12.39922 4.07687,12.30313 21.21009,9.23838 19.40978,4.87638 17.52704,-7.05223 -2.70725,-3.82439 -12.2612,-16.91479 -20.64854,-29.63217 z M 317.86653,509.609 c -3.45854,0.42945 1.60715,1.83565 0,0 z m 87.3301,7.50927 0.0633,0.51599 -0.0633,-0.51599 z m -92.24287,0.34394 0.008,0.42812 -0.008,-0.42812 z m 256.016,2.1995 c 4.63437,4.41082 -2.67747,2.61802 0,0 z m -257.36202,1.66872 c 4.85581,3.9348 -2.25359,2.47084 0,0 z m 218.51632,7.77467 c -16.76143,-7.68958 -48.05005,20.05791 -18.00416,17.16687 13.21785,-25.269 38.19029,32.02029 63.26809,12.96403 1.22933,-13.29143 -33.03267,-24.53746 -45.26393,-30.1309 z m -127.24794,1.70057 c 5.87728,2.15027 -4.25081,5.04301 0,0 z m 193.2264,1.43307 c -12.99139,3.88404 -22.72556,29.82859 -0.91262,15.93781 14.70975,-1.03979 11.07079,-10.95197 0.91262,-15.93781 z m -50.30175,7.1717 c 8.11636,0.44138 -3.69548,6.28422 0,0 z m -35.42544,1.96596 -0.26933,0.11205 0.26933,-0.11205 z m -176.61979,0.43735 c -4.07458,8.05065 10.02518,1.73212 0,0 z m 255.71453,1.52649 0.0763,0.37133 -0.0763,-0.37133 z m -120.74076,1.93835 c 5.6382,0.79106 -4.07902,2.45249 0,0 z m 79.12658,8.98056 c 10.79886,-4.68497 -1.26753,8.29244 0,0 z m -145.55299,0.32483 c 1.53646,2.00554 -1.99822,0.45744 0,0 z m 120.46263,1.29083 c -29.0694,25.55232 32.16222,13.71058 0,0 z m 64.32671,0.32483 c -8.1879,13.00215 -23.79583,19.99769 1.47147,23.35391 19.94775,-0.53515 46.17321,-8.69935 13.15896,-22.193 -4.65448,-4.8564 -9.85645,0.82617 -14.63043,-1.16091 z m 64.02523,0.15285 c -38.71552,5.57372 -23.7647,33.48057 3.79053,41.85893 16.84917,14.79936 36.01022,-4.68381 14.09764,-12.48897 29.03235,-9.07682 -9.02756,-23.54452 -17.88817,-29.36996 z m -100.20012,10.29687 c -33.00758,15.53439 35.53908,20.37278 0,0 z m 36.17701,2.45 -6e-5,0.23998 6e-5,-0.23998 z M 410.15823,569.473 c 5.09185,1.20903 -3.61828,1.98196 0,0 z m 176.91914,0.11253 c 3.87229,3.12429 -4.04145,2.42364 0,0 z m -168.14451,1.27383 c 4.20998,1.99045 -3.8377,1.83741 0,0 z m -6.5815,0.21869 c 1.63141,0.91866 -2.34503,-0.31986 0,0 z m 7.95512,3.65803 c 7.81525,1.59982 -7.26554,4.80934 0,0 z m -10.90618,18.03967 c 2.73881,-0.47252 -1.35982,1.85799 0,0 z m 18.74877,4.45207 c 2.89343,0.27235 -1.23879,2.52493 0,0 z"
     id="path2614"
     inkscape:connector-curvature="0" />
</svg>
