<?xml version="1.0" encoding="UTF-8" standalone="no"?>
<svg
   xmlns:svg="http://www.w3.org/2000/svg"
   xmlns="http://www.w3.org/2000/svg"
   version="1.1"
   width="63.999989"
   height="58.455002">
  <path
     style="fill:#e0e0e0;fill-rule:evenodd;stroke:none;stroke-width:0.15194049"
     d="M 19.584395,0 C 17.501605,1.58135 16.250152,4.38252 13.080334,3.405138 10.871697,3.665854 6.6684892,2.13173 7.1068572,5.828244 c -4.370767,1.117216 2.444497,3.058319 1.716548,5.860724 -1.584874,2.177024 -6.065696,-0.992223 -7.193397,2.49318 -0.298561,2.625567 -3.332564,5.90237 -0.278047,7.950667 2.485639,2.264172 6.533606,0.704619 8.8620058,3.392487 2.481801,0.797077 4.719165,1.584215 7.19698,1.955998 2.167153,0.189465 1.233944,-3.46103 2.036018,-1.177939 1.420978,-0.639805 2.070255,3.524214 0.291999,2.198539 0.189156,2.637605 3.629484,4.150978 4.668625,6.668308 3.076582,1.976037 2.664484,5.30715 1.904767,8.291307 0.440698,1.764004 5.197312,3.072864 3.240819,0.526003 -2.069819,-2.760364 2.391701,0.627012 2.19866,2.026769 1.610894,1.05826 5.467873,2.446221 3.502391,5.09736 0.607139,1.929356 2.779351,0.622759 1.008596,-0.54301 2.153584,-0.405722 1.593856,5.352864 3.485221,2.097564 3.140661,-1.0731 4.167424,2.850003 6.372715,3.222481 1.070111,-3.677107 0.695411,4.876616 3.329116,1.940538 3.760304,-0.614594 0.0675,-3.110946 0.438875,-4.766464 3.031162,-0.390989 3.093823,-5.490228 6.415166,-3.668391 1.573095,0.722745 3.061099,3.835606 3.868491,1.949538 0.04659,1.518083 2.481421,2.431484 0.11514,1.466322 -3.540735,0.377198 0.79391,8.137923 1.324303,3.644683 0.318898,-1.035768 1.209437,0.943312 1.841479,-0.816047 1.669907,-2.865527 -0.841102,-5.720134 -2.771288,-7.635795 -2.08861,-1.539238 -4.17334,-1.273955 -6.141582,-1.991757 -2.947863,1.021192 -5.599666,4.497185 -9.09416,3.901705 -1.200345,-0.887328 -1.574747,-1.719551 -2.301478,-0.604141 -2.258601,-1.035231 -2.39283,-4.259707 -4.755348,-5.447279 -1.63415,-2.849841 -3.909449,-6.085829 -1.983066,-9.335284 -0.159487,-1.481121 0.47686,-1.662948 0.248878,-3.689004 0.702715,-2.069217 0.749128,-1.038888 0.600682,0.581679 0.944614,-2.912117 0.04026,-6.884513 2.479962,-9.464213 -0.557333,-1.551893 -0.02446,-3.633975 0.366035,-4.187294 -0.40327,-0.321431 -2.058621,-2.37219 -1.216501,-0.645652 -0.768662,-1.179159 -2.163111,-0.859109 -2.011596,-0.595814 -2.107734,-1.956157 1.723517,-0.465473 0.869966,-0.893435 -1.854941,-3.13849 -5.686611,-1.96054 -8.552675,-2.6877 -2.863526,1.940126 -6.421507,0.529093 -9.695596,0.984026 -1.284303,0.173666 -4.469031,2.768425 -1.756316,0.785831 0.764301,-1.090196 -1.260169,-1.865666 -1.111288,-0.642151 -1.413765,-0.935721 -3.102741,-0.272006 -0.865351,-1.4164 3.354871,-2.192992 3.208193,-6.018581 4.075211,-9.483894 C 21.033512,1.902011 19.65485,0.596516 19.584395,0 Z m 1.627946,4.965572 c -0.869226,0.734297 0.158297,0.834705 0,0 z m -6.192446,2.615043 c -0.13938,1.187563 -0.983409,5.548353 -0.84522,4.564203 0.269872,-1.523599 0.622485,-3.032256 0.84522,-4.564203 z m 12.356941,3.055902 c -1.5648,0.23919 -1.706829,1.06875 -0.105832,0.04271 z m 11.040816,7.869861 -0.224917,0.141835 z m -25.684846,2.108594 c 0.0041,1.004883 -1.10124,0.25221 0,0 z m -1.640851,1.637628 -0.09017,0.100728 z m 3.745146,0.14086 c 1.518903,1.3894 1.458021,1.641767 0,0 z m 11.893501,0.769889 c -0.725708,0.701823 -0.789969,0.387281 0,0 z m -8.982762,0.205375 c 1.376439,0.411231 -1.530856,-0.158169 0,0 z m -8.6182448,0.188172 c -0.246934,0.330262 -0.43164,0.577297 0,0 z m 9.5741578,0.170967 0.04366,0.0074 z m 0.22903,0.02258 0.535221,0.383541 z M 8.8532522,23.938612 c -0.06251,0.309433 -0.03937,0.194904 0,0 z m 19.3225068,0.09892 c 0.190047,-0.06605 0.03429,0.244438 0,0 z M 8.8091672,24.252585 c 0.03897,0.327069 0.02909,0.244136 0,0 z m 16.7945578,0.01721 c -0.320326,0.459663 -1.333277,-0.0464 0,0 z m -1.908595,2.316121 c -0.297829,0.559835 -1.252582,0.389352 0,0 z m -1.062363,1.127955 -0.149859,0.451922 z m -0.179568,0.452687 -0.02259,0.01828 z m 4.559121,4.868796 c 1.941263,0.398322 5.479597,4.123822 3.192554,5.209574 -2.851144,0.229369 -4.46814,-2.86925 -3.192554,-5.209574 z m 0.899994,4.733316 0.163043,0.05899 4e-4,1.46e-4 -0.163043,-0.059 z m -0.437629,0.08817 -0.06129,0.108602 z m 2.495689,0.797845 c 0.323613,0.113525 0.268762,0.09428 0,0 z m 3.365578,0.38172 c 0.541151,0.701469 0.585143,0.842606 0,0 z m 5.847288,7.193521 0.01616,0.125634 z m 17.646171,5.625784 c -1.150174,0.57986 0.535114,1.352149 0,0 z m -15.732202,0.988165 c -0.592771,0.375987 0.553251,0.209318 0,0 z m 2.654831,3.23225 c -1.816074,1.390352 1.293672,2.030118 0,0 z m 3.003216,0.344085 c -0.500411,0.04533 -1.215018,0.860682 -0.337749,0.274799 z"
     id="path2808" />
</svg>
