<?xml version="1.0" encoding="UTF-8" standalone="no"?>
<svg
   xmlns:svg="http://www.w3.org/2000/svg"
   xmlns="http://www.w3.org/2000/svg"
   height="610.44"
   width="378.41562"
   version="1.1">
  <path
     id="pe"
     d="m 88.4849,10 c -18.24175,7.87894 -34.06561,18.50036 -45.80446,32.93615 -10.883617,19.307865 6.31851,49.468955 -19.399157,63.81594 -10.52775,12.21945 -14.5126598,31.41079 -9.83423,42.81633 -13.91620976,23.45902 18.43218,39.2645 23.823757,60.76558 11.22393,22.28784 18.87562,47.39798 45.81479,55.48706 22.73645,9.83528 23.94026,36.32421 22.37125,57.50238 3.95557,21.80669 -0.72078,44.66917 3.81838,66.07027 11.17285,20.8485 -3.65439,43.2221 4.41943,63.5951 6.54277,22.9505 5.78874,43.2996 13.16434,61.7851 -6.17313,11.5655 13.95871,9.3944 2.95983,22.1407 11.1813,19.2793 22.12261,40.1853 42.46204,50.531 15.63868,4.8906 44.98575,22.5804 52.01091,6.1542 11.91513,0.5837 21.72115,-7.5489 3.16949,-6.209 -22.26669,-2.057 -48.72586,-28.6577 -30.80998,-50.2018 11.79483,-9.4744 -28.80345,-21.8938 -4.8528,-29.7659 -4.48037,-12.4913 15.65669,-25.4722 -6.62898,-28.3688 -0.11836,-10.3351 22.61943,4.1412 16.80524,-14.4278 5.50412,-11.7227 40.39225,-7.9904 26.67406,-33.9509 -16.55123,-20.0606 14.8362,2.7872 20.6571,-16.0977 13.00703,-22.2687 33.0682,-45.2539 27.16794,-73.09192 9.2071,-17.21567 35.48076,-18.11317 46.80312,-23.17073 7.367,-18.37532 17.84761,-39.87294 14.48915,-61.55553 -3.85354,-28.78823 25.6248,-44.8669 30.645,-70.1816 0.3626,-24.72793 -26.2339,-34.97029 -44.62773,-43.44039 -14.52901,-3.11953 -30.16204,-2.01392 -35.42281,-16.80128 -10.56807,-1.13461 -22.29419,-5.93114 -31.86475,-6.83183 -9.99687,-8.75375 -6.96852,-35.981495 -20.67078,-38.652825 -1.47136,16.2775 -22.66172,23.707495 -16.94662,2.00971 9.39734,-28.95446 -28.55241,-7.37708 -34.61907,-31.338785 -14.53757,-7.36849 -12.82418,-17.38328 -12.8111,-31.0189 -16.33868,2.80917 -26.58292,0.5376 -38.78885,8.62466 C 117.23436,31.98596 100.35156,3.07439 91.3187,21.62745 77.97206,27.23737 105.47899,10.18798 88.4849,10 Z m 47.19147,12.2798 c -11.46415,4.09534 7.63082,7.40597 0,0 z m -62.34589,1.03605 c 5.11193,3.07255 -5.75577,1.75483 0,0 z m 21.35377,2.33112 0.17622,0.15287 z m -7.49017,6.2779 c 7.44946,9.27322 -6.34241,6.88559 0,0 z m -62.492367,79.72529 c -3.19984,0.54314 -5.77851,0.98084 0,0 z M 272.1469,127.13791 c 2.30319,-1.90297 1.46555,2.898 0,0 z m 7.60057,7.9445 c 4.57972,3.7083 -5.96751,2.45804 0,0 z m 9.87224,5.09536 0.23779,0.88107 z m 46.8815,89.55507 -0.44833,0.32457 z m 0.0255,0.47556 0.0106,0.19958 z m -1.49251,8.8914 -0.83013,0.71123 z m -230.92776,14.0844 c 3.34802,2.40737 -7.56603,1.74837 0,0 z m 193.53211,69.87427 c 3.28893,-0.53061 -0.1279,1.63208 0,0 z m -45.48452,80.56814 c 1.67655,2.3923 -2.69345,0.455 0,0 z m -138.53626,24.5087 c 2.20544,0.2854 -1.50973,2.5135 0,0 z m 61.41598,43.9622 c 2.69558,0.077 -1.5877,1.8031 0,0 z m 8.04853,10.057 c 5.64822,0.8467 -3.45492,2.4737 0,0 z m -52.55219,11.2564 c 6.2183,4.3896 -5.77906,5.2069 0,0 z m 10.86371,36.0646 c 0.88979,1.3015 -1.76857,0.7247 0,0 z m 0.76006,0.8725 0.12235,0.045 z m 52.18279,0.1593 c 1.41492,1.902 -1.82569,0.6391 0,0 z m -3.48395,5.6898 c 4.80513,1.0521 -1.50988,4.0619 0,0 z m -6.52418,14.7638 0.2003,1.3352 z m 62.05291,4.125 c -24.88089,17.4315 30.77942,22.5104 17.96359,5.8882 -5.10045,-2.5435 -14.61466,-1.4938 -17.96359,-5.8882 z m -89.6039,15.7532 c 3.39232,0.228 -2.275,1.444 0,0 z m -2.87888,0.5562 c 2.08406,-0.1161 -1.164,0.9868 0,0 z m 50.50556,8.2439 c 9.39751,1.9632 -5.95026,6.237 0,0 z"
     style="fill:#e0e0e0;fill-rule:evenodd;stroke:none;stroke-width:0.5" />
</svg>
