<?xml version="1.0" encoding="UTF-8" standalone="no"?>
<svg
   xmlns:svg="http://www.w3.org/2000/svg"
   xmlns="http://www.w3.org/2000/svg"
   version="1.1"
   width="63.999729"
   height="52.387039">
  <path
     style="fill:#e0e0e0;fill-rule:evenodd;stroke:none;stroke-width:0.02062405"
     d="m 8.3201494,1e-5 c -1.23926,0.51007 -6.0791,0.51348 -2.29258,0.93559 C 6.9702094,1.13525 11.805739,0.915 9.7202294,0.094 9.2003494,0.1118 8.8087694,0.21898 8.3201494,0 Z M 20.230129,0.20318 c -2.77227,0.97097 1.94705,1.30749 2.96429,1.42855 1.54983,0.2587 2.38629,0.0787 0.32587,0.52861 -1.98064,-0.186 -4.77778,1.36405 -6.28794,1.90158 -0.58137,-1.7844 -0.99581,1.52154 -1.40331,-0.0572 -2.57166,-1.9283 -0.57006,3.46338 -3.42324,1.44094 -2.13976,0.16102 -3.5579496,-2.06471 -0.84024,-2.44652 1.93278,-0.13715 2.08652,-1.40887 0.0369,-0.84066 -2.6941496,-0.64653 -5.0083496,3.69105 -1.21146,3.09481 2.16203,0.95818 -2.8671196,0.57181 -3.2532496,1.4167 -1.0023,-1.72997 -1.20332,0.3192 -1.32728,0.36795 -0.84967,1.07426 -4.52482,0.74331 -1.66294,0.38831 2.87423,-0.80583 -2.29848,-2.11862 -3.34744001,-1.99695 -2.58661999,0.66421 2.15986001,4.19047 -0.47843,4.98618 -1.05487,2.51798 2.23447001,2.68879 2.54538001,4.74184 1.24555,1.03414 5.06004,1.13789 2.82726,3.18714 -1.36998,1.33672 4.13062,2.67118 0.95675,3.06268 -2.00284,-0.90078 -4.32802,-0.36776 -6.08093001,-0.12126 -0.45697,2.34887 1.37086001,3.55481 3.45421001,3.18348 0.43591,0.24912 -1.21112,1.09781 0.41054,1.01063 1.22131,-0.63201 1.21683,-1.21669 0.88782,0.44373 -1.2734,2.86277 1.71816,5.11315 2.77716,7.54328 1.53457,1.50687 1.18984,4.08471 2.8444596,4.96725 2.59345,-1.02767 5.55916,-2.21598 7.13764,-4.60695 1.74967,-1.42973 -2.59765,-3.37804 -1.13648,-3.34773 1.89372,1.24679 5.55941,-0.51328 6.60627,2.74838 3.01896,0.57637 1.9763,4.9399 3.88966,6.94405 0.88285,1.44915 2.23783,-0.37224 2.20718,2.02268 2.37958,0.43581 -1.677,-4.03025 0.20934,-5.60507 1.55385,-1.50239 4.33268,-5.67518 5.97646,-2.23824 0.7398,0.894 0.73365,3.47074 1.93159,1.8274 1.77262,1.71254 0.30203,4.84477 2.46667,6.56632 0.66616,1.20053 0.83844,2.4345 -0.60014,0.80007 -1.38317,-2.16221 -2.9284,-0.65407 -0.9541,0.90865 -0.28986,1.77088 1.3351,-0.01 0.60345,1.81538 0.28415,1.20638 1.90226,2.5172 0.65705,0.50627 -0.59506,-1.67421 1.52658,2.08446 2.16699,2.54079 1.24458,1.20449 4.07864,1.82347 6.53239,2.02564 1.33677,0.18612 2.33195,1.17111 2.04364,-0.17992 1.44133,0.20879 3.00224,-0.49074 1.10877,1.22507 1.14484,-0.41665 3.99978,-2.81329 0.90991,-1.83416 -1.91189,0.29516 -3.64511,0.35667 -5.44274,-0.26077 2.48673,-0.82995 -3.84671,0.12276 -4.00708,-1.56763 0.42205,-1.1531 2.24683,-1.17253 0.13147,-1.71037 -1.16959,-1.31516 -0.66452,-4.37901 -2.84871,-5.70758 -1.24255,-0.95602 -0.89163,-4.70462 0.81202,-2.06839 1.14997,3.68883 5.53545,-1.21188 2.46633,-3.09341 -2.01261,-0.55552 -0.5681,-4.28803 0.48529,-2.25843 -1.807,1.42934 2.10331,1.37488 0.55667,-0.17894 2.4022,-0.6573 5.10577,-2.81196 4.74467,-5.79101 -0.42536,-1.29745 -3.51265,-2.79354 -1.2322,-4.23164 -1.40808,0.0153 -4.24625,-0.80129 -1.56546,-1.70595 6.9e-4,2.05531 2.37025,-0.73622 2.25234,1.52449 1.19012,0.22958 1.68061,3.63562 2.94804,1.26421 -0.85594,-1.4443 -2.86255,-3.39751 -0.48309,-4.22425 3.05394,-0.38645 -0.30677,-7.07927 2.1374,-3.26237 1.32042,2.11199 1.45201,3.79603 2.22031,6.01724 -0.64139,0.20626 -0.82958,1.33921 -2.41875,1.01773 0.17295,1.85053 -2.15134,0.6173 -1.28135,1.82686 0.34271,0.84207 2.146,2.91344 1.93719,0.33224 2.17244,-0.57046 4.42036,-1.48513 2.9263,-4.20993 -1.18963,-1.2214 -1.36999,-1.3927 0.2292,-1.75314 0.27476,-1.1135 2.20361,-2.72311 0.0523,-1.38018 -1.98552,1.15501 -2.11565,-1.06009 -2.98626,-1.88966 1.42926,-0.37969 -1.94314,-2.2939 -2.77391,-3.51797 -0.16557,0.81495 -2.09226,-0.3296 -3.34317,-0.45551 0.31969,-3.63189 4.50136,-0.96704 5.90655,-2.42253 -1.02164,-2.11806 2.1442,0.39078 2.28207,-0.8617 -1.85769,2.54236 1.46772,4.31224 2.41661,5.77188 -0.11912,1.48838 0.44832,2.59516 0.60939,0.34244 0.36657,-2.06611 0.59843,-3.52599 -1.38914,-4.59096 1.09568,-0.18088 -1.07121,-0.85909 0.75742,-0.86348 1.63463,0.66155 2.61159,-1.72592 3.11186,-1.74981 -2.92521,-0.92198 0.93225,-1.28176 1.95507,-0.4197 1.01459,-2.05795 -4.08293,-1.69885 -5.59617,-2.5813 -2.72775,-1.01489 -5.58205,-0.2862 -8.36969,-0.43742 -2.77164,-1.31113 -6.35687,-0.43254 -9.20372,-1.94165 -2.17539,-0.80603 0.6244,1.6981 -2.00203,1.05635 -1.55284,0.66999 -3.77337,-2.15869 -5.58847,-0.7349 -3.17342,-0.23732 -5.32986,-1.96262 -8.62577,-2.67423 -1.53676,-4.8e-4 -2.77597,-0.56582 -4.25127,-0.9583 z m -1.38583,0.009 c -1.662,-0.0616 1.22163,0.69259 0,0 z m -3.56988,0.10114 c -1.17443,0.63827 1.60181,0.13384 0,0 z m 4.29658,0.0752 c 0.24768,-0.0218 -0.14232,0.13028 0,0 z m -5.21186,0.44837 c 0.9158,0.99578 1.82221,-0.193 0,0 z m 6.91164,0.0471 c 0.36228,-0.0334 -0.23105,0.24946 0,0 z m 4.04045,0.86288 0.029,0.015 z m -7.82416,0.0263 c -0.80774,0.16594 -0.0477,0.23583 0.35149,0.14899 z m 8.04454,0.0223 0.20371,0.0239 z m -5.50055,0.0671 c -0.96388,0.84803 1.75873,0.0227 0,0 z m 20.74807,0.23688 c -0.9671,0.46257 1.03704,0.36806 0,0 z m 1.67745,0.25382 c -0.97683,0.29845 1.0898,0.42138 0,0 z m -4.86712,0.009 c -2.24692,0.47154 2.35883,1.63665 2.96987,0.54149 1.12379,0.97955 3.2832,-0.25554 0.84618,-0.20845 -1.27744,-0.043 -2.54386,-0.224 -3.81605,-0.33304 z m -19.35524,0.0855 c -1.93201,0.22379 1.64898,1.1078 0,0 z m 4.04555,0.18375 c 0.46918,-0.19566 -0.0288,0.41769 0,0 z m -4.75533,0.44779 c -1.27368,0.31859 1.27758,0.37587 0,0 z m 19.81777,0.13282 c 0.59953,0.94093 1.81821,0.18509 0,0 z m -8.36856,0.13135 c 0.12747,0.12905 -0.26257,-0.0423 0,0 z m -0.73327,0.17471 c 0.44526,0.0981 -0.27455,0.16999 0,0 z m 0.18944,0.15603 c 0.14126,0.0558 -0.15985,0.0636 0,0 z m -10.07446,0.34503 c 0.42328,0.007 -0.0609,0.35491 0,0 z m 25.2271,0.35803 c 0.0916,0.0913 -0.14281,-0.008 0,0 z m 12.40829,0.13778 c -1.03825,1.51341 2.76371,-0.0799 0,0 z m -16.11128,0.25556 0.0381,0.052 z m -23.35744,0.24374 c 0.8346,0.66996 0.26273,1.34083 0,0 z m -5.36206,0.13063 -0.0341,0.005 z m 42.88127,0.24068 c 0.29629,-0.005 -0.12963,0.1514 0,0 z m -0.65534,0.14639 c 0.33103,0.0846 -0.13259,0.40775 0,0 z M 7.6761994,5.55336 c -1.08229,1.36353 1.93431,0.054 0,0 z m 4.0484696,0.14815 c 1.00448,0.0335 0.18605,0.58131 0,0 z m 42.08012,0.0956 0.22981,0.11276 z m -51.4580896,0.006 c 0.13208,0.0939 -0.16415,0.02 0,0 z m 12.4149796,0.003 c 1.5265,0.49525 -0.74634,0.0881 0,0 z m -2.74598,0.0743 10e-4,10e-4 z m 45.6468,0.0117 c 0.29312,0.136 -0.26953,0.10877 0,0 z m -45.63103,0.003 6.9e-4,7.2e-4 z m 0.20929,0.0382 -8.9e-4,0.0702 z m 46.15311,0.0543 c 0.63078,0.14116 -0.42747,0.31742 0,0 z m -41.05741,0.052 c 0.89897,0.55739 -0.28545,1.52816 0,0 z m -7.27566,0.0746 c 0.20515,-0.1168 -0.008,0.15936 0,0 z m 5.22543,0.006 0.0443,0.0176 z m -5.4031996,0.0112 -0.003,0.006 z m 49.3283296,0.0969 c 0.17465,0.43857 -0.2108,0.11537 0,0 z m 0.55302,0.0814 c 0.4533,0.20562 -0.3952,0.21615 0,0 z m 0.62162,0.18828 c 0.18577,0.0578 -0.12895,0.0874 0,0 z m 0.41816,0.34372 c 0.30151,-0.0414 -0.0987,0.25457 0,0 z m 1.63817,0.0477 c 0.35029,0.21355 -0.45681,0.0746 0,0 z m -45.18936,0.13603 c 0.32916,0.19142 -0.43013,0.1506 0,0 z m 42.68203,0.28811 c 0.28634,0.006 -0.134,0.16223 0,0 z m -57.4540296,0.0201 0.0441,0.0366 z m -0.0245,0.0705 0.0337,0.0338 z m 0.11954,0.0355 0.0175,0.008 z m 60.4939496,0.3211 c 0.36753,-0.0203 -0.24271,0.24391 0,0 z M 4.6065194,7.89969 c 0.69395,0.18512 -0.37661,0.23074 0,0 z m -1.27214,0.18084 c 1.51775,0.63173 -0.76301,0.1455 0,0 z m 0.6136,0.37977 -0.0212,0.0125 z M 61.621949,8.89933 c 0.20742,-0.0605 -0.0531,0.16869 0,0 z m 0.0414,0.0814 c 0.18672,0.064 -0.1517,0.0995 0,0 z m 0.16318,0.28272 c 0.29684,0.14732 -0.30696,0.10453 0,0 z m -5.79554,0.0922 c 0.28937,0.31005 -0.28871,0.12013 0,0 z M 3.4935694,9.65252 c -0.0449,0.31028 -0.424,-0.22188 0,0 z m 51.0009696,0.0706 c 0.39289,0.036 -0.16165,0.18053 0,0 z m -50.7897696,0.17106 0.0232,0.0216 z m -2.06437,0.008 c 1.67116,0.39494 0.0306,1.10109 0,0 z m 52.4764096,1.10356 c 0.37474,0.25479 -0.41403,0.0492 0,0 z m 7.06943,2.101 c -0.30825,1.0825 3.47976,0.87533 0,0 z m -24.70256,0.33059 c 0.42609,1.22311 -0.67806,1.47539 0,0 z m 13.12008,0.65519 0.002,0.0133 z m 2.4999,0.26257 c 0.18742,0.003 -0.11519,0.15754 0,0 z m 0.18653,0.0588 0.068,0.0387 z m -0.1137,0.16916 0.0257,0.0371 z m 0.45728,0.35233 c 0.13386,0.26704 0.0769,0.15338 0,0 z m 0.14318,0.074 0.004,0.004 z m 0.0166,0.019 0.004,0.005 z m -16.84104,0.0328 c 0.12621,0.2049 -0.25221,0.16897 0,0 z m 16.81447,0.13647 0.003,0.0143 z m 0.21879,0.069 0.01,0.042 z m -0.89061,0.0941 0.0819,0.0582 z m -8.17824,2.3446 c 0.12496,0.0642 -0.14549,0.11107 0,0 z m 10.59568,0.0531 c 0.5324,0.20552 -0.34392,0.22993 0,0 z m 4.53551,0.0247 c -1.14737,0.30252 0.55072,0.88111 0,0 z m -46.98562,0.30928 c 1.93628,0.20111 -1.5754,1.94949 0.60643,2.33993 0.87384,1.15136 2.5893,4.44318 -0.33275,3.07949 0.0599,-1.18244 -0.11757,-2.39154 -1.48042,-3.29482 -0.59834,-0.92074 0.45188,-1.76751 1.20674,-2.1246 z m 4.42502,0.12713 -0.0124,0.0197 z m 0.23514,0.0193 0.19468,0.11399 z m 6.41336,0.0333 -0.0378,0.0244 z m 2.28111,0.0223 c 0.45689,0.13085 -0.32041,0.28147 0,0 z m -2.35453,0.0631 -0.065,0.0729 z m -0.21879,0.26068 -0.0141,0.16803 z m -6.90288,0.67897 c 0.50491,-0.13586 -0.0788,0.2861 0,0 z m 0.0574,0.061 0.004,-0.007 z m 41.82981,0.35 c -0.80968,0.16327 0.46025,0.58753 0,0 z m -44.96023,0.42224 c 0.50517,0.23703 -0.41818,0.27314 0,0 z m 0.86652,0.8029 c 0.62437,0.75358 -0.72478,0.31055 0,0 z m 0.17384,0.20462 c 0.18043,0.0693 -0.13007,0.085 0,0 z m 24.70898,0.11677 -0.0241,0.0158 z m -24.65716,0.0613 c 0.41452,0.0571 -0.22193,0.33022 0,0 z M 1.7057794,21.63495 c 1.10597,0.11116 -1.21040001,0.0299 0,0 z m 12.5701296,0.25906 c 0.37379,0.20308 -0.45708,0.23813 0,0 z m -0.16916,0.35555 c -0.0613,0.3146 -0.0477,0.24472 0,0 z m 0.086,0.35715 0.0896,0.0166 z m 35.9197,0.26301 c 0.37506,0.14569 -0.35893,0.21382 0,0 z m 0.0127,0.5355 -0.0146,0.0256 z m -0.0236,0.0419 -0.0159,0.0184 z m -35.0828,0.44297 c 0.072,0.1206 -0.19206,-0.0265 0,0 z M 5.0390094,24.1458 c 1.39342,0.2007 -0.65041,0.70566 0,0 z m 45.9915396,1.67336 c -1.19819,0.55172 0.98237,0.4948 0,0 z m -2.83706,1.99972 c 0.28019,0.0286 -0.13233,0.1234 0,0 z m -35.53174,0.28096 c 0.97105,1.09263 2.54679,2.25313 3.52457,2.41537 -1.66599,2.57685 -1.92533,-1.03448 -3.64815,-1.3956 -0.22356,-0.32296 -0.11312,-0.74874 0.12358,-1.01977 z m 0.41568,1.38101 0.0349,-0.0115 z m 40.46557,-0.70889 c -1.88616,1.90615 0.3506,1.68711 0,0 z m -4.45423,0.35014 -0.008,0.0379 z m 3.28426,0.90667 c -0.43342,0.59523 0.86435,0.37028 0,0 z m -2.54427,0.70349 c -1.76808,0.80763 0.83469,3.43549 0.36897,0.78232 0.23754,-0.2946 6.9e-4,-0.77251 -0.36897,-0.78232 z m 1.60141,0.10626 c -1.03465,0.66479 0.28874,1.39771 0,0 z m 0.34226,0.0699 c -0.39061,0.99685 1.17039,-0.15088 0,0 z m -17.51184,0.88112 c 0.32335,0.10985 -0.10073,0.27108 0,0 z m -0.031,0.007 -0.0273,0.054 z m 0.0721,0.0496 0.029,0.0501 z m -0.1118,0.0258 -0.006,0.009 z m 16.6691,1.56535 c -0.73104,0.28507 0.11148,0.92712 0,0 z m -6.38315,0.16114 c 0.10584,0.0916 -0.12964,0.007 0,0 z m 0.0334,0.076 c 0.0632,0.15794 -0.14568,-0.0145 0,0 z m 0.17179,0.39437 -0.0725,0.042 z m 5.77087,0.17514 c -1.58541,2.436 0.44574,4.09048 1.28027,6.05151 0.2521,1.08553 -1.64495,3.21086 0.29647,1.50834 0.7321,0.54195 2.41913,1.59801 1.98758,-0.65929 -0.0866,-2.37543 -2.00764,-3.44256 -2.80082,-4.70646 0.30379,-0.79841 -0.1119,-1.70559 -0.7635,-2.1941 z m -19.07369,0.14537 -0.0269,0.0352 z m 4.62733,0.0384 c 0.42434,0.0325 -0.22428,0.30845 0,0 z m -10.61494,0.0861 0.006,0.006 z m 25.42531,0.32081 -0.0396,0.0408 z m -6.03782,0.0919 0.006,0.0203 z m -7.26281,1.28892 -0.0581,0.0566 z m 25.66891,0.0381 c -1.49699,1.354 0.50289,2.9781 0.5075,0.71486 0.31008,-0.37037 -0.12314,-0.74069 -0.5075,-0.71486 z m -12.30392,0.48836 c 0.11489,0.18967 -0.16159,0.0163 0,0 z m -14.69872,0.89163 c -1.0444,1.1594 1.03801,2.6324 0,0 z m 14.86847,0.19792 c 0.0961,0.15916 -0.1459,0.0255 0,0 z m 0.38985,0.25571 c 0.56321,0.7722 0.18178,0.69145 0,0 z m -0.27877,0.0493 c 0.28995,0.11158 -0.1294,0.43698 0,0 z m -35.5424,0.0768 c -0.70265,1.16964 1.59198,-0.1908 0,0 z m 13.95129,0.0749 0.005,0.0478 z m 20.91738,0.0499 c -1.53591,2.30874 -2.35473,5.19693 -5.04857,6.28729 -0.91321,0.7368 -1.01526,2.66524 0.10801,2.87264 1.37237,1.35794 4.04984,1.16496 3.95953,-1.34329 1.6747,-0.98618 -0.89605,-2.5952 1.14791,-3.02122 -1.48712,-1.04054 -1.80274,-2.36009 -0.19854,-3.76748 -0.0337,-0.25696 0.41941,-0.22009 0.0317,-1.02794 z m -35.53773,0.17267 c -0.9704,-0.20576 0.4199,-0.21472 0.17526,0.18438 z m 37.19518,0.35043 c 0.83513,0.26036 -0.57418,0.45478 0,0 z m -15.86373,0.12771 0.053,0.0692 z m 2.78349,0.18989 c 0.27144,0.25284 -0.27449,0.10446 0,0 z m -3.07233,0.0584 c -0.82569,0.75004 0.8233,0.59012 0,0 z m 17.22023,0.18886 c 0.55652,-0.0196 -0.19339,0.39271 0,0 z m -0.46458,0.29352 -0.005,0.0186 z m -23.49871,0.27366 c 0.6166,0.53365 -0.46983,0.37198 0,0 z m 23.70772,0.0562 c 0.10868,0.93952 -1.08636,0.51502 0,0 z m -16.72821,0.1931 c -0.6742,0.33537 0.59116,0.51216 0,0 z m -6.65886,0.20492 0.002,2.7e-4 z m 7.05629,0.0493 c -0.60431,0.76398 1.04254,2.90435 0,0 z m 21.20549,0.1534 c -1.8622,1.49704 2.09765,1.06527 0,0 z m -5.33505,0.82201 0.0854,0.11392 z m -2.73284,0.0987 c -0.71075,0.28637 0.66003,0.4823 0,0 z m -0.56134,0.10333 -0.01,0.0303 z m 0.0939,0.81778 0.0155,0.0458 z m 0.89499,0.525 c 0.0619,0.13383 -0.20251,-0.0212 0,0 z m 3.98337,0.0714 c -0.93766,0.3702 0.85772,1.39915 0,0 z m -9.76095,0.22112 c -0.96222,0.84664 1.04156,0.57466 0,0 z m 9.11935,0.27352 c -0.79134,0.47089 0.92131,0.54073 0,0 z m -8.73564,0.30358 c -0.66693,0.55726 0.67603,0.58123 0,0 z m -1.80312,0.034 c -0.32395,0.80355 0.83013,0.20912 0,0 z m 11.86314,0.0492 c -0.68461,1.13689 -0.57889,4.31127 0.62249,2.00804 0.93201,1.57602 1.82412,-0.22549 0.10388,-0.3476 -0.37096,-0.50503 -0.38136,-1.13923 -0.72637,-1.66044 z m -16.88059,0.0707 c -0.6135,0.88283 1.27372,0.3785 0,0 z m 15.55942,0.0899 c -0.84721,0.49489 0.71311,0.47684 0,0 z m -3.77496,0.10859 c 0.26025,0.40639 -0.35782,0.0629 0,0 z m -10.86437,0.38766 c 0.90671,0.0323 -0.20238,0.75499 0,0 z m 2.32884,0.0746 c 0.504,0.0127 0.0202,0.35984 0,0 z m 12.29881,0.032 c -1.72959,0.49939 -3.95267,0.23732 -3.44953,2.98257 -0.27909,1.5014 1.76222,4.10781 0.88112,0.9544 -0.26049,-0.73149 2.96448,2.14306 1.40814,-0.1862 -0.36164,-1.20114 -0.72152,-1.44773 0.22019,-1.34132 0.8693,-1.83589 -3.32531,-0.34349 -0.71502,-1.49552 0.76896,0.3133 1.81566,0.20032 1.6551,-0.91393 z m -7.8135,0.0397 0.005,0.005 z m 0.0968,0.005 c 0.24576,0.003 -0.13585,0.15956 0,0 z m -0.0813,0.0233 0.004,0.006 z m 0.40896,0.02 0.004,10e-4 z m -4.55449,0.11662 c 0.38435,0.0811 -0.0574,0.35816 0,0 z m 3.29419,0.14303 c 0.17672,0.25063 0.1183,0.16778 0,0 z m 0.15762,0.0238 0.0295,0.0115 z m -2.66978,0.55974 c 0.12866,0.90559 -0.43293,0.83519 0,0 z m 14.25619,0.57608 c -0.0383,0.25962 -0.17367,-0.0714 0,0 z m 1.90119,0.0778 c -1.27221,1.33878 1.11056,0.64937 0.14052,0.1467 z m -2.58615,0.0728 c -0.94825,0.33454 0.46604,0.62981 0,0 z m -2.48195,0.24929 c -1.45357,0.14737 1.37056,1.92811 1.02212,1.55692 1.27445,0.0254 3.3864,0.59536 1.32503,-0.77175 -0.93371,0.0515 -1.92418,0.53241 -1.64099,-0.68514 -0.18356,-0.0391 -0.75872,0.33217 -0.70616,-0.10003 z m 2.63958,0.1318 c -1.45315,0.26336 1.04107,0.80241 0,0 z m -4.99542,0.84697 c 0.13044,0.57247 -0.41183,-0.0496 0,0 z m 6.44999,0.39918 c -0.21474,0.90888 0.96593,0.52506 0,0 z m 0.52923,0.0403 c -0.51835,0.52667 0.81551,0.43677 0,0 z m -0.34022,0.77443 c -1.31616,0.40114 -0.23909,1.65108 0,0 z m -16.45162,0.0992 c -0.83032,0.35449 0.7998,0.47758 0,0 z m 5.51121,0.22755 c -0.81365,0.32679 0.5635,0.56314 0,0 z m 11.52569,0.36868 c -0.94944,0.81856 0.65868,0.75916 0,0 z m 1.9098,0.20594 c -0.33558,0.60134 1.02717,0.38363 0,0 z m -5.15232,0.20097 c -0.74941,0.44467 0.59342,0.52557 0,0 z m 1.52362,0.0509 c -1.94473,1.85794 1.27417,0.5981 0,0 z m -1.02504,0.42385 c -0.70614,0.49229 0.81725,0.42428 0,0 z m -0.94505,0.17515 c -0.68145,0.89067 1.81261,-0.0482 0,0 z m -4.79663,0.71532 c 0.68354,-0.2268 0.0682,0.3269 0,0 z m 0.3805,0.0253 0.009,0.0122 z m 2.87807,0.15573 c 0.2797,0.22422 -0.54399,0.0908 0,0 z m -1.7097,0.49478 c -2.00671,0.46379 0.95688,0.56767 0,0 z"
     id="ge-" />
</svg>
