<?xml version="1.0" encoding="UTF-8" standalone="no"?>
<svg
   xmlns:dc="http://purl.org/dc/elements/1.1/"
   xmlns:cc="http://creativecommons.org/ns#"
   xmlns:rdf="http://www.w3.org/1999/02/22-rdf-syntax-ns#"
   xmlns:svg="http://www.w3.org/2000/svg"
   xmlns="http://www.w3.org/2000/svg"
   xmlns:sodipodi="http://sodipodi.sourceforge.net/DTD/sodipodi-0.dtd"
   xmlns:inkscape="http://www.inkscape.org/namespaces/inkscape"
   version="1.1"
   id="svg2985"
   viewBox="82.992 45.607 491.06393 646.7476"
   width="497.16742"
   height="594.97925"
   inkscape:version="0.91 r13725"
   sodipodi:docname="Africa_2.svg">
  <metadata
     id="metadata3030">
    <rdf:RDF>
      <cc:Work
         rdf:about="">
        <dc:format>image/svg+xml</dc:format>
        <dc:type
           rdf:resource="http://purl.org/dc/dcmitype/StillImage" />
        <dc:title>World Map</dc:title>
      </cc:Work>
    </rdf:RDF>
  </metadata>
  <defs
     id="defs3028" />
  <sodipodi:namedview
     pagecolor="#ffffff"
     bordercolor="#666666"
     borderopacity="1"
     objecttolerance="10"
     gridtolerance="10"
     guidetolerance="10"
     inkscape:pageopacity="0"
     inkscape:pageshadow="2"
     inkscape:window-width="1366"
     inkscape:window-height="701"
     id="namedview3026"
     showgrid="false"
     inkscape:zoom="0.4921875"
     inkscape:cx="-46.784692"
     inkscape:cy="380.72552"
     inkscape:window-x="0"
     inkscape:window-y="0"
     inkscape:window-maximized="1"
     inkscape:current-layer="svg2985"
     fit-margin-top="10"
     fit-margin-left="10"
     fit-margin-right="10"
     fit-margin-bottom="10" />
  <title
     id="title3">World Map</title>
  <style
     id="style_css_sheet"
     type="text/css"> 
/*
 * Below are Cascading Style Sheet (CSS) definitions in use in this file,
 * which allow easily changing how countries are displayed.
 *
 */

/*
 * Circles around small countries
 *
 * Change opacity to 1 to display all circles.
 *
 */
.circlexx
{
   opacity:0;
   fill:#e0e0e0;
   stroke:#000000;
   stroke-width:0.5;
}

/*
 * Smaller circles around French DOMs and Chinese SARs
 *
 * Change opacity to 1 to display all subnational circles.
 *
 */
.subxx
{
   opacity:0;
   stroke-width:0.3;
}


/*
 * Circles around small countries, but with no permanent residents 
 *
 * Change opacity to 1 to display all circles.
 *
 */
.noxx
{
   opacity:0;
   fill:#e0e0e0;
   stroke:#000000;
   stroke-width:0.5;
}

/*
 * land
 */
.landxx
{
   fill: #e0e0e0;
   stroke:#ffffff;
   stroke-width:0.5;
   fill-rule:evenodd;
}

/*
 * Styles for coastlines of islands with no borders
 */
.coastxx
{
   fill: #e0e0e0;
   stroke:#ffffff;
   stroke-width:0.3;
   fill-rule:evenodd;
}


/*
 * Styles for territories with limited or no recognition
 */
.limitxx
{
   fill: #e0e0e0;
   stroke:#ffffff;
   stroke-width:0;
   fill-rule:evenodd;
}

/*
 * Circles around small territories with limited or no recognition
 *
 * Change opacity to 1 to display all circles.
 *
 */
.unxx
{
   opacity:0;
   fill:#e0e0e0;
   stroke:#000000;
   stroke-width:0.3;
}


/*
 * Styles for territories without permanent population.
 */
.antxx
{
   fill: #e0e0e0;
   stroke:#ffffff;
   stroke-width:0;
   fill-rule:evenodd;
}

/*
 * Oceans and seas
 */
.oceanxx
{
   opacity: 1;
   color: #000000;
   fill:#ffffff;
   stroke:#000;
   stroke-width:0.5;
   stroke-miterlimit:1;
}

/*

 Reserved class names:

 .eu - for members of European Union
 .eaeu - for members of Euroasian Economical Union

*/



/*
 * Additional style rules
 *
 * The following are examples of colouring countries.  You can substitute these with your own styles to colour the countries on the map.
 *
 * Color a few countries:
 *
 * .gb, .au, .nc
 * {
 *    fill:       #ff0000;
 * }
 *
 * Color a few small country circles (and the countries):
 *
 * .ms, .ky
 * {
 *    opacity:    1;
 *    fill:       #ff0000;
 * }
 *
 */ 
  </style>
  <path
     style="fill:#e0e0e0;fill-rule:evenodd;stroke:none;stroke-width:0.5"
     d="m 272.998,56.477085 c -30.6305,1.42763 -61.7999,0.84337 -88.5736,17.89075 -16.4448,-5.66816 -27.9221,-1.95183 -35.0817,11.35931 -22.8063,10.88936 -14.5516,46.829195 -42.5078,52.943885 -14.450803,20.78118 -41.109203,46.53139 -28.701803,72.83371 1.4457,26.00138 -21.219,44.141 -1.9809,66.06526 15.1073,-0.23363 20.5331,32.35991 35.384003,45.50076 18.527,26.51205 47.1616,15.23162 72.4647,15.09745 22.1523,-4.82105 51.4612,-29.33518 61.7782,4.16413 25.0032,-14.04853 38.034,30.30727 20.0218,42.5551 11.0621,24.28808 31.3179,44.85661 34.1992,72.87249 10.9604,31.5683 -25.8717,58.73837 -7.2399,89.90658 20.0531,24.85866 9.1412,58.79265 28.9161,83.44667 13.5753,20.8407 4.3137,63.8253 43.092,46.2429 29.1991,3.245 54.2772,-16.293 68.2268,-40.7545 18.6511,-12.2919 3.3475,-43.0946 29.7124,-46.39433 8.0339,-20.57169 -12.316,-45.73156 17.2474,-56.0187 31.02,-8.06212 31.393,-43.02275 24.0289,-66.5604 -15.0496,-28.1345 -2.8916,-56.20902 15.996,-79.19872 16.5758,-23.45028 44.3438,-37.52646 54.61,-65.9697 10.0995,-16.43731 25.7015,-58.62637 -8.5112,-39.88071 -16.3269,2.67892 -38.5161,14.75198 -38.1844,-12.62644 -23.5852,-16.37171 -36.5365,-39.04417 -47.7096,-66.38673 0.1428,-26.23491 -36.6894,-48.74928 -21.3932,-72.90397 3.877,-40.002355 -40.1416,-18.13883 -61.7582,-24.12179 -17.539,-9.119225 -51.0148,-23.355735 -53.1682,6.48243 -24.0422,-1.92841 -40.2168,-24.328415 -65.9839,-24.975475 -1.2329,-12.86073 11.9661,-28.39646 -4.8831,-31.56996 z m 157.5462,48.204155 0.1253,0.0701 -0.1253,-0.0701 z m -326.6843,35.40422 -0.087,0 0.087,0 z m 79.014,-65.033685 -0.3014,-0.34606 0.3014,0.34606 z m 98.4975,11.19066 c -4.2808,2.32982 3.9892,1.62441 0,0 z m 152.1214,18.978075 c 1.0481,1.21896 -1.9782,-0.009 0,0 z m -1.6262,0.99996 c 2.8413,0.74684 -2.3867,0.96986 0,0 z m 10.0293,4.78963 c 9.0849,1.4785 -6.2276,5.74926 0,0 z m -339.0023,82.82072 -0.1528,0.44158 0.1528,-0.44158 z m -27.858803,0.97232 4.5868,7.5e-4 -4.5868,-7.5e-4 z m 406.014703,9.09519 0,0.0764 0,-0.0764 z m -403.817303,3.72599 c -1.9972,0.97538 0.6671,4.9408 0,0 z M 502.0933,242.07314 c -2.5274,3.55554 7.4291,3.48667 0,0 z M 71.869297,265.02771 c 3.6619,1.96241 -3.5369,4.1033 0,0 z m 8.0697,5.81295 c 1.1274,1.05532 -1.4259,0.87525 0,0 z m -4.5666,5.48812 c -0.5189,1.88818 1.8772,-0.48223 0,0 z m 2.1591,0.28873 c -2.5715,-1.33194 0.2825,2.5294 0,0 z m 14.1247,1.92775 c 5.548,-0.45224 -9.1359,1.78631 0,0 z m -16.5343,1.02544 c -2.4293,0.1396 0.9053,1.42442 0,0 z m 2.3395,0.21442 c -1.405,2.06978 2.4807,-0.36017 0,0 z m 9.8681,0.33545 -1.1673,1.86982 1.1673,-1.86982 z m -7.2078,1.5371 -0.7899,1.225 0.7899,-1.225 z m 2.4649,0.6539 c -1.5819,0.13192 1.7642,1.50076 0,0 z m -6.2525,0.67514 c -1.9752,1.53127 2.8772,0.79053 0,0 z m 8.6069,1.67297 c -1.6561,2.88052 2.7424,0.13665 0,0 z m 26.582903,8.09949 -0.064,0.0248 0.064,-0.0248 z m 0.3397,0.0361 0.5053,0.0743 -0.5053,-0.0743 z m -4.2907,0.80464 -0.327,0.0955 0.327,-0.0955 z m -2.8046,0.30148 -0.068,0.0212 0.068,-0.0212 z m 10.3393,0.80251 1.5327,2.55402 -1.5327,-2.55402 z m -16.576903,6.32886 -0.1847,0.017 0.1847,-0.017 z m -0.397,0.0679 -0.091,0.034 0.091,-0.034 z m 20.464303,0.66876 0,0.16984 0,-0.16984 z m 0.3757,2.45214 -0.04,0.21018 0.04,-0.21018 z m -16.9208,9.26293 c -5.061603,0.63231 5.4912,1.8662 0,0 z m 101.2574,14.29671 c 0.1097,3.37264 -2.7619,-0.0308 0,0 z m 58.2803,9.00179 c 1.5527,0.23823 -0.8769,1.87928 0,0 z m -7.5284,3.53065 c -2.8482,1.65599 1.877,1.38962 0,0 z m 2.1591,0.36092 c -3.3931,-0.0109 -0.368,0.99503 0,0 z m 16.9357,5.63037 0.051,0.45009 -0.051,-0.45009 z m -6.8384,0.60082 c -7.9871,2.98302 2.3813,7.46043 0,0 z m -10.9869,17.81888 c -1.7223,0.88759 1.6685,2.97618 0,0 z m -4.1102,0.72396 c -23.1739,16.34225 22.7988,14.63751 0,0 z m 24.9905,5.04015 3.7832,0.0729 -3.7832,-0.0729 z m -0.9681,0.19533 -0.6029,0.10402 0.6029,-0.10402 z m 177.9213,8.58567 c 18.6922,18.67151 -24.3355,35.85554 -9.1152,5.51665 1.1747,-4.75713 6.3059,-3.11648 9.1152,-5.51665 z m -185.8531,5.54756 0.1972,1.26406 -0.1972,-1.26406 z m 156.1301,34.83948 c 5.7547,15.57385 11.707,36.03641 0.8642,11.26211 l -0.2652,-5.69258 -0.599,-5.56953 z m 78.2286,2.3099 c -1.6959,4.19481 3.7885,5.32452 0,0 z m -2.8088,7.1993 c -3.4709,6.37251 5.5416,6.19339 0,0 z m 3.8194,16.99088 c -3.5523,2.63503 -0.065,3.50123 0,0 z m -68.6599,2.64746 c 4.9419,4.37319 -1.9493,3.98343 0,0 z m 24.3856,13.10142 c 12.5353,9.34666 0.5533,45.43428 2.8507,14.60687 0.7082,-4.97042 0.5552,-10.54564 -2.8507,-14.60687 z m 44.8752,10.70237 -0.482,0.30572 0.482,-0.30572 z m -3.9745,2.43303 c -2.2037,1.31735 -1.6964,1.01412 0,0 z m 32.7228,1.63052 c -22.6121,13.30958 22.0257,16.76755 0,0 z m -43.508,0.19744 0.2221,0.0902 -0.2221,-0.0902 z m 3.8003,0.95325 -0.1,0.0446 0.1,-0.0446 z m -5.711,0.57111 -0.2335,0.29935 0.2335,-0.29935 z m -15.4962,0.27387 -0.6878,0.35668 0.6878,-0.35668 z m -4.6347,1.13797 0.8917,0.0297 -0.8917,-0.0297 z m 14.4199,0.41399 0.3396,0.30147 -0.3396,-0.30147 z m 3.4541,0.34769 c -2.8605,0.69679 -1.7203,0.41906 0,0 z m -9.5728,0.20382 1.484,0.16984 -1.484,-0.16984 z m 98.0325,2.32688 c -5.4679,22.61953 -24.3092,31.25113 -40.2439,41.82703 8.4251,25.76743 -24.6727,57.47949 4.3408,75.82891 28.3554,-7.87684 23.0665,-45.38599 35.0182,-66.98526 4.9318,-19.09082 13.7802,-31.7672 0.8849,-50.67068 z m -7.7131,10.56648 c -2.1864,1.73758 3.4233,2.55496 0,0 z m 11.8106,30.17086 c -2.2079,1.70654 -0.4682,4.86705 0,0 z m -103.6331,18.31355 c -1.558,-0.53209 0.8265,1.96713 0,0 z m -7.297,23.61696 c -0.4843,3.0056 -0.3419,2.12177 0,0 z"
     id="sd"
     inkscape:connector-curvature="0" />
</svg>
