<?xml version="1.0" encoding="UTF-8" standalone="no"?>
<svg
   xmlns:svg="http://www.w3.org/2000/svg"
   xmlns="http://www.w3.org/2000/svg"
   version="1.1"
   width="64"
   height="77.118988">
  <path
     style="fill:#e0e0e0;fill-rule:evenodd;stroke:none;stroke-width:0.06169447"
     d="m 25.248928,0 c -3.77947,0.17615 -7.62543,0.10406 -10.92901,2.20752 -2.0291,-0.69939 -3.44527,-0.24084 -4.3286899,1.40161 -2.81404,1.34363 -1.7955,5.77821 -5.24499,6.53269 -1.78307,2.56417 -5.07242004,5.74146 -3.54149,8.98687 0.17839,3.20829 -2.61819,5.44651 -0.24442004,8.15173 1.86408004,-0.0288 2.53356004,3.99285 4.36600004,5.61429 2.28602,3.27129 5.8192199,1.87941 8.9413399,1.86285 2.73335,-0.59486 6.34974,-3.61963 7.62275,0.51381 3.08511,-1.73343 4.69297,3.73958 2.47046,5.25083 1.36494,2.99688 3.86429,5.53481 4.21981,8.99166 1.35239,3.89518 -3.19228,7.24766 -0.89333,11.09348 2.47433,3.06728 1.12793,7.25436 3.56793,10.29639 1.67504,2.57151 0.53226,7.87534 5.31708,5.70586 3.60284,0.4004 6.6972,-2.01037 8.41843,-5.02865 2.30134,-1.51669 0.41304,-5.3174 3.66618,-5.72455 0.99129,-2.53832 -1.51966,-5.64277 2.12814,-6.91209 3.82752,-0.99477 3.87355,-5.30853 2.9649,-8.21281 -1.85696,-3.47149 -0.35679,-6.93557 1.97373,-9.77225 2.04527,-2.8935 5.47153,-4.63035 6.73827,-8.13993 1.24616,-2.02818 3.17128,-7.23384 -1.05019,-4.92084 -2.01456,0.33055 -4.75246,1.82023 -4.71153,-1.55796 -2.91016,-2.02009 -4.5082,-4.81762 -5.88684,-8.19139 0.0176,-3.2371 -4.52707,-6.01512 -2.63968,-8.99554 0.47838,-4.93585 -4.95303,-2.23813 -7.62028,-2.97636 -2.16412,-1.12521 -6.29466,-2.88184 -6.56037,0.79986 -2.96654,-0.23795 -4.96231,-3.00186 -8.14168,-3.0817 C 25.699318,2.30851 27.327928,0.39157 25.248928,0 Z m 19.43945,5.94786 0.0155,0.009 z M 4.3791581,10.31635 h -0.0107 z m 9.7494499,-8.02444 -0.0372,-0.0427 z m 12.1535,1.3808 c -0.5282,0.28748 0.49222,0.20044 0,0 z m 18.7701,2.34169 c 0.12932,0.1504 -0.24409,-0.001 0,0 z m -0.20066,0.12338 c 0.35059,0.0922 -0.29449,0.11967 0,0 z m 1.23751,0.59099 c 1.12097,0.18243 -0.76842,0.70939 0,0 z m -41.8291299,10.21916 -0.0189,0.0545 z m -3.43747004,0.11997 0.56596004,9e-5 z M 50.920178,18.19015 v 0.009 z M 1.0935881,18.64989 c -0.24643004,0.12035 0.0823,0.60964 0,0 z M 53.516748,22.9005 c -0.31185,0.43871 0.91667,0.43021 0,0 z M 0.43186806,25.73284 c 0.45184,0.24214 -0.43641,0.5063 0,0 z m 0.99571004,0.71725 c 0.13911,0.13021 -0.17594,0.108 0,0 z m -0.56347004,0.67717 c -0.064,0.23298 0.23163004,-0.0595 0,0 z m 0.26641004,0.0356 c -0.31729004,-0.16435 0.0349,0.3121 0,0 z m 1.74284,0.23786 c 0.68456,-0.0558 -1.12727,0.22041 0,0 z m -2.04015004,0.12653 c -0.29975,0.0172 0.1117,0.17576 0,0 z m 0.28866004,0.0265 c -0.17336004,0.25538 0.30609,-0.0444 0,0 z m 1.21762,0.0414 -0.14403,0.23071 z m -0.88936,0.18966 -0.0975,0.15115 z m 0.30414,0.0807 c -0.19519,0.0163 0.21768,0.18518 0,0 z m -0.77149004,0.0833 c -0.24372,0.18894 0.35501004,0.0975 0,0 z m 1.06199004,0.20642 c -0.20434,0.35543 0.33839,0.0169 0,0 z m 3.28004,0.99939 -0.008,0.003 z m 0.0419,0.004 0.0623,0.009 z m -0.52943,0.0993 -0.0404,0.0118 z m -0.34606,0.0372 -0.008,0.003 z m 1.27576,0.099 0.18912,0.31514 z m -2.04541,0.78091 -0.0228,0.002 z m -0.049,0.008 -0.0112,0.004 z m 2.52507,0.0825 v 0.021 z m 0.0463,0.30256 -0.005,0.0259 z m -2.08784,1.14295 c -0.62454,0.078 0.67756,0.23026 0,0 z m 12.4940499,1.76405 c 0.0135,0.41615 -0.34079,-0.004 0,0 z m 7.19114,1.11072 c 0.19159,0.0294 -0.1082,0.23189 0,0 z m -0.92892,0.43565 c -0.35144,0.20433 0.2316,0.17146 0,0 z m 0.26641,0.0445 c -0.41867,-10e-4 -0.0454,0.12278 0,0 z m 2.08968,0.69473 0.006,0.0555 z m -0.84379,0.0741 c -0.98552,0.36807 0.29383,0.92053 0,0 z m -1.35566,2.19865 c -0.21251,0.10952 0.20588,0.36723 0,0 z m -0.50715,0.0893 c -2.85941,2.01645 2.81312,1.80611 0,0 z m 3.08355,0.6219 0.4668,0.009 z m -0.11945,0.0241 -0.0744,0.0128 z m 21.95352,1.05938 c 2.30641,2.30386 -3.00274,4.42417 -1.12472,0.68069 0.14495,-0.58698 0.77808,-0.38454 1.12472,-0.68069 z m -22.93222,0.68451 0.0243,0.15597 z m 19.26473,4.2988 c 0.71006,1.92164 1.44451,4.4465 0.10663,1.38962 l -0.0327,-0.7024 z m 9.65254,0.28502 c -0.20926,0.51759 0.46746,0.65698 0,0 z m -0.34658,0.88831 c -0.42827,0.7863 0.68378,0.7642 0,0 z m 0.47128,2.09649 c -0.43832,0.32513 -0.008,0.43201 0,0 z m -8.47188,0.32667 c 0.60978,0.5396 -0.24052,0.49151 0,0 z m 3.00892,1.61657 c 1.54672,1.15327 0.0683,5.60608 0.35174,1.80232 0.0874,-0.61329 0.0685,-1.30121 -0.35174,-1.80232 z m 5.5371,1.32055 -0.0595,0.0377 z m -0.49041,0.30021 c -0.27191,0.16255 -0.20932,0.12513 0,0 z m 4.03763,0.20119 c -2.79008,1.64225 2.71773,2.06893 0,0 z m -5.3684,0.0244 0.0274,0.0111 z m 0.46891,0.11762 -0.0123,0.005 z m -0.70467,0.0705 -0.0288,0.0369 z m -1.91206,0.0338 -0.0849,0.044 z m -0.57187,0.14041 0.11002,0.004 z m 1.77925,0.0511 0.0419,0.0372 z m 0.4262,0.0429 c -0.35295,0.086 -0.21226,0.0517 0,0 z m -1.18118,0.0251 0.18311,0.021 z m 12.09613,0.28711 c -0.67468,2.791 -2.99949,3.85604 -4.96565,5.16099 1.03956,3.17941 -3.04434,7.09233 0.5356,9.35645 3.49875,-0.97192 2.84616,-5.60013 4.32086,-8.26524 0.60853,-2.3556 1.70033,-3.91972 0.10919,-6.2522 z m -0.95171,1.30378 c -0.26978,0.2144 0.4224,0.31526 0,0 z m 1.4573,3.72275 c -0.27243,0.21057 -0.0578,0.60054 0,0 z m -12.78718,2.25969 c -0.19224,-0.0657 0.10198,0.24273 0,0 z m -0.90037,2.91407 c -0.0598,0.37086 -0.0422,0.26181 0,0 z"
     id="sd" />
</svg>
