<?xml version="1.0" encoding="UTF-8" standalone="no"?>
<svg
   xmlns:svg="http://www.w3.org/2000/svg"
   xmlns="http://www.w3.org/2000/svg"
   height="337.66916"
   width="423.79449"
   version="1.1">
  <path
     id="path2166"
     d="m 300.98661,10.089219 c -14.3809,-0.7779103 -25.8503,3.7006 -36.9866,6.84561 -13.5922,5.37088 -31.3206,6.40792 -38.7908,18.31395 3.6447,5.09662 12.4907,-0.67381 2.1442,6.91244 -8.7231,14.081134 -20.1548,23.088554 -36.1461,28.164204 -20.8601,4.92333 -18.7646,33.856267 -2.2688,42.616037 7.2092,5.02078 35.5472,-15.269277 22.0773,0.21892 -18.9744,2.01163 -13.2974,25.80279 -13.7369,33.36367 -21.0359,-9.39784 -25.764,24.26283 -42.2911,19.09018 8.7222,-11.49844 -7.0571,-15.16675 -7.5441,-23.89634 -13.7296,-5.3116 -14.067,-18.23102 -10.9475,-28.78077 -21.0859,3.31595 17.12,-18.655827 -6.1485,-12.52891 -6.6843,7.18684 -18.135,6.99276 -19.4378,9.14441 -5.3306,-7.6747 -20.392704,8.43551 -6.7335,13.52491 -5.563204,6.26502 -2.9233,5.35938 0.014,7.10417 -5.403904,5.42199 -18.067704,0.17456 -18.152004,10.36051 -8.2222,-5.1859 -14.3455,9.37989 -5.1839,13.9757 -13.7937,7.53459 -2.1789,19.96813 9.6802,10.98559 10.599904,-1.52754 19.018804,-6.91968 18.297904,-18.40091 6.5546,3.39547 1.6816,9.9503 5.7097,11.41443 -11.6866,2.34492 -4.5086,6.80467 0.373,9.9081 -6.4749,1.75844 -15.214104,13.22998 -2.5072,10.74073 8.8679,-2.67502 -3.6275,12.92291 -4.4321,16.49378 14.6158,4.76388 29.5006,17.07513 21.4634,34.92385 -17.0361,6.65579 -38.967704,-9.77594 -53.039404,5.75382 0.7112,13.72422 0.8207,26.6872 -5.8776,38.61362 5.9344,5.62787 -2.3324,19.50578 11.8302,15.37422 10.4397,-5.72539 10.341,24.17827 23.661104,11.13682 5.6532,-14.23966 29.512,-6.02555 33.8436,-24.67195 -4.2462,-20.6653 24.1516,-20.05782 26.0719,-37.30125 5.6986,-8.72797 32.714,8.03186 36.3564,-11.87863 9.8524,0.72305 11.291,11.97013 0.3604,9.5555 -7.4231,4.75237 1.2232,19.07527 -6.9751,16.20259 -2.1933,9.86352 5.1424,30.78566 14.6533,14.49047 3.0827,-7.76757 -7.7424,-31.16201 5.5006,-24.72225 -4.7939,5.39272 8.1738,-0.70804 7.5587,10.2364 4.5719,5.83039 18.0209,-3.34608 13.4572,9.8029 17.1594,-10.78306 16.2952,26.09544 -2.1529,13.34805 -16.5117,1.69298 -0.025,12.66573 4.2706,15.94942 -14.1487,16.49645 18.034,20.85886 11.2281,2.22913 -6.9539,-14.28203 20.715,-17.4487 9.168,-32.60807 11.0705,8.63615 17.1475,-3.48062 4.4957,-8.26561 -15.2497,-7.93286 -29.2397,-18.69238 -33.6344,-35.16571 10.6287,4.49713 18.2518,20.08876 28.7791,22.52024 13.0616,0.73125 16.3603,10.90985 14.6342,21.7153 11.5648,8.47466 13.5744,35.07333 32.2676,32.49564 -5.8853,-9.83253 17.7166,-13.6509 5.2698,-6.36115 3.4936,14.34935 22.5269,-5.78969 21.9005,6.4765 -8.0558,20.31999 20.616,-6.11188 4.0928,-2.22196 -6.1514,7.1543 6.8121,-10.1745 -5.4367,-7.44992 9.2071,-13.42331 -22.7799,3.53164 -16.7797,-14.73653 -6.6519,1.72177 -18.9698,-11.34192 -6.2707,-6.82763 16.337,7.8541 18.0858,-17.71416 28.3549,-20.11735 0.9139,-12.29826 9.8469,-34.16867 22.5627,-33.32904 10.5702,3.38687 22.2444,7.93316 28.5337,-1.06754 15.6595,-1.27473 39.627,-27.17274 15.2459,-33.13093 -18.6182,1.79721 -38.8884,-22.24557 -48.4974,-21.71148 12.7302,-10.26441 -11.8443,-13.40119 -12.3633,-24.70411 -12.563,-3.40047 -26.9336,-14.07103 -18.533,-29.16984 -5.1562,-3.881507 -30.5026,-3.148857 -11.1196,-6.054607 14.8216,-1.93614 35.2582,-18.76739 18.6311,-32.2325 -5.1596,-11.999284 -9.0256,-26.389764 -11.9082,-35.440864 23.7846,-10.10419 -9.7834,-17.20282 -18.5927,-17.22596 z m -73.8252,28.18154 -0.8641,0.52016 z m -114.724,-28.07752 c -12.0161,1.84166 -8.2923,12.39442 1.1777,4.65633 1.9348,-1.21605 1.5323,-5.1063603 -1.1777,-4.65633 z m 148.969,14.18419 c 1.0588,2.97063 -1.8787,1.54073 0,0 z m -0.3375,0.0106 -0.07,0.20169 z m 3.8555,0.81313 0.083,0.0871 z m -22.9185,17.23503 -0.079,0.25265 z m -181.918904,1.71119 c -15.9302,10.440514 -34.669004,-5.11386 -47.912104,6.67008 -8.5908998,10.580424 11.3799,9.714564 6.3103,16.458034 18.6186,8.79986 38.554304,0.35022 56.303204,-5.89996 9.7752,-3.92521 -8.8276,-16.157924 -5.6171,-15.969824 -3.0476,-0.0997 -6.2437,0.12287 -9.0843,-1.25833 z m 231.798104,9.307514 c 8.9666,8.89912 -32.4051,24.02872 -10.8037,7.32825 -0.3243,-7.90331 5.4403,-6.2197 10.8037,-7.32825 z m -269.503808,4.9807 c 0.6296,1.74479 0.3738,1.03609 0,0 z m 188.908108,8.73854 0.1292,0.33754 z m 59.6135,2.69628 c 5.6568,4.81363 13.5759,34.068007 -1.3829,21.31147 -7.1793,8.10933 10.3986,6.55884 13.6686,6.48233 11.9888,1.83308 10.0078,4.953127 -0.982,5.124097 -7.3239,2.70427 3.9068,1.69091 -0.9029,6.44838 0.7671,9.81534 -7.6018,16.38177 -0.3718,28.17564 -7.6573,6.76694 -23.1864,-6.88815 -33.6019,3.68395 -9.7869,5.98201 -14.113,-8.19567 -20.2625,-2.82943 6.2294,-8.13939 22.7353,6.28578 13.6376,-8.01857 13.2886,1.53732 17.3498,-11.76264 16.0711,-19.68275 14.0319,-5.52849 11.8371,-18.787657 0.038,-22.993007 0.8182,-8.95277 5.2988,-14.58743 14.0888,-17.70211 z m -62.5731,1.54559 c 7.531,1.4456 -5.5934,4.26723 0,0 z m -100.51,1.99781 c -23.759704,10.67991 21.1767,24.78957 5.4371,1.50603 l -2.557,-1.24381 z m 79.2985,9.87224 c 6.0634,1.44715 -6.6304,1.35377 0,0 z m 0.3567,0.77705 -0.051,0.12737 z m -42.6439,4.27797 c -13.7961,-2.63535 -6.3972,19.579037 2.1892,5.871 3.1351,-1.98963 1.4865,-6.1297 -2.1892,-5.871 z m 49.7837,0.26114 c 1.255,-0.14408 -0.089,1.4229 0,0 z m 107.4165,8.32665 c -3.747,5.674077 -8.9824,-1.19219 0,0 z m -34.3406,13.604587 c -13.8941,0.0194 -6.3654,21.28428 1.339,6.56185 1.0999,-1.43336 2.8862,-7.0109 -1.339,-6.56185 z m 26.1646,0.62419 c 15.3608,10.29777 -13.5079,4.24823 0,0 z m -186.0738,0.3779 c 1.8921,1.4059 -0.9824,1.07244 0,0 z m 109.6818,2.191 c 9.3028,3.28873 5.735,19.77917 -0.2357,11.92879 -6.7092,-4.93676 8.6232,-10.91764 -1.938,-9.70535 z m -5.4711,11.05054 1.3844,0.68355 z m -11.6239,3.27802 0.053,0.0255 z m 18.4197,2.73026 0.4119,0.13588 z m -1.3884,1.06365 c 0.9816,0.13112 -1.4102,0.17556 0,0 z m 3.9213,2.33962 -0.6455,0.12951 z m -102.4867,1.34814 c 1.6235,0.90651 -1.5584,1.49687 0,0 z m -8.0358,0.54988 0.7961,0.61993 z m 175.2037,0.8386 c 20.1403,1.52213 -7.6643,8.14127 0,0 z m -15.3476,5.07412 c 3.3115,0.795 -1.6915,2.57253 0,0 z m 2.8895,0.75369 c 0.9835,3.93664 -5.4433,0.87506 0,0 z m -47.6586,1.05729 c -2.6815,2.09449 -6.063,-1.07172 0,0 z m 15.2097,1.23563 c 5.9197,5.38605 -4.9411,-0.52575 0,0 z M 123.88281,145.15 c 2.7237,5.27572 -6.1081,3.51815 0,0 z m 92.7822,0.52228 c -2.0027,4.78604 -7.3675,0.63865 0,0 z m -1.9872,0.58808 0.1953,0.0488 z m -87.1666,2.21012 -0.024,0.87374 z m 65.592,0.61781 c 3.6263,2.08028 -1.3323,1.1896 0,0 z m -108.104304,4.05717 c 0.6201,1.43868 -2.8644,-0.60589 0,0 z m 12.681,6.35858 0.1589,0.0824 z m -11.3646,4.16333 c 6.7565,4.28636 -7.431,1.58913 0,0 z m 66.823404,7.29484 c -0.7162,18.96563 -42.0524,2.69739 -14.759,3.39763 4.9786,-0.66297 10.3056,-0.79257 14.759,-3.39763 z m 73.4219,12.97829 c 0.9801,1.24888 -1.2353,0.74058 0,0 z m -106.2721,12.02928 c 3.2883,0.53981 0.035,1.59022 0,0 z m 8.9423,5.63673 c 1.1525,1.00859 -0.8289,0.55557 0,0 z m 221.1574,0.40763 c 1.0747,0.88643 -1.2708,0.25332 0,0 z m 25.6913,6.96153 0.074,0.18585 z m 1.2505,0.99147 c 1.8699,0.28289 1.2373,0.18718 0,0 z m -244.4963,19.11819 c 4.6079,3.73722 -4.658,2.98573 0,0 z m -52.887604,19.6447 c 2.912,2.76866 -2.3259,1.08367 0,0 z m 237.500704,8.23961 c 4.7076,8.42555 -9.8927,3.64886 0,0 z m -149.4679,3.59011 c -13.5397,-4.39879 -13.4429,17.55934 -3.1562,7.14643 4.1232,-3.46169 13.3611,-1.22258 3.1562,-7.14643 z m -90.262104,1.81946 c 3.6525,4.61695 -4.7412,2.02526 0,0 z m 86.081704,2.42242 -0.459,0.46449 z m 160.3806,2.11457 c -6.4488,4.65997 -1.2189,20.54844 4.1753,7.01577 10.6847,8.55453 -0.015,-8.33095 -4.1753,-7.01577 z m -250.328304,1.49463 c 5.0092,4.93176 -3.0253,3.39491 0,0 z m 76.177504,0.43948 c -13.3808,12.23573 12.2232,8.67488 0,0 z m 145.7887,3.0381 c 6.2007,0.0294 -3.5653,3.42863 0,0 z m -164.9642,3.11666 c 6.4066,4.20325 -3.9441,3.62298 0,0 z m 197.2794,9.67055 c 4.9297,0.20771 -2.6234,1.74389 0,0 z m -11.3626,1.08914 c 3.5845,-0.47394 -2.2659,3.75108 0,0 z m 9.0845,0.552 c 6.0247,4.37649 -7.505,-0.10429 0,0 z m -103.2743,1.7855 c -5.5225,11.13499 13.474,2.44629 0,0 z m -127.918804,0.91291 c 1.2606,4.46269 -5.0857,0.0915 0,0 z m 213.236304,6.17811 c -14.5268,17.31387 36.1052,15.19582 13.4329,5.88034 -4.7719,-0.65621 -11.0157,-0.85569 -13.4329,-5.88034 z m 74.1841,0.87258 c -12.0115,-1.1942 -25.1337,16.99434 -8.5929,19.20884 9.0389,-3.65059 30.0036,-19.96739 8.5929,-19.20884 z M 12.850902,322.84619 c -7.4299998,9.99754 12.9574,1.60885 0,0 z"
     style="fill:#e0e0e0;fill-rule:evenodd;stroke:none;stroke-width:0.30000001" />
</svg>
