<?xml version="1.0" encoding="UTF-8" standalone="no"?>
<svg
   xmlns:svg="http://www.w3.org/2000/svg"
   xmlns="http://www.w3.org/2000/svg"
   version="1.1"
   width="64"
   height="105.43111">
  <path
     style="fill:#e0e0e0;fill-rule:evenodd;stroke:none;stroke-width:0.08928182"
     d="m 14.014699,0 c -3.25731,1.40689 -6.0828799,3.30349 -8.1790099,5.88119 -1.94342,3.44769 1.12826,8.83336 -3.46398,11.39521 -1.87987997,2.18195 -2.59143997,5.60883 -1.75603997,7.64544 -2.48493003,4.18893 3.29131997,7.01121 4.25405997,10.85052 2.00418,3.9798 3.3705,8.46356 8.1808499,9.90797 4.05991,1.75623 4.27486,6.48619 3.9947,10.26784 0.70632,3.89388 -0.12871,7.97629 0.68182,11.79775 1.99506,3.72278 -0.65254,7.71789 0.78915,11.35577 1.1683,4.09812 1.03366,7.73173 2.35067,11.03257 -1.1023,2.06518 2.49252,1.6775 0.52852,3.95353 1.99657,3.44258 3.95029,7.17563 7.58218,9.023 2.7925,0.87328 8.03282,4.03203 9.28725,1.09891 2.12761,0.10423 3.87861,-1.34796 0.56596,-1.1087 -3.97602,-0.36731 -8.70067,-5.11722 -5.50154,-8.96422 2.10612,-1.69178 -5.14325,-3.90943 -0.86654,-5.3151 -0.80003,-2.2305 2.79572,-4.54841 -1.18369,-5.06564 -0.0211,-1.84547 4.03901,0.73947 3.0008,-2.57628 0.98284,-2.09325 7.21259,-1.4268 4.76302,-6.0624 -2.95545,-3.58209 2.64921,0.4977 3.68861,-2.87446 2.32258,-3.97638 5.90478,-8.0807 4.8512,-13.05156 1.64406,-3.07409 6.33558,-3.23435 8.35734,-4.13745 1.31548,-3.28116 3.18693,-7.11986 2.58723,-10.99158 -0.6881,-5.14053 4.57566,-8.0116 5.47209,-12.53188 0.0647,-4.41551 -4.68442,-6.24442 -7.96889,-7.75688 -2.59436,-0.55703 -5.38585,-0.35961 -6.32523,-3.00009 -1.88707,-0.2026 -3.98093,-1.05909 -5.68988,-1.21992 -1.78508,-1.5631 -1.24433,-6.42499 -3.69105,-6.90199 -0.26274,2.90657 -4.04656,4.2333 -3.02605,0.35886 1.67802,-5.17021 -5.09843,-1.31728 -6.18171,-5.59596 -2.59588,-1.31575 -2.28993,-3.10403 -2.2876,-5.53885 -2.91749,0.50161 -4.74674,0.096 -6.92628,1.54005 -2.75435,0.51024 -5.769,-4.65232 -7.38194,-1.33941 C 12.137489,3.07796 17.049229,0.03356 14.014699,0 Z m 8.42668,2.19272 c -2.04708,0.73128 1.36259,1.32244 0,0 z m -11.13271,0.185 c 0.91281,0.54865 -1.02777,0.31335 0,0 z m 3.81301,0.41626 0.0315,0.0273 z m -1.33747,1.121 c 1.3302,1.65586 -1.13252,1.22952 0,0 z M 2.6253391,18.15102 c -0.57137,0.097 -1.03183,0.17514 0,0 z m 44.1847199,2.76555 c 0.41126,-0.3398 0.26169,0.51747 0,0 z m 1.35718,1.4186 c 0.81777,0.66216 -1.06558,0.43891 0,0 z m 1.76283,0.90984 0.0425,0.15733 z m 8.37133,15.99128 -0.0801,0.058 z m 0.005,0.0849 0.002,0.0356 z m -0.26651,1.58768 -0.14823,0.127 z m -41.2353,2.51496 c 0.59784,0.42987 -1.35102,0.3122 0,0 z m 34.5578,12.47701 c 0.58728,-0.0948 -0.0228,0.29143 0,0 z m -8.12188,14.38654 c 0.29937,0.42717 -0.48095,0.0812 0,0 z m -24.73754,4.37636 c 0.39381,0.051 -0.26958,0.44882 0,0 z m 10.96666,7.85005 c 0.48133,0.0137 -0.28351,0.32197 0,0 z m 1.43717,1.79581 c 1.00857,0.15119 -0.61692,0.44172 0,0 z m -9.38391,2.00999 c 1.11037,0.78382 -1.03193,0.92976 0,0 z m 1.93987,6.43982 c 0.15888,0.2324 -0.3158,0.12941 0,0 z m 0.13572,0.1558 0.0218,0.008 z m 9.31795,0.0285 c 0.25265,0.33962 -0.32601,0.11412 0,0 z m -0.62211,1.01599 c 0.85802,0.18786 -0.26961,0.7253 0,0 z m -1.16498,2.63627 0.0358,0.23842 z m 11.08039,0.73658 c -4.44282,3.11263 5.49609,4.01954 3.20765,1.05142 -0.91076,-0.45418 -2.60965,-0.26674 -3.20765,-1.05142 z m -16,2.81295 c 0.60575,0.0407 -0.40623,0.25784 0,0 z m -0.51406,0.0993 c 0.37214,-0.0207 -0.20785,0.1762 0,0 z m 9.01846,1.47206 c 1.67805,0.35055 -1.0625,1.1137 0,0 z"
     id="pe" />
</svg>
