<?xml version="1.0" encoding="UTF-8" standalone="no"?>
<svg
   xmlns:svg="http://www.w3.org/2000/svg"
   xmlns="http://www.w3.org/2000/svg"
   height="787.02759"
   width="950.94751"
   version="1.1">
  <path
     id="ge-"
     d="m 131.02564,14.99949 c -18.0264,7.41954 -88.427395,7.469168 -33.348099,13.609214 13.711699,2.90409 84.049899,-0.29938 53.713799,-12.242059 -7.5622,0.258557 -13.2582,1.818039 -20.3657,-1.367155 z m 173.2441,2.955303 c -40.3259,14.123871 28.322,19.018881 43.1189,20.779931 22.544,3.76308 34.7113,1.14465 4.7401,7.68914 -28.8106,-2.70546 -69.4982,19.84171 -91.4652,27.66067 -8.4566,-25.95617 -14.4851,22.13245 -20.4127,-0.83242 -37.4076,-28.0493 -8.2921,50.378636 -49.7949,20.96008 -31.1251,2.34213 -51.7543,-30.03355 -12.2222,-35.58738 28.1145,-1.9951 30.3508,-20.49358 0.5371,-12.22844 -39.1895,-9.40445 -72.8521,53.690486 -17.6221,45.01754 31.4492,13.937756 -41.7054,8.31757 -47.3221,20.607456 -14.579599,-25.164286 -17.503699,4.64311 -19.306799,5.35233 -12.3595,15.62634 -65.818596,10.81228 -24.1894,5.64841 41.808999,-11.72172 -33.433896,-30.817776 -48.692196,-29.047956 -37.6254,9.661666 31.4176,60.955166 -6.9593,72.529626 -15.34430039,36.62678 32.5028,39.11148 37.0253,68.97534 18.117996,15.0428 73.604095,16.552 41.125796,46.36057 -19.928,19.44413 60.084499,38.85529 13.916899,44.55014 -29.133499,-13.1028 -62.955895,-5.34942 -88.453895,-1.76392 -6.6471,34.16701 19.9407,51.70877 50.245396,46.30732 6.3407,3.62377 -17.617096,15.96885 5.9717,14.70079 17.7653,-9.1933 17.7002,-17.6982 12.9143,6.45457 -18.523,41.64215 24.992599,74.37649 40.396899,109.72546 22.3221,21.91905 17.3076,59.41674 41.376,72.25427 37.7246,-14.94863 80.8642,-32.234 103.825,-67.01323 25.4508,-20.79705 -37.7858,-49.1375 -16.5315,-48.69657 27.5464,18.13592 80.868,-7.46623 96.0957,39.97834 43.9142,8.38385 28.7475,71.8564 56.5794,101.00901 12.8421,21.07944 32.5518,-5.4147 32.106,29.42208 34.6136,6.33938 -24.3939,-58.62443 3.045,-81.53198 22.6026,-21.85405 63.0237,-82.55193 86.9344,-32.55783 10.7612,13.00429 10.6717,50.48594 28.0972,26.58161 25.7847,24.91086 4.3933,70.47273 35.8805,95.51451 9.69,17.46305 12.196,35.4126 -8.7298,11.63799 -20.1198,-31.45181 -42.5969,-9.51419 -13.8785,13.21724 -4.2163,25.75946 19.4206,-0.14605 8.7779,26.40688 4.1333,17.54813 27.6706,36.61545 9.5576,7.36425 -8.6558,-24.35337 22.2058,30.32073 31.5213,36.95866 18.1038,17.52055 59.3284,26.52429 95.0209,29.46521 19.4448,2.70725 33.9208,17.035 29.727,-2.61726 20.9658,3.03713 43.671,-7.13829 16.1284,17.82008 16.653,-6.06071 58.1813,-40.92251 13.2357,-26.67989 -27.8106,4.29345 -53.0223,5.1881 -79.1709,-3.79327 36.1723,-12.07257 -55.9547,1.78569 -58.2874,-22.80286 6.1391,-16.77312 32.6826,-17.05578 1.9124,-24.87925 -17.0131,-19.13055 -9.6662,-63.69761 -41.4378,-83.02321 -18.0742,-13.90635 -12.9697,-68.434 11.8118,-30.08703 16.7276,53.65821 80.5193,-17.62822 35.8756,-44.99711 -29.2757,-8.08073 -8.2637,-62.37433 7.0591,-32.85138 -26.2849,20.7913 30.5949,19.99913 8.0973,-2.60289 34.9428,-9.56119 74.2692,-40.90323 69.0166,-84.2368 -6.1873,-18.87294 -51.0955,-40.63519 -17.9237,-61.55393 -20.4822,0.22263 -61.7666,-11.65573 -22.7714,-24.815 0.01,29.89683 34.478,-10.70917 32.7628,22.17545 17.3117,3.33953 24.4463,52.88416 42.8826,18.38927 -12.4506,-21.0089 -41.6391,-49.42053 -7.0271,-61.44646 44.4229,-5.62126 -4.4624,-102.97589 31.0909,-47.45474 19.2069,30.72119 21.121,55.21744 32.2968,87.52743 -9.3297,3.00036 -12.0671,19.48039 -35.1834,14.80413 2.5158,26.918 -31.2937,8.97921 -18.6387,26.57361 4.9852,12.24888 31.216,42.37936 28.1786,4.8329 31.6007,-8.29807 64.2991,-21.60298 42.5664,-61.23819 -17.3046,-17.76663 -19.9281,-20.25846 3.3339,-25.50142 3.9967,-16.19711 32.0541,-39.61062 0.7606,-20.07619 -28.8816,16.8009 -30.7745,-15.42023 -43.4384,-27.48731 20.7901,-5.52303 -28.2652,-33.36738 -40.3497,-51.17278 -2.4084,11.85434 -30.4343,-4.79438 -48.6301,-6.62595 4.6502,-52.82989 65.4773,-14.06669 85.9173,-35.23845 -14.8609,-30.80957 31.1899,5.68432 33.1953,-12.53432 -27.0222,36.98141 21.3497,62.72628 35.1523,83.95849 -1.7327,21.65006 6.5213,37.74942 8.8643,4.98113 5.3322,-30.05396 8.7049,-51.28955 -20.2066,-66.78065 15.9379,-2.63117 -15.582,-12.49647 11.0175,-12.56032 23.7775,9.62293 37.9886,-25.10545 45.2655,-25.45289 -42.5505,-13.41124 13.5607,-18.64465 28.4387,-6.10512 14.7583,-29.93519 -59.3908,-24.71164 -81.4026,-37.54784 -39.6782,-14.762726 -81.1971,-4.163156 -121.7465,-6.362736 -40.3167,-19.07197 -92.4678,-6.29183 -133.8785,-28.24358 -31.6434,-11.7245 9.0826,24.70082 -29.1218,15.36584 -22.5878,9.74574 -54.8879,-31.40062 -81.2905,-10.68995 -46.161,-3.452 -77.5288,-28.54843 -125.4716,-38.89962 -22.3539,-0.007 -40.3796,-8.23053 -61.8394,-13.939631 z m -20.1585,0.127385 c -24.1757,-0.895952 17.7699,10.074616 0,0 z m -51.928,1.471282 c -17.0833,9.284384 23.3002,1.946871 0,0 z m 62.4987,1.093379 c 3.6027,-0.317108 -2.0702,1.89512 0,0 z m -75.8124,6.522055 c 13.3213,14.4847 26.5061,-2.80743 0,0 z m 100.5376,0.68575 c 5.2698,-0.48651 -3.3609,3.62873 0,0 z m 58.7728,12.55155 0.4216,0.2179 z m -113.8111,0.38215 c -11.7495,2.41378 -0.6943,3.4304 5.1128,2.16714 z m 117.0169,0.32483 2.9631,0.34807 z m -80.0118,0.97661 c -14.0207,12.33555 25.5828,0.33093 0,0 z m 301.8041,3.44573 c -14.0676,6.72855 15.0849,5.35376 0,0 z m 24.4003,3.69201 c -14.209,4.34129 15.8524,6.12941 0,0 z m -70.7977,0.12738 c -32.6839,6.85908 34.3118,23.80701 43.2001,7.87657 16.3468,14.24869 47.7579,-3.71702 12.3086,-3.03202 -18.5818,-0.62501 -37.0032,-3.2584 -55.5087,-4.84455 z m -281.5437,1.24412 c -28.1033,3.25541 23.9863,16.11429 0,0 z m 58.847,2.67293 c 6.8248,-2.84609 -0.4191,6.07577 0,0 z m -69.1716,6.51356 c -18.5271,4.63434 18.5839,5.46755 0,0 z m 288.2718,1.93199 c 8.7208,13.687 26.4479,2.69235 0,0 z m -121.7301,1.91076 c 1.8542,1.87718 -3.8194,-0.61593 0,0 z m -10.6663,2.54131 c 6.4769,1.42646 -3.9936,2.47273 0,0 z m 2.7557,2.26955 c 2.0547,0.8111 -2.3253,0.92511 0,0 z m -146.5444,5.01892 c 6.1571,0.10024 -0.8856,5.16252 0,0 z m 366.9566,5.20787 c 1.3321,1.32842 -2.0774,-0.11406 0,0 z m 180.4924,2.00418 c -15.1025,22.014246 40.2013,-1.16296 0,0 z m -234.3566,3.71749 0.554,0.75689 z m -339.7602,3.54551 c 12.1402,9.74531 3.8216,19.503886 0,0 z m -77.9972,1.90014 -0.4954,0.0658 z m 623.7562,3.50093 c 4.3099,-0.0768 -1.8856,2.20223 0,0 z m -9.5326,2.12944 c 4.8152,1.2312 -1.9287,5.931116 0,0 z m -664.899,0.30997 c -15.7431,19.833976 28.1368,0.78518 0,0 z m 58.8896,2.15491 c 14.6112,0.48712 2.7063,8.455856 0,0 z m 612.1026,1.3906 3.3429,1.640226 z m -748.515795,0.0849 c 1.9213,1.365686 -2.3877,0.29154 0,0 z m 180.589895,0.0446 c 22.2047,7.203996 -10.8563,1.281956 0,0 z m -39.9434,1.080646 0.021,0.0212 z m 663.984,0.16984 c 4.2638,1.97817 -3.9205,1.5821 0,0 z m -663.7546,0.0467 0.01,0.0106 z m 3.0444,0.55624 -0.013,1.0212 z m 671.3489,0.78979 c 9.1753,2.05325 -6.2181,4.61721 0,0 z m -597.2263,0.75581 c 13.0766,8.10784 -4.1522,22.22885 0,0 z m -105.8326,1.08487 c 2.9841,-1.69895 -0.1171,2.31811 0,0 z m 76.0098,0.0913 0.6442,0.25669 z m -78.5957,0.16348 -0.043,0.0892 z m 717.536,1.40971 c 2.5406,6.37952 -3.0662,1.67818 0,0 z m 8.0443,1.18467 c 6.5938,2.991 -5.7486,3.14417 0,0 z m 9.0422,2.73875 c 2.7023,0.841 -1.8757,1.2706 0,0 z m 6.0826,4.99982 c 4.3859,-0.6026 -1.435,3.70294 0,0 z m 23.8291,0.69424 c 5.0953,3.1063 -6.6449,1.08566 0,0 z m -657.3301,1.97869 c 4.788,2.78447 -6.2567,2.19061 0,0 z m 620.8581,4.19093 c 4.1652,0.0929 -1.9491,2.35974 0,0 z m -835.733395,0.29298 0.641,0.53186 z m -0.3567,1.02544 0.4896,0.49205 z m 1.7388,0.51591 0.2548,0.11464 z m 879.952595,4.67074 c 5.3461,-0.29583 -3.5305,3.54802 0,0 z m -850.416499,2.02115 c 10.0943,2.69276 -5.4783,3.35635 0,0 z m -18.504696,2.63048 c 22.077296,9.18928 -11.0989,2.11641 0,0 z m 8.925396,5.52421 -0.3086,0.18244 z m 838.932799,6.38617 c 3.0172,-0.88085 -0.7727,2.45375 0,0 z m 0.603,1.18468 c 2.716,0.93078 -2.2067,1.44665 0,0 z m 2.3736,4.11237 c 4.3178,2.14291 -4.4651,1.52053 0,0 z m -84.3026,1.34178 c 4.2092,4.51006 -4.1997,1.74738 0,0 z m -764.215895,4.31831 c -0.6534,4.51339 -6.1676,-3.22751 0,0 z m 741.866395,1.02757 c 5.7151,0.52363 -2.3513,2.626 0,0 z m -738.794299,2.48823 0.3375,0.31421 z m -30.028596,0.11039 c 24.3089,5.74488 0.4457,16.01659 0,0 z m 763.328395,16.05249 c 5.4511,3.70628 -6.0225,0.71616 0,0 z m 102.8328,30.5615 c -4.4838,15.74611 50.6171,12.73259 0,0 z m -359.3265,4.80874 c 6.198,17.79159 -9.8631,21.46123 0,0 z m 190.8464,9.53043 0.03,0.1932 z m 36.3638,3.81939 c 2.7262,0.0438 -1.6755,2.29164 0,0 z m 2.7133,0.8556 0.9894,0.56261 z m -1.6539,2.46063 0.3738,0.53926 z m 6.6517,5.12508 c 1.9471,3.88442 1.1183,2.23101 0,0 z m 2.0827,1.07639 0.051,0.0594 z m 0.242,0.276 0.06,0.0658 z m -244.9718,0.47769 c 1.8358,2.98051 -3.6687,2.45789 0,0 z m 244.5854,1.98506 0.04,0.20806 z m 3.1825,1.00421 0.1443,0.61144 z m -12.9549,1.36938 1.191,0.84709 z m -118.9617,34.10489 c 1.8177,0.93326 -2.1164,1.61563 0,0 z m 154.126,0.77279 c 7.7444,2.98957 -5.0027,3.34464 0,0 z m 65.9741,0.3588 c -16.6898,4.40041 8.0108,12.81663 0,0 z m -683.4587,4.49877 c 28.1654,2.92538 -22.9159,28.35753 8.8213,34.03696 12.711,16.74774 37.6642,64.63105 -4.8402,44.79464 0.8712,-17.1999 -1.7103,-34.78767 -21.5345,-47.92687 -8.7034,-13.39325 6.5731,-25.71047 17.5534,-30.90473 z m 64.367,1.8492 -0.1804,0.28661 z m 3.4203,0.28024 2.8319,1.65816 z m 93.2895,0.48406 -0.5494,0.35436 z m 33.1814,0.32483 c 6.646,1.90343 -4.6607,4.09437 0,0 z m -34.2493,0.91716 -0.9449,1.06038 z m -3.1825,3.79179 -0.2052,2.44422 z m -100.4102,9.8765 c 7.3444,-1.97629 -1.1468,4.16164 0,0 z m 0.8343,0.88743 0.051,-0.10615 z m 608.4616,5.09111 c -11.7776,2.37491 6.6949,8.54627 0,0 z m -653.9971,6.14203 c 7.3483,3.44785 -6.0829,3.97303 0,0 z m 12.6046,11.67897 c 9.0821,10.96179 -10.5428,4.51741 0,0 z m 2.5286,2.97653 c 2.6247,1.00846 -1.8919,1.23628 0,0 z m 359.4199,1.69845 -0.3504,0.2293 z m -358.6661,0.89169 c 6.0297,0.83029 -3.2281,4.80353 0,0 z M 34.812645,329.7012 c 16.0876,1.61697 -17.6067,0.43527 0,0 z m 182.846695,3.76844 c 5.4372,2.95399 -6.6488,3.46384 0,0 z m -2.4606,5.17179 c -0.8912,4.57627 -0.6933,3.55975 0,0 z m 1.2505,5.19514 1.3036,0.24202 z m 522.4924,3.82575 c 5.4557,2.11931 -5.2211,3.11033 0,0 z m 0.1847,7.78952 -0.2121,0.37237 z m -0.344,0.60932 -0.2311,0.26824 z m -510.3187,6.4435 c 1.0466,1.75422 -2.7938,-0.38576 0,0 z m -145.166599,3.71961 c 20.268799,2.91941 -9.4609,10.26456 0,0 z M 752.29564,390.5652 c -17.429,8.02533 14.2898,7.19735 0,0 z m -41.2681,29.08808 c 4.0756,0.41661 -1.925,1.79508 0,0 z m -516.8492,4.08691 c 14.125,15.89351 37.046,32.77427 51.2688,35.13425 -24.2336,37.48317 -28.0061,-15.04758 -53.0664,-20.30053 -3.2519,-4.69778 -1.6455,-10.89122 1.7976,-14.83372 z m 6.0465,20.08843 0.5073,-0.16773 z m 588.6172,-10.31173 c -27.4362,27.7272 5.1,24.54091 0,0 z m -64.7917,5.09324 -0.1134,0.55111 z m 47.7733,13.18847 c -6.3046,8.6584 12.5729,5.38626 0,0 z m -37.0093,10.23316 c -25.7187,11.74781 12.1415,49.97301 5.3671,11.37962 3.4552,-4.28529 0.01,-11.23691 -5.3671,-11.37962 z m 23.2943,1.5456 c -15.0502,9.67014 4.2,20.33123 0,0 z m 4.9785,1.01694 c -5.6818,14.50025 17.0247,-2.19477 0,0 z m -254.7294,12.81694 c 4.7035,1.59777 -1.4652,3.94311 0,0 z m -0.4501,0.0955 -0.397,0.78554 z m 1.0488,0.72184 0.4225,0.72821 z m -1.6262,0.37579 -0.091,0.12526 z m 242.4708,22.76985 c -10.6338,4.14659 1.6216,13.48603 0,0 z m -92.8501,2.34387 c 1.5396,1.332 -1.8857,0.10614 0,0 z m 0.4862,1.10611 c 0.9198,2.2975 -2.1191,-0.21066 0,0 z m 2.4988,5.73652 -1.0551,0.61118 z m 83.9438,2.54767 c -23.0615,35.43432 6.4838,59.50057 18.6229,88.02606 3.6672,15.7902 -23.9276,46.70555 4.3126,21.94041 10.6492,7.8833 35.1889,23.24494 28.9115,-9.59005 -1.2603,-34.5533 -29.2033,-50.07594 -40.7411,-68.46075 4.419,-11.61376 -1.6277,-24.80979 -11.1059,-31.91567 z m -277.4482,2.11458 -0.3907,0.51166 z m 67.3096,0.55837 c 6.1725,0.47317 -3.2623,4.48683 0,0 z m -154.4062,1.2526 0.091,0.087 z m 369.8398,4.6665 -0.5756,0.5929 z m -87.827,1.33753 0.083,0.2951 z m -105.6457,18.74878 -0.845,0.82374 z m 373.3832,0.55411 c -21.7754,19.69545 7.3151,43.31981 7.3821,10.39847 4.5105,-5.38747 -1.7911,-10.77412 -7.3821,-10.39847 z m -178.9743,7.10378 c 1.6712,2.75892 -2.3506,0.23655 0,0 z m -213.8095,12.96979 c -15.192,16.86473 15.099,38.29113 0,0 z m 216.2787,2.87888 c 1.3973,2.31523 -2.1223,0.37084 0,0 z m 5.6707,3.7196 c 8.1926,11.2326 2.6442,10.05797 0,0 z m -4.055,0.7176 c 4.2176,1.62304 -1.8823,6.35638 0,0 z m -517.0042,1.11673 c -10.2208,17.01375 23.1572,-2.77541 0,0 z m 202.9372,1.08913 0.078,0.69529 z m 304.2668,0.72608 c -22.3415,33.58314 -34.2521,75.5952 -73.4371,91.45568 -13.2837,10.71757 -14.7681,38.76893 1.5712,41.78578 19.9626,19.75274 58.9094,16.94565 57.5957,-19.53974 24.3605,-14.34501 -13.034,-37.75003 16.6977,-43.94697 -21.6318,-15.13589 -26.2228,-34.33025 -2.888,-54.8023 -0.4908,-3.73771 6.1008,-3.20142 0.4605,-14.95245 z m -516.9362,2.51159 c -14.1155,-2.99294 6.1079,-3.12331 2.5493,2.68211 z m 541.0458,5.09747 c 12.1478,3.78723 -8.3522,6.61523 0,0 z m -230.7558,1.85769 0.7706,1.00633 z m 40.4889,2.7621 c 3.9484,3.67786 -3.9927,1.51951 0,0 z m -44.6905,0.84923 c -12.0106,10.91017 11.9759,8.58397 0,0 z m 250.4876,2.74725 c 8.0953,-0.28543 -2.813,5.7124 0,0 z m -6.7578,4.26947 -0.067,0.27015 z m -341.8152,3.98075 c 8.9692,7.76258 -6.8341,5.4109 0,0 z m 344.8555,0.81738 c 1.5809,13.66636 -15.8024,7.49148 0,0 z m -243.3307,2.80881 c -9.807,4.87835 8.5992,7.44988 0,0 z m -96.8605,2.98078 0.028,0.004 z m 102.6417,0.7176 c -8.7905,11.11295 15.1649,42.24697 0,0 z m 308.4577,2.23133 c -27.0879,21.77619 30.5126,15.49552 0,0 z m -77.6043,11.9571 1.2418,1.65701 z m -39.7523,1.4352 c -10.3386,4.1656 9.6009,7.01562 0,0 z m -8.1653,1.50312 -0.1403,0.44142 z m 1.3652,11.89553 0.225,0.66664 z m 13.0185,7.63666 c 0.9004,1.94677 -2.9456,-0.30897 0,0 z m 57.9427,1.03818 c -13.6394,5.38497 12.4764,20.35219 0,0 z m -141.9841,3.21644 c -13.9965,12.31527 15.1508,8.35905 0,0 z m 132.6512,3.97862 c -11.5108,6.84962 13.4016,7.86552 0,0 z m -127.0696,4.41597 c -9.7013,8.10596 9.8336,8.45456 0,0 z m -26.2284,0.49468 c -4.7123,11.68859 12.0751,3.04192 0,0 z m 172.5626,0.71547 c -9.9584,16.53734 -8.4206,62.71219 9.0549,29.2091 13.5571,22.92498 26.5338,-3.27995 1.5111,-5.05615 -5.3961,-7.34633 -5.5474,-16.57142 -10.566,-24.15295 z m -245.5471,1.02756 c -8.924,12.84187 18.5277,5.50577 0,0 z m 226.3292,1.30781 c -12.3236,7.19863 10.373,6.93611 0,0 z m -54.911,1.57956 c 3.7857,5.91136 -5.2049,0.91442 0,0 z m -158.0344,5.63885 c 13.1891,0.47052 -2.9439,10.98225 0,0 z m 33.8755,1.08489 c 7.3313,0.18475 0.2936,5.23424 0,0 z m 178.9,0.46495 c -25.1587,7.2641 -57.496,3.45201 -50.1773,43.38482 -4.0596,21.83952 25.6335,59.75273 12.8169,13.88282 -3.789,-10.6404 43.1218,31.17325 20.4831,-2.70859 -5.2605,-17.47184 -10.4954,-21.05882 3.2028,-19.51094 12.645,-26.70509 -48.3704,-4.99646 -10.4008,-21.75401 11.1854,4.55736 26.4109,2.9138 24.0753,-13.2941 z m -113.6561,0.57747 0.066,0.0679 z m 1.4076,0.0701 c 3.5749,0.0397 -1.976,2.321 0,0 z m -1.1825,0.33969 0.061,0.0807 z m 5.9488,0.29085 0.059,0.017 z m -66.2503,1.69633 c 5.5908,1.18033 -0.835,5.2099 0,0 z m 47.9177,2.0806 c 2.5707,3.64563 1.7209,2.44051 0,0 z m 2.2928,0.34606 0.4289,0.16773 z m -38.835,8.14196 c 1.8715,13.17289 -6.2974,12.14887 0,0 z m 207.3723,8.37972 c -0.5572,3.77646 -2.5261,-1.03882 0,0 z m 27.655,1.1316 c -18.5057,19.47414 16.1544,9.44585 2.0441,2.13387 z m -37.6185,1.05941 c -13.7933,4.86629 6.7791,9.16123 0,0 z m -36.1027,3.6262 c -21.1438,2.14368 19.9364,28.04652 14.8679,22.64712 18.5383,0.3691 49.259,8.66015 19.274,-11.22595 -13.5818,0.74944 -27.9893,7.74447 -23.87,-9.96609 -2.6701,-0.568 -11.0364,4.8317 -10.2719,-1.45508 z m 38.3956,1.91712 c -21.1376,3.83099 15.1436,11.67196 0,0 z m -72.664,12.32014 c 1.8975,8.32726 -5.9905,-0.72098 0,0 z m 93.8224,5.80658 c -3.1236,13.22061 14.0505,7.6376 0,0 z m 7.6983,0.58596 c -7.54,7.66093 11.8625,6.35324 0,0 z m -4.9489,11.26497 c -19.1451,5.83492 -3.4778,24.0167 0,0 z m -239.3074,1.44369 c -12.0779,5.1564 11.634,6.9469 0,0 z m 80.1668,3.30986 c -11.8354,4.7536 8.1967,8.19152 0,0 z m 167.6542,5.36285 c -13.8107,11.90702 9.5812,11.04293 0,0 z m 27.7802,2.99565 c -4.8814,8.74718 14.9413,5.58037 0,0 z m -74.9463,2.92345 c -10.9011,6.4681 8.6319,7.64492 0,0 z m 22.1627,0.74096 c -28.2883,27.0258 18.5343,8.70002 0,0 z m -14.9103,6.16537 c -10.2716,7.16084 11.8878,6.1716 0,0 z m -13.7469,2.54768 c -9.9124,12.95576 26.3665,-0.7018 0,0 z m -69.7723,10.40514 c 9.9428,-3.29898 0.9928,4.75515 0,0 z m 5.5348,0.36729 0.1256,0.17811 z m 41.8647,2.2653 c 4.0686,3.26158 -7.9129,1.3203 0,0 z m -24.8695,7.19718 c -29.1898,6.74625 13.9189,8.25731 0,0 z"
     style="fill:#e0e0e0;fill-rule:evenodd;stroke:none;stroke-width:0.30000001" />
</svg>
