<?xml version="1.0" encoding="UTF-8" standalone="no"?>
<svg
   xmlns:svg="http://www.w3.org/2000/svg"
   xmlns="http://www.w3.org/2000/svg"
   height="125.41689"
   width="136.36523"
   version="1.1">
  <path
     id="path2808"
     d="m 43.66855,5 c -4.11238,3.1223071 -6.58332,8.653099 -12.84199,6.7233 -4.36086,0.514771 -12.659913,-2.5142899 -11.794375,4.784318 -8.629892,2.205896 4.826555,6.03852 3.389251,11.571749 -3.129266,4.298441 -11.976457,-1.959102 -14.2030544,4.922678 -0.589496,5.184069 -6.5800048,11.653977 -0.548993,15.698252 4.9077874,4.47051 12.9003254,1.39124 17.4976514,6.69832 4.90021,1.573794 9.31779,3.127964 14.21013,3.862034 4.27895,0.37409 2.43637,-6.833655 4.02003,-2.32579 2.80566,-1.263268 4.08763,6.95841 0.57654,4.34092 0.37348,5.20784 7.16626,8.19593 9.218,13.16629 6.07458,3.9016 5.26091,10.47874 3.76088,16.37083 0.87014,3.48295 10.26187,6.067239 6.39886,1.03857 -4.08677,-5.45022 4.72231,1.23801 4.34116,4.001769 3.18064,2.08949 10.79608,4.82996 6.91532,10.06452 1.19877,3.80943 5.48771,1.22961 1.99143,-1.07215 4.25216,-0.80108 3.147,10.569 6.88142,4.14155 6.2011,-2.11879 8.2284,5.62721 12.582652,6.36265 2.11289,-7.26029 1.37306,9.62867 6.573198,3.83151 7.42456,-1.21349 0.13328,-6.14243 0.86654,-9.41118 5.9849,-0.77199 6.10862,-10.84022 12.66647,-7.24308 3.10601,1.42703 6.04401,7.57324 7.63817,3.84928 0.092,2.99739 4.89946,4.80086 0.22734,2.89519 -6.99103,0.74476 1.56754,16.06798 2.61478,7.19627 0.62965,-2.04508 2.38798,1.86253 3.63592,-1.61125 3.29716,-5.65786 -1.66072,-11.29416 -5.47179,-15.07655 -4.12387,-3.03916 -8.24008,-2.51537 -12.12629,-3.93264 -5.82043,2.0163 -11.0563,8.8795 -17.95603,7.70375 -2.37003,-1.75199 -3.10927,-3.39518 -4.54417,-1.19285 -4.45951,-2.04402 -4.72454,-8.410609 -9.38923,-10.755419 -3.22656,-5.62689 -7.71904,-12.01621 -3.91548,-18.43212 -0.3149,-2.92441 0.94154,-3.28342 0.4914,-7.28378 1.38748,-4.08558 1.47912,-2.05124 1.18602,1.1485 1.8651,-5.74985 0.0795,-13.593175 4.89658,-18.686683 -1.10043,-3.064147 -0.0483,-7.175129 0.72272,-8.267633 -0.79624,-0.634651 -4.06466,-4.683787 -2.40193,-1.274812 -1.51769,-2.328199 -4.27097,-1.696275 -3.97181,-1.17641 -4.16163,-3.862347 3.40301,-0.919056 1.71771,-1.764048 -3.6625,-6.196814 -11.22797,-3.871002 -16.88689,-5.30675 -5.65391,3.830697 -12.67899,1.044673 -19.14354,1.942918 -2.5358,0.342897 -8.82391,5.466136 -3.46777,1.551589 1.50908,-2.152544 -2.48815,-3.683677 -2.19419,-1.2679 -2.79142,-1.84754 -6.12623,-0.537063 -1.7086,-2.796621 6.62405,-4.329968 6.33444,-11.88343 8.04633,-18.725542 C 46.52977,8.7554391 43.80766,6.1777961 43.66855,5 Z m 3.21431,9.804309 c -1.71625,1.449838 0.31255,1.648089 0,0 z M 34.65614,19.9676 c -0.2752,2.344792 -1.9417,10.954986 -1.66885,9.011824 0.53285,-3.008281 1.22907,-5.98706 1.66885,-9.011824 z m 24.39825,6.033747 c -3.08963,0.472271 -3.37006,2.110201 -0.20896,0.08433 z m 21.79962,15.538705 -0.44409,0.280046 z M 30.14038,45.70338 c 0.008,1.984098 -2.17435,0.497978 0,0 z m -3.23979,3.233427 -0.17803,0.198883 z m 7.39463,0.278121 c 2.99901,2.743311 2.8788,3.2416 0,0 z m 23.48321,1.520113 c -1.43288,1.385719 -1.55976,0.76467 0,0 z m -17.73608,0.405505 c 2.71772,0.811957 -3.02261,-0.312298 0,0 z m -17.016355,0.371537 c -0.487561,0.652089 -0.852255,1.139849 0,0 z m 18.903765,0.337567 0.0862,0.01455 z m 0.45221,0.04458 1.05677,0.757285 z m -19.901602,0.371536 c -0.123423,0.610961 -0.07774,0.384828 0,0 z m 38.151462,0.195321 c 0.37524,-0.130403 0.0677,0.482631 0,0 z M 22.393323,52.8857 c 0.07694,0.645783 0.05743,0.482036 0,0 z m 33.160137,0.03397 c -0.63247,0.907584 -2.6325,-0.09161 0,0 z m -3.76844,4.573081 c -0.58805,1.10537 -2.47317,0.76876 0,0 z m -2.09759,2.2271 -0.29589,0.8923 z m -0.35455,0.89381 -0.0446,0.0361 z m 9.00179,9.61323 c 3.83294,0.78647 10.81923,8.14231 6.30356,10.28608 -5.62946,0.45288 -8.82215,-5.66521 -6.30356,-10.28608 z m 1.777,9.34573 0.32192,0.11648 7.9e-4,2.9e-4 -0.32192,-0.11649 z m -0.86408,0.17409 -0.12102,0.21443 z m 4.92763,1.57531 c 0.63896,0.22415 0.53066,0.18616 0,0 z m 6.64519,0.75369 c 1.06848,1.38502 1.15534,1.66369 0,0 z m 11.54522,14.203299 0.0319,0.24806 z m 34.84161,11.10787 c -2.27097,1.14491 1.05656,2.66976 0,0 z m -31.06256,1.95109 c -1.1704,0.74237 1.09237,0.41329 0,0 z m 5.24185,6.38194 c -3.58576,2.74519 2.5543,4.00838 0,0 z m 5.929722,0.67938 c -0.98804,0.0895 -2.399002,1.69938 -0.66687,0.54258 z"
     style="fill:#e0e0e0;fill-rule:evenodd;stroke:none;stroke-width:0.30000001" />
</svg>
