<?xml version="1.0" encoding="UTF-8" standalone="no"?>
<svg
   xmlns:svg="http://www.w3.org/2000/svg"
   xmlns="http://www.w3.org/2000/svg"
   height="454.80923"
   width="458.95242"
   version="1.1">
  <path
     id="path2562"
     d="m 185.37228,9.9996627 c -24.7892,7.5552303 7.1928,17.4858303 9.011,18.8093303 -13.2664,-3.63757 -13.3047,9.33781 -3.4131,11.27799 0.9523,-10.6103 8.6295,4.28509 12.2435,3.11268 10.7598,3.22107 32.3704,14.466696 26.0784,23.744816 4.9132,4.96386 0.4151,13.03301 12.4207,14.127 7.1054,11.5675 29.0931,4.75241 18.7584,-2.42036 11.8848,-1.34059 6.0946,-10.75505 21.1138,-3.82009 8.2277,11.28086 22.6931,28.227511 36.6692,20.81009 -11.3701,-8.40147 -28.9675,-26.70495 -20.0986,-35.12474 -15.4225,-9.67744 -24.5051,-26.003986 -44.4396,-29.170396 -16.6078,-10.00182 -36.6066,-13.20628 -47.6437,3.9415 -14.0945,-5.67325 -0.7896,-25.5045303 -20.7,-25.2878203 z m 149.6102,33.0306203 c -7.5266,5.921376 -12.2403,14.267626 -19.9763,10.396636 -25.7632,5.41214 19.8756,13.00588 19.9519,-4.86369 2.0847,-1.33043 1.5976,-4.170196 0.024,-5.532946 z m -78.4578,56.664566 c -14.5601,16.178031 -6.0755,43.209231 -22.1966,57.941961 -15.8981,0.8164 -49.6043,-24.76141 -24.6064,-38.06583 5.4174,-15.57717 -25.4501,-3.91192 -33.4622,-16.35022 11.6976,14.51497 -21.6055,6.89996 -20.6162,25.66662 1.6396,10.27623 -16.5322,14.09213 -15.1896,2.61634 -8.5172,-11.38642 -22.2074,5.40791 -26.3611,15.27856 -0.5502,3.09112 -10.718,-1.14522 -7.3813,8.67559 -14.159302,-10.93206 -14.911602,27.67648 -35.796702,25.00349 -17.1949,2.8885 -38.287901,13.2794 -47.009001,21.6121 -5.3238,9.73855 -0.8151,35.94396 -6.2253,30.04673 -3.9728,5.81065 5.9952,35.28029 0.9555,53.35989 -3.0936,10.2037 -18.23250035,20.4246 0.7897,24.6111 16.416,-4.8775 32.368501,-11.8211 50.894401,-10.7422 20.3556,-13.0926 48.353902,-23.3777 71.639702,-15.7988 20.2106,-1.4208 2.2505,37.819 23.1083,18.0098 7.6153,-7.7547 19.3681,-17.8993 9.3461,-2.0408 -6.8377,5.5671 -13.889,18.856 -2.0853,5.9798 8.1207,-3.1353 -8.2579,17.0172 5.576,8.0749 -9.2307,20.2888 14.4166,36.4134 30.234,22.125 -4.151,7.2002 5.6616,-0.7411 4.4219,8.0124 17.5737,-8.9832 37.9973,-10.0035 46.7888,-30.7027 12.9909,-16.6677 33.004,-28.1282 42.1377,-48.4714 10.2178,-19.38489 12.2783,-42.36263 -1.9667,-59.70447 -5.0347,-2.40932 -8.6664,-15.16344 -11.0402,-23.7467 -27.1568,-7.42687 -3.7009,-45.00903 -26.3535,-51.93564 -1.9639,-10.06615 -0.9589,-20.22364 -5.602,-29.455521 z m -46.423,10.292621 0.2718,-0.20806 z m -46.65,-5.10597 c -7.0408,5.68816 5.4972,6.90235 0,0 z m 181.195,0.14862 c -5.0949,0.12508 2.7754,1.65783 0,0 z m -6.9467,0.37366 c -0.4282,4.01852 6.3992,0.10615 0,0 z m 51.4227,1.12947 c 0.5429,2.71313 6.3187,2.1818 0,0 z m -179.6302,0.008 -2.018,1.50855 z m 230.6517,0.66452 c -1.5987,1.33059 3.2088,0.65373 0,0 z m -253.6594,0.12738 c -1.3021,1.08845 0.966,0.29599 0,0 z m -6.8022,0.28874 c -0.4654,1.94003 1.7527,-0.59618 0,0 z m 28.3705,2.94893 c -1.5059,1.60861 -0.7732,0.82592 0,0 z m 234.4987,14.96973 c -2.8392,2.17569 1.8799,2.89387 0,0 z m -0.1508,3.86185 c -3.917,0.30225 1.7899,3.1331 0,0 z m -8.2799,4.74505 c -3.6656,13.21788 8.8386,7.38541 0,0 z m 11.2416,2.27379 c -3.9865,7.24064 2.1576,2.78917 0,0 z m -1.3693,2.73026 c -3.4664,-0.45066 -1.2261,4.33096 0,0 z m 0.9383,1.7303 c -5.0654,0.72577 -18.2096,11.62926 -3.084,13.90854 8.333,-1.3957 2.5417,-8.96028 3.084,-13.90854 z m -7.6091,1.29932 c -2.5666,0.12319 1.4543,2.27932 0,0 z m 5.7856,16.45586 c -5.6874,1.05523 2.8488,4.09817 0,0 z m -168.3462,6.07409 c -2.0313,2.54502 2.2383,2.83573 0,0 z m 171.327,3.3693 c -4.264,3.92984 4.5729,3.92975 0,0 z m -69.4857,4.70046 c -0.8154,2.12351 -0.5372,1.39914 0,0 z m 70.0504,1.29083 c -3.3899,1.59382 2.5525,4.16006 0,0 z m -41.8307,6.69826 c 2.2991,22.50699 28.757,21.31655 10.8183,3.66167 -4.9865,1.24545 -7.8802,0.32212 -10.8183,-3.66167 z m 43.6417,0.5244 c -1.9449,0.9936 1.7676,0.5609 0,0 z m -156.4613,0.0467 c -2.3181,2.54084 1.3455,1.30902 0,0 z m 131.6894,2.59013 c -4.0049,3.8521 0.2876,1.88688 0,0 z m 3.3863,2.1167 c -3.5073,3.63089 5.519,6.27638 0,0 z m 4.5943,5.74713 c -4.4717,4.30442 5.3335,1.95847 0,0 z m -6.089,10.37966 c -1.6043,1.28663 1.8908,0.46676 0,0 z m -4.452,32.85865 c -22.7934,16.05049 22.5492,13.91459 0,0 z m 5.3905,69.53879 c -2.7692,16.2666 3.2577,28.9805 -16.8546,41.5654 -4.3359,1.4291 6.5544,11.8409 -5.5923,15.6363 -0.4838,11.1242 21.7206,-11.2186 29.0191,-16.0053 9.5472,-2.915 22.5515,-18.5942 3.5973,-10.6667 -6.8021,-2.0798 0.2783,-18.6411 -7.3145,-6.5113 -0.4879,-9.1765 1.9552,-17.9664 -2.855,-24.0184 z m -261.7717,10.7534 c -20.9143,3.5105 12.4637,4.1758 0,0 z m 270.7415,3.4669 c -2.3859,2.2146 0.6619,2.6991 0,0 z m -5.1101,5.9786 c -3.0577,-0.6644 -0.2902,1.7697 0,0 z m -235.6325,24.6042 c -6.2563,3.2449 -0.1534,7.8157 0,0 z m 26.9821,1.3163 c -6.5025,6.2092 5.6289,4.8134 0,0 z m -0.5945,4.8894 c -6.4222,1.6239 4.0188,2.1706 0,0 z m -0.8451,1.5201 c -1.4421,-0.2983 -0.6584,2.6337 0,0 z m 172.7219,0.059 c -18.4971,12.2995 -35.8725,26.5459 -57.469,33.1457 -12.5214,4.267 -28.5559,20.3086 -4.8423,18.3068 16.3346,-7.8996 31.4347,-19.9409 47.865,-28.952 8.0795,-4.5743 31.6487,-23.8023 11.8944,-16.0103 l 1.3561,-4.3722 z m -198.1412,1.3206 c -7.0446,9.9959 -7.6903,34.0486 8.3565,19.2495 6.2431,1.4934 23.6378,-25.5187 3.3505,-15.4746 -4.8542,1.7088 -8.8905,-0.1882 -11.707,-3.7749 z m 205.0603,0.1995 c -3.369,1.1708 -1.6233,3.2236 0,0 z m 45.8857,26.1201 c -7.037,4.3956 4.4945,0.9414 0,0 z m -0.6772,4.261 -0.7898,0.7197 z m -122.6451,10.0612 -0.4124,0.6034 z m -3.6624,10.7087 c -9.0353,1.4032 -4.8128,11.7243 0,0 z m -37.5251,32.6188 c -8.8024,1.5227 -0.8381,4.4504 0,0 z"
     style="fill:#e0e0e0;fill-rule:evenodd;stroke:none;stroke-width:0.5" />
</svg>
