<?xml version="1.0" encoding="UTF-8" standalone="no"?>
<svg
   xmlns:dc="http://purl.org/dc/elements/1.1/"
   xmlns:cc="http://creativecommons.org/ns#"
   xmlns:rdf="http://www.w3.org/1999/02/22-rdf-syntax-ns#"
   xmlns:svg="http://www.w3.org/2000/svg"
   xmlns="http://www.w3.org/2000/svg"
   xmlns:sodipodi="http://sodipodi.sourceforge.net/DTD/sodipodi-0.dtd"
   xmlns:inkscape="http://www.inkscape.org/namespaces/inkscape"
   xml:space="preserve"
   enable-background="new 0 0 512 512"
   viewBox="0 0 512 512"
   height="512px"
   width="512px"
   y="0px"
   x="0px"
   id="svg2"
   version="1.1"
   sodipodi:docname="ic_launcher_icon.svg"
   inkscape:version="0.92.2 (5c3e80d, 2017-08-06)"><sodipodi:namedview
     pagecolor="#7b7b7b"
     bordercolor="#666666"
     borderopacity="1"
     objecttolerance="10"
     gridtolerance="10"
     guidetolerance="10"
     inkscape:pageopacity="0"
     inkscape:pageshadow="2"
     inkscape:window-width="1920"
     inkscape:window-height="1021"
     id="namedview7"
     showgrid="false"
     inkscape:zoom="0.65186406"
     inkscape:cx="188.0439"
     inkscape:cy="220.79515"
     inkscape:window-x="1440"
     inkscape:window-y="23"
     inkscape:window-maximized="0"
     inkscape:current-layer="svg2" /><metadata
     id="metadata4352"><rdf:RDF><cc:Work
         rdf:about=""><dc:format>image/svg+xml</dc:format><dc:type
           rdf:resource="http://purl.org/dc/dcmitype/StillImage" /><dc:title></dc:title></cc:Work></rdf:RDF></metadata><defs
     id="defs4350" /><g
     style="display:inline"
     transform="translate(0,-540.36216)"
     id="layer1_1_"><path
       style="fill:#ffffff"
       id="path4348"
       d="m 459.05937,848.80553 c -8.91648,-26.06888 -59.8508,-115.12281 -79.68781,-145.64128 -20.00587,-32.8918 -43.2345,-46.62511 -77.8221,-45.9476 -28.25096,-0.86877 -189.01517,6.35802 -243.638158,15.59799 -11.954087,2.02236 -9.450555,18.06694 -1.356037,18.56541 14.453548,0.89012 67.958545,2.9257 91.894185,5.17085 14.86149,1.39367 28.82267,8.47701 38.99549,28.48391 10.17283,20.00689 34.60693,80.87294 43.57428,104.18702 5.08641,13.22468 6.16473,27.43713 0.89012,36.62217 -3.94299,6.86767 -16.08526,13.66007 -34.46146,10.42816 -15.42913,-2.71309 -116.987495,-24.83796 -126.990433,-27.12685 -12.771983,-2.92266 -16.972341,20.73831 -3.390603,25.43206 18.64984,6.44551 104.440336,36.27934 173.969556,55.40019 35.46145,9.75167 55.36256,4.85344 81.79155,-0.29807 33.20105,-6.47195 79.60236,-15.93675 107.74751,-23.73625 27.6355,-7.62962 37.46957,-33.7402 28.48391,-57.13771 z m -152.16919,54.43479 c -11.94391,0 -21.62742,-9.68352 -21.62742,-21.62742 0,-11.94392 9.68351,-21.62744 21.62742,-21.62744 11.94493,0 21.62744,9.68352 21.62744,21.62744 0,11.9439 -9.68251,21.62742 -21.62744,21.62742 z m 79.51793,-93.85448 c -14.9093,3.77106 -67.0023,11.42815 -87.99495,13.73332 -22.88884,3.30616 -35.85919,-1.0173 -43.23449,-17.80246 -6.11896,-11.15145 -31.44318,-76.16699 -35.60489,-85.70604 -7.62962,-20.09134 1.78024,-25.9407 14.49627,-27.21232 10.11077,-1.18921 57.58125,-5.20746 74.77027,-6.69676 25.94069,-2.03457 39.16537,7.96838 52.05129,30.34858 14.48611,24.51447 27.78504,47.26702 38.99549,67.39497 6.32546,11.35288 0.93285,22.29578 -13.47899,25.94071 z m 34.84192,69.56584 c -10.75064,0 -19.46468,-8.71302 -19.46468,-19.46468 0,-10.75166 8.71201,-19.46468 19.46468,-19.46468 10.75268,0 19.46469,8.71302 19.46469,19.46468 0,10.75166 -8.71404,19.46468 -19.46469,19.46468 z" /></g></svg>