<?xml version="1.0" encoding="UTF-8" standalone="no"?>
<!-- Generator: Adobe Illustrator 16.0.3, SVG Export Plug-In . SVG Version: 6.00 Build 0)  -->

<svg
   xmlns:dc="http://purl.org/dc/elements/1.1/"
   xmlns:cc="http://creativecommons.org/ns#"
   xmlns:rdf="http://www.w3.org/1999/02/22-rdf-syntax-ns#"
   xmlns:svg="http://www.w3.org/2000/svg"
   xmlns="http://www.w3.org/2000/svg"
   xmlns:sodipodi="http://sodipodi.sourceforge.net/DTD/sodipodi-0.dtd"
   xmlns:inkscape="http://www.inkscape.org/namespaces/inkscape"
   version="1.1"
   id="svg2"
   inkscape:version="0.92.2 (5c3e80d, 2017-08-06)"
   sodipodi:docname="ic_launcher.svg"
   x="0px"
   y="0px"
   width="512px"
   height="512px"
   viewBox="0 0 512 512"
   enable-background="new 0 0 512 512"
   xml:space="preserve"><metadata
     id="metadata4352"><rdf:RDF><cc:Work
         rdf:about=""><dc:format>image/svg+xml</dc:format><dc:type
           rdf:resource="http://purl.org/dc/dcmitype/StillImage" /><dc:title /></cc:Work></rdf:RDF></metadata><defs
     id="defs4350"><filter
       inkscape:collect="always"
       style="color-interpolation-filters:sRGB"
       id="filter4486"
       x="-0.024"
       width="1.048"
       y="-0.024"
       height="1.048"><feGaussianBlur
         inkscape:collect="always"
         stdDeviation="4.7152286"
         id="feGaussianBlur4488" /></filter></defs><sodipodi:namedview
     units="px"
     pagecolor="#ffffff"
     bordercolor="#666666"
     borderopacity="1.0"
     inkscape:zoom="0.98994949"
     inkscape:cx="223.19197"
     inkscape:cy="276.60074"
     showgrid="false"
     showguides="false"
     id="base"
     inkscape:window-width="1920"
     inkscape:window-height="1021"
     inkscape:window-x="1440"
     inkscape:window-y="23"
     inkscape:document-units="px"
     inkscape:pageshadow="2"
     inkscape:window-maximized="0"
     inkscape:current-layer="layer1"
     inkscape:pageopacity="0.0"
     inkscape:snap-bbox="true"
     inkscape:bbox-paths="true"
     inkscape:snap-bbox-edge-midpoints="true"
     inkscape:object-paths="true"
     inkscape:snap-intersection-paths="true"
     inkscape:object-nodes="false"
     inkscape:snap-smooth-nodes="false"
     inkscape:snap-midpoints="false"
     inkscape:bbox-nodes="true"
     inkscape:snap-bbox-midpoints="true" /><line
     display="none"
     fill="none"
     stroke="#2A7B26"
     stroke-miterlimit="10"
     x1="185.248"
     y1="88.193"
     x2="343.714"
     y2="476.569"
     id="line4336" /><line
     display="none"
     fill="none"
     stroke="#2A7B26"
     stroke-miterlimit="10"
     x1="217.12"
     y1="83.598"
     x2="375.586"
     y2="471.975"
     id="line4338" /><line
     display="none"
     fill="none"
     stroke="#2A7B26"
     stroke-miterlimit="10"
     x1="327.626"
     y1="67.143"
     x2="536.309"
     y2="431.01"
     id="line4340" /><line
     display="none"
     fill="none"
     stroke="#2A7B26"
     stroke-miterlimit="10"
     x1="353.525"
     y1="59.158"
     x2="562.208"
     y2="423.025"
     id="line4342" /><g
     inkscape:groupmode="layer"
     id="layer1"
     inkscape:label="Background"
     style="display:inline"><rect
       style="opacity:0.5;fill:#98120a;fill-opacity:1;fill-rule:nonzero;stroke:#f24236;stroke-width:2.40572882;stroke-linecap:round;stroke-linejoin:round;stroke-miterlimit:4;stroke-dasharray:none;stroke-opacity:1;filter:url(#filter4486)"
       id="rect4419-0"
       width="471.52286"
       height="471.52286"
       x="26.238571"
       y="26.238579"
       ry="58.070744" /><rect
       style="opacity:1;fill:#f24236;fill-opacity:1;fill-rule:nonzero;stroke:#f24236;stroke-width:2.40572882;stroke-linecap:round;stroke-linejoin:round;stroke-miterlimit:4;stroke-dasharray:none;stroke-opacity:1"
       id="rect4419"
       width="471.52286"
       height="471.52286"
       x="20.238571"
       y="20.238575"
       ry="58.070744" /></g><g
     inkscape:groupmode="layer"
     id="layer2"
     inkscape:label="Dropshadow"
     style="display:inline"
     sodipodi:insensitive="true"><path
       style="display:inline;fill:#de3d32;fill-opacity:1;fill-rule:evenodd;stroke:none;stroke-width:1px;stroke-linecap:butt;stroke-linejoin:miter;stroke-opacity:1"
       d="M 355.30718,134.90067 198.03515,141.31836 50.046875,147.37891 254.29658,353.28599 62.857422,332 224.1063,492.92215 c 70.57091,-0.0398 142.79252,-0.40879 213.36242,-0.0644 33.37703,-2.09718 54.13838,-29.32844 55.54325,-56.20811 l 0.0187,-161.98971 C 442.5071,226.87699 406.5185,181.94189 355.30718,134.90067 Z"
       id="path4560"
       inkscape:connector-curvature="0"
       sodipodi:nodetypes="cccccccccc" /></g><g
     id="layer1_1_"
     transform="translate(0,-540.36216)"
     inkscape:label="Logo"
     inkscape:groupmode="layer"
     style="display:inline"
     sodipodi:insensitive="true"><path
       d="m 459.05937,308.44337 c -8.91648,-26.06888 -59.8508,-115.12281 -79.68781,-145.64128 -20.00587,-32.8918 -43.2345,-46.62511 -77.8221,-45.9476 -28.25096,-0.86877 -189.01517,6.35802 -243.638156,15.59799 -11.954087,2.02236 -9.450555,18.06694 -1.356037,18.56541 14.453548,0.89012 67.958543,2.9257 91.894183,5.17085 14.86149,1.39367 28.82267,8.47701 38.99549,28.48391 10.17283,20.00689 34.60693,80.87294 43.57428,104.18702 5.08641,13.22468 6.16473,27.43713 0.89012,36.62217 -3.94299,6.86767 -16.08526,13.66007 -34.46146,10.42816 -15.42913,-2.71309 -116.987493,-24.83796 -126.990431,-27.12685 -12.771983,-2.92266 -16.972341,20.73831 -3.390603,25.43206 18.64984,6.44551 104.440334,36.27934 173.969554,55.40019 35.46145,9.75167 55.36256,4.85344 81.79155,-0.29807 33.20105,-6.47195 79.60236,-15.93675 107.74751,-23.73625 27.6355,-7.62962 37.46957,-33.7402 28.48391,-57.13771 z m -152.16919,54.43479 c -11.94391,0 -21.62742,-9.68352 -21.62742,-21.62742 0,-11.94392 9.68351,-21.62744 21.62742,-21.62744 11.94493,0 21.62744,9.68352 21.62744,21.62744 0,11.9439 -9.68251,21.62742 -21.62744,21.62742 z m 79.51793,-93.85448 c -14.9093,3.77106 -67.0023,11.42815 -87.99495,13.73332 -22.88884,3.30616 -35.85919,-1.0173 -43.23449,-17.80246 -6.11896,-11.15145 -31.44318,-76.16699 -35.60489,-85.70604 -7.62962,-20.09134 1.78024,-25.9407 14.49627,-27.21232 10.11077,-1.18921 57.58125,-5.20746 74.77027,-6.69676 25.94069,-2.03457 39.16537,7.96838 52.05129,30.34858 14.48611,24.51447 27.78504,47.26702 38.99549,67.39497 6.32546,11.35288 0.93285,22.29578 -13.47899,25.94071 z m 34.84192,69.56584 c -10.75064,0 -19.46468,-8.71302 -19.46468,-19.46468 0,-10.75166 8.71201,-19.46468 19.46468,-19.46468 10.75268,0 19.46469,8.71302 19.46469,19.46468 0,10.75166 -8.71404,19.46468 -19.46469,19.46468 z"
       id="path4348"
       inkscape:connector-curvature="0"
       style="fill:#ffffff"
       transform="translate(0,540.36216)" /></g></svg>