<?xml version="1.0" encoding="UTF-8" standalone="no"?>
<!-- Generator: Adobe Illustrator 14.0.0, SVG Export Plug-In . SVG Version: 6.00 Build 43363)  -->

<svg
   xmlns:dc="http://purl.org/dc/elements/1.1/"
   xmlns:cc="http://creativecommons.org/ns#"
   xmlns:rdf="http://www.w3.org/1999/02/22-rdf-syntax-ns#"
   xmlns:svg="http://www.w3.org/2000/svg"
   xmlns="http://www.w3.org/2000/svg"
   xmlns:sodipodi="http://sodipodi.sourceforge.net/DTD/sodipodi-0.dtd"
   xmlns:inkscape="http://www.inkscape.org/namespaces/inkscape"
   version="1.0"
   id="Layer_1"
   x="0px"
   y="0px"
   width="100"
   height="100"
   viewBox="0 0 99.999997 100"
   enable-background="new 0 0 55.74 100"
   xml:space="preserve"
   inkscape:version="0.48.4 r9939"
   sodipodi:docname="walking.svg"
   inkscape:export-filename="/home/tovok7/svn/liberario/res/drawable-xhdpi/walking.png"
   inkscape:export-xdpi="28.799999"
   inkscape:export-ydpi="28.799999"><metadata
     id="metadata11"><rdf:RDF><cc:Work
         rdf:about=""><dc:format>image/svg+xml</dc:format><dc:type
           rdf:resource="http://purl.org/dc/dcmitype/StillImage" /><dc:title></dc:title></cc:Work></rdf:RDF></metadata><defs
     id="defs9" /><sodipodi:namedview
     pagecolor="#ffffff"
     bordercolor="#666666"
     borderopacity="1"
     objecttolerance="10"
     gridtolerance="10"
     guidetolerance="10"
     inkscape:pageopacity="0"
     inkscape:pageshadow="2"
     inkscape:window-width="1280"
     inkscape:window-height="954"
     id="namedview7"
     showgrid="false"
     inkscape:zoom="3.337544"
     inkscape:cx="-49.255485"
     inkscape:cy="52.385752"
     inkscape:window-x="-4"
     inkscape:window-y="-6"
     inkscape:window-maximized="1"
     inkscape:current-layer="Layer_1" /><rect
     style="fill:#fecc1d;fill-opacity:1;fill-rule:nonzero;stroke:none"
     id="rect2992"
     width="95"
     height="95"
     x="2.4999986"
     y="2.5"
     rx="25.812511"
     ry="26.873278" /><g
     id="g2988"
     transform="translate(0,-6.4504095)"><path
       inkscape:connector-curvature="0"
       id="path3"
       d="m 50.000433,24.893505 c 3.363771,0 5.995908,-2.63475 5.995908,-5.996779 0,-3.36377 -2.632137,-5.995907 -5.995908,-5.995907 -3.362028,0 -5.996778,2.632137 -5.996778,5.995907 0,3.362029 2.63475,5.996779 5.996778,5.996779 z" /><path
       inkscape:connector-curvature="0"
       id="path5"
       d="m 26.813325,57.951999 3.929915,-0.366687 0.08884,-13.982032 7.163037,-4.532641 c 0,0 -1.161032,9.184608 -1.161032,14.009903 0,4.207762 -0.149811,7.608985 -0.149811,7.608985 L 27.514473,97.315603 33.990297,100 44.260162,66.509494 51.39794,75.588712 59.532132,98.528024 66.843237,95.605846 58.63414,71.24856 49.630697,57.029619 52.157446,38.391265 57.784053,50.187978 72.261678,55.1596 74.27454,51.502305 61.00585,43.761801 c 0,0 -3.214829,-8.552269 -5.845225,-13.902772 -0.894508,-1.821243 -4.525672,-2.416131 -6.004617,-2.526747 -4.264376,-0.315299 -6.469727,1.128806 -10.005954,2.989244 -3.531872,1.855213 -13.424597,9.343129 -13.424597,9.343129 l 1.087869,18.287344 z" /></g></svg>